/* XPM */
static char * folder_xpm[] = {
"16 16 100 2",
"  	c None",
". 	c #020202",
"+ 	c #484848",
"@ 	c #141414",
"# 	c #E4E4E4",
"$ 	c #E9E9E9",
"% 	c #2F2F2F",
"& 	c #000000",
"* 	c #FFFFFF",
"= 	c #F1F1F2",
"- 	c #EEEEEE",
"; 	c #505050",
"> 	c #727272",
", 	c #837E78",
"' 	c #868078",
") 	c #F8F8F9",
"! 	c #C4C4CB",
"~ 	c #5B3E00",
"{ 	c #9E6800",
"] 	c #87837E",
"^ 	c #F3F0EC",
"/ 	c #928A7B",
"( 	c #8A795C",
"_ 	c #948B7B",
": 	c #464646",
"< 	c #F8D391",
"[ 	c #F8E4C7",
"} 	c #E2C799",
"| 	c #F5F2EF",
"1 	c #EAE0D1",
"2 	c #EDE0CD",
"3 	c #948C82",
"4 	c #8A8173",
"5 	c #3F3F3F",
"6 	c #EE9F2F",
"7 	c #F0AD4D",
"8 	c #D2AC6F",
"9 	c #EEE0CB",
"0 	c #E3D1B8",
"a 	c #D7C19F",
"b 	c #88785B",
"c 	c #D4D4D5",
"d 	c #E68700",
"e 	c #B4720B",
"f 	c #CC9F59",
"g 	c #003B5C",
"h 	c #CCB389",
"i 	c #807055",
"j 	c #CCCDCD",
"k 	c #CC9400",
"l 	c #967211",
"m 	c #9F7614",
"n 	c #72644F",
"o 	c #BCBCC3",
"p 	c #F6F6F6",
"q 	c #BAAB8B",
"r 	c #96752D",
"s 	c #977312",
"t 	c #625C52",
"u 	c #BDBDC2",
"v 	c #424242",
"w 	c #EAEAEA",
"x 	c #E2E2E1",
"y 	c #E1E1E1",
"z 	c #94700F",
"A 	c #926F2B",
"B 	c #4F3600",
"C 	c #ACADB1",
"D 	c #363636",
"E 	c #DFDFDF",
"F 	c #DEDEDE",
"G 	c #DBDBDB",
"H 	c #D6D6D6",
"I 	c #D1D1D1",
"J 	c #CCCCCC",
"K 	c #AF7B16",
"L 	c #563A00",
"M 	c #A3A2A5",
"N 	c #686868",
"O 	c #C0C0C0",
"P 	c #CECECE",
"Q 	c #CACACA",
"R 	c #C6C6C6",
"S 	c #BBBBBB",
"T 	c #5A3D00",
"U 	c #9B9A9F",
"V 	c #323232",
"W 	c #606060",
"X 	c #AFAFAF",
"Y 	c #B5B5B5",
"Z 	c #B0B0B0",
"` 	c #AAAAAA",
" .	c #573C00",
"..	c #2E2E2E",
"+.	c #585858",
"@.	c #9D9D9D",
"#.	c #A7A7A7",
"$.	c #393939",
"%.	c #292929",
"&.	c #36363B",
"        . +                     ",
"      @ # $ + + %               ",
"      & * = - # # ; . + > .     ",
"      & * , ' # ) ) - # # ! .   ",
"~ { ~ ~ * ] ^ / ( _ # ) ) - ! : ",
"~ < [ } { ~ ~ | 1 2 3 ( 4 # # 5 ",
"~ 6 7 8 } 9 } { ~ ~ 1 0 a b c 5 ",
"  ~ d e e f 8 } 9 } { g h i j 5 ",
"  ~ k l m m e e f 8 } 9 ~ n o 5 ",
"  & p p q r s m m e e f ~ t u 5 ",
"    v - w x y q r z m m A B C 5 ",
"    D E E F G H I J q K l L M 5 ",
"      . D N O P Q R O S S T U 5 ",
"            . V W X S Y Z `  .5 ",
"                  . ..+.@.#.~ $.",
"                        . %.&.  "};
