/* XPM */
static char *numbers_template[] = {
/* width height num_colors chars_per_pixel */
"    99    13        2            1",
/* colors */
"` c #000000",
". c #ffffff",
/* pixels */
"`.......`````````.`.......``.......`.```````.`.......``.......`........``.......```......``````````",
".```````.````````.````````.````````..```````..````````.````````````````..```````..```````.`````````",
".```````.````````.````````.````````..```````..````````.````````````````..```````..```````.`````````",
".```````.````````.````````.````````..```````..````````.````````````````..```````..```````.`````````",
".```````.````````.````````.````````..```````..````````.````````````````..```````..```````.`````````",
".```````.````````.````````.````````..```````..````````.````````````````..```````..```````.`````````",
".```````.````````.`.......``.......``........`.......`........`````````.`.......``........`````````",
".```````.````````..````````````````.````````.````````..```````.````````..```````.````````.`````````",
".```````.````````..````````````````.````````.````````..```````.````````..```````.````````.`````````",
".```````.````````..````````````````.````````.````````..```````.````````..```````.````````.`````````",
".```````.````````..````````````````.````````.````````..```````.````````..```````.````````.`````````",
".```````.````````..````````````````.````````.````````..```````.````````..```````.````````.`````````",
"`.......`````````.`.......``.......`````````.`.......``.......`````````.`.......``.......``````````"
};
