/* XPM */
static char *text_template[] = {
/* width height num_colors chars_per_pixel */
"   155    18        2            1",
/* colors */
"` c #000000",
". c #ffffff",
/* pixels */
"`..``...```..``...``....`....``...`.``.``...````.`.``.`.````.``.`.``.``..``...```..``...```...``...`.``.`.``.`.``.`.``.`.``.`....``.`.````..```````````````",
".``.`.``.`.``.`.``.`.````.````.````.``.```.`````.`.`.``.````....`.``.`.``.`.``.`.``.`.``.`.``````.``.``.`.``.`.``.`.``.`.``.````.``.`.```.``.``````````````",
"....`...``.````.``.`...``...``.`..`....```.`````.`..```.````....`..`.`.``.`...``.``.`...```..````.``.``.`.``.`.``.``..```..````.````````.`..`.`````````````",
".``.`.``.`.````.``.`.````.````.``.`.``.```.``.``.`..```.````.``.`.`..`.``.`.````..`.`..``````.```.``.``.`.``.`....``..````.```.`````````.`....`````````````",
".``.`.``.`.``.`.``.`.````.````.``.`.``.```.``.``.`.`.``.````.``.`.``.`.``.`.````.`..`.`.`````.```.``.``.``..``....`.``.```.``.```````````.`````````````````",
".``.`...```..``...``....`.`````..``.``.``...``..``.``.`....`.``.`.``.``..``.`````...`.``.`...````.```..```..``.``.`.``.```.``....`````````..```````````````",
"`..````.``...``....```.``....``..``....``..```..``````````````````````````````````.```.``````````.`````````````..````..```.````.```..``````````````.```..``",
".``.``..`````.```.```..``.````.```````.`.``.`.``.```````````````````.`.```````````.```.``````````.``.````````.`.``````.``.`.``.`.``..`.``````...``...`....`",
".`..```.`````.``..``.`.``...``...````.```..``.``.````````````..````.```.``````````````.````````.....`.``````.``.``````.`.```.``.`````.````````````..```..``",
"..`.```.```..`````.`....````.`.``.``.```.``.``...``````````````````.```.```....```````.``````````.````.````.```.``````.```````.`..``.````````...```..`....`",
".``.```.``.````.``.```.`````.`.``.``.```.``.````.````````````..`````.`.``````````````````````````.`````.``.````.``````.```````.`.``.`..``.````````...``..``",
"`..````.``....``..````.``...```..```.````..```..``.`.`...`````````````````````````````.```.....`````````..`````..````..````````.`.```..``.`````````.```````",
"`..``.``.`.``.``..`````````````````````````````````````````````````````````````````````````````````````````````````````````````````````````````````````````",
".``.``..```````.``.```.````````````````````````````````````````````````````````````````````````````````````````````````````````````````````````````````````",
"`..``.``.``..`````.`...````````````````````````````````````````````````````````````````````````````````````````````````````````````````````````````````````",
".``.`.``.`.``.``..```...```````````````````````````````````````````````````````````````````````````````````````````````````````````````````````````````````",
"....`.``.`....```````.`````````````````````````````````````````````````````````````````````````````````````````````````````````````````````````````````````",
".``.``..``.``.``..`````````````````````````````````````````````````````````````````````````````````````````````````````````````````````````````````````````"
};
