/* XPM */
static char *_1_frame_5[] = {
/* width height num_colors chars_per_pixel */
"    66   100      256            2",
/* colors */
"`` c #18110a",
"`. c #4a814b",
"`# c #64885d",
"`a c #fefefe",
"`b c #6a996e",
"`c c #432b1b",
"`d c #849a76",
"`e c #487342",
"`f c #85ce95",
"`g c #485e35",
"`h c #389e57",
"`i c #89a884",
"`j c #60311e",
"`k c #99a595",
"`l c #39ac66",
"`m c #a6caa2",
"`n c #96aa9e",
"`o c #65543f",
"`p c #6b613f",
"`q c #57764d",
"`r c #ad806e",
"`s c #324a39",
"`t c #eeeeee",
"`u c #64ae7c",
"`v c #bfaca1",
"`w c #3abd77",
"`x c #5e4431",
"`y c #473f2f",
"`z c #66704e",
"`A c #845e47",
"`B c #2f2926",
"`C c #8e7e73",
"`D c #babab3",
"`E c #71422f",
"`F c #e5cbc5",
"`G c #69d184",
"`H c #56c26a",
"`I c #8b6e66",
"`J c #bf9892",
"`K c #d4beb7",
"`L c #714b37",
"`M c #1d4332",
"`N c #715446",
"`O c #46ba71",
"`P c #dcc9c1",
"`Q c #484c30",
"`R c #272e2a",
"`S c #67b97e",
"`T c #9f7055",
"`U c #bbbeab",
"`V c #9c684d",
"`W c #42c67d",
"`X c #89bfc8",
"`Y c #598255",
"`Z c #968077",
"`0 c #a3afa0",
"`1 c #b2998f",
"`2 c #6e8259",
"`3 c #815236",
"`4 c #58a258",
"`5 c #764a35",
"`6 c #b9a298",
"`7 c #7ac1c6",
"`8 c #ccc0b9",
".` c #a0928c",
".. c #9ebca9",
".# c #58b072",
".a c #d1b3ab",
".b c #45894b",
".c c #8c614c",
".d c #c7c7c0",
".e c #36312c",
".f c #88bf8e",
".g c #5a5856",
".h c #af8878",
".i c #c4bfb4",
".j c #76422d",
".k c #e6d4cf",
".l c #98897e",
".m c #58d593",
".n c #9b7672",
".o c #6ebe86",
".p c #6f3e2b",
".q c #ccbab3",
".r c #5a6543",
".s c #aa978a",
".t c #52cb80",
".u c #5b8e93",
".v c #512d1e",
".w c #cab2aa",
".x c #8ab5bd",
".y c #4f5a36",
".z c #8bc8cf",
".A c #4ea161",
".B c #81594d",
".C c #bab6b1",
".D c #5e3b2c",
".E c #758b68",
".F c #4bb067",
".G c #7a6255",
".H c #967a6a",
".I c #383f32",
".J c #b1b9a5",
".K c #3c8a5f",
".L c #824e38",
".M c #764e3a",
".N c #2a1d17",
".O c #906966",
".P c #8d857f",
".Q c #654b36",
".R c #78c48e",
".S c #2a5b3f",
".T c #52bf7d",
".U c #59ce85",
".V c #3cb670",
".W c #a1c7af",
".X c #bf9086",
".Y c #c3beba",
".Z c #419b71",
".0 c #6f614b",
".1 c #a5978f",
".2 c #c8a29b",
".3 c #836a60",
".4 c #578389",
".5 c #c6bab2",
".6 c #42562c",
".7 c #274535",
".8 c #529367",
"#` c #afc29f",
"#. c #815741",
"## c #ab9084",
"#a c #3e6331",
"#b c #616362",
"#c c #373635",
"#d c #9e7467",
"#e c #788a6e",
"#f c #d6c9bf",
"#g c #663929",
"#h c #49c677",
"#i c #ded6d1",
"#j c #7abac2",
"#k c #71dfa2",
"#l c #c6b4ab",
"#m c #f0e3e0",
"#n c #7c4e37",
"#o c #917a70",
"#p c #b0ccab",
"#q c #599560",
"#r c #5cca7c",
"#s c #4e666a",
"#t c #b0aaa2",
"#u c #755650",
"#v c #799d75",
"#w c #3dc681",
"#x c #90675e",
"#y c #afa299",
"#z c #44c170",
"#A c #a1765b",
"#B c #3f9267",
"#C c #7edc9c",
"#D c #553e2a",
"#E c #9f6a6b",
"#F c #4f4e49",
"#G c #69c674",
"#H c #c3c2ba",
"#I c #a28770",
"#J c #8b593c",
"#K c #3b271f",
"#L c #6c7854",
"#M c #527e86",
"#N c #a38068",
"#O c #b6b7b3",
"#P c #c2bab1",
"#Q c #6b5e5a",
"#R c #392119",
"#S c #46ab64",
"#T c #bec2ba",
"#U c #563526",
"#V c #674432",
"#W c #87b38d",
"#X c #4bcb79",
"#Y c #7a4a31",
"#Z c #c0c7bd",
"#0 c #6aa66e",
"#1 c #544b2e",
"#2 c #97b893",
"#3 c #62c388",
"#4 c #72af7e",
"#5 c #7f4533",
"#6 c #683e2d",
"#7 c #9ac999",
"#8 c #8d8c85",
"a` c #38a660",
"a. c #826257",
"a# c #4ec07a",
"aa c #6dc68d",
"ab c #76b987",
"ac c #669296",
"ad c #969695",
"ae c #664643",
"af c #714632",
"ag c #469d5a",
"ah c #764631",
"ai c #704d44",
"aj c #4c9464",
"ak c #afbeb6",
"al c #423625",
"am c #3bc27f",
"an c #674c49",
"ao c #b59085",
"ap c #7abec2",
"aq c #a28b81",
"ar c #b07666",
"as c #c0b5ad",
"at c #40934f",
"au c #1a221c",
"av c #7ec6ca",
"aw c #c2a297",
"ax c #293833",
"ay c #71d498",
"az c #5e5958",
"aA c #a67a61",
"aB c #abc2c9",
"aC c #a77258",
"aD c #9ababe",
"aE c #765a44",
"aF c #d2c8c1",
"aG c #956449",
"aH c #3a3a38",
"aI c #5ac181",
"aJ c #4a663d",
"aK c #7b4e3f",
"aL c #815241",
"aM c #627a7e",
"aN c #c3c2bf",
"aO c #a8756f",
"aP c #67a26f",
"aQ c #3cb26c",
"aR c #dad2d0",
"aS c #a18076",
"aT c #868685",
"aU c #7c7266",
"aV c #598b5a",
"aW c #45c17a",
"aX c #5aa076",
"aY c #8d7468",
"aZ c #525639",
"a0 c #b2b1a9",
"a1 c #555232",
"a2 c #785340",
"a3 c #bebab5",
"a4 c #bdbeb7",
"a5 c #7b4a37",
"a6 c #7a4632",
"a7 c #696763",
"a8 c #000000",
/* pixels */
"`a`a`a`a`a`a`a`a`a`a`a`a`a`a`a`a`a`a`a`a`a`a`a`a`a`a`a`a`a`a`a`a`a`a`a`a`a`a`a`a`a`a`a`a`a`a`a`a`a`a`a`a`a`a`a`a`a`a`a`a`a`a`a`a`a`a",
"`a`a`a`a`a`a`a`a`a`a`a`a`a`a`a`a`a`a`a`a`a`a`a`a`a`a`a`a`a`a`a`a`a`a`a`a`a`a`a`a`a`a`a`a`a`a`a`a`a`a`a`a`a`a`a`a`a`a`a`a`a`a`a`a`a`a",
"`a`a`a`a`a`a`a`a`a`a`a`a`a`a`a`a`a`a`a`a`a`a`a`a`a`a`a`a`a`a`a`a`a`a`a`a`a`a`a`a`a`a`a`a`a`a`a`a`a`a`a`a`a`a`a`a`a`a`a`a`a`a`a`a`a`a",
"`a`a`aaFaTaTaTaTaTaTaTaTaTaTaTaTaTaTaTaTaTaTaTaTaTaTaTaTaTaTaTaTaTaTaTaTaTaTaTaTaTaTaTaTaTaTaTaTaTaTaTaTaTaTaTaTaTaTaTaTaTaTaT#m`a`a",
"`a`a`aaT.0.1.``C`IaEaiai.Mai.M#V.D`c.N.NaJ`baXaXaXaX#S.Z.Z.Z.Z.Z.Z.Z.Z.Z#B.Z.Z#B#B.Z#B.Z#B.Z.Z#B#Baj#B`Yazan`I#u.Ba7ac.u.u.u`s`D`a`a",
"`a`a`aaT.l`K`K.waw`J`raO#A`V`V.c#5`j`c`B`i#C#C#k#k#k.m.m.t#X.m.t#X.t#X#X.t#X#X#X#X#X#X#X#X.t#h#X.t#raI`u.l.2aSaoao`n.zav`X`X#s#O`a`a",
"`a`a`aaT`Z`P.q`6`J.2`J`J`r`V`V`Aa6`j`c#Uak.fay`G.U#r.t#X#X`W#X#X#X#h#h#X#h#X#X#h#h#X#h#z#z#zaWaWaW.t.T#4.1`F`K.n.naD#j`7`XaBa7`D`a`a",
"`a`a`aaTaq`P.q`Z`J.2`J.XaC`VaG#J.p#U`c.3`U.f#G#r#ra##z#z#z#zaW`W#h#h`Wam#w`WaW`W#w#w`W`W#z#z#z`O`O`O.F`X#O`P.a#o#u`0.x.xaD.daU#O`a`a",
"`a`a`aaT.``P`K#oaS`J`JaoaO`V#J`3.j`j.vawas#2#G`H#ha##z`w#zaWaWaWam`wamam`wamam`wam`w`w`w`w`O.V.V.F.F#4`n.5#laiaeae.n#y#t`DaN#Q`D`a`a",
"`a`a`aaTaqaR`P.O#u`Z.X.h#AaG#J.L.p`j#V#faw#p#4`Ha#a#`O`w`w`w`w`w`w`w`w.V`w`waQ`w.VaQ`l`l.VaQ#S#S.A`Y#8#y.a.O.v.D.B.n.h`v#iaF#Q#O`a`a",
"`a`a`aaT.laR#faY`E.3`I.haAaG#5a6.p`j`3`P`6.d#W.#.F`O`OaQ.VaQ`l`l`la`a`a`a`a``h`h`h`h`hat`h`hagaj`ea1##`J.h.Oae#x#xaO.2`F`P.qan`D`a`a",
"`a`a`aaT.H`P`8.3#Uaf`A.haC#Jah#5.p`ja2.q`6`J.J#0`4#q#S#S`h`h`hatatatagat#B.b.b`e`e`e#a`e#a#a.6`Q`yaiao###o.c.caO#E##`K`K`Kaq``#O`a`a",
"`a`a`aaT#o.w`v.naeae`Iao#A`3af#Y.p`j`I`K`vaY`v`k`g.r`q`.`e`e#a#a#a.6#1#1.Q.Q.Q.Q`x`x#U`c`c`c#U#D#6a.##.laY.O#E#E.n.qaF`K`6`o.N#O`a`a",
"`a`a`aaT`I.2.q.q.s.G#N.h#A`Aafaf.p#U###l.a`p.G#oa2#V#Dalalal.v#6af`5.M#n`5.M.M.M.Maf`E#6.D.D#g#gaeaY#m#m#m`t#m#m.k.w`K.q#t#8#F#O`a`a",
"`a`a`aaT.3awas.Y`8#l.haA#A.c`3`L#6#U.q.d`v.q.i`6aY`Lah`E#g#6`E#Y#n#Y`5.M#Y#na5`5`5af`E#6#g#g#g#V`Ea.aF.Y.5.Ca3a3a3.Y.Y.Ya3#8#F`D`a`a",
"`a`a`aaT#8#H`8.i#Z`v#IaA#Aa.`3.Q#ga2`8`U.i.i#H#H#y`L#Yaha6ahafaha6a6#Y#n#n#Y`5afah`E`E#6#6#6#6ae`E`N#t.Ca0.C.Ca4aNaN.Y.YaN#Za7#O`a`a",
"`a`a`aaT#8#H#T#Z#Z`6#NaC`T`A.M#V#Daq.i`U#H`8#H#T#P`N.M#Ya6.j.jaha6#Y#Y#n#Y#Ya6.j`E.p#6#g#g#g#6aeaf#u`Za0#OaNaNaNaN`8aN`8aN#Za7`D`a`a",
"`a`a`aaTad#T#H#HaF#I#A`T`T`A#Y`x`xas#H#Ha4#T#H#T#H.3.M#Y.ja6a6#5a6#5#Y#Ya5a6.j`E.p`E.p#g#6#6.p.paiaK.3asa4.daNaN.daN.d`8`8.Ya7#O`a`a",
"`a`a`aaT#8#Ta4.i`8#N#A`T`V`A#Y.D.G`8`U#Ha4#Z#Z#Z.d`Za2#na6.jah#Y`5#Y#Y#na6.j.j.p.p.p`E.p`E.p.p.pahaK#uas#Za4.YaN.daN#Z.d.daNa7`D`a`a",
"`a`a`aaT#8#T#P`U#P`T`T`TaG`3`L#6aq#HaN.YaNaN#H#T`U#Ia2.M`5#Y#n.L#n#Y#na5a6a6a6a6ahah.jaha6af#6`Eaia2.G`0#Z.daNaNaNaNaN#TaN.da7#O`a`a",
"`a`a`aaT#8a4a4.ia0`T`T`TaG`3#V`x#la3`U`D.Y.Ya4`U`D.l#.#n#Y#Y`3`3`3#n#n#na5.ja5a5a5`5ah`5ahahaeae`5ai.3`i.W#Z#T.Y#Z#ZaN#TaN#Za7`D`a`a",
"`a`a`aaT#8.ia3`U#y`T`T`T.c`3af.Gas.Ya4a4#Z`U#T#T#H#oaE`3#Y#n`3`3`3`3a5#n`5.B#5a5aKaKa5a6afafaf.j`L`o#vaV..`k#Z#TaN.Y#TaN#T.Ya7#O`a`a",
"`a`a`aaT#8a4a3.i.s#A`TaG`A.M#V.sa3#TaNa4aN.Ya4#T.d#o.G#.a5#Y#n`3.L`3#n`5af#6.paha6`5`5a6`E`5`5#5`5azabaP`n#oas.Y#TaN.Ya4a4a4a7#O`a`a",
"`a`a`aaTaTa3.J#P.s#A`T`V`3af.M.C#T#H#Ta4`Da4#Ta3a3`C`AaLa5#Y#n#Y#na5ah`5#gae`j.j`5a5ahahah`5aia2.Q#4`uabaU.3.1a4#T#T.YaN#T.Y#b.C`a`a",
"`a`a`aaTaT`D`D#P###A`T`V`3`5aY.i`Ua4a4a4a4`Ua4a4`U.1aE#JaLa5a5#Ya6ahah`Ea5#.aKa5`5ahaha5a6a5aKai`Y.o.R`z#u#.aYasa3aNaNa4#TaNa7`D`a`a",
"`a`a`aaT#8.J.Jas#I#NaCaG`3#V`6as.Ya3a3#O#O`Da3a3`i#``zaE`3.L.La5ah`E.jah`5aLaKaKa5ahafahaf#nan`q`f.R`q.Q`5aK.B#y`8`Da3a3.Y.Ya7#O`a`a",
"`a`a`aaT.P`D.J.5#I.h`TaGa2aE#Pasa3a3`D`D`D`Uas#l#e`m`i.ra2`3`3#n#Yahahah`5a2a5a5aKahaf#5`LaiaJ.oaaac#g#Vai`N.B#oasa3a4a4a4a4#b`D`a`a",
"`a`a`aaT.P.i`Uas.wawaw.Ha..sa3`Da4`D`D`Dak`U`Da0a.#e.f`i.r`oa5#n`5#5.jah`5a5aha6ahah.jaf.Q`qap#3`S`Q#V#V`L.M.B.3#ta4`D`D`Da4#b#O`a`a",
"`a`a`aaTaTa3a3`v##aA`V#..3#l`Da3`D#O#O#O.J`D`D#O.c`3`2.f.o`#aZ.Qafa6ahaha6a6.j`5ah`E`x.yaPaaaI#3`q#V`Laf`L`5.Ba..s`D#Oa4`D.C#b.C`a`a",
"`a`a`aaT.P#O.C`6.haA`Ta2#Ia3a4`Da3`D`D`D`U.C#Oa0#J.L`o.r#W.oab`YaZ#1.Q`L`E`Eaf#V`x`Q`Y.R#G.T`H`u#1`Eaf`EaiaK.L.Baq.Ca3`D`D`D#b`D`a`a",
"`a`a`aaT.P.J#P`1.haraGaE`v.C`D`Da3.C`D.C`Da0as#y`AaL`3afa1#v`S#G.R`uaV`e`g#a`g`q`b.R#r`O`S.T#r`.#6.p`5ah`La2aL.B#oas.C.C.C.C#b#O`a`a",
"`a`a`aaT.P.Cas`J.XaA#xaY#la3a3as.C`Dasa0.Cas#O#y.B#.#n#Y`L`x#v.#a#.TaIaa.oaaaaaaaI.T.TaIaI#h.oaZ.D`Ea6`LaKaKaL.B`I.C.C#O.C#P#b.C`a`a",
"`a`a`a#yaHaH.IaHal#caHaHaHaH.IaHaH.IaHaHaHaHaHaH#c#c.e.e.e.e#caHaHaHaH.I.I.IaHaHaHaxaHaHaHaH.I.e.e#c.e.e#c#c#c#c#caHaH.IaHaHaHaR`a`a",
"`a`a`a`a`a`a`a`a`a`a`a`a`a`a`a`a`a`a`a`a`a`a`a`a`a`a`a`a`a`a`a`a`a`a`a`a`a`a`a`a`a`a`a`a`a`a`a`a`a`a`a`a`a`a`a`a`a`a`a`a`a`a`a`a`a`a",
"`a`a`a`a`a`a`a`a`a`a`a`a`a`a`a`a`a`a`a`a`a`a`a`a`a`a`a`a`a`a`a`a`a`a`a`a`a`a`a`a`a`a`a`a`a`a`a`a`a`a`a`a`a`a`a`a`a`a`a`a`a`a`a`a`a`a",
"`a`a`a`a`t`t`t`t`t`t`t`t`t`t`t`t`t`t`t`t`t`t`t`t`t`t`t`t`t`t`t`t`t`t`t`t`t`t`t`t`t`t`t`t`t`t`t`t`t`t`t`t`t`t`t`t`t`t`t`t`t`t`t`a`a`a",
"`a`a`aaT`B`y`yaH`c`B#R`B#K#R`B.N.N```````R.7.7.7`s.7.7.7`M`M.7`M`M`M`M`M`M`M`M`M`M`M`M`M`M`M`M`M`M`M`Max.N``.e.N.N`R.7.I`Maxau#T`a`a",
"`a`a`aaTaq`F`8.wawao#E#x#E`V`VaG#Y#g#R`B#v`f#C#k#k#k#k.m.m#X.m.m.m.m.U#X.m.U.t.t#X.t.t.t.t.U.t.t#r.U#3`Saq`J`J`J`Jad.zav`7`X#s.C`a`a",
"`a`a`aaT`Z`P`K`vaw`J.X.X`r`V`V.ca6`j`c`c..`fayay.m.m.m#w#X`W#X#X`W`W#X#h#X#X#X#X#X#X#X#h#h#X#haWa##raI#4#8.a`J.naS`n`Xap.zaD#b`D`a`a",
"`a`a`aaT.l`P#l.h`J.2.2`JaO`VaG#J.j`j#R`o`U#7`G`G#r`H#z#h`W#h`W#h#X#X`W#w`W`W`W#h#w#w`W`W`w#zaWa#aW`O`Oaba0`F.aaS.3aB#j#j`X#ZaU#O`a`a",
"`a`a`aaTaq`F`8`Zaoaw`J.X#A`VaG`3.j`j.vaqas#2#G#r#X`H#z#z#z#zaWaW#zaWaWam#wamamaW#w#waW#z`w`O`w.V`O.F`uaD.C`8aSa.ae.1#t`0a0.da7#O`a`a",
"`a`a`aaT.``P`P.3a..h`J.haCaG#J.L.j`j`j`K#t#``S`Ha#a#`O`w`w`wamam`w`w`w`w`w`w`w`w`w.VaQ`w`waQaQ#S#SaX#v#y`Kao#U.Dai.O###yaRaNaz.C`a`a",
"`a`a`aaT.`#f`PaYae`IaS.haraG`3#Y.p`j.M`F`6.dab.#`O`O`O.V`w.V.V.V.VaQ`l`laQ`l`l`la`a``ha`a`a`#S.AaV`g.law`1#u.vae.OaO.X`P.k`P#Q`D`a`a",
"`a`a`aaT`Z`P`8#o.Da2#x.haA#J.j#Y.p`ja2`K`6`v`0#0#S#S.FaQ`la``h`h`h`h`ha``h.Zag#B#B.bat.b.b.b`.#a`Qan`1aoaS#E.caO#EaS.a`8`K.2#K#O`a`a",
"`a`a`aaT`C`K#la.#U`x.Bao#A#J.ja6.p`j`A.q`v#I`U`i`YaV#qajat.b.K`.`e`e`eaJ`g.y.6#1`Q`yal.e.e.ealal`xaL.haq`Ia.#E#E#E.q`P.q`v#Q``.C`a`a",
"`a`a`aaT.n`v.a`v`I`N#N.h#A`3`E#Y.p#U#I#l.waE#N###1#D#D.6.I.Ial.I#1#1`L.M.M.M#n#n`L`L#6.D#U`j#g#gae.3`P.q.q.w`v.w`v`vaF`K`6`CaH`D`a`a",
"`a`a`aaT.3aw.w`8.5.`#I`raA.c`L`L.p#Uaw.i`v.s.l.l.G`5`E#6#D#g.paf#Y#Ya6#Y#Y#Y.M.M`5`5`E#V#6#g.D.p`E.3#maR#iaRaR`PaF.q`8.5a0aU#F#O`a`a",
"`a`a`aaT`C#las.i#H.q#IaA#A.c`3`L#g`xaF`U`U.iaF`U##.Q#Y.j.jaf.j#5#Y#Y#n#n#n#Y#Yahah.j`E#6#g#6#6#Vae#u#t#O#ta0#O.Y.Y.Y.YaNaNa4#b#O`a`a",
"`a`a`aaT#8aN#H#Z#T`6#I#A`T`Aa2.Q#UaY.i.i.i.i`8#H.5.Q#n#Yahahaha6a6a6`5#n#n`5a6ah`E.p.p#6#g#g#6afae#u.1a0#Oa3.YaNaN.YaN.Y.da4a7`D`a`a",
"`a`a`aaTad#Z#H#H.d`1#A`T`T`A.M#V#D`6`8#T#H.i#Z#T.i.G.Mah.j.j.ja6a6#Y#Y#Y#Ya6ah.j`E`E#6#g#g#g#6`Ea5ai`I.Ca3#Z.YaNaNaNaF`8aNaNa7#O`a`a",
"`a`a`aaT#8#T#H.i`8#N#A`T`V`A`L#6`N.i`Ua4a4#H#H#Z.d#o`3#Ya6a6.j#Y#5#Y#Y#n#Y.j`E.p.p.p.p.p`E.p#6`Ea5aL.Ba3aNaNaN.d.daN.daNaNaNa7`D`a`a",
"`a`a`aaT#8#T`U.i.i#A`T`TaG#J`L#6`C#HaN#H#T.d#Z#T.i.la2.Maha6#Y#Y#n#Y#Y#Ya6.j.j.j`E.j`Eafafaf.p.pai#u#ua0#ZaN.YaNaNaNaNaN.d.da7#O`a`a",
"`a`a`aaT#8#Pa4`Uas#A`T`TaG`3.Q#gaw`Ua4a3#T.Ya4`U.J#IaE#n#Y#Y`3`3`3`3.L#n#Ya6#Ya5a5a6aha6ah`E#V#Vaha2.0`n#p#ZaNaNaN#Z#Za4aNaNa7`D`a`a",
"`a`a`aaT#8#T.i`U#y`T#A`T.c`3`E`o#P#Pa4a4.Y`U#Ta4.Y`Z#.a2#Y#n.L`3.L#n#n#Y#Ya5#5a5a5aKa6ahahafafaf`5anaT`baDak#Za4aNa4aNaN#Z#Za7#O`a`a",
"`a`a`aaT.Pa4a4.i#y`T`TaG.c#n`E`Z#P.Ya4#TaN.Y#T#T#H`C`Aa2#Y#n#n`3`3#n.L#n`5aKaha5a5`5a5ahahafafa6.Ma1#W.8#2#8aN#TaNaNaN.YaNa4a7`D`a`a",
"`a`a`aaT#8a3`D#P.1#A`T`V`3`L#Va0a4#T#Ta4a4#Ta4a4`U`C`A#J#Y#Y#n#n#n#n`5`5#gae`jafaha5ah`5af`5.MaK`L.E`uab#e`I`6a4#T#Ta3#T`D.Y#b#O`a`a",
"`a`a`aaTaT#O.Jas##aA`T`V`3af`A.i#T#T#Ta4a3#Ta4.Ya3.P`AaL.La5#n#Y#Ya6ahaf`Eaf.j`5`5`5aha6ah`5a5ai.rab`S#vaE`A`Z.Ya4aN.Y.Y#TaNa7.C`a`a",
"`a`a`aaT.P.J`D`U#IaAaCaG`3#V###Pa4a3`D#O#O`D`U`D.J`0`p.B`3.L#Y#Ya6`E`EafaKaLaKa5a5ah.j`5aha5`N.gabaa`banaKa2a.`v.5a4.Ya4.YaNa7`D`a`a",
"`a`a`aaT.P`D.Cas#I#IaCaG`3`L#las#P#Pa3`D`Da3asa3`d#p.E`p`3`3.L#na6ah.jaf#naLaKaKa5af.ja5`5`5a1aPay#4#Faf`LaiaEaq.5`Da4a4.Ya4a7#O`a`a",
"`a`a`aaT#8`U`U.5`vaw`J#A`N`Za3a3`D`D`D`U.J`U`D`vaU`i.f`Y`pa2#n#n`5#5.jah`5aia5a5a5ahah.j.Q.g#0#3.o.r#6ae`LaK.BaY#ta4a4`D`D`D#b#O`a`a",
"`a`a`aaT.P`Da3#l.s#I#A`AaY`v`D`Da3#O#O.J.J`Uaka0.c.G`i.f`b.y`L.M`5#5a6aha6ah.jah`5.j.j.Q.rabaa#3#q`x#V`L`L.M.Ba.#y.C#O`D`D`D#b`D`a`a",
"`a`a`aaTaT.C`D`6.haA`T.B`I#P`Da3a4.C#O`D`U.C`D.J.c`3`o`b`fabaV.y`x#Vafaf#5.j.jafaf`x.6`baaaIaI#3aZ#V`E`Eai`5aKa..`.C`Da4a4.C#b#O`a`a",
"`a`a`aaTaT.C.C`1.haraGa2`6as`D`Da3a3`D`Da4a0a0#t.B`3#n`x#Lab.o.oaP`eaZ`Q#1`x#1`Q.yaVaa#3.T.TaI#q`x.pafaf`LaKaL.B`Z.C.C`D#O.C#b`D`a`a",
"`a`a`aaT.P.J#P`J.XaraG.3asa3`D.C`D`Da3a0.C#las#y`A#.#n#Y`x`p#4aIaIaaaa`S`u`u`u.R.R#3.T.TaIa##3aJ#g.p`5#5ai.LaL.BaYas.C#O.Ca3#b#O`a`a",
"`a`a`a#8`y.g.g`x#1#D`c`yaz.g.gaz.g.g.g.g.g.g.g#F#K`c#K#R#R.NaH.S.S.S.S.S.S.S.S.S.S.S.S.S.S.S#aau#R#R#K#R#K#K#K`calaz.g.gazaz.ea4`a`a",
"`a`a`a`taNaN#Z#ZaNaN#ZaNaNaN.d#ZaNaNaNaNaNaNaNaNaNaNaN.d#Z#H#H#H#Z#Z#H#H#H#HaNaN#Z#Z#ZaNaNaNaN#ZaNaNaN.daNaNaNaNaNaNaN#ZaNaN.d`t`a`a",
"`a`a`a`a`a`a`a`a`a`a`a`a`a`a`a`a`a`a`a`a`a`a`a`a`a`a`a`a`a`a`a`a`a`a`a`a`a`a`a`a`a`a`a`a`a`a`a`a`a`a`a`a`a`a`a`a`a`a`a`a`a`a`a`a`a`a",
"`a`a`a#tadadadadadadadadadadadadadadadadadadadadadadadadadadadadadadadadadadadadadadadadadadadadadadadadadadadadadadadadadada0`a`a`a",
"`a`a`a`R`Z`Z`CaU.Ganaeae.Qae#V.D.v#R``au`#.8.8ajajaj#B#B#B#B.K.K.K.K.K.K.K.K.K.K.K.K.K.K.K.K.K.K.K`.`.aJanae.GaeanaM.4.4#M#M`R`a`a`a",
"`a`a`a.e`K#f.q`v`JaoaOaO`T`V`V#J.p.v#R`Q#7`f#C#k#k#k.m#X.t#X.t.m#X#X#X#X.t#X.t#X#h#X#X#X.t.t#XaW#h.UaI`b`1`JaS.2aSaDavav`X`X#c`a`a`a",
"`a`a`a#c`K`K.w`J.2`J`J.X`T`VaG#..p#U#RaU`may`G`G#r.U.t`W#X#X#X#X#X`W#h`W#h`W#h#X#h#h#h#z#zaW#Xa#aW.T`S#v`v`F`JaS#8aDapapaBaBaH`a`a`a",
"`a`a`aal`K#fas.n.2.2.X.X`VaGaG.L#g.v`c##ak.R#r`H#ra##z#zaWaWaW`W#h`W`W`W`W`W`Wam#w`W#w`WamaW`O`OaW`O`u.xaF`P`J.3`C.x.x`XaDaR#c`a`a`a",
"`a`a`aaH`P`P.q.Gaoaw.X.h`TaG#J.L#g`j.Q#l#P.f#G`H#ha#am`w#zaWaWaWaWamamamamamamamam`w`w#z`w`O.V.V.F.#.x#t.q.1#u#U.B.`#y#t.d.5#c`a`a`a",
"`a`a`a#c`P`F`K.D.O.hao`r`VaG.L#5#g`j.H`K.w.f`Sa#a#`O`O`w`w`w`w`w`w`w`w.V`w.V.V.V.VaQ`laQaQ#S`l#Saj`Yad#lawae.D.D.OaSao`8#i.q.e`a`a`a",
"`a`a`a#c`KaRaFae`N`IaA.h`T#J#Y#5`j`j###f`1#p#4.F`O`O.V.V.VaQaQ`l`la``la``la`a``h`h`h`h`h`ha`agaV`ga7`J.2.naK#u.B#E`r.a.k`P.a.e`a`a`a",
"`a`a`aal`K`K#lae.v`N#A.h`T.L.j#5#g.v.h.w.s.q`i#0`4.A.F`l`h`hatatat.Zatat#B.b`.`e`e`eaJ`e`e#a.6`Q`x`Iaoaq`I.c#E#E#E`v`K.q.w#u.N`a`a`a",
"`a`a`a.e.a.w`6`N#Dan`r`r`V`5afa6#g#Uaw.a###I`U#L`g`q`Y.b`.`e`e.S#a.6aZ#1a1.Q.Q#1`x#D`c#K`c`c#U#D#V.naq.n.3.O.O#Eao`8`P.q`Z`yau`a`a`a",
"`a`a`a.e`J.w.q.w#oa..h#I`T#Yafaf#g#g.q.5`1`o#oaY.Q#6.val.e#K#D#V`L#n#Y#n#Y.Ma2aK`Laf#6.D.D.D#g#6`x.w#m#m#m#m#m.k`K.a`8`K.s#8.e`a`a`a",
"`a`a`a.e`1aw#l`8`8#y`raA`TaE#n#Y.D#.aF.i#y.q#t`1`N`L`E.p#6.paha6#Y#Y#Y#n.M`5`5a5`5ah`E#g#g#g#g`Eae.saFaN.5a3aNaN.Y`8.Y#T#taT.e`a`a`a",
"`a`a`aaH`8`8aN.i`U`1#I#A`T`A.M#V#Uaq`U`U.i`8`8.iaY.M#Yah.j.jah#Y#Y#Y#n#na5#Yahaf`E`E.p#6#6#6#V`Eai`Ia0a0.C.C.C.Y.YaNaN.Y#T#TaH`a`a`a",
"`a`a`a#c#Z#Z#T.d.d#NaA#A`VaE`L`x`x.w#H#H#H#H#H`U.`.M.M#Yah.j.ja6a6#Y`5#na5#Ya6ah`E#6#6#g#g#g#Vafai.G#ta0a4aNaN.daN`8aNaNaN#HaH`a`a`a",
"`a`a`aaH#H#H#H#Z.5#N#A#AaG#J#V#6.G`8#H#Ta4#H#T#T`v`N#Ya6.j.ja6a6#5a6#Y#Y#Ya6.j.p.p.p.p#g#g#6#6afa5aK.la3aN#Z#TaNaNaN`8.d`8#T#c`a`a`a",
"`a`a`aaH#H#H#P`8`v#A`T`TaGaE#6.D#y`D.i#H#T#Z#Z#Z.iaEa2#Ya6.ja6#Y#Y#Ya5a5ah.j.j`E.p.p.p.j`E.p.pafaKaLaY.daN.YaN.d.d.daN.d#H.d#c`a`a`a",
"`a`a`a#ca4a4`U.i.s`T`T`V.c.Maf`x#l#H#T.YaN`8#H#T.iaEa2ah#Y#Y#n`3#n#n#na5a6.j.j.jahahah`5ah`E#6`Eai#uaU#Z#ZaN.YaNaN#TaN#H.daNaH`a`a`a",
"`a`a`aaH.Ya4#T.i.`#A`T`T#J#Y#V.G.5a3`Da4#Ta4a4`U#P`A#.`5#Y#n`3`3.L.L.L#Ya5a6a5a5a5ahah`5ah`Eaeaf.M#u#8#4#Z#Z#T.Y.d#Z#T#H.daNaH`a`a`a",
"`a`a`a#c#Ha3`U`U#I#A`TaG`A.M#V.`#P#H#Ta4#Ha4`U#T#P.Ga2#n#Y#n`3`3`3#n#n#naKaK.LaKa5a5ahahafafafah`L`o#W`b`na4aN#T#TaN#TaN#TaN#c`a`a`a",
"`a`a`a#c#Ha4#Pas#N#A`TaG`3ah.M#P`Da4#Ta4aN#Ta4#T.C.G`A`3a5#Y#n`3#n.L#n#n#6#g.jaha5a5ahahafaf`L#5ai.EaX.faTad#H.Y#TaNa4a4a4aNaH`a`a`a",
"`a`a`aaH.Ca3.Jas#N#A`T#J`3#VaY.ia4#Ta4a4a4a4a4a4as.G.B.La5#n#n#Y#n`5afaf#g#6#6`5`5`5ahaha5.MaKai`pab`u#0.3`I`v#Ta4.Y.YaN#Ta4#c`a`a`a",
"`a`a`aaH`D`D`U`v.H#A`T#J`3#V`1#H#H#Ta4a4a4#Ta4#T#T.3#.#Ja5a5#Y#Ya6ahafafa5aKa5`5`5a5afah`5.M.MaZ#4`S#4.0aLa..`.Ya4aN.Y.Y.YaNaH`a`a`a",
"`a`a`a#c`D.J.C`v#Nar`T#J#naE#la3a4a3#O#O#O`Das.J#2`d`p#.`3.L.La5`E.j.jafaLaLaKa5ah`E.jahahaK`oacayabaZ`L.Ma2`I#l.5a3a3a4aN.Y#c`a`a`a",
"`a`a`a#ca3`U`D`6#IaA`T`A`L#I#Pasa3a3`D`D`D.iasa0`d#7`Y`N#.#n#n#nahah.j`LaKaKaKaKa5afaha6ai.Q`#aa.R.r#6ae.Ma2.3#y#P`D`D`Da4a4aH`a`a`a",
"`a`a`a#ca3`D`Uas.aawao`I.Gas`D`Da3.C`D.J`U`U.C`1.0`0.f`#aZ.M.L`5a6#5a6ah.M`5.j#5aha6.j`La1`baa#3aV`x`E`L`LaK.B#o.Ca4`D`D`D`D#c`a`a`a",
"`a`a`a#ca3.C#P`6###AaGa2##a3`D`Da3#O`D#O.J`Dak.s#JaE`i.R#0.r.Q`Laf.jahaha6a6af`Lah`E`xaJ#4aaaI.oaZ`xafaf`La2.B`I.C.C`Da4`D#O#c`a`a`a",
"`a`a`aaH.C.Cas.s`raC.c#u`6.Ca4a3`D`D`D`Ua3a0.Jaq`3#.a1.E.f.RaX.r#1#1afaf.j`E`E#V`x.6`baaaI.TaIaV`x`EafafaiaKaL.3#y.Ca3`D`D.C#c`a`a`a",
"`a`a`a#c`D.C#lao.haC#JaY#la3`D`D`D.C#O.Ca3`v`D.l#.`3.M.Q`z#4aIaaab`b`q#a.6.6`g`Y`baa#3.TaIa#.o.6.p.p`5ah.MaLaL`A#y.C.C#O`D`D#c`a`a`a",
"`a`a`aaH.C.J`v.X.h`TaE`6as.C`D`D.C`D.C#O.Casa0#o#.a2#Yah`x`p#4a#a#.T#3aa.R`Gaa#3#3.T.T.TaI#haP#D.pah`5`5aKaK.B`Aaq.C.Ca0`Da3#c`a`a`a",
"`a`a`a`Q#c#c.e.eal.e`B#c#c#c#c#c#c#c#c#caHaH#c.e.e`B`B`B`B`B.eaxaxaxaxax`RaHaxaxaxaxaxax#cax`R`B`B`B`B`B`B`B`B`R.eaHaH#c#caH#F`a`a`a",
"`a`a`a`a`a`a`a`a`a`a`a`a`a`a`a`a`a`a`a`a`a`a`a`a`a`a`a`a`a`a`a`a`a`a`a`a`a`a`a`a`a`a`a`a`a`a`a`a`a`a`a`a`a`a`a`a`a`a`a`a`a`a`a`a`a`a",
"`a`a`a`a`a`a`a`a`a`a`a`a`a`a`a`a`a`a`a`a`a`a`a`a`a`a`a`a`a`a`a`a`a`a`a`a`a`a`a`a`a`a`a`a`a`a`a`a`a`a`a`a`a`a`a`a`a`a`a`a`a`a`a`a`a`a",
"`a`a`a`a`a`a`a`a`a`a`a`a`a`a`a`a`a`a`a`a`a`a`a`a`a`a`a`a`a`a`a`a`a`a`a`a`a`a`a`a`a`a`a`a`a`a`a`a`a`a`a`a`a`a`a`a`a`a`a`a`a`a`a`a`a`a"
};
