/* XPM */
static char *_1_frame_2[] = {
/* width height num_colors chars_per_pixel */
"    66   100      256            2",
/* colors */
"`` c #171311",
"`. c #4d6a40",
"`# c #3a9e59",
"`a c #86a175",
"`b c #fefefe",
"`c c #92a284",
"`d c #50161e",
"`e c #696b4b",
"`f c #3dc47f",
"`g c #8ee9d1",
"`h c #5a1622",
"`i c #647a4e",
"`j c #5c5638",
"`k c #9da08c",
"`l c #78c2c9",
"`m c #9aaa86",
"`n c #83e4be",
"`o c #a17556",
"`p c #789c74",
"`q c #92e7cb",
"`r c #74c68b",
"`s c #bcb1a6",
"`t c #6a2a38",
"`u c #6fa36d",
"`v c #83c290",
"`w c #485230",
"`x c #bebb9f",
"`y c #7a6d3d",
"`z c #76543b",
"`A c #a2875d",
"`B c #203232",
"`C c #708c61",
"`D c #3aac66",
"`E c #65ddb7",
"`F c #6c4431",
"`G c #96eed2",
"`H c #dfc4c0",
"`I c #7ac6ce",
"`J c #63cb76",
"`K c #93b493",
"`L c #68b778",
"`M c #886b62",
"`N c #4a4529",
"`O c #4a7f47",
"`P c #966047",
"`Q c #84deb4",
"`R c #d7bcb5",
"`S c #74422f",
"`T c #5f3d2c",
"`U c #8c855e",
"`V c #9e847b",
"`W c #78b490",
"`X c #85c29e",
"`Y c #8e965e",
"`Z c #b08776",
"`0 c #54c97a",
"`1 c #5caf74",
"`2 c #84b696",
"`3 c #413628",
"`4 c #8c5441",
"`5 c #afa196",
"`6 c #c6cbc0",
"`7 c #744e39",
"`8 c #719e76",
".` c #3cb56e",
".. c #a0b1b0",
".# c #cdbab5",
".a c #7c6254",
".b c #83daaf",
".c c #77794d",
".d c #2c1c14",
".e c #6ed391",
".f c #90d5ab",
".g c #609f6a",
".h c #355237",
".i c #91b0b6",
".j c #c4c6bf",
".k c #95684e",
".l c #b39374",
".m c #abc9a7",
".n c #89856c",
".o c #7d5b58",
".p c #82c0c7",
".q c #74daa0",
".r c #69e1c8",
".s c #9e746c",
".t c #428849",
".u c #eadeda",
".v c #5d4c41",
".w c #bd9d95",
".x c #835439",
".y c #4dba72",
".z c #63c98b",
".A c #724632",
".B c #72a27e",
".C c #4a737a",
".D c #936b6b",
".E c #acbe94",
".F c #c1c2b9",
".G c #86d2b4",
".H c #4ec979",
".I c #1e3638",
".J c #54a064",
".K c #7acad2",
".L c #8f7853",
".M c #6aba86",
".N c #769aa2",
".O c #55cf8d",
".P c #443e1c",
".Q c #79b884",
".R c #4f7f81",
".S c #c8aea7",
".T c #7f4a36",
".U c #91928c",
".V c #85b585",
".W c #87a4a7",
".X c #2c2823",
".Y c #9abc98",
".Z c #39bd77",
".0 c #5d8c51",
".1 c #795e49",
".2 c #a18e7f",
".3 c #748e91",
".4 c #aeaaa9",
".5 c #8b6167",
".6 c #ad845e",
".7 c #af8286",
".8 c #6c5646",
"#` c #392219",
"#. c #91b8bc",
"## c #78aea6",
"#a c #ac7b70",
"#b c #694e3f",
"#c c #d8cfcb",
"#d c #c9b6ae",
"#e c #7d4e37",
"#f c #9c664b",
"#g c #5a2d20",
"#h c #4ac876",
"#i c #e3ccc4",
"#j c #63d28d",
"#k c #71ead0",
"#l c #87776a",
"#m c #c09590",
"#n c #87adb3",
"#o c #724a37",
"#p c #673927",
"#q c #84cacf",
"#r c #4f7572",
"#s c #70e3c8",
"#t c #82e8d1",
"#u c #90a5a9",
"#v c #91c09b",
"#w c #50ab65",
"#x c #70afad",
"#y c #22363a",
"#z c #81d496",
"#A c #c8a098",
"#B c #5c4636",
"#C c #4e494c",
"#D c #aeb19b",
"#E c #475d37",
"#F c #96898c",
"#G c #4ca05e",
"#H c #c6c2bd",
"#I c #b69065",
"#J c #7e543f",
"#K c #c6bdb8",
"#L c #cbc6c0",
"#M c #f0e5e2",
"#N c #82966e",
"#O c #835e49",
"#P c #40924f",
"#Q c #6b3c37",
"#R c #9e6b5f",
"#S c #73deb6",
"#T c #46bd75",
"#U c #b2948c",
"#V c #bca69e",
"#W c #726958",
"#X c #8c5e42",
"#Y c #878685",
"#Z c #6b6250",
"#0 c #aac0bd",
"#1 c #9aaea6",
"#2 c #4d311f",
"#3 c #62aeb6",
"#4 c #5f3f43",
"#5 c #7ae7ce",
"#6 c #927770",
"#7 c #a07c76",
"#8 c #71bbc2",
"a` c #c2c2bf",
"a. c #6b4a38",
"a# c #5b3527",
"aa c #94626a",
"ab c #91c3c9",
"ac c #b5b5b3",
"ad c #5ad6a1",
"ae c #35302b",
"af c #44c479",
"ag c #81ac81",
"ah c #5e5d56",
"ai c #723e28",
"aj c #42271e",
"ak c #68b5b9",
"al c #bb8679",
"am c #71897e",
"an c #78bbc3",
"ao c #9d6c50",
"ap c #413e38",
"aq c #383835",
"ar c #83d39e",
"as c #83c6c9",
"at c #61d8a7",
"au c #4c9456",
"av c #48ac5f",
"aw c #bdbdb7",
"ax c #774632",
"ay c #696964",
"az c #d8c5bd",
"aA c #6b3e2c",
"aB c #78a87b",
"aC c #eeeeee",
"aD c #80695f",
"aE c #a26b68",
"aF c #b08e76",
"aG c #3aa660",
"aH c #9abec0",
"aI c #6b7a73",
"aJ c #c2bdb8",
"aK c #362921",
"aL c #bb8d89",
"aM c #a49685",
"aN c #755647",
"aO c #42bc71",
"aP c #cdc0ba",
"aQ c #261612",
"aR c #71e4d1",
"aS c #84b7bc",
"aT c #959694",
"aU c #4a5256",
"aV c #794a35",
"aW c #b08c88",
"aX c #a67e59",
"aY c #5bbd7f",
"aZ c #4d3533",
"a0 c #8c5f59",
"a1 c #e2d6d1",
"a2 c #9ac292",
"a3 c #6b453d",
"a4 c #4a7442",
"a5 c #393f3c",
"a6 c #777572",
"a7 c #916962",
"a8 c #000000",
/* pixels */
"`b`b`b`b`b`b`b`b`b`b`b`b`b`b`b`b`b`b`b`b`b`b`b`b`b`b`b`b`b`b`b`b`b`b`b`b`b`b`b`b`b`b`b`b`b`b`b`b`b`b`b`b`b`b`b`b`b`b`b`b`b`b`b`b`b`b",
"`b`b`b`b`b`b`b`b`b`b`b`b`b`b`b`b`b`b`b`b`b`b`b`b`b`b`b`b`b`b`b`b`b`b`b`b`b`b`b`b`b`b`b`b`b`b`b`b`b`b`b`b`b`b`b`b`b`b`b`b`b`b`b`b`b`b",
"`b`b`b`b`b`b`b`b`b`b`b`b`b`b`b`b`b`b`b`b`b`b`b`b`b`b`b`b`b`b`b`b`b`b`b`b`b`b`b`b`b`b`b`b`b`b`b`b`b`b`b`b`b`b`b`b`b`b`b`b`b`b`b`b`b`b",
"`b`b`b#c#Y#Y#Y#Y#Y#Y#Y#Y#Y#Y#Y#Y#Y#Y#Y#Y#Y#Y#Y#Y#Y#Y#Y#Y#Y#Y#Y#Y#Y#Y#Y#Y#Y#Y#Y#Y#Y#Y#Y#Y#Y#Y#Y#Y#Y#Y#Y#Y#Y#Y#Y#Y#Y#Y#Y#Y#Y#Y#Y#M`b`b",
"`b`b`b#Y``ajaK#2a..A`F`T`z`M.1.aaNaN.1#OaD.a.a.a.1.1.1aN.o.1.1aNaN.1.a.a#W#W#W`e`N`N#2#B`w.R.R.R.R.R.R.R#ra5ae#2#2a#a#a#`T`T#`ac`b`b",
"`b`b`b#Yae.a.o#X.k`P.x.x.6#I#I#I.L`oal`Z#I.l.laF.2.2`V`U`U#l.n.n#N`cag`K#v`X`X`v`raB#N`y.c#x#3ak#x#8#8.pabab.3ay`j`N`F.Aax.Tajaw`b`b",
"`b`b`b#YaQ#b#gaaao`P.x#X#I.6#IaXaX.L`UaM`m`K`Ka2#v`X#v`2`X`Xarasar.b`Q#S`n#t`n`n`n.b`a`Cag##aS#.#n#nak#8an`Iasab#..WaIah.v`T#`ac`b`b",
"`b`b`b#Y#b.s.saoao#f.xao.6aXaX`U`i#v.f`n`n#S.q#S#S#s#s.r.r.r.r#k#k#k#k#t#k#5#t#t`g`nag`8.Q###Caj.5.U#.an#8#8as#q.panas#qaHay``aw`b`b",
"`b`b`b#Y.5`4aaaoaoao#f.k.l`A`A`a`v`q`g#t#t#5aRaR#5aR#kaRaRaRaR#saR#5#5#5#t#5#5#t`g#5.bar.zaB#7`d`taZ.Was.K`Ian`lan`l#qas.NaU.Xac`b`b",
"`b`b`b#Y#JaE#faoao#f.xa..L`U`Y`L.f`g`g`g#t#s#saR.raR.r.raRaR#s#saR.r#saRaR#5#taR#5`Q#S.q.eaS#F`t#aaWay.p`lan.p.pasasanabaI#W`3ac`b`b",
"`b`b`b#Y#Q`4aE#fao.k#e`T#2`N`a`v`Q`G#t#taR`E`E.r.r.r.r.r.r.r.r.r.r`E.r.raR.r#S#saR.bat.e.z#v#l.5#7#4aDaS`l`l`l.p`las.p..#F#7.vaw`b`b",
"`b`b`b#YaN#faEaoao#X#ea#aj.d`v#z`Q`n#t#5.r`E`E`E`E`E`E`E`E`E`E`Eatatadadat`Eat`E`E#j#j.e.zaB.v#J.7.5.D.W.pas`las.p.paH#F#7al.vac`b`b",
"`b`b`b#Y#oaE#Raoao#Xax#gajaK`v#z.q.q.q#Sat.O.O.O.O.O.O.O.O.H.O.O.O.O.O.H`0.H`0`0.O`0`0.z.z`8#U#m#U#A.7.i#q`I.paSaHaHaH`M.7ala.aw`b`b",
"`b`b`b#Ya7aL`o#f#f.xaia#aj.v.m#z.q.e#jad.O#h#h#h.H#h#h#haf#h#h#haf#haf.H.H#haf#h#h#T#haYaY.N#U`RaW`V`V.i.p.p#q#0aw#L#H.SaW#a#4ac`b`b",
"`b`b`b#Y`MaL`o#f#f.xai#2aj.L.E`r`J`J`0`0afaf`f#h#h`f#h`f#h`f#h#h`f#h`f`fafaf#T.Zaf.y#T#TaY###K`H.S.s#YaHaSanaH`6#c#V.S.SaL#7aZac`b`b",
"`b`b`b#Y`MaLao#f`P.x#p#g#2.w`x`v`J`0`0#TaO`fafafafafafaf`f`f`f`faf`f`f`f`f`f`f#T.`aO.`.`#x..#K.##7a3.8`5...4aw`6#U#m.w#A`Z#7aZaw`b`b",
"`b`b`b#Y`M`Zao`P`4#e#p#g`zaz.Sa2`L`0#hafaOaO.Z.Z`f`f`f.Z.Z.Z.Z.Z.Z.Z.Z.`.`.`aO.``D.`#w.0.W.4#d#6a##4aN.saWac#c#d#V.7#A#VaWa7#2ac`b`b",
"`b`b`b#Y.a.6`o#X.T.Tai#g.L#i`5`6`L#w.y.y.`.Z.`.Z.`.`.`.`.``D`D`D`D`DaGaG`#aGaGav#w.J`OayaM#A.7#4a#a3aE#7#A#ca1`R#6a7.w#A#maL.vaw`b`b",
"`b`b`b#Y`z`Z`o`4aiax#p#g`o.#`5`x`a.gavavav.``D`#`#`#`#`#`#`#aG`##P#P#P#P.t.t.t.ta4#E`N.a#m#U.saaaEaE.DaW`RaP`RaW#``7`Z#m.w#m.vac`b`b",
"`b`b`b#YaN#Iao#eax.T#p#g`A#d#I.l`6#N.0.0au#P#P.t.t`O`Oa4`.`.#E`jaU`w`Nap`3aqaeae`3.P#4a7aW#F`M.5aaaE.sazaz.#`5#4#`.v.saL.7aW.vaw`b`b",
"`b`b`b#YaD.6`oaVaiaVaAa##V#d#V.8`Y.L#B`N`N`N`Na5aq.P`N.va.#o`7#e#e#e#o.A#p`Ta#a##paA#4.2`RaP#K.#.S.S.S.SaP`HaM#lay#laW.S.S`R#Zac`b`b",
"`b`b`b#Y.a.6`o.x`7`F#p`F.#`x`5.l`V.2`7axaA`Ta#a#`Fax.TaVaV#e`7aV`7aVaV.A`F#p`T#p#p`Fa3#U.ua1#ca1a1#c#H.#aPac.4`e`k#d#d`R`R`R#Waw`b`b",
"`b`b`b#Y.1aX`o#O`z`Fa#`MaP.FaJ#L#HaJ#l`7aV#o.Aaiaxax.TaVaVaV#eaVaV.Aax`S`FaAaA`TaA`Fa3aD.4ac.4acaca`aJ#K#K#H.FawacacaP#d.S.w#Cac`b`b",
"`b`b`b#Y.1`oao.1#e#B`TaMaJ.F#H#K#H#KaM`7aVax`Sax`SaxaxaVaV#eaV.Tax`S`F`FaA#p#p#p`T.Aa..a.4acawawa`a`#H#H#HaJa`aJ.j#H#H#LaJ#K#Wac`b`b",
"`b`b`b#Y`z`oao.1#o`T`TaP.Faw.FaJ.j.F`saN#e.Taxax`SaxaxaVaV#eaVaxax`SaiaAaA#p#p#QaA.AaV`z`Vacawa`awa`#H#H#L#L.jaJ#H#K#Ha`.ja`ayaw`b`b",
"`b`b`b.n`zao.k.x#o`T#laJaJ.Faw.j.j.j#K.a`7ax`S`Sax.T.TaV#eaVax`SaiaiaAai#QaA`F`F#Q`S#o#JaD#L.ja`a`#H.j#H#H#H#H.j.j.ja`#HaJa`ayac`b`b",
"`b`b`b#Y`7ao.k`z#o`T`5.F.Fa`a`#H.F.F.j`M.xaV.T.TaVaV.TaV#e.Tax`S`S`Saxax`S`Sax`FaA`S#o#J.a.j.ja`a`#H.ja`.j.ja`#L#Ha`a`.jawa`ayac`b`b",
"`b`b`b.n`7ao#X#e`F`7.SaJawaw.FaJ#0.F`s`y.xaVaVaV.x.x.x#e#e.T.Taxax.TaxaxaxaV.A`Sa3a3#o.8aD#..m.jawa`.j.j.F.F.ja`#H#La`a`.j.jayaw`b`b",
"`b`b`b#Y`zao#X#e`F`yac#Kawaw.FaJaw.FaJ`M.1aVaVaV#e#e.x.T#e.TaVaV.T#e#eaVaxax`S.A`F.AaV.8#N`8.Y.j.jawa`a`.F.j.j.ja`#HaJawa`awayac`b`b",
"`b`b`b.n`7.k#XaV`F`5aJaw.F.F.F.F.F.F`xaD.1.xaV#e.x.x#e.x#e`zaVaVaV.TaVaVaxax.A.A#oaxa.`e`W`8`caTa`a`.Fa`awawa`aJa`awa`aJawa`#Zaw`b`b",
"`b`b`b#Y`7`P.x.A`z.Faw.jawawawawaw.FawaD#X#e.TaV#e#e#eaVax#oa##Qa#ax#oaVaxax.AaV`7.Ta.aB.J`X#l#l`saw.F.Fa`awawawa`awa`a`a`a`ayac`b`b",
"`b`b`b#Y`7.k#e`F#7aJ.Faw.Fawaw.F.Faw`x#l#X`4#eaVaVaVaVaxaV`S`S#oaxaxaVaVaxaxax`7#e#b`i.M.MaI.1#OaMaJawaJ#Ka`a`#HaJ#HaJa`#HaJayaw`b`b",
"`b`b`b.4aeaqaeaqaqa5a5a5a5a5aqaqa5aqaqaqaeaq`3aq`3ae`3aeaqaeaqaqaqaeaqaeaqaqaeaqaqaqaqa5a5aeaqaqaqaqa5a5aqaqa5a5aqapaqaqa5aqaq#c`b`b",
"`b`b`b`b`b`b`b`b`b`b`b`b`b`b`b`b`b`b`b`b`b`b`b`b`b`b`b`b`b`b`b`b`b`b`b`b`b`b`b`b`b`b`b`b`b`b`b`b`b`b`b`b`b`b`b`b`b`b`b`b`b`b`b`b`b`b",
"`b`b`b`b`b`b`b`b`b`b`b`b`b`b`b`b`b`b`b`b`b`b`b`b`b`b`b`b`b`b`b`b`b`b`b`b`b`b`b`b`b`b`b`b`b`b`b`b`b`b`b`b`b`b`b`b`b`b`b`b`b`b`b`b`b`b",
"`b`b`b`baCaCaCaCaCaCaCaCaCaCaCaCaCaCaCaCaCaCaCaCaCaCaCaCaCaCaCaCaCaCaCaCaCaCaCaCaCaCaCaCaCaCaCaCaCaCaCaCaCaCaCaCaCaCaCaCaCaCaC`b`b`b",
"`b`b`b#Y````````.d#`.d.daKaeaKaKaKaKaKaKaKaeaKaKaKaKaKaKaKaKaKaKaKaKaKaKaeaeaeae.X.daQ.d.d#y#y#y#y#y.I#y.X````aQ.d.daQ.d.d.d``a``b`b",
"`b`b`b#YaK.oaN#e#f`P#X#e`o#I.6#I`o`o.6al#IaF#IaF`Z`A`V`V.L#7`V.L`V`UaMaT`Y`cag`p.0`i`e`yaI###3an#xakak.pab.Way#C#B`Faxax.T#eajac`b`b",
"`b`b`b#Y.d.va#aa.k`P#X.x#I#I#I.6aX.L.6aFaMaM`c`c`m`c`Y#N`p`aaBag#v`X.f.b`Q`Q`Q`n`nar`a.c`p###x.paS###8#8.panaS#n.3a6`j#B`F`S#`aw`b`b",
"`b`b`b#YaKa7a0.kao`P.x#f#IaX.6`U`y#N.Va2.f.bar.b.b#S`Q#S#S#S#S#S.r#s#5#5#t#t#t#t`q`Q`u`C.Q##amay#F#uaS#8#8#8#qab.panaS#n.Uay.dac`b`b",
"`b`b`b#Y.5.s#aaoao#f#X`o#I`A`A`Yag.f#t#5#5#5#S#SaR#kaR#5aR#k#k#k#k#k#5#5#t#t#t#t`q#t.G`v`raB.o`d`t#4aS.p`I`I`l.p.p#8`I#q.ia5``aw`b`b",
"`b`b`b#Y`4.T`4#faoao#Xa.#I`A`Uagar`G`g`g#taRaRaRaRaRaRaRaR.r#SaR#s#saR#kaR#5#5#5#t`n.q#z.e##.U`t`4#6aI.p.Kan.p`Ian.p`l.pamayaqac`b`b",
"`b`b`b#Ya3aE#a#fao`P.x`T#B#Z`m`L`Q`q`G#t#5#s.r.r.raR.r.raRaRaRaR#s.r#saRaR#saR#SaR`Q#S.e.z`2#Z#QaL.oa6aS`lan.p#q#qas.p#.#Y`M#Cac`b`b",
"`b`b`b#Ya3`4#faoao`P#e#paj.d.V`r`Q`g#t#5.r`E`E.r`E.r.r.r`E`E`E`E`E`E`E`E`E`E.r#S.r#S#j.e.z#..aaa.7.o.5#n`l`l.p`l.p.pab#u#7aL.vaw`b`b",
"`b`b`b#Y#oaEaEaoao#X#e#gaj.X`v#z.b#S#s#S`Eatadadadad.Oadadad.Oad.O.O.O.O.O.Oad.Oad.z.O.z.z.B#6.D#m.s#7.W#q.Kan.p#.ab..#l#7ala3ac`b`b",
"`b`b`b#Y.o#aaoao#f#Xaia#aj.P.m#z.q.q.qatad.O.H#h.O#h.O#h.H#h.O.H.H.H.H.H`0`0#h.H#haf#h.zaY`8#U.S`V#m`V..as`lab#.#0`6.j.2`Zal#Baw`b`b",
"`b`b`b#Y#6#m`oao#f.xai#2#`.1.m#z`J`J`J`0#h#h`faf#h`f#hafafaf#h#haf#h#h`fafaf#Tafaf#TafaYaY.Bac`H.S.s#FaHaS`lab.j.j`s#d.SaW#aaZaw`b`b",
"`b`b`b#Y`MaLao`P`P.xai#gaj.2`x`v`J`J`0#TaOafaf#haf#haf#h`f`f`f`f`f`f`f`fafaf`f#T#T#T.`aO#3.i.#`H#A.5.o.i#.#naH#c.S.w.w.SaW#7aZac`b`b",
"`b`b`b#Y`M`Z`o#f`4#e#p#g`F.#`sa2aY#h`0af#TaO.Zaf`f`f`f`f`f`f`f`f`f.Z`f.Z.ZaO.Z.`.`.`.`#w#n..aPaM#4#4`7`V#U.4`6ac#maL.w#A`Za7aZaw`b`b",
"`b`b`b#Y`M.6ao`P.x#eai#g.kaz#V.m`LaYaf.yaO.Z.Z.Z.Z.Z.Z.Z.`.`.`.`.`.``D`DaG`D`Davav#wau`i.U.S.w#4aZa#.D#aaL`Ha1az#U.s#A#A#m#7#4ac`b`b",
"`b`b`b#YaN`Z`o#Xaxax#p#gaXaz`5`xag#wavav.`.``D`DaGaGaGaGaGaGaG`#`#`#`#`##P#P`##Pau`O`w.1#U.w#a.5a0.Daa.7.#`Haz#V#4#J#m#m.w#m.vac`b`b",
"`b`b`b#YaN#Iao.xai.T#p#2`o`x#I`s#D`u.J.J#G#GaG#P#P.t#P#P#P.t.t`Oa4`.#E#E.h#E.h#Ea5.P#B.5#m`V.D.5aEaE.s.SaPaP#d.oaQ#b#7#maL#U.vaw`b`b",
"`b`b`b#Y.a`Zao#eaiaVai#2.w.#.w.L#V`U`w#E`.`.`.#E.h.h`w`N#B#B#Ba.a.#b.v#B`T#2#2#2a#`T#B#6.w.2`V#7#7#7aW#d#c.#`V.vae#b.s#UaW#Aahac`b`b",
"`b`b`b#Y.a.6`o`z#o#o#p`T.S#d.4.1`y.L#o`F`T.P`3#2`T`FaV`7aV#e`7aV`z`7aVaxaA`Ta#`T#paAa3#U#M#M#M#M#M#M#i#d`R.#`5#Y`5`s.S`H`H`H#Waw`b`b",
"`b`b`b#Y.aaX`o.x`z#o#p`zaP.F#Daz#K`s.1#oax`SaiaA.Aax.TaVaVaV#eaVaVaV#o.A`F`F#paA`T`Fa3#6aJawacacacacaJaJaJ#Haw`c`m`s`R#d#d.S#Bac`b`b",
"`b`b`b.n.1`oao#O`z`Fa#`A.F`x#K#K#H#H.2`7aVaVaxaxaxaxaVaV`7#eaVaVax`S`S`Fai#p#p`TaA.A#o#W.4.4acacaJaJ#H#H#H.Fa`aJ#H#K#HaP#d.4#Zaw`b`b",
"`b`b`b#Y.1`oao.x`7`Ta#`s#H.F.F#Ha`aw`5`zaVaVax`S`S`Saxax#eaVaVaVaxaxaiaAaA#p#paA`Ta3aV.oaMacawa`a`#H#HaJ#H#H#La`a`#K#H.j#H#Hayac`b`b",
"`b`b`b.n`zao.k.xa.#B.a#H.F.F.Fa`.F.jaJ.1`7ax`Saxax.Tax.TaV#e.T`S`SaiaAai#QaA#Q#QaAaxaV#J#l#Ka`a`a`#H.j#L#H#H#Ha`.j.ja`a`a`a`#Zaw`b`b",
"`b`b`b#Y`zao.k`z`F`T.2aJawaJa`a`.j.j.FaD#JaVaxax.T.TaVaVaVaVax`S`S`SaA`S`F`F`S`F#Q`FaV#J.a`6.ja`a`.j.j.j.j#H.j.j#H#Ha`#HaJ.jahaw`b`b",
"`b`b`b#Y`7ao.k.x`F`F#Vawa`.Fa`a`.Faw`x`M`zaV.T.T#e#e#e#e#e.Taxaxaxaxaxax`Saxax`SaA`Fa.#J.a#0`6#HaJaJa`a`a`a`#H#H#H#H#H.j.j.jayac`b`b",
"`b`b`b#Y`zao#X`z`F.1#Kawawawawaw.Fawaw`M#OaVaV#e.x.x#e#e#e#e.Tax.T.TaVaVaxaV.A.A.Aa3aV.8.n.B.m`6.jaw.j.j.j.F.j.j.j#HaJawa`.jayaw`b`b",
"`b`b`b#Y`7.k#XaV`F#F`xawawaw.jawaw.F#KaD`z.xaV.T.x#e.x#e#e#eaV#e.T#e.T.TaVax.A.A.Aax`7`j`2.0`m..a`a`.Fawa`a`a`a`#Ha`a`awa`awayac`b`b",
"`b`b`b#Y`7.k.x.A`F`xaw.j.Faw.j.Faw.Faw#l.1#eaVaV#e#e#e#e#eaV#p#Q#QaxaVaxaxax.A#o`7ax`7`C.g`X#Y.n#Kaw.jawawawawa`a`awa`awa`awayac`b`b",
"`b`b`b.n`7`P.x.A`MaJawaw.Fawawaw.F`x`xaD#X`4#e.T#e#e#eaVax#o#p`F#Q.AaVaVax.AaxaV#e`7ah.Q`L.B.a.5`5awawa`#Ha`aJawawaJaJ#Ka`a`ayaw`b`b",
"`b`b`b#Y#`#2#`#``Nahahahahahahahahahah`3ajajaj#`#`#`#`#`#`#`#`ajaK#`aK#`#`#`aK#`aKaK.h.h#E`Bajae#Cahahahahahahahahahahahahahaeaw`b`b",
"`b`b`baC.j.F.ja`.ja`.ja`a`a`a`a`a`a`.F.j.j.F.F.j#H#H#H#Ha`a`.j.j#Ha`#Ha`#Ha`#Ha`a`awa`.j.j.j.j#H#H#Ha`a`a`a`.ja`.ja`.j.j#Ha``6aC`b`b",
"`b`b`b`b`b`b`b`b`b`b`b`b`b`b`b`b`b`b`b`b`b`b`b`b`b`b`b`b`b`b`b`b`b`b`b`b`b`b`b`b`b`b`b`b`b`b`b`b`b`b`b`b`b`b`b`b`b`b`b`b`b`b`b`b`b`b",
"`b`b`b.4.U.UaT.UaTaTaTaT.U.U.U.UaT.U.UaTaTaT.UaTaTaTaTaTaT.U.UaT.UaTaTaTaT.U.U.UaT.UaT.U.U.U.U.UaT.U.UaTaT.UaT.UaT.U.UaT.U.U.4`b`b`b",
"`b`b`b.X.daKaQa3#4`T`T`T.8.a`z.8aN.8aNaN.1.1aNaNaN.8#b.8aN.8.8.8.8.8aN.8#Z#Z`e`j.P`3#2.vaU.C.C.C.C.C.C.C#EaeaK#2#2#g#ga#a#`T.X`b`b`b",
"`b`b`b.X.v`M#o.k.k`P.x#X#I#I.6#I`MaXal`Z.l.l.l.2.2`A#F.L#6`U`U.c.U`c`K`K#.#v`X.Q.Q#N.c`y`p#3#3#8#8#8an.pab#naI`j#B#Ba3axaV.T.X`b`b`b",
"`b`b`b.X#`.a#g.D.k#X.x`o#I#I.6.6`o.L.2aM`m`K.Y.Y#v#v`2.Q`X`Xas.Gar.b#S`n#5`n`n#5#t`v#N`C.V##.p#n#n##ak`lanasabab.i.3ay`j#B#Q.X`b`b`b",
"`b`b`baeaa#7aoaoao#X.x.6aX`A`A.c`p#v.b`n#5.q.q#S#S#S#s#s.r`E#s#s#k#k#5#5#5#5#t`g`g.G`8.B.QamaZaZ#U#u.p#8#8#8#qasan`l.pab#ua5.d`b`b`b",
"`b`b`bae#a`4aE#f#f#f#XaX#I`A`Y`a#z`q`n#t#5#s#SaR#kaRaRaR#kaRaR#s#5#5#5#5#t#5#5#t#t`n.b#z`r.N.T`h`t#C#.#q.K#8`l`lan.K#qab#r#C.X`b`b`b",
"`b`b`bae#a`P#faoao#f`7`z.L`Y`Y`v`Q`g`G`g#5#5aRaRaRaRaRaR#saRaRaR#s.r#saRaR#5#5#5`n#S.q.e`r#1.5#Q.7#6.N`l`l.p.p.pas`l.p.ia6#Z.X`b`b`b",
"`b`b`baK`4aaaEao#f#XaVa##2`y.Q#z`Q`G#t#5.r.r`E.r.r.r.r.r.r.r.r.r.r.r#s.r#s#S#saRaR.bat.e#8.W.saa.5#4aT.p`l.p`l.p.p`laS#1.D#Uae`b`b`b",
"`b`b`baKaE#faoao#f`4.A#2#``w`v#z`n`n#t#s`E`E`E`E.r`E`E`E`E`E`E`Eatadatatat`E`Eat`E#j#j.z`rama3.D.s.5#YaS`l`las`l.pab#u#F#aaLae`b`b`b",
"`b`b`baKaaaEaoao#f.xaiaj#``..f#z#S#S.q#sad.O.O.O.O.O.O.O.O.O.O.O.O.H.O.H`0`0.O`0.O`0.O.z.M#N#m#m.w#m#FaHasas.p#.ab#0aT#l.7alae`b`b`b",
"`b`b`bae#malao#f.k#e#p#2#``U.f#z.q.e#j.O#h.O`f.O.H#h#haf#haf#h#h#h#h#h.H.H#haf`0afaf#haY.Mam#V#A#6aL#Fab`l.pab#0.j.j#K.wal#aae`b`b`b",
"`b`b`bae.walao#f`P#e#paj#2`5a2`J`J`J`J#haf#h`f#h`f#h#h`f#h`f#h`f#h`f`f`faf#TaOaf#T.yaf.yak#1#c`HaL#6aT.pan.p#0#c.#.S.S.waW#Rae`b`b`b",
"`b`b`bae#m.6.k`P#Xax#paj`z.S.E`r`J`0#h#TafaOafafafafafaf`f`f`faf`f`f`faf`f`faOaO#TaO.`#waS.4#L#m#6#4#6.4.4..`6aP`V#A.w#A#a.s.X`b`b`b",
"`b`b`baeaLaXao`P#eax#p#g.l#V.j.QaY#h#h.yaO.Z.Z`f`f`f`f.Z.Z.Z.Z.Z.Z.Z.Z.`.`.Z.`.``Dav#w`8aT#K.S#b#4#4.5`V#UaJ#c#VaW.w.w#A#7a0.X`b`b`b",
"`b`b`bae`Z.6#f`4.T.T#g#g#d`x`xa2`1.y.y.`aO.Z.Z.`.`.`.`.`.`.`.``D`D`DaGaGaGaG`Dav#G.J`.aI.w.S.D#g#4.o.s.7#da1#i#d`z`Z#A.w#maWae`b`b`b",
"`b`b`bae#a.6ao#eaxax#p#g.S.S.w.E`u#wavav.``D`D`#`#`#`#`#`#`#`#`##P#P#P#P.t.t.t.ta4`w`N#7#UaW.D.5.saaaE#A`HaP.#.5aj.D#m#m#m#mae`b`b`b",
"`b`b`b.X`ZaX#Xaxaxaia##p.S.SaX`x.E.0.0.gau#P#P.t.t.t`Oa4a4`.#E#E`w`w`N.Paqaqaqaq`3#Ba3.7aW#6.5aaaEaE#U#caP#d#7aK#2.o#a#U`Z#Uae`b`b`b",
"`b`b`baeaFaX`P.Aaxai#p`z.#`xaX`y.l#Z.P`N`w`wa5a5.P.P`N#ba.`7#e#J#e#oa..A`Ta#a#a#a##p.v#d.#ac`s#V#V#V.S#d`HaP#lay#Z#l.w.S#V`Haq`b`b`b",
"`b`b`bae.6aX.k`z`7.Aa#`MaP#d.2.2`V#6ax`S`Ta#a#`T`SaVaVaVaVaVaVaV`7#eaV`SaA`T#paAaA`Fa.#ia1.ua1a1a1#caP#d.#aJ#Y.n#D#d`R`R`R`R`3`b`b`b",
"`b`b`baeaXaX.k.x`7aAa#.w.F.FaJaP#K`s.8aVaV.AaiaiaxaVaVaV`7#e#eaVax.A.A`S`FaA#p`T`F`Fa.aM.4ac.4acacaJawa`aJ#Hawacac#d.##d.S#Uae`b`b`b",
"`b`b`baeaX`o.k`z`7`T#B#KaJaJ#K#H.FaPaD`7aVaVaxax`SaxaxaVaV#eaVaxax`S`SaA#p#p#paAa3.A`7#lacacawawa`#H#H#H#K.F.j.F#H#H#H#Haw#Kaq`b`b`b",
"`b`b`bae`o`o.k`za.a#.L#H.F.FaJa`.Faw`V`7aVax`Saxax.Tax.TaVaV.Taxax`S`FaAaA#p#p#paAa.#e.o.4`sa`a`aw#H#K.jaP#H.FaJ#H#H#Ha`.j#Kaq`b`b`b",
"`b`b`baeaoao#X`z`F`T.4aJ.Fawa`a`.j.j`5`zaVaxax`SaxaxaxaV#e.Tax`SaiaAaA`SaA`FaA`F#Qax#eaN#U.ja`a`.j.j.j#H.j#H.j.j#Ha`a`#Ha`.jaq`b`b`b",
"`b`b`baeaoao#X`7aA#b#da`a`.F.j.j.F.j`5aN.xaxaxax.T#e.TaV#eaVax`S`S`S`S`S`S.A.A`F#Q.A#eaN.U`6a`aJ#H.j.j#H.j#Ha`.j#HaJa`#Kawa`aq`b`b`b",
"`b`b`bae`o.k#X#oaA#6aJawawaJawaJ.Eaw#V.1`zaV.T#e.x.x.x#e#e.Taxax.TaxaVax.AaV`S`S`Fa3`7`zaTaH.j.jawaJa`.jawa`.j#H#L.ja`.j.j.jaq`b`b`b",
"`b`b`baK`o`P.x`7`TaMaJawawawa`.F.F.F`5.o.x#eaV#e.x#e#eaVaV.TaVax#e.TaVaxaxax.A.Aa.#o`7ah`maB..`6.ja`.j.j.j.j.ja`#H#Hawa`a`a`aq`b`b`b",
"`b`b`bae.k.k.x.A#baPaJaw.j.F.Fawaw.F`5.a`zaV.T#e#e.x.x#e#J#e#e`S.TaVaVaVax.A.A.Aax.T#b`C.g#v.Uacaw.F.FaJaw.Fa`a`a`a`awaw.Fa`aq`b`b`b",
"`b`b`baeao#XaV#o.L.F.F.F.Faw.Fawaw.F`k#O#O.T.T#e#e.T#eaVaV`F#pa#`S#o.TaVax.A#o#o`7aVah.Q.Jag`M.2awaw.jawaJawawawawa`aJaJaJa`aq`b`b`b",
"`b`b`baeao#X`7a.#V.Faw.Fawawaw.FawaJ`5.a`4.xaV.TaV#eaVax.A`Sa3a3axaxaVaxaVaxaV`7#e`jaB`L.Q#W.1`M`s.Faw#Ka`awa`#H#K#Ka`a`a`#Haq`b`b`b",
"`b`b`b#CaKaK.X.XaqaqaqaqaqaqaqaqaqaqaqaK.XaK.X.X.XaK.X.X.X.XaK.XaK.X.X.X.X.X.X.X.X.Xaq#yae.X.Xaeaeaqaqaqaqaqaqaqaqaqaqaqaqaq#C`b`b`b",
"`b`b`b`b`b`b`b`b`b`b`b`b`b`b`b`b`b`b`b`b`b`b`b`b`b`b`b`b`b`b`b`b`b`b`b`b`b`b`b`b`b`b`b`b`b`b`b`b`b`b`b`b`b`b`b`b`b`b`b`b`b`b`b`b`b`b",
"`b`b`b`b`b`b`b`b`b`b`b`b`b`b`b`b`b`b`b`b`b`b`b`b`b`b`b`b`b`b`b`b`b`b`b`b`b`b`b`b`b`b`b`b`b`b`b`b`b`b`b`b`b`b`b`b`b`b`b`b`b`b`b`b`b`b",
"`b`b`b`b`b`b`b`b`b`b`b`b`b`b`b`b`b`b`b`b`b`b`b`b`b`b`b`b`b`b`b`b`b`b`b`b`b`b`b`b`b`b`b`b`b`b`b`b`b`b`b`b`b`b`b`b`b`b`b`b`b`b`b`b`b`b"
};
