/* XPM */
static char *_1_frame_4[] = {
/* width height num_colors chars_per_pixel */
"    66   100      256            2",
/* colors */
"`` c #171410",
"`. c #467943",
"`# c #6e724e",
"`a c #eeeeee",
"`b c #6e936f",
"`c c #42291d",
"`d c #729d73",
"`e c #3b9a56",
"`f c #8b9a7e",
"`g c #406b38",
"`h c #5c2f1f",
"`i c #85b08c",
"`j c #39b06b",
"`k c #99af9f",
"`l c #605a3c",
"`m c #676761",
"`n c #c6b0a8",
"`o c #59d396",
"`p c #5d4633",
"`q c #24473d",
"`r c #435631",
"`s c #9d745d",
"`t c #74ba89",
"`u c #66b57d",
"`v c #70422f",
"`w c #c9cac3",
"`x c #6e6665",
"`y c #9e8d84",
"`z c #6f5948",
"`A c #39bc77",
"`B c #969e92",
"`C c #6e4b38",
"`D c #1a2a15",
"`E c #aeb2aa",
"`F c #c4bbac",
"`G c #434a24",
"`H c #9ec696",
"`I c #79e5bb",
"`J c #468448",
"`K c #629d6d",
"`L c #886a60",
"`M c #fefefe",
"`N c #52bf79",
"`O c #83e3b7",
"`P c #8b593f",
"`Q c #a37c61",
"`R c #568287",
"`S c #76dda2",
"`T c #7dc2ca",
"`U c #b49c93",
"`V c #ddc2bd",
"`W c #777f60",
"`X c #7b4a31",
"`Y c #8cb1aa",
"`Z c #1c341c",
"`0 c #4ca38f",
"`1 c #b98d83",
"`2 c #3f3c2f",
"`3 c #b9bab3",
"`4 c #c2c2bc",
"`5 c #49ca77",
"`6 c #62825a",
"`7 c #7cbfc6",
"`8 c #b9c8b8",
".` c #469682",
".. c #906852",
".# c #53a266",
".a c #61c46f",
".b c #326445",
".c c #8c8a83",
".d c #d5cec7",
".e c #663520",
".f c #8e7a72",
".g c #76d193",
".h c #8ad19a",
".i c #7f5239",
".j c #ab7d66",
".k c #635240",
".l c #3dc37f",
".m c #2a332d",
".n c #d4c4bc",
".o c #795946",
".p c #77422e",
".q c #acbfa3",
".r c #50c976",
".s c #beaa9f",
".t c #5ed6a3",
".u c #4e9e5a",
".v c #4f8a55",
".w c #eae6e3",
".x c #806257",
".y c #906c67",
".z c #553225",
".A c #ad8b7a",
".B c #d3bdb8",
".C c #c8a29c",
".D c #607952",
".E c #729672",
".F c #97c0c7",
".G c #644e37",
".H c #305e3e",
".I c #bdb09d",
".J c #2a3a32",
".K c #73514d",
".L c #b7bf9c",
".M c #45bc74",
".N c #987f76",
".O c #cec4bd",
".P c #3caa64",
".Q c #a8aaa3",
".R c #231810",
".S c #75c68c",
".T c #8a8271",
".U c #ebdeda",
".V c #73b080",
".W c #62ce8b",
".X c #45967e",
".Y c #b7b1a8",
".Z c #9b6950",
".0 c #4cb168",
".1 c #8e5f63",
".2 c #4aa05a",
".3 c #7c5c55",
".4 c #4e6a6e",
".5 c #7d4e37",
".6 c #2c2922",
".7 c #85bfc9",
".8 c #cac4bd",
"#` c #4f6a3f",
"#. c #735240",
"## c #527e82",
"#a c #ab968d",
"#b c #5c382a",
"#c c #b2bfb7",
"#d c #674431",
"#e c #b9a49a",
"#f c #868e6e",
"#g c #2a5a3d",
"#h c #99bd99",
"#i c #46c470",
"#j c #4f3d27",
"#k c #7abec2",
"#l c #469686",
"#m c #653c2d",
"#n c #5fa490",
"#o c #4c5f39",
"#p c #5c5956",
"#q c #3d914f",
"#r c #e2cac4",
"#s c #52c680",
"#t c #c4c6be",
"#u c #8c615e",
"#v c #9d6d62",
"#w c #723d2a",
"#x c #878685",
"#y c #9c746d",
"#z c #3a3616",
"#A c #519469",
"#B c #7e7667",
"#C c #815744",
"#D c #394932",
"#E c #38a35c",
"#F c #596a6a",
"#G c #65deba",
"#H c #9e867d",
"#I c #684a38",
"#J c #ac847b",
"#K c #6c3d2c",
"#L c #cebbb4",
"#M c #a1c3bf",
"#N c #473321",
"#O c #9a9e86",
"#P c #342019",
"#Q c #87be8b",
"#R c #4aa38a",
"#S c #514a2f",
"#T c #9e6e54",
"#U c #89523f",
"#V c #92837b",
"#W c #beb4ad",
"#X c #5b8e93",
"#Y c #7e9676",
"#Z c #8c5f46",
"#0 c #629063",
"#1 c #714d44",
"#2 c #505533",
"#3 c #ab8f87",
"#4 c #5cc383",
"#5 c #c9b6ae",
"#6 c #43b369",
"#7 c #bebab5",
"#8 c #63a977",
"a` c #bdbeb7",
"a. c #c2c2c2",
"a# c #764631",
"aa c #754a35",
"ab c #68e2b2",
"ac c #372922",
"ad c #8aa687",
"ae c #86cace",
"af c #373b37",
"ag c #547549",
"ah c #bdc2ba",
"ai c #be9c92",
"aj c #714632",
"ak c #bc958d",
"al c #64625f",
"am c #a1968b",
"an c #8c746c",
"ao c #ad846e",
"ap c #e4d4cf",
"aq c #8f8e8a",
"ar c #754e39",
"as c #45c57b",
"at c #9ac997",
"au c #a37459",
"av c #7ba77a",
"aw c #abc2c7",
"ax c #7e5244",
"ay c #956144",
"az c #4c4c4c",
"aA c #4e2d19",
"aB c #67d38d",
"aC c #66c486",
"aD c #815e49",
"aE c #a17f74",
"aF c #7f4636",
"aG c #c3bdb7",
"aH c #4f3f3c",
"aI c #969695",
"aJ c #9d6c68",
"aK c #4ea17e",
"aL c #7e685a",
"aM c #6f6251",
"aN c #92c0c6",
"aO c #62dbad",
"aP c #b7b6b4",
"aQ c #5e7e82",
"aR c #312e2b",
"aS c #5a885b",
"aT c #53cd85",
"aU c #373535",
"aV c #c6c2bd",
"aW c #cabdb9",
"aX c #45a15a",
"aY c #3bb670",
"aZ c #5d3e2e",
"a0 c #ab9d93",
"a1 c #7c4e3f",
"a2 c #5a6a46",
"a3 c #624e4d",
"a4 c #64443f",
"a5 c #7b4a37",
"a6 c #7a4632",
"a7 c #263936",
"a8 c #000000",
/* pixels */
"`M`M`M`M`M`M`M`M`M`M`M`M`M`M`M`M`M`M`M`M`M`M`M`M`M`M`M`M`M`M`M`M`M`M`M`M`M`M`M`M`M`M`M`M`M`M`M`M`M`M`M`M`M`M`M`M`M`M`M`M`M`M`M`M`M`M",
"`M`M`M`M`M`M`M`M`M`M`M`M`M`M`M`M`M`M`M`M`M`M`M`M`M`M`M`M`M`M`M`M`M`M`M`M`M`M`M`M`M`M`M`M`M`M`M`M`M`M`M`M`M`M`M`M`M`M`M`M`M`M`M`M`M`M",
"`M`M`M`M`M`M`M`M`M`M`M`M`M`M`M`M`M`M`M`M`M`M`M`M`M`M`M`M`M`M`M`M`M`M`M`M`M`M`M`M`M`M`M`M`M`M`M`M`M`M`M`M`M`M`M`M`M`M`M`M`M`M`M`M`M`M",
"`M`M`M.d#x#x#x#x#x#x#x#x#x#x#x#x#x#x#x#x#x#x#x#x#x#x#x#x#x#x#x#x#x#x#x#x#x#x#x#x#x#x#x#x#x#x#x#x#x#x#x#x#x#x#x#x#x#x#x#x#x#x.c.w`M`M",
"`M`M`M#xalan.x.oa4.zaj#1ar#d#b`c.R#P`6#A#n#8#n#n#R#R#R`0`0`0`0`0#R#R#R#R#R#R#R#R#R#R#R`0`0aKaK#A#A#0a3.K.3.za3aQ#X#X#X#X#X#X#D`3`M`M",
"`M`M`M#x#H.s.A#vaJaJ#T.Z#T#Z`X`hac`Dat.h`O`I`I`Iab#G.taO.taO.t.t.t.t.t.t.t`o`o`o`o.t.t.taO.W.W.WaC`d.3#C`y.1an`Y`T`T`T`7.7.7.4aP`M`M",
"`M`M`M#x#V`nai`1auaJau.Z.Z`P`vaA#P`2.h.g`S`S`S#G`oaT`5aTaTaTaTaTaTaTaT`5.r.r.raTaT.raT.r`5#saT#4#4.E`Uak#H.C#J.Fae`T.7aN.Faw#F`3`M`M",
"`M`M`M#x#Vai.C.Cakak#T.Zay.i#w`h`caM`H.h.gaB.WaTaT`5`5`5`5`5`5`5asas`5`5`5`5`5`5#i#i#iasas.Mas#s`u`d.s#rakaE#V`Y#k#k#MawaWaW`xaP`M`M",
"`M`M`M#x.f.N.C.Cak`1aJ.Zay.i#waA`c#H.L.S.W.W.r`N#i.l#iasasasas`5.lasasas.l.l.l`5.l#i.M#ias#6.M`N`u`YaW#r.C#y#xaN`Y#k.F.d.Bai`z`3`M`M",
"`M`M`M#x#V.x`1aiaiao.Z.Z`P.5#w`h#d`n.L#Q.a.r#s#i.M.M.M.las.l.l.l.l.l.l.l.l.l.l.l.l`A`A.M#6.MaY.P`Y.Q.Oai.3#b.KaI#e.Qa.aW#aai.kaP`M`M",
"`M`M`M#x`ya4.y.Aakao#Tay#U`X.e`h.y.B.I`H`u#i`N.M.M`A`A`A`A`A`A`A`A`A`A`AaY`A`j`j#6aY`j#6`j.0aKaSaI#W.s.3#baZ.1aE#3aWapaW#3#J.k`3`M`M",
"`M`M`M#x`y#Ia1.y.jaoau`P`X`X.eaA.A#r`U`8.V.0.M.MaY`AaYaY`j`j`j`j.P.P#E#E#E#E#E#E`e#E#E#E.u.v#``x`U.C#ya4#1axaJ.j`nap#r#5.K...kaP`M`M",
"`M`M`M#x#Va3.z.K.yaoau.i.pa6.e`h#H#5#a`F`f#8.u.#.0.P#E`e`e`e#q`e`e`e`e#A.v`J`J`.`.`.`.`.#o#D#j`Lak#3.y.1aJaJaJ.C.B.B#L.y#P.Ka4aP`M`M",
"`M`M`M#x#B.KaZ`C.jao.Z`X.p`X.e`hai#5#a#a.L`Wag.D.v.v.v`J`g`g`g#o#2#2#2#S#S`paH#jaAacac`c#NaZa4.y#J.faL.1.1aJ#J.n.n#5#H.zaca3#N`3`M`M",
"`M`M`M#x#V`n.yaL.Aao#Tar`v`X.e#b#5`nai#..Tan`paZ#j#z#zac#jaZ.G#..5aaa1a1ara1aaaa#K#b#b#b#m#Ka4.s.Uap.w.Uap#r.B#5.B.na0aq#xama3`3`M`M",
"`M`M`M#x#VaWaG#aao.j#T#Car`C.e#..n.La0#5a0#a#.aj`v`v.e#K`v`X`X`Xaa`Xar`Xa5aaaaaj`v#m#m#K#m#daj#a.d.naWa..Oa.a.aWaW#7.Q#B#O.YaMaP`M`M",
"`M`M`M#xaqahaV#e`Q`Q#TaDar#I#b#H.8.L.O.OaV.Lanaraa`Xaja#a#a6a6`X.5.5.5aaaaajajaj`v#m#m#K#maja4.y`EaPaPaPaPaWa.a.aWa.ah`4`4aGal`3`M`M",
"`M`M`M#xaq#t`w#H`Qau#TaD`C#m#b#e`F`4`FaVaV`4#3ar`X`X.p.p.pa6`X`Xaaa5`X`Xa6.p#w#K#K#m#m#ma4ajaa`x#e`E#7a.a.a.a.aWaVaGaVahaGaV`xaP`M`M",
"`M`M`M#xaqah.O`Qau#T..#C`CaZ.o.OaVah`F`4ah`8.I`za#a6.pa6a6a6a6`X`Xa5`Xa#.p`v#K`v#K.e#K#K#Kaja5.o#HaPa.a.aGa.a.a..O.8.8a.aVa.`m`3`M`M",
"`M`M`M.T.c`F.I`sau#T.Z.o`CaZ`ya`aha`ah#t`4#taG.o.i`Xa6.pa#a6a6a6.5.5a6.p`v.p#w#K#w`v#K#K#Kaja5.K.y`wa.a.#ta..8aV#t#taVa.#taV`maP`M`M",
"`M`M`M#x.caG#e`s#T#TayarajaZ.I`4aV`4`4.8ah`8aV.x.oa#`Xa6.5.i.5`X`X`X.p.p.pa#a6aj`va#ajaj#K`v#1.o`L`8#taWaG#t#ta.`4#t#t.8#taV`m`3`M`M",
"`M`M`M.T.c.Lam`s#T.Z#Z.i#daD`F#7`3a`aha`a`a`#W.x#Car`X.5.i.5.i.5.5a5a5a6a5a5a5a6a5a5a#`v#d#dar#.#x`i`8`8a.a`#t#t`4ah#ta..8a.`maP`M`M",
"`M`M`M#x.c`F`yau`say#Z`X#d.N`F`4a`a``4a`#cah`F.x.o.5aa.5.i.i.i.5.5.5.5a1a1a1a1a5a#aaajaj`Ca#aa#pad#0`k`8a.a`a.ah`4a.#ta.#taG`m`3`M`M",
"`M`M`M#x#f`Fao`s#Tay`Paa#d#W#7a``4a`#taGaG`4aPaL#C.5`X.5.i.i.5.5.5a1`v#m.pa#aaa#aaa6a#a#aaaF.G`W#8#Q#fam`4ahah`4aG`4a`a.aVa.alaP`M`M",
"`M`M`M.T#x`F.N`Q#Tay.i`CaL`4a`ah`4#7ahahahaG#WaLaD.5a5`X.5.5.5`Xaa`C`h#K#ma6a5a6a#a#aaaaara5`l`t#n`iaL.y#WaGa`a`aGa.a`a`a`aGal`3`M`M",
"`M`M`M#x.T.I`Qau#Tayar`v#aa`ah`4a`a``3a`a`ah.LaL`P`P.5`X`X`Xa6a#a#a#ara1a5a#aaaaa#a6a#a5a1.k`d`u`t`m.oaD#3a.ahaGaGa`aGaVaGa.`xaP`M`M",
"`M`M`M#x.c.I`Q`Q.Z`P`X#.`n`F#7a``3`3aP`3`Fa`#h`f`z#C#U.5.5`X`v`v`va#.iaxa1a1a#`vaja#aaa1.kaS.g`ta2`Car.o.y#WaGa`aGa`aGaVa.aGal`3`M`M",
"`M`M`M#x.T#eao`Q#T#Zar.f`F#W#7#7`3`3#c#7#W.Y#Y`H`6`z#C.5.5.5a6.pa6a#a1a1a5.5a5a#a#a5aa.Gag.S.S.D#m#d#1#1aL`UaG`3`3a`a`a`a`a`alaP`M`M",
"`M`M`M#x#f#W#5#eak#T`z.Ia`#7#7aP`3`3.LahaP`UaM`k#Q.D`l.i.5ara6.p.pajarara6a6aaa6.paaa3`6.SaC`K`p#d`Caaa1.3.faPa``3`3`3#7#7a`al`3`M`M",
"`M`M`M#x.T#e.A`s...o#3#W`3`3#7aPaPaP`3aP.La0`PaMad.S`K`l.Gaaaa.paaa6`X.p`va#a#`v#d#2#8.S`NaC#o#dajaj`Cax.3.y#WaP`3a`a``3`3`3alaP`M`M",
"`M`M`M#x#xakaoau#Z#.#eaPa`a`#7`3`3`3`3.I.qam#U`P#2`d#Q`t#0#2.G`p`C.pa6.p`vaj`p`GaS.S#4`N#4#0`p`vajajaaa1#C#u.Q#W`3`3aP`3#7#7al`3`M`M",
"`M`M`M#x#V#3aoau#Z`L`n#7`3#7`3`3`3`3`3#W.Y.c#C.i.5`p`W`u.a.S.VaS#``r`G`G`r#``6.SaC`N`N`NaC#o#K#waaajara1ax.x#a#W#WaP`3#Wa``3alaP`M`M",
"`M`M`M.Qaf`2#N`2aUaUaf`2af`2`2afaf`2`2`2`2`2aUaUaUaU#zafafafafafafafafafafafafafafafafafafaUaUaUaUaUaUaUaUaUafaf`2afafafafafaf.d`M`M",
"`M`M`M`M`M`M`M`M`M`M`M`M`M`M`M`M`M`M`M`M`M`M`M`M`M`M`M`M`M`M`M`M`M`M`M`M`M`M`M`M`M`M`M`M`M`M`M`M`M`M`M`M`M`M`M`M`M`M`M`M`M`M`M`M`M`M",
"`M`M`M`M`M`M`M`M`M`M`M`M`M`M`M`M`M`M`M`M`M`M`M`M`M`M`M`M`M`M`M`M`M`M`M`M`M`M`M`M`M`M`M`M`M`M`M`M`M`M`M`M`M`M`M`M`M`M`M`M`M`M`M`M`M`M",
"`M`M`M`M`a`a`a`a`a`a`a`a`a`a`a`a`a`a`a`a`a`a`a`a`a`a`a`a`a`a`a`a`a`a`a`a`a`a`a`a`a`a`a`a`a`a`a`a`a`a`a`a`a`a`a`a`a`a`a`a`a`a`a`M`M`M",
"`M`M`M.c.6aUaRac.R.R#P#P#P#P.R.R````.m.J`q#D`q`q`q`q`q`q`q`q`q`q`q`q`q`q`q`q`q`q`q`q`q`q`q`q`qa7`qafaUac#P``#Pa7a7a7.J.J.J.J`DaG`M`M",
"`M`M`M#x`y.C#JauaJ`PaJ.Z#Tay`X`h#P`Dat.g`O`O`O`Iab#GaO#G#G#G#G#GaO#GabaOaOaOaOaOaO#G#G#G#GaBaB.WaC`i#I.1#J.3.y`Y`T`Taeae`7.7.4`3`M`M",
"`M`M`M#x.c`nak.jaJ.Z#v.Z.Z#Za#aA#Pacat.g`O`I`I`IaO`o`o`o`o`oaT`oaTaT`oaTaTaT`5aTaTaTaT`oaT#s.W.WaC.E.A.Aai`1aE.7ae`T`7`7aN.F#FaP`M`M",
"`M`M`M.T#V.Caiak`1`1au.Zay`P.p`h`c#2at.h.gaBaB`oaT`5`5`5aT`5`5`5`5`5`5aT`5`5.r`5`5#i#i#s`5#sas#4`N`d#a`n.N`1.N.F`T`TaNawaw#t`maP`M`M",
"`M`M`M#x#V.A.C.Cak`1au.Zay.5#KaA`c.f`H.gaB.W.a.rasasasas`5`5`5asas.las`5asas`5`5`5as#i#i.l.Mas`N`uav.n`V.C#y#V.F#k#k.F`w.n.salaP`M`M",
"`M`M`M#x#V.yai.Cak`1.Z.Zay.i#waA.z#e.L#Q.a.r.r.M#i.l#i.l.las.las.l`5.l.l.l.l.l.l.l.l`A.M.M#6aY`j.V`kaWaW`1#1`x`B`E`k#c.dakai.KaP`M`M",
"`M`M`M#x#V#1aEakakao#Tay#U.5#w`h.o.B.I#Q.a.a.r.M.M`A`A.M.M`A.l`A`A`A`A.l`A`A`A`AaY`AaY#6aY#6.0#n`B`E.Ban.za4axaE#3.Y`w.Y`U#3`zaP`M`M",
"`M`M`M#x`ya4axaEaoao#Tay.5a6.e`hao`V.s`8#8`N.M.M#6`A`A`A`A`AaY`A`jaY`j`j`j`j.P#E#E.P`j.PaX.u###F#a`n#J#m#ba4#yaEakapap`V#y#ya3`3`M`M",
"`M`M`M#x`ya3#m.x#yaoau#Ua6a6.eaA.A#La0#tav.#.##6#6#6`j#E#E#E`e#E#E#E#E`e`e#q`e#q#q#q#q#q`J#``GaLakak.y.1aJaJaJ`1.B.n`V#a`c.3a4`3`M`M",
"`M`M`M#x#Ba4#ba4`sao#T`X`va6.e`h.A.I.A.s.L`d#A`K.u`e#q#q`J`J#q`.`.ag`g#`#o`raz`G`2`2`2`2#z#ja4.y#3#H.y.1aJaJ#y.n.B#L#e#b#Pa3aHaP`M`M",
"`M`M`M#x.N#H.K`z#Jao#Taraja6.e.z`n`F`UaDa0#B#S#S#2#o`r#D#D`2`G.G#I#I`Caaaxar`C`C#m#j.z#b#b#m`p#3`n#e#e`Uakak.C#W`V.B#Hal#S.3aH`3`M`M",
"`M`M`M#xaqaW#e.Naoao#T.iaaaa#m#d.B`F#a.T.f.Naj`v.e.z.z#b`vaa`X`Xaa.5ar.5arar`X`v#K#m#m#m#m`va4.s.U.U.U.U.Uap.O#5aWaWa0`W.QaGaMaP`M`M",
"`M`M`M#x#xaGaV.Iao`Q#TaDaraj.ean.O.L`F.n.8#WaLaraaa#`v#w.p`X`X`Xaa`X.5`X`Xa#aaaj`v#m#m#KaZ`vaj.faP`E`E`EaPa.aGa.a.a.a``E.Y.Yal`3`M`M",
"`M`M`M#xaq#taV#3`Qau#T.oar#d#b#aaW.L.8.8`F`4#H#.ar`Xa#a#a#.pa#`X`X.5`Xaaa#`v`v`v#K#K#m#ma4aj#1aL.QaPaP#7#7a.a.a.aWaGaV`4#t.8`xaP`M`M",
"`M`M`M#xaq`8.8#H`Qau#T.o`CaZ#IaWaVa``F#t#t.L#earaaa6a#.pa#aFa6a5.5aa`Xa6a6.p#w#K#K.e#K#K#maj#1.o`yaPa`#ta.a.aWa..8.8aVaGaVa.`x`3`M`M",
"`M`M`M#x#f`F`F`s#T#T...i`CaZ.faGahaGah`4ahah`F`z.5a6.pa6a6`X`X`X`X.5a6a#.p#w#K#w#K#K#m#K#K`va1ax.f.8a.a.a.a.`wa.aVaVaV#t#ta.`maP`M`M",
"`M`M`M#x.caG.s`s#T#Tay.i#d#b#eaG#t`4ah#t#tah.8aD#.`Xa#a6`X`X`X`Xa5`X.p`v.p.paj`v`v.paj`v#K`va5ax`L`8#ta.aGa.#t#t#t#taVaV.8a.`m`3`M`M",
"`M`M`M.T.c`Famau#T.Z#Z.iaj.G`Fah`3a``4aGah.L#WaL.oaa`X`X.5.i.5.5.5.5`Xa6`Xa5a6a6a#aaa#`v#Ka4#1.K#B.q`8aVa.aGa.#taha.#t#taVaV`maP`M`M",
"`M`M`M#xaq`F#3`sau#T`Par`van#WaG#7a``4a`ahah#W.x#C.5`X.5.i.i.i.5`X`Xa#a#a5a5a5a5a6a#ajaj`Cajar`z`f`d#h#t#taha.ahaha.a.#t#taV`m`3`M`M",
"`M`M`M.T.c.L#H`s#TayaD`X#da0aGa`aha`aVa`a`ah`FaL.o.5`X.5.i.i.i.5.5.ia1aaa5a5a1aaaaa#a#aaaja6#1`m.V`dad.Qa.a`a.`4`4`4a.a.aVa``maP`M`M",
"`M`M`M#x#x`F#Hau#Tay.iaa#.aVa`#taha`aVa`a`ah#WaLaD.ia5`X.5.5.5.5`Xaa.ea4#ma#a5a5a#a#ajaaaaa5#IavaK#Q#B.NaGa`a.aGa`a``3a`aGa``maP`M`M",
"`M`M`M#x.T.I`Q`Q#Tay.5#d#Ha``4a`aG`3a`aha`aG#7aL`P#U.5`X.5`X`Xa6ajaj#K#K.pa#aaa#a#a#a6ara1.G.D`t`t`W.x.3#e`4a`aGaV`4a.aVa.aWal`3`M`M",
"`M`M`M#xaq.I`Q`Q.Zay`X#d.I`Fa`a`a``3aPa`a`ah.L`WaD.i.i`X.5`Xa#.p`vajax#Ca1a5aaa#ajaaa5ax#.a2.S.S#0.Kax#C.f#7aGa`#7aGaGaGa.aVal`3`M`M",
"`M`M`M#x.T.I`Q.j#T`Par`L#5#7aG#7`3aP`3#7#WaPad#ha2.o#U.i.5.5a#`va6a#.ia1a5.5a6aj.pa#aj`C#p`t.g`b`p#Iar#1`L.saG#7`3a`aha.a`aGalaP`M`M",
"`M`M`M#x#x.saiaiao..#Ia0#7`3#7aP#c`3`3a`aP#e`W`Hav`l#..5.5a5`X.pa#ajara1a5a1`Xaa.pa5`C#2.V#4`uaz#K#dar#..3`y.Ya`a``3`3#7`3aGal`3`M`M",
"`M`M`M.T#f.I`Uao`Q#Z.N#Wa`#Wa`#WaP`3.L.L`3a0.o`W`H`tag.k.5ara6.pa6a6`Xa#a#.pa#.p`va4ag.S#4aCag`paj`C`Ca1.3an#7`3`3#7`3`3#7`3alaP`M`M",
"`M`M`M#x.T`U.Aau..#.#3#Wah#7a``3aPaP`3aP.qam#U.ia2#Q#Q`K#o.G#Iajaja6a6.pa#ajaj`p#2`K.S`u#4#8.G#dajajara1#C`L.saP`3a`a`aP#7`3al`3`M`M",
"`M`M`M#x#V#3aoau#ZaD`naP`3#7aPaP`3a``3`n.Y`y#U.i.k`lav`taC`d.D`r#S`p`p`paZ#S#2aS.S#4`N`N#4ag#m`vaaajaaaxax.3a0aP#7`3aP`3a`#7alaP`M`M",
"`M`M`Maq`2`paZ#j`c`2#p#p#p#p#p#p#p#p#p#p#paHaR`cac#P.6`r#g.H.b#o`q`Z`D`D`Z#D.b.b#g#g#g.b.H`D#P#P#P#Pac`c`c`caz#p#p#p#p#p#p#paU`3`M`M",
"`M`M`M`a#ta.a.aVa.aVaVa.`4#t#t#taha.aha.#t#taV`4`4#t`4`4aV#ta.#t#taVah#t#t#taV#t#ta.#ta.a.aVaVaV#t#ta.a.#t#taVa.a.a.a.a.a.a.#t`a`M`M",
"`M`M`M`M`M`M`M`M`M`M`M`M`M`M`M`M`M`M`M`M`M`M`M`M`M`M`M`M`M`M`M`M`M`M`M`M`M`M`M`M`M`M`M`M`M`M`M`M`M`M`M`M`M`M`M`M`M`M`M`M`M`M`M`M`M`M",
"`M`M`M.QaIaIaIaIaIaIaIaIaqaIaIaIaIaIaIaIaIaIaIaIaIaIaIaIaIaIaIaIaIaIaIaIaIaIaIaIaqaIaIaIaIaIaIaIaIaIaIaIaIaIaIaIaIaIaIaIaIaI`E`M`M`M",
"`M`M`MaR#B.x.K#1.z#ba4#I#d#baA#P.Raf.D.v#A`KaK#l.X.X.X#l#l#l.`.X.X.X.X.X.X.X.X.X#l.`.`.`.`#A.v`J###p`z.KaZ`cal####`R`R####aQaR`M`M`M",
"`M`M`Maf#5`U#J.y#vaJ#T#T..`P#KaA#P#`.h.g`O`O`O`I#GaO.t.t.t.t.t.t.t.t.t.t`o`o`o`o.t.t.t.t.t.W`o.WaC`W.K#yan.1#x#k`T`T`T`7.7aN.m`M`M`M",
"`M`M`M`2#L.Cak.jaJ#T.Z#Tay.i#K`c#P.D.h`S`S`SaOaO`oaTaT`o`oaTaTaTaTaT`5aT`5aTaT.raT.raT.r#s#saTaC`u.c.C`1ak.C`yaN`T`T.7aN#Mawaf`M`M`M",
"`M`M`MaU.sai.Cakak`1#T.Zay`X.eaA`c#Oat.gaBaB.WaT`5`5`5`5`5`5`5`5asas`5asasas`5`5as#i`Nasasas#s`N`u#x.B.B.N#JaI.7`T`Taw#caVaGaU`M`M`M",
"`M`M`MaUa0`1.C.C`1.j.Z.Z`P`X.e`caZ.Y`H.S.W.a.a.M#i#i.lasasasas`5`5as`5as`5.l`5.l.l.l.M.l.M.M.M.M#k`k#r`V#J`L`B.7#k.7awap`n.saU`M`M`M",
"`M`M`MaU#3.Nakaiak.j.Zay`Pa#.eaAan.s.q.S.a.r#s#i#i`A.Masasas`A.l.l.l.l.l`A.l.l.l.l#i`A.M#6aY#6#8`Y.YaW.f.1#m.fa0#e.Q`w`n#J.CaR`M`M`M",
"`M`M`MaU#3#.aEak`1.j.Z`P.5a6.eaA`n#e#t`t`N#i`N.M.M`A`A`A`A.l`A`A`A`A`A`A`A`A`j`j`j`A#6#6`j.0.u`baI.Baia4#ba4.y#J`U.d.d.saEaiaU`M`M`M",
"`M`M`Maf`UaZ.1#yao.j.Z#U`X#w`h`h`V.I.I`H#8.0.M#6aY`A`A`j`j`j`j.P.P.P.P.P#E#E#E#E`e#E#EaX#AaS#o.Taiai#u.z.K.1aJ`1.Bap#rai#m.AaR`M`M`M",
"`M`M`MaU#3#ba4.o#J.jay`X`X.p`h.e#L`n`U.L`d.#.0.0.P.P#E#E`e`e`e`e`e`e`e.X#q#q`J.v`J`J`J`.#o`Ga4#J#3.A`L.1#yaJ#y#5.n.B`na4`c.yaU`M`M`M",
"`M`M`MaU#Va4aZ#..A`Q#Z`v`X.p.e#d.B.I`Q.I.La2agaS.v.v`J`.`g`g`g`g#o#2#2`p`p#j#jaAacacac`c#NaZ#I#J#H`L#u.1.1aJ.C#r.B`naL#P#j.3ac`M`M`M",
"`M`M`M`2#5#a.3.y`1`Qayajaj`v.eaD#L#5anaL`y`z#d#j#j`2#z#z#jaZ.Ga5`Xaa.5ar.5araa`v#m.z#b#b#m#m`z#rapapapap#r`V#5aWaW#5`y.T.T`yaU`M`M`M",
"`M`M`MaU#LaW.I.Aao`Q..arar`v#b#H.O.Ia0#eam.Najaj`v#m#m#Kaa.5aFaa.5`Xaaaaa5aaaa`v#K#m#m#m#K`v#1.n.d.d`w.O.Oa.aWaWaW#7#f#x.Q#5aU`M`M`M",
"`M`M`MaU`4`4aV#H`Q`Q.Z.i`C#maZ.IaV.L.8aWaV.I#.araja#`va#.p`X`Xaa.5.5`Xaaa6ajajaj`v#m#K#ma4aja3am`E.YaPaP#7a.a.aGaWa`a.ah#7aWaU`M`M`M",
"`M`M`Maf`4`8`F`Q`Q#T...i#IaZ.o#La`#t`FaVah`4aLar.5`X.p.pa6a#a6`X.5.5a5`Xa#.p#K#K#K#m.e#K#daj.KanaPaPa`a`a.a.aGaVa.aV`4aGaV.8af`M`M`M",
"`M`M`MaUaV.8.s`Qau#T..ar#I.zam.8aGaha`aVa``4.Nara6a6.pa6a6aFa6`Xaa.5a6a#.p`v#K#K#K#m#m#m`vaaa1.3#eaP#ta.a.a.a..8.O.8`4`4`4aGaf`M`M`M",
"`M`M`Maf`F`4.Aau#T#T#Zar#daZ#5#7aha``4#t`8#ta0#.ara6a6.pa6aaa6a6`X`Xa#.p#w#w`v#K#K`v`v#K#Ka#a5.oa0`wa.a.a..8aVaV#t#t#t`4aVaVaU`M`M`M",
"`M`M`MaUaGaVao#T#T.Z`Par#daDaGaVaV`4#t.8ahaha0.o.ia#a#.5.5.5.5.5`Xa6.pa#.p.pa#.p`va#a#`v#K#1.K.oaI`8a.aVa.#ta.a.`4aV#t#t#taVaf`M`M`M",
"`M`M`Maf.L.L.fau#T..`P`C#m`yaGa``3aha`a`.La`a0aD.iaa`X.5.i.i.5.5.5`Xa#a6a5a5a5aaa5a#`v`va4ajar#.`B#h#tah`4a.#t#tah#t#taV.8aVaU`M`M`M",
"`M`M`MaUaG.I`Q`s#Tay.iaa`p.sa`a`a`aG`4a`#c`4#a.o#C`X`X.5.i.i.5.5.5`Xaxa5a5a5a5a#a5a#ajajajaa#.`#av`i`kahahahah`4`4aVa.#ta.a.af`M`M`M",
"`M`M`Maf`F.I`s`s#Tay.iajaLaGaGa``4ah`4aha``4am.x.o.5`X.5.i.i.ia5.5a1`v#Ka5a5a5a5a#a#aa`Caaa5a3av#A#h.T.YaG`4`4aha`ah`4`4`4aGaU`M`M`M",
"`M`M`Maf#7.s`s#T#T`Pajajam`F`4`4ah#7aGaha`aham.x#C.5`X.5.5.5.5`Xaa#d#K`h`vaaaaa#a#.pa#aaaraa`#.V`t.E`L`y#7ahaGaG`4a`#7aGa`aGaU`M`M`M",
"`M`M`MaU#Wa0`Q#T.Z`Paa`C`Faha`ah#7a`a`a`a`.L.QaD#U#U`X`X`X`Xa6a#aja##1aaaaa5a5aaaaaaa5a5ar#o`t#4`d`z#C`L#WaGa.aGaG`4`4a.`4aVaf`M`M`M",
"`M`M`Maf`F#a.j`Q.Z.iaaan#5aGa`a`aPaP`3#7#W`E.q`#`z#C.5.5`X`X`v.paja6axa1a5a5a#.pa#aja1ar.k.V.S`d#paaa1.3`yaGa`#7#7aG`4aGa.#7aU`M`M`M",
"`M`M`M#z.Lamaoauay`P.G#e#7a`#7#7#c`3a``F#7#O#hada2#C#U.5.5aaa#.p.paaaxa1.5.5a#aja6a6`C#p`b.g`t#2`v.Gaa#Can#W#7a`a`a`aG`4#7#7af`M`M`M",
"`M`M`MaU#5.I#5.sao..aL`F#7#7aP#Wa``3#c.L#W.f`W`Hava2#..5.5`Xa#a6a#a#a1aaa#a6a#a#a6aa#2`d#4.W.4#d`v`Caa#C`L#a`3`3`3`3`3#7a`#7aU`M`M`M",
"`M`M`MaU`F.Aao#T.oaD.saP`3#W`3`3`EaP`3`3.L.f#C`W#Q`u.D.G`CaaaF.pa#a#aa.pa6aaa##K`p#``taCaC#8#S#K`Caj#1ax.3`yaP`3a``3#7`3#7aPaf`M`M`M",
"`M`M`MaU#W.A.jauaD.x`na`a`#7`3`3`3`3aPaP#c.y#U#.a2#Q.S.Vag#S`p#Iaa.p.p`v`vaj`p`r`K.S`N`NaCa2#d`vajaaaaax`P.f.YaPa``3`3`3aG`3aU`M`M`M",
"`M`M`M#z.s`1.j.Z.i#3#WaP`3#7#7`3`3a`#W.I#WaL#U.i#I.Gav`uaC.S`Kag`r`G`G`G`ra2`K.SaC.M#4#4#8`G#wajajaa#1ax#C`L#W#W`3`3aP#7`3#Waf`M`M`M",
"`M`M`MazaU#z`caR.6aUaUafaUaUaUaUaUafaUaUaUaRaR.6.6.6.6aR.m.mafaf.maR.6.m.maU.J.J.m.m.J.J.m.6.6ac.6.6aRac.6aRaUaUaUaUaUaUafaUaz`M`M`M",
"`M`M`M`M`M`M`M`M`M`M`M`M`M`M`M`M`M`M`M`M`M`M`M`M`M`M`M`M`M`M`M`M`M`M`M`M`M`M`M`M`M`M`M`M`M`M`M`M`M`M`M`M`M`M`M`M`M`M`M`M`M`M`M`M`M`M",
"`M`M`M`M`M`M`M`M`M`M`M`M`M`M`M`M`M`M`M`M`M`M`M`M`M`M`M`M`M`M`M`M`M`M`M`M`M`M`M`M`M`M`M`M`M`M`M`M`M`M`M`M`M`M`M`M`M`M`M`M`M`M`M`M`M`M",
"`M`M`M`M`M`M`M`M`M`M`M`M`M`M`M`M`M`M`M`M`M`M`M`M`M`M`M`M`M`M`M`M`M`M`M`M`M`M`M`M`M`M`M`M`M`M`M`M`M`M`M`M`M`M`M`M`M`M`M`M`M`M`M`M`M`M"
};
