/* XPM */
static char *_1_frame_1[] = {
/* width height num_colors chars_per_pixel */
"    66   100      256            2",
/* colors */
"`` c #0c0b0a",
"`. c #497540",
"`# c #96764a",
"`a c #97a992",
"`b c #90c6be",
"`c c #3e9450",
"`d c #47281c",
"`e c #3bbf7b",
"`f c #8ed2ae",
"`g c #466b3b",
"`h c #58c375",
"`i c #92cc9a",
"`j c #48482b",
"`k c #549c5c",
"`l c #58cb71",
"`m c #92e7ce",
"`n c #92995e",
"`o c #674532",
"`p c #a4aaaa",
"`q c #6a6636",
"`r c #5ad49a",
"`s c #745c32",
"`t c #53764f",
"`u c #3d401f",
"`v c #bed2aa",
"`w c #a8b894",
"`x c #6e9995",
"`y c #9a8e5a",
"`z c #f0e6e3",
"`A c #88ceaa",
"`B c #7f664e",
"`C c #a29666",
"`D c #735442",
"`E c #beb4aa",
"`F c #59c583",
"`G c #5b1925",
"`H c #39a660",
"`I c #2c2825",
"`J c #747745",
"`K c #a27461",
"`L c #61daac",
"`M c #eeeeee",
"`N c #96caba",
"`O c #704330",
"`P c #84d69c",
"`Q c #52b580",
"`R c #8f644a",
"`S c #fefefe",
"`T c #a68d65",
"`U c #76a29a",
"`V c #d8beb7",
"`W c #667d73",
"`X c #75c192",
"`Y c #44562c",
"`Z c #7e5b4c",
"`0 c #553123",
"`1 c #609f5b",
"`2 c #bbc6bb",
"`3 c #a17577",
"`4 c #603420",
"`5 c #67dfba",
"`6 c #373633",
"`7 c #714c36",
"`8 c #bfbdb7",
".` c #3cb069",
".. c #84ddb4",
".# c #7dd090",
".a c #3e613c",
".b c #86726c",
".c c #a28e83",
".d c #b5ccb8",
".e c #7f5236",
".f c #b6aaa2",
".g c #89a7ac",
".h c #94bfc5",
".i c #a17e58",
".j c #bb996c",
".k c #936a6a",
".l c #7bc197",
".m c #46c174",
".n c #828062",
".o c #d0beb8",
".p c #72b470",
".q c #78dab8",
".r c #967a5b",
".s c #986247",
".t c #ddc6bd",
".u c #68b384",
".v c #7f4c34",
".w c #73a8aa",
".x c #ba9b7f",
".y c #6dd08d",
".z c #a87f53",
".A c #c4cbc3",
".B c #b48e75",
".C c #82e1c3",
".D c #44c679",
".E c #353230",
".F c #3e5a2c",
".G c #708281",
".H c #37241b",
".I c #78c0c7",
".J c #8edfba",
".K c #915d41",
".L c #6db3b8",
".M c #969b7a",
".N c #c1c2b9",
".O c #1e1612",
".P c #69e1c9",
".Q c #c3aaa3",
".R c #683a2b",
".S c #4a7a44",
".T c #6f9b6d",
".U c #493222",
".V c #56482c",
".W c #75d899",
".X c #a0bec4",
".Y c #57696c",
".Z c #82be9e",
".0 c #93bd99",
".1 c #ae8578",
".2 c #97846d",
".3 c #784531",
".4 c #c5c6bf",
".5 c #485a3f",
".6 c #ad8664",
".7 c #7f7c7b",
".8 c #99664c",
"#` c #78deac",
"#. c #734d4a",
"## c #c79e94",
"#a c #362c27",
"#b c #81b5bd",
"#c c #7ca672",
"#d c #d0ccc8",
"#e c #3bb872",
"#f c #56ba68",
"#g c #3d4c31",
"#h c #80a88a",
"#i c #794a31",
"#j c #969795",
"#k c #885538",
"#l c #b5b6b3",
"#m c #816b66",
"#n c #8d6860",
"#o c #b38e65",
"#p c #875c5e",
"#q c #595245",
"#r c #b49a94",
"#s c #79c389",
"#t c #82c2a2",
"#u c #5c797d",
"#v c #ab7d64",
"#w c #918f71",
"#x c #79e0ba",
"#y c #7d5353",
"#z c #563e34",
"#A c #70e7d0",
"#B c #cabbb6",
"#C c #66d08b",
"#D c #94aeb1",
"#E c #848a6e",
"#F c #b9a29a",
"#G c #ccb5af",
"#H c #a2817b",
"#I c #b18d86",
"#J c #89b292",
"#K c #2e1d18",
"#L c #73c277",
"#M c #613c2c",
"#N c #6ed79a",
"#O c #558a55",
"#P c #4cc978",
"#Q c #5b5c56",
"#R c #55ce89",
"#S c #83bec6",
"#T c #674e37",
"#U c #cac2be",
"#V c #83e6be",
"#W c #7eb686",
"#X c #655b55",
"#Y c #b27f69",
"#Z c #9d6b61",
"#0 c #97726b",
"#1 c #47b872",
"#2 c #78b6ba",
"#3 c #96a298",
"#4 c #59473f",
"#5 c #e5dbd6",
"#6 c #698e71",
"#7 c #b0c2c0",
"#8 c #7cb495",
"a` c #829996",
"a. c #d4c6bd",
"a# c #a36c6b",
"aa c #768755",
"ab c #88b7bb",
"ac c #a0816b",
"ad c #c6bdb5",
"ae c #9d6c50",
"af c #3b3c38",
"ag c #428a49",
"ah c #765c4c",
"ai c #723e2a",
"aj c #92cbc8",
"ak c #ab8269",
"al c #c6c2be",
"am c #4ab062",
"an c #be9a92",
"ao c #546842",
"ap c #768983",
"aq c #48a861",
"ar c #483938",
"as c #8e6e44",
"at c #3d9d57",
"au c #573729",
"av c #d0aca4",
"aw c #4fa965",
"ax c #947a73",
"ay c #875b41",
"az c #78e6cc",
"aA c #94918d",
"aB c #71554e",
"aC c #696965",
"aD c #6fbac0",
"aE c #bb8e88",
"aF c #494649",
"aG c #93b293",
"aH c #6ad39a",
"aI c #7c5544",
"aJ c #a99a8b",
"aK c #ba8576",
"aL c #c2c2c0",
"aM c #82c4c9",
"aN c #6a3e2d",
"aO c #70e2cb",
"aP c #70dbaa",
"aQ c #5b625f",
"aR c #af8489",
"aS c #62ce87",
"aT c #7f966b",
"aU c #794b37",
"aV c #ddccc7",
"aW c #868686",
"aX c #7a4645",
"aY c #84cbd2",
"aZ c #6f453d",
"a0 c #965e6e",
"a1 c #562a25",
"a2 c #8eead3",
"a3 c #644248",
"a4 c #80e9d2",
"a5 c #8ae9d3",
"a6 c #45c27f",
"a7 c #3ec681",
"a8 c #000000",
/* pixels */
"`S`S`S`S`S`S`S`S`S`S`S`S`S`S`S`S`S`S`S`S`S`S`S`S`S`S`S`S`S`S`S`S`S`S`S`S`S`S`S`S`S`S`S`S`S`S`S`S`S`S`S`S`S`S`S`S`S`S`S`S`S`S`S`S`S`S",
"`S`S`S`S`S`S`S`S`S`S`S`S`S`S`S`S`S`S`S`S`S`S`S`S`S`S`S`S`S`S`S`S`S`S`S`S`S`S`S`S`S`S`S`S`S`S`S`S`S`S`S`S`S`S`S`S`S`S`S`S`S`S`S`S`S`S",
"`S`S`S`S`S`S`S`S`S`S`S`S`S`S`S`S`S`S`S`S`S`S`S`S`S`S`S`S`S`S`S`S`S`S`S`S`S`S`S`S`S`S`S`S`S`S`S`S`S`S`S`S`S`S`S`S`S`S`S`S`S`S`S`S`S`S",
"`S`S`S#daWaWaWaWaWaWaWaWaWaWaWaWaWaWaWaWaWaWaWaWaWaWaWaWaWaWaWaWaWaWaWaWaWaWaWaWaWaWaWaWaWaWaWaWaWaWaWaWaWaWaWaWaWaWaWaWaWaWaW`z`S`S",
"`S`S`SaW.5.G#X`O#.`D`s`#`B`s`D#mas#TaI`Z`Z`Z`Z`Z`B`Z`B`Zah`Z`B`Zah`Zah`Z`Zahahas`B`D`o.U.O`I`I.O#K.H`d.U`0auau#MaN`o`7`7`7`D#a`8`S`S",
"`S`S`SaW.Y`Was.s.s`R.i.x#oas`#.j.6#v.z#v#v#v#v#Yak#I.1akak.1ak#v#v.i#v#v#v.z.z`T.r`#`R#z.a.w`x`t#a`d`4aN`O.3.e.e#k#kay.K`R.s`0#l`S`S",
"`S`S`SaW.H#a#n.s.s#k`R.j#o.ias`y.z#v#v#Y#Y#Y#Y#Y#vak.1acac#v#v#v#v#v.6.6#v#v.z.6as`Ray#q`U.L.LaD`U.5`6#z`o.3#i#k.e#k#k#k.K.K`0#l`S`S",
"`S`S`SaW#K.H`R.s.K.e.K#o#o.z.iak.z#Y.B.1.6.6ak#vakac.iakac.6ax.i#vak.1`T`C`C.2`s`DaIas.G.w.L.L.L.L.L#6ao#z`o`7.3.v.v.v#k#kay.U#l`S`S",
"`S`S`SaW#.aX.k.8.K#k.8#o#o.6#o`R#YaK#o.B.B.B`T.cak.2ax.2.r.n.2#w.M#haGaG.0.Z.p#caT`J`J`x.w.L.LaD.LaD.h.h`UaC#q#z`O.3.3#i.v.v`0#l`S`S",
"`S`S`SaW#z.Rae.8.K.e.z.6.j.z.6`#.2.c`C`aaGaG.0.0#J#J#8#8#t#saY`P....#xaz#V#V#V#V#Waa#6#8.L#S#b.g#2.L.I.IaM.h.0.g`WaQ#q`oai.3.H`8`S`S",
"`S`S`SaW#y#nae.8.K.e#o.z.z`y`J`n#t.J.J#x.q.q.q#xaO#x.P`5aO.P#A#A#Aa4aza4aza4a5`m#t#6#c#W#u#4a3.f.g.IaDaD.IaYaM#S#S#S.haAar`d#K#l`S`S",
"`S`S`SaWaZae.8ae.say#o`T`y`y#c`P`m#Va5az#VaO#A#A#A#A#A#AazazaOaz#Aaza4a4az#Va4a5#V`f.#`XaA`4`Ga1aC#SaY.I.I#S.I.IaYaM#SaQarar.H`8`S`S",
"`S`S`SaW.Ra#.8ae.s#i`B`#`C#c#s.Ja2a2a4azaOaO#AaO.P#AaOaOaOaO#A#AaO#AaOaza4aza4#x#xaP#N`X#3#.aXaR.b.waY.I.IaMaM.I.IaM.gaCaCax#q#l`S`S",
"`S`S`SaW.vaeaeae#kai#M.Uaa#W`Pa2a2a5az.P`5.P.P.PaO.P.P.P.P#A.P.P.P.P.P.PaOaOaO#xaPaP#C`X#ja0`3#y#.a`.I.I.IaMaMaMaMab#3ax#I.c#q`8`S`S",
"`S`S`SaWaUaeae.8#kaN`d.Hao.#.##V#Va4#A`5`5`L`5`5`5`L.P`5`L`L`5`L`L`L`L`L`L`L`5#NaHaH#C`XaCaB`3.ka0aA.I.I.IaM#S#S.h#3.2aRaEan#4#l`S`S",
"`S`S`SaW#.aeae`R#k.R`d.H`W`i..#`#`#``5`r#R`r#R#R#R#R#R#R#R#R#R#R#P#R#P#R#R`r#R#R`F#RaS.uaWaE#r#raEaA`baMaMaM#S.h.haW#0aKaKaKa3`8`S`S",
"`S`S`SaW`Zaeae.K.v.R`d.H`a`i.W#N#CaH`r#P#P.D#R#R#P#Pa7#P#P#P#P#P#P#R#P#P.m.D.D.Da6`F`F.uaWav#r`3aR#jaM#S#S.X#7.A.4#B#raK#v`Kau#l`S`S",
"`S`S`SaWaI.8.8.K.3`4`dau.f`i.y#C`l`l.m#P.D.Da7a7.D#P#P.D.D.Da7#Pa7a7a7.m.m.ma6.m.m`e`Q`X`paV`VaR.b#D#S.IaM#7#d#G.Q.QaE#I#Z`K#z`8`S`S",
"`S`S`SaW`Dae.s#k#i`4`das`E`w#L`l`h`h.m`e`e.m.D.D.Da6a7a7a7.Da6`ea7a7a7a6`e.m#1#1#1#1awab`pa.#r`3a3.c`p`p#D#d.o.c.Q###r#v`3#y.H`8`S`S",
"`S`S`SaW.e.8.K.e.3`4`0.f#F`2#L`h#P#P#1.m`e`e`ea6`e`e`e`e`e`e`e`e#e#e#e#e#e#e#e.`.`aw`x#3.o.Q#za3a3a0#I#r#U.4#F.1#######0#p#.#a#l`S`S",
"`S`S`SaWaIae#k#iai`4`0.t.f.N#W#fam.m#1#1#e#e#e#e#e#e.`.`.`.`.`.`.``H`H`H`Haqaqaq`kaoaW#F###p`0#M`B#0aR#B#5aVavaB.B##anaE.1#IaB#l`S`S",
"`S`S`SaW`s.s.3.3ai`4.R`V.Q.Q`w`1awaq.`#e.``H`Hatatat`Hat`Hatat`c`c`cag`c`cagag`.`Y#qaRaE#I#0#p`3a0`3av.t.t#GaB`0axanananan#r#z#l`S`S",
"`S`S`S.naIay.3#iai`4aN`V.Q.z.4`w#O`1`k`katagagagag.S.S`..a.a.a`Y#g`j`u`6`u`6`u.U#z`7#I.cax#p.ka##Z#F#d#G#G#0#Kau#naRaEaR.B#FaC#l`S`S",
"`S`S`SaW`Day`O#iai`4`B.o`Eas.raJ.V#z`j`Y.F#g`u`u`u`Y.V`7`7.e.v.v`7`7`Oauauau`0#M#Mah#G.Q.f.f#Fanan.Q.oa..Q.b#q#X.b###F.Q`V#GaC#l`S`S",
"`S`S`SaW`s`R`7#i`O`4.2.o`E`y.2ax#m`Oai`4auauau`O.3.v#i`7#i`7aUaI`7.3`OaN#MaN.RaN`Oah#5#5#5#5#5#5aV#U#Gad`E.naA`E#B`V#G`V.t#F#m#l`S`S",
"`S`S`S.n`D.8`s`7aN`4`E.4`8#Ba..N#F`D`7#i`O`O.3#i.v.3#i.vaU.v#i.3.3`7`OaN.R.R#M`OaZ#T#F#l.f.f#l#l`8`8aL`8aL`8`w`E#G`V#G.Q.c#r.7`8`S`S",
"`S`S`SaW`D`RaI`7#M`D#B.N.N`8ad`8`8ah#i#i.3`O.3.3.3.v#iaU.eaU#i.3`O`OaNaN.R#MaN`oaZaB.2#l#l#l`8al#Ual#UaLaL`8`8aLal.4#U`E#U#d.7#l`S`S",
"`S`S`S.n`D`R`D`oau.cad`8`8aL.4.Nad.b`7#i.3.3.3.3.v.3aUaUaU#i.3.3aiaiaN.R.R.R#M`OaX#.`B`E#l.4aLaLalad.4#U.4.4.4aLadalal.4aLaLaQ#l`S`S",
"`S`S`SaW`7ay`DaNauad`8.N`8.N.4.Nal.c`D#i.3.3.3.3.v.3#i.v#i.3`O.3aNaiaNaNaNaN.R`O`7#.#y.f`2aLaL.4.4#U#U#U#U.Nal.4aLaLalaL`8`8aC`8`S`S",
"`S`S`SaW#Tay#i`oahal.NaL.N.4aL`2.4aJ`D.v.3.3.3.v#i.v.v.v.3.3`Oai.3`O.3`O.3.3aNaNaZ.eahaJ.Aal`8`8.4.4.4aL.4.4.4alaLaLaLaL.4aLaC#l`S`S",
"`S`S`SaW`7`s`O`o.2`8`8`8aL`8.N`8#laJ`Z.e#iaU.v.e.eaU.v.v.3.3.3.3.3.3.3.3aUaZ`O`O`7`Dah#3.d`2.4`8aLaL`2`8alalaL#Ualal.4`2`2aLaC#l`S`S",
"`S`S`SaW`O#k`7`o#F`8.N#l`8.N`8#7.N.c`Z.e#i#i.e.e.e.eaU.v.vaX.v.v.vaU.3#i`O.3aZ`oaZ`7`q#h#W#l`2aL`8.N.4`2.4.4.4.4aL`8`8alaLaLaC#l`S`S",
"`S`S`S`p.E.E.E`6afafafafafafafafaf`6`6`6`6.E`6`6`6`6`6`6.E`6.E.E`6`6`6`6`6.E.E`6.E.E`6afafafafafafafafafafafafafafafafafafafaf#d`S`S",
"`S`S`S`S`S`S`S`S`S`S`S`S`S`S`S`S`S`S`S`S`S`S`S`S`S`S`S`S`S`S`S`S`S`S`S`S`S`S`S`S`S`S`S`S`S`S`S`S`S`S`S`S`S`S`S`S`S`S`S`S`S`S`S`S`S`S",
"`S`S`S`S`S`S`S`S`S`S`S`S`S`S`S`S`S`S`S`S`S`S`S`S`S`S`S`S`S`S`S`S`S`S`S`S`S`S`S`S`S`S`S`S`S`S`S`S`S`S`S`S`S`S`S`S`S`S`S`S`S`S`S`S`S`S",
"`S`S`S`S`M`M`M`M`M`M`M`M`M`M`M`M`M`M`M`M`M`M`M`M`M`M`M`M`M`M`M`M`M`M`M`M`M`M`M`M`M`M`M`M`M`M`M`M`M`M`M`M`M`M`M`M`M`M`M`M`M`M`M`S`S`S",
"`S`S`SaW`I`6`I#K.H#a.H`6#a#a.H.E#a.H.H#a.H#a.H#a#a#a#a#a#a#a#a#a#a.H#a#a#a#a#a.E#a.H#K.O``````````.O.O.O.O.O#K#K#K.H#K.H.H.H.OaL`S`S",
"`S`S`Sap#u.g.r.Kae`R.z.j#o`#.r.j#o`##v#v#v#Yak.6.1aKakakak#Y.6#Y.i#v#v#v#v.i.z#o.6.ray.Vaf#u#u`6.Ha1`4ai.3#i.v.e#k.K`R`R`Raeau#l`S`S",
"`S`S`SaWaFaF#n.s.s`Ras.j#o.ias`T.6.z#v#Y#v#Y#v#Yak.1ak#Hac#v#v#v#v.iakak#v.z.z`T`#`#.K#z#6.L.L.w.Y`6`0#M`O#i.v.e.e#k#k.K.K.K`0#l`S`S",
"`S`S`SaW``#K`R.s.s.e.K.j.6.zae.6.z#vaK#Y#Y#Y#Y#vakakakak#v#H#v`K#v#Yak.6#o.6.6as`sayasaC.w.L.LaDaD`x.a`u.V`o.v.v.v.v#k#k#k.K.U`8`S`S",
"`S`S`SaWa3.R.8.s.K.e.s#o#o.6.6`##YaK#o.B.B.6.6.6acac.racac.2.2ac`y.c#w`n#3aTaa`t`s`sas`x.w.L.L.L.LaD.h.g`JaF`o`o.3.3.v.v.v#k.U#l`S`S",
"`S`S`SaW#zaN#Z.8.K#k`##o.j.z#oas.i.6#oaJ.MaJ.M.M.M#E#EaTaTaT#h.0`b`f.......J#V`P.Zaaaa.w.LaD#b#2aD.L.I#S#b.gapaC#q#4`o.3.3.3`d#l`S`S",
"`S`S`SaWaB#.ae.8#k.v#o.z`T.zas.naT.0`b`f`P`f`P.q.C.q.q.q#x.q`5aO#A#xaza4a4#Va2a2#taa.T#W`Uap.7`p#b.IaDaDaYajajaMaba`a`.b#4ai.H`8`S`S",
"`S`S`SaW#y`Kaeae.say#o.z`T`yaT`i.J..az#x#xaOaOazaz#A#A#A#Aaz#A#A#Aa4a4a4a4a4a5a5..#W#s`X.7`d`G#p.7#S.I.IaDaMaM.I.IaY`b#u`I.H.O#l`S`S",
"`S`S`SaW`0.s.8aeae.e.i#o`yaT#L.Ja2a2a4a4aOaz#A#A#A#A#AaOaOaOazaOaO#Aazaza4az#Vaz.C.q.y`XaW#y`G.k#Q#baYaY.IaMaD.IaMaM#baQ#X`B#4`8`S`S",
"`S`S`SaW#kaeaeae#k.3.V`o`n#J.#`ma2a2a4aOaO.P.P.P.P.P.P.P#A#AaOaO#AaO.P#AazaOaz#x#`.WaH`X#3.R`3.k.k`U.I.I#2aMaYaYaMab.g#max.c#q#l`S`S",
"`S`S`SaWaZ.8aeae#kai.U.Hao#s.##Va2a4#A`5`5`5.P.P.P.P.P.P`5.P`5`5`L`5`5`5`5.PaO`5aPaHaS`X.G`3`3.k#.#j.I.IaMaM#SaMaM#DaJ#H#I#r#q#l`S`S",
"`S`S`SaW.vaeae.s#kaNa1.H`t`i..#`#V#xaO`L`L`r`L`r`r`r`r`r`r`r`r`r`r`r#R`raS`r`raS#R#C`F`X.7#naR`3`3aWaMaM.IaM#2.habaA`3#YaKaE`o#l`S`S",
"`S`S`SaWaIaeae.s.v#M`d.HaT`i.W.WaP#N`r#R#P#P#R#R#R#P#P#P#R#P#P#P#P#P#P#P#P#R.D`F.D#R`F.uaW.Q#I#Ian#jaj.IaM`b.X#7.A#j#HaE#Y#Y#M`8`S`S",
"`S`S`SaW`Zae.8.K#i`4`d`d`p`i.W#CaSaS#P#P#P.D.Da7#P#P.D.D.D#P.D.D.D#P#P.D.m.m.Da6a6`h`Q.uaA.t`V#H`3#3#S.I#S.X.A`8#G#UanaR`3`3#z#l`S`S",
"`S`S`SaW`D.8.8#k#i`4`d`D`E.0#L`l`l`h.m.m`ea6.D.D.D.Da7`e.D.D.D.Da7a7.Da6a6.m.m#1#1`e`Q.Z`paV`V#H#y#3#Dab.h.4aV#F###FaE.1#Z`R.U#l`S`S",
"`S`S`SaW`Dae.s#k.3`4a1`C.Q`w#L`h#P.m.m`e.ma6a6`ea6a6a6`e`e`e`e`e`e`e`e`e`e#e#e.`#1am.w#D`E#GaB#.a3.kaJ#F#laL.f#I#######Z#n#.#K#l`S`S",
"`S`S`SaW`D.8#k.v.3`4`4`V.f`v#W#f`h.m#1#1#e`e#e`e#e`e#e`e#e#e#e#e#e.``H.`.`.`.`aqaq#OapaJ#Gax`0au#y#0aR#F#5aV.Q.k.x####aR#Z#0#4`8`S`S",
"`S`S`SaW`s.8.v.vai`4`4.tav`E.0.pam#1#1#e#e.`.``H`H`H`H`H`H`H`Hatatatat`catatat#O`.#q.2anan.kaZ#pa0a#an.taVa..1au.1ananananan#4#l`S`S",
"`S`S`SaWaI.s.3.3ai`4#M#G#F`Cad#c`1`kaqaq`Hat`c`c`catat`cagagag`g`g`g`g.a.a.a.F#g`u`7#I#I#H#n.ka#a##H.o.o`V#r.H`0.kaEaEaEaE#r#q#l`S`S",
"`S`S`S.n`say`O#iai`4`D`V#G.r.j`w`Yao`t.S.S`.`g.a.F`Y`j.V#q#4#T#q.V#zau.U.U.U`0au#M#.#I.c.b.b.k`3axav#d#U.Q#X#aaFah#I#I#H.Q#GaC#l`S`S",
"`S`S`SaW`Day#i`7ai#M`##G`E.b`saxahaNau.U.U#a.U#z`7.v`7.v#i#i.v.e.e`7`O.Rau#M.RaNa3ah#5`z`z`M`z`z#5#G#G#B.QaAaAaJ.Q`V.taV.t.QaC`E`S`S",
"`S`S`S.n`Das.e`7`O`0#F.4`E.Q#U.f.c`7#i`OaNaNai#i#i#i.v#i.vaUaUaU#i.3`O`OaNaN#MaNaZaBadad`E`E`E`E`8#B#Uad#U#j.M.f`E#G#G#G#F.c.7#l`S`S",
"`S`S`SaW`DasaI`7#M`o#B.N.N#Uad`8`E`D`7.3.3`O.3.3.3#i#iaUaU#i.3`OaZ`OaNaN#M.RaN`OaZ`DaJ#l#l.f#l`8aLalalaLal.N.4`8#U.o#G.Q.Q#5.7`8`S`S",
"`S`S`SaW`7`R.e`oau.bad`8.N`8al.Nad`B.e.v#i.3`O.3.3.3#iaU.v#i#i.3.3`Oai.R.R`4#M`O`7#..b`E#l.4aLalal`8adadal.4`8al#U.4.4aL`8#laC#l`S`S",
"`S`S`SaW`7`R`D`oau.f.N.N.N.NaL.N.Nax`D.3.3.3.3.v.v#iaUaU#i.3.3aiaiaNaN.RaNaN.RaNaX#.`Z.f`8.4aLalal.4a..4alaL.4aLaLaLaL.4.4`8aC#l`S`S",
"`S`S`SaW#Tay`7`o#T#U`8aL`8aL.4`2.4aJ`D.v.3.3.3.3.3.3#i.v.v.3ai`OaN`Oai`O.3`OaN`OaU.vaB#F.AaL`8aL.4aL.4al.4.4alalaL`8aLaL`8aLaQ`8`S`S",
"`S`S`SaW`7ay#iaN.bad`8`8aLaLal.N`8aJ`s.e.3#i.v.e.e.v.eaU.3.3.3.3.3.3.3`O.3.3aNaN`7#yah#j.d.4alaL.4aL`2.N.4.4.4.4alalal.4`2aLaC#l`S`S",
"`S`S`SaW`o#k`7#M#r`8.N#l.N`8`8#7`8.c`ZaU#i#i.e.e.e.e.v.v.v.3aX.v.v`7.3.3#i`OaZ`o`7`7#X`a.0#7`2`8aL.4.4`8aL.4#U.4.4`8aL.4.4.4aC`8`S`S",
"`S`S`S#E.H.H.H.H#q#Q#Q#QaQ#Q#Q#Q#Q#4#a#a.H.H`d.H.H.H.H.H.H.H.H.H`d.H.H.H.H.H.H#K.H.H`6#g.5#qaQ#Q#Q#QaQ#Q#Q#Q#X#QaQ#Q#Q#Q#Q#Q.E`8`S`S",
"`S`S`S`MaL.4aL.4.4al.4aLaL.4aLaL.4aL.4#Ualalal.4.4.4al.4#U#UalalaL.4.4alalaLaL.4alal`2`2aLaL.4aLaLaLal.4.4.4.4alalaLaLaLaLaL.4`M`S`S",
"`S`S`S`S`S`S`S`S`S`S`S`S`S`S`S`S`S`S`S`S`S`S`S`S`S`S`S`S`S`S`S`S`S`S`S`S`S`S`S`S`S`S`S`S`S`S`S`S`S`S`S`S`S`S`S`S`S`S`S`S`S`S`S`S`S`S",
"`S`S`S`paA#jaA#j#jaA#j#jaAaA#jaA#jaAaA#jaA#jaA#jaA#jaA#j#jaAaA#jaAaA#j#jaAaAaAaA#jaA#jaA#jaA#jaA#jaAaAaAaAaA#jaAaA#j#j#j#jaA.f`S`S`S",
"`S`S`S#a#u.Y#4aN`D#Tah#m`D`s#T`Bah#T#.aB`DaB`DahaBahaBaBahaBaBaBaB`DaBaBahaBahah`s#Tar.H.O`I.O.O#K.H`d.U.U.Uauau#M#M`o`o#T#T`I`S`S`S",
"`S`S`S`6apaW.s.K`R`R#o.j.i.r.r.j.6`K#v#v#v#v#vak.B.1.1#vak.1.6ak.i.i#v#v.i.6.i`T`#`#aI`6#u.w#6#g#a`0`4`O.3#i.e#k#k.Kay.K.s.8`I`S`S`S",
"`S`S`S`Iar#z.k.s.Kay.i.j.i.zas`T.z#v#Y#Y#Y#Y#Y#vakak#Hacak#v#v#v#v#v.6ak#v.z.6.i`Bae`saQ.w.L.L.L#uafar#M`O#i.e.e.e#k#kay.K.s#a`S`S`S",
"`S`S`S`I.Hau.s.s.K.v`#.j.z.6`#.zakaK.6.1#Y#Y#Yak#v#vacakac.i`3#v#v.6.1`T`C`C`#`s.e`R`B`U.L.L.L.L.L.w`t`j.V`o.3.v.v.v#k#k#kay`I`S`S`S",
"`S`S`S#a#p#y.8.s.K.v.z#o#o#o.i`#aKaK.B.j.B`T`T.c.2.2.r.2.2.n.n#w.M`a#JaG.0.p#c.T`J`B`W.w.w.L#2aDaD#S`bab.G#Q#z`o`O.3.3.v.v#k.H`S`S`S",
"`S`S`S.Eau.Kae.s#kay#o#o#o.z.zas.2`C.M`aaGaGaGaG#J#h#h#8.Z#t`f`f#x#x..#x...C.C.W#caa#c.L#2#S#b.L#2aD#S.I.h.haGapaC#q#TaNai.3`I`S`S`S",
"`S`S`S#a#0#Zas.s#k`R#o.z.z.2`J#J`i`f...q`P.q.q#x#xaOaO`5aO.P#A#Aaza4a4a4a4a4a2.J#c#O#W.w#Q#4ax`p#b.IaDaDaYaYaY.I#S.h#DaC.U`0`I`S`S`S",
"`S`S`S#aa#ae.8ae.sas.j.z`y`n#W.J.Ca5a4azazaO#A#A#A#A#AazaOaz#A#Aaza4#Aa4a4a4a5a4.J`A.y#8ax`G`G`d.gaMaY.IaD.I.I.IaYaM.g#garar#K`S`S`S",
"`S`S`S`I.K.8aeae.K`O.2.2`n#c`P`ma2a2a4az#A#A#A#A#A.PaOaOaOaOazaO#A#A#Aaza4.Ca4.C#`.W.y#8#ja1a0aRaC#SaY.I#S#S.IaM.IaM.GaC`B.c`6`S`S`S",
"`S`S`S`da#aeae.s.v`o`4.V#c#L`Pa2a2a4aO.P`5.P.P.P.P.P.P#A#AaO.P.P.P.PaOaO.PaOaO#x#N.yaSab.b#yaRa3#m#2.I.I.IaMaMaMaM#DaAax#IaJ#a`S`S`S",
"`S`S`S#aa#.8ae.s.vau`d#K#J.#..#Va5az.P`5`L`5`L.P`5`L`L`L`5`L`L`L`L`L`L`L`5aP`5#NaH.y.y#JaB#yaR#p.k.gaDaMaMaY#2#S`b#j`3#I#I#r.E`S`S`S",
"`S`S`S#aaeaeaeay#i`4.H#a#W`P..#`#`#``5`r#R`r#R`r#R`r`r#R#R#R#R#R#R#R#R#R#R`r#R`F`FaS`F`U.caR#F#IaR.gaYaM.I#S.h.X.X#m`3aKaEaK#a`S`S`S",
"`S`S`S.E`Kaeae#k.3`0`d`u#7.#.W#N#C`r#R#R#P#P#P#P#P.D#P#P#P#R#P#P.D#P#P.D.m#P.D.Da6`F`h.T.cav#H#I#H#DaM#SaM.X#7.4.4.Q#I#Y#v`K#a`S`S`S",
"`S`S`S.E`K.8.s#kaN`4.H`B`w.##C#C`l`l.D.D.Da7#P#P#P#Pa7.Da7.D.D.D.D.D.D.m.ma6.Da6a6`Q`h.w#BaVav`3.7.X#S.I.h.4#d.Q.Qav#I#va#a##a`S`S`S",
"`S`S`S#aae.8.s.eaia1`d.j`8.0`l`l`h.m.m.m.ma6a6a6a6.Da7a7a7a7`ea7a7a7a7a7.m#1#1#1#e`Q.u#D`8`V#I#yah`p`p#D.X#d#Fan#Fav.1`3.kaI`I`S`S`S",
"`S`S`S.E`K.8#k.vai`4`o`V`E.0#f`h`h.m.m#e`ea6`e`e`e`e`e`e`e`e`e`e`e#e#e#e#e#e#e.`am`k.g`p.o.c`0a3#.ax#I.f#d`E#F#I##.Q#I#naIa3`I`S`S`S",
"`S`S`S#a`K.s.v#i.R`0as.t#F`v.p#f#1#1#1#e#e#e`e#e#e#e.`.`.`.`.``H.``H`H`H.`aqaqaq#Oao.cav#Ia3`0#M`3`3aEaV#5.t#H#nan##aEaE.1aE`6`S`S`S",
"`S`S`S.E`K#k.3.3aia1as.o.ja.#cawamam#e.`.``H`Hatatat`H`H`Hatat`c`c`cag`c`cagag`g#gah#ran`3.ka0a#.kaR`Va..t##`0aU#I##ananan#I#a`S`S`S",
"`S`S`S.Eae#kai#i.R`4.i#BaJ.j.NaT`k`k`katatag`cagagag`.`.`g`g.a.5`Y`j#g`u`u`uaf#z`o#p#I#H.b#n.ka#`3#G#U#G.QaB#K`o`3aE#I#I#r#F`6`S`S`S",
"`S`S`S#a`#.e.3.3.R`0#r#G#F`B`C.2.V.V`Y.5.F#g`u`u`j`j#T#T`7aUaI`7`7aZ#M.Uauau`4#za3ax#G.f#F#r#IaEan#Ga.a.aAahaFahax##an#G#G.oaf`S`S`S",
"`S`S`S#a`##k`7#i.R#M`E#B#F.r.nax`7`OaNauauau`o`O.v.3.3aUaU#iaU#.`7aZ`O.R#M#M.R`O`o.c`z#5`z`z`z#5a.#G.o#G.f`W`pad#B`V`V`V.o.faf`S`S`S",
"`S`S`S.Eae`B.e`7#M`Z#U.N#la.#Uad.b`7#i`Oai`O`O.v#i.vaUaU#i#i#i.3#i.3ai`o.R.RaN`OaZ#m#l#l.f`p#l`8`8aL`8.N`8#l`E`E#B#G#G#FaxaVaf`S`S`S",
"`S`S`S.Eaeay`7aNauacad.Nadadal`8aJ`7aU#i.3`O.3.3.3#iaUaUaU#i#i`O`O`OaN.R#M#M#M`o`7ah.f`p#l`8`8`8al#Ual`8.N`8.Nal#U#U#B`E#d#5af`S`S`S",
"`S`S`S#aae`s`7`oauad.N`8aLalaL.N.faB.v.3.3.3.3.3#i.vaU.v.v#i.3.3aiaN.R.R.R.R`OaZaUaB.2`8`8aL`8aLalaL#U.4#U.N.Nadal.4.4alaL`8af`S`S`S",
"`S`S`S.Eae`Z`7#M`Bad.N.N.NaL.4`2al`BaU.3.3.3.3.3.3.v#iaU.3.3aiaiaN`OaNaNaNaNai`OaU#y`Bal`2.4al.4.4al#Ualal.N.4al`8aLalaL`8`8af`S`S`S",
"`S`S`S#a`R.e`o#M.caLaL`8aLaL.4.4al#maI#i.3.3.3.v.v#iaU.v.3ai.3.3aiai.3`O.3`OaN`OaU#yah.4`2aLaLaLal.4.4.4.4.4.4aLaL`8aLaLaLaL`6`S`S`S",
"`S`S`S#a`R.e`7`o.Q`8`8`8.4`8`8`8`8.b`s.v.v#i.e.e.v.e.v.v#i.3.3.v.3.3.3aZ.3`OaN`O`7`D`B.X.dalaLaL.N.N.N`8.4aLal.4.4al`2.4`2aLaf`S`S`S",
"`S`S`S#aay.e`Oah`8`8.N#l`8`8#7.N`8.kaIaU#i.v.e.e.e.vaUaU#iaXaU.v.vaU.3#i`OaZ`o`o`7`D#E.T.0`2.N`8aL.N.N.4al.4.4al`8`8`8aLaL.4`6`S`S`S",
"`S`S`S#q`I`I`I#a`6`6afaf`6`6`6`6af#a#a`I`I#a#a`I#a#a#a`I`I#a`I`I`I`I#a`I#a`I#a`I`I`I`6.E`6`6afaf`6af`6af`6afafaf`6af`6af`6`6aF`S`S`S",
"`S`S`S`S`S`S`S`S`S`S`S`S`S`S`S`S`S`S`S`S`S`S`S`S`S`S`S`S`S`S`S`S`S`S`S`S`S`S`S`S`S`S`S`S`S`S`S`S`S`S`S`S`S`S`S`S`S`S`S`S`S`S`S`S`S`S",
"`S`S`S`S`S`S`S`S`S`S`S`S`S`S`S`S`S`S`S`S`S`S`S`S`S`S`S`S`S`S`S`S`S`S`S`S`S`S`S`S`S`S`S`S`S`S`S`S`S`S`S`S`S`S`S`S`S`S`S`S`S`S`S`S`S`S",
"`S`S`S`S`S`S`S`S`S`S`S`S`S`S`S`S`S`S`S`S`S`S`S`S`S`S`S`S`S`S`S`S`S`S`S`S`S`S`S`S`S`S`S`S`S`S`S`S`S`S`S`S`S`S`S`S`S`S`S`S`S`S`S`S`S`S"
};
