/* XPM */
static char *_1_frame_3[] = {
/* width height num_colors chars_per_pixel */
"    66   100      256            2",
/* colors */
"`` c #260a11",
"`. c #477440",
"`# c #897066",
"`a c #84b37d",
"`b c #fefefe",
"`c c #39a05a",
"`d c #44121e",
"`e c #96ac7a",
"`f c #446338",
"`g c #3dc37f",
"`h c #f8f8f8",
"`i c #8eeedb",
"`j c #8b8b70",
"`k c #5e1622",
"`l c #7ac2c8",
"`m c #b1afa8",
"`n c #6a6140",
"`o c #5a4932",
"`p c #b9c9bc",
"`q c #76a27e",
"`r c #a48d81",
"`s c #73c48d",
"`t c #82e8d1",
"`u c #7c6052",
"`v c #9f6e54",
"`w c #25403c",
"`x c #714632",
"`y c #b6b7b4",
"`z c #405628",
"`A c #65dfba",
"`B c #65a864",
"`C c #3e7e42",
"`D c #775849",
"`E c #3baf6a",
"`F c #92eedd",
"`G c #90e8cd",
"`H c #eacaca",
"`I c #81dea8",
"`J c #768562",
"`K c #63cb76",
"`L c #cfb8b3",
"`M c #99857b",
"`N c #a29e6e",
"`O c #82b792",
"`P c #926046",
"`Q c #58888d",
"`R c #7ac6ce",
"`S c #b9bfa8",
"`T c #745241",
"`U c #35573c",
"`V c #eeeeee",
"`W c #88766e",
"`X c #423326",
"`Y c #4dc578",
"`Z c #6b392d",
"`0 c #e0cbc3",
"`1 c #6ecc91",
"`2 c #55a999",
"`3 c #91cea1",
"`4 c #274a41",
"`5 c #79bdc4",
"`6 c #87b3b3",
"`7 c #9c7176",
"`8 c #714b38",
".` c #b28b73",
".. c #b3a297",
".# c #49884f",
".a c #5ad59e",
".b c #8e9c6a",
".c c #767361",
".d c #9cb0b4",
".e c #56a265",
".f c #60321e",
".g c #5a5a55",
".h c #86d39d",
".i c #54b072",
".j c #1e1216",
".k c #6de1bd",
".l c #dac8c2",
".m c #764a35",
".n c #a47e67",
".o c #3bb670",
".p c #4b9559",
".q c #4f4635",
".r c #ccb0a9",
".s c #996869",
".t c #c3beb9",
".u c #827d5b",
".v c #8c583d",
".w c #58d193",
".x c #363230",
".y c #645650",
".z c #a78473",
".A c #ae9266",
".B c #a37a64",
".C c #938a84",
".D c #2c2a25",
".E c #83bdc5",
".F c #64bc87",
".G c #518286",
".H c #cec8c3",
".I c #64c48a",
".J c #c6b8af",
".K c #4d412c",
".L c #63402f",
".M c #6de1cc",
".N c #bca298",
".O c #8b7a71",
".P c #6f614d",
".Q c #7aaa6c",
".R c #9cb292",
".S c #9f746e",
".T c #7ea596",
".U c #7d4234",
".V c #586442",
".W c #4ea256",
".X c #8d907d",
".Y c #805239",
".Z c #47bb72",
".0 c #7f6947",
".1 c #637759",
".2 c #4ecb79",
".3 c #645245",
".4 c #7b4d49",
".5 c #a06950",
".6 c #63cd90",
".7 c #c5aea8",
".8 c #beb8a0",
"#` c #774631",
"#. c #ac7b7b",
"## c #764e38",
"#a c #9b726a",
"#b c #53988f",
"#c c #4d2e20",
"#d c #976860",
"#e c #815741",
"#f c #6fd38b",
"#g c #77e5cf",
"#h c #cdc0ba",
"#i c #57a490",
"#j c #33403a",
"#k c #4aa666",
"#l c #5b805d",
"#m c #76422e",
"#n c #98bec5",
"#o c #68a67e",
"#p c #bf9790",
"#q c #88826c",
"#r c #82cd93",
"#s c #362a23",
"#t c #579683",
"#u c #e5ded7",
"#v c #401a22",
"#w c #c3c2b6",
"#x c #81c4cb",
"#y c #91c7cd",
"#z c #70956e",
"#A c #84ced8",
"#B c #6c402d",
"#C c #3abd77",
"#D c #959f8d",
"#E c #99755c",
"#F c #97674c",
"#G c #535651",
"#H c #59cb7f",
"#I c #7ec387",
"#J c #a9b899",
"#K c #4c666a",
"#L c #766157",
"#M c #a7988a",
"#N c #6bb484",
"#O c #bdbeb8",
"#P c #ab8586",
"#Q c #c4c6be",
"#R c #f3e5e3",
"#S c #2a3731",
"#T c #debfbd",
"#U c #664a46",
"#V c #613931",
"#W c #82605f",
"#X c #92e2be",
"#Y c #7c4e37",
"#Z c #947c75",
"#0 c #bbafa5",
"#1 c #505032",
"#2 c #60d7a2",
"#3 c #556365",
"#4 c #389851",
"#5 c #6f4d4f",
"#6 c #6a6460",
"#7 c #39a861",
"#8 c #45c470",
"a` c #c6a298",
"a. c #51ce85",
"a# c #8e8e88",
"aa c #75ba88",
"ab c #609270",
"ac c #bdc2bb",
"ad c #76c2c2",
"ae c #58744d",
"af c #815952",
"ag c #b6966e",
"ah c #72d89d",
"ai c #6e4138",
"aj c #578b5d",
"ak c #a8c2c6",
"al c #a5c9a2",
"am c #6e8e94",
"an c #383735",
"ao c #684733",
"ap c #9eab9b",
"aq c #5d2b21",
"ar c #bcb9b4",
"as c #523527",
"at c #865f4a",
"au c #72412e",
"av c #7a4a35",
"aw c #6fe6d1",
"ax c #352117",
"ay c #b28375",
"az c #a8a198",
"aA c #4f5a35",
"aB c #868685",
"aC c #80524a",
"aD c #613927",
"aE c #49b267",
"aF c #c2b9b2",
"aG c #b38d85",
"aH c #c2c2be",
"aI c #aa736a",
"aJ c #a17358",
"aK c #7fe2c6",
"aL c #53bc78",
"aM c #959695",
"aN c #4e7e82",
"aO c #44c57b",
"aP c #7ae0b8",
"aQ c #8ac6cc",
"aR c #4e9e7e",
"aS c #6a6a68",
"aT c #c6c2be",
"aU c #84695f",
"aV c #42bd72",
"aW c #63a898",
"aX c #5ac276",
"aY c #654e34",
"aZ c #b3968c",
"a0 c #43281b",
"a1 c #94a2a6",
"a2 c #9f7a77",
"a3 c #d6c0b9",
"a4 c #976e66",
"a5 c #e3d6ce",
"a6 c #7f463a",
"a7 c #96bd96",
"a8 c #000000",
/* pixels */
"`b`b`b`b`b`b`b`b`b`b`b`b`b`b`b`b`b`b`b`b`b`b`b`b`b`b`b`b`b`b`b`b`b`b`b`b`b`b`b`b`b`b`b`b`b`b`b`b`b`b`b`b`b`b`b`b`b`b`b`b`b`b`b`b`b`b",
"`b`b`b`b`b`b`b`b`b`b`b`b`b`b`b`b`b`b`b`b`b`b`b`b`b`b`b`b`b`b`b`b`b`b`b`b`b`b`b`b`b`b`b`b`b`b`b`b`b`b`b`b`b`b`b`b`b`b`b`b`b`b`b`b`b`b",
"`b`b`b`b`b`b`b`b`b`b`b`b`b`b`b`b`b`b`b`b`b`b`b`b`b`b`b`b`b`b`b`b`b`b`b`b`b`b`b`b`b`b`b`b`b`b`b`b`b`b`b`b`b`b`b`b`b`b`b`b`b`b`b`b`b`b",
"`b`b`b.HaBaBaBaBaBaBaBaBaBaBaBaBaBaBaBaBaBaBaBaBaBaBaBaBaBaBaBaBaBaBaBaBaBaBaBaBaBaBaBaBaBaBaBaBaBaBaBaBaBaBaBaBaBaBaBaBaBaBaB#R`b`b",
"`b`b`baB#6`##WafaC##`8##ao.L`#.P.0aS.1#z#i#iaW`2#i#i`2`2`2`2`2`2`2`2`2`2`2`2`2`2aW#iaWaWaWab#taj#6#v`d#v#3`Q#t`Q`Q`Q`Q`Q#bam`4ar`b`b",
"`b`b`baB`M#paI.s.U.5.5.5#F#Y.n.A#q.b#I`G`F`i`t#gawawawawawawaw.M.M.M#g.M.M#g#g#g`t`t`taKaP`I#f`sa#a6aq`7#6`6#A`R`5#x`5ad`l#x#K`y`b`b",
"`b`b`baB`#ay.s.5aI.5.5#F.v`x.Lao.b.Q.h#X`i`i#g.M.k.M`A.M.M`Aaw.M.M.Maw.M.Maw.M.M.M#g#gaPahah`1aaa##V#Paf.O.T`5`l`5aQ#AaQ#xaQ#3`y`b`b",
"`b`b`baBaU.SaIaC`P.5`v#F.Y#B#cax#l#I.h`t`t`taP`A`A`A.M`A.M.M`A`A`A`A`A`A`A`A`A.k`A`A.M.Mah#f.6ad.O`7#.#W#5a1`5`l`l#x`5.EaQa1#G`y`b`b",
"`b`b`baB`##P.s.saI.5`v#F.YaDa0ax#l.h`I`IaP#g.k#2.a.a.a.a.a.a.a.a.a.w.w.wa..w.w.w.6.w.w#H#H.6.6#N.u.s#P#.#.aBaQ`R`l.E.E.E#na#.q`y`b`b",
"`b`b`baB`##pay#.aJ#F.5`P#YaD#cax`e.hahahah#2#2a.a..2a.a..2.2.2.2.2a..2.2.2.2.2.2.2.2a.`Y`Ya.aX#NaB.7`raGaGa1#y#x#x#yak`p`p#M`o`y`b`b",
"`b`b`baB#Ea`#p#pay.5#F.v#`.fa0#c#J`3#f#f`K#H.2aOaOaOaO.2aO.2aOaOaO`YaO`YaOaOaO#8#8#8aO`Y.Z`YaL#NaM`H`L#.a2.d.E`5.Eak#QaF.J`L.3ar`b`b",
"`b`b`baB`#a`a`#p.B#F.5.v#`.fa0`u.8a7`K`K#H`YaV#8#8`gaOaOaOaO`gaOaOaOaO`gaOaOaO`gaV#CaV.Z.Z.Z.i.E`m.l`La2#5a1`6`6#n.H.l#pa`a`.3`y`b`b",
"`b`b`baB`u#p#paG.B#F`P.Y#`.f#ca`..`SaXaX`YaXaVaV.ZaV`gaOaV`g`g`g`g`g`g`g`g`g#C#C#C#CaE.oaE`2#oapaF`L.L#U#U`7aZ..`y.t.N#Pa`a`.yar`b`b",
"`b`b`baB.K.S.`.`aJ`P.v#Yau.faD.l...H.QaX`Y.Z.Z#C#C#C#C#C#C#C.o.o.o.o.o`E.o`E#7`EaE`E`E#7aR.#a#...r.s#casaf`7#P.7#u`0.7aUa`a`.3`y`b`b",
"`b`b`baB#c#W.s.`ay`Pav#`#m.f`8.l#0.8`a`BaEaE.o.o.o`E#7#7#7#7#7#7#7`c`c#4#4`c#4#4#4#4.paj`f#1`r#paZ.s#5.s.s`7a`.l.l`L`7#V#P#p#5ar`b`b",
"`b`b`haBa0.L`D.`.B.v#`avauaq`x`La``N`S.Q`B.W.W#k`c#4#4#4.##4.p#4.#`C`C`.`f`f`f`U`f`f`U.K.K#5aGaG#Z#W.s.5`7aGa3`L#h`r#vas#a#p.3`y`b`b",
"`b`b`baB`X#UaU.`.B.vauavau.fata3.7#Eagap#1aAae`.`.`f`f`U`z`z.q`o`oaY#5aY#U.L.L#ca0a0as.L.L`DaZ`r#Z#Za2`7a2.r.la3...y#s.q#WaG.3`y`b`b",
"`b`b`haB`#aU.B.`.B.v`x.m#Bas.z.8.J.0`u#Z`D#BaDas`X#cas#B`xavav#Y#Y.m#Y`T##`8au.L.LaDaD#V.LaU#R#R#R#R#R#Ra5`L`L`L.7.X#D`m.7#T#L`y`b`b",
"`b`b`baBa##h.A.B.B.0.Y###Bas.r#w.8aFa3#0`M`8`8`x#B#B#Bavavav.mav#Y.mav.mav`xau#B#B#B.Laiai`DaFarar`y`yarar#O.t.taHaM#D`m.7#h#L`y`b`b",
"`b`b`baB.X#0.n.BaJ`P`Tao.L`T#h#w.t.t#Q#O#0`Tav#`#`#m#`#`avavav#Y#Yav#`#mauau#B`ZaDaD.L#B`x#5az`y`m#0`y.taTaTaHaHaT#w.t.taT.t#6`y`b`b",
"`b`b`baB.X#0.naJaJ`P`Taoas`M.tacaT.taTac.t`u#Yav#`#m#m#m#`#`avav#Yavav#`auau#B`Z`Z`Z.Lao.m.4`W#0`yaT.taH.H.t#h.taTaHaHaTaT#QaSar`b`b",
"`b`b`b#qa#.AaJaJ`vat##.L.L#0.t.t#OaH#Qac#w`W##av#`a6#mava6avavavav#`#mau#B#B#B`Z`Z`Z#Bau`8aC#W#0aH#QaHaHaHaTaT.H#QaTaTaHaTaH#6`y`b`b",
"`b`b`baB.C.naJ`v`vat##.L`D#wacaH#OaH#Q#Q#Q`r`Tav#`#`#`#`avavavavav#m#mauau#Baiai`xau`Zau.maC`D`m#QacaHaT#Q#QaHaT#Q#QaTaHaHaH#6`y`b`b",
"`b`b`baB#q#Z`v`v#F.Y.maD`M.t#O#OaTaHaH`S`S`r`D.Yavav#Y.Y#Y#Y#Y#Ya6#`#`.U#`#`#m#`#``x#Baiao`T`Dap`paTaTaHaHacac#w#Q#Q#Q.H.t#QaS`y`b`b",
"`b`b`baB#Z#EaJ`v#F.Y.m.L#0.J#O`yaH#Oac#O#O`r`D#Yavav.Y.Y.Y#Yav#Yav#mavavavav.m.m#``x#Bao.m`T.P.Tal`pacacaT#Q#Q#OaTaTaT.HaH#O#6`y`b`b",
"`b`b`baB.c#E#E`vat.Y`x#L.J.t#OaHac.t`Sac#w`M`D#eavav#Y.Y.Y.Y#Y#Yavafa6a6av#Y#`#``x`x`8#`.maY#zaba7#DaH.taHacac#QaHacacacaH#OaSar`b`b",
"`b`b`baB.0#EaJ#F`P.mao`r`S.tacaHac.tacac#Q.C`u#e#Yav#Y#Y#Y#Y#Yavau.L`Z#`#`avav#`#``x`8avav`n`O#t`e`W#0aHaHaT.t#O#O.t.t#O.t#O#6`y`b`b",
"`b`b`baB.0.B`v.5.v`xao#0.tacac#Oar#O#O#O.8`Mat.v#Y#Yav#Y#Yav#`av.Lau#V`x.m#Y#`#``xavav`Tao`q`2#I.caU`rar#O#OaFaTaHac.t.t#O.taS`y`b`b",
"`b`b`baB.P.BaJ`P.v`8.0aT#O#O#O#O`y#O#Oac`Saz`u.Y.Y#Ya6avav#`#`#m.maCav#Y.m#`#`#`.m.mav.3aj`saaaeaCaC`##0.taH.t#O.taHaTaT.t.taSar`b`b",
"`b`b`b#q.P.naJ#F.Y#B...J.tarar`y`y#O`y.8#Dal.1at.Y#Y.Y#Y#`#mau`xav.Y.4avav`xau#``x#Y`8ae#r`s.1ao`8##`u`r.tar#Oar#OaH.t.tarar#6`y`b`b",
"`b`b`baB#L.`.n#F`T`u#0`y.tarar`S`y#O.8aF#qa7`a.V.Y.Y#Y#Yav#`#``x##.Y#Yav#Y.m#`a6.m.3.Vaa`1ab.Lao`8##af`WaFar#O#Oar#O#O.tarar#6`y`b`b",
"`b`b`b#q.Oa`ag#E`#`r.tararar`S`y`S#O`y.8`#.ua7`aaeaY#Y#Y.m.U#m#m#`.m`xa6#`#m#mau`o#l`saX#N#1#Bao#U###eaUazarar`yararararar`y#6`y`b`b",
"`b`b`b`mananan.xanananan#jan#janan#janananan#j#j#j.xan.xan.xananan.x.xanan.xanananan#j#janan.x.x.x.x.x.xan#jan#j#jan#j#jananan.H`b`b",
"`b`b`b`b`b`b`b`b`b`b`b`b`b`b`b`b`b`b`b`b`b`b`b`b`b`b`b`b`b`b`b`b`b`b`b`b`b`b`b`b`b`b`b`b`b`b`b`b`b`b`b`b`b`b`b`b`b`b`h`b`b`b`b`b`b`b",
"`b`b`b`b`b`b`b`b`b`b`b`b`b`b`b`b`b`b`b`b`b`b`b`b`b`b`b`b`b`b`b`b`b`b`b`b`b`b`b`b`b`b`b`b`b`b`b`b`b`b`b`b`b`b`b`b`b`b`b`b`b`b`b`b`b`b",
"`b`b`b`h`V`V`V`V`V`V`V`V`V`V`V`V`V`V`V`V`V`V`V`V`V`V`V`V`V`V`V`V`V`V`V`V`V`V`V`V`V`V`V`V`V`V`V`V`V`V`V`V`V`V`V`V`V`V`V`V`V`V`V`b`b`b",
"`b`b`ba#.x.x#s#s#s#saxaxaxax.xax.x#s#S#j`w`4`4`4`4`4`4`4`4`4`4`4`4`4`4`4`4`4`4`4`4`4`4`4`4#j`w`w.D````.j.D#S`w`w`w`w`w`w`w#j.D#O`b`b",
"`b`b`baB`M#p#..5aC.5.5.5#F#eag.A.n.b`a`I`G`G`t#gaPaPawawawawawaw.M#g.M#g#g#g#g`taK`t`G`taK.h#faaaB#V`k#UaS.E#A`l`5.E`5`5`R`R#K`y`b`b",
"`b`b`baB`MaGaIaI.s.5.5#F.v`x`n.0`N.Q#r#X`F`i`tawaw.k.M.M.M.M.Maw.Mawaw.M.Maw.M#g#g#gaKaKaPahah`saM#VaI#.`W.T`R`5`5aQaQ#x#x.E#Kar`b`b",
"`b`b`baB#W#..sa6.5.5.5#F.v#B.fa0`Jaa.h`G`G`taw`A.M`A.M.M.M`A.M.M.M.M.M`A.k.k.M.M.M.MawaPah#f`1`5a#`7`7#5#5a1`5`l`l`l`l#x#x`6#3`y`b`b",
"`b`b`baBaUaI.S.5.5`v`v#F.v.La0ax#l#r`IaP`taK.k`A#2`A`A#2`A`A#2`A.a#2#2.a.a.a.a#2#2#2#2#2.6#2.6aa.P#5#.aU.sa#`5`R`5#x`5.E#naM.qar`b`b",
"`b`b`baB`#aZ#..s`v.5`v`P#Y.fa0ax#z.h`I`IahaP`A.a.w.2a..wa.a.a..2a..wa.a.a.a.a.#H.2.wa.`Y.2#H.I#Na#a`aZ#p#paM#y#x#xaQ#nakakaB.K`y`b`b",
"`b`b`baB#a#p#p#pay#F#F`PavaD#ca0#J#r#f#f.w`K.2.2aO.2.2aOa.aO.2.2aO.2.2.2`Y.2.2#8`Y`Y.2`Y`Y`YaX#NaB#Ta`a2#Pa1.E`5.EakakaH#ha3.3ar`b`b",
"`b`b`baB`7a`#p#p.B#F.5.v#masa0ao`Sa7#f`K`K`Y#8#8aO`g`g.2aOaO`g`gaO`g`g`gaO`gaO`gaV#CaV.Z.Z.Z.i`5`m`0`L#PaU.d.E`5#n`p`0.7a`.7.3`y`b`b",
"`b`b`baBaU.N#p#paI#F`P.v#m.fa0`r#0a7`K`K.2aXaV#8aV#8#8`gaOaOaO`g`gaO`g`g`g`g`g`g#8aV.Z.o.Z.Z#i.R`ma3#Zaf#U`Maz`m.d.H.7#Pa`a`.yar`b`b",
"`b`b`baB#U.z#p.`.B.5.v#Y#m.f.f.8.N`S#NaL`Y#8aVaV#C#C#C`g#C#C#C#C#C#C#C#C#C.o`E.o.o.o`E`E#kaR#zaz#haZas#V#5`7#P...l.H.7.n#pa``T`y`b`b",
"`b`b`baBasaUa2ay.B#F#Y#Y#m.f#B`H.N.H`a`B.Z.ZaE#C.o.o`E.o.o`E`E`E`E#7#7#7#7#7`c`c#7#7#k.WajaA.Ca`#pafas#U#WaIaG.la5.laZaoaZa`#5`y`b`b",
"`b`b`baBa0`8at.`.B`P#`#``Z.faYa3.N#0#J`B.W#kaEaE#7#7`c#4#4#4#4`c`c`caR.##4.#.#.#.#.#`.`f.q#UaGaG#P.s.v#..sa2`La3a3.N#V#V.S#p.3`y`b`b",
"`b`b`baBa0.L`D.`aI.v#m#Y#m.f.Y#h.N.n.8#J`.ajaj.p.#.#`C`C`.`.`faAaA#1#1.q.K`X`X#s.D#sa0.K.L`T`r`M`##W.s.s`7.r`0aF.r`Dax.K#W#P#U`y`b`b",
"`b`b`haB.3`D#E.A.B#e`x#`#B.f#E`L.8at.u.AaYaD.K.K#janan.K.qaY`T##.m`T##.Y#####BaDaDasaD#V.LaU`0.l.l.l`L#T.r.7#ha3#0a#.c.O`r.r#6`y`b`b",
"`b`b`baB.C...zay.B`P##.m#Bas..#w#0ag#M.C`#`x`x.LaD.L`Zavav#`av#Yavav.m##.m`x#B#B.LaDaDaiai#Wa5.Ha5.H.Ha5aT#h.taF#0.ca#`m.J`L#Lar`b`b",
"`b`b`baBa#.J.z.B.B.0#eaY.L.L`L#w#waTaTaT`N`T###`#`#m#`#`avavavav#Yavav`x#`#`au#BaD#B#B.L`x.3az`m`m`y`yar.t.t.taTac`p#Oar`L#h#6`y`b`b",
"`b`b`baB.X#0.naJaJ`P##aoaD`#.8.t.t#haTaHaF`D##av#`#m#m#`#`#`av#Y#Y.m#`#`au#B#B`ZaD`Z.Lao`x`D.C`y`yar#OaH#Q.taT.taTaH.taH#haTaSar`b`b",
"`b`b`baB.X`N.BaJ`vat##aoas..#Qacac#OaH#O#w.0##av#`#`.U#`a6avavavavav#`auaiau`Z`Z`Z`Z#Bai.m.4aU#0ar#QaHaHaTaT#h.HaTaH#QaHaHaH#6`y`b`b",
"`b`b`baB.C.z.B`v`vat##.LaY.J.t.t#OaH#Q#Q#Q`M.Y.m#m#`#mav#`avav#Ya6#m#mau#Bau#B#Bai#B#Bai.m.4af#0#QaHaHaT.H#QaTaTaTaHaTaHaHaH#6`y`b`b",
"`b`b`baB`j.naJ`v#F#e.m#B`##QaHaHaH#Q#Qac#Q`r`T#Yav#`#Yav#Yavavavav#m#m#m#mau`xau.mai#B#B`8aC#Laz`paH.taHac#QaHaT#Q#QaT.HaHaHaSar`b`b",
"`b`b`baB#q#EaJaJ#F.Y`8.L..aF#OaraHaFac`S`S`r#e#Yavav.Y.Y.Y.Y#Y#Yav#`avavavav#`#`#`#mai.L`8##.Pa1al#QaHaHaH#Q#Q#OaT#QaH.HaHaH#6`y`b`b",
"`b`b`b#q`W#EaJ`v`P#e#BaY.7aF#O#O.tac#O#O.t.C`D.Yavav.Y.Y.Y#Y#Yav#Y.Ya6av#Yav.mav#``x`x`8.m.3.c#za7#J#Q#Oacac#Q#QaHaHaHaHaHaraS`y`b`b",
"`b`b`baB.caJ`v`vat.Y#B#Z`S#OacacaHaHacacaT.C`u#eavav#Y#Y.Y#Y#Y#Yav`x#`avavav#`.m#``x`x#`av#G`Oaba7aB.taHacac#OacacaHaH.tac.taS`y`b`b",
"`b`b`baB.0aJaJ#F.v`xao...taHac#O#O#O#O.t`S`Mat.v#Yav#Y#Y#Y#YavavaDaiaqauavav#`#``x.m###Y`x`J#NaaaBaU#Marac.t.taH#O#O.t#O.t#O#6`y`b`b",
"`b`b`baB#6aJaJ#F.v.m`D.tac#Oacararac#O#O`S#M`u.v#Yavavavav#`#`#`.m##`x#`av.m#`#`#`.mav`TaAaa.F#z.Paf#Z.J#O.t.t.t.taHaTaH.taHaSar`b`b",
"`b`b`b#q.P.naJ`P.Y.L`raF.t.tar`y`y`yar.8#J#J`n#e.v.Y#Yav#`#m#m`x.maC.4av.m#`au#``x#Y`T.gaa`s#o.3av`T#W...t#O#O#OaH.taH.t.taF#6`y`b`b",
"`b`b`baB`uayaJ#F.vaY.7#0ar.t#O`Sar#Oar.8.Xal#z`n#Y.Y#Y#Yav#`#m#`av.Y#Y#Yav#`#`av#``8.3#o`1#N`oao`8.m`D#ZaFaFarar#O.t.t#Oarar#6`y`b`b",
"`b`b`b#q.u.7a`.Bat`War#O.t`y`yar`S`Sar#0`W.ba7#z`n#Y#Y#Yav#`#``x####ava6av.mau.U`8aA#o.I.I.V`Zao`8##af`#..#Oac`y#Oararar#O`y#6`y`b`b",
"`b`b`b.C`X.K`X#sas#G.g.g.g.g.g#G.g.g.g#G`X.x`z`z`4.Da0axaxax#vaxaxaxaxaxaxaxaxax.D`z`U`U`U.Daxaxaxaxa0.x#1.g.g.g.g#3.g.g.g#G.x#O`b`b",
"`b`b`b#RaHaT#Q#Q#QaTaTaH#QaTaH#Qac#Q#Q#QaH#Q#w#Q#Qac#w#Q#Q#w#QaT#Q#QaT#QaT#QaT#OacaH#Qac#O.taHaH#Q#QaHaTaTaHaHaHaHaTaTaHaTaT#Q`V`b`b",
"`b`b`b`b`b`b`b`b`b`b`b`b`b`b`b`b`b`b`b`b`b`b`b`b`b`b`b`b`b`b`b`b`b`b`b`b`b`b`b`b`b`b`b`b`b`b`b`b`b`b`b`b`b`b`b`b`b`b`b`b`b`b`b`b`b`b",
"`b`b`bapaMaMaMaMaMaMaMaMaMaMaMaMaMaMaMaMaMaMaMaMaMaMaMaMaMaMaMaMaMaMaMaMaMaMaMaMaMaMaMaMaMaMaMaMaMaMaMaMaMaMaMaMaMaMaMaMaMaM`m`b`b`b",
"`b`b`b.x`W`D`D#5.4.Lao.L.LaY`u.y`n.V.1ab#t#t#baR#t#baR#baR#baR#b#b#b#baR#b#b#b#b#b#b#t#tab`Q.#ae.q`d`dax.1.G.G.GaNaN.G.G`Q.G.x`b`b`b",
"`b`b`han`Lay#.a6.v`v.5aJ`P#e.A.A#q.Q#r`G`G`t`taP.M.M.M.M.M.M.M.M.M.M.M.M.M#g#g`t`t`t`t#g`I.h`1`q`r`k.Uafam#x#Aad.E`5`5`l`laQ#S`b`b`b",
"`b`b`b.x#p#..saIaI.5.5`P.Y.Lao.0`eaa`I`F`i`tawaw.M.M.M.M.M.Maw.Mawawaw.Mawaw.M.M#g#g`taPahah.6`6#6`Z#p.saS.E`5`5`laQaQ#x`l#nan`b`b`b",
"`b`b`b.x#PaI.sa6.5.5.5`PavaDa0.D`a#r`I`G`t`t.k`A`A`A.M`A.M`A`A.M`A`A`A`A`A`A`A.k`A`A.Mah#2`1.I.EaU.s#P.4aU`6ad`l#x`R`5aQ.Eap.x`b`b`b",
"`b`b`banaG.S.s.5`v`v#F`Pav.fax.Da7.h`IaPaPaw`A#2#2.a#2.a.a.a.a.a.a.w.w.wa..w.w.w.a.a.a.6.w.6.I`q`#.saG.sa2a1`R#x`5#x.E#n`6.O.x`b`b`b",
"`b`b`b.x#p#payaI`v#F`v.vau.fa0an`3.hahahahah.wa.a.a.a.a.a.a..2.2.2a.a..2.2.2.2#H`Y`Y.2`Y`Y#H.F#zaZ.N`Ma``M#naQ`laQ#nak`p#O#Z.x`b`b`b",
"`b`b`b.xa`#p#p#paI#F#F.Y#B#ca0`nal.h#f#fa.#H.2aO`gaOaO.2aOaOaOaOaOaO`Y`Y.2aO#8aO`Y#8`Y`Y`Y`YaL`q#0`Ha`a2`M#n.E`5#nakaTaF#h.r.x`b`b`b",
"`b`b`b.xa`a`#paG.5.5`P.Y`Z#ca0.A`S#I`K`K#H#8aV#8aOaOaO`g.2aOaOaOaOaO`g`g`gaO`g#8#C#C.Z.o.oaL`2.daT.l#p.saS.d`6`6#na5.r#p.Na`.x`b`b`b",
"`b`b`b.xaG#p#p.``v`P.v.Yauaq.L.J#0#IaX`Y`Y`YaV#8#CaOaOaV`g`g`g`g`g`g`g`g`g`g#C#CaV#C.o.ZaE`2`6ap`Laz#U#V`D`raz..#QaraZ#pa`a`.x`b`b`b",
"`b`b`b.D#W#Pag.naJ`P.Y#``Zaq#E.l#0al`BaL`Y.Z.Z#C#C#C#C#C#C#C.o.o#C.o.o`E.o`E#7.o`E#k`E#k.p#laM.r#p#5as#V.s#.aG.la5a3aZ.Sa`a`.x`b`b`b",
"`b`b`b.D`8#d.SayaJ.vava6`Zaq.n.l`N.H.Q.iaEaE.o.o`E`E`E#7#7#7#7#7#7`c`c#4`c#4#4`c`c`c.pajaA.PaZa`a2aCaf#W.s#.`L`0.l.7.Lat#p#p`X`b`b`b",
"`b`b`b.D#caYa4.`aJ.Y#m#``Z#c.n.rag.8`e`B.e.W#k#7`c#4#4#4#4.p#4#4.#.#`C`.`.`f`f`f`f`f`z#j.KaUaZ`r`#.s.s.s`7.7a3`L.r`u#v#5#P#p.x`b`b`b",
"`b`b`b.D.L#5.nay`v#Y`x#``Z.f...J..#E.8.uaAaeae`C`.`f`f`z`z`z`o`o`oaY#Uao`o.Las`Xa0#cas.L#B`7aG`M`W`#`7`7aGaF`0`L`M.q#saY`7aG.x`b`b`b",
"`b`b`ban.C.0.z.z`v#Y`x#`.LaD.r.J..`D`#`#ao.Lasas`Xa0asao`8av.m######.Y`T`8`x`ZaDaDaD`Z.Lao..#R#R#R#R#R#u.l.ra3#haz`j#D...7#Tan`b`b`b",
"`b`b`ban#h.7.z.naJ#e##.m.f`Da3#w..#h.8#0`D##`xau#Bau#mavavavav#Yavav#`.mav`xai.LaD.L`Zai`x`MaT.tararaFaraF.t.t.t`ma#az#0a3.ran`b`b`b",
"`b`b`ban#w`N.z.B`vat##ao.f`M#w`S#w#w#h.t#Z##av.m#m#`#`#`avav#Y#Y#Yavav#mauauai`Z`Z`Z.Lai#5aU`m`m`m`yar.taHaT.t.t#Qac#Q.t#haTan`b`b`b",
"`b`b`ban#Q.`.BaJ`v#eaY.LaD#0.t#waTaTaH#waz##avav#m#m#ma6#`av.mavav#`#`#`ai#B#BaDaD.L.L`x`8`Daz#0#OaH.t#QaTaTaTaTaT#w#O.taT.Han`b`b`b",
"`b`b`ban.t.naJaJ#F#e`8.L.P#haT#O#OaHacac#0`D###`#`#`a6#`a6#`avavav#`#mau#B#B`Z`Z#B`Z#B`x.maC#Z.taHaHaHaT#QaT.HaT#QaH#QaTaHaHan`b`b`b",
"`b`b`ban#0#EaJ`v#F`T`xaD`r#OaH#wac#Q#Q#QaT`u.Y#`#`#m#`avavav#Yav#`#mauauauauauau`x#B`Zai.4aCaU.H#QaHaHaT#QaTaTaTaT#Q#QaT.t#Qan`b`b`b",
"`b`b`ban..#E`v`v#F.Yao.L#0aH#O.taHaT#Qac.t.0#eav#`av.Y#Y#Y#Y#Yav#`#`#m.U#``x`x#`#`auai`x`8aCaS`p`paT.taHaH#QacaH#QaTaT#QaHaTan`b`b`b",
"`b`b`b`X#M#EaJ#Fat#Yao`u.J.t#O#O#O#O`S`SaraU#e#Yavav.Y.Y#Y#Y#Y#Yav#`avavava6#`#`#``xaoao##`T#q.Tal#Qac#OaH#Q#Qac#Q#QaT#QaHacan`b`b`b",
"`b`b`ban.z#E`v#Fat###B.C.J#O#O#OaH#O#OacaF.0`D#Yav#Y.Y.Y.Y#Y#Y#YavaC#Yav#Yav.m.m`x`x`x#``8.g`aabap`yaHaHaHacacaTaHaHaTaH.t.tan`b`b`b",
"`b`b`ban.z#E`v#F.v.mao.8#OacacacaTac#OaHaraU`u.Yavav#Y.Y.Y#Yav#Y#B`Zai#`avav#`#``x`8.ma6`8`J`B`O`j.C.tacaH.t#O#O#OaHaHac#OaHan`b`b`b",
"`b`b`b.x.zaJaJ`P#Y`xaU.t#OaH#Oar#O#O#O#O.8.0.v.Ya6#Y#Ya6avavav#`aD#B`Z#`.m#`#`#`#`.m##`T.yaa.i.T.0aU#0.tac.taTaH.t#OaF.t.t.tan`b`b`b",
"`b`b`b#S.naJ`v`P#YaoaZ.tac#w#Oararac#OaH`S.uaf.v#Yav#Yav#`#``x`xav#eavav.m#`#`.mav.m.m.g#o.F#N`naCaf`M.t#O.t.t#OaH#Q.taT.taTan`b`b`b",
"`b`b`b`X.n.n`v`P#Y`D.8araFarar`y`y`yar`y.R`e`n#e.Y#Y#Y#Y#mau#m#`.Y.4#Y#Y.m`x`x#m#`#Y.3#z#f`O#G`x.m##`#.7.tarar#O.t.t.t.tararan`b`b`b",
"`b`b`b.x.z.naJat.m#Z.Jarar#O`S`S#OaF.8`m`Jal#z`n#e#Y#Y#Yav#`au`x.Y`Tav#Yav`x#`#`##.3#l`s`1.V#B#U#####W`raF#Oar#O#O#Oar.taF.tan`b`b`b",
"`b`b`ban.r.N.`#E`u.J#Oar.t`yar`y`y#O`y...P.ba7#zaA#Y#Yav#`.U#`#`.m#`#`.U#`#m#m`8#1#z`s.Iab`o#Bao`8`Taf`W`yar#O`y`yarar#Oar`yan`b`b`b",
"`b`b`b#1.x.x.D.D#sananananananananananan.D.D#S#S.x.D.D#s.Dax.D#s.D.D.D.D#s.D.D.D#S#S#S#S.D.D.D.D.D#s#s.xanananananananananan.q`b`b`b",
"`b`b`b`b`b`b`b`b`b`b`b`b`b`b`b`b`b`b`b`b`b`b`b`b`b`b`b`b`b`b`b`b`b`b`b`b`b`b`b`h`b`b`b`b`b`b`b`b`b`b`b`b`b`b`b`b`b`b`b`b`b`b`b`b`b`b",
"`b`b`b`b`b`b`b`b`b`b`b`b`b`b`b`b`b`b`b`b`b`b`b`b`b`b`b`b`b`b`b`b`b`b`b`b`b`b`b`b`b`b`b`b`b`b`b`b`b`b`b`b`b`b`b`b`b`b`b`b`b`b`b`b`b`b",
"`b`b`b`b`b`b`b`b`b`b`b`b`b`b`b`b`b`b`b`b`b`b`b`b`b`b`b`b`b`b`b`b`b`b`b`b`b`b`b`b`b`b`b`b`b`b`b`b`b`b`b`b`b`b`b`b`b`b`b`b`b`b`b`b`b`b"
};
