/* XPM */
static char *_2_frame_1[] = {
/* width height num_colors chars_per_pixel */
"    66   100      256            2",
/* colors */
"`` c #0c090e",
"`. c #c4c14a",
"`# c #4c4c4f",
"`a c #8c783c",
"`b c #d9d483",
"`c c #b8aa45",
"`d c #242425",
"`e c #dada96",
"`f c #a69936",
"`g c #724c3b",
"`h c #612f23",
"`i c #987a4e",
"`j c #e8e89e",
"`k c #786144",
"`l c #c0b655",
"`m c #432217",
"`n c #9f9985",
"`o c #220a14",
"`p c #a88933",
"`q c #b0996e",
"`r c #c6c276",
"`s c #946052",
"`t c #edeeef",
"`u c #493425",
"`v c #a4acb3",
"`w c #bcada6",
"`x c #b28a22",
"`y c #48668a",
"`z c #cac0ac",
"`A c #393836",
"`B c #707780",
"`C c #e8f2f5",
"`D c #9b8573",
"`E c #b99b75",
"`F c #77646e",
"`G c #385078",
"`H c #401521",
"`I c #8d574b",
"`J c #8f8069",
"`K c #434245",
"`L c #8a7236",
"`M c #d3c1b4",
"`N c #a9a3ae",
"`O c #64392c",
"`P c #d3d0b3",
"`Q c #9d8d78",
"`R c #7e5e1e",
"`S c #666055",
"`T c #553429",
"`U c #251617",
"`V c #7a4e3e",
"`W c #5d4b36",
"`X c #956854",
"`Y c #b9a378",
"`Z c #a27b39",
"`0 c #4a5771",
"`1 c #2c2c2e",
"`2 c #794436",
"`3 c #ddd3bc",
"`4 c #5b4a4b",
"`5 c #592a1f",
"`6 c #876e58",
"`7 c #b68e26",
"`8 c #ac9894",
".` c #beb8c2",
".. c #7f8186",
".# c #999196",
".a c #39121b",
".b c #b7bfcd",
".c c #e7e7a9",
".d c #e2dea8",
".e c #a9b4c3",
".f c #bcb4b2",
".g c #b6aa5a",
".h c #b58472",
".i c #909298",
".j c #7b787d",
".k c #aa8472",
".l c #7e6359",
".m c #8c7170",
".n c #715436",
".o c #7a5849",
".p c #372424",
".q c #e2e8ee",
".r c #caba8c",
".s c #442c34",
".t c #9699ae",
".u c #4a4339",
".v c #443538",
".w c #a0864e",
".x c #60463e",
".y c #ae8c7a",
".z c #c2c1cc",
".A c #d3dbe3",
".B c #565a59",
".C c #08101f",
".D c #976f50",
".E c #334269",
".F c #b8a58c",
".G c #c8cfd5",
".H c #ac9856",
".I c #a27664",
".J c #c6ad8d",
".K c #ba9242",
".L c #543b42",
".M c #8b8184",
".N c #987c75",
".O c #625564",
".P c #42261e",
".Q c #e4deb4",
".R c #c9b2a2",
".S c #f0f2f6",
".T c #836a59",
".U c #70585d",
".V c #263056",
".W c #a99266",
".X c #a0908e",
".Y c #dfd4d6",
".Z c #2f170c",
".0 c #51444d",
".1 c #1c1315",
".2 c #8b7870",
".3 c #ba9685",
".4 c #724131",
".5 c #c4a495",
".6 c #af7c68",
".7 c #937069",
".8 c #d0c87e",
"#` c #50291c",
"#. c #654d4c",
"## c #cec5b6",
"#a c #b1a285",
"#b c #a58a76",
"#c c #dfdcd0",
"#d c #75625a",
"#e c #b4b6b9",
"#f c #4e3a3c",
"#g c #b68d6e",
"#h c #756e75",
"#i c #c0c7cf",
"#j c #b4acaf",
"#k c #a78e5f",
"#l c #8c8c9e",
"#m c #d3d0c6",
"#n c #a69781",
"#o c #fefefe",
"#p c #a07c69",
"#q c #686863",
"#r c #362d2e",
"#s c #604023",
"#t c #895e53",
"#u c #2e1e1f",
"#v c #563c2e",
"#w c #2e2425",
"#x c #d7c8cf",
"#y c #c7aca1",
"#z c #979799",
"#A c #433b3c",
"#B c #715248",
"#C c #9e7061",
"#D c #eeeac2",
"#E c #b6aa62",
"#F c #c7b7b5",
"#G c #c2b476",
"#H c #391b13",
"#I c #353b51",
"#J c #c69c8e",
"#K c #a2a6a6",
"#L c #988366",
"#M c #401e16",
"#N c #a58f8a",
"#O c #afa196",
"#P c #d2d3db",
"#Q c #beb63e",
"#R c #878687",
"#S c #b2a44f",
"#T c #b38a79",
"#U c #846f70",
"#V c #867985",
"#W c #c9c8d1",
"#X c #a59076",
"#Y c #605f6a",
"#Z c #cdc0a1",
"#0 c #4e6692",
"#1 c #b1b8cb",
"#2 c #310c14",
"#3 c #c9b89e",
"#4 c #67544a",
"#5 c #9da2a4",
"#6 c #bd9c8b",
"#7 c #a28563",
"#8 c #2e181c",
"a` c #776b59",
"a. c #987a61",
"a# c #dedfe6",
"aa c #a87d6b",
"ab c #9fa3af",
"ac c #b8c0c2",
"ad c #af9e83",
"ae c #825847",
"af c #a29ba0",
"ag c #826144",
"ah c #6d4635",
"ai c #824f41",
"aj c #b7a59f",
"ak c #e8e1e4",
"al c #b7907f",
"am c #9d868a",
"an c #896457",
"ao c #bcab8d",
"ap c #ac9092",
"aq c #121115",
"ar c #c6c66a",
"as c #90795b",
"at c #7c7260",
"au c #ece9ea",
"av c #89725c",
"aw c #584329",
"ax c #18080c",
"ay c #6e4034",
"az c #a98688",
"aA c #896a43",
"aB c #4a1827",
"aC c #735947",
"aD c #d3c7a0",
"aE c #363232",
"aF c #66535a",
"aG c #646b76",
"aH c #645a52",
"aI c #9e6a5d",
"aJ c #bc9826",
"aK c #d6c8b1",
"aL c #241c1f",
"aM c #734c52",
"aN c #8e6a5c",
"aO c #381924",
"aP c #ae987f",
"aQ c #664d38",
"aR c #c3c2c0",
"aS c #624034",
"aT c #1e1c25",
"aU c #928257",
"aV c #5b5156",
"aW c #57433b",
"aX c #966960",
"aY c #38263e",
"aZ c #8c6148",
"a0 c #c7b491",
"a1 c #432c23",
"a2 c #bb9c9e",
"a3 c #a37153",
"a4 c #444264",
"a5 c #222638",
"a6 c #acacb3",
"a7 c #d3baa4",
"a8 c #000000",
/* pixels */
"#o#o#o#o#o#o#o#o#o#o#o#o#o#o#o#o#o#o#o#o#o#o#o#o#o#o#o#o#o#o#o#o#o#o#o#o#o#o#o#o#o#o#o#o#o#o#o#o#o#o#o#o#o#o#o#o#o#o#o#o#o#o#o#o#o#o",
"#o#o#o#o#o#o#o#o#o#o#o#o#o#o#o#o#o#o#o#o#o#o#o#o#o#o#o#o#o#o#o#o#o#o#o#o#o#o#o#o#o#o#o#o#o#o#o#o#o#o#o#o#o#o#o#o#o#o#o#o#o#o#o#o#o#o",
"#o#o#o#o#o#o#o#o#o#o#o#o#o#o#o#o#o#o#o#o#o#o#o#o#o#o#o#o#o#o#o#o#o#o#o#o#o#o#o#o#o#o#o#o#o#o#o#o#o#o#o#o#o#o#o#o#o#o#o#o#o#o#o#o#o#o",
"#o#o#o.G#R#R#R#R#R#R#R#R#R#R#R#R#R#R#R#R#R#R#R#R#R#R#R#R#R#R#R#R#R#R#R#R#R#R#R#R#R#R#R#R#R#R#R#R#R#R#R#R#R#R#R#R#R#R#R#R#R#R#R.q#o#o",
"#o#o#o...v.2a`aq`Aafafab#l.i.i.i#l.M`S.Nav.2`J.Tatat#f`Wa1#v`k.m.2.2as.m.T.l.l#B#v#s`k#d#f#u`Savata``S#d#d.UaH..`B#8ax`o`o.aax.`#o#o",
"#o#o#o#R.v#J#NaTa5#W`Na#.G.b.b.z.b.e#Uazaza2.3`8ao#n`SaC#va.#6#y.5.5.5.5.3#6#6al#C`V`6.H`k`T.T#X#baman.l`FaG.t.t#l#8#2.a.a`H`o#e#o#o",
"#o#o#o#R#f.y#b.1aT`N`N#x.A#1#1.b.ba6.O#Uan#BaM.lad#XaQaQ#s.k#6.5.5#J.3.3al.3alal.h#t.o.W`kaw.n`D.m#V.X#j`N#l#h#h#Y.a#2.a.a`H`o.`#o#o",
"#o#o#o#R#faz`F`UaL.j#P#P.A.b.e#1.e.#aM.L`Fam.X#b.F`Qawaw`T#7alal#g.y.h.k.y.y#Taa.6`s`V#7aQah#4#7#O#W#P#W#1ab.Ua4#r.a`H`H#`.Zax#e#o#o",
"#o#o#o#R#fas.0aL`##Y#W#Pa#.z#1.e#1.t`FaY.0a4`##V#O#n`W#4`T.k.y.y.kaa.k.k.kaa.kaa.I`X.n#7.xaQ`g#7#j#W#i..aG#h.xaY.v.saO.UaF#AaL#e#o#o",
"#o#o#o#R`W#U#waYaq`o.L#l.O.0.vaG`Nab.OaV`0.E`G#zad`Q#4ag`O.I.y.kaaaa.6#paaaaaaaa.IaZai.w.xaC.na..z.Aab#r.L.vaY.0a4#ha##x#j.f#Y.`#o#o",
"#o#o#o..aF`W``aqaT.v.0`N#j.N`Taq#1aua#.q.q`v.ta6#X.y`6as#s.D#T.k#p.Iaa.I.I.I#p.N.7anae#7#s.naC`Jajac#l#uaO#waEaV.O`N#P.`#1#e#q#e#o#o",
"#o#o#o#R#h.0`U.s.vaE.v.``NaX.LaO`N#P#W#i.q#q.B#n#X#X#X.2`g`XaN.o`OaS`X.D#C.Dae`Oa1`O.o`QaQaCagasajaj#h`daL#uaY.0.Laf`C.q.qa#`B#e#o#o",
"#o#o#o#R`K#wa5aTaTaqaq.`ap.7#taNauakak.q`CaG`S`8`Q.W.FasaSaeah`m#ua1ay#t`X#taS#M.p`m.l#X`W`k.Tas`D.O.paLaLaL.s#..L.t.G`v`v`v.B#e#o#o",
"#o#o#o.Ma5````aqaqaq#A#Paja2az.W`e`P#P.A`C`B#q#a#n#X.J#L#``IaXaS#``T`g`X.6aXah`T`5aSa.#naQaNav`i.NaWaY#w#u.p.s#f.0af#mac#i.G#q.`#o#o",
"#o#o#o.M.C.C``aqaq#w`3a0ad#X.Wa0.8`j.daRau`S#qao#X#X.f`D.p.o.IaaaXaX#C.kalaa#C.7aXaNaPadawas.N#b#L`W#8#w.p#r#u#u.v.#auak.A.A`B#e#o#o",
"#o#o#o#R.C.C.C.Caq.B`z`q#S#S.g#S#G.8`j#W.q#qa`.faP.H#Z`Q`Uay.I.h#T.6.h#T#T.kaa.h.k#p.5ad`W#pas#X`QaF#8#8`U#8#u`uaE.x#Ra6.e#K.B.`#o#o",
"#o#o#o#Ra5.C``aqax.2`n.w`c#Q#Q#Sad#E.d#D.S#Y.##Z.Fad.r#L#r.PaI.6.6aIaX.3#Jalan`IaI#p.R#a`S`D`a#n.XaVa1.p.p`maW.v#8#f.O#P.A.A`B#e#o#o",
"#o#o#o...V.V.1.Z#u`J#7`i`c#Q#Q`f#kaP`8ac.S#q.f`zao.F#Z`D`u#Hai`s`Iai`s#Tal.h#C`g`2.D.R#aav#Xas#n#n.U`u`TaSaS.xaW.L#v#f#Kacac#Y.`#o#o",
"#o#o#o...V.Va5aNaN.kas`E`c`.#Q#Q#S`i.k`w`t.#`z`za0aoa0#b.x.Zay`2`h.4`I`I`I`I`I`V`O.Ia0#X`Q#n#L.F`Q.T.s#H`m`m.p.p.v.p#r`na6.e`S#e#o#o",
"#o#o#o#R.C.V`U#U.I.7.o#G`c#Q`.#Q`f.H#N`z.SacaR`za0`Y.J#naC.Z`maiai`2`2`s`s#t.4ay`ga.#y`J#XaP.w#j`D.j`u`k`paA.n#H`U#8aE..a#a#`B#e#o#o",
"#o#o#o...C`A#r.U.I.3.yasaU`.arar`faA.hapak#m#W`za0`Y`E`qaga1#2`Oai`I`I`I`I#taiaeaM#4.Fat#X#n#Xao`D.j#r`LaJ`7#s.Z.1#u#w.j.e.e#Y#e#o#o",
"#o#o#o#R.C#l..#.aX#CaN.l`uaEa``K#A.o.7`Qa#.GaK#3#3.W.W.Has`T#2`Hayai`I`I`2aiai.o#`#v#Oa``Q#7`nao#Xa`a1`i`7`x.PaL.1#w#r#j.G.GaG.`#o#o",
"#o#o#o#R.Vac#KaQ.oananaCaHaqaqaqawaeaN#Na#`P##`z#3`q#p`i#7ah.Z`H#``V`I`s`s`I#taS`U#faPav#Las#k`wao`Q#4aA`p`i`m`U.Z#w`Sau.q`t..#e#o#o",
"#o#o#o..aG.A.``4#d.m.laCaQaqaqaq#fan.Taj#c#m###Zao`q.w`i#k.n#M#H`m`5`V`s`I`s`2`m.ZaW`Q`Das.D`Qa0aK#Z#3.J.5.5.yas#v.v.z#i#e`v.B#e#o#o",
"#o#o#o.M#5.q#P.M#W#z.laH.v`d`d#A.O.l`DaK`3#m#Z#Z.F`E`i.D`i.D`m`m`m#``5`h`h`h`5`m.Z`6`J#7aC`L#ka0aD.R#6.3.3#6.5#y#y.5#ca#.A.A.B.`#o#o",
"#o#o#o#R..`v.z#U.f#l#d.Taj.z#i#e#OajaK##`3`P#Z.r.J`Y`iaeae.D#s`5aB`5`5`5`h`h#``m#`.N#v`6.nav#k#3aDa0.W#7.h#T#g.3#J.5#y#x#ca##h#e#o#o",
"#o#o#o...C`1.A#U.z#Y#..UaL#w#r`##Oa7#3#3`3#Z#Z#Z#Z.H`iaQ.naZ`O`O`h`h`h`h`O`O`5#`#s`O#B#`aCaA#X#3##.r#7a3.I.6.6.h#g.3.3.5#xau..#e#o#o",
"#o#o#o#Raq#waR...`.v`T.m.x.0.L`Fa7#y.F#ZaK.r#Z`P.r.Wagag.4ae`gaiah.4.4`2.4.4`2.4ay`Oae#``gaC.W#ZaD#Z#baaa3#Ca3a3.I.6.h#g#6#y.u.`#o#o",
"#o#o#o#R`U.pam#R.M.x.UazaM.U.T#b#y.3.5#Z#ZaKaKaKaoavaAahah`R`I`IaZ`Iaiaiaiai`I`s#t`s`XaQahagaPa0`P.r.J.6a3a3aI`XaI`Z.6.h#g#JaH.`#o#o",
"#o#o#o.M`S.N`8.f#Napaj.3.yap`8aP.yal.J.r.ra7aD.r#k.D`R`O`g`IaZ`s`s`X`X`s`s`s`XaI#C.D.Iai.nag.Wa7`M.J.R#g`X`I`I`I`IaIa3.6.h.3#4#e#o#o",
"#o#o#o.M`8.Y.Y.Y`3.Y#x.Y.Y`3#x#gaa.D.5.r.ra7.g`qas#paAahae`I`XaIaIaIa3aIaIaI#C#C.I.I#p`Xag.o#7.r.ra0`E#gaAai.4`2ai`I`Xa3.6.6.n#e#o#o",
"#o#o#o#Ra`.7ap`Ma7a7a7`za7#F.f.ka3.D#g.Ja7.J.w`i`L#7aAaeaZ`X`XaI#Ca3#CaIa3#C#Ca3.I#paa#p.Ian.D.J.J.J.W`LaZ`h`5.4`2ai`IaZaIa3#v#e#o#o",
"#o#o#oa6aE#r`A`A#A#I#A`A#A`A`A`A`A`A`A`u#A`A`A`A`A`A`A`A`AaE`A`A`A`A`A`A`A`A`A`A`AaE`A`A`A`A`A#A`u#A#A`A`AaE#raE`uaE`uaE`u`A`A#m#o#o",
"#o#o#o#o#o#o#o#o#o#o#o#o#o#o#o#o#o#o#o#o#o#o#o#o#o#o#o#o#o#o#o#o#o#o#o#o#o#o#o#o#o#o#o#o#o#o#o#o#o#o#o#o#o#o#o#o#o#o#o#o#o#o#o#o#o#o",
"#o#o#o#o#o#o#o#o#o#o#o#o#o#o#o#o#o#o#o#o#o#o#o#o#o#o#o#o#o#o#o#o#o#o#o#o#o#o#o#o#o#o#o#o#o#o#o#o#o#o#o#o#o#o#o#o#o#o#o#o#o#o#o#o#o#o",
"#o#o#o#o.S`t.S.S.S`t.S`t.S.S.S`t`t`t.S.S`t.S`t`t`t`t`t`t.S`t`t`t`t`t`t`t`t.S`t`t.S`t`t`t`t`t`t.S`t`t`t.S#D.S.S#D.S#D`t.S.S.S.S#o#o#o",
"#o#o#o#RaqaqaL#8````.1#A`K#AaE#A`A`A`u.v.v.v#A`A#A.1#w#A.u#A#A.v#r`A#A.u.u.uaE#r#waL.1aE.u`A#A`#.u`#.u#A`A`K`KaT``axax``axax``aR#o#o",
"#o#o#o#R#w.vaF#B.s#U`N.G#i.G#l.e`w#y#y#y.5.J.Fa7#n`u.waD#Z#Z.ra0#na0aK`3aD#3.F#GaU.T#v.2##aj`wa#.q.qa#.f.5#W.z`u#2.a`HaM`OaB`o#e#o#o",
"#o#o#o#R.0#r#.`Fap.``N.G#W.G#W.z#j.5.3#y.5#6ad.Ra``k.J.2aQ.l#LaP#naPaPaP.W#L.k#a.Fa`aC`W.fadaj#W.Aa##xajad#e`N`T#2.aaB`h#`aB`o.`#o#o",
"#o#o#o#R`Sa5#h.Y#W#P.e#W#i.G.zac.X.J.N.3.5#paPa0aHa`aC`Taeaaal#6#Jal.k#p.I`Xae#t`Y#Law`u#Nadaj`w`w#F`wa2.N.eaf#f`o.aaOaBaBaBax#e#o#o",
"#o#o#o.M#daTaE.Y.Ya##i#i.z#W.z.`#V.5.5#y#ya2#6aP`S`k#sag.y.5#y.5ao#J#6.3al.k#t`V`i.W.la1av`EaPap.m.m.m#U.M`v.t.s`o.a.a`HaBaB`o.`#o#o",
"#o#o#o#R`FaTaT.`#V.Y#P#1.b.z#1#j`F.NaN.7.m`J.F#n.n.n#v#7.5.5.5.5#J#6.3.3#6al.6aeagaP`kawaC#b`J#U.m#V#V..#l.M.j.a#2.a.a.a.a`Hax#e#o#o",
"#o#o#o#RaF`UaT#l.z#P.A.b#1.b#1`vaFaM.oanan#Uad`Q.x`W#v.k`E#6#J.3al.yalalal.y.haZ`V#b.n.xaQ#7am#O#F#W#1.t`F.Oa4aO.a#2`H`H.a.a`o.`#o#o",
"#o#o#o.Ma4`Ua5#Y.Y#P#P.b.e.e#1#l`F.s.U.j.Mam.F#nawaQ`u#p.y#g.k.k.k.k.k.k.kaaaa`X.n#7`gaQ#4.k#j#W.G#1.t.t.O#f#raO`H#`#..s.s.L#8#e#o#o",
"#o#o#o.M`U#ra4#r#l#W.e.t#Rab.e`N`F.Va4.E#I.j#O#X`W.o`O#p.y#b.kaaaa.k.kaaaaaa#C`s`V#LaQ.naQ#L#j.G.baVaVaF.s.v#Ia4`Fam`F.O.O#VaV#e#o#o",
"#o#o#o#Raq.1aq`o#f.j#U#..L.V`N.`.M.t.t`B#0af`8#XaCas`O#C#T.haa.kaa#paa#paaaa#p.Dae#7#v.n.na..`auab#waYaYaY.0.O.#.Sauak.q.qak...`#o#o",
"#o#o#o.M``#u#ra4.0#j.f.m`h`oa6.S`tau`C.t..a6.W#X.2`JaQan.k.7#tana3#Ca3#C.7anaM.o.o#7aQaC`kas#O.`#z#u#u#r#raV#..t#Pa6#Kab`v#K.B#e#o#o",
"#o#o#o#RaTaEaYaY.1#j`NaXaM.L`w#W.G.Gau`B.B`n#N.WaP.Nah#taiaSa1`T.o`X`X`X`Va1.P.P#B#XaQaCagav`Q#haEaLaLaLaY.0.L#l.A#i#i.G#i#i#q.`#o#o",
"#o#o#o#Raq.Caqaq.1.`ajaz.7am#DaK#i#i.q`B`SaP#X#n.F#L`T#tai.PaO#``O#t.D#t`O#M.P#``6#XaQ.T`6as`DaF#r#8#8#8.s.LaW.#.qa#.A#P.A.A`B#e#o#o",
"#o#o#o..``aqaqaq.M`3#Oa2#6`q`b`j#D.A.q`B`S#j#n#kao`Da1ae#C#t.x`g#t#C.haaaeaMah.o#LadaQava.#p#7aW.p#w#w#r#r.s#faf#m#e`v`v`v`v.B.`#o#o",
"#o#o#o..``.Caq`A`3#a`q.w.w.rar`b.c.q.Sa``Sao#n#n.r`Q.Z`g.I.h.kaa.6#T#T.haaaa.6#CadadaWas`J`D#7aF#8#u#u.p#8#w.v`S#W#P.G#P.A#P#h#e#o#o",
"#o#o#o..``aqaq#Y#G.H.g`c`.`Y#E.r`jaRau#q#V#3aP`q#Z`Q#w`T#C.6.h.6.6#Tal#TaXaa.I#p.J.F#4#Las#X`QaF#8#8.Z`U#r#f.paWa`.G.G.Gac.GaG#e#o#o",
"#o#o#o..``aqax.2`Q#L`c#Q#Q`f#k`E#Z`3`t#q#5#Z.F#a#Z`Qa1#M`saIaI#t#t#J#J.3#C`2`s#C.R#a.l#bas`n#naH.L`T`T`O.x.x.p`T.0#5`v`v#K.e.B.`#o#o",
"#o#o#o#RaLaS#s.N#L`p#S`.#Q`c`f.wapac.S..#F`za0`Ya0`Qaw.Z`Vai`2`2`IaI.6#C`sae`Oan#3aPaU#naU#a.X#d.P.p#``u`u.s.L#f.p.`a#.qa#a#`B#e#o#o",
"#o#o#o..aL.m.Ia.#B.J`c#Q`.`.#S.w.N.Raua6aR#Z#3aoa0#X#4.Z`hai.4`hai`I`VaMaiayay#C#3`D#X#n#Lao`Q#U.L`uaQ#s`u.p.p#8`A..#e.e.e#e`S#e#o#o",
"#o#o#o.Maq#d.7.k.N`E#S`.`.#Q#S#kalajau#W##`za0`Y`Yadag.p#2`Vai`I`2`s#C`s`2`V`V.T#yat#naP`Qao.M.j`uag`7`p`R.Z`UaL#r.Ba6.e.e`v#q#e#o#o",
"#o#o#o.M#r#4#C.h#p.Taw`f`r#S`S`k#p`Dak#P#W#3#3`q`q`E`6`u#2`mai`I`I`I`I`Iai.oaS#vaoa`#X#X#Xao#NataE`aaJ`x`T.Z.1#u#w#K`t.q.q.q`B#e#o#o",
"#o#o#o#R.B.xanaXan#d`4``aTaq#A.oanam.Q#PaK`z#3`q#k.w`i`O.a.a`hai`I`I`2aiae`V#M`u#O`k#L#L#Xao#nat#f`R.K`Z#H`U.1#wa1#F#iac#iac`B.`#o#o",
"#o#o#o#R.j`4.Uan.laC`Saqaqaq#fanaN.Xa##P##.r.R`E.w`i.WaQ#H#H`m`O`IaI`s`san#``U`u`8as#Las#bao#ZaoaP.y`E.Waha1#u.p.Macac#1#e#i`B#e#o#o",
"#o#o#o.M#R.U`J.M.l.U`uaqaqaqaY`k`6.f#c`P`z#Zao`E`i`iaaaA`m#H`m`5`h`2ai`V`O.P.Z`W`Q#XaA.D#ba0`M#Z.J`Y.5.5#y.J`D`F#c.q.qa#.Aac`B.`#o#o",
"#o#o#o#R.#.M.Ya6#d.l.##l.i`N#O#UaoaK`3`P`z#Z#E`Y`iaAaA#C`O`m`m`5`5`5`5`5#``m#H#L`k.N.naA#ka0`Ma0aP#g#g.3.3#J.J#y#x.Ya#a#.t.i#Y#e#o#o",
"#o#o#o#R.i.j#e.jaH#daW#Y#q#Y`Q`Ma7#Z`3aD#Z#Za0`E#p.n`V`L`O`h`5`5`h`h`h`h`5`m`O.o#vaQ.nav.w#ZaDa0#b#paa.6#galal#J.5#y#c.q.q.q`B#e#o#o",
"#o#o#o#Raf#V.z.O.L.l.v.v.v`4`w#3.R#3`3#Z#ZaD#Z`q`L`g`gaeahay`h`h`O`O.4`O`h`h`O`5.o.P.n`k#k#3aD#Z#7.I.Ia3.I.6.h.hal.3.5`3#i#z`A.`#o#o",
"#o#o#o..#z.Maf#A`T.NaSaWaV.N#3.5`Y`MaDa7#ZaK.r#LaAaA`gaeaeaeae`I`2`2`2`2ai`Iai`VaZ`OaQ`k#X#3aD#Z`E.I.Ia3a3.Da3`Z.h#g.3#6as#w``#e#o#o",
"#o#o#o#R`A`K#A#raE.x.s#r#AaWaVaWaFaH`S`S#q`S`W.v`u.Z.Za1a1a1#`a1a1#`.P.Pa1`u.v`u`u.p#uaE`W#4`SaHaH#v`T`u`u`u`u`T#v#saS`WaF#f.1ac#o#o",
"#o#o#oauaRaR#WaRaRaR#iaRaRaRaRaRaRaRaR##aR###iaRaRaRaRaRaRaRaR#iaRaR#W.zaRaRaR.zaR`zaRaRaR#i##aRaRaRaRaRaRaRaRaRaRaR#WaRaRaR##.S#o#o",
"#o#o#o#o#o#o#o#o#o#o#o#o#o#o#o#o#o#o#o#o#o#o#o#o#o#o#o#o#o#o#o#o#o#o#o#o#o#o#o#o#o#o#o#o#o#o#o#o#o#o#o#o#o#o#o#o#o#o#o#o#o#o#o#o#o#o",
"#o#o#oa6.i.#.i#z#z.i.##z.i.i#z.i#z.i#z.i#z.i.i#z.i#z#z.i#z#z.##z#z.i#z.#.i.#.#.i#z#z#z#z.#.i#z.##z#z#z.#.#.i#z#z#z.#.i#z#z.ia6#o#o#o",
"#o#o#oaE.M#v`T#V.#`d.P`W#v#V.2#r`U`WaU....aG.B.Ba``S`kata`a`at`0`K#Aa``6.x#r.s`W#4`4#U#5.Mam#5afa`#faF#.aS`T#`aW`S#r.p.v`#`d`d#o#o#o",
"#o#o#o`Aak.f`Na#.q`8.N.ka..5a7#.#8av.J.r`f#5#z`v`Q`J#Ga0aoaoao#a..#X.g`q#F`8.U#y#N`D`wak##a#`Cau.``h`5`I.oay`h#.aV`A.v#4#d#8aL#o#o#o",
"#o#o#oaE.Y#P#P.A.Y#x#F.5a2#ya7`8#d#y`Z.n`L`n#G#EaUaP##`z#Z#a`Q`QataQ#s.w.Y#cajak#m##a#ak#F.za#.Y.L.aaB.aaO#2`H#M`F.B`##dama1`d#o#o#o",
"#o#o#o#I#x.Ga6.t.b#y.R.R.5#y#y#y`za`aQ#n#Z##`z`z#a#O`z`P.Q`3a0#G`Qa``W.x`M.z`w.Y.q.q.q#P#y.`#P.e.a#2aBaB.LaBaBaOaV#Y#Y`FaX#B#w#o#o#o",
"#o#o#o`A#W#P.b#1.f`w.3.R#y#y.3#y.RaWas#Z`Q`J#bad#a#naoao.F#n.W#aaoaUat#v#N`waj#ja#a#.A.z.5aj#1#V.a#2`H`TaM`5`H.a.va4`#aCah.l#r#o#o#o",
"#o#o#o#I#i#W.G.z`N#y.3az.5.3.m#3`n`W`Q.o#v`V.I.yadal#b#b#7#paNag.3adaC#f`F#O.5aj.z.Y.Y.5a2.##1.M.a#2`HaBaBaB`H.a.s`#.B#B#Bam#r#o#o#o",
"#o#o#o#I.z#W#W.z.ta2#yal#y#y`D#y`J`W.T`Tanal#J.5.5.5.3#T.yaaaZ`VaA`Yav`u`WaPa2aPamapamam.N.iab#V#2`o.a`HaBaB`H#2.saVaGaeazamaE#o#o#o",
"#o#o#o#I.b.z.z#1.#.maz#p.5ap`8.J`J.n.x`g.y.5#y.5#y#J#J.3#6.3#T`s`V#7as.n#v`D`Qam.N.l`F`F...t#laG#2#2.a.a`H`H`H#2aO#I#Y.l.2.O`1#o#o#o",
"#o#o#o`A#1.b.b#1.#aF.m.Uai#B.2.F`J`W`uag.W#6.5.5#Jal.3al.3al.yaa`V.D#LaQ#s`a.N#Uamaj.f.t..#h#Y`#`H#2.a`H.a`H.a`H.aa5`1#..2aYa5#o#o#o",
"#o#o#o#I.e.e#1a6.jaS.x.m`8amadad`Jawa1.o#Talal.k.k.y#b.y.y.k.6.Iaeag`i.x.x.T#b.`.G#P.z#1#l.O.saY.a`HaYaY.aaB.a.aaO#u.L`F#p.L#w#o#o#o",
"#o#o#o`Aa6.e.e`v.t.LaYa4.E`#`8#naU#4`u`V.y.y.y.6aaaa.kaa.kaa.6#Caeagas#s.n`k#N.z#i`v#Y#Y.U.L#IaY.s`T.7.La4aV#VaY.vaF`FaW.N.N#r#o#o#o",
"#o#o#oa5.0a4..`N#la4#Y`0`G`0a6#X`Jav#s`V.k#T.k.kaaaaaaaaaa.k#p#Cae#tas#s.o`k#N#P.q.O.v#faYaO.Oa4.`ak.`.`.z.`#xauau`MaL#u`m`T`d#o#o#o",
"#o#o#o#r.7.aaY`t.S.S`ta#.t#5aj`Das#X.n`V#p#T#p#C#paa.I.I#C#p.7aNaeanas.x.n`k`Q.f.zaV#uaY#ua4.O`4a#.z.`#e#1.e#1#e.e#jaq#w.T.l#w#o#o#o",
"#o#o#oaYan.v#faR#W.z#ia#`A..ad#7#L.F.n.n.Danah#v`g`X`X#C`X`g`u`TaSavav#B.nag`D#j#Ra4aLaL#u#I`4.s.q.S`t.q.q.q.q`C`C.A.0#..l.o`d#o#o#o",
"#o#o#o#raX#taj`taka#a#a#`K..#a`D#X.J#B`Vae#`#H#M`u`V`s`Xai#`#H`m`T`QasaQaCav#bat`4#uaL.1#8#faM#r.q.e`v#K#Kab#Kab.e.A.jaQan`F`1#o#o#o",
"#o#o#o#Ia2.7.r`e`e.A.qa#.u.Mao`Q#n#3#.aS`san`T`T`Oae.Iaaan.x`5`T#BaP`J#4.T`i#X.T.saY#8.p#r.s.L#Aak.`#e.bac.b#1.e#ea##e#.ama``1#o#o#o",
"#o#o#o#r#kad`r`b`j`P#i.A`K#Rao#Lad.r#4.PaXaa.I#C#Caa.h#T.I.I.I.7a..5`J`Wa.as.Wat.v.p#uaY#r#u#u.uaR.S`t.q.q.q.q`C`C.q`C.#`F.O#r#o#o#o",
"#o#o#o`A`c.gao#G`e.d.G#m.u#n#y#k.F#3aH`oan.6.h.h.6.hal#Taaaa.h.I.ka0`DaQ`Dasad#U.v`U`U#8.Z.v.p.LaVafa6`v#K#K`va6ac.Aa#a#.f#V`1#o#o#o",
"#o#o#o`A#Q#Q.W`E.r.Q`C#m.B.fa0adaoa0`k`Uah#C.6.I`saa#J#J.kai`s#Cal#3`Q.n`Das#a.2#v.s.pa1a1#..p#u.L#R#i.G.G.G.G#i.A#P.A.q#Paf`1#o#o#o",
"#o#o#oaE#Q`c`f#k#n#O`P.G#Vac#3.F#Ga0at#H`h`I`Iai`V#C#T#Taa#t.4`gal.JaPat`Q#LadamaW`T`TaQ#v.x.L.LaW`4#P.G#i#i.G#i.A.A.G.q`C###r#o#o#o",
"#o#o#o`A`.#Q#Q`paU#N###Paj###3aoao.Java1#H`V.4`h`2`s`I`Iai#tay.4aPajad#L#X`Qao.MaF#u#M#H`ma1.p.s#w.0`v`v`v`v`vac.q.A.G#P.A#q`1#o#o#o",
"#o#o#o`A`.#Q#Q`f#6#b.Ya#aR##`zao.5a0asaw#2`h`Iai.4aiaI`sae`O`2.oaPad#X`Q.W`n#O.2#da1`p`x`L#v#u`U#u`A.f.A.A.A.A.A.q.A.A.t.B`G`d#o#o#o",
"#o#o#o`A`.ar`.`aaval#j.q#W###3ao`E`Y`QaQ#H.a.4ai`I`I`I`I`Iai#B`O`J`Q`Q`D#Xadaoata`a1`f`7`x#H.Z.1#w`1.`ac#eac.b.q.q.q.A`B`y`y`1#o#o#o",
"#o#o#o`d.u`#`daQ#t.7ao#c.G##.rao`q#7`q`k`m#2`m`V`I`Iai`2ai.o`g.Zav.2`D`Q#LaPao.j#da1.K`7`R.Z`oaL.paV#i.G.G.G.G.q.q.q.t`y`y`ya5#o#o#o",
"#o#o#o`daqaq.1#BaN.m.f.A`P`z#Z`Y`q`i#7aA`T#2#M`h`I`s`s`s`sae.P`o.2at#b#L#L`q#3#n`QaQ#7`p.o.p.1#u.p`wa#.q.q.q.A.q`C#i`G`G`G.E`d#o#o#o",
"#o#o#o`daqaq`U#.an.2`P.YaK`z#Z`q.W.D.w#7#v#H#H#``hai`I`I`I`h#H.Z`J`J#kan`iad#Z`M#Z.R.5.5.5apav.La`#P#i.e`v.e#i.q.A`B`G`G#I.V`d#o#o#o",
"#o#o#o`1aE`K.O`F.T#O`3`3`P`z#Z`Y.W.D.D.Iae#M`m`m`5`5`h`h`5#`#H#H#Xasas.n`i`E#Z#Za0.3.3.3`E.5.J.5`Ma#a#a##i#5ab#i..`G`0a5`A.V`d#o#o#o",
"#o#o#o`A.ea6af`8`M`M#m`P##.ra7#G#k`iahaAae`T#`#``5`5`h`h`h#``m.oaC`k.naCa.`Y#ZaD.F#p.k.h#g.3.3#J.5`w.Ya#.A.G#i.e#i`C.q#Iaq.Va5#o#o#o",
"#o#o#o`#`d`d`1`A`A`A`A`A`A`A`AaE#raE`1#r`1#w#w#w#w#w#w#w`d`d#w`1`d#r#w`1`1`A`A`A`A#r#r#r#raEaEaE`AaE`A`A#I#I.E`K#I`A`A`1`d`d`##o#o#o",
"#o#o#o#o#o#o#o#o#o#o#o#o#o#o#o#o#o#o#o#o#o#o#o#o#o#o#o#o#o#o#o#o#o#o#o#o#o#o#o#o#o#o#o#o#o#o#o#o#o#o#o#o#o#o#o#o#o#o#o#o#o#o#o#o#o#o",
"#o#o#o#o#o#o#o#o#o#o#o#o#o#o#o#o#o#o#o#o#o#o#o#o#o#o#o#o#o#o#o#o#o#o#o#o#o#o#o#o#o#o#o#o#o#o#o#o#o#o#o#o#o#o#o#o#o#o#o#o#o#o#o#o#o#o",
"#o#o#o#o#o#o#o#o#o#o#o#o#o#o#o#o#o#o#o#o#o#o#o#o#o#o#o#o#o#o#o#o#o#o#o#o#o#o#o#o#o#o#o#o#o#o#o#o#o#o#o#o#o#o#o#o#o#o#o#o#o#o#o#o#o#o"
};
