/* XPM */
static char *_2_frame_3[] = {
/* width height num_colors chars_per_pixel */
"    66   100      256            2",
/* colors */
"`` c #0e0810",
"`. c #c4bd42",
"`# c #4b4a48",
"`a c #8e805d",
"`b c #c6ca66",
"`c c #b5a848",
"`d c #dcda88",
"`e c #784c3c",
"`f c #241e21",
"`g c #7a6146",
"`h c #a68226",
"`i c #e8e6ae",
"`j c #5c2c20",
"`k c #9e8a36",
"`l c #b7ad65",
"`m c #9b675a",
"`n c #34302f",
"`o c #c2be57",
"`p c #a08d74",
"`q c #f2eeb6",
"`r c #a6907a",
"`s c #8a7633",
"`t c #696a6e",
"`u c #a2a7ae",
"`v c #290c11",
"`w c #cabda3",
"`x c #c7a89e",
"`y c #543125",
"`z c #ab997a",
"`A c #48211c",
"`B c #866622",
"`C c #655f48",
"`D c #edf2f3",
"`E c #5a4934",
"`F c #b3bcc6",
"`G c #d0ccbb",
"`H c #7a828b",
"`I c #9b8f8f",
"`J c #4c3323",
"`K c #b0a9ae",
"`L c #421522",
"`M c #321e1e",
"`N c #84705d",
"`O c #c19b8a",
"`P c #5c505d",
"`Q c #ae863c",
"`R c #d2c3b7",
"`S c #8b5148",
"`T c #e3df92",
"`U c #9c8069",
"`V c #75777d",
"`W c #ab9fa5",
"`X c #8d9aa9",
"`Y c #684837",
"`Z c #403f42",
"`0 c #79656f",
"`1 c #c7ccd4",
"`2 c #5d3728",
"`3 c #a6913d",
"`4 c #9f705d",
"`5 c #78543a",
"`6 c #e0dea4",
"`7 c #807773",
"`8 c #e2d2d5",
".` c #846059",
".. c #beb19d",
".# c #c6b691",
".a c #8f9299",
".b c #744132",
".c c #c2baba",
".d c #463121",
".e c #422315",
".f c #b0a047",
".g c #2d160e",
".h c #989794",
".i c #c2a96c",
".j c #b8a27a",
".k c #6b5848",
".l c #828282",
".m c #3b3837",
".n c #bb9080",
".o c #9b858b",
".p c #845648",
".q c #b2aeb6",
".r c #dadbc6",
".s c #302726",
".t c #e8e0e5",
".u c #38180f",
".v c #d2ced0",
".w c #b59976",
".x c #c6bf6d",
".y c #bfbdca",
".z c #604048",
".A c #916156",
".B c #9f7763",
".C c #786059",
".D c #78585b",
".E c #543929",
".F c #5a5750",
".G c #8a7073",
".H c #eaeab2",
".I c #4c3539",
".J c #9f8c63",
".K c #674f4e",
".L c #878189",
".M c #1f1818",
".N c #857886",
".O c #614232",
".P c #c2b1af",
".Q c #9f9fb1",
".R c #796e64",
".S c #374c76",
".T c #ccaea1",
".U c #a7b6cb",
".V c #c5b291",
".W c #b68e7d",
".X c #594947",
".Y c #a6806d",
".Z c #d9d6c5",
".0 c #8d7866",
".1 c #4a607e",
".2 c #d6dbe2",
".3 c #3a2519",
".4 c #ac7e6d",
".5 c #4c4041",
".6 c #1e0e12",
".7 c #ac8c60",
".8 c #6e3b2d",
"#` c #b9a778",
"#. c #9b837a",
"## c #fefefe",
"#a c #42302e",
"#b c #c3a690",
"#c c #b79889",
"#d c #ab9193",
"#e c #bdb2b5",
"#f c #6b5127",
"#g c #eaeabe",
"#h c #a9b2bc",
"#i c #53393b",
"#j c #7b6a58",
"#k c #94624c",
"#l c #e2dfe5",
"#m c #ac9b89",
"#n c #d1c5d3",
"#o c #8e704f",
"#p c #916859",
"#q c #cdc27a",
"#r c #bcb440",
"#s c #5c6064",
"#t c #a77967",
"#u c #392428",
"#v c #8d8e9a",
"#w c #c0c4ce",
"#x c #af8c79",
"#y c #c3a293",
"#z c #765648",
"#A c #d2c6a6",
"#B c #834d41",
"#C c #886a45",
"#D c #2a181b",
"#E c #282a2e",
"#F c #a2987b",
"#G c #603e2e",
"#H c #dbe2e8",
"#I c #5c524d",
"#J c #b08456",
"#K c #aa9949",
"#L c #efe8eb",
"#M c #695661",
"#N c #c9b5b8",
"#O c #5a6e8f",
"#P c #927855",
"#Q c #a0a2a2",
"#R c #463438",
"#S c #c9c3ae",
"#T c #afb5c9",
"#U c #3c2f31",
"#V c #96822e",
"#W c #edeeef",
"#X c #84685d",
"#Y c #bba9a4",
"#Z c #b4a28c",
"#0 c #b6a78c",
"#1 c #e1e7ed",
"#2 c #d3d0dd",
"#3 c #c2ac8d",
"#4 c #9b9aa1",
"#5 c #9e7a72",
"#6 c #744d4f",
"#7 c #9e726b",
"#8 c #907875",
"a` c #3b384d",
"a. c #562820",
"a# c #340d18",
"aa c #ad927a",
"ab c #92878f",
"ac c #4b4c62",
"ad c #8f8176",
"ae c #776367",
"af c #9e866c",
"ag c #886148",
"ah c #ad8473",
"ai c #141014",
"aj c #54403e",
"ak c #8e6869",
"al c #392a2d",
"am c #673728",
"an c #aeb5ba",
"ao c #7e5547",
"ap c #cac5d0",
"aq c #b59e88",
"ar c #dedce3",
"as c #d4bfa4",
"at c #3e1e1a",
"au c #7889a5",
"av c #381520",
"aw c #4b291f",
"ax c #b8a19f",
"ay c #4b1828",
"az c #d4d6de",
"aA c #eae8e6",
"aB c #6e7676",
"aC c #ae9563",
"aD c #786e76",
"aE c #9d8153",
"aF c #a8aeb4",
"aG c #5c5a65",
"aH c #c9d2da",
"aI c #3c4062",
"aJ c #c2c1c0",
"aK c #967960",
"aL c #68605e",
"aM c #262425",
"aN c #4c3e24",
"aO c #b5b6b7",
"aP c #90715e",
"aQ c #be9840",
"aR c #422729",
"aS c #b89326",
"aT c #d9cf95",
"aU c #cab5a2",
"aV c #b78473",
"aW c #68503c",
"aX c #584c56",
"aY c #868687",
"aZ c #7a6657",
"a0 c #686171",
"a1 c #cebd93",
"a2 c #32161e",
"a3 c #5c3838",
"a4 c #b0a062",
"a5 c #daceb5",
"a6 c #8d584a",
"a7 c #bcb05e",
"a8 c #000000",
/* pixels */
"####################################################################################################################################",
"####################################################################################################################################",
"####################################################################################################################################",
"######.vaYaYaYaYaYaYaYaYaYaYaYaYaYaYaYaYaYaYaYaYaYaYaYaYaYaYaYaYaYaYaYaYaYaYaYaYaYaYaYaYaYaYaYaYaYaYaYaYaYaYaYaYaYaYaYaYaYaYaYaA####",
"######aY`V.h#Q.h.a#v.a#vaY`t.G#8.Gad.0aZ.0`E`#.EaR#z.G.0#8aK.0#X#XaZ#z.O`2aW`N`E#D`E`N`N.Raeae.C.k`P`H`t.X.6.6`va#a#a#`v`v#U`f`F####",
"######.l#4`W#2#2#w`Fap#w.c.G`I#xaaax#cax#0.R#f#G#X.w#b`x#b`x`O`O#c#c#c#t.pag.w`N`Y`Y`r`pafaPae.C`0#v#4`H.X`va#a#a#`L`La#a##a`faO####",
"######.LaD`Wap#2#w.U`F`F#TaD.Dakao#6#M`p#m#jaW.d.B.w`O#y`O`O#c.n#c.n#cah#p`e.7#j`E`E`U#8.Gab#Y`u`X`VaDaG.Ia#a#`L`L`L`La#a##Dai.c####",
"######aY`naz#2.2`1.U.U`F.Qa0.z#6ad#d#.#Z#F`g`E.eaP.W.w.n#x#xah#x#x#x.4ah`4`eaE`g.O`Y`U`rapaH#2.y#T`0`Pal`M`L`Lawa2a2ata#`Ma2.MaO####",
"######.l`n.yaHaz#2#T.U`F.Q.L#Ra`acac#M#Z#F`g.k`y#p#x#xah.4.4.Y.Y.4ah#t#taP`e.B#z`E#f#o`Wap`1#va0aD#M#Ra`#U`M.z`0#R#Ra0ae`v#iaMaO####",
"######.Lai#Daba0aX#i`P.Q`W.NaIaG.S.S`V#Y`p`C#P`j#C#xahah.Y.4.Y.4.4.Y.Y#t#p.p#o`g#f#z`N#0.2aHa`a`#iaRalaXaX#2`8#e#T.c`K`8#1#LaD.c####",
"######.l.s.5.N#n.N.D.6aD#1.t.t#1#w`X`uax`r`g`r.O.p#xah#5.B#t#t.B#t.B.YaP#p.p#P#zaWaW#C#F.yaO.s`M#ualac#MaD#1#T.y#T`F`F#e#T`F`taO####",
"######.LaM#iaD#2ak#6aw`t#2`1`1azaF.m`I.w`r.0aq`Y.paPag.O#Ga6#o`4`m#p.O`y.E`Y`U`g`g#z#X#F#e.L`n`f`f`MaI.za0`D#W#1#H#l#H#1#W#W`V.c####",
"######.l``aiaD.y#5.`.D.v#L#l#1#WaF`#.a`z`r`r#Z.O.paoaw.u#ua3.p#p#k`e.eataR`Y`r.k.C`g#o`p#j#R#D`f.6`M.zaX#Mar`K`u`u`u`u`u`u`F`V`F####",
"######`HaiaM...y#c.naP`daTa5aH#1aF`##maqaC#m#Z`J`e#p#6`y`2#Gag#t#7`ea3`y`2#X#m#j`g#XaK`p#Mal.s`M#u#U.Iaj`t#1#w#w`1`1#w#w`F`1`HaO####",
"######.l``#Q#A.j`zaa#`#q`T.H#waz#Q`##Z#Z`p#`#0`J#G#7#taP#p`4.4#x.W#7`4aP#pafaq`g`g#PaK`r.D`M#uaMalal#DalaL.t#1#1.2.2.2#H#1#H`HaO####",
"######.l`fa5a4a4.f`ca4.#.x`T.Z.r#Q`#..#0.J.V#0.daR`maVaVaV.4.W.Wah#5ah.4.Baq#3.R#X.0`U`zaL#u#D#D#D#D#i#u.X`t.qaF`u`u`uaFaFaHaBaO####",
"######aY`Z#m.Ja4#r#ra7#K#`aT`i`D.h.R.c#3#FaU#Zaj.g.A`4.4`4#kaV`O.n#7a6`m`m#b#3`a`N#Paf#Z`t.d#u.ual.d.X#DaR.Xanaz.2.2azaH.2azaBaO####",
"######.l.k.JaE`3`.#r`c`k.7#m#e.r#4#4`w..#`.##ZaW`v#Ba6a6#B#BaV.n.n#t#B.b.p#b#0`p`U`a`p#m.G#i`y.E#6#G.Xaj#iaN`V#w#w`F`F#w`F.2aB.c####",
"######.l.C#5`z.f`.`.`.#r`a`U`W.2.q#e#A..#0.##``C.u`y#B.8.8`Sa6a6a6.Da6amao#3#m#m.Jada4#4.0aja2atat.e.3#aaR#u.RaF#hananaF`1#1aB`F####",
"######aY.K.`aC`c#r`.#r`c#KaaaxaA.vap`R.##3#3#Z#C.d.g`e`S.b.ba6.A.A`e#G.b.`#b#.#Z`r.J#0`r.N.X#G`3`s`Bat#D#D`n`##H#H#H#H.2#1.2aBaO####",
"######.L.G.naK`s`l`b`b`c`s.Yaaap.2`1#A.V.j.j.j.0.E`v`A#Ba6a6`S.Aa6#B.p`5aj#m`7#m`p`p#0#m.R#I`EaSaS#C.g.M.MaMaXan#h#han`F#W#1`V.c####",
"######aY#6#7#X`E.s`C`#`n#zak.B`G.r`1`w`waqaCaCaE.Oavav`2#Ba6`S#B#B`Saoa3.g`z#j#Faf`p#0#Z.R`E#faQaS#G.g.6`Mal`7`1`1aH`1.2#1#1`HaO####",
"######aY`Y.C.CaZaMaiai.3aWakad`G.r`G`wasaCah#PaCao.uav.e.8.A.Aa6a6.A#z.u.g`z`Naf`aaf#`...J`NaW.7`h#G.g.M`M#R#2#1#1#1#1.2`D#W`t`F####",
"######aY.F.``gaW`faiaial.D#p.o.r#2#S`wa1.w.7#P#J#P.e.uata..8a6.A#kaoaw.u`M`r`U`U#C`U#0#A`Ra1`x#3#y#c#.aW#a#4aH`F#h`u.U.2.2.2a`aO####",
"######aY.laZ.C.5#EaM`n`PaeaP..`8.Z#A`w.#.jaE#o#o.Y`2at.e`Aa.`j`jam`j.e`Maj`p`U#XagaE#3`R`w#3#c.n`O`O#b.T#Z`8#l.2#HaO`X`F#w#O.M`F####",
"######.L`V.k.C#4.c#w`F`K#m#A#Aa5a5#S`w#3.i`Q#C`5`4`Y`ja.a.`j`j`j`ja.aw`A#P.O#j`5aZaE#3as`waC.Y#x#J.W`O`O#y`x`w#l#HaH`1#w.QaH`HaO####",
"######aY`t#aak#uaMal.5.N`R.V`wa5#A#S.x`G#`aE#f`e`B`Y#G`j`jam`jam.8`ja.a.`Y`2.O#f`gaE.##A#Saa`4#t#t#taVaV.n`O`OaU.t`D#WaH`Xac#EaO####",
"######aY.m#u#X.K.X`Z#I#3aU`x#3a5`was#S#A`z#o`B`Y`e.p`5.b.b.b.b.b.b.b.b.bam`5`2.E`g`a#3a5a1#`.B.B`4`4`4`4#taV.W`O#bab.5``.6````.c####",
"######.l#U#6#..A#6.``U`x#c`Oasa1asa5aTa1aK#C`5.b`ea6aga6a6.p`S#B#Ba6.A.A.A`4`e.O#zaE#3a5.#as#J`4`4`m`m`m`4#t#J.n`O#y.G#a#u#u.6`F####",
"######aY`0#m#y#.#d#daaaa#x#ya1.#as#Aas`z`a#C#G.b.paga6#k`m`m#k#k#k#k`m`4`m#t.p`5`gaK.#a1a1.V`O`4#ka6a6a6#k`4#t#J.n`O`x#y`xaUaLaO####",
"######aY#d`8`8`8`8`8`O.4.B#xa1.V.#.#a4aK.Y`4#f.pa6#k`m`m`m`4`m`m`m`4#7.B.B.Y`magag#C.TaUa1`OaC`4`5.b.b#B`S#k`m#t#J.n`O#b.TasaZ.c####",
"######aYabas`w`w#N.c.7.B#p.4.Ta1.i.w#P`B.J#P`5ag#p`m`m`4`4`4`4`4`4`4`4`4.B#t#5#t#oag.j.T.i.w`h#o.b`jam.b`S`S#k#k`m#t.4.n.n#y.kaO####",
"######`K.m.m.m`Z.m`Z.m.m.m.m.daN.m#R.m.m.m.m#U.m.m.m.m.m.m.m.m.m.m.m.m.m.m.m.m.m`n.m.maN.m.m.m#a`n`n.d`n.d.d.d.m.d.m.d.m#R.m.maH####",
"####################################################################################################################################",
"####################################################################################################################################",
"######`D`D`D#W`D#W#W`D#W#W`D`D`D`D#W#W#W#W`D#W`D`D#W#W#W#W#W`D`D`D`D#W`D`D#W#W`D#W`D#W`D`D#W`D`D`D`D`q`D`D`D`D`D`D`D`D`D`D`D#W######",
"######ab.M`M.s.s.sal.s.6`M.g.M#Uai.M.g.s.s`n#DaiaiaN`Z.m`Z`naM#E.m.m#U.3.m`n#EaMaM.salal.6.6.6.3`M.s`n.s.M#a`#`f`fal`M#D#D#D.6aJ####",
"######aY.5`E`EaW`gag#.#n`p#z.oaA`7.Iag.``pasaK#uawa1aT..#h`Xau#4#F`3#3a4a4#0#Q#O#s`a.j#c.z`Y.``a.0#d`8.v#n.t#L`8.`.`#7#pa6`eaRaO####",
"######.l`n`M#i`yat`y.z.c`8.c#2ar.t#dax#t#d#N#d`Maj.T.i`c.h.h`l#F.0#0#S.#`w..#``p.J#KaC.j.t.Gax.P`rax#L`R.vaA#1#2.zaya..b.za..gaO####",
"######.lalal.`#6#a#ual.q#2#2aHaz#n#N`x`x`xaUasab.T#o#f`g`p...##Z`U.c`w#S..`r`raY.k`J#faUaraJ#n#L.v.2#L.y.P#H.2.N`L`L`L`La#a#`vaO####",
"######.l.sa`.D#6aR#M.Q#n`1`1au.q#e#N.T.T`x`x`x.c#Z`JaE#Aa5#A`w.#`z..`G.Za5#S#`.V`a#j.E`U#n#Y#e#laA#1#l#e#Y#n#n#ia#`Lay.za3ay`v`F####",
"######aY.5`n`P.D.o#e.q#2`1`1ap#wax#b.n.T`x`Oaq.#.R`C...J.k#Xaf#m#F.w.waqaC.Y`raq.j#j.kaW#e#max#2ar#H.v#Yax#T.Q#Ra#a#`A.z`j`L`vaO####",
"######.l#MaMaD#n#n#n`uap`1`1#w.y#d#N.B#c`x#5#c.V.k#j`g`y`5.B.W`Oaq#cah`U`U#pag#o#b`a.O`J#m#m#0#e#N#n.T#cab#T.Q#i`va#`Layayay.6aO####",
"######aY`t`faIar#2#H#w`1#wap#w.y.L#yax`x.Taqaq#m.kaZ#G.p#xax#y`x#y`O#c.n#x#t.p#BaE`r.C.daPaq`z`r#8#8#8#8.LaF`XaR`vava#ayay`L`vaO####",
"######.Lae.M`f.y.Lar#2`F`F.y.y.q`0#5.G#5#..o#0#F.k.kaN.Y`O#3`x#y#y`O#c#c#c#c.Yaoagaa`gaN.C`r#.#8.G#XaD.N#v#v.Lava#ava#a#`L`L``#e####",
"######aY#M`f.M`I.y#2az`F.U`F`F`u#M.D.D.`.D#Xaq`p`Y`Y.E.Y#c`O`O`O.n.W.w.n#caVah.A`5.7.k.O`Yaf#8`I#e#n#T`Xa0a0acava#a#`L`L`La#.6.c####",
"######aY.5.M`fa0#2az.2#w.U.U#T#vae.I.D.L`I`p#0`r`E`E.E.Y#xaaahahahahahahah.4#t#p`eaf#f`Y#faf#Y`1aH#w`u`K#M.I#Ua2`LayaXat#u`y.6aO####",
"######.l#D#Eaca`.Q#2.y.q#vaF#T.QaDalaIaIa``V#Z#F`E`g`y#t.Wahah.Y.Y.Y.Y.Y.Y#t.B#k`5.Y#faWaW#.`K`1.yaG`P#M#iala`aI`P#8#MacaXaDaX.c####",
"######aY.6.M.6.6#R`Va0.za`aI.Q.qaD.Nau.1.1.h#d`r.k#o#G`4#xah.4.4.4.Y#t#t.Y.4.B#p`5`U.O`5`5`U#e#1.Q.saRalalac.Kab`D#Laz.t#lar.N`F####",
"######`H```f#uaIaX`K#N#5a3`v`K##`D##`D`u#v`K`z`r.0`U.O#o.Y#5#paP.B.B.B.B#7aP.D.D`5af`Y.k#z#P`Wap`u`M`f#u#U`P`P#4aH`K`u.Q`u`uaGaO####",
"######.L.M`n#Ual#D`K`Wak#6.I`Wap#w#w#1aB.F`r`p`r`r`U`Y.A.`.O`y`ya6`m`m#p`5`yaR`y#z.JaW.k`g#P`r`7a``f`f#D.s.z.I`I#1.2.2#H.2.2aBaO####",
"######aYaiai``aiai.q#Y#5.`#5#W`GaJ#w#1aB#s#m`r`r#0`U`2.p`e`A`MaR#G.p`mag`2at.eaw#X`r`Y#X#o.0#.#M#U#D#D`fal.z.X#var`1#w#waJ#w`taO####",
"######aY``aiaiaiaB.Zaxax#caC`d.H`q#1#WaBaL#0`z`r#3afaw.paP.p#G`Y.p.B#J#7.p`Ya3`5`U#maW`N#P`Uafaj#u#u#ual#UaR.5#4aHaOan.Uan#h#s.c####",
"######`H``aiai.ma5#``z`r`k.##q`d`i.Z`D`t`C..#F`r.#.J`M#6#t.4.4#t#tah.nah.B.4#taPaq#m.O#P`U.J#..K#D`f`M#u`f`M.I.Rar#l#H#H#1#H`VaO####",
"######aY``aiaiaG.#aC`c`c`o#``l#q`6#S#W`t`7.##m`z`w.J`M.E`4.4aV.4.4.W.WaV#7#t#t.B#3#0#I`U.0`r`I#I#D#D#D#D#u.I#uaj`t.y`F#hanan#saO####",
"######`Haiai```7`raE.f`.#r#KaC.ja5.r#W`t#4`w#`#Z#S.J.d`A#k`4`4.A.A.n#y.nak#B#k#7.V#Z`g`p`s#F#F.Kaj#R`y.E.X.X#u`J`E`uanaOanan#s.c####",
"######.l.M.I.E`Uaf`k`c`.#r`c#Kaf`z.y`D`7.c#S#3#``w#.aNa2#B`S#B.b.A#taV.4#pao.b#paU#m.0#F`a#m#m.DaR`A`y`y#i#a#i#ialaJ#1#1#H#1`HaO####",
"######.l`f`NaP#5.C.i`c`.#r`..faE`U#Y#L`uaJ#S.##`.#`raW.g`2#Bamam`S`S#6#Bao.b.8aPaU.J`r`zaf#0`I`7#ial#G`Jaw.3al#D#R`7`u#Q`u`u.FaO####",
"######.L.6.`aK#5aP#3a7`.`.#r.f#K#x#Y#Lap`R`waU#`#3`z`g`Mav`e`S#B.b.A`4`m.b`e`eak.V`7`r`z.J#0ab`N#R`gaS`h`g.g#D`f`n#s`F`F`Fan#s`F####",
"######aY#E.K#7.W.YaZ#f#F`b`l`s`gahaf#Haz`1`w.#.w.wa4#Cawa#a.#Ba6a6`S#B`Saoao`Yaj#0.R`r`p`r..`p`7.d`saSaS`2`M.6`f.s#4#H#H#H#H`VaO####",
"######.L.F`E.A`mak`g`E.M`n`f.m#zak.o.t`G`G.ca1aa.7.7`U.Ea#.u`2`Sa6`S#B#B#Baoat`J#ZaZ.Jaf`p#`#F.RaN`BaQ`h.u.g.6.3al#e#w#w`1#waBaO####",
"######aY`V.X#z#X#X.k`Caiaiai#i.DaP`p#H.Z`G`w.VaCaEaE.7`Y.u.u`A.8.A.A`m#k.A`y.g.d#m.0`U#o`p..aU#0#.`U.7.7aj.s`M`M`7`1#w`1#waH`VaO####",
"######.lab#I#j.N.`.k.5aiaiai#a.`aP#Y.Z`G#S`w#3.waE#PaE#Cat.u.ea.amao`Sao.8.e#D.Oab`r#o#o.J.V`R`w#3#b#b#b`x`O`N#M.r#H.2aH`1#waBaO####",
"######aY.hab`8an.CaZ`7aBaBaY`I#jaq`G.Za5#S#S#`#`#P#k#p.B`y`A`Aa.a.a.a.`ja..e`Mad#C`U#f#o.7.V#A.#aq.W.W.w`O#b`xaU#n.2.2ar`X#v#s.c####",
"######aY`Z.maX`Z`n#a.F`t`t#s`##IaL.k`t`C`C`C#I`EaN.d.3aN`M.g.g`v.gav.g.g.g.6.gaN.M#R.3.m`E.F`C.F`EaN#Gaj`E`E`Y#I.KaL`t`t`t`t`n.y####",
"#######WaJap#wapaJ#waJaJaJaJaJaJ#S#waJapaJaJ#w#S#waJ#SaJaJaJaJ#w`waJaJaJaJaJaJaJ#w#S#waJaJaJaJaJaJaJaJ#waJaJ#waJ#w#S#w#S#w#w#w`D####",
"####################################################################################################################################",
"######`K.a.h.h.h.h.a.h.h.a.h.h.a.h.a.h.h.h.h.h.h.a.h.h.h.a.h.a.h.h.h.a.h.h.a`I.a.h.a`I.h.a.h.h.h.a.h.h.h.h.a.h.h.a.h.h.h.h.h.q######",
"######aM`M#a`M.O.Oal#D`M`J.X.K.5al.0`##IaX.5#IaBaB#s#s`a#V#V`a#I.F`t`tajaj`Y`E#a.F.K.I`E#aaRa3aj.6#R.Caj#i`Yal#D#Dalajaj.KajaM######",
"######alaP#Ma3.A.A.z#R#i.Dahaf.K.dajaj`t`r`U.c`F`Xau#Q..`l`k#K`t`X`X`I`I.B#X.D#I.Kak.4#t#a.z#6ao#iaj.`akak#7`2.8.Da6ak#6.A#8`n######",
"######`nah.D.`aoaoaDab#Ra3.`ak#.ad#i.I`a`R.#.y#hau`H`X.#`zaf.f#v.hauaB`t.w.wao#ia..`#5#7.G#Y.G.o`8#eakak.o`S.p#Bao.G#d.K#G#X`n######",
"#######E#6#Y`8.o#5az.t#M.D#5.G`x#N.X#Daka1.x`u`Xau`u#F`a#3.##`a4...a`t`7.i#c#c`0#6#x.o.o#Y.t#2.t#L#L.y.z.b#7.p#6.b.D`0`Z#a`P`n######",
"######aM#a#M`8#2#2.2#l`8#N`Oaa`x`R#X#R`x.7`s#V#F.#`l`a#F#S`w#S..#Za4`a`N`BaC`8.v.o.t.P#Y#2.t#n#2#1#l#Mayayayaw`L`L#aaG.5aX#M`n######",
"######aMalab#2#2#w#Tap#N.T.T`x.TaU#N#N#P`5`a#0.c.#.V`r#Z.c`Ga5#S#4a4`7.k.E`g.v.v#e.t.t#1#W#2.P.yaz.yava#ay`L`A`Layava0#s.F.G`n######",
"######`n#4#napaH#T.Q#T.P`O.T#y.T#c.T`w`E`g`w`w#0#0.##0#m`w#S.#.V#3#Z#0.0#jajaq#e#Y.y#1#H#lap#b.P.y.Nava#`L.z.``yaya#ajac`t.D.s######",
"######a`.Q#w`1`1`1ap`K.P#c#y`x`O.YaU#m`E`z.0.EaWaPaf#maa.7#x#x`U#Cah.j#F.k.E.0ax#0#Y#2#l`8.Pax.Q#Taba#a#avayay`Laya##RaI`Z#zaM######",
"######a``1.y#w`1`1#w#4ax`O#.`x#Y.G.#ad#I`N`y`e.Y.n#y`O`O#caf.Y`4ag`e`4#`aZaR.kaq#b`z#d#eax#d#x.aaF.Na#`vav`Layay`La#.Iac#s.D`n######",
"######a`.2#w`Fap#w.c`I.o#y#caU`Oax#3`aaW#f`Y#x#y`x`x#b`x`O#c#c.n.Y.p.paC#PaW.E`r`r#d#8ak`0`0aD.Q.aaDa#`va#`L`L`L`L`v`A`#`t#X`n######",
"######.mazaH#T.y.y#T#v.D.G.`.`.`ab#Z`aaW.E`gaa#y#y`x`O`O#c#c#c.n.W.B`eaK`UaW.EaK#.`N`N.o#d#vau.N#O`Pa#a#a#`La#`La#a#a2#Ea`.D`n######",
"######a`azaH.U.U.U#T.N.z.D#Xad.G`r#m.0.Oalag.W.w`O.W#x#x#x.W.W#xah#t`5#C#P`E`E#o#.`Kap#2#w#T.N.DaIal`L`L`Lavavava#ava2#Ual.C`n######",
"######.mazaz#T`F.U`uabajaR`Pa0ae#m`z`aaW.d#z#x#x.7.4#tah.Y.Yah#t#t`4`Sag#o.O#f#Xaaap`1`F`HaYaD.z#Ualavayae.z#U#M.D`v#u.IaD.k`n######",
"######a`#v.Na0`t.Q.Q`Ia`aIaI.Sac`K`r.0`g.E#Bahahah.Yah#t.Y.Y.4.Y.Y#7.p#C#P.O#z`g`I`1.2`t.5aX.I`Mac#U#v#T#d.L.Lab`K`K.c`W#u#uaM######",
"######`n`W.Nak`MaIarap.yaz.Uauau..af.0af`Y`5ah#xah#t.4.4#t.B#t.Y.BaK.p#X#o`E`5`g`p`1az`#`M#u`faI#MaX#L.2#2#2az#2azazaH.q.M`faM######",
"######a`#L.G.``M#R#L#Laz`1#H`##vaq#.`a#Z.k`5#5.Bao#6ag`4`4`4aPag.z.OaW#o.0aW#z`gaf`R`u`PaM`M#ua``P.I#WaH#w#w`F#w#w#w`1aJ`f#i#E######",
"######.m.t#8.A.Dab.vaz#l`D.2`ZaY#Zaf.J#b#6`5.p.E.e#u.E.p#k`mao`yatat`y`U`N.k`5`Naf`N.5`f`f.M#D#i`Pal#W`F#T#T#haF.UaF`Far.R#z.s######",
"######.mar#d.n#Xas.Z#S#waH.r`#.l#Z.J`z#3aW.b.A`eaRaw`y`5`4`4ao`yaR`y`Y`raKaW.C#P`r`0#i#u#D#D#u#a.X#U`D#1#1#1#1#1#1#1#H#1aY#I`n######",
"######.m.V`z#d`z#q`d`q.ZaHaH`Zad#Yaf#m.V#I.E#p#7#pao.A`4ah.W#7.A.p.`aP#ZaKaWaPaKaaaZ#u#u#ualaR`M#uaj.t.y`F#h#h#han`FaJ#1#WaLaM######",
"######`na4#K#K.f.#.x`d.HaAaH.5#F#3.J#0`waW.g`m.4aVah#tah.W.W#tahah.B#x#3ad`Y#.#P#m.G#R`f#D`MaM#U`M.X.R.qanaO`FaO#h#h#w#H#1#2`n######",
"######`n.wa7#r`oa4#`aT.r.Z`1`#.q.V#F#`...k`vao`4aV.4`4.4.n.n.4.A`4#7aaaU`p.k`U`a#Z.R.IaMa2a2a2#I.galaj.q`DaA#1#1#W`D.2aH#H#1`Z######",
"######`n`k#r#ra7#V`3.w.c`G`G`7.c`w.j.V.VaZ#D.8a6`ma6#B.4`O`Oaha6.ba6#c.V#FaZ.J`a#mad.Xa3a3.K.O.Kajaw.X.F`u`u`X#Q#Q`uaH.2aH#1`Z######",
"######.m#K#r`.#r`.`k#.#F`1ap#4`waU#3#3#3`N.3aw#B.b.8`S.A.A`m.`#p.b.b#c#0#Z.0`p`r#0adaj.uat.eaR.d#a#i#uaX`F#w#w#w`F`F#H#H`1.2`Z######",
"######.m`c#r`.#ra7`3.n`p.t.Z.y`G.##3#3.#`N`J.g.b#B.8.8`Sa6.p#Bam.8`5#c#m`z`p.J`z#madae#a`B`B`Y`J#D.g.s.5`G#HaH.2#H#H#H.2.2#h`n######",
"######`n.7a7`o`b#r`3aKax.P#1ap`G.##0.j.iaf.O.g`A#Ba6`S`S.A`mao#6ao`Y`p`r`p`p`p#m#0aDaZ.d`3aS`Q.e#D.MaM`n`X`u`u#Q`u#1#1#1.2au#E######",
"######`n.kaN#VaY`CaW#p.B..#H`1ap.##3aCaC.7#z.ua#`y#Ba6a6`S#B#Bao`e`M.0ad`paf`p#Z#0`7`CaNaQaS`B.u.6.6al.5az#H#H#H#H#1#H#H.U#O#E######",
"#######E`g`naiaiaiaWak.G#N.r`G#S`w.jaaaE`rag.ea#at.8.pa6`S`Sa6.``y`v.0`7.J`UaE`z.#.N`N.d`Q`Q#f#D.M`M.s#Faz.2.2aH.2#1`DaH.1.S#E######",
"#######EaW.maiai.M#z#X.G`R.Z`G#Sas.waC#PaEaE.E.u.uaw.b.A`m#k#k.8.u.6ad.0`paP`aaq`w#S.##b#y.w#x#XaN#u.X`1`F.U#h.UaH#1#1au.S.S#E######",
"######`##EaMaMaMaM.s`n`n.m`Z.m.m.m`n#U`n`n`naMaMaM.saM.s`nal#EaMaMaM`n`n`n.s`n#U.m.m.m.m.m.m.m#U`naM`n`Z`Z.m`Z.ma`aI.m#E#E#E.S######",
"####################################################################################################################################",
"####################################################################################################################################",
"####################################################################################################################################"
};
