/* XPM */
static char *_2_frame_5[] = {
/* width height num_colors chars_per_pixel */
"    66   100      256            2",
/* colors */
"`` c #0a0508",
"`. c #c5bd44",
"`# c #3e464a",
"`a c #8a862e",
"`b c #d4ce83",
"`c c #b7aa49",
"`d c #e0da95",
"`e c #242425",
"`f c #70483a",
"`g c #b69a32",
"`h c #e7e39f",
"`i c #5c2c24",
"`j c #765d31",
"`k c #967626",
"`l c #e1eaf0",
"`m c #a5a8a3",
"`n c #250c11",
"`o c #915f50",
"`p c #3e2517",
"`q c #9d8939",
"`r c #c9c064",
"`s c #b8a773",
"`t c #9d9885",
"`u c #3f2e2d",
"`v c #b89020",
"`w c #eaf2f6",
"`x c #a8977a",
"`y c #b4bcc5",
"`z c #b8a8a6",
"`A c #92827c",
"`B c #626466",
"`C c #846835",
"`D c #6e7781",
"`E c #401120",
"`F c #4b4949",
"`G c #54342e",
"`H c #ccbca7",
"`I c #d8ccaa",
"`J c #895447",
"`K c #967226",
"`L c #c09988",
"`M c #7b8088",
"`N c #4f4964",
"`O c #716a6e",
"`P c #e2d9b2",
"`Q c #363736",
"`R c #98857a",
"`S c #251819",
"`T c #ac7d6b",
"`U c #7a5f4a",
"`V c #ac9fa3",
"`W c #cfb2a8",
"`X c #3d3e40",
"`Y c #5f352a",
"`Z c #ccccc0",
"`0 c #b8902c",
"`1 c #ccc3ce",
"`2 c #957a65",
"`3 c #80493c",
"`4 c #101316",
"`5 c #4c3023",
"`6 c #9c8c79",
"`7 c #c8b691",
"`8 c #6f545c",
".` c #5e4635",
".. c #806668",
".# c #38161e",
".a c #343233",
".b c #754133",
".c c #cab2a8",
".d c #e0d7be",
".e c #615850",
".f c #c1b09f",
".g c #302224",
".h c #ddcec4",
".i c #6d523a",
".j c #916b64",
".k c #b38868",
".l c #988646",
".m c #e6e6aa",
".n c #b1a26f",
".o c #a17665",
".p c #cdae94",
".q c #77777a",
".r c #9e8f9a",
".s c #b2927c",
".t c #8a99a6",
".u c #715f63",
".v c #acb6c4",
".w c #ba9887",
".x c #bdbabf",
".y c #544b4e",
".z c #a79265",
".A c #3d3a3b",
".B c #816162",
".C c #5e3c30",
".D c #512821",
".E c #543e28",
".F c #cac3c5",
".G c #a47063",
".H c #6a829e",
".I c #b7aeb2",
".J c #a99a8a",
".K c #c1aa82",
".L c #a6846b",
".M c #190b0f",
".N c #312626",
".O c #a1a8b2",
".P c #251e1e",
".Q c #aa9d49",
".R c #4a5770",
".S c #3e2428",
".T c #ccc077",
".U c #4b2e31",
".V c #d5d8d5",
".W c #d6cbbb",
".X c #6c3f35",
".Y c #9c9b9d",
".Z c #a48e8d",
".0 c #bcbec7",
".1 c #868687",
".2 c #6c524a",
".3 c #c6b2b5",
".4 c #8e7264",
".5 c #e6e6b2",
".6 c #b18576",
".7 c #7f7883",
".8 c #ebe5e7",
"#` c #e3dbe4",
"#. c #42333e",
"## c #7f6f7d",
"#a c #5e3e42",
"#b c #aab0b9",
"#c c #50688f",
"#d c #a68477",
"#e c #855b49",
"#f c #d0c3a8",
"#g c #c3b294",
"#h c #977b79",
"#i c #eaeab2",
"#j c #bcac68",
"#k c #441923",
"#l c #c5ccd5",
"#m c #2f170e",
"#n c #b7a783",
"#o c #340d17",
"#p c #776851",
"#q c #f1f2f3",
"#r c #b28b7a",
"#s c #5d4649",
"#t c #929193",
"#u c #7b6f69",
"#v c #a58a7a",
"#w c #5f5361",
"#x c #543e3b",
"#y c #2f3958",
"#z c #46312d",
"#A c #cecad5",
"#B c #a47254",
"#C c #4c3f31",
"#D c #805346",
"#E c #e6edf2",
"#F c #9b9db0",
"#G c #b49688",
"#H c #8b7a55",
"#I c #1d2941",
"#J c #bbb641",
"#K c #a68e62",
"#L c #c2b4b1",
"#M c #a27e2a",
"#N c #c4a694",
"#O c #381e19",
"#P c #614f4c",
"#Q c #865e58",
"#R c #9a6c60",
"#S c #a17c79",
"#T c #826653",
"#U c #8c7e64",
"#V c #0e0c0e",
"#W c #d4dae3",
"#X c #bfc4d5",
"#Y c #b7b5b6",
"#Z c #765249",
"#0 c #312c2c",
"#1 c #8e6a2e",
"#2 c #946262",
"#3 c #72484d",
"#4 c #9a8568",
"#5 c #727276",
"#6 c #725d4a",
"#7 c #c2a090",
"#8 c #494045",
"a` c #897767",
"a. c #ccbc94",
"a# c #a37c69",
"aa c #857250",
"ab c #947253",
"ac c #a59078",
"ad c #3c3532",
"ae c #dce3ea",
"af c #5e5c65",
"ag c #ada8b9",
"ah c #878182",
"ai c #b5a289",
"aj c #cebbbc",
"ak c #1a1417",
"al c #ced0d8",
"am c #ae9b62",
"an c #866e66",
"ao c #987954",
"ap c #4a292a",
"aq c #a1858f",
"ar c #d0c5ba",
"as c #9a8e62",
"at c #775138",
"au c #6b362a",
"av c #c2ac93",
"aw c #2e1e1f",
"ax c #9e6d54",
"ay c #c6a8a1",
"az c #b8a0a0",
"aA c #2e171c",
"aB c #58687f",
"aC c #482619",
"aD c #ededee",
"aE c #dcd2dc",
"aF c #828b9d",
"aG c #b19c89",
"aH c #1d1e28",
"aI c #dcdbe7",
"aJ c #b19a76",
"aK c #7a483c",
"aL c #b8a991",
"aM c #e4e4e7",
"aN c #bc9280",
"aO c #501e2c",
"aP c #5f422e",
"aQ c #4c373b",
"aR c #be8e7e",
"aS c #fefefe",
"aT c #3f2a2b",
"aU c #9b7267",
"aV c #b6b4c5",
"aW c #b28d8c",
"aX c #624c38",
"aY c #384d73",
"aZ c #c1c3c4",
"a0 c #846c52",
"a1 c #946952",
"a2 c #54414c",
"a3 c #8a928e",
"a4 c #4e3a23",
"a5 c #d6ced6",
"a6 c #856249",
"a7 c #887777",
"a8 c #000000",
/* pixels */
"aSaSaSaSaSaSaSaSaSaSaSaSaSaSaSaSaSaSaSaSaSaSaSaSaSaSaSaSaSaSaSaSaSaSaSaSaSaSaSaSaSaSaSaSaSaSaSaSaSaSaSaSaSaSaSaSaSaSaSaSaSaSaSaSaSaS",
"aSaSaSaSaSaSaSaSaSaSaSaSaSaSaSaSaSaSaSaSaSaSaSaSaSaSaSaSaSaSaSaSaSaSaSaSaSaSaSaSaSaSaSaSaSaSaSaSaSaSaSaSaSaSaSaSaSaSaSaSaSaSaSaSaSaS",
"aSaSaSaSaSaSaSaSaSaSaSaSaSaSaSaSaSaSaSaSaSaSaSaSaSaSaSaSaSaSaSaSaSaSaSaSaSaSaSaSaSaSaSaSaSaSaSaSaSaSaSaSaSaSaSaSaSaSaSaSaSaSaSaSaSaS",
"aSaSaSal.1.1.1.1.1.1.1.1.1.1.1.1.1.1.1.1.1.1.1.1.1.1.1.1.1.1.1.1.1.1.1.1.1.1.1.1.1.1.1.1.1.1.1.1.1.1.1.1.1.1.1.1.1.1.1.1.1.1.1aMaSaS",
"aSaSaSah`O#ta3.7`O#han`2#U.Ba`#u.AaX`paP.Ba``2a``2.4a0#T`U.2`YaPa0#6`u`p#paa#u#p.u.u#6.uaf`M`BaA.M`n#o#o#o.#`naAad`F#C.B.ea0aQ#YaSaS",
"aSaSaS.1aF#X.x`V##.Z.6`z.saGav`6.i.iaP.L#7#Nayay#7`L.w.w.w#ra1atao`6#6`Ga`ac#v`Ra0.B.u###F.Y`M#o`n.##o`E`E`E#o.#`X.R.uaq#w.r#C`yaSaS",
"aSaSaS.1.1`y`y`V`8.j#Q`8.2..aL`6aXaPaXac#7#7#7#7.waN#G.w.waW`T#D#e#K.iaP`U#4.4a7.J.I#FaF`O`O#w#o#o#o`E.#`E`E`E#o.g.N#x`RaT`NaT.xaSaS",
"aSaSaSahaF.v.vah#Pa2.B.Z.Zac.n`6#Ca4.`.6#r#G#r.6.6#r#r.6.6.6`T`o`j.LaXaX#6aqaz#Aal#l`y.r.uaQ.a#o#k#kapaA.#.#.#aAaA#8.2aqaQ`8#0#YaSaS",
"aSaSaSahaF.v.v.r`8aT`N`X`N`6`V`x.`aPaP.k.k#r.La#a##d.La#a#a#.o`o#D#4.C.i.iasaV#l`y#5aB..a2aT#.aT#k..a2aQa2##`uaw#s.ua2#S#S.jaQ.xaSaS",
"aSaSaSaF.N`D.O#F`N`N.RaYaY.Y`xas.2at.Xa##r#d`T.6`Ta#a#`T.6a##B#Q`j.LaP#D`j`R`1ae.1#.aQaQaw`N#8aFaMajaV.xaV.I.8.8.8#0aw.S`G`5aw#YaSaS",
"aSaSaSah`naH#A#EaM`lae.O#F`z#vac#H#T`fao#r#d.oa#`Ta#.o.oa#.o.j#Q`U.L.E.i`U#4ag.0#5awaw.g#8#w#w.x#l.x`y`y.xaV.x#b#Aak`S#6.jaQ.N`yaSaS",
"aSaSaSaF#O.SaVa5#l.F`l.R`O.J#v`R.Ja0`fa1.j#Z.C`fa1a1#Ba1#D.E`G.Ca6#4aX.ia6#4.I`V`BawaHaw#0`N#..0`w`laIaeaeae`l`w#E#w#C.B`U#8aH#YaSaS",
"aSaSaSah#s#haDaMaM`l`w.y#5.n`6#Kavan.X`J.C#OaA.U`f`oa1#e`G#O.SaCa``6aX#6a0`2`A#P.g`SaHaA.U`8aQaV.0#b.O.O.O.O.O#b.V#t#P#Qan`N#I.xaSaS",
"aSaSaS.1.2`s`d`I.V.V#Eaf#5#n#v`6`Ha0`Ga6#2.C`G`Gat#R`Ta1.X`i`G`f#vac`f#Tab.L`2aQ#0aw#O#0aT#x#8.0#A.0#l#l#laZ`y`y#W`y.e#h..`D.a#YaSaS",
"aSaSaSah#u`r`b.m`daZ`l`F#u.f`6.za.a`#Oa6.o.o#R#R.G.6#ra#aU#Ra1a0ai`x.E#H#U#v#h#xaA.g.S#0awaAa4agaDaM#W.V#W#Wae`l`l#q#Y.e#w.7#y`yaSaS",
"aSaSaS.1#H`s#j`b`h`Z#E`F.1.f.zaGa.a``n#D.o.k.6`T#raR#r.6a#.6`Ta#.p.J.`#4ab`x`A#saAaAaAaA.gadaQ.y.r#b#b.O.O#b#b.v#Wae`l.Ia7`O`Q#YaSaS",
"aSaSaS.1`a.nam`7`PaD`w.y.n.xaG#n`7a`#m`Y#R.G`T#2#R`L`L#r#e`o#R.L.caG.i`6#HaG`A.yaT.g.S.S#s`u#ma4`Oal.V#W.V.Val#W.Val`laIaV.u`S.xaSaS",
"aSaSaS.1`a`q#K`x`V#f`l`O.x`H#naLa.#U`uaC`J#2`J`3#2aRaR.6#2.b`3a#.f.n#u#K#U.J`taXaQ`G.i.C.`a2aQa2#C.v#X`y`yaZ`y#l#Walae#E#`..aw#YaSaS",
"aSaSaS.1`a`..Q#Hac.xaD#t#f#favav#g`2a4#m`3.bau`3`o`J#Q#D#QaK.X.Lav.J#4`xas#n`6.u.S#O#O`p`p`p`G.gaQ.Y.v#b.v#b.v`lae#lalae#t.2aw`yaSaS",
"aSaSaS.1`a#J.Q.n#d.WaD`yar`H#g`s#g#KaX#m.D`J`3au`3#2#2`o.X.Xat#vai#4ac`x`6aLa7anaT`k#M#1`faw`Saw.A.Yaeae#Waeaeaeae#W#baB.R`Q.P#YaSaS",
"aSaSaS.1as`.`aabaW.J.8`Z`Z`7#gai.n.s`j#O#o.X`J`J`J`J`J`J#D#D`fa0.J#U#vac`xava7#u.N`q`g`v`5#mak.P#0#t#b.v#b#b#W`l`l#W.t.H.R#c#I.xaSaS",
"aSaSaS.1`F`Q.E#eaU`xaeal.F`H#g.s#KaJa0.D#m#kaK`J`J`J`3#D#D#D#O`8`6a`#4#4`xaL`6`O`p`0`v`K#Oakak.gad#Y#l#l#l#lae`l`l.v#c#c#caYaH#YaSaS",
"aSaSaS.1#Vak.`#Q.j`VaI.V#fa.avamao.Lao.C#m#O`i`3`o`o`o`o#Q`Yak.i`6#U#4ao`x`7.J`6aXab.k#1`p#m#m.g`AaM#E`w`laeae`w`l#caYaYaY#I#I.vaSaS",
"aSaSaS`M#Vak#a..an`7`P`Z#f#f#7aJ`kao#K`f.##OaC`Y`3`o`o`o.X#O#m.u#4#vab#Hac`7.W`H`W.K#N#7#van.Ea2alaZ.v.O.O#Xae#W.taYaY#y#y#y#I.xaSaS",
"aSaSaS.1`e`X`8#T`6a5.V`IaZ.T.n.naoaxao#1#OaOaO.D.D`iau`i.D`p#m#U#H#4atab`x`7#f`7aG.w.w#7#7ayay.faIae#W#W.O.t#l.O#yaY#y#I#y#y#I`yaSaS",
"aSaSaSaha3#b`V.f#f`I`I`I`H`H.Kamaoat#Q#1`YaC.D`i`i`i`i`i.D#k.C`2.`a6.i#HaJa.ar.K#K.L.L.kaN`L#7#N`W.Waeae#l#l.v.v#E`l`B`4aHaY#I#YaSaS",
"aSaSaSah`e.e`z`H`H`H.h#fa.#fa..z#1`f`ja6.C`Y`i`iauauauau`i.D.X`5`Uap`ja0aJ#f#f`7a#.o#B`T.6.6.kaN`L#7.WaD#Eae`y`D`#.O#t`F`#aY#I`yaSaS",
"aSaSaS.1#.an#fay#7#f`I`7#f`I#gasa6#e.X#eataK.b.b.b.b.b.b.b.b.Xau#DaC#D`jaJ#f#fa..L#B#Bax#B#B`T`T.kaN#7ay`B`e#V.M#V#8.x#wafaB`e#YaSaS",
"aSaSaSah.e.say#G.pa.#f`I`I`I#Gab`CaPaK`J`o#e`o`Jat`3#D`J#e`o`oa1a1`f.ia6aGa.`Ia.#N`T#Baxa1`o#B#B`T.kaR#7.w#s.S.S.S#8.7.3.u`u#V.xaSaS",
"aSaSaS.1aa#G#raN.pa.a.a.`I.Kasabat`Yat#e`o`o`oax`o#1`o`oa1ax#Rax#Rat.i`C#7a.#f.p`7`T`o`o`J`J`oax#B`T.k`L#7ayaz`W.3.f.Iaj.3`V.e#YaSaS",
"aSaSaS.1`6#da#ao.p.pa.a.`s.zao.la6aK`J#e`oaxaxaxaxaxaxa1.G.G.oa#.oa1#e`j.sa.#g.KaJ.k#e`3.b.b`3`oaxax`T.kaN#7#N`War.h.h.h.h.h#u`yaSaS",
"aSaSaS.1a`a##Baxam.p`7.Ka#.la0#Ma6#e#1a1axax#R.Gaxax.G.GaU.o.o.oa#.oaba6ao.p.K.p.s`K#eau`i.b`3`3`J`oax#B`T.kaN`L#N`W`W`H.f.f`B#YaSaS",
"aSaSaS`m`Qad`Qadad.Aa4.Aad.A`Qad`Qadad.aadadadadadadadadad`Q.Aad.Aad.Aad.A.A.A.A.A`Qad#0ad`uadad`5ad#zad.Aada4.AaQ`X.A`X`X`Q`QalaSaS",
"aSaSaSaSaSaSaSaSaSaSaSaSaSaSaSaSaSaSaSaSaSaSaSaSaSaSaSaSaSaSaSaSaSaSaSaSaSaSaSaSaSaSaSaSaSaSaSaSaSaSaSaSaSaSaSaSaSaSaSaSaSaSaSaSaSaS",
"aSaSaSaSaSaSaSaSaSaSaSaSaSaSaSaSaSaSaSaSaSaSaSaSaSaSaSaSaSaSaSaSaSaSaSaSaSaSaSaSaSaSaSaSaSaSaSaSaSaSaSaSaSaSaSaSaSaSaSaSaSaSaSaSaSaS",
"aSaSaSaS#q#q#q#qaD#q#qaDaD#q#qaDaDaD#qaDaD#q#q#qaD#q#qaD#qaD#qaD#qaD#q#qaDaD#qaDaDaD#q#i#q#q#q#qaD#q#q#q#qaDaD#qaDaD#qaD#q#q#qaSaSaS",
"aSaSaS.1``.g.g.M.P`F.a``ak.P`S#V.Makak`S#V#Vak.P#V``ak``````#Vakakakad#C.A.g.P#0#Vaw`u`S``````ak``.M#m.gak.M``ak.M`eak.M#0`4``aZaSaS",
"aSaSaS.1`S#e.j`Y#P###Y.M#6aUaP.S.u.BaXaz#d`p#vaj`R#x#p#6`F`B.Y`7#f`7`P`d.daLas.z`5#Z.G`8.S`SaC`i.X`G.C#2#Q#zaw`8#6.`#d.Z.U.gaH#YaSaS",
"aSaSaS.1`S#Z#r.6#3#3.B.S`o#2#QaQ`uaP#S#d`A.San`A`O`Aa7a`.I.va3a3.Y`r#j`r#H.qa3.Y`tan.ja1.e.u.j#R.4#h.S#D`J`G#ma0..#3.o#Z`5`G.g#YaSaS",
"aSaSaSah#..j#Gaz#R#S..ap#3#Q#3aQ`u.C#Z`2..aQ#x#C#.`zac#L`y.O.Ha3`7`7.l`g.1aF.taF`Mac.j.oaP.U#3.o#2#2.U`8`8an.Z.B.4#S#2`3.baK#z.xaSaS",
"aSaSaSah#8#P.2af.j.j#d.3#S#Z#h#`.uaQ#Q#Qacaj.4.S#z`H`I#g`y.t.H.t.nas.Kam.n`V.YaBaB#U`saNaQ.X#Q#h.4.Z.h#A.3#`aD`1.Ba7aU#2`J#D.S`yaSaS",
"aSaSaS.1.a#O`G`5.S`G#s`1a5.IaEaI#`#h.w#S.Z`W.Zaw`G`W#j.n`t.t`mama`aL`H#g`7#gaLas#4aJamazaE##.J`z.Z#G.8`1a5.8#EaE#3aO`Y#Z#3`i#m#YaSaS",
"aSaSaSah#0.N#e#3.U.S.Saga5al#WaI#Aajay#7ay`W`Wa7`z.L`j`jas#n#g.J#4`7`H#f.Ias`t#U#6a4`j`W#`.3#A#`araEaDaj.3aIaIah#k`E`E`E.##o`n#YaSaS",
"aSaSaS.1.NaQ`8#Z.S`N.r#AalalaFaV.I`W`Wayay.p.f`H#n`5#U`I`I#f#f`7`x#Y`I`P.dar.KaL#U`U`G`6a5`z.3aM#E`laMaV`zal#Aa2#o`EaO`Y.D#k`n#YaSaS",
"aSaSaS.1`X.a#w`8a7aVag#A#l#l#X.x`zay`L`Way#Naz#g#u.iav`x#ua`#KaG`xaG#naG`x#KaJaiaGa0.2.2#Laz`zalaIaIa5.faz.Iag.U#o#oaO#3au#k`n.xaSaS",
"aSaSaS.1af.g##aj`1`1ag#l#X#A#X.0.J.c#S.w#7`2#G`7#6a0ana4`f#R#d.w.w#r#d.L.L.j#eaoaL#H.`#C.JaG`z.3`1aE.3azaq.v#FaQ`n#o#k#kaO#k.M#YaSaS",
"aSaSaS.1.uaH`#aEaEaI#X#l#X#A#XaV`Aay`Lay.c#GaGaG.e#p.C#D.L#7ay#Nay#7aNaW#r.o`J#D.L.z.2`u`2.w.Jac#haq#h#ha7#b#F.U`n#o`E`E`E#k`n#YaSaS",
"aSaSaS.1.uawaH.0.r#`al`y.0#X.0aV`O#S#haq#d.ZaL.J`j.i.E#h#7#N#N#N#7#7.w.w.w.sa##Da6`x`Ca4`Uac`6#han.u####.t#taF.##oaA`E`E#k`E```yaSaS",
"aSaSaS.1.e`SaH.raValaI.0.v`y`yag`8.B#Q#Q`8.BaG`6aXaX.E.L`L#7#7#7aN.s.s.saN#r.6`oat#K#6.`.i#4a7`R`z.0#b#t`O.u.R.##o#o`E#k`E`E`n#LaSaS",
"aSaSaS.1#sakaHafaEal#W`y.v.v.v#t`8aQ.u.r#G`6aLas.`aX`G.L.s.s#r.L.6.6#r#r.6`Ta#a1at.L.i.`.i#daz#AalalaVaV#wa2aTaA`E#k#aaAawaO.M`yaSaS",
"aSaSaS.1aw.N`N`Nagal#AaV#F#b.v.O..aT`X#y#y###n`x.`#6`Yao#r.6.L`Ta#.La#.L`T`T.o`oata#aXaX.i#4`z#l#Xaf`Naf#aaT#yaQaQ###w#s`N##.y#YaSaS",
"aSaSaSahak.Pakak#..7afa2#.`N#Fagaf`BaB.RaY.Y.J#K.ia0`Y.o.6#v`T.L`Ta#`Ta#a#a#.o#Rat.LaP`jat#U.xae#F.a.U#..g`N`Nah.8#`#AalaE`1.7.xaSaS",
"aSaSaSah``ak.gaQ#wagaj#h#a`nagaS#qaS#q.v.tagacacaa#haPax.6a##RaU.oa#.oa#.oaU.B#Q`j.L.`.i#6ao`V.F#Fawaw.S.a#w#w#Fal.Iag#b#b#baf`yaSaS",
"aSaSaS.1ak#.#y#0.gagag#2#s.U#F.F.F.0aM#5#w`tac`xac#4`fa6a6.2`G`Y#Qa1axa1`j`G`u`G#Z#4.i#6#ea`.J#t.y`e`SaH.Sa2aQ.r`w`l`laeaeae.q#YaSaS",
"aSaSaS.1akak.Makakagag#S#2.4aD.Valal`l`D.e.Jac`xai#4.C`JaK`p#map.X`Ja1#e`Y#k`paC#TacaX#Ta0ab`R.eaT`Saw`S.S#sa2#tal`y.v.v#b.v`B#YaSaS",
"aSaSaS`M#V#V`4`4.e.daz.w.s.z`d`h#i`l`w.q`B#n`xasav#4ap#Q#R#Z.C.Catax`T.G#DaP`Y`f`2.J.ian`2`2#d#s.g.gawaT`u#.a2`tal#Y#Y`y`y.vaf`yaSaS",
"aSaSaSah#V`4#V#0.daLamacas`7`b`d`h#l`w`Oafav`xac#g`6#m#ZaU`Ta#.Ga#.6aW#d.o#S.oabaJaG.`a`ao#4`R.2aA.g.g#0awaAad.7aD#q#E`l#E#E`M.xaSaS",
"aSaSaS`M#V#V`4.e`7`x`c`c#J.n#j.T`h`Z`l`O.q#LaJ`x#f`6#O.C.G`T.6`T.6aRaR.6.G`T`T.oavaiaX#4#Hac`6#waAaAaAaA#O#8.SaP`O#b`m`m`m.O.e#YaSaS",
"aSaSaSah#V#V``.7`x.l`c#J#J.Qam`s`I.5#q.u`t`H#naGa.asaT`pa1.G`T#2`o`L`LaN.j#D#2.o.cai#6#v#H.J`t.eaQaT.U.Ua2a2aw.U.y#b`y`y`y`y`B#YaSaS",
"aSaSaS`Mak`u`5`2#4.L`g`.#J.Q.z#K.J#L`w.q#Y#fav#na.`6#C`E`J`J`3`3#e`T#r.6a1`3.ba1`7aG#U.z#U.Jac.uap.U`G.C.EaQ#x#a`u.0ae#W#W#W.q`yaSaS",
"aSaSaS.1awan.j#S#T#j`c`.`.`..Q#M`R`zaD.Y`H.F#g#n`7#K#P#m`Y`3auau`J`J#D`3#e.b.C#R`7`6ac`x#4aL.Z#u`G#O`5aC`p.gaTaA#zah`m`m.O.O.e`yaSaS",
"aSaSaS`M.M#T.o.o#T.K`c`.`.#J.QamaW#LaD.F`Z`H`7`s.KaJ`U#O#Oat`J`3`3#2#R#2.b`f`3.4#ga`ac`xasaL`R.qaQ`j`g#Ma6#m`Sawad`B#l#l#l#l`O#YaSaS",
"aSaSaS.1`e.2`2aW.6a0#p`c`r`r`a`C#daqaMal`Z`H`7aG.naJa0aC#o`i`3`J`J`J`J`J`J#D.iaP.Ia0acacacaL`6.q`5aa`g`vaP#mak`S`e#tal#l#l#l#5`yaSaS",
"aSaSaS.1.yaX#2ax.j`U.`aH`F`ead#D.j#4aeal`Z`H`7am#r.zao.C#o.#.X`J`J`J`3#D#D#D`p#zai#p#4#4`xavac#ua4#1`v#M`p#mak.N#0`z#l#l#laZ#5#YaSaS",
"aSaSaSa3#0.NaT`uad#0#0#V``#V.PaT#.#C`O`B`B.e.e.`#Ca4#C.g.M.M`n`p.Uapap.S#z.g.M`S.y.A.Ea4`F.e`F.A.P`p.Ea4.M``.Mak`e#5#5`D`D`O`Q.0aSaS",
"aSaSaSaDaZaZaZaZ.F.FaZaZaZaZaZaZ.FaZaZaZaZaZaZaZaZaZaZaZaZaZaZaZaZ.FaZ.FaZ.FaZaZaZaZaZaZaZaZaZ.FaZaZaZaZaZ.FaZ.FaZaZaZaZaZaZaZ#qaSaS",
"aSaSaSaSaSaSaSaSaSaSaSaSaSaSaSaSaSaSaSaSaSaSaSaSaSaSaSaSaSaSaSaSaSaSaSaSaSaSaSaSaSaSaSaSaSaSaSaSaSaSaSaSaSaSaSaSaSaSaSaSaSaSaSaSaSaS",
"aSaSaS`m#t`t#t#t#t#t#t#t#t#t#ta3`ta3`t#t`t#t`t#t`t#t`t#t#t`t#t#t#t#t#t#t#t#t#t`t#t#t#t#t#t`t#t#t#t`t#t#t#t#t#t#t`t#t#t#t#t#t#baSaSaS",
"aSaSaS`e`SaHaH`4#V#V`4akakak#V````#V`4.PaHaH````````````#Vakak#V#V#V.P#m.N.a``.M````#V#V````.M```Sak.M#V#V#V```u###P#V#V#V``aHaSaSaS",
"aSaSaS#0#a#C.7.Rak`S.e#u.a.P.P.N.g.g`u`u.Z#U#V.M#V``#V`S`S`S`SaQ.ea4.B`Ua0aT.SaP#a.M`4akaO.GauaOaU`Gaw#Vad.y#8#z`8#U`e`4`4akaHaSaSaS",
"aSaSaS#0.XaQ`z.F.a`G.o#Z.S#s..#xaW#vaT#6az.ZaQ#P.eadad`OaiaL`x`I`P.d`7`Aaca4#a#SaUaAak#maO`iap`G#2#QaP`Sa4.`#Pa0#d.e`u#0#0aT`eaSaSaS",
"aSaSaS.a#S.X.C#P`G`8#2#e#x.Ua4.Ba##ha2#p`z`O#Ua7.B`t#b.O.t`V.T`r`b.Q`Ma3`Vac..`o.j`8`8an#R.Ba7.U#D`J#Z`n..#S#Z.j.j.Uap`5.i.B.NaSaSaS",
"aSaSaSadajaUaUaU.U#a#2#D.S#.#a.i#d#h`paQ#xaQ`A`6#NaZ#b.HaF`ma..k`qas.q.taFa3.rabaU.iaQ.X.j.G.G`n`8#3`8...2.BaU#2#Q.C.X#2.j.B#0aSaSaS",
"aSaSaS#0.u#h#h#Saqaq#D.B.3ah#x#3#Qa``WaqaT`uaz`I.x`y.O.HaF`m.Q#7.z.n`t#F.HaB`O#7#7#x#a#3.j#haqaz#A.Z`1aD`1..#haU#2`J#DaK#S`A.NaSaSaS",
"aSaSaS.NaTaC`G#s.3aE.JaV#`aI..aq.o`2`W`W#Oaw#G.p`.`t.t.t#j#Uas`H#gavaL#nac#U.z`s.k`1a7..`z#S#v.haEa5.8#E.8aq`Gau#2#D#3`Y.u`N`eaSaSaS",
"aSaSaS#0#ZaQ.S.S.7aE#A#WaIaEar`W#7az`Waj..a7ai`K`j#U.n#Y#n#UaL#f#f`Hai`tas#paX.i#G.8`1.3.8.F`1.8a5#LaEaMaV.S`E`E`E.##o#o#x`B#0aSaSaS",
"aSaSaS#0#D`G.S#w.0#Aal#F#b.x.3`W`Way`W.f`WajaX`j`s#f#f`7`7.J.f`H.V.d#favaL#U#pa4a0.h.3.3aM`l`l`l`1.3`1al#h`E`EaO#k.U`E#k.S.u#IaSaSaS",
"aSaSaS.N`8`8`Vag#A#lal.0aV.I.f.w`W#7`W.s`7.J#C.J`H`6`6.J#n.JaG#g#gai`x`xai.naa#p#x#L`V`z`1aIaI.V#L`zaVaV`N#o#o#k#3#3aO`E#o`N`eaSaSaS",
"aSaSaS#0az.3#A#F#A#l#l#X#X`V`WaW.say.Z#d`Ha`.e#vaX.C#ea#.saJ#r#v#v.Lao#T.o#n#4.i#zac.J.f.fa5#`#A#7aG#Fagaf#o#o#kaOaOaO`E#oa2#0aSaSaS",
"aSaSaS#y#A#A#`#X#X#X#A`1.x.raz`L.way#7`6av#p#6.i`YaU#G#7#7#N#7.s.6#r#B#eat.oaG`U`pa0aGaz`xaqaW.Zaqa7#b#F.u`n`n`E`E`E#k`E#oa2`eaSaSaS",
"aSaSaS`e`V`VaEaE#X.0#X#XaV.7.Z.ZaW#7#GaLaia0`j.E#T.w#Nay#N#N#7#7#G.waN`T#D#eaJa0aXaXac#v`6a7.B.u..aF#F`M#w#o#o`E`E`E#k#o#o#z`eaSaSaS",
"aSaSaS`e##ag#X#W#X.v.0`yaV##.u#2`8#Z`8.Z.J#paX`5ao.w#7#N#7`LaN.saN.w.s.6abat#Ka0aX.C#4`2##aqagag.t.7###w#.#o#o.#`E#k`E#o`EaA`eaSaSaS",
"aSaSaS`e#yaEal#W#l.v.v.v#F.u#a`8#h.Z`Rai`x`U.``pab#raN.s.k.6#r#r#r#r.6`Taxatao`jaXaX`2.Zajala5.0#b##`N#..#.#`E.U.#aA#k.#.#aA`eaSaSaS",
"aSaSaS#0`N.0#A#W#l#b.v`y.O`A#.#.`N`Naf#nac#p#6`5a1#K#r.6a#a#.L.L.La#a#.o#RaKao`j.C.iab`V#X#l.taf##`8#.aQ#y.##a..#.#..u.uakaQ.NaSaSaS",
"aSaSaS`e.MawaF.u`Na2#w#F#F##`N.RaYaY`D`z`6#6.4`Y`o#r#v.L.6`Ta#`T`T`T.6a##R#DaU`j.i.iabaLaI#l.A#.aQ.S#0`N#w#AaEaVaVaVagaE.8.8`XaSaSaS",
"aSaSaS`e#0a2.7#A#h`8`n#5aDaMaM`l#X.t`maz#K`UacaP#e.6#ra#.oa#a#.oa#.oa#.j.j`U`2#6.i.ia0`t.0aV#0aw.S#0`N#w##`l.xaV`y`y.xaV`y`y.AaSaSaS",
"aSaSaS.g#0aQ##a5##`8ap`O#Aal#X#W#b`Q`t#Gac#HaGaX#e#R#QaP.X#e#Rax#R#T.``5`Y`f#h`U`U.ia0`x#Lah.aawawaw#8`N.u`w`waMaeaeaeaM#E#E`XaSaSaS",
"aSaSaS#Iak#V#5ajaU#Q#Q.WaMaM`l#E`m`F#t.JacacaiaP#D#ZaCaA.S.C#Da1`oaKaC.#`p.``x#6#6a6aa#v`O#.`SaH`Saw#a#PafaI#b.O.O.O.O.O.O`y.AaSaSaS",
"aSaSaS.PakaH#Y`HaW#G.4`d`I`I.V`l`m.y`tai.zaJai`Gata1#Z`5`G.X`oa#aU#Z.C.U.C#TaJ..`Ua0`2#v`8.S.gaA.N#..Ua2.uaM.0aZ#l#l#laZ`y#X`XaSaSaS",
"aSaSaS`e`4`m#f#n`xac`s`b`d#iaZ.V`m`F#nai#v#n#n#zaP.G.o#Ra1#R`T#r.6.Gax#Ra1#dai`U`U`2aoac.u.g.S.g.SaT`S`p`OaM.8ae#W.V#Wae`l`l`XaSaSaS",
"aSaSaS`e.P`I`x.n.Q`cam`7`r`h`Z.V#F.y.I#n`6#gaL`5.Sax.6.6.6.6#raR#r#S.6`Ta#aJav#u#T#U`2.J.u.Naw`S`S`S#8.ga2`O#b#b.O.O`m#b#b#l`XaSaSaS",
"aSaSaSaH#8aG#K`g#J#J#Jam`s`I#i#q`t#5`Hav`x`7.n`F#m#2.G`T.G`o.6#7aN.G#D#Ra1#Nav#Haaa`asai`U#..SaAaTap#P#maT#s#Yal#W#W.Val.V#W`QaSaSaS",
"aSaSaS`e`U`6#4`0#J#J.Q`q#KaG.Iae`t.Y#f#g#n`7aiaX`nat`J`o`3`J`TaNaR#S#D.b#DavaL`6#h#Uas`Van#x`G`G#Z.C#s#xa4#x`MaZ.0`y`y#X`y#W`XaSaSaS",
"aSaSaS#0a#`2`x.Q`.`.`.#Jao#4aGaI#b#L.F#g#N#gai`j#O`Y`3auau`J#e`J#e#D`J.X#Z#NaJaGas#4aG.Ja7#x#m#O`p`p.N.U.S.g#u#b.v.v#b#b#lae.AaSaSaS",
"aSaSaS.a#R.B`x`c#J`.#J`c.Q.saz.8`Z.Far`7#nav#na0aT#oat`J.b.b`o#2#2#ZauaKa6aL`6aGacas#naca7#PaP`q`K`C`p`S`S#0.y#Waeaeaeae`lae`QaSaSaS",
"aSaSaS#0aW.waoaa#j`r`r`caa#S.sar#W`Z.F`7#7.naiaba4#o.D`3`J`J`J`o`J#D#Dat#xaGa`aG#v`6#n.J`OaX.``g`v#1#m`S`S`e.y#Y#b#b#b`y`l#E`XaSaSaS",
"aSaSaS`F`u#0#0#0.a`Q`Q.a`e.a.a.A.A`Q`Q`Qadad`Q#0`e.g`e#0.NaT.S#0aT#0#0.N`e.a#0`Q.a.a`Q`Q.a#0#0adad.N.g`e`e`e.a`X`X`X`X`Q`X`X`FaSaSaS",
"aSaSaSaSaSaSaSaSaSaSaSaSaSaSaSaSaSaSaSaSaSaSaSaSaSaSaSaSaSaSaSaSaSaSaSaSaSaSaSaSaSaSaSaSaSaSaSaSaSaSaSaSaSaSaSaSaSaSaSaSaSaSaSaSaSaS",
"aSaSaSaSaSaSaSaSaSaSaSaSaSaSaSaSaSaSaSaSaSaSaSaSaSaSaSaSaSaSaSaSaSaSaSaSaSaSaSaSaSaSaSaSaSaSaSaSaSaSaSaSaSaSaSaSaSaSaSaSaSaSaSaSaSaS",
"aSaSaSaSaSaSaSaSaSaSaSaSaSaSaSaSaSaSaSaSaSaSaSaSaSaSaSaSaSaSaSaSaSaSaSaSaSaSaSaSaSaSaSaSaSaSaSaSaSaSaSaSaSaSaSaSaSaSaSaSaSaSaSaSaSaS"
};
