/* XPM */
static char *_2_frame_2[] = {
/* width height num_colors chars_per_pixel */
"    66   100      256            2",
/* colors */
"`` c #0b090c",
"`. c #c4bd44",
"`# c #4a4b4e",
"`a c #a29230",
"`b c #d8d38f",
"`c c #716b57",
"`d c #26272a",
"`e c #e2e090",
"`f c #afa146",
"`g c #ebe7a2",
"`h c #612f20",
"`i c #6d4b1f",
"`j c #8e6e26",
"`k c #ad9e84",
"`l c #c5c368",
"`m c #562a1e",
"`n c #270f0f",
"`o c #9fa0b5",
"`p c #b5932e",
"`q c #edeeef",
"`r c #8b553a",
"`s c #958038",
"`t c #b7a179",
"`u c #c9bea7",
"`v c #423a20",
"`w c #868687",
"`x c #82621e",
"`y c #a4785b",
"`z c #a98d5e",
"`A c #c7b47b",
"`B c #49291b",
"`C c #451523",
"`D c #9f8e7c",
"`E c #e9f2f5",
"`F c #d0bda8",
"`G c #364c74",
"`H c #784f3d",
"`I c #281a1b",
"`J c #a88c8a",
"`K c #4d6b8e",
"`L c #553522",
"`M c #d6cfb2",
"`N c #8d7a6e",
"`O c #b5a2a1",
"`P c #312e2d",
"`Q c #706e75",
"`R c #64382b",
"`S c #b7aab9",
"`T c #b3bbc7",
"`U c #49536f",
"`V c #727e94",
"`W c #785b43",
"`X c #a58439",
"`Y c #201d22",
"`Z c #3c161f",
"`0 c #e2dfa7",
"`1 c #e2d3c7",
"`2 c #ba9185",
"`3 c #ad9754",
"`4 c #6f5a61",
"`5 c #645f4f",
"`6 c #c5cad1",
"`7 c #8e8f96",
"`8 c #a06f5d",
".` c #9e7f5a",
".. c #c1ae8d",
".# c #766456",
".a c #906145",
".b c #784436",
".c c #c0bac0",
".d c #57402c",
".e c #9ca3aa",
".f c #624c35",
".g c #c6a490",
".h c #462c2e",
".i c #a6a9b4",
".j c #b48372",
".k c #c8cfd6",
".l c #d3c8d2",
".m c #b6a944",
".n c #dbdbcb",
".o c #8c6e61",
".p c #2e3a52",
".q c #6e553d",
".r c #eeeab6",
".s c #624232",
".t c #96866f",
".u c #544e52",
".v c #3c2826",
".w c #c3a59c",
".x c #5f5665",
".y c #806e6e",
".z c #282223",
".A c #7a5d63",
".B c #ccc17c",
".C c #4e3e3a",
".D c #9e8c8c",
".E c #bba77e",
".F c #131115",
".G c #e6e2ba",
".H c #d5d2c2",
".I c #be957c",
".J c #816559",
".K c #c5b493",
".L c #564242",
".M c #a78166",
".N c #9e923e",
".O c #c1c3d4",
".P c #724236",
".Q c #442019",
".R c #825846",
".S c #927e85",
".T c #635a4c",
".U c #321a12",
".V c #ada18e",
".W c #31100a",
".X c #54606c",
".Y c #b88c78",
".Z c #d0c3c2",
".0 c #95826d",
".1 c #9dafc3",
".2 c #ab9889",
".3 c #aa9476",
".4 c #c1c2c4",
".5 c #8f7179",
".6 c #373426",
".7 c #a7abac",
".8 c #6f6471",
"#` c #aa8070",
"#. c #614a4b",
"## c #b5a18b",
"#a c #a68c6e",
"#b c #fefefe",
"#c c #8d7859",
"#d c #48332b",
"#e c #d2ced7",
"#f c #2c2828",
"#g c #4a3e1e",
"#h c #807a7f",
"#i c #1e1315",
"#j c #966c5f",
"#k c #d5dae2",
"#l c #8f5e53",
"#m c #c2b3ad",
"#n c #c2a08c",
"#o c #827e5a",
"#p c #b39677",
"#q c #6f584e",
"#r c #979596",
"#s c #c3998b",
"#t c #bbac61",
"#u c #73787c",
"#v c #a28a42",
"#w c #814f42",
"#x c #4b3621",
"#y c #1a080e",
"#z c #cbbc99",
"#A c #543942",
"#B c #c8b4b5",
"#C c #e1e7ed",
"#D c #6e4c3d",
"#E c #6c4437",
"#F c #9b6356",
"#G c #dbe0e7",
"#H c #efe9ec",
"#I c #ae9f92",
"#J c #916557",
"#K c #957b69",
"#L c #323332",
"#M c #3c1f13",
"#N c #c8c1bf",
"#O c #aa98a4",
"#P c #311b20",
"#Q c #817675",
"#R c #645140",
"#S c #d4cab1",
"#T c #835b55",
"#U c #adb5cb",
"#V c #c0aca1",
"#W c #978259",
"#X c #b9a88e",
"#Y c #a37868",
"#Z c #bcb43f",
"#0 c #b99888",
"#1 c #a98676",
"#2 c #dfd5e2",
"#3 c #b1a062",
"#4 c #8f8691",
"#5 c #3c111e",
"#6 c #9e99a8",
"#7 c #332225",
"#8 c #837661",
"a` c #9a8a4e",
"a. c #d2d4db",
"a# c #e6e2c2",
"aa c #acb1b9",
"ab c #46353b",
"ac c #483b3a",
"ad c #eae8e7",
"ae c #352726",
"af c #cfb49d",
"ag c #3c2e33",
"ah c #b7b5b8",
"ai c #9e846f",
"aj c #604342",
"ak c #3c2026",
"al c #443220",
"am c #825e46",
"an c #836b46",
"ao c #af8b77",
"ap c #967a47",
"aq c #ac7a67",
"ar c #785953",
"as c #caaca1",
"at c #484544",
"au c #977a59",
"av c #564555",
"aw c #826e5a",
"ax c #7d7185",
"ay c #703929",
"az c #481c28",
"aA c #d2c4ab",
"aB c #b7aaa4",
"aC c #c2a790",
"aD c #706369",
"aE c #bea08d",
"aF c #dad6d8",
"aG c #a2958f",
"aH c #636d7b",
"aI c #806440",
"aJ c #8998a6",
"aK c #967b77",
"aL c #9e967e",
"aM c #95725f",
"aN c #6c4c4e",
"aO c #c2b5b9",
"aP c #563730",
"aQ c #3d3b3a",
"aR c #a9a2a6",
"aS c #615250",
"aT c #ab9a78",
"aU c #330f1b",
"aV c #c2c361",
"aW c #785252",
"aX c #464359",
"aY c #393535",
"aZ c #828184",
"a0 c #c6b49e",
"a1 c #b79898",
"a2 c #906e4d",
"a3 c #e4e0e3",
"a4 c #8d584c",
"a5 c #9f8c6e",
"a6 c #616167",
"a7 c #d2b4ac",
"a8 c #000000",
/* pixels */
"#b#b#b#b#b#b#b#b#b#b#b#b#b#b#b#b#b#b#b#b#b#b#b#b#b#b#b#b#b#b#b#b#b#b#b#b#b#b#b#b#b#b#b#b#b#b#b#b#b#b#b#b#b#b#b#b#b#b#b#b#b#b#b#b#b#b",
"#b#b#b#b#b#b#b#b#b#b#b#b#b#b#b#b#b#b#b#b#b#b#b#b#b#b#b#b#b#b#b#b#b#b#b#b#b#b#b#b#b#b#b#b#b#b#b#b#b#b#b#b#b#b#b#b#b#b#b#b#b#b#b#b#b#b",
"#b#b#b#b#b#b#b#b#b#b#b#b#b#b#b#b#b#b#b#b#b#b#b#b#b#b#b#b#b#b#b#b#b#b#b#b#b#b#b#b#b#b#b#b#b#b#b#b#b#b#b#b#b#b#b#b#b#b#b#b#b#b#b#b#b#b",
"#b#b#b#e`w`w`w`w`w`w`w`w`w`w`w`w`w`w`w`w`w`w`w`w`w`w`w`w`w`w`w`w`w`w`w`w`w`w`w`w`w`w`w`w`w`w`w`w`w`w`w`w`w`w`w`w`w`w`w`w`w`w`wad#b#b",
"#b#b#baZ`Y`Y.8#r.e.e#4`7`7`7#4`Q#QaKaw.S#K.#.S`5`v.f#M#Dan`N`N#c`N.o.J.J`W.faP#E#8.qaeal.yawaw.#aD.#`4`4.8`V.T`n#y`naUaUaUaU#yah#b#b",
"#b#b#b`w`P`Y.8aO.c#2`6`T.O.O`T#r.5`J#1.w.2a1...0#R.f#D`J.g.w.w.g#naE#s#0#s.j#l.R.M#W#RaP.0`Da5aK.J.AaD#h`o`7`QaU#y#5aU`C#5#5#y`T#b#b",
"#b#b#baZae`Y#L.cah#ea.`T`T.O#UaGaN.5#TaW#R#c`O#K.f#x.R.3#n.g.g#s`2#0#pa1#0ao#Y`Hanai.q.da2.0axaK#I`S#6`V`Q.8.u#5aU#5#5`Z`Z#5#yah#b#b",
"#b#b#b`w`Y#i`Y#U#e#ka..1#U#U#U#Qavaj.y`Jai.2`k#W.Lalarao.Y#0ao.jaoaoaoao#`#`aq.RaI.`.s.fanaiaO.ka..O`T#4.xab#7aU`Cazaz#P`Z#5#yah#b#b",
"#b#b#baZ.F#f.x#4.O#k#G#U`T#U.1#6aj.haX`Gav#O`k.t#R#x`Haoao#1#1aq#`#`.M#`#`#Y`8.R.Rau.d.qam`J.c.kaaaH`Q.A#Aabagagak.5#Aab.u.5#i.c#b#b",
"#b#b#b`w`I#f.F#yaxax.xavaX#4`o`7aX.x`U`G`U.7.3`Nan`R#D#`#1#1#`#`#Y#`.M#`#`aqaua4aIau.s`W`WaLa.#Ga6ab#Aab`Y.uab`Sa3aOah.c`S.4#hah#b#b",
"#b#b#b`w``#i.zac.x#N.D.5#Paeada3a3#C#G.e`o#Xai`Na5#D`H.M.Y#`#Y#Y#Y#Y`y`y#Y#Y.o#TaI#K.s.q`Wa5ah.4.u#P#P#PaX.x.u#G.Oah`T`T`Taha6`T#b#b",
"#b#b#baZ`Yabagabab#H.5#J.hab`6a.`6`6#GaQ#u.2a5.t#X`W`H#j.a#DaP`H#j#j#j#JaW`L`L.s.o#c#D.qaI.taO#r.u.z.z.zaYaS.h#G`E#C#G#G#G#C#uah#b#b",
"#b#b#baZ#i`Y#i.F.z#H.S#J#T#Oada3#C#C#CataZ`t.t.3...q`H#T`mak#7`L`H.a#j`H.h.U.Q`m.t`N#R.qa2a5#8`#.z`I#i#PabaNag#k`T.7.7.i.e.7.x`T#b#b",
"#b#b#b`w``.F.F.F#u`1#O#saM#z`b`M.H#k#G`##o#Xa5.3a0#R.s#JamaP`maP#w`8aq#l.s`maP.q.3.0.qanaM#a#Jabae#P#7agag.Laba3.4.4`6`6`6.4a6ah#b#b",
"#b#b#b`w``.F.F.T.H..aT#aaT.B`b`g.H`6#kataZ#V.t`k#z#q.Q#j#Y#Y#j`8#`#1.Y#YaM#j#JaMaC#Kaj#K#c.3.y.h#7#7.vag#P#7at.Z`q#G#k#k#k#G#u.c#b#b",
"#b#b#b`V``.F.F.V#X#3`f.m.m#t`A`b`e`6.nataG..#a`t`u#q`n#Jaq.j.j#`.j`2.Y#`.j.jaq#1.K`D.fai#c`k#8#A`I`I`I`Iagae.CaS`oaa.7.1.7.1`5`T#b#b",
"#b#b#b`w.F.F.F.V.3`z#Z.maVaT#3.Ba#`q.H.uaB#z`k#X.K.##i.b`8aqaq#F#Y#s#s#`.R#J`8`Ja0`D.qa5au#I#Q.C.v`Z.v.QaSak#7#A#4a.#k.n#ka.aHah#b#b",
"#b#b#baZ#i`naca5#W#v#Z#Z.m`a#v.2`O`6a.#h.4a0.E..#zaw#M`L`r#F`r.b`8`2`2#`#l.P#w#p..`kawa5#W.V.tajabaPaN.daj.L#x.d`#`6`T`T`T.4`c`T#b#b",
"#b#b#b`w.u.aau#`.0`f#Z`.`.`..Nau.3#NaFaR#N#z..#X..awag.U`Hay`h#w#l#wa4aWa4.P.P`2#X.2.0`Da5aB.0aSak#M#M#M.v.vabakat.7aaaaaaaa.Xah#b#b",
"#b#b#baZabaM.5#jan`A#ZaV#Z.m`3`t`J.n.n.c`6#z..aC`A#K.d.W`Ra4.baya4#F#F.R`R.P`H#p.2aLa5.3aL.V.S.#`B`s`X`jaP.U#i#7.6.4#G#G#G#G`Qah#b#b",
"#b#b#baZ`Y.o#`#s#Yaw`faV`laV`sa2`2aB#C`6aA#z..`t`ta5#D.U#5.b`r`ra4a4#la4aWaW.s#K`D.ta5#a`k#Xax`cal#v`p`p.U.U#i.z#f.7aaaaaaaa#uah#b#b",
"#b#b#b`w`I.A#j`8.o`W#f.u`5`P.f#TaK`Oa#.k#Na0.E#p`z#p`W.Q.W`B.ba4a4#w.b#w#w`H.U#8`Na5aia5`k#X#o.#`B`p`p`x.U#i#iae.L`6.k.k.k.k#u`T#b#b",
"#b#b#b`walaW.A#Taw#q`v#i.F.F.q#J.5#m.n.HaA`u`t`3.``za2.h.W#M`L`r#l#la4#l#T`B`n#8#8a5.`#KaTa0`D.taj.``X.R.U`I#Pae.V#C`q`E#C#G#u.c#b#b",
"#b#b#b`waQaS#c.#.J#R`v.F.F#iaN.J#8#Sa.#S`uaA`k#pa2`X#1.d`Z`Z`m`h`r#F#la4`R#M`n#8aK#aanauaTaAaA`uafas.gaC#a.Jab.T.k.4.1.e.7.k#uah#b#b",
"#b#b#b`wav#m#e.y.J#.`P.z`PaX`4.J.2aF.H`M`uaA#3`3aMaMap.R.Q.Q.Q`m`m`h`R`h`B#M.U.3`N#K`Wap#p`FaA.K#p.I.IaE#nas.w.Z#k#G#G.k.e.eaHah#b#b",
"#b#b#b`w.xaR.c.8.A.Sah.O.4aB#O#zaA#S.HaA#z#z..`zap`i#JaI`L.Q`m`m`h`m`m`h.Q.Q.q.#`W`W.qap`taAaA.E.M#1#1ao.I#s.g.wa7`1#G#k.k.Oa6`T#b#b",
"#b#b#b`wa6.i#e.z.#.C.z#faQa6`Faf#zaA`MaA.K#S`A`zaI`i.R.R.s`h`m`hay`hayay`m`m.P`B.q`Lam#c`taA`u..au`8`yaq.j.j.Y`2#sas`1`q`q#Ca6.c#b#b",
"#b#b#baZax#6aR#PaN#J.L.C.Lai`F#VaC#SaA#z.B`M#X#WamaW`iam#w.b.P.Pay.P.Pay.P.P.P.P#D`m`WaI`taAaA#z`yaq`8`8`8`yaq.M.Y.I#n#I.x#i``ah#b#b",
"#b#b#b`w#haG`5#..5#Y#.`4`Na1.g`2af#zaA#S`MaAa5aMaIay#D`r#l`ra4a4`r#w#w#wa4#F#l#J.R#E.qan#X`FaA#z.I`y`8`8#F#F`8`yaq.Y.I#n`Jac`Iah#b#b",
"#b#b#baZ.D`O.D#O.w#1`J.3a1#pao.Iaf#z#z`F`M.E.`a2`i`R#w.R#l#F#F#J#F#l#F#l#j#j#j#Ya2.R.qanaC.BaA..`A`y.a`r`r`r.a`8`y.j.Y.I.g.g.T`T#b#b",
"#b#b#baZaL.n`1`1`1`1`1.la7.Mau`y`FaC.Baf#tai#Wau`W#wam#l#J#j`8`8`8#j#j`8`8`8`8#Y#j#J.Ram`t`Faf.E.I`z`r`Hay.b`r`r`j`8.j.Y.I.g.qah#b#b",
"#b#b#b`w#4`F#B`F`F`Fa7`u`Oaqa2`8#n`Aaf.Eap`sap.`.Ram.a#F`8#j`8#j`8`8`8`8`8#Y#Yaq.M`yaMaI`zaf.E.g`za2`H`h`h.b.b`r`r.a`8`8.j.j.f.c#b#b",
"#b#b#b.7aYaQaQaQaQaQaQaQaQaYaQ.6`v`v#xaYaYaYaYaQ.6aYaYaYalaYaYaYaYalaYabaYaQaYaYaYaYaYaYaQ`vaQ`vaQaY.6.6.6.6al`valal.6al`vaYaY.H#b#b",
"#b#b#b#b#b#b#b#b#b#b#b#b#b#b#b#b#b#b#b#b#b#b#b#b#b#b#b#b#b#b#b#b#b#b#b#b#b#b#b#b#b#b#b#b#b#b#b#b#b#b#b#b#b#b#b#b#b#b#b#b#b#b#b#b#b#b",
"#b#b#b#b#b#b#b#b#b#b#b#b#b#b#b#b#b#b#b#b#b#b#b#b#b#b#b#b#b#b#b#b#b#b#b#b#b#b#b#b#b#b#b#b#b#b#b#b#b#b#b#b#b#b#b#b#b#b#b#b#b#b#b#b#b#b",
"#b#b#b#b`E`q`q`q`E`q`E`q`q`q`q`q`q`q`q`q`q`q`q`q`q`E`q`E`q`q`q`q`q`q`E`q`q`E`q`q`q`q`q`q`q`q`q`q`E`q`q`q`q`q`q`E`q`E`E`q`E`E`q#b#b#b",
"#b#b#b`w.F#y#i#y#y.F#iaQatatatat`##Lalaeaeac.6.F#y#g#x.6`P.6aQ`P#falaQaY`v`vaY.6.6#g.6.6at.z.6ab#fag`#acat`#atat#i#y#y#P`I#i``.4#b#b",
"#b#b#b`waeaear#D.h.vab`O#2.l#k#k#2`Fas#0.wa7#V.L.D.3`j`j.t#X...3`N#zaA`Fa0##`k.tan#R`jasa3aB.Z`1#m#N`q.ZaOa3#G#Oaz`C`Caz`Z#5#yah#b#b",
"#b#b#b`w#fab#qaWak#7.8.Oa..k`o.OaO#Basasasasa7.cas.dan#X`u#z#z..`Da0#N.n`M.K..aLaw#R#g###2`S.Zad#Cad#Cah#Va.a.aSaU`C`C.Qaz`C`nah#b#b",
"#b#b#b`waY#LaWaW.x`S`S`6`6`6aaah`Sas#nas.w.waEa0.0.d#X`u.2aT##aBaT#X#z.K#X##aT#X.3#8#R`W.c`O`O#k#C#CaF#V#X.O`SakaU#5.Q#T#Eaz#y.c#b#b",
"#b#b#b`waS`d.8#O#B.c`o`6`6`6.O.O#Iasao#n.waiaE#m`5awa5.daj.Jai.3#p#aao#aaiaMa2aoaCaw#R.d#X.2#X.caF#k.Z.waGaa`o#AaU#5`Caz`Caz`nah#b#b",
"#b#b#b`waD`Y.x#2#e#2.O`6.O.l.O`T.D.w#1aEas`J#p#X.T.#.s#E`y`2#n.g.g#sao#`.M#J.R.R.3a5.f`B.0##aE#I.Da1`J#1#h#U#6aP#yaU`C`C`C`C#yah#b#b",
"#b#b#b`waD`Y.z.l`Sa3#e.O.O.O.O`Saxa1`J.w`OaE#X.2`W`WaPau#0.w.w.w.w#n#s#0#sao#j#wa2.3.J#x.J.3.Dai.oaD.A.8#r`o`7akaUaU#5`C`C`C#y.c#b#b",
"#b#b#baZaD`I`Y`o#6#e#k`T`T`T.Oaa.x#J.JaWaN.J`k.3#R#R.daiaE.g.g#n#s#0#0#p#0`2.jam.R.3`W.s.qai`N.5.S`O`oaJaxaxa6#PaU#5#5#5#5`C#yah#b#b",
"#b#b#baZ#.#i.z`Qa.#ea..O.1#U#U#6.xaj.Aai.D.S#Xa5.L.f`L.M#p#0.Yao.jaoaoaoao#`aq#J`H`z#R.s.q.M#O.Oa..l`T`o`4avagaU#5#5ak`ZaU#5#y`T#b#b",
"#b#b#b`w`P`YaX.x.la.#G.O`T#U#U#6.8.vavaX.x#h`taL.f#R`L#`.jao#1#`.M.M#`#`#`#``y#J`H.``i.f#Dai`S.O`6`7`Q#h#.agabag`ZaN`4ac.C.#abah#b#b",
"#b#b#baZ#i`P.z.Fav#r.8.xaXax.i`o`4aX`U`GaX`7#Ia5#R.J`hauao#1#`#`#`#`#`.Maq#``y.a.qai.f.q.q#W.c#k.iaYav#A#7aXaXa6.l.caR`o.i`o`Q.c#b#b",
"#b#b#baZ``#y.Fabav`7`S.5#A#i`Sa3.l#k#k.1aJ.i.2.3.#au.saM.jao#Y#Y#Y#Y`y#Y#Y.M#j.o.R.M.s.q.qapaR.O`7.z#P#7ab`#`4#6#k#N.4.4.O#Na6ah#b#b",
"#b#b#baZ.FagabaY#A`S`S.o#A#P.i#Ga.`6#G#u.xaL#a.3a5.0#D#JaM.A#E#D#j#j`8#j.aajaP.s.qai#D`WaI#c#X.caZ.z`Y#7#faXav#r#C#Ga.a.a.#k#uah#b#b",
"#b#b#baZ`Y`d`Y.F.FaaaG.5#T.AaFa3#H`E`E#u`5`k`D.3`kaK.s.R.P.v#M.v#E#l#J.a.sakak.Q`W`D.f`W.J#c.t`4ae`I`Y`IakaN.L`7#eaa.7.1.e.e.X.c#b#b",
"#b#b#baZ````.F.F`P#S#V#s.j`D`0`u.4`6#C#ua6.V.3.3..ai`B#l#J.s`B`L#E#J`y#J#E`m.h.s#K.2#R.oaMau.0avae#7`Iagagab.L#r#ka.a..n#Ga.`Qah#b#b",
"#b#b#baZ``.F.F`Y`u`u#I`D#p#t`b`g`g.4#C`Q`5aB.3a5.K.t#Mar#Y`8#J#J#j#`.Y#`#j.o.a#Jao`k.f.o#Kaiai#.#P#7akag#7.Uab`7a3a..k`6`6.kaH`T#b#b",
"#b#b#baZ``.F.F`##S`3#3`f`f.E`A`l.r.n`q`Q`c#m.3.3`ua5.U.s`8.j.j#`.j.Y`2#1aq.j#`#KaC`k.f#K#c`Da5.x#P`I`I#P`Iab.h.u.Daaaa.7.7aa`5ah#b#b",
"#b#b#b`w``.F#y`c.2`z.m#Z`.#3#3`A`0a#`qa6#4`u.E`k#z.t.v.h#Faq.j`8#j`2#s.Y#J#J`8#Y..#X#q.t#c.3aG#Raeak#P#P#A#x`I#x.x#G#C#C#C#C#u`T#b#b",
"#b#b#b`w.F#i`I`Na5.``f`.#Z`a#v.3`O.c`q`QaB`u#X.EaAa5#x.Ua4#l#l.ba4`2.I.Y`8.b#w#Jaf.Vaw.3#caTaG`4#AaP#Eaj#.aj#A.d.C#r#U.7.1.7`5`T#b#b",
"#b#b#baZ.z.J.J#1#c#3.m`.`.`..mapa5aBad#r#N#N.K#X.Ka5aj.U.P.bay.b#Fa4#l#T#T.Raya2afaLa5.3.t##aG.J.v.U#M`B.vaeabak#faLaa`T#U`T`5ah#b#b",
"#b#b#baZ#i.oaM#jaN`A.m`.`.#Z`f`3`J`u`E.caA`u.K.E.K#p#q.U.Q`r.bay.b#F#l#l#E`R.baMa0`N.3aT.t#X.t#Qac.q`s`x`H#M`I`IaQaZ#C#C#G#C#u`T#b#b",
"#b#b#b`w#i#q#Y`2ao#Wa``.aVaV`fa2#1.3a3.k`6`u.K`t`t#3an.v.W`R#wa4#wa4#la4#w#waW#R..aw`D.3`D#X.D#8al`j`p`p`i.U#i`I#f.8.7.e.7.e`5ah#b#b",
"#b#b#b`wat#.#j#Y.5.J#xat#o.u#g`W`8.Sad.H.k#za0#p.3#paM`L.Waz.P#wa4#w.b#w#w.RaP#daB`ca5a5aL.EaG`calap`p`X`B`I.F#7#faR.k.ka..k#uah#b#b",
"#b#b#b`w`c#.#T#l#J#q.T.F.F.F.C#T.o.D.n.HaA#z#z.3`X.`ai.s.W#5`B#w#F#la4a4#J#E.Wal#Ianaiaua5..`O.t.f`W`p`X#M`n`I#7.fa3#C#C#C#C`Q`T#b#b",
"#b#b#baZaZ.u#q.y.A`W.T.F.F.F#A#T.o#I.na.aA#z..#p.`ap`z`W#M`Z.Q`h#w#l#F#l`H`B.U#xaG.0aua2a5..aAaAaf.g.g#naian#dagaa`6`T.1.i`T#u.c#b#b",
"#b#b#b`w`7#QaOaG.#`4al`Y`Y#f.L.##K#N`1.HaA`u.E`t.`a2`8aM`B.Q.Q.Q`m`hay`h`m#M.U.#.0#a`Wa2#a.KaAa0###0#p#n.wasas##a3#G.n#G`T.eaHah#b#b",
"#b#b#b`w`7#Q.c`o`W.#ah.O`6.4`S.2aA#S.H#SaA.B..`t`XaIama2.s`B`m`m`h`m`h`h`m.Q`Bai.daM.qa2#v#zaA.K.3#1.jao`2.I#s.w#B.l#G#G.c`Ta6ah#b#b",
"#b#b#baZ#6#Q.c`QaS.A`I#f`PataG`Faf#z`1aA`u#zaAaT#c`i`H`j`R`R`m`h`h`h`h`R`h.Q`R`R.q`B`Wan#a#zaA#z#1`y`yaq#`.Y.Y.I#s.g.Z#H`E`E#u`T#b#b",
"#b#b#b`w.uaQa6.z#iaY`I`Y`Y`Y.T.TaSaS`c.T`5`5`5.fag.v#M.v#M#M.U.U#M#M.U.U.U.U#P`nag#iae`P.C.T`5`5#gaP#x`L`LaP.d.d.Laj#R.T.u#L``.c#b#b",
"#b#b#b`q.4.O.4#N`6#N.4`6#N#N#N.4.4.4.4.4.4.4.4.4.4#N.4.4.4.4.4.4.4.4#N#N.4#N.4#N.4#N.4#N.4.4.4.4.4.4.4.O.4.4.4#N.4.4.O.4.4.4.4`E#b#b",
"#b#b#b#b#b#b#b#b#b#b#b#b#b#b#b#b#b#b#b#b#b#b#b#b#b#b#b#b#b#b#b#b#b#b#b#b#b#b#b#b#b#b#b#b#b#b#b#b#b#b#b#b#b#b#b#b#b#b#b#b#b#b#b#b#b#b",
"#b#b#b.7#r`7#r#r`7#r`7#r#r#r#r#r#r`7#r#r`7#raL#r#r#r#r#r#r#r#r#r#r#r#r#r#r#r#r`7#r#r#r#r#r#r#r#r#r#r#r#r#r`7#r#r#r#r#r#r#r#raa#b#b#b",
"#b#b#b#fak.v.s#A`n#fae.h#RaS#i#fae#f`#.#`caZ#u.X`U#u#o.#.f`c`#a6.X.X`5#R.f#xal.h.d#D#.#yag#x.C.u.C#RaN#..d`B.haP#Rajacaj.#.y.z#b#b#b",
"#b#b#b`P.5aKaW.RaG#4ab#E#law#X#1al`BaTaA`u`T.1`V`w.e#t`3`z#3#r`o`VaH`c`k#s#.aP.s.o#Y#Y`J.ZaK`S#H.c.y.5#Y.Ra4#w#w#Y.Dajaj.J.y`d#b#b#b",
"#b#b#b`Pas#2aGaRa3a3aDaK#Y.5as`F.v#P#1`A`AaLaJaJ.7a`.t#z.K..#X#X#r#Qa5#tao#B.yar`O.0.D#N#2#2a3`q#H#O`Ray.5aW.b#A.A.uaeaQ`4#..z#b#b#b",
"#b#b#b.z`Q#2.l#2#k#2.Za7a1aEa7.Z.A`4as`san#W`k`A.V`N.V`u`u`u#X`ka5aw.q`W#pa3.l`Oad.caOa3#2aO#2a3.lab`C`C`Caz#5#5ab.8.xat.y.y`Y#b#b#b",
"#b#b#b`P`Sa.#eaa.i.O#Basas.wasas#B`F#q.q`3.K`u`u.KaTaB`u.H.HaA#X#X#o`5#gan`1aO#Ba3ad#C`q`6as.O#e#6aU#5`C`C`B`C`C#Pa6a6a6.5#j#f#b#b#b",
"#b#b#baY#e`6.k#U#U`Sas#na7#na7#pa0aB#g.taA.VaT`k#X`k.V.K#z.E`k.V`t`t#c.J#A`SaB`S#N#G#G#2#N#V`S.c.x#5aU`CaNaW`m`C#5aX`#.xar#D#f#b#b#b",
"#b#b#b#L.O`6`6.l.O.ias`2a1.w`2.0`F.0#R.3#qaP.Rau#a#0#aao#a#aaua2#Y.E.t.q#x.t##.w#Va.a3.l#V`O#6#U.AaUaU`C`C`Caz#5#5#AaX.uaN#D#f#b#b#b",
"#b#b#b.p.O.O.k.O.O.D`OaE`J#VaEai.Kaw.T`W`L#Jao#s.g#n.g`2ao#``8.R`HaM`t.J.v.##I#X.2.Da1#O#1.S.i#6ax#yaU#5`C`C`C#5aU.C`#a6#JaK`P#b#b#b",
"#b#b#baQ.O.O.O.O`T.S.D`2`2asa1`O#X#c.q.d`W#p.w.was#n#n#s#0#0#0#Ya4.R#p.o.s.s`J`D`J.5.J.A.AaZ.i`V`4aUaU#5#5`C`C#5aUagaXa6.o.J`d#b#b#b",
"#b#b#b.p`6#U.O`T#Uax`4.o#qaW`4a5`kaw.f#xaM#0aE.w#n#s#0#p#p#0`2.Y#j`ia5a2.f.d#W#K.y.S#OaRaJ`Vaxa6#AaUaU#5`C#5#5#5#5#P`dabaD.A`Y#b#b#b",
"#b#b#baQ`6.1#U#Uaa.8ajaW.5`JaK#I.3aw.d.va2#p`2`2aoaoaoaoaoao#1#``y`Hauan.s.f.`aiaOa.a..Oaaax.xab#7#5#5az#PaU`ZaU#5`Iagab.o.J.z#b#b#b",
"#b#b#b.p#k#U#U`T`o#4abab`#`U`4.VaTaw.q.h.aao#aao#`aq#`#`#`#`aq#`#j#waMaI.s.q.o#I.O`6`oaHax`4ababagak.h.yabab`4.A#i.h.L.y`4aK#f#b#b#b",
"#b#b#b#faDav.x`o`o.SaQ`U`G`G.8.7a5.#.o`L#lao#1#1#`#`#`#`#`#`#``y#j.Ra2aI.f.qaI#I#ka.`##A.L.h#7avaX.c.l`SaR.i#6.l#e#2aG`Iae`L`d#b#b#b",
"#b#b#b#L.5.A`I.x#C#2#2#G.OaJ.e#Vai.#.3#E.R.jao#`#Yaq#Y`y`y#Y#`aM#j.RaMaI#D.qanaL.4`Tag#7#7#7`#.x.8#C.c.O`T.O.O.4.O`TaZ#iaeawae#b#b#b",
"#b#b#b#L.5aW.v.x#ka..ka..4#L`7`t#a#8#X.f.RaM#J#..sam#j#j#j#J.qaPaP#E#K.#ar.q.J`D#N#raY.z`Y#7aXav.x`E#C#k#ka.a.#k#C#C.cae#R#T#f#b#b#b",
"#b#b#b`P.5#l#T#Va3ad`q`E.4aQ`D`ka5#a##aj.R#w`B`Z.vaP`r#F#J`H`B.U.vaP.3.J.q`Wa2a5.yab#P`Y`I`Iaj#.avadaa.7.e.i.e.i.i`T#G.x.q.o`P#b#b#b",
"#b#b#b#La1`2.o`b`M.4.O#k.4`#`7`t.3aT#XaP`H#jaW.h`L`R.R`y`8#w`h.h`RamaT#8ar.J#c#a`4ag#7`Iakagab.L.u#Ha.a.#k#k#k.k.k.k#CaZ.q.Sae#b#b#b",
"#b#b#b`PaG.3.E`l`e`g`6.kahat.2#X.t`t...daP#j#Y#j#J#j#`.j.YaM#j#J#J.`#Ian#q#c#Kao.##7#7#7aeae#P.v.Ta3a..k`6.k.k.ka.#k`q#C.T.A`d#b#b#b",
"#b#b#b.6`f`f#3`A.B`e.G.naaat.V#Va5.....C#M#jaq.j.j#`.Y`2ao#`.j#`#Y`2#X#c`W.``N.2.#ag#P`I#P`Iabae.L`Qaaaa.7.7.1aaaa`6#k#Ca.aR`P#b#b#b",
"#b#b#b.6#Z#Z`A#3.E`b.G`q.7a6a0.KaL..#X.f.W#l`8.j`8#F#`#s`2`8.R#j#jaEa0.0.##K.t.V.y.h#7.U#7akaS`n.h.CaO#C#C#C#C#G#C#k.k#G#C.OaY#b#b#b",
"#b#b#b.6#Z#Z.m`s`z`kah.n.7`7`u.K.E.KaB`5`n#Da4#F`r#w#`#s`2#`.R.baWaE..aL#c#Wa5`k#Q.L#A`Lar.d#..Labava6`Taa.7aaaaaa#k#k.k`E`qaQ#b#b#b",
"#b#b#b.6`.`.#Z#Za`.`.2aF.c#V#N#m.E`A#XaI.U`m#wayaya4a4a4#J.Ra4.P`HaE#X`k.0.taL#I`N#A`Z.U#M.Q.v.h.hae.#.7`T`T`T.1`6#C#G`6#Ga.#L#b#b#b",
"#b#b#b.6#ZaV`..m.N#p#O#H.k.4aA#z.E...Eawal.W#D#w.Paya4#l#laW`h.P.R##.3`k#aa5.VaG.0aS#x`X`jamal.U`n`P.u.n#C#C#C#C#C#G#k#kaJ.X`d#b#b#b",
"#b#b#b#L#ZaVaV#Z`s#Y#p.c#G`6.Za0.E`t`t#WaP.Waz#wa4#wa4#l#l#w.R`H.s`J.0aTa5a5`t#I`c.T.d`p`p`j.U`I`Y.zat.i.e.e.e.1#C`E#G`6`V`K`d#b#b#b",
"#b#b#b`d.6`c`5`v.q#JaK.Z.n.k`u#z`t#p#p`z.f#M.W`h#wa4a4#w#w#w#w#D`Ia5.y`Da5`D`t#X.y.T.s.m`p`i.U#y`IaeaD.ka..ka.#k#G#C#CaJ`K`K`d#b#b#b",
"#b#b#b#fae.F.F.zaN#j`NaA.n`M#N`F#p`zap`z.R.Q.W.Q.Pa4#la4a4a4`W#M`n`Dawa5.`ai.V#m`N#8`R`p`X.s`I#i#7#f.Z#C#C#C#C#G#C`E.1`G`G`U`d#b#b#b",
"#b#b#b#f#f.F.Faear#J.SaF.H#S`uaA.3`zap#1ap`B.U`Z`m.Pa4#F#Fa4`L.U.UaG#caia2.``taAaA#zas.g#n`2au.f.v#h.k`T#U.e.1#k#C#G`K`G`G.p`d#b#b#b",
"#b#b#b`d#f`Y#fac`4an#XaF.HaA#z.K`t`za2aM`y.s#M.Q.Q`m`h`R`h`h.Q#Mal.3.0.oaI#W.EaA#z..#p.I#saE.was#0.l#G#G#C`6.1#U.k`V.p`G`d.p.z#b#b#b",
"#b#b#b`##L#L#L#L#L`PaQaQaQaQaQ.6#L`P`P`P`Pae#f#7#7#7.z#f#f#f.z.z`d`P`P#f#f`P.6aYaYaY#L`P.6.6aYaYaYaQaQaQaQ#L#L#L.p`d`P#L`d`d`##b#b#b",
"#b#b#b#b#b#b#b#b#b#b#b#b#b#b#b#b#b#b#b#b#b#b#b#b#b#b#b#b#b#b#b#b#b#b#b#b#b#b#b#b#b#b#b#b#b#b#b#b#b#b#b#b#b#b#b#b#b#b#b#b#b#b#b#b#b#b",
"#b#b#b#b#b#b#b#b#b#b#b#b#b#b#b#b#b#b#b#b#b#b#b#b#b#b#b#b#b#b#b#b#b#b#b#b#b#b#b#b#b#b#b#b#b#b#b#b#b#b#b#b#b#b#b#b#b#b#b#b#b#b#b#b#b#b",
"#b#b#b#b#b#b#b#b#b#b#b#b#b#b#b#b#b#b#b#b#b#b#b#b#b#b#b#b#b#b#b#b#b#b#b#b#b#b#b#b#b#b#b#b#b#b#b#b#b#b#b#b#b#b#b#b#b#b#b#b#b#b#b#b#b#b"
};
