/* XPM */
static char *_2_frame_4[] = {
/* width height num_colors chars_per_pixel */
"    66   100      256            2",
/* colors */
"`` c #0c0a0d",
"`. c #c3bd43",
"`# c #454746",
"`a c #7e7236",
"`b c #d0cc78",
"`c c #b2a245",
"`d c #dfdd8d",
"`e c #242323",
"`f c #8e8a3e",
"`g c #6e4839",
"`h c #e8e69e",
"`i c #9e882e",
"`j c #5e2f21",
"`k c #ac9f87",
"`l c #7a6022",
"`m c #c2c157",
"`n c #9a8370",
"`o c #2c3134",
"`p c #b7a177",
"`q c #8e734f",
"`r c #edeeef",
"`s c #9f8c73",
"`t c #290f11",
"`u c #7e5c2a",
"`v c #b5a9b3",
"`w c #a88c74",
"`x c #c8bca5",
"`y c #523027",
"`z c #e8f2f5",
"`A c #d6ceab",
"`B c #46271f",
"`C c #626165",
"`D c #c6b47f",
"`E c #9c6e5e",
"`F c #895447",
"`G c #d0baad",
"`H c #461524",
"`I c #52461e",
"`J c #95a0ae",
"`K c #996551",
"`L c #758595",
"`M c #bb8a6f",
"`N c #8c98a8",
"`O c #4e5062",
"`P c #c6cbcb",
"`Q c #998d99",
"`R c #b5a394",
"`S c #463422",
"`T c #acb3ba",
"`U c #735b55",
"`V c #ab9277",
"`W c #794a36",
"`X c #2a1918",
"`Y c #e4e0a0",
"`Z c #a8806f",
"`0 c #929293",
"`1 c #a0863b",
"`2 c #3a2519",
"`3 c #b3bcc6",
"`4 c #7e6432",
"`5 c #ad984d",
"`6 c #e1cec5",
"`7 c #6b717c",
"`8 c #c7a697",
".` c #5f382b",
".. c #ac989b",
".# c #c0babf",
".a c #61584b",
".b c #8b7066",
".c c #eaeaa6",
".d c #744133",
".e c #524242",
".f c #594835",
".g c #391b10",
".h c #20191b",
".i c #ad7968",
".j c #463e24",
".k c #d8dbcb",
".l c #846667",
".m c #a9a89e",
".n c #beba5e",
".o c #8b7e7e",
".p c #70535c",
".q c #d3cdbc",
".r c #bdac94",
".s c #b8aa4a",
".t c #ad9254",
".u c #9a7654",
".v c #e6deaa",
".w c #5c4a49",
".x c #6d5137",
".y c #393b3b",
".z c #523b43",
".A c #76561e",
".B c #999191",
".C c #706072",
".D c #9c8348",
".E c #eeeaaa",
".F c #d1ccd2",
".G c #977669",
".H c #bcbdcf",
".I c #7c7169",
".J c #8a6546",
".K c #300f15",
".L c #8c8c94",
".M c #ab988a",
".N c #bba884",
".O c #5d4044",
".P c #cfb5b0",
".Q c #c4b497",
".R c #1a090f",
".S c #423034",
".T c #f0f2f6",
".U c #d1c3c6",
".V c #c6c072",
".W c #b0835c",
".X c #6c645f",
".Y c #8a5c4c",
".Z c #e8e6c4",
".0 c #8c7379",
".1 c #523e2b",
".2 c #78757f",
".3 c #ac9f93",
".4 c #7b5556",
".5 c #a17466",
".6 c #8f7a66",
".7 c #a68e60",
".8 c #b78473",
"#` c #d0b4a2",
"#. c #a0a8b1",
"## c #bcc2c7",
"#a c #423839",
"#b c #322627",
"#c c #c2a394",
"#d c #d4d4cd",
"#e c #b6957d",
"#f c #e2dee3",
"#g c #99838f",
"#h c #5e4c5b",
"#i c #bc9181",
"#j c #b28c7b",
"#k c #6b3d2e",
"#l c #61524b",
"#m c #b6aeb7",
"#n c #d5dae1",
"#o c #36302f",
"#p c #aa8676",
"#q c #e6eaca",
"#r c #9e9084",
"#s c #868586",
"#t c #51371d",
"#u c #c6b2b2",
"#v c #fefefe",
"#w c #b2a264",
"#x c #c9c0ae",
"#y c #caae9d",
"#z c #dae0e7",
"#A c #b7abaa",
"#B c #6e5046",
"#C c #b6ab69",
"#D c #393635",
"#E c #3a4b6f",
"#F c #906967",
"#G c #604030",
"#H c #664a47",
"#I c #ccbc98",
"#J c #2c2a2c",
"#K c #ece9eb",
"#L c #4c6690",
"#M c #392528",
"#N c #d1c3a9",
"#O c #805b49",
"#P c #381622",
"#Q c #a9acb4",
"#R c #171013",
"#S c #c9d6e0",
"#T c #4a2632",
"#U c #8a5d62",
"#V c #ad987a",
"#W c #39101d",
"#X c #e9dfe1",
"#Y c #a47a69",
"#Z c #be9886",
"#0 c #99695f",
"#1 c #98815f",
"#2 c #615662",
"#3 c #a78d8c",
"#4 c #755c43",
"#5 c #c2b3bf",
"#6 c #99979c",
"#7 c #c7ab81",
"#8 c #c4a087",
"a` c #513832",
"a. c #77655b",
"a# c #8d7663",
"aa c #7d4d44",
"ab c #83859c",
"ac c #a29677",
"ad c #c3b3a7",
"ae c #a3a1ac",
"af c #c7cdd9",
"ag c #c3c2c2",
"ah c #806652",
"ai c #8f6252",
"aj c #b7a5a5",
"ak c #765542",
"al c #a18360",
"am c #6f5645",
"an c #3b2a2b",
"ao c #423f42",
"ap c #2a1e1f",
"aq c #d3d4dd",
"ar c #929262",
"as c #2c2424",
"at c #af8173",
"au c #b69789",
"av c #7e5442",
"aw c #4a3737",
"ax c #50271c",
"ay c #b89023",
"az c #a9b5cb",
"aA c #d4c4b9",
"aB c #9a8383",
"aC c #925d51",
"aD c #e2e8ed",
"aE c #d8c097",
"aF c #b7b6b8",
"aG c #6f494b",
"aH c #1f110f",
"aI c #918067",
"aJ c #72673e",
"aK c #8d6857",
"aL c #461b24",
"aM c #bea497",
"aN c #92848a",
"aO c #371c1e",
"aP c #7e7053",
"aQ c #735d67",
"aR c #827682",
"aS c #4e4848",
"aT c #a67357",
"aU c #ae9fa7",
"aV c #624a34",
"aW c #bd999b",
"aX c #b5a085",
"aY c #bcb340",
"aZ c #7d7a6f",
"a0 c #cec690",
"a1 c #726972",
"a2 c #b9aca4",
"a3 c #e1d5dd",
"a4 c #a09275",
"a5 c #e8d68c",
"a6 c #c1c4d4",
"a7 c #805d5b",
"a8 c #000000",
/* pixels */
"#v#v#v#v#v#v#v#v#v#v#v#v#v#v#v#v#v#v#v#v#v#v#v#v#v#v#v#v#v#v#v#v#v#v#v#v#v#v#v#v#v#v#v#v#v#v#v#v#v#v#v#v#v#v#v#v#v#v#v#v#v#v#v#v#v#v",
"#v#v#v#v#v#v#v#v#v#v#v#v#v#v#v#v#v#v#v#v#v#v#v#v#v#v#v#v#v#v#v#v#v#v#v#v#v#v#v#v#v#v#v#v#v#v#v#v#v#v#v#v#v#v#v#v#v#v#v#v#v#v#v#v#v#v",
"#v#v#v#v#v#v#v#v#v#v#v#v#v#v#v#v#v#v#v#v#v#v#v#v#v#v#v#v#v#v#v#v#v#v#v#v#v#v#v#v#v#v#v#v#v#v#v#v#v#v#v#v#v#v#v#v#v#v#v#v#v#v#v#v#v#v",
"#v#v#v.F#s#s#s#s#s#s#s#s#s#s#s#s#s#s#s#s#s#s#s#s#s#s#s#s#s#s#s#s#s#s#s#s#s#s#s#s#s#s#s#s#s#s#s#s#s#s#s#s#s#s#s#s#s#s#s#s#s#s.LaD#v#v",
"#v#v#v#s.2.L.L#6`0.La1.IaI.baI.oa.aI.a.j.f`2#B.ba#.6.6.G.bah.l#4`ga`aVa#.a`2`S.Ia#aPa.a..X`U`U`7.2#2.R.R`t.K#W.K.K.R#M.yaS.fawaF#v#v",
"#v#v#v#s#6a6##.Ha6.H`Q.o#3`Z`8#eaX.raI.xaVak`w#c`8`8`8`8#Z#Z#Zau#paCav.7.6aV.1#p`s`sa#.laQ.CaZ`Jaba1.K.K#W#W#W`H#W#WaOao`C.l.f.##v#v",
"#v#v#v#s#6afaz`3.Haz#g.p.0.4.p.p.6`R.6aV`S.J#e`R`8#c#Zau#eauau#i#j#Y`W`qalaV.1a#aI.0.oaU#m`Jab`7.CaS#W#W#W`H#W`H#W`H.K`e#J.p.w`3#v#v",
"#v#v#vab`J#Sazazaz#QaR.OaG.0#3#gaX.M.6.f`2a7#j#j#e#j#p#j#j#j#jatat.5avaK`qaVaV.b#p#5.Faqa6az.o#2.S#M#W#WaLaO`XaL.K#WaOan#aah.faF#v#v",
"#v#v#v#saeaqaz`3az#Q`Q.z#oaS#E#h.3.MaI.a`yak#j`w#pat#Y`Z`Z`Z`Z#Y.i.5av.J`q#G.x`4#ra6af#.a1a1aQ.z.S#oan#T.0.z#a#haR`tan#ha1#H.e.##v#v",
"#v#v#vabao#2#h.e.Lae.L`##2#E#E`O#A`s`q`q.`avat.8at`Zat#Y`Z`Z`Z`Z#Y`E.Y.J`q.f#O#4a4aq#z#2#aaw.Sap#2.S.H#X#maFaF#5a6#X#K.#`XapaHaF#v#v",
"#v#v#v#s#6#g.0`t#D#K#X#z`r#n`J`J#A`na#`s`gakal#j#Y.5#Y#Y.5aT#Y#Ya##Fav.J`qaVam`4`saF.H`#aOaOas`##2#h#K.H#5`3az.H.HaF`Tae#Ras.SaF#v#v",
"#v#v#v#s`v.0#U`y#a.Faq`Pa6#z`o#s.3alaI.Namav`Eai#H.`ak`E`EaTaKaka`a`#Ga#.b#Bakah`s.#`0aS`eapap#D#h.S`z`zaD#zaD#z#z`z`r#n#a.w`S`3#v#v",
"#v#v#v#s#6.0#F#Uaj#K#faDaD.k.y#saX`sa4.r#Bav#O`yaOaO`yakai.Jaaax.g`B`y`sa#.xam.b`s.b.e`X.haHapaw.pan`r`T#Q#.#.#.#.#.`T#z.I#B`S.##v#v",
"#v#v#v#sac..aW.ba0`A.qaq#n.k`##s.ral#V.raV#kaKav#t`y.``FaT.i.Y#G#T.`ak.MaI.x.J`q`wa..Sanap#Manan.e.S`rag##`P`Pa6##`3`3#z#.#l.faF#v#v",
"#v#v#v#s.6#V.7#wa0`d.c`A`Paqao`s#A`n`p.Q#l`B`E.i.5.b#0#Y#j#j.5.5.baK.5`R.6aV.6.6`V.lan#MaO#Manapas.e#d#K#z#n#n#n#zaDaDaD`z.o#oaF#v#v",
"#v#v#v#saP`c`c#w#C.n`d.k#dafaoac.r`s.N`x.x.Kai.i.8.8at.8#i.8`Zat.8.5`w.Q`n#lala#aX.Iaw.h`X`X`X.S#M.e#2ae`T#Q#.#.#Q#Q###n#z#z#2`3#v#v",
"#v#v#v#s`aaYaY.n`5`pa0.Z`r`P.a#m`x#V.r.Q.a`Xaa`E.i.iai#Y#8#Z`Zav`K`E#e.Q`sam`naI.3.I.z#M#M#T#M.p`X#M.z.Baq#n#n#n#S#S#n#S#naD`7aF#v#v",
"#v#v#v#s`4aYaYaY`i`1`V`R#d`PaZ#x.Q#C`D.Qah`X.`aCaCaaaa.5#i`Mat.Y.daa#e.Q`kaP`saI`kaB.Oa``y#B#G.f.z`yaS#l`P##`3`3##`3#S#nafaD`L.##v#v",
"#v#v#v#s`aaY`.`.`..7aI#r.U.F.m#x.#.r.r.QaP`2.gaa.d`j`FaC`F#U.4.Y.d.dau.NaX#1.7a4`R.o#laOaO.g`2`B.S#TasaS#Q`T`T`T`T##aD#zafaqaZ`3#v#v",
"#v#v#v#s`aaY`m`..s`5#Z#3#f#zagaA`x#7.N#7`q.1`t.d`F.d#k`F`Kaiaa#k.dakau.Mac`s`s#V`k.o`U.S`1`i.J#t`X`Xas#a`P#z#z#z#z#z#z#n#n`N`oaF#v#v",
"#v#v#v#s#l`c`m`b.n`a.u#e#AaD`P#N.Q.r`p.NalaV.K`H`W`F`F`FaCaC`F.4av#G`n#r`s`sa4`k`R.Ia.`Sayay`1.g`X.has#o`T`T`T`T`TaD`zaD#S`L.y`3#v#v",
"#v#v#v#s.1#J`I.a#o.xai.Gad#f`P#N`x.N#e.7#V.A`2.Kaxaa`F`Faaaaaaav`g`t.6.6`s`nal`k.raZ#4`S`5ay.A#PaH.h#b.w.Uaf`Paf#SaD#zaD`J#L.yaF#v#v",
"#v#v#v#s.f#o.h#R.h#laK.b.#.k#d`x#N#w.t.u.7.Jax.K.g.``FaCaCaCaC.Y`BaH.6.I`sal#1`k.Q#raI.f.W.W.A`X`tas`2#maD`zaDaD#zaD`z###E#E`o`3#v#v",
"#v#v#v#s.j#D#R#R.h#BaKa#.q.k#N#x#N#V.t.ualal.1.gaLax#k`FaCaC.Y`j.g`taIaI`saK#1#V#N#N#I#y#7`8#c`wa.`Sa1#S###Q#.#Q#S#z#z`L#E#E`eaF#v#v",
"#v#v#v#s#o#J`e`oaSaQ.laX#d#d.q`x#IaX`V`q.uaTav.gaLaxaxax`j`j`j`B.gaO.M.6.6`u.u`p#I#N.Q#e#e#e#8#8#yaM.U.k#z#za6#.#.af`L`o#E#J.haz#v#v",
"#v#v#v#sa1.###.H#Q.M`GaA`A#da0`x#I#7.7`q`g`q`u`jaxax`j`j`j`j`jax`2#Oam`4akak#1`p#NaA`p#1#p.W#j#Z#Z#8#c.Pa3#z#Safa6#.##`z#z`o```3#v#v",
"#v#v#v#s`Xas#J#a.X#N#`#`#N`A#I`x`A`D.7`u`g.Yak.``j`j`j`j`j#k`j`jax`g`Bak#t#4.6.Na0#N.N.u#YaT.i.W.8`M#ZaW`8#f`r`z#z#.#L#Ea6`7`e.##v#v",
"#v#v#v#s.e.Oaw.f`QaE.r.N`6#I#I#I`A.N.u`4.A`g.Y`W`W.d.d.d.d.d.d.d.d#k`g`g`y#4.J.NaA#I`G.u.iaT`EaTaT.iat`M#Z#8..`O.h.R.R#R.2ae#baF#v#v",
"#v#v#v#s#B#H.p.6#8#8au#`#I#N`A`A#I`s`q#O#k.A.Y.Y`FaC`F`Faa`F`FaC`KaC#0av`g#4`q#7#NaEaE#j.5aT#0#0`K`E.i.W`M#Z#8#p#a#M#Tan.e`Q.XaF#v#v",
"#v#v#v#s`U#e....`V#p#Z#`#I#IaE`A.N.u`q`g.`av`FaC`K`K`KaC`KaCaC#0#0#0#Yaiak.xah#y#I#N#7#7aT.JaC`F`uaC`EaT.i#i#Z#c`8aM#u#yad.r`C`3#v#v",
"#v#v#v#s..`6`6#`at.5#YaE#7#I#`#walal.u.Aav.YaC`K#0`E`E#0#0`E#0aT.u.5`Z`E.J#O`u#c#I#`.N`V.Wav`W.d`W`FaCaTaT.i`M#Z#8#y.PaA`6`6.IaF#v#v",
"#v#v#v#saN.P.#au#Y.u.u#7#7#7.s.u.6#1.uav.Yai#0#0#0aT`EaT#0aTaT.5.5.u.i#Y#Y`qah`5#`.N#7.7aK`W`j`j.d`W`F`u`K`EaT.W`M#i#8#7#`#`.XaF#v#v",
"#v#v#v.m.yao.y.y#D#D#D#a.j#a.y#D#D.y.y#D#D#D#D#D#D#D#D#D#D#D#D#D#D.y#D#D#D#D#D.y#a.y#D#a#D#oan`S#o`S#o`S#D.j#o.y#D#aaw.y#a.y#a#d#v#v",
"#v#v#v#v#v#v#v#v#v#v#v#v#v#v#v#v#v#v#v#v#v#v#v#v#v#v#v#v#v#v#v#v#v#v#v#v#v#v#v#v#v#v#v#v#v#v#v#v#v#v#v#v#v#v#v#v#v#v#v#v#v#v#v#v#v#v",
"#v#v#v#v#v#v#v#v#v#v#v#v#v#v#v#v#v#v#v#v#v#v#v#v#v#v#v#v#v#v#v#v#v#v#v#v#v#v#v#v#v#v#v#v#v#v#v#v#v#v#v#v#v#v#v#v#v#v#v#v#v#v#v#v#v#v",
"#v#v#v#v`r.T`r`r.T`r.T`r.T`r`r.T`r`r`r.T`r`r.T`r.T`r.T`r.T`r.T.T`r.T.T.T`r`r`r.T`r.T.T`r.T.T`r.T`r`r`r`r`r.T`r.T.T`r`r.T.T.T`r#v#v#v",
"#v#v#v.L``ap`2as`X.h`X```2`2apaH#R`X#basas#R#o#o#oasas.h#D.y#J#J#J.j#o.jas`e#J#D#oap`2asaHasap`2as#o.R`X`X.h``apas`X#baH#RaH``ag#v#v",
"#v#v#v#s`XaG#c#`#U#F.b`B.4`K.4`SanaV`Eat.6as#G.eaSa4aIaM.H#.`L.L.m`D`i`c`a`L`J`0ar`saKaKam.f#B.i.5aKaO#H`F.O.Oaka7#F#0aa.`aGawaF#v#v",
"#v#v#v#s#l.ba#.o#Y.8.Ga7#U.4.4aU.e.z#Bai.6#p.p`Sa`aA#I`x`3`J`L.L`T.s#V`1`k`0`N`7`7aN.t#j.S`jaG.G#F#Y...B.0#5a3#g.l#p.l`F`Faa`B.##v#v",
"#v#v#v#s.San`B.S`y.O.la3#5.0#5#f#m.O#Y.0#3`G#3#M#M#`a0#C`J`N`N.maIac#`.Q#C.rae.2.I.7`paW`Q.p.b`saB#3#X.F#f#K`r#K.l`j#Fai.4.daOaF#v#v",
"#v#v#v#s#Jan.4`gan.S.Saja3aqaq#z#f.P`8#jaW.PaM.S.G#8.D`q`f.m.nac.6.Q#x`x`x.N`karaP`4.D#7#XaU.UaA#A#5#K.U.#aD#z`vaL`H`HaLaLaL.R`3#v#v",
"#v#v#v#s#J.S.paa#TaO#2.Hafaf#Qa6#5.P#y#y#y#u.P.Pad.f`4`k.Qad.Q.r`s`x#x#d#N.Q`ka4a.aVa``Ra3#m.U#KaD`r`r#5#Aaqaq#2#P`H`H#TaO`H`taF#v#v",
"#v#v#v#s#o#a#2.p.eaU#maf.Faf#.aF`v#y#c#y`8`8aX`xaB#t#V`A`R.r.Nadac.r#I`x.r.raX.ra4a#aVa..UaU#A#f#z#z#n#uaMag#5#T#W#WaL#UaG`H.R.##v#v",
"#v#v#v#s#lasaQ#g#5#5aUafafafa6a6aU#y#j#c#c#jaX.Q.XaP#VaV.fa7#1#V.M#j`w`V`w`q`q#e.Nah#l.fajauaj.##f#f.Uaj..#Qae.z.K#WaLaL`HaL.RaF#v#v",
"#v#v#v#s.Xap`Ca3.F#zaza6afafa6.H`Q`8`ZaW#uaB#e.r.aahaV#k`E#j#Z#8`8#8#j`Z.5`K#Oav#V`s.f`B`s`R`RaU..aMaW#3.oaz`Jaw.R#W#WaL`HaL.RaF#v#v",
"#v#v#vab.C.h#J.F#5#fafa6.Ha6.HaF.0..aW#yaM#cajac#4#4.`.bau`8`8`8#c#8#eau#Z#j#0av`q`Vah`Sah`V`w`s#FaQa7.C`Qae`QaL.K.K`H`H`H`H.R.##v#v",
"#v#v#v#sa..h.h`v`Q.Fa3.H.H.H.H#QaQ#F.l.4.4.baXa4am#l.`al#8aM#c#8aW#Z#eauau#iat.Yav.t`4.fam`s.G.I.o..#6.L.2aR`7#P.K#W#W#W`H`H.RaF#v#v",
"#v#v#vab#2#R`e.2aqaq#S##azazazae#h#Ha7.0aI.6`Ra4.1aVa``Z#e#Z#e#j#j#j#e#j#jatataKav`w.xaV.xaB#3#5.Faf.H`J.C#h#D.K`H#W`H.K#W.K.RaF#v#v",
"#v#v#v#s.S.h#D.Cafaq#na6azazaz#6a1#TaS#2.C.o`Rac.f.a#t#Y#j#j#p.i`Z`Z#p`Z`Z#YaTai`Wal`gaV.xal#5afaf`NaRab#h.S.S#M#P.OaQ#a.zaQ.SaF#v#v",
"#v#v#vab.h`o#JaH#2#Q.2.C#2ab#Qae#2.S#E#E#E#s.3.7aV.J`j#Y#j#pat`Z#Y`Z`Z`Z`Z`Z.5aKakalaV.x.x`n#m#n#QaoaS.O#M#aao#2`v#5`QaN.L`Q.X.##v#v",
"#v#v#v#s``.R#R#b.eabaU.l.z`X#Q#n.Haqaf`N`L.m.M`Va..6#k`q.8`w`Z`Z#Y#Y#Y#Y#Y`Z.5aKakal.famakaI#A#S#6ap#b#M#o`O#2#6aD.Faqafaqaq`7aF#v#v",
"#v#v#vab#R#b#D.z.z`v#5#F.z`t#.#K#fafaD`L`C..`V`s`naI`g.J#Yai`gaa`E`EaT`EaK.x.O`gak`s`g#4#4a#aj#5.Lapapap#J#h.O#6#z.Fa6a6##a6.X`3#v#v",
"#v#v#v#s.h#J#J#R#R#Q...0#U.4.Ua3#zaD.TaZ`Cac#r#VaX`n#G`F#H`B`2`B`g.Y`K.Y#k`2.g`Baka4aV#4ah`q`s.a#Japap.h#M#h.z`N#S`T`T`T#Q`T`CaF#v#v",
"#v#v#vab````#R#Rap.UajaW`Z`s`Y#xagafaDaZ`C.3#V`s.N`n`yaiai.``B`S#kai.5#F#kax`B.`.G#VaV.b`q.6aB#h#Tap`X#Man.z.e`Q#K#zaD#zaD#z.2aF#v#v",
"#v#v#v#s``#R#R.h`3a0`k`w`V.r`b`h.Z`PaD`7`C`R#V`s.r`s`2.4.5`E#O#U#0`Z`M`Z`E.l.4.J#p`kaVa##1#1`n.w`X#M#Man#MaO#a.B#d.H`3`3`T`3`CaF#v#v",
"#v#v#v`L````#R`#`A`k#w`5`5#C.V`b`h.Z`r`7.Xad#Vac`x`s.g#G.5.8.8`Z.W#i#j`Z`Z.8`Z.5aMaX.f.6a#`w`s.papap`Xas`X.S`S#h.3`T`T`T`3`T`C`3#v#v",
"#v#v#v#s``#R``.X`k.7.saY`..N`p`D.v#d`r`C#s#IaX#V#I`nan`B`Kat.8`E`E#i#Z`Mai#0.5.G#yaXam`n`qa4#r#h#M#P`t`Xawaw`XawaQ`r`zaDaD#qaZ`3#v#v",
"#v#v#vab``.haHaI`n.D`c`.`.`i`i#Vajag#q.I#m`x.r`Ra0`sawaO`F`KaCavaC#iaW#j.5`Waa`E#``kaP`V.6.M.M`U.z.z#H`g#H.wawa`.e.L#.`J#.`J.aaF#v#v",
"#v#v#v#sap`U#O#p.6`5.s`.aY`.`c.D`s`v#K.L`x#x.Q.N.Q`s.f`X`W`W`j.daCaC#0#0.Y`F#kaK#`.M`nac#1.ma4a.#M#P.g`2`B#M.zan`2#6`3####`3`C`3#v#v",
"#v#v#v#s.h#F.5.baG`D`c`.`maY`c.7#p#x.TaFag#N.Q.N`D`V#4.Kax`F`W#k`WaC`F.4.d.`.d.6.QaI#V#V#1.N`QaZa`aV.u.AaV`2`X`X.j#saD#n#n#z.2aF#v#v",
"#v#v#v#s#Ram.G#i#j`s`5.n`m`m`caI#j..#X#d`P`x.Q`p`p#Vah`B.K#k`F`Faa`FaCaCaaavaa#4.raPac#V`s.raBaZ`S`4ayay.A`XaH.h#b`C#.#.#.#.`CaF#v#v",
"#v#v#v#sao#h`E#Y`E`4.j`CaraJ`I#4.5aB.Zaf.q#I#`#V#e#w`q`y.K`H`W`F`F`F`F`Faaav.``Sa2a.`s`sa4.ra4.I`S.Day`1`B`X#RasasaU#n.k#z#S`7aF#v#v",
"#v#v#v#s.XaVa7ai.lam.aaH#R#R.j.4.laB#f#d`P`x#I.tal.Dal#G.g#WaxaaaCaC`F`FaC#H#P.SaXah`n#1.7.r`k.6.e`lay.u.g`t`X`2aS#n#z#n#n#z`7aF#v#v",
"#v#v#v#saZ#ham.l.l`U.a#R#R#R.z#U#F`k.k#da0#x#7#V.D.u`w.A.g.gax`j`F`K`K`Kav`B`ta`acaI#1`q`s.QaA`x#y#c#8#8.6`U#M#MaUa6`3az#Q##aZ`3#v#v",
"#v#v#v.L`##b#Dao.San.h``````#R#o`S.a.X.X`C.a.aaV.1.ja``SaH.RaH`t`t`2`2`2.gaH#Ras.1aS.S`S.1.a.X.a#l.w#laV.a.a.w#o`7`7.X`7`7`C#D.H#v#v",
"#v#v#vaDagagagagagag######agagagaga6agagagag##agagagagagagagagaga6agagagagagagagagagagag##ag##agagagaga6agagagagagag##ag####ag.T#v#v",
"#v#v#v#v#v#v#v#v#v#v#v#v#v#v#v#v#v#v#v#v#v#v#v#v#v#v#v#v#v#v#v#v#v#v#v#v#v#v#v#v#v#v#v#v#v#v#v#v#v#v#v#v#v#v#v#v#v#v#v#v#v#v#v#v#v#v",
"#v#v#v.m`0`0#6`0`0#6`0#6`0`0`0`0#6`0`0`0`0.B`0`0.B`0#6`0#6`0#6#6`0#6#6`0`0`0`0`0.B`0`0#6`0.B`0`0#6`0`0#6#6`0`0#6`0#6`0.B`0#6#Q#v#v#v",
"#v#v#v`o#6`0`easaV.1`X`e.e#b.w.eap#o.a#l.han#J``#R`e.w.a.ja#`s`sa1`Iam#ban#4.p.R``.R#P.K.g`2.Oa``2#Rap.h.j.1.eaS#o#R#RaH.R#Rap#v#v#v",
"#v#v#v#b.Oa..e.zaiav.S.O.O#H#eau`S.laAaRa1a..baZ#s.m`T`x`Aa5a5`b.mac`k.b#H`F#FaV.S.aaa`g#la``FaC#B`tah#3#H.l#j.``X#o#lamah.b#J#v#v#v",
"#v#v#v#Ja7.b.OaG`E#U.z`S#H#F`ZaB.e.Oam.aaN#1`naF`3.L`L`JaY#w`c`f`7`N`J.B#r.baK`U#l.p`E.iat#MaGaa.p#M#Haa.l`E.l`j#k.4aa.laGai#J#v#v#v",
"#v#v#v#oat#Y.O.4`FaaaQ.aaw#G#Fa#.la.a`aw#r.Q`x`Taz`L`L.m.Q.7#1#w#s`N`LaZaR`w#i.Oa``j.l.G.5#B`Qa7.G.U#g.l.G`E.4aaaa.4#YaB#H#Has#v#v#v",
"#v#v#vas#Ba7.U`G.l.o#fa6awa7.b.b`G#u`2#M#3aE.n#Q`N`L#.ac`f.r#y#w.3.m`L`CaP#7#eaB.p.4.G#g#g.U#f`6#K`r`r...p#U.5`Faa.d.0aR.Sawas#v#v#v",
"#v#v#v`e#Taw.oa3.Faq#f#f`G#y#j#j#`aA.Saw#y.t.tar`kaF`k.6`k#N`x#I`xaX#VaI#1.D`V#X#m#3a3`Raja3a3.##z#KaqaG`H`H#T.zaL`H.z`OaoaS#J#v#v#v",
"#v#v#v`eaO#M`Qaq.Fa6a6.F.P#u`8`8.P.P`8`v.G`u`a`k.r.V.r#pa2`x.q#x.QacacaJ.f#tal#X.U.##K#f#zaD.F#u.FaqaU#P`H`H`H#W`H`H#Ma1`C#h#J#v#v#v",
"#v#v#v#Ja1...Fafaqaeae#m#u#c.P#c#yau.Pad`S.b#I`x`x.r.Q`k.m#N`A#N.Q.r.Q#V.6am#H.##Aa2.FaDaD#zaga2#5a6.C#W#WaL#k.4#T`H#W#h`O`C#J#v#v#v",
"#v#v#v#D#5aea6afafafa6`v#y#j`8#c#c`V`x`s#laXaI#H#4.6`V#V`w`V#V`V#1`q#e.N.6#4a`.MaU.r#5aq#fa3`8#AaUaz#2.K#W#P#T#TaL`H.K.e.y`##J#v#v#v",
"#v#v#v.ya3aza6a6afa6.H.B`v#i#p`8#e.G`xaP.aah`yak.5#iaW#8#8#j`Z#YaKaCak`s#Vamana#aX`8aUaj`GajaW#gaeae.C.K.K`HaL`H`H#W.K.e`O`C#b#v#v#v",
"#v#v#v.y#faqa6.Hafa6.H#g..#caj#uajaW.raP#4aV.x#p#c`8`8`8#c#Z#e#Z#j`Eaa.J`paP#t#B.M#V`V.0.b.l.laR#Qab.C.K.K#W`H`HaL#W#Waw`Oa1#J#v#v#v",
"#v#v#v#o.Ha3a6.H.H.HaFaR#F.0#U#F.0ac`kaK.x`y.b#Z#c.r#c#8#Zauauauau.8aKak.7aKaV#G`naN.b.b.o`Qababab`7.e#W.K#W#W#W`H#W#W#M`oaSas#v#v#v",
"#v#v#v.y.F#nafazazazaz.CaGa7.l.0.l#Vaca.aV`B.u#e#Z#Z#i#i#j#j#e#j#jat`EaaalahaV.f#1.6aU.H.F.H#.a1.C#a#M`H#W`H#P#P#W#W#W`X#D#Jas#v#v#v",
"#v#v#v#Daq#SafazazazaeaRaw.z.CaR.I`R#VaJaV`B.b#j#j`w`Z`Z#p#pat#p#Y.iaT`W.u`4#G.x.GaU.Uaf.H.L`J.l.z.SaO#PaL.p.zan#h.z`t#Tawa.#J#v#v#v",
"#v#v#v#o#mae#6.2.Lazae#g#Dao#E#E#2#Aa4aJah`yai#j.8#p`Z.i`Z`Z`Zat`Z#Y.bav`q`4aVakaK`kaf#S#2`O#haw#M#E.SaR#3#g.C.C.IaU.oaUa1an`e#v#v#v",
"#v#v#v#J`7`Q.p.p#M.2afaeaeaz`N`7.Laj`sa.al.``u#p#j`Z`Z`ZaTal#Y#Y`Z#Y`Eav.G#4`g.xaP.3#zaq#oaO#M#bao.p`7`z`r#XaDaD#K#K.T#K.L#Rap#v#v#v",
"#v#v#vasaRa3.0aG.K.C.T#K#z#z###LaeaX`waP`R.xav`Z.G#O#O`E.5`EaT`Eah#B#B#B.6ah#4.xahac#5#.#aap#b#b#E#h.CaD`T#Q#.#.#.#Q`Taz.B`X`e#v#v#v",
"#v#v#v`e`C.U.0a7#BaN.FaqaqaD`T.j.B.M`s`saX`g#O`F#Gan`BaVai`KaKak`yaO`B.``s`U#4#4`q`saZ#aapap.h#P.O#h#haD`3`3a6`3`3.H`T.H#S#l#J#v#v#v",
"#v#v#v`eaZ.F#3#Y.l.v#daga6#naF`#acaX`s#V`Ra`avaC.`aO#T`yav`E#0`gax`2axak#Vah#4a7a#`waQ#aap`Xap#Maw.w#2`r`raD#z#z#zaDaD`r#n`Cas#v#v#v",
"#v#v#v.y#d.r..aW.7`b`Y.E.k.k`T`#.M.N`s`k.N#t`g`E#0avak.YaT.8ataK`F#Bav.G.MaP#4`q.6`waQaO#M#M#M#o#M.S.X#X#Q#Q#Q#Q#Q#Q`T##`r.F`o#v#v#v",
"#v#v#v#a#C#V`5ar#Ca0`b`h#q`r#Q`#.3.Nal.Na2`S`B`Eatat`Z.i#p#i.8`Zatat.5`VaMaha..6#1`Va.#M`Xap#Map#M#M.wae.H##a6`P##`3`3#S#zaDao#v#v#v",
"#v#v#v#D`V.s.saY#C`p.N`d.q.k#..aad.rac.Q.N.e`XaK.i.8.i.5.8#i#j`E#0.5.5aX.Q.6ah.6#1.3.X#Map`t`XaO.w.haw.f#d#z#n#S#n#zaD#S#SaD.y#v#v#v",
"#v#v#v#oal.t`.aY`c`1`5.r.F#dae#s#x.r`k.Q.NaV.Kaa`KaTaCav`M`8#Zataa`FaC#c.r`s`qaI`s.3.I.O.z`y#H.O#H.z#M.w.2#..m`J#.#.`T#n#S#S.y#v#v#v",
"#v#v#v`o.7`5aY`.aY.s.D#3.3#K#Q.m#x.Q.N.Q`R#4`X#kaa.d.d`F`K`E.5ai.Y#kaa`R.N.M#1aIa4.3a#.SaO`2`y`B.Saw.z#MaZ#S#n.k#d#S`P#z#zaf.y#v#v#v",
"#v#v#vas.7`c`.`.`..s`i`w..#Xag#xaA`x.N`D.Na.`2.gaa`W`j.d`Faaaa.4#k.`.Y.Na4`k`w`s`k.M.o#B`B`l.x#t`B`2`t#o.aa6#########n#z#Saq.y#v#v#v",
"#v#v#v#o`s`caY`m`.aY.7`ZaX.F#na6aA.Q.N`p.N`q#t.K`j`F`F`F`F`E#0aaaaaa#Bau`n`ka4`saX.M.I.w`Iayay.D.g`Xapasao#.`T`T#.`3aD`zaD#S`o#v#v#v",
"#v#v#v#JaKaVaJ#C#waJ#4`EaB.U.k`P#x.Q`p#V`p#1#G#P#W.d`F`FaC`F`Faaav.x`2ac.bac`na4.N.3.I#laV`5ay.A`X#R`Xasa1#faDaDaD#zaD#z#z#.`o#v#v#v",
"#v#v#v#o#4.X.h#R#R`e.x#F.G.q.k.q#x#I`p.7al.t.x.g.K`B`WaC`Faa`F`F.Y`B`t#raP`sal`s`ka2aP#4#tay`1#t`taHas`2ae`P`Pafa6#SaD`za6#L`e#v#v#v",
"#v#v#v`O#J#J`e`e`e`e#J#J#o#D.y.y.y#D#o#o#o#o#Jasasapas#Mananan#J#o`eas#o#o#o#o#o#D#D`o#J#J#oan#J`eap`eas.y.yaoao.y.y.y.y`o`o`##v#v#v",
"#v#v#v#v#v#v#v#v#v#v#v#v#v#v#v#v#v#v#v#v#v#v#v#v#v#v#v#v#v#v#v#v#v#v#v#v#v#v#v#v#v#v#v#v#v#v#v#v#v#v#v#v#v#v#v#v#v#v#v#v#v#v#v#v#v#v",
"#v#v#v#v#v#v#v#v#v#v#v#v#v#v#v#v#v#v#v#v#v#v#v#v#v#v#v#v#v#v#v#v#v#v#v#v#v#v#v#v#v#v#v#v#v#v#v#v#v#v#v#v#v#v#v#v#v#v#v#v#v#v#v#v#v#v",
"#v#v#v#v#v#v#v#v#v#v#v#v#v#v#v#v#v#v#v#v#v#v#v#v#v#v#v#v#v#v#v#v#v#v#v#v#v#v#v#v#v#v#v#v#v#v#v#v#v#v#v#v#v#v#v#v#v#v#v#v#v#v#v#v#v#v"
};
