/* XPM */
static char *_3_frame_5[] = {
/* width height num_colors chars_per_pixel */
"    66   100      256            2",
/* colors */
"`` c #161114",
"`. c #3cb671",
"`# c #484c30",
"`a c #7dba7b",
"`b c #427c43",
"`c c #7aca86",
"`d c #8ecaa7",
"`e c #8f7c3f",
"`f c #8ad2af",
"`g c #98a666",
"`h c #292423",
"`i c #704e3e",
"`j c #8ce7cc",
"`k c #673727",
"`l c #a07c38",
"`m c #c0b941",
"`n c #e6e39b",
"`o c #735d44",
"`p c #b89b33",
"`q c #96eece",
"`r c #8abe8a",
"`s c #572d21",
"`t c #8c5d46",
"`u c #beb454",
"`v c #70dea2",
"`w c #393b38",
"`x c #b58d26",
"`y c #39a058",
"`z c #b6a94f",
"`A c #959796",
"`B c #c4b89e",
"`C c #a3cba2",
"`D c #eff2f6",
"`E c #887965",
"`F c #6bc587",
"`G c #b5a57c",
"`H c #8b6c48",
"`I c #cdb4a8",
"`J c #3c111f",
"`K c #49271f",
"`L c #4c8a51",
"`M c #9f846c",
"`N c #a8987b",
"`O c #446a34",
"`P c #ad836d",
"`Q c #5dd7a5",
"`R c #3a3634",
"`S c #b69a75",
"`T c #97664f",
"`U c #c6c656",
"`V c #cfc8b7",
"`W c #90846d",
"`X c #afabb0",
"`Y c #593a29",
"`Z c #706a76",
"`0 c #80d2a2",
"`1 c #dad490",
"`2 c #465256",
"`3 c #4a9a5e",
"`4 c #77aa73",
"`5 c #875336",
"`6 c #302d2c",
"`7 c #200a14",
"`8 c #b5b5b8",
".` c #41c279",
".. c #545255",
".# c #7d6f33",
".a c #af8e65",
".b c #57854d",
".c c #b1bac7",
".d c #dbd4b6",
".e c #c1a77c",
".f c #241818",
".g c #e6e0b0",
".h c #d9caaf",
".i c #605e5f",
".j c #878688",
".k c #644131",
".l c #5dc884",
".m c #5e767e",
".n c #6ed79a",
".o c #a19aa7",
".p c #573c3e",
".q c #e1eaf0",
".r c #9f7a6f",
".s c #a18c69",
".t c #946c63",
".u c #68a9ad",
".v c #7b4a36",
".w c #9db797",
".x c #80b88a",
".y c #39241a",
".z c #7dddb5",
".A c #37436b",
".B c #82aa72",
".C c #7c4538",
".D c #b29a8b",
".E c #3e2c1c",
".F c #8a6760",
".G c #d7d4ca",
".H c #cebfc4",
".I c #c3a592",
".J c #7b5a54",
".K c #5c4d49",
".L c #4b311f",
".M c #929295",
".N c #6a6a3a",
".O c #cdaba9",
".P c #bf9b8c",
".Q c #b9bec5",
".R c #c3cad3",
".S c #9ea69a",
".T c #4e3c38",
".U c #e6d7d0",
".V c #4bc176",
".W c #301417",
".X c #a18f8c",
".Y c #b18d79",
".Z c #cfbea5",
".0 c #7d534b",
".1 c #779087",
".2 c #d9dee5",
".3 c #bab662",
".4 c #625a59",
".5 c #c5ae95",
".6 c #764532",
".7 c #9d695f",
".8 c #aa973e",
"#` c #3d9653",
"#. c #a97c6b",
"## c #6eb7bd",
"#a c #7db4b0",
"#b c #525432",
"#c c #b6a691",
"#d c #2f1c1a",
"#e c #411e1d",
"#f c #97624c",
"#g c #674448",
"#h c #a28751",
"#i c #9a7251",
"#j c #e6e2ba",
"#k c #76ca8a",
"#l c #cecacb",
"#m c #4a3f3b",
"#n c #777c5e",
"#o c #70615c",
"#p c #60525e",
"#q c #60b87e",
"#r c #bc907b",
"#s c #898ca1",
"#t c #7d563c",
"#u c #57a669",
"#v c #a79a99",
"#w c #392f2e",
"#x c #fefefe",
"#y c #c6ca72",
"#z c #5a432c",
"#A c #739875",
"#B c #ac7b60",
"#C c #a18486",
"#D c #7ce7ce",
"#E c #8c5f57",
"#F c #ded8dc",
"#G c #6bce95",
"#H c #c5b5b0",
"#I c #726e3e",
"#J c #c6b86e",
"#K c #c4bcac",
"#L c #927b69",
"#M c #738296",
"#N c #d2c0b8",
"#O c #c2abab",
"#P c #ecedee",
"#Q c #4a6466",
"#R c #9d7060",
"#S c #8a7065",
"#T c #705253",
"#U c #96878b",
"#V c #7dc0c7",
"#W c #584445",
"#X c #a7b4bf",
"#Y c #a2a9b0",
"#Z c #7c6358",
"#0 c #a08a76",
"#1 c #ccd4de",
"#2 c #6ce2c9",
"#3 c #b18579",
"#4 c #81c7ca",
"#5 c #6e4331",
"#6 c #65564d",
"#7 c #413f49",
"#8 c #372529",
"a` c #61666e",
"a. c #4b1726",
"a# c #888a52",
"aa c #b29963",
"ab c #cfbf8f",
"ac c #8dbcbd",
"ad c #8fcad1",
"ae c #7b999d",
"af c #c5a8a0",
"ag c #8b9bb7",
"ah c #7c6c71",
"ai c #8a5549",
"aj c #7f5f44",
"ak c #644d33",
"al c #a26d51",
"am c #4a3332",
"an c #a0775c",
"ao c #c2c1c3",
"ap c #787a7a",
"aq c #dccac5",
"ar c #7c503a",
"as c #300d15",
"at c #572f3d",
"au c #72a7ab",
"av c #dee4ea",
"aw c #a0c2c6",
"ax c #422e30",
"ay c #a59b8c",
"az c #9a6c50",
"aA c #beaead",
"aB c #3b527d",
"aC c #4eca7b",
"aD c #b18e85",
"aE c #937955",
"aF c #a17e5c",
"aG c #86aaaf",
"aH c #d5d7df",
"aI c #b08e4a",
"aJ c #d3c89f",
"aK c #89899a",
"aL c #b4a7a2",
"aM c #cecddc",
"aN c #715642",
"aO c #c2997c",
"aP c #e8e3e4",
"aQ c #c9b48e",
"aR c #2a3656",
"aS c #664f48",
"aT c #b47c6c",
"aU c #668c5e",
"aV c #3e181f",
"aW c #a4c9d0",
"aX c #a39077",
"aY c #927a7a",
"aZ c #403d38",
"a0 c #3daa61",
"a1 c #7c6c5c",
"a2 c #4db96d",
"a3 c #857a7b",
"a4 c #71edce",
"a5 c #a37161",
"a6 c #b8866c",
"a7 c #e4c2c2",
"a8 c #000000",
/* pixels */
"#x#x#x#x#x#x#x#x#x#x#x#x#x#x#x#x#x#x#x#x#x#x#x#x#x#x#x#x#x#x#x#x#x#x#x#x#x#x#x#x#x#x#x#x#x#x#x#x#x#x#x#x#x#x#x#x#x#x#x#x#x#x#x#x#x#x",
"#x#x#x#x#x#x#x#x#x#x#x#x#x#x#x#x#x#x#x#x#x#x#x#x#x#x#x#x#x#x#x#x#x#x#x#x#x#x#x#x#x#x#x#x#x#x#x#x#x#x#x#x#x#x#x#x#x#x#x#x#x#x#x#x#x#x",
"#x#x#x#x#x#x#x#x#x#x#x#x#x#x#x#x#x#x#x#x#x#x#x#x#x#x#x#x#x#x#x#x#x#x#x#x#x#x#x#x#x#x#x#x#x#x#x#x#x#x#x#x#x#x#x#x#x#x#x#x#x#x#x#x#x#x",
"#x#x#xaM.j.j.j.j.j.j.j.j.j.j.j.j.j.j.j.j.j.j.j.j.j.j.j.j.j.j.j.j.j.j.j.j.j.j.j.j.j.j.j.j.j.j.j.j.j.j.j.j.j.j.j.j.j.j.j.j.j.jaKaP#x#x",
"#x#x#x.j.E#W#W#d`i`i#W#8#8#Waj.J#6#d.4#6.i#o.K#o#sap#Qa`#n`e.#`e`#.i.maha1aS#TakaZ.T#g.J#o#W#8`Y.p.W#d.p.p#W#T`K.yamam#W`Y.p#d.c#x#x",
"#x#x#x.j#T#.aSataiai.p#mam.p#EaYaS#Wam#maS#c`Nao.Qae#M.o`B.e`e`za1ag#s#sapaX.t#E#Wam.0.r.7.k.K`i.JaYa3#Z.t.r#E#5.6.0.t.r.J.Jax`8#x#x",
"#x#x#x.j.K#R.DaL.F.0#v#F#m.p.F.F#c.OaS#8#o.Zab#K#Xae#M.Sayaa#caa.SaL.1a`a``N`S.ram#5.F.r#SaDaP#H#HaP#P#O.J.r.7#Eai.C#E#U#p`Y#8.c#x#x",
"#x#x#x.j#d.p#o.U.H`X#F.2.H#CaD.r.P.H#Z#d.F.e#J`N`A`A.waX`E`B`B`BaQ#c#c`W.s`G`S`I#H.J`I#v.XaAaP.H#F#PaP.Hata.#g#T`kat#W#paZ`R`6`8#x#x",
"#x#x#x.j.W#8ataHaMaH#FaH.H`Iaf.P#O`I.Iah#O#iak.#aXaQ#c.saXaJ#K.Z#c`W`N#nak.LaEaqaPaL#F.UaM#FaP#H.QavaH#W`Ja.a.`Jas`JaV#o.i`##8.c#x#x",
"#x#x#x.j#d#p`XaMaM.caK.Q#H.O.Oaf.O.I#H#N`E#zaa.h.h.Zab#cay`B.d.U.d.Z.5`N`E`o`Y`8.H#O#l.q.q.q.2#OaAaM#H#8asa.a.#ga.a.`J#W.i.i#w`8#x#x",
"#x#x#x.jah`X.caMaM.R.Q`8aA.D.O.Oaf.Paf`BaS`E`B`W#S`W`N#c`N.D#c`GaX.s`S#c`Wa1#zaYaAaLaL#F.2#F.HafaL`8#saVas`Jat#gata.`JaxaR..#w`8#x#x",
"#x#x#xaK.o.c`8ao.RaMao`X#O.PaF.I.P.FaQ.D#b#L.J`k.0an.Y.P`S.Y`P`MaF`H`t.a`G#Z.T#6.D.I.D.HaqaMaA.PaK`8#saVasaVa.a.a.a.`J#8...i.E.Q#x#x",
"#x#x#x.j.o#Fao.Q.R.R.Q.o#vaf.P#O.5#0.5aXak#Z`Y#E.Y.P.I.Iaf.PaDaD`P.tar`t`SaE#z`Y.X.D.D.XaY#CaYaY#U#XaK`J`7.W`Ja.a.aVas#e..a``6`8#x#x",
"#x#x#xaKa3aHaM.Qaoao.Q.oah#C#RaD#C.DaA`WaNak#5aX.I.Oaf.I.P.P.PaO.PaD.7`iaE`M#6`Y#LaX#CaYah#Zah#M.o#s`Zasas`J`J`J`J`JasaVaR.iax.Q#x#x",
"#x#x#x.j.MaM#1.c.c.c.c.oaS.F#Z.J#T#S#c`Wak.T`i.Y.P.P.P.P`SaD#raD#r.Y#.ai#Z`Pak#z#Z`M#S#U#H.H.oaK`Z.i#W`J`J`JaV`J`J`J`J`J`h`h```8#x#x",
"#x#x#x.j.M.2aH#X#X.c#Xa3aS.pah#v#U`N`G#h#m.L`i.a.Y`S.Y`P#3#3.Y.Y#3#.#B`tajaFakak#Z#C#HaMaM.R.c.M#pax`6as`J`Kat.Wax`Jas#8#d#m.E.Q#x#x",
"#x#x#x.jaKaMaM#Y#Y#X`X.o#gax.AaR#7.X#v.sak.p#5`P.Y`P#.#.`P`MaF#.#..r#R`t#t#L.k`i`o#0.Q.R#Y#p#p#T.paRax#7#ga3#W#W#p#U#W.p`Z.4#d`8#x#x",
"#x#x#x.j#p`Z#p#Wam`Z.oag..`Za`aB...SaX#0#Zak#5`P#3#C`P`P#.#.#.aF`P#.#i#EajaF`Y`o#t#0aMav`ZaRaxax#8#p.A`XaPaM.RaMaMaMaP#P#F#d``.Q#x#x",
"#x#x#x.j#7aM#v.t#8`haP`D#x`D#Pag.SaL#C`W#0ajakaF#3an.t#R.rananan.r#S.F.J#Z`M#zaN`o#0`8ao`Z#d#d`h#7#p#paMao`X#X#Y`X`8`X.cao```7`8#x#x",
"#x#x#x.j.faPaY.t.pam`8.H.Q.Rav`#`Z.D.s.s#c#Z`i`Taj#gam#g`T`T#R#f`i.L`K`Y`H#LakaNaj`M#va3#7`h.f#dax#gaxaM#P#Pavavavav.qavav.4`h.c#x#x",
"#x#x#x.j``aP#C#R#E.D`D#F#1#1.q`2ap`G`W.saQaj#g`t`k#e#d`K`i#Eaz.0`s#d`K.L`M`Makaja1.saY.K#d`h.f#dam#paxaM.Q.c.c#X#X`X#X.c.2.j#w`8#x#x",
"#x#x#x.ja3aM.o.PaY#J`1.gaPavav..a3#c#0aX`I`o`Y#E.F.k`Y.kaia5#.`T`i`k`YaraX.sak`HaE#C#Sam#8#d#8#waxam#maM.Q`8`8.c.c.c#X`8.2#l`R.Q#x#x",
"#x#x#x.j`A.e`SaX`Nab`1`n.d#1av`#a3.5#0`N.Z#Z#d`T#.#..r#R#..Y.Y#..r.r.taE#O#0#W#LaEaX`Eam#d#8#8#8#d#d#WaL`D`D.q.q.q#P`D`D.q#Pap`8#x#x",
"#x#x#x.ja1aa`z`z`u`G`z`1`n`V#F`#ay.5aX`Gaba1`7.Ja5a6#3`P#3#raD#..raT#.`PaQaXak`MaE.Da3#W.f.W.f.f`R#8am#W#U`X#Y#Y.S#Y#Y.c#1.2ap.Q#x#x",
"#x#x#x.j#I#h`u`u`m.8aa.5.g.q.2..`X#K.D`G`B#S#d.k.7a5a5#fa5.PaO#3#Eai`T.Y.5`N#6#0`E.Da3#Wam#8ataxaSam#d.T`Z`8.Q.Q.Q.Q#XaH#1#1ap`8#x#x",
"#x#x#x.j`o`l`m`m`u.8.saX#v#laPap#K#K.5.5aQ`E.y`Kaiai.v.v#f#3#3#.#E.6.6#C.5.D#SaX`W#c.X#Waxat.p`Y.p.T.p.T#W.2.2.2.2.2#1.2.2#1`Z.Q#x#x",
"#x#x#x.jaN`z`z`U`m`m.8aE#C#K.2#cao`B.3.5aQaEam.W.v.C`k.Caiai.0.0.0#5#5aD#c`N`MaX.saA`W#o`K.y`K.y`K#8#8#d#m.o.S.S#Y#Y#X.q.2#1a`.c#x#x",
"#x#x#x.jak`u`u`m`m`u.8`SaD`VaPao`V.Z.5`G.e`Mak.W`Kai.v.C.v.7.7ai#5.CaraX`G.saX`N.s#ca3ah.E#h`x`l#z#d.f`h#w`A#1.R.R.R.2av.2.2a``8#x#x",
"#x#x#x.jaS#Z`e`m#y.3.#`H.YaLav.R`V#K.5`S`G.aaNaVas#5`5aiaiaiaiai.0.0`Y#S.X`W#0aX`N#ca3a1.E.8`p`xaV#d```h`6`8#1.R#1.Rav.qav#1`2.Q#x#x",
"#x#x#x.jak`o`6`6aZ`h.K`t.F#c.2#l`V`B.5aa#haa.F`Kas#e.Caiaiai.C.0#t`i.W#o`W#L`W#hay.5`W.N.y#h`x`H#d.f.f#8#W.Q.R.R.R.Rav.q`DagaR`8#x#x",
"#x#x#x.jaSaN#W``````ak#E#S#O.2`V.Zab#caaaE#haF`YasaV`s`5#E#f#f#f#E`Kas.N#L#0aF#L`NaQ#c`N#Z`P`x`T.y.W#d#8#vaH.2.2#1.2.q.q#1aB`6`8#x#x",
"#x#x#x.j.KaS`w````.f#W.F#S`V.G.G.Z`V`SaaaEaE#h#5#eaV`K`s.C#Eai`5`Y#e.Wa1`W#0`H#i`N#K#N.Z.5.I.eaf.P#0.K#o.2#1.Q.c.Q.R.2.2#M.A`h.c#x#x",
"#x#x#x.S`R`R#w`6`6`6`R`R`R`w`w`w`w`w`w`R`w`R`w#w`R`6#w#w#w#w`R#w#w`6#w`R`R`R`R`R`RaZ`waZ`w`R`w`w`w`w`R`w#7`w#7#7`w`w`w.A`RaR`R#1#x#x",
"#x#x#x#x#x#x#x#x#x#x#x#x#x#x#x#x#x#x#x#x#x#x#x#x#x#x#x#x#x#x#x#x#x#x#x#x#x#x#x#x#x#x#x#x#x#x#x#x#x#x#x#x#x#x#x#x#x#x#x#x#x#x#x#x#x#x",
"#x#x#x#x#x#x#x#x#x#x#x#x#x#x#x#x#x#x#x#x#x#x#x#x#x#x#x#x#x#x#x#x#x#x#x#x#x#x#x#x#x#x#x#x#x#x#x#x#x#x#x#x#x#x#x#x#x#x#x#x#x#x#x#x#x#x",
"#x#x#x#x`D`D`D`D`D#P`D#P`D`D`D`D`D#P`D#P`D#P`D#P`D#P`D`D`D#P`D`D`D`D`D`D#P`D`D`D`D#P#P#P`D`D`D#P#P#P`D`D`D`D`D`D`D`D#P#P`D`D#P#x#x#x",
"#x#x#x.j`h#8#d.f`h#w#w.EaZ`R`R#m#maZ`6`h.f``.f#d#d#d#d#d#d#d.f#d#d#d#d.y#d.f.f`h`R#m#m`Ram.y.y#d.y#d#d.y.y.E.E#w#w#w`h`h.f`h``ao#x#x",
"#x#x#x.j#L.D.Iaf.5aX`P.Y.Oab#JabaJ`G#h#i#t`karai`t#f`Taz.t#f`T#faz#R.tanaz#t`iaj.eabaJ.e.5aF#f`5`5`5`t`Tal#Ba6#r.I.5.5#NaqaJ`Z`8#x#x",
"#x#x#x.j`Naqaqa7.Z`PananaQaQaQabaa#haEaEajar`t#E`T.7.7.7alaz.7#Ra5anan.r#Raz`t#t`NaQaQ.eaa.s#t.C`k.6.v`t`T#i#Ba6#raO.I.O.Z.ha1.c#x#x",
"#x#x#x.j.j.Q#K.Q#c#B#iazaO.eabaOaE#h`H#h`taj`Taz.7.7#R#R#R.7a5a5#Ra5anaF#..raE`HaFaQ.I.e.Y`Har`s`s`k.C`5`5`t`Tal#Ba6#raO.I.O`o`8#x#x",
"#x#x#x.j#M.w#X#Xayanaz`TaF.eaQaa#i`eaEaFajazaz#Ra5a5a5#Ra5a5a5#Ban#.an#.`P`Pan.t#i.e.e`SaFaj`k#e`s`s`k.6.v`5`5`t`Talana6a6aOaS.Q#x#x",
"#x#x#x.jae.RaWawayal`T`T#iaO.eaIaj#iaaaF`Tan#B#B#.#.#.#B#.#.#.#.#.#.`P`P#3`P`P#i.a`Saa.a`lar.LaVaV#e`s`k#5#5ar`5`t#f`T.7#B#B#z`8#x#x",
"#x#x#x.j#M#aacac.M`H#f#i#haO.eaIaE#i`SaFal#.#.`P`P#B`P`P#3`P#.#.`P`P`P`P`P`P`Pan.a#raaaF#i`i.E#d.f#d#e`K`Y#5ak.v`5`5`t#falal.k`8#x#x",
"#x#x#x.j#MaGae#aa##f`Ta5alaaaO#i#h#haaaFan#BaT#B#.a6`P#3`P`P`P#3`P`PaF#B#.`PaF`P#h`PaI#haz.v`waZ#Q`w`h.L`k`k#5.v.v`5`5`5#f`T.L.Q#x#x",
"#x#x#x.jaR.j.o`Z`Z#f#f`t#faaaO#i`e#h#r`P`laT#B#B#B`P`P`P#3`M`M#.`PaT#.aFaF`P#.#BaF#haF`Haz#z#bauau`4#Q#w.L`k#5.v.v`5`5`5`5`t.L`8#x#x",
"#x#x#x.j`haVas.W`i#f#f`t`5a6aI`l#BanaF#B`P`P`Pa6aT#B#.`P`P`P#.`M#.#.#B#B`P`Pa6#ha6#h`Hajaz`o#A#########A`OaZ#z#5.var`5`5`5`5`K.Q#x#x",
"#x#x#x.j``ax#gat#t#f#f`t`5`l#r`l.a`l#B`Pa6a6.Y.aa6`M`P`M.raFaF`MaF`M`M.a`MaX`A`Na#.NaNak`H#n.u.u####.u###a#Aa`#z#z#5.6.v`5`5`K`8#x#x",
"#x#x#x#Mam.p#Z#g`Taz`t`5`taIaOaI#razana6.Yaa`NaXaX`N.s`W#n.j#na#a#ae.w`r`d`d`0`0`0`c`aa##I#A.u.u#a######ac#Vacae#n#b#z.k#5.6.y.Q#x#x",
"#x#x#x.j#p#8#S`k`Taz`t`5al.a`P#h`l`e`E`A`g.w`d`d`d`f`f`f`0`f`0.z.z.z.z`v#2#D#D#D`q#D.z#AaU.x#aaGaeag#a###V###4adadad#a.1.m`o.E`8#x#x",
"#x#x#x.j.J#.a5a5azaz`T`5#BaF#h#h#n.B`f`j#D#2`v.z`v#2#2#2#2a4#2#2a4a4a4#Da4#D#D#D`j`q`f.x`4`a#Aama..7.jac###V###4#4#V#V#4adac`h.Q#x#x",
"#x#x#x.j.JaT.C#fal`Tal`t#iaa.aa#.B`d`j`q`j#D#D#2#2#D#2#2#2#2#D#2#2#2#D.z#D#D#D#D#D`j#D.z`0#Gae.ra..C.TaG#4#4#V#V#V###V#4ac.m`6.c#x#x",
"#x#x#x.j#Ta5a5al`Tal#far#zaj#h`g`a.z`q`q#D#D#2#2#2#2#2#2#2#2#2#2#2#2#2#2#2#D#D#D#D#D.z`v.n#GaG#o.C#3#C#M#4#4###4#4ad#4#Vacap`R`8#x#x",
"#x#x#x.j.0aiaialalaz`t.v`Y.E`#.B`c`j`j`ja4#2#2#2#2#2#2#2#2#2#2#2#2#2#2#2#2#2#2#2#2.z.z.n#G#G.w.F.7.t.pa3#a#4#V#V#V#V#Vac#YaY#g#K#x#x",
"#x#x#x.j#T.7alalalal`t.6`s.y`w`f`0.z#D#D.z#2`Q`Q`Q`Q`Q`Q`Q`Q`Q`Q`Q`Q`Q`QaC`Q`Q`Q`Q`Q#G.l#G`F.1.J#E#C#Ea3ac#V#4#V#VacacaG`W#.#W`8#x#x",
"#x#x#x.j.Ja5.7.7azaz`5#5`s.y`#`f`0`v.n`v`v`QaCaC`Q`QaCaCaCaCaCaCaCaCaCaCaCaCaCaCaCaCaCaC.l#q#A.P.P#C.O#Caw#4#4adacaWaW#YaE#3#g.c#x#x",
"#x#x#x.j.t#r#ral`T#f`5`k.L.E.#`C`c.n.n.l.laCaCaC.`aCaCaCaCaCaCaCaCaCaCaCaCaC.V.`aC.`.V.`.l#q.1#Oa7#3#C#Uac#V##aW.Qao#K#N.O.Y#z`8#x#x",
"#x#x#x.jaY.P#r.7`T#f`5`k`K`K`S`C`c.l.laC.V.`.`.`aC.`aC.`aC.`aC.`.`.`.`.`.`.`.`.`.`.V.V`..V#qaGaqa7.P.taKac#a#V#X#1`I.I.I.IaD#W.Q#x#x",
"#x#x#xaK#S#r`Pal`T`t.v`k`saS.5#J`a.laCaC.V.`.`.`.`.`.`.`.`.`.`.`.`.`.`.`.`.`.`.`a2`.`.`.#u#a#X.H#v.Fat#E.o`X`X.R.HaD.P.P.Ian.T`8#x#x",
"#x#x#x.j.F#r#.al#f`5.v`k`s`M`B#K`r#q.V.V.V`..``..`.`.`.`.``..``..``.`.`.`.`.`.`.a0a0a0#uaU`A#Haf#T.p.p.F#.aD.H.G#HaDaD.Paf#3.p`8#x#x",
"#x#x#x.jaN`Ma6az`5.v.C`k`s.P#N`G#y`4a2a2a2`.`.`.`.`.`.a0`.a0a0a0`ya0`y`y`y`y`ya0a0`3`3#Q`Z.P.I#R`k.v.0.7#3.O.Uaq.O#ga5.PaO.P`i.Q#x#x",
"#x#x#x.j.pana6azar.6.6`k`s.D#H`Nao.B#u`3a0a2a0a0`y#`#`#`#``y`y`y`y#``L`L`b`b`b`b`b`O#z#z#S#raD.t.Fa5.7#Raf#N#N`I.F#e.JaD.P#raS`8#x#x",
"#x#x#x.jam`P#h`T.6.6.6`k`saf`I`M`N`U#n`b.b`L#``b`b`b`O`O`O`2`2..`##W#m#mam.E.E.y.E.L`Y#g.r#Ca3#Z.F.7.7aD`V#l`I`Waxax#Ta5#3.r#W.Q#x#x",
"#x#x#x.jak.Y`Pazar.6.6.k.k`I`I`N#T#0#Z#5`Y.TaZ#w`6`w#m.Kakar.v.v`iar`i`i.6`k.p`k`Y`k.k.k#K.U.U.Uaqaqa7.H.O.Ha7.X.j.j.Xaf.Ha7`Z`8#x#x",
"#x#x#x.j#Z`P#Baz#t`i#5`k#Z`V#K#vaA.X`N`i.6.k`k.k.k#5ar.6ar.v.v.v.var.v.v.6#5`k.k`k.k#5`iaLaqaM.H#l#l.R.Haoao#Kay#n.SaA#N`I`I`o.Q#x#x",
"#x#x#x#s#w.T`Y.L.E.E`h.W#m.i.i.i.i.i#p#w.y.y.yaV.y#d`K.y.y.y.y.y.y.y.y.y.y.y#d#d#d#d#d.y#m#p.4....#p.4.4.4.4.i.i.4...4#o.4#6`6.Q#x#x",
"#x#x#x#Paoaoaoaoaoaoaoao`Vaoaoao`Vaoaoao`Vaoaoaoaoaoaoaoaoaoaoaoaoaoaoaoaoaoao`Vaoao.Raoao.Rao.Rao.Raoaoaoaoaoaoao.Raoaoao.R.H`D#x#x",
"#x#x#x#x#x#x#x#x#x#x#x#x#x#x#x#x#x#x#x#x#x#x#x#x#x#x#x#x#x#x#x#x#x#x#x#x#x#x#x#x#x#x#x#x#x#x#x#x#x#x#x#x#x#x#x#x#x#x#x#x#x#x#x#x#x#x",
"#x#x#x.S`A`A`A`A`A`A`A.M`A`A`A.M`A`A`A.M`A`A`A.M`A`A`A`A`A`A`A`A`A`A`A`A.M`A.M`A`A.M`A`A.M.M.M`A.M.M.M`A.M`A.M`A.M.M`A.M.M`A`X#x#x#x",
"#x#x#x#w.Map.j.j.j.jap#o`Z`o`o#S#ZaS`E`#aZ`Y#e`YaN#Z`Ha1a1ajaSaS#z`Y.LaN#ZaZ.W#za1a1#o#o#S`Z`o#6`Z.m#W`7`7`7asas.Was`7ax`6#7`h#x#x#x",
"#x#x#xaZ.2aH.Q.Q.Rao.Q.j.Daf.P`IaL.D.I.#aNak`i.a.Iaf.I.I.PaO.PaO.Yazar`H`S`H`YaS`N`N`N`E#S#Saha3#Y.j#oasas`J`Ja.`J`Jasam..a``6#x#x#x",
"#x#x#x`6.Q#Fao.cao.Q`8#SahaY#E#S#S`N.D#SaS.L`H.D.I.I.I.IaO.D.DaO.D#3`T`iaXa1ak`Y`M`M#SahaY#Ua3#s.j`Z#Was.W`J`J`J`J`Jas#8aR.K`h#x#x#x",
"#x#x#x#7aM#1aM#X.c.c`X`Z#g#Z#Z#Rah`N`N#Z.K.LaE#raO.P#r#r.Y#raD.Y.Y`P#RaraF#Zak#z`MaY#v.HaM.c#Y`Z.4#7#w`JasaV.WaVaV`J`J.f#w#8`h#x#x#x",
"#x#x#x`w#1aH.R#X#X.c.oa3at.p`ZahahaL`N#Iak`K`H.Y.Y.Y#.#.`P`P`P`P#.#.#RaraEaj#z`iaE.DaMaM.Qag.oah.pax#8`J#e#T.pax#g.p.Waxam`Z`h#x#x#x",
"#x#x#x#w`8.oaga3#s#X#YaK`R.A.A.A.i#caX#Z#Z`s.F#3.Y`P#C#.aF`P#.#.#.#.azar#iajakaN#S#v.R#1.i#W#pat#8#7`Ra3.XaY.4.iah.oa3#vah#w`h#x#x#x",
"#x#x#x`6ah#s#T#T#8`Z.H#Y.o#Xag.m#saL`M`o.s`Y`t`P.Y#.`P#.#.aF#.#.aF.r#RajaE.Jak`i#SayavaH`6#d`6#8.A#p`Z#P`DaP#P#PaP`D`D#P#U```h#x#x#x",
"#x#x#x`ha3#F.t#T.Wa``DaPaP.2.Qa`.S.DaXa1.DakajaF.raj.J#R#R#R#R#R.FaS#T`iaE#ZaNaN#ZaX`8#Y`R#8#d#w#7#p#oav`X#Y.S#Y#Y#Y#Y`8#s#d.f#x#x#x",
"#x#x#x`h.i#l.t.J#T#UaMaMaH.q`8aZ.M.DaX.s.D#g`t.0`kax`KaS#Eaz`T#t.L#e#e.k#0`oaj`o`HaXa3aZ#d`h.f#d.p#g#pav.Q.Q.Q.Q.cao.c.Q#1..`6#x#x#x",
"#x#x#x`ha3aMaD.r#E.g.dao.RaH`8`#aX`G.s`N#c`Y.0#E`YaV.E`s.0.7`T.6`K`K`saN`Na1aNajaE#0#oam`h.f#d#8.p.K#p`D#Pavavavavav.q#PaH#o`h#x#x#x",
"#x#x#x`R.GaAaD.I#0`1`n#P.G.2#Y#7#v#c.s`S#cam`i#R.tar#Tai#R#3`P.F.0`i.0aE.Da1#Z#SaEaD#T#8#8#d`6ax#8#w#oav`X#X#Y#Y#Y#Y#Xao`D.R`6#x#x#x",
"#x#x#x`w#caa`N#h`Gab#y`n.q`D`X`#aL#c.s#c.5am`K.taT#3#B#..YaD#3#.#3`P#R.Y`Ga1`oaF#LaXah#8#d#d#d#d#8`6.KaLaoao.R.R.Rao.c#1.2#P`w#x#x#x",
"#x#x#x`R`N`z`z`m`z`z.5`1`1aH#Y#6#H.5aX`B`G#z.W.t#Ba6#.#B#3aOaD#R.7.ra5.P.5#L#Z#L`W.D#o#8#d.f#d#d#W.fam#WaM.2aHaH#1.2av#1#1.q`w#x#x#x",
"#x#x#x#waF.8`m`u`z`laa.5.haHay.j`B.5`G`B#caS.W.v.7al#E.v#r.P#r#3arai#E.I.5`W`E`e.saLah#W.pataS.p#Tam#8.Kap#Y#Y.S#Y.S#X.2#1#1`w#x#x#x",
"#x#x#x`6#h.8`m`m`m`z#haX.S#P#Y`Xao.5`GaQ`G#6.W.k.v.C.Cai#fa5a5#E#E#5`i.I#c`N`W`WaXay#SamaV#eam`Kaxam.p#8apaH.2.2.2#1.Rav.2.R`w#x#x#x",
"#x#x#x`6.s`z`m`U`m`u#h.Y.D.2#K#K`V`B#caQ.ea1.EaV.v.C`k.Cai.v.v.0`k`kaj.I`N#c.a`W`G.Da3#p.L#tak`Yax#8.f.E.4.Q.c.Q.Q.Q.2avaH#1`w#x#x#x",
"#x#x#x`6#haa`m`U`m`z.8`M.PaM#F.R`VaQ`G`G`G#S.Las`kar`5.vaia5.7.0.var`i.D`WayaX#0#cayahaS#z.8`x`l#d.W.f`h`w#Y#X#X#X#X.q.qav#1aR#x#x#x",
"#x#x#x`6`Hak.N`z`g.N`o.t#C`V.2`V#N`B.eaa`SaF#z.W`J#5aiaiaiaiai.0.0.v.yaX#S`N`MaX`G#ca1#bak`p`xar.W``.f.y`Z.qavavavav.qav.2#Y`6#x#x#x",
"#x#x#x`6.J#o.f.f``#d`i.FaY`VaH`Vaoab`S.a#h.a`iaVas`K.Caiaiai.Cai.J`K.WaXa1.s`M#0.DaAa1#6`Y`p`l`Y.W``#8#8.D.R.R.R.R#1.q`DaW#Q`6#x#x#x",
"#x#x#x`6#Z.4`h`````6.J`T#L.G.d`V#K.Z`N#haE.a`H`KaV#eatai#f.7#f#f.k#d.W`N`E`M#i`W`G.Z`B.5.aaOaa#S#z.y#8..aM.c.c#X.QaH.q.q#MaB`h#x#x#x",
"#x#x#x`6#Zam````````aNa1.X#F.G`Vab`B`S.s#iaFaF.LaV#e`K`s#5.C.C`k`K#d.E.X`M`E`H`l`GaJ`B`B.I.P.e.OaQ.D#S#lavavav.2.R.R.2#Y.A.A`h#x#x#x",
"#x#x#x`6`oay.S.S`X#KaY#c.h.d.GaJ`BaQ.e#h`HajaE.v`K`Ka.`s`s`s`s`s#e#eaja1`E#t`o`M.e#N.Z`S.s#r.Y#raO.Iaf`Iaq.2.2#Xag#X#s#Magag`h#x#x#x",
"#x#x#x`6#Zam`2....a3#H.Z`B.d`VaJ#Kab.e#haj#5#i.k`Y`s`s`s`s`k`k`s`K`Kaj`K`o`iaj`MaQaJaJaXan#B`P#3a6#raO.IafaqaPavavavav.Q.c.R`6#x#x#x",
"#x#x#x`hah#W.p#w#W.X#N.5aQ.hab#Kab.h`G`e#t`i`i`5.6`k`k`k`k`k`k`k`k`s`k.v`Y#z`o`e.5aJ.Z`G#Rana5a5#BaT#3a6#r.P#N.Hag.i.f````ao`R#x#x#x",
"#x#x#x`h.t.J.p#pah.5af.P`I.h.Zab.haJ.s`H`Har#t#t`t`5`5.v.v.v.v`5aiaiar#E#5`Yaj`E.5.h`Bab#Bana5alazal#B#Ba6#raOaD#W```7`7.fah`R#x#x#x",
"#x#x#x#w.P.t.F#S`M.P.Y.I.Zabab.h.d.e#S`H.k`sar`tai#f#f`t#faiai`t#f.t`T#.#t`iajaFaQab.Z.ZaOalal#f`t`tazana6a6#r.I.IaYah#Sahah`6#x#x#x",
"#x#x#x`R.Ha7aqaqaf`P#.#r.ZaQababaQ#h#h`H.var`5`t#f#f.7.7.7.7#f.7a5a5#R#.`TaNaNa1aQ`Iab.IaO#i`t`5.v.vai`TalaTa6#r.I.O.Z.U.U.U`w#x#x#x",
"#x#x#x`R#N#N#N#NaDaFaz#haQ.5aQ.e`e`E#haEar#t#E.7.7a5.7a5.7alala5a5anan.rana5`H`t.eaQ.5aa.s#i.C`k`k.C`5`t`Tal#Ba6a6aOaO.O`I.Z`R#x#x#x",
"#x#x#x..`R`R`R`w#w#w#w#w`R`R#w`R#w`6#w#w`6`6`6`6`6#w#w#w`6#w`6`6`6`6#w`6`6#w`6`6`R`R`R#w`6`6`h.y.y.y.y`6.E`6.E#w#w#w#wax`R`R`##x#x#x",
"#x#x#x#x#x#x#x#x#x#x#x#x#x#x#x#x#x#x#x#x#x#x#x#x#x#x#x#x#x#x#x#x#x#x#x#x#x#x#x#x#x#x#x#x#x#x#x#x#x#x#x#x#x#x#x#x#x#x#x#x#x#x#x#x#x#x",
"#x#x#x#x#x#x#x#x#x#x#x#x#x#x#x#x#x#x#x#x#x#x#x#x#x#x#x#x#x#x#x#x#x#x#x#x#x#x#x#x#x#x#x#x#x#x#x#x#x#x#x#x#x#x#x#x#x#x#x#x#x#x#x#x#x#x",
"#x#x#x#x#x#x#x#x#x#x#x#x#x#x#x#x#x#x#x#x#x#x#x#x#x#x#x#x#x#x#x#x#x#x#x#x#x#x#x#x#x#x#x#x#x#x#x#x#x#x#x#x#x#x#x#x#x#x#x#x#x#x#x#x#x#x"
};
