/* XPM */
static char *_3_frame_4[] = {
/* width height num_colors chars_per_pixel */
"    66   100      256            2",
/* colors */
"`` c #131116",
"`. c #3cac66",
"`# c #45473f",
"`a c #7eb675",
"`b c #406c34",
"`c c #7eca9a",
"`d c #8ccaa2",
"`e c #429857",
"`f c #8ad2a9",
"`g c #54995d",
"`h c #8b6c49",
"`i c #8de9cf",
"`j c #2a2625",
"`k c #6c4434",
"`l c #b2aa3d",
"`m c #e6e098",
"`n c #b49733",
"`o c #5e2c21",
"`p c #9c6c4d",
"`q c #8ab682",
"`r c #eaeaaa",
"`s c #6c563f",
"`t c #6cdea4",
"`u c #bbac59",
"`v c #997b43",
"`w c #a39380",
"`x c #beaf9c",
"`y c #845437",
"`z c #522820",
"`A c #8d7a54",
"`B c #3a3836",
"`C c #bd9788",
"`D c #c6c65d",
"`E c #6eba80",
"`F c #eaf2f6",
"`G c #ceaea4",
"`H c #a67a5e",
"`I c #5d605e",
"`J c #330d19",
"`K c #41c079",
"`L c #b2a48a",
"`M c #4e6a3e",
"`N c #c5bb9c",
"`O c #9fc9ca",
"`P c #46261a",
"`Q c #d2c8a2",
"`R c #826241",
"`S c #ac862a",
"`T c #dad68a",
"`U c #385077",
"`V c #729b83",
"`W c #8c786d",
"`X c #9a7a70",
"`Y c #7fd798",
"`Z c #568351",
"`0 c #d3c9b5",
"`1 c #59c877",
"`2 c #363230",
"`3 c #461822",
"`4 c #6c5554",
"`5 c #a48668",
"`6 c #8c624a",
"`7 c #bda27c",
"`8 c #b29e81",
".` c #6ed89a",
".. c #341219",
".# c #7c4b35",
".a c #a2906b",
".b c #8ed6b2",
".c c #537271",
".d c #e2ccc3",
".e c #c7ada1",
".f c #b4bdc5",
".g c #5c462b",
".h c #8b8066",
".i c #dad5ba",
".j c #8d9475",
".k c #523424",
".l c #a4afa1",
".m c #dede9e",
".n c #37221e",
".o c #a2a4ae",
".p c #b2a45d",
".q c #79bf93",
".r c #9c8a75",
".s c #ae917e",
".t c #565844",
".u c #686060",
".v c #897072",
".w c #b79a49",
".x c #554545",
".y c #7cdbb6",
".z c #88939b",
".A c #6eb6bc",
".B c #60341f",
".C c #cbc8c3",
".D c #c6beac",
".E c #c3ad72",
".F c #9ac092",
".G c #646b6a",
".H c #dbdfe7",
".I c #3e1520",
".J c #c9bd8d",
".K c #b7aaaa",
".L c #465670",
".M c #5a8484",
".N c #b78874",
".O c #797b80",
".P c #39271b",
".Q c #bea390",
".R c #8c8475",
".S c #d8cccd",
".T c #6cd194",
".U c #4a3a3a",
".V c #80635c",
".W c #ad877a",
".X c #80afb1",
".Y c #d4b4ad",
".Z c #51cb80",
".0 c #9a8473",
".1 c #89a6a1",
".2 c #a29ead",
".3 c #5ecb86",
".4 c #c0c1c3",
".5 c #703d2d",
".6 c #d8d6cc",
".7 c #906562",
".8 c #9f6f6b",
"#` c #2f1b17",
"#. c #ad9a87",
"## c #463034",
"#a c #694c3e",
"#b c #865853",
"#c c #513434",
"#d c #603d44",
"#e c #231e21",
"#f c #59524d",
"#g c #e4d7d4",
"#h c #383a57",
"#i c #736243",
"#j c #745c59",
"#k c #a6aeb7",
"#l c #b27d6c",
"#m c #b5a5a2",
"#n c #eae6aa",
"#o c #60ae8e",
"#p c #9c8755",
"#q c #757182",
"#r c #d4c0c1",
"#s c #876e5c",
"#t c #b2aeb2",
"#u c #7ce6ce",
"#v c #a3766a",
"#w c #b1926a",
"#x c #f6f2fa",
"#y c #d2ccd1",
"#z c #554856",
"#A c #604643",
"#B c #200b12",
"#C c #3a1a1c",
"#D c #9d979e",
"#E c #c9d2da",
"#F c #c8b690",
"#G c #382829",
"#H c #c7a395",
"#I c #567a42",
"#J c #7dbec2",
"#K c #462f22",
"#L c #8e99b0",
"#M c #5b555d",
"#N c #c0b2ad",
"#O c #82cea2",
"#P c #96634d",
"#Q c #b79b6b",
"#R c #8e5940",
"#S c #ad836d",
"#T c #6a3a28",
"#U c #5f657b",
"#V c #468046",
"#W c #9b6e5b",
"#X c #98858f",
"#Y c #a88658",
"#Z c #bcab90",
"#0 c #754c39",
"#1 c #765e45",
"#2 c #75645c",
"#3 c #443a34",
"#4 c #8cb2b5",
"#5 c #231717",
"#6 c #878687",
"#7 c #997859",
"#8 c #47c777",
"a` c #d1bfa8",
"a. c #af9491",
"a# c #e1eaf0",
"aa c #ecedee",
"ab c #3eb771",
"ac c #a7b7bf",
"ad c #776e6c",
"ae c #c5c8d4",
"af c #e8e3e0",
"ag c #ae9e95",
"ah c #a77c6a",
"ai c #7e4c46",
"aj c #a3705c",
"ak c #6de3ca",
"al c #79866f",
"am c #8bc1c1",
"an c #603e2d",
"ao c #988a96",
"ap c #66ca92",
"aq c #2d2e32",
"ar c #959595",
"as c #ded6da",
"at c #352e2e",
"au c #99c1c0",
"av c #845645",
"aw c #dfe6eb",
"ax c #c2c2d3",
"ay c #533e25",
"az c #301d28",
"aA c #bea3a1",
"aB c #867884",
"aC c #765541",
"aD c #523b3b",
"aE c #747e50",
"aF c #b69280",
"aG c #997f5c",
"aH c #926d5c",
"aI c #764530",
"aJ c #d3d6df",
"aK c #5fd6a5",
"aL c #728691",
"aM c #8acad1",
"aN c #c8bfc1",
"aO c #9b7d81",
"aP c #3ba35a",
"aQ c #c8ced6",
"aR c #ae7e6a",
"aS c #aea4a4",
"aT c #fefefe",
"aU c #c6ae8c",
"aV c #82c9c9",
"aW c #554e48",
"aX c #5e382e",
"aY c #c8b5a6",
"aZ c #728656",
"a0 c #beb741",
"a1 c #3c3e3e",
"a2 c #785455",
"a3 c #a29e55",
"a4 c #604e46",
"a5 c #b4b5b8",
"a6 c #ad8a68",
"a7 c #7b6c50",
"a8 c #000000",
/* pixels */
"aTaTaTaTaTaTaTaTaTaTaTaTaTaTaTaTaTaTaTaTaTaTaTaTaTaTaTaTaTaTaTaTaTaTaTaTaTaTaTaTaTaTaTaTaTaTaTaTaTaTaTaTaTaTaTaTaTaTaTaTaTaTaTaTaTaT",
"aTaTaTaTaTaTaTaTaTaTaTaTaTaTaTaTaTaTaTaTaTaTaTaTaTaTaTaTaTaTaTaTaTaTaTaTaTaTaTaTaTaTaTaTaTaTaTaTaTaTaTaTaTaTaTaTaTaTaTaTaTaTaTaTaTaT",
"aTaTaTaTaTaTaTaTaTaTaTaTaTaTaTaTaTaTaTaTaTaTaTaTaTaTaTaTaTaTaTaTaTaTaTaTaTaTaTaTaTaTaTaTaTaTaTaTaTaTaTaTaTaTaTaTaTaTaTaTaTaTaTaTaTaT",
"aTaTaT#y#6#6#6#6#6#6#6#6#6#6#6#6#6#6#6#6#6#6#6#6#6#6#6#6#6#6#6#6#6#6#6#6#6#6#6#6#6#6#6#6#6#6#6#6#6#6#6#6#6#6#6#6#6#6#6#6#6#6#6afaTaT",
"aTaTaT#6`4#A#da4.n#d#0#A##az#c`4#j#j`2aD#M#M.u`s#faB#6.c#U.G#p`A`A#iaW.c#qad`s`4#a.x#3.Ua2#j#2azaDaX#c#B###c#d#a#A.n`P.U###aaz.faTaT",
"aTaTaT#6`W.8`X.8##`k#b#b###3aD`k#v`W##.xay.Uao#.#Z.facaLaL#ka0.a`va3.O#LaL#6ao#7`H#AaD#d.7aj.8az#ja2.Vao.V.v`X.8#b.5aI#b#v.v##a5aTaT",
"aTaTaT#6`##s.v#vaAa.a2.V.Sar###0.7.v#raF#G.P`8.d`N.f.1aL.z`La3.Q`8.pag.o.O#U.G.E#H#A`kai.v`X#SaYas.K.Saaas.v.v.8.7#bavaI`XaO#e.faTaT",
"aTaTaT#6.n#C###d#mas#Nax.Hafao`Cah.0`Ga`az.n`7.E.E`war.o`L`W`w.J`x#F`x#ma3.R#w#Qa6#g#X.va`aoa..S.S#rafa#af.v`z`za2aiaX`z#M#z#5a5aTaT",
"aTaTaT#6#c#c.n#GaBaJ#yaJ.H#y#r`GaA#H`G#raOaoaF`R`s`A`L`x`LaG`x.D.D#F#D.a.r#i.g.g`8af#y#Naf.CaJafaJaYaJ.H.K`3.I`3.I.I`J.I.U#U`2.faTaT",
"aTaTaT#6#d#c.U.vaxaeaJ#L.2.faY`G`G#H`G#HaY`Naya7`N.d`Qa``N#.`x.C.m.i`0#Z`x.ra7ay#j.S#N#Nafa#awawax.eaxae#q`J`J`3`3#d`3`3#C.u`2a5aTaT",
"aTaTaT#6aD#2.K#k#yaeaQax.f.K.ea.`G#H`GaFaY`w.g#Q#Z#s`A.r`L#.#..Q.Q`8.a`w`8#Z`A#2ay.Kag#maN.H.Has#N.e.Ka5#z.I`J`3#d#d`z.I`JaD#e.faTaT",
"aTaTaT#6#X#r#y.2aeae#yaeax.2`G.s.saA.W.0a`ad`s.han#A`6ahaF#QaFa6`5`5#7`6.7#Q.a#a#K#Xag.eaAaN.SaNaAa..2#t`4`J`J`3`3`3`3.I..#z#ea5aTaT",
"aTaTaT#6.2#y.H#yaeaxaeaxax#XaAaAaAaY.Q.W`xa7`s`s#TaG`CaA#HaA#HaF.s.N`X`6#0aH`8a7`P.V#.aga.#X#XaO`X.v#k#L#j`J`J.I`3`3`3`J`J.x`j.faTaT",
"aTaTaTaB#Daoae#Eax.faxaxa5#qaOaO#v.s.s`L`L#s`say#s`C.e#H#H#H.Q`C`C`C`CaR`6av#wa7#a.g.s.r.0.v.V.V#Uao#L.O#z`J`J`J`J.I`3`J`J#G#ea5aTaT",
"aTaTaT#6#U#N#yaJaeac.f.fa5ada2.7#ja2`4`w`w#i#a#K#7`C`7.Q`C`CaFaF`CaF.s#S#W#0`5`R#aayaG`XaBagaNa5.2#q#U#z##.I`J.I`3.I.I`J.I..``.faTaT",
"aTaTaT#6aq#y#yaJae#kacac.2#2#c#a#Xag#X.Q`w#2.g`P.v.NaFaF.W#S.Wa6.W.WaRaRajaCah#i.g#aaGa.ax#EaQ.fa5#q#zataz.I`J#d`3`J##`J.Iaz#Ba5aTaT",
"aTaTaT#6at.2aeaeae.2#kac.oao#h###h#h#M#m`w#i#1#KaHa6.W#SaRahah#S#Sahah`HaH#0#7#1.gaC#saSax#E#q#M#M#A###h###c#j#qaD#z#j#X##.u##.faTaT",
"aTaTaTaL#BazaB.u#z#h#zao.o#q#M#q.L`U.O#m.a#1#7.B`6.W.W#S#SaRaGahahahaR`X#Wav#7aC#aaC#s#mafae#h#####G###z#U#g#gax#yaQax.Haaaf.Oa5aTaT",
"aTaTaT#6`j#zaBasaOa2#5#U#x#xaT`FaQ.z.lag.s#2`w`k`R.W#SaH.8#vah#v`X#7#v.V.VaC#7#1aC`s`h`wax.f#Gaz#G#G.L`4#qawa5a5#k#k#t#tac.f.G#NaTaT",
"aTaTaTaLazat#q#y.7aiaXad.Cae.faJ#ka1.r#.a6.h`8#aav.7a2an#caC.7`p`p`6aX#K`o`k.0#1#1`s`h`w.2.u`j#eazazaD#z#j`Fafawawaw.Hawawaw.O.faTaT",
"aTaTaTaB````#q.CaO.7.V#gaf.6#E.H.l`##D`8.a.s`8anavaC`P#C.PaX`y.7#P`k`Paz`P#a#.#j#1#1#sa6#2.U#5az``az#d#z.uawa5a5aca5#ka5a5ax.Oa5aTaT",
"aTaTaT#6```2#r#Na.`C`A`T.m#nawa##kaW`w`L.a`8`L#K#0aH#baX#d`k#PaR#v#b`kaX`k`h#.#2.V#s`A.W`4.n.naz#G####aD.uawa5a5.f.f.fac#k.4.O.faTaT",
"aTaTaT#6``a5.J`L.s.r#Z.J`T`r#E.H.o`##m`L.r.Q#Z#KaX#WaR#v#v#v#S.s.W#v#v.8aH.s`7#1`R`XaG.a#j.nazaz#G#Gaz#G#j.Haaaaa#a#aa`F`Faa.Oa5aTaT",
"aTaTaT.O#e`Q#w.p`la0.p.E#F`m`Q.6.2.t#N.Q.a#F`L.U.naH#l.NaRaR.NaF.W#vahaR#v`8#Za7#s`A.R#..u#Gaz#5#5#5aD`jaD#M#t#k.o.o.o#k.laQad.faTaT",
"aTaTaT#6.x#.#p.wa0a0`l.a.p`Q`raaar.O`N`x#..J`8.g..#baj#l#W#b.N#H`Cahai.7.7#H`x`W.v#7.raS#2#c###GaX#ca4#G#C#z#D.f.f.f.fa5.faJ#qa5aTaT",
"aTaTaTal.u.0#p`na0a0`l`n.aa.#maf#DaS.D`x`L#F`L#a#5#0`y`yaiai#v.N#S#Wav.5`yaU#Z`w.0.h.a#..v####`z#AaDaD#c#A#c#6.H.HaJ.Haw#E.H.O.faTaT",
"aTaTaT#6#1.v#w.pa0a0a0a0`v.0#.asa5`N`0#F#ZaU`L#1#C`zai#T`o#R#Rai#ba2ai#Tav.Q#.`8.a#p`L#D`W#A#C`P`P`P.P#Gaz#Gad.o.l.o.o.o#Eaw#qa5aTaT",
"aTaTaT#6a2aH#w`ua0`Da0`la3aFaSaf#E.C#r#F`LaU`7#s#K`JaI`yaiaI#R.8.7ai`k#0#1#Z.h`8`w.0`L`waBaW.g`n`S`v#C#5#`ata1aeaQ#EaQ#Ea#.H.O.faTaT",
"aTaTaT#6.VaF#s#1.p`D`Da3`R#v.W.C.H.C.D#F`7.p`7`AaD`J`3.##Rai#R#R#bai#bai#Kag`W`w.a.a`Lagada4a4`n`n`R#`#5#5`j`IaQaQaQaQ#Ea#a#.Oa5aTaT",
"aTaTaT#6a2aH`R`s#5a1aq`jaC.7`W`0.6aQaN`N`8#wa6#p#a.I..`oai#Raiaiai`yavay..`wa7.a.0a6`L`La7.t`k`n`S.B#`#B#e.P#Xae.4aQ.4#Ea#a#.O.faTaT",
"aTaTaT#6#A#1#j#2#`````.Pa2aHaO#y.6`0.Ja`#w#p#7#w`R#C#C`P#T#R#P#P#P#RaI#`#`a.#s.r#7.r`7#F`w.0`R#w`S.g.n#`az.UaJ.H.HaJ.H.Ha#aa#Ua5aTaT",
"aTaTaT#6`4.V.VaW#e````#G#j#s.a.H.6`0.D.J`8a6`h#Y`v`P..`3`z#Tav#b#R.#`P#`.n`w.0#7`haG#Za`a`a`aU#H.e#Ha.#s.U#t#Eae.f.f.f#E.HaQaq.faTaT",
"aTaTaT#k`B`2`B`2`2`2aqat`2`B`B`Ba1`Ba1`B`B#3`B`B`B`B`2`2at##at##`2`Batat`2`B`B`B`B`Ba1a1`B`Ba1`Ba1a1`B`B`Ba1a1a1a1a1a1`Ba1`B`B#yaTaT",
"aTaTaTaTaTaTaTaTaTaTaTaTaTaTaTaTaTaTaTaTaTaTaTaTaTaTaTaTaTaTaTaTaTaTaTaTaTaTaTaTaTaTaTaTaTaTaTaTaTaTaTaTaTaTaTaTaTaTaTaTaTaTaTaTaTaT",
"aTaTaTaTaTaTaTaTaTaTaTaTaTaTaTaTaTaTaTaTaTaTaTaTaTaTaTaTaTaTaTaTaTaTaTaTaTaTaTaTaTaTaTaTaTaTaTaTaTaTaTaTaTaTaTaTaTaTaTaTaTaTaTaTaTaT",
"aTaTaTaT`Faa`Faaaaaa`Faaaa`F#x`F#xaa#x`F`Faa`F#xaa`Faaaaaa#x`Faaaa#x`F`F`F`Faaaaaaaa#x`F#xaaaaaaaaaa#x`F#x`F`F`F`Faa`Faa`Faa`FaTaTaT",
"aTaTaT#6#5`j`2.n`jaz#Gat.P`2#3#3#3#3`##K`j.n#B``#`#`#`#`#`#`#`#`#`#`#`#`#`.P#`#5`j`j#3#3a1#3#K.P.n#`#`#`#`.P.P.P#K`2#3.n`j#e``aNaTaT",
"aTaTaT#6.v.eaA`C.Q`x`8aFa6`7#F.E.J`Q.J.a`v`Ran#0`y`6#P.7`paH#P.7#P#Pajaj#Wah`RaCavaH#F.J.JaU`7`p`6#R`y`y#P`paj#laF`C#H.e.Y.da7.faTaT",
"aTaTaT#6`w.d.d.d.d.d`C`H#W#wa`#F#F.E#w`v#p`v.#`y#R#P#P#W#W#Waj`p#Waj#7aj#v`H#W`h`R`RaU#F.Y#Qa6#7.#.5.5aI`y#P`paj#l.N`C`7#H.Y#2a5aTaT",
"aTaTaT#6#X`N.f.DaY.f.r#v`p`H.E.Y.E.w`Aa7a6#W#1`6aH.7#W.8ajaj#W`pajaj.8`H#7aR`H#v#7`R`7.EaU`8aG`R#T`o.BaI.#`y#R#P`p`HaR.NaF#H`s.faTaT",
"aTaTaT#6al#k.lac#kac`5aj#P`h#Q#H.E#Y`h`h#w`h`6#Wajajaj.8#Wajajaj#v#v#vah`H#S#SaR#7`Ra6`7`7#Q`p#0`P`P`z.B.5aI.#`y`y#P`paj#l#S#aa5aTaT",
"aTaTaT#6aLae`O`O`OacaG`p#P`p#Y#H#Q`v`Ra6#Q`h#W#v`H#laRaR#vahaR#SahaRahah#S#S#S#S#S#W#Q#Q#wa6`R#0`3.I.I`P`o#TaI.#`y#R#R#P#PajaX.faTaT",
"aTaTaT#6aL#J#4acam#4`A`p#Paj#w`7.w`v`h#w#Q`p#v#l`H#l#S#SaR#S#SaRah#S#SaR#S#S#S#S#Y#Y#w#Qa6`H#R.g.n#`#`#``P.k.B.gaI`y`y#R#P#P.B.faTaT",
"aTaTaT#6aL.X#4#L.1.1aH#P`p`paR#H#Y`v#7#Q#w`p`H`HaR#SaR.N.W.W#S#S`5#S.W#Sahah#SaRah`HaR#w#p`v`Ray`2.L`#`j.P`o.B`k`k#0`y`y#R`6.ka5aTaT",
"aTaTaTal.M`V.L.oao`I.7#P#R`6`v.w.w#7`h.w#w`H`H#l#laR`H#l#S.W#S#Sah#S#SaRah#7#S#SaR`H#Y`S`vaj`RayaZ#o.A`V`#`2.BanaIaI.#`y`y#R#Ka5aTaT",
"aTaTaT#6.M#h.n..#Baz#P#P#P`y#P`C`SaR`h#Y`H#l#S#S#l#l#laR#Sah#S.0aGah`H`HaR#S#S#Y#Y#Y#S`v`R`6`6#U.X.A.A.A.X`Z`#ay.gaI.#.#`y.#`z.faTaT",
"aTaTaT#6.c#eaz#d#A#c#P#P#R`y#Pa6#w`S`H`HaR#l.N#wa6.N#Y#S`5aO`H#SaG.0aGaG#Y.r.r.aara3aE#i`saC`h`V#o.X#o.A#o.A.XaZaW.g.gaI.#.#`Pa5aTaT",
"aTaTaT#6#q##.xaW.Vai`p#P#R`yaj.N`C#Ya6`p#S.N#w#w#w`w`w.a.r.RaE.halal.j.l`q.F`d#O#O#O`c`c`VaEaE`V#o.A.A.A.A.A#Jam#4al.G.g.g`k.P.faTaT",
"aTaTaT#6.v#X#a#c.7#0`p#P#R`y#w`S.N`S`v`A.R.1.l`d`d`d#O`f`f`f#O.b`Y.y.y.yak.y#u#u#u`i`i`i`aaZ`V.A.X.1#L.1#J.A#J.AaM.b`Oam.1.Oa1a5aTaT",
"aTaTaT#6#XaF.W.8#v`p`p`p#R`yaF`v#Y#paZ.F.b.y#u`t.y.y.yakakakakakakakakak#u#u#u#u#u#u`i`i`f`a.q.q#U`z`oaO#L#JaV.A#JaVaV.A#JaM`M.faTaT",
"aTaTaT#6#X`C#l.7ai`p`p`p#P`y#w#w#p.j`a`i`i`i`i#uakakak#uakakakak#uak#u#uak#u#u#u#u#u`i#u.y`f.T.qao`k`3ai#U#JaVaV.A#J#J#JaVaV`Ia5aTaT",
"aTaTaT#6aO.N.8ajaj#P`p`p#R#0aC#ia3`a`c`i`i`i#uakakakakakakakakakakakakakakakak#u#u#u#u#u.y.`.T.q#L`o#laOaB.XaV#J#JaVaVaV#J#J#U.faTaT",
"aTaTaT#6.Vah.8ai#Paj`p`p`y.5.k.PaE`a`Y`i`i`i#uakakakakakakakakakakakakakakakakakakak`tak.`.Tap.q.z.8.8a2#A.1.A#JaV#J#JaV#J#4`Ia5aTaT",
"aTaTaT#6.v#lajajaj`p`p#P`y#T`P.P`Z`Y`Y#u#u#uakaKaKaKaKaKaKaKaKaKaKaKaKaK.ZaKaKaKaKaKaKaK.3.T.T`E#2ai#X.7.7.z#JaV#JaV#Jamam.z.x.faTaT",
"aTaTaT#6.vaF#v#Paj`p`p#P.#.B`P.P`V`f`Y`t`t`t`taK.Z.ZaK.Z.Z.Z.Z.Z.Z.Z.Z.Z.Z#8.Z#8.Z.Z.Z.Z.Z`1ap`Eao#H.WaA`C#LaM#J#J#Jau.f.f.Raya5aTaT",
"aTaTaT#6.8#H`C`C#l`p#P#R.#.B`P.Pa0`d`Y.T.T.Z.Z#8#8#8#8.Z.Z#8#8#8#8#8#8#8.Z#8#8#8`K#8#8`K`K`K`1#oao#r.YaOaO.o#J#Jam`O.f.4.4#r`4.faTaT",
"aTaTaT#6.v#H#H`C#l#P`p#RaI.B`P#aa5`d.3`1`1`1`K#8#8`K#8#8#8#8#8#8#8#8#8#8#8#8#8#8`K`K`K`K`K`K#o.q#t.d.Y#l.Vac#4#Jamae.S.eaA#H`4a5aTaT",
"aTaTaT#6.7`C`CaF`H`p#R`yaI.B`z`w.E.F.q`1`1`K`K`K`K`K`K`K`K#8`K`K`K#8`K`K`K`K`K`K`Kabababab`.#o.la5#r.va2#A#X.o.o#tae.e.W#H.Q`s.faTaT",
"aTaTaT#6#AaO`C.N#v`p#R.#aI.B.Ba``7`Q`E`1#8`K`K`K`K`K`K`K`K`K`K`Kab`Kab`Kabababababab`.`.#o`g`V#..Ya.#caXai.8.W.K#y`0.e`X`C#H`4a5aTaT",
"aTaTaT#6#c.7#v.N`H#P`y.#.5`o`k.d#Z`D`q#oabababababababab`.`.`.`.`.`.`.aPaPaP`eaPaPaPaP`g#I.t#XaAaF.V`oa2.7.8aF.d#g#r.s.5aF#H#a.faTaT",
"aTaTaT#6.n#A#b.N`H#RaIaIaI`o#a.YaS`La0`V#o`g`.`.`.aPaP`eaPaPaPaPaP`e`e`e#V#V#V#V#V#V`b.t`#.gaF.W#S.7.7#v.7#l.Y#r#r`C###c.8`C#aa5aTaT",
"aTaTaT#6###A#1#w`H`yaI.#.5.Ba2a`.e.h#Fa0`M#I`Z`e#V#V`b`b`b`b`U.L`#`#`#`#a1#3#K.P.P.P#Kay.ga2.W#Xad.V.7.7.8aY.SaN.e`4.n.x.VaRa4.faTaT",
"aTaTaT#6`4#j#v.N`H#R`k.##T#T#7aY#N.Va7#6`s.gaya1a1aq`Ba1ayaW`s#0`s#0.#`yaC#0`kanaX.B.B#Tan.V#g#g#g#g.d.d#r#N#ra`.K.r.h#6a..Y.Va5aTaT",
"aTaTaT#6ao.Ka6#Y`H`RaC#0an`o#maN`xaS#m`w`WaI`k#Tananan.#.#.#aI.#.#.##0.##0aIaI.5ananan.5`k.V.d#r.Sax#y.CaNaNaN.D#Nal.j#taY.Y.u.faTaT",
"aTaTaT.z`#.t.xayay#K.P.P.n#``I`I#M.u`I#M`#.P.P.n#C.n#`.n.n.P.P.P.P.n.n.n.n.n#`#`#`#C#`.n.n.P.t#M#f#M#M#M#M#M#M`I`I`I.t`I#M.uat.faTaT",
"aTaTaTaaaNaN.4.4.4.4.C.4.4aeaN.4.CaeaN.C.C.C.D.4.C.D.C.D.C.D.4.D.4.C.D.D.4.4.C.C.C.Cae.4.4.4ax.4.4.4.4.Cae.C.Cax.4.4.C.4.CaN.C#xaTaT",
"aTaTaTaTaTaTaTaTaTaTaTaTaTaTaTaTaTaTaTaTaTaTaTaTaTaTaTaTaTaTaTaTaTaTaTaTaTaTaTaTaTaTaTaTaTaTaTaTaTaTaTaTaTaTaTaTaTaTaTaTaTaTaTaTaTaT",
"aTaTaT.lararararar.jararararararararar.jararararararararararararararararar.jar.z.jararararararararararararararararararararar#taTaTaT",
"aTaTaT#e`2.u#6#6.z#U`I.O`W#s`Wa7.va7`WaB.Pay.O.R.R.h.h.G#s.R.r.r.h.O`A.ua4#K##.R#qadao.oar#L.R.v.O#6#z#B#B`J#C##..`J#B`B`Ba1`jaTaTaT",
"aTaTaT`2aA.o#yaeaQax.f.K#Za.`GaA`G.s`N#.ay`8#Z#s#s#p#.`8#.`L`L#..r#w`8`L`A#2ayaS`L.K.DaJ.Has#N.e#ma5#z`J`J.I#d#d`P.I..aD#haW`jaTaTaT",
"aTaTaT#h#y.oaeaeaQaeaxag.e.s.W.e.WaO.DaE`s.han.g`6#SaF#.`Ca6`5#S#W`6`6#Q`wa4#K.0ag`x.KaN.S#raga..o#t.u`J`J.I`3`3`3.I`J#z.L`IaqaTaTaT",
"aTaTaT#h.H#Eaxax.Cae.faoaA#H.Q.e.Q.s#Za7`s`san#v`CaA#H#H.Q`C.s.sah`6aiaH#Q#s`P#j#.#Qa..0#XaOaO.v.o.z.V#B`J.I`3`3`3.I`JaDaW.u`jaTaTaT",
"aTaTaT`2#raJax.faxaxa5aBaBaO`Xa..Wag#m.v`say.V`C.Q.e#H#H`7`C`C`C`C`5`6aC#w#s#a.g.a.r#X.v.V#2#q.z#L.Oa4`J`J`J.I`J`3`J`J#G`##U#GaTaTaT",
"aTaTaT#h#yaJaeac.f.fa5ada2.7#b#j#j.a#.a7`k#K#7#Q`7#H.QaFaFaF.s`CaF.W#W#0#Ya7.ganaG`X`W.2aNa5#L#q#q#z#c`J`J.I.I.I`3`J.I..`j`j#eaTaTaT",
"aTaTaT`B#yaJaQ#kacac.o#2aDa4#Xa.#X.Q`wa7.g.PaH.WaF.N.W#S.Wa6.W.WaRaRaj#0#7`R.g#a#7a.aN#yaJ.fa5.v#zataz.I.I#d`3..##`Jazaz#G#zaqaTaTaT",
"aTaTaT#haeaQax.2.o.f.oao###h#h#h#f`L#.#2#1`z.7.s.W`5aRah#S#Sahahahah#WaC#W`R.g`s#sagae#E#q#M#M#z###h##.Ua2.V#z#z#j#X###j`4`4#eaTaTaT",
"aTaTaTaqaB#M#z#z#hao.oaB#M#q.L`U#q.K.a#1`AaX`6.N.W#SaRahahahahahah`X#Wav`A#1#aaCa7`L.HaJ#h#####G###M#M.Hafae#yaQaeafafaa#D#5#eaTaTaT",
"aTaTaTaqaB#gaO#b#B#UaT#xaT`F#E.z#k`L.ra7#.`kav#S.WaHaH#v#v#v#v#7`X.7.VaC#7#1aC`s.V`w.4.f##az#G`j#z`4adawa5#t#k#k#k#ta5.faB``#eaTaTaT",
"aTaTaT#e.G.S.va2#d.uaxae.4#Ea5`2.r#..a`W`L#aav.7aC#d#caCaH`p`p`6aX`P`o#A.0#1#1aCa7.s.2#Maq#e#5az#h#z#Maaawawawaw.Haw.Hawae.U`jaTaTaT",
"aTaTaT`j#U#yaO.7#b#g.H#y#E.Hac`#arag.a#w.Qayavav#K...PaXai.7#P`k`Paz`P`k.s.VaC`R#s.r.V.U#5az#5az#d#a#faf.fa5a5a5#ka5acae.6`I`jaTaTaT",
"aTaTaTat.DaYa.aA#7`T.m#na#aa#t`#`w.Q.a#.`Lay#0`p`6aXaX#0#Pahah#b`kaX#A#s#.a7#1#s#7.s`4#G.naz#G###GaD.uafa5a5.f.f.fa5#k.faw.o`jaTaTaT",
"aTaTaTa1.J`L.a#p#Z`D`T`r`0.H.l`##m`L.r`L#Z#c#caHahah#v.8#S.N.W#vah#vaH.W`La7#1#7`A.s#2.n.naz.n#Gaz#G#MaJ#xaaa#a#a#`F`Faaa#aaa1aTaTaT",
"aTaTaT`B#w.p`l`u.paU#F`m.iaJaSaW`x#Z.a`x#Z.U#C`p#l.N#S#S.NaF.N#vahaR#v#Q#Z.v#2aG.h#..u#Gaz#5#5..#zazaDaW.o#k.o#k.o#k#kaeaJawa1aTaTaT",
"aTaTaT`2.a.wa0a0`l.a.pa`#na#.o#q`NaU`w.J`L.g..#b`p#l`p#b.N#H`Cahai#PaH.QaU.R#s`A.0aSa7.U##.naD#ca4#G.n.x#Da5.f.f.fa5.faJ#E.Ha1aTaTaT",
"aTaTaTaq#p`na0a0`l`n#p.saSaf.o.2.C#F`L#F`L.u#B`kai`yaIav#v#S#S.8av.5ai.Q#Z`w.0aG.aag.v#c`z#K#A.kaDaD#d.U.Oa#.HaJ.Ha##E.HaJ#Ea1aTaTaT",
"aTaTaT`j.a.wa0`Da0a0#p.0#..6a5#Na``x.EaU.Q#i.n`zai.5`oai#baiava2ai#Tav.Q#.`L.r.R#.#..h.x.n`P`P`P`P#G.n#G.u.o.o.l.1.o#Eaw.Hae`BaTaTaT",
"aTaTaTat.a`ua0`Da0`la3#wagaf.6ae`0aY#Z.E`7#s.k..aI`yaiaI#R.8.8ai.5#0`R.Q.0`8.a.r`L`waBa4.g.w`S`v#C#`#5#Ga1.4aeaQaQaea#.H.H#E`2aTaTaT",
"aTaTaTat`h#1a3a0`Da3`R#v.WaN.H.C.D`N`7#Q`7aGay`J`3ai`y#b#R#R#baiavai#K`w.h#w.r.a`Lagad#f.g`n`n`R#`#5#5`j#MaJ#EaQaQ#Eawa#.H`OaqaTaTaT",
"aTaTaTat#1`s#e#3aq`j`s.7`W`0.6#E.J.D`8#w.aa6#a.I`J`oai#Raiaiaiai#baD...rad.a`5.a`L.Qa7`s.g`n`S#T#5``.n.P.haxaeaeae#Ea#a#aJ.MaqaTaTaT",
"aTaTaTat.V#1`j````.na2aHaO.C.6`0a`a`#w#Y`va6`R`P..`3#T#R#P#P#P`6#0#C#5`w`W.0#7aG`7`N#D.r`R#w`S`s.n#5.n#3#EaJ.HaJ.H.Ha#aa#L`U`jaTaTaT",
"aTaTaTaq.Va4#e`````ja2#s.0.H.6.C.Ja`#.#Y`A#Y`v#K#C#C`z.Bai#R#Rai`P#C.n.a.0aG`haG`L`Qa`a`.e#H#H#H`C.v.U#maJaQ.f.f.f#E.HaQ`U`U`jaTaTaT",
"aTaTaT`j#j#j.t.t`I.vadaG.D.i.i`Q`N.J`7#p`h#P`v`k#C`z`z`z`o`o`o`z`P#`#a.0aG.V`RaG.Qa`.J`7#waFaF`7.Q.e`G#yas.Haw#k#Lacac#U#U#U#eaTaTaT",
"aTaTaTaq#2adao#L.zao#ma`a`.S`0`Q`N#F.E#Y`h`k#W#a.B`z`z`o`o`o`o`o`P`P`h.k#2`s`RaGaU`Qa`a.ah#Y#S.N`C`C`C.eaYasafaJaJaQ.f.HawaxaqaTaTaT",
"aTaTaTaq.v##`2at.x.R#r#F#F.d`Q.D.J`0`uaG#0aC`R.##T`o`o.B.B#T.5.B`o`oananan`k#iaGaUa``Q#.aj#vaj`H#l.N.NaF`C.e#ga##E#k.Gaqaq#E`2aTaTaT",
"aTaTaT`j.V#baD.x`4.e`G.Q`x.d.Ja``Q`Q#.#s`h`k`y#1`y.#.#aIaIaI.5aI.#ai.5#banaX#i`AaU`Q.JaU#v`Haj`pajaj`H#l.N`C`C.r.U#B#B``#5ao#haTaTaT",
"aTaTaTaq.WaH#j.VaG.Qa.`Ca`.Ja``Q.d#F`A`h#0aX.##R#R#R#R#R#R`y`y`y#P#P.7#7.##a#1aGaU`0.Ja`#waj`p`p#P#Paj`H#l.N`C#H#X#z#c#caD#faqaTaTaT",
"aTaTaTaW`2ataqat`2`2`2`B`B#3#3`B`B`2at`j`j`jaq#Gatatat#G#G#G#G#G#Gat#G`2`j#Gaq`2`B`B`B#3`2at#Gatat.Pat`2`2#K`B`B`2##aq`2`2at`#aTaTaT",
"aTaTaTaTaTaTaTaTaTaTaTaTaTaTaTaTaTaTaTaTaTaTaTaTaTaTaTaTaTaTaTaTaTaTaTaTaTaTaTaTaTaTaTaTaTaTaTaTaTaTaTaTaTaTaTaTaTaTaTaTaTaTaTaTaTaT",
"aTaTaTaTaTaTaTaTaTaTaTaTaTaTaTaTaTaTaTaTaTaTaTaTaTaTaTaTaTaTaTaTaTaTaTaTaTaTaTaTaTaTaTaTaTaTaTaTaTaTaTaTaTaTaTaTaTaTaTaTaTaTaTaTaTaT",
"aTaTaTaTaTaTaTaTaTaTaTaTaTaTaTaTaTaTaTaTaTaTaTaTaTaTaTaTaTaTaTaTaTaTaTaTaTaTaTaTaTaTaTaTaTaTaTaTaTaTaTaTaTaTaTaTaTaTaTaTaTaTaTaTaTaT"
};
