/* XPM */
static char *_3_frame_2[] = {
/* width height num_colors chars_per_pixel */
"    66   100      256            2",
/* colors */
"`` c #0a0e16",
"`. c #4d874f",
"`# c #73e7ce",
"`a c #3b3b3a",
"`b c #3fc17b",
"`c c #76c0c1",
"`d c #436a34",
"`e c #898759",
"`f c #81b275",
"`g c #80e7ce",
"`h c #82ce96",
"`i c #785b42",
"`j c #88ebd4",
"`k c #9e8843",
"`l c #90c9ac",
"`m c #5c3c2d",
"`n c #826f46",
"`o c #b1a03b",
"`p c #282323",
"`q c #91ead4",
"`r c #bdb540",
"`s c #9daf95",
"`t c #c7c147",
"`u c #986c49",
"`v c #57291e",
"`w c #ccc1b2",
"`x c #e3e8ed",
"`y c #9b857a",
"`z c #e2dfab",
"`A c #edeeee",
"`B c #7b4338",
"`C c #bdb35d",
"`D c #ad8473",
"`E c #2e0d15",
"`F c #bfae97",
"`G c #46241f",
"`H c #3d9b57",
"`I c #a88f7a",
"`J c #a3a090",
"`K c #93754b",
"`L c #ded6b2",
"`M c #393635",
"`N c #5c4531",
"`O c #eef2f4",
"`P c #b2a188",
"`Q c #525a30",
"`R c #925848",
"`S c #a07952",
"`T c #deccc4",
"`U c #88a46c",
"`V c #6cb5bc",
"`W c #52723e",
"`X c #cbac9f",
"`Y c #373231",
"`Z c #744531",
"`0 c #6ecd8a",
"`1 c #471724",
"`2 c #c2c2c5",
"`3 c #beaca9",
"`4 c #7a6f78",
"`5 c #868686",
"`6 c #b9992e",
"`7 c #999699",
"`8 c #5ec972",
".` c #6daaa0",
".. c #52523a",
".# c #5b5a5a",
".a c #3aa65e",
".b c #bb8d84",
".c c #7a5857",
".d c #3b241c",
".e c #5b454d",
".f c #96c6a8",
".g c #bfa384",
".h c #70d79d",
".i c #cfd2d9",
".j c #809a7f",
".k c #4c3d2a",
".l c #ae9a80",
".m c #a07263",
".n c #b88e1e",
".o c #482d1c",
".p c #526a70",
".q c #c2c252",
".r c #3c141d",
".s c #322e2b",
".t c #84ddb2",
".u c #927876",
".v c #ccced6",
".w c #b7b6b8",
".x c #895954",
".y c #645b5c",
".z c #9a9689",
".A c #9c7a6b",
".B c #7c6e63",
".C c #ad9395",
".D c #839685",
".E c #4b3c40",
".F c #66523c",
".G c #e5e297",
".H c #af7d6a",
".I c #7cb482",
".J c #5fb182",
".K c #713d31",
".L c #82c4c6",
".M c #e2e0b6",
".N c #857c64",
".O c #8eb6c0",
".P c #a9967c",
".Q c #472c2d",
".R c #c6b6ae",
".S c #4ac177",
".T c #271717",
".U c #845942",
".V c #afa3a9",
".W c #838ba0",
".X c #9ac2c8",
".Y c #684429",
".Z c #2f2a2b",
".0 c #d3c7ce",
".1 c #9c9288",
".2 c #906c60",
".3 c #b08564",
".4 c #3cb56f",
".5 c #374973",
".6 c #988465",
".7 c #4c4d4b",
".8 c #32211d",
"#` c #7ac6ce",
"#. c #c1ae85",
"## c #8ebac2",
"#a c #846644",
"#b c #a39f76",
"#c c #c6c666",
"#d c #417a41",
"#e c #6d6669",
"#f c #ccb6a4",
"#g c #a37668",
"#h c #60be84",
"#i c #bea396",
"#j c #b18a79",
"#k c #8f9290",
"#l c #5c3d42",
"#m c #c7c9db",
"#n c #6c4f51",
"#o c #7a6259",
"#p c #3d2e2c",
"#q c #d2ccb7",
"#r c #9c6c5d",
"#s c #d9dde4",
"#t c #456165",
"#u c #a69757",
"#v c #82b692",
"#w c #a68f65",
"#x c #744e51",
"#y c #321617",
"#z c #9c8b8e",
"#A c #92745f",
"#B c #e4ddde",
"#C c #86514e",
"#D c #a58554",
"#E c #5ed6a2",
"#F c #c7cacf",
"#G c #d2c97f",
"#H c #b5925d",
"#I c #856d61",
"#J c #583325",
"#K c #837b83",
"#L c #c2b8b6",
"#M c #e0da96",
"#N c #82a272",
"#O c #c3b79b",
"#P c #886259",
"#Q c #7e4d33",
"#R c #4dca7b",
"#S c #a8aeb4",
"#T c #6b3620",
"#U c #755243",
"#V c #9f8c77",
"#W c #856246",
"#X c #a1a3ad",
"#Y c #aac89e",
"#Z c #fefefe",
"#0 c #683c2b",
"#1 c #92877d",
"#2 c #684e36",
"#3 c #87d3b2",
"#4 c #e5d6d0",
"#5 c #685e6e",
"#6 c #b2a19a",
"#7 c #d0b485",
"#8 c #ad9a99",
"a` c #cdb7b6",
"a. c #161014",
"a# c #b6c0c8",
"aa c #996662",
"ab c #6c8456",
"ac c #a9b6bd",
"ad c #57353f",
"ae c #6d5a41",
"af c #364268",
"ag c #483435",
"ah c #cba49b",
"ai c #5f4e52",
"aj c #a77c68",
"ak c #74b5b7",
"al c #ae9e42",
"am c #33252d",
"an c #869aa7",
"ao c #cec5c6",
"ap c #67463a",
"aq c #d6c3b8",
"ar c #4b4445",
"as c #b7b9cb",
"at c #3c272c",
"au c #887663",
"av c #d5d6db",
"aw c #6c7376",
"ax c #b69869",
"ay c #a48564",
"az c #96634d",
"aA c #bd9787",
"aB c #6e5b59",
"aC c #f0e9f0",
"aD c #74deb6",
"aE c #84b3b7",
"aF c #b78571",
"aG c #8e5a44",
"aH c #dcd0db",
"aI c #a7bac8",
"aJ c #8ee2ca",
"aK c #744c39",
"aL c #5e8e92",
"aM c #6ee1c9",
"aN c #82a2a1",
"aO c #1b171a",
"aP c #4db76d",
"aQ c #51a666",
"aR c #696a6f",
"aS c #59636f",
"aT c #abb2c8",
"aU c #5c4644",
"aV c #a67d78",
"aW c #cfc19d",
"aX c #927c61",
"aY c #52965a",
"aZ c #b2ced4",
"a0 c #b2907c",
"a1 c #79646f",
"a2 c #c1c5d6",
"a3 c #c6a496",
"a4 c #b5967b",
"a5 c #b8a06d",
"a6 c #7f5040",
"a7 c #4c5260",
"a8 c #000000",
/* pixels */
"#Z#Z#Z#Z#Z#Z#Z#Z#Z#Z#Z#Z#Z#Z#Z#Z#Z#Z#Z#Z#Z#Z#Z#Z#Z#Z#Z#Z#Z#Z#Z#Z#Z#Z#Z#Z#Z#Z#Z#Z#Z#Z#Z#Z#Z#Z#Z#Z#Z#Z#Z#Z#Z#Z#Z#Z#Z#Z#Z#Z#Z#Z#Z#Z#Z#Z",
"#Z#Z#Z#Z#Z#Z#Z#Z#Z#Z#Z#Z#Z#Z#Z#Z#Z#Z#Z#Z#Z#Z#Z#Z#Z#Z#Z#Z#Z#Z#Z#Z#Z#Z#Z#Z#Z#Z#Z#Z#Z#Z#Z#Z#Z#Z#Z#Z#Z#Z#Z#Z#Z#Z#Z#Z#Z#Z#Z#Z#Z#Z#Z#Z#Z#Z",
"#Z#Z#Z#Z#Z#Z#Z#Z#Z#Z#Z#Z#Z#Z#Z#Z#Z#Z#Z#Z#Z#Z#Z#Z#Z#Z#Z#Z#Z#Z#Z#Z#Z#Z#Z#Z#Z#Z#Z#Z#Z#Z#Z#Z#Z#Z#Z#Z#Z#Z#Z#Z#Z#Z#Z#Z#Z#Z#Z#Z#Z#Z#Z#Z#Z#Z",
"#Z#Z#Z.v`5`5`5`5`5`5`5`5`5`5`5`5`5`5`5`5`5`5`5`5`5`5`5`5`5`5`5`5`5`5`5`5`5`5`5`5`5`5`5`5`5`5`5`5`5`5`5`5`5`5`5`5`5`5`5`5`5`5`5`x#Z#Z",
"#Z#Z#Z`5``#y#l.u#o#l.e.e.8#xaKaU.8am`N#oaB.y.T.y.y.y#eai#e`5#K.paRaw`k`n`e.7aSaw`4.B.F#nap.k.EaU.c.cai.d#l#l#y.T#l.E#l#U.Q`G.Tas#Z#Z",
"#Z#Z#Z`5.Tai#A#iaAaaaV#x.Q#C#Cap.Eagad#P.maB#lag.kaU`F`I#La#anab#k#O`C`K`oau.W.W.W#K.P`u#I.ead#x#g.2aK.e#x.c#K.ua1.2aV#P`Z`Z.d.w#Z#Z",
"#Z#Z#Z`5aUaBai.F#e.2.2.C`3.2#x.CavaU#l#P#P#6`X.c.daiaWaq#OaI.W.W#X#b#ua3al`P#S.W.paS.1a5aVag.K#P.A.2.C#B.Ra`aCaC.R.c.uaa#P.x.Q.w#Z#Z",
"#Z#Z#Z`5.s.E.8ad`G.d.E.caH.0aTaH`x.v.u.b.A#8a``4#y`i#.#7#b`7an`s#V.N`F`w#.#O`F`F`e#wa5ax.Ra`a1`3#6#z`3aC#LaH`xaC.0ad`1`B#x#0#y.w#Z#Z",
"#Z#Z#Z`5.Z`M#p#PaK.damag.0.0av#sav.0a``X#i`X#f`3#I`XaX#2#a#w`F`F#V#V`w`w`w`P#1.Pau.F.o`K#q#B`3#4avao#saC#Las`xav#5`1`1`1.r.r`E.w#Z#Z",
"#Z#Z#Z`5.y`M.e#x#xamai.V#m.ia#`5as.R`X`Xah`Xa3#f#L.6`m#u#q`TaWaW`F#b#O#q`L`LaW`F`P.Nae#J.V.0.VaoaC`x`x#s#i`3.va`at`E.r`1.e`1`E.w#Z#Z",
"#Z#Z#Z`5#1ai`Y.c.c#z.Vas#m.v#ma2aT`3#8`Xah`XaA`Fa`.F`n#f#V`n.A`I`P.P`P#i`P`I#Vax.g.1`naU#I#L#6.V#s#s#s.0#i.VaT`7`1`E.r`vapad`E.w#Z#Z",
"#Z#Z#Z`5`y`4am.Wa`.0asaT#ma2#ma2.w.Va3aV#i#6.2#f`P...N`iadaK.Aa0aAa4a0#jayaj`u`iay.g.B`mai#6#i#6a`.0aH`3#6#zas#zat`E.r`1`1`1.T.w#Z#Z",
"#Z#Z#Z`5aX#K`paRaH#B#Ba#a2#m#m`2.V#z`XaA`X`X`y`F.P#2.B#J#W#j#i#ia3a3aAa0a0`D#Aa6.U.P.6`N.o#V.l`P#zaV`yaV.u.WaT.W`1`E`E.r`1`1`E.w#Z#Z",
"#Z#Z#Z`5au.uaOaf`3#X#4#ma#asa2as#X`4`y#A.C`D.P`3#V.F#2`N`D.ga3aha3a3.gaA.laA.b#r#Q`K#V`i.k#A`I`y.u#Ia1a1#K`7.W#K`E`E.r`E.r.r`E.w#Z#Z",
"#Z#Z#Z`5a1#IaOamaTasaH.iasasasas#8#n#P.c#o#x#I`P#V`N`N#2#j`P.g#iaAa0a0aAa0aAa0`D.U.U#w#2`N`i.6.u#1`3`2#X.Wa1#5a7`E`E.r`1.r.ra..w#Z#Z",
"#Z#Z#Z#Ka1aiaO.T.W.vavavaIaTaIaT#Kaiad#I.C#z.C`P#V.kagap`Da0a0#j`DaF`D`D#j`DaV#gaG`i#D#2#2`i`y`3.v.ia2as`7#5agat`E`1`1ad#yam`E.w#Z#Z",
"#Z#Z#Z`5aeat`Ya7#5asaH.vaT#XaTaT#Xai#paf`Maf#1`P#uap`N.Y`D#j`D`DaV`D`DayaVajaj#gaG#U.A`m#U#U#V.w.vaI.#ai#5agag`M.E#l.u.e.eai`aas#Z#Z",
"#Z#Z#Z`5ag`p.Ta.a.aiawai.eag#5#X#8a7aRaS.5a7#X`I#V`i.c#0aj#j`Dajajaj.Aajaj.HaV.m#P#W#D.k`i`i`y#m#s#K`Y.Q.Qama7.e#XaC.0#m.v#F#e.w#Z#Z",
"#Z#Z#Z`5a.``.Tam.E#n#m.V.uat.TaH`O#Z#Z`O#X#X#S#V#VaX#a#2#g#j.A#r.maj#g#g`S.A#A#a.c#Way`N.F`i.6`3a2#K`p.Tamafaiaia2a2aT#S#S#S.yas#Z#Z",
"#Z#Z#Z`5.Tam`M#p.ZamaH#zaa#lag.wa2`2a#`x.7aR.layay`P#IaK#P#W#2ad`N#P`u#r#Pa6.Q.Q#J#o.6ap#U#a.6#6#Kaf`p.T.T#p.e#pas`A`x`x`x`x#K.w#Z#Z",
"#Z#Z#Z`5aO.Ta.a.aOaOav#z.m#P.C`AaHav.i`O..aw#6#V#V`F#I.Y.U#0#y.8.Q`Zaz`u.U#J`1`G.oaX#VaU#o`n.A.6aiam.T.T.T.Qai.Easa2.waT#S#S#t.w#Z#Z",
"#Z#Z#Z`5``````aOa.#KaH#8#6.A#.#M`z`x`x`A.#aw`F#V#w#f.B#J#P#r`Z#J#0#C.m`D#PaK#l`maK`I`I#2#I#A#V#Aagamamam#p#pag.E`2`2.waIa#.waS.w#Z#Z",
"#Z#Z#Z`5````````.7`L#.`I#w#w#c#G.G#M#F`x.7.B`F#V#u#f#I.r#Waj.H#g.A#gaF.baV#g#g.m#A`F.1`maXaX`I.u#l.T.8amat.8.8.E`7`O`O`A`A`x`5.w#Z#Z",
"#Z#Z#Z#K````a.```5`F#u`C`o`C`P`C#G.G#F`x.7#V#O`I#baWau`E#x.maFaF.HaF.ba0`D#g`Dajaj#..l`N.6#A.P`5.e#y.T.T#yat#pagaU#K#S`s#X#X.#.w#Z#Z",
"#Z#Z#Z`5````a.a.#V`I`k`C`r`r#ua5#.`L`xaC..#X`w`P#.#Oau.8#Jaa#g#gaG#raAaA.b.x.x#r`D#O`Pae#Vau.l.6aiag.Qag.Qaiag#y.Ea1aTa#a#a#aS.w#Z#Z",
"#Z#Z#Z`5```pat`m.6.6`S`r`t`ral`k`I.l#F`x`4#L`w.g#.#OaXat.d#C`R#Qa6aaaF#jaj#P`B`Zay`X.lau#waX#6.1ai`G.Q#l#J#l.E.E#l.k.i#s#savaw.w#Z#Z",
"#Z#Z#Z`5a.ag.2.m`y#A`o`o`t`r`t#u`K`y#LaC`J`w`w#.#.#O.6.k#y`Z`B#T.K`R#C#C#C.U#0#0`D`F`I#V.P`e`F#1a1`G.d.o`G`G.d.Q#y.E.z#X`s#S.#.w#Z#Z",
"#Z#Z#Z`5aO`p.2.u.m#I#7`r`t.q`rala5a0aoaCa#`w`w#..g#.#V#2#y`Ga6a6`B#Qaaaa#P.KaKaK#V`P#1#w.l#V#i#K.B#p`k.n`S#2.T.T`p`Y.W#F.v#FaR.w#Z#Z",
"#Z#Z#Z`5.7`Y#oaVaA.A#a`n`C#c`r`n`n`D`J`x#F#q#O`Fa5ax#H`i`G`E#0a6`R#C`R#C.x#C.c#0#o.P.N`y#w.P#..N.B.8`k`6.n.o.Ta.`pam#S.i#FaZaw.w#Z#Z",
"#Z#Z#Z`5aTaR#naa#r#a#o`M`p.7`p`N.U.2#8.M.vao#O#7.P#w.P#a.o`E.r`Z#C`R#C`B#Q.U#U#yaB#V.Nay#1.l`F#V#e.o`k.n#a#y.T.T.8ar#La2#F#F#e.w#Z#Z",
"#Z#Z#Z`5#S#V.F.c#P#IaeaUa.``a..e#P.2.V#B#q#qaW#.#H`S#D`S`m#y.r.o#Qazazazaz.x#J`E.y.6.6.AaX#w#O`F.P#a.6#H`K.o.T.8.8.1#s#s#sav#K.w#Z#Z",
"#Z#Z#Z`5#S#Xai.Ba1#o.F.ka.aOaO.E.2#I`wav#q`waW`Pa5`KaX#D#U.r`G`G`v`Z`R`R.U#T.8.TaB#1#w#a`K.P#O`waW#7a3ahah.g#V#nai#s.va2aIa#aS.w#Z#Z",
"#Z#Z#Z.V`a`a`M`a`M`M`M`M.Z.s`Y`Y`M`M`a`a`a`a`a`M`a`a`a`a`a.s.s`Y`Y`Y`Y`Y`Y`Y.s`Y`M`M`a`M`M`M`a`a`a`a`a`a`a`M`a`a`a`a`a`a`a`a`a.i#Z#Z",
"#Z#Z#Z#Z#Z#Z#Z#Z#Z#Z#Z#Z#Z#Z#Z#Z#Z#Z#Z#Z#Z#Z#Z#Z#Z#Z#Z#Z#Z#Z#Z#Z#Z#Z#Z#Z#Z#Z#Z#Z#Z#Z#Z#Z#Z#Z#Z#Z#Z#Z#Z#Z#Z#Z#Z#Z#Z#Z#Z#Z#Z#Z#Z#Z#Z#Z",
"#Z#Z#Z#Z#Z#Z#Z#Z#Z#Z#Z#Z#Z#Z#Z#Z#Z#Z#Z#Z#Z#Z#Z#Z#Z#Z#Z#Z#Z#Z#Z#Z#Z#Z#Z#Z#Z#Z#Z#Z#Z#Z#Z#Z#Z#Z#Z#Z#Z#Z#Z#Z#Z#Z#Z#Z#Z#Z#Z#Z#Z#Z#Z#Z#Z#Z",
"#Z#Z#Z#Z`A`O`O`O`O`A`O`O`O`O`A`O`O`O`O`O`A`A`O`A`A`A`A`A`O`A`O`A`A`O`O`O`A`O`O`A`O`A`O`A`O`O`A`A`A`A`O`A`O`A`O`O`O`O`O`O`O`O`O#Z#Z#Z",
"#Z#Z#Z`5a.`Y`Y`p`p.Z.Z.8`p.8.s.Zat`aag`a.kar.k.Z.8.Ta..T.8.T.8.8.T.8.T#y#y.8.8.8.8.8.T.T.8`M`a.k`aag.d.8.8.8#y.8.8.datat#pag`p`2#Z#Z",
"#Z#Z#Z`5#I`3#O#6#i`XaA#i#i`3#H#ja0#.aW#7#f#G#.`k`K#U#0#Q.UazaGaz#raz`uazaz`u#r`u.m#r`i#U`ia5#faW#.#7.3#W`Ra6a6`Raz.m`SaFaA.gae.w#Z#Z",
"#Z#Z#Z`5.C#4#4`T`T`T`T`T`Ta``D`S.m#7#.aW#7ax#waX#D#W#UaGaGaa#r#r#r#r#r#r#r.m.m#gaj`S`u#a`i#HaW#.#.a0#w.U#Q.K`Z#QaG`u`u.H.H#H#2as#Z#Z",
"#Z#Z#Z`5.EaX#L#L#L#L#L#L#L`3aj.m`u#H#.#7.gaX.6#a`S#W.Uaz`u#r#r#r.m#r#r#r.m.m#g#g.Aajaj.m#a`K#7a3#.#w`ua6`v`v#T`B#QaGaGaz#raj`N.w#Z#Z",
"#Z#Z#Z`5.8at.y#SaTac`saI`s`J`S`u`u.A.g#7ax`K`K`k#D#W`u#r#r.m.m.m.m.m#g.m#g#gaj#gajaj`Daj#A`u.g.ga5`S#a#0`G`v#J#T.K#Q#QaGaGaz`m.w#Z#Z",
"#Z#Z#Z`5`y.V.Ba#a#aZaZaZa#`J#razaz`Ka5.g#H#WaX#Haj#W#g#g.H.H.Hajaj.H.H.Hajajaj`D`D.3.3`D.maya5ax#D#DaK#J`1#y.r.o#T.Y.Y#Q.UaGag.w#Z#Z",
"#Z#Z#Z`5#z`X#KaI.OaEaE.O##.j#raz`u.3ax.g#H`K`ua5#D`u.Haj.H.3.H.3aj.3.H`D.H`D.3.H.3`D`D#Daj#H#Hax#D`SaK.o`p#y.8.d.o#T#0.Y#Q.U.o.w#Z#Z",
"#Z#Z#Z`5a1`G.yaIaEaEaEanaE#kazaz.m`uax`6`K#D#Daxaj`S.H.H.H.H`DaFaF`D`Daj`D`D`Daj`Saj.Hajayaj.3#H#D`u#2`a`a#t`M.8.o#J#0.Y`ZaK.o.w#Z#Z",
"#Z#Z#Z`5#I.2#z.OaE#t#K`7aR.BazaGazazaxaA`S`K#D#u.H`S.H.Haj.Haj`D.3`DayaVaj`D`D.Hajay.Haj#Daj#D#D`K`uaK...`ak.`.p`M.o#0.Y`Z#Q.o.w#Z#Z",
"#Z#Z#Z`5#x#g#zaNaL`p.d`E.T.YazazaGa6.H`6`S#D`Kaj.H.H.3.H.H.H.H.Haj`Dayay#Dajaj.Haj.H.3.3.3#D#D#a#W`u.F.W.``V`V`V.j`d`a.Y.Y`Z.o.w#Z#Z",
"#Z#Z#Z`5#x#A#kaN#t.T.Q.eada6azazaG.U`S#H.H.3`S`S.3aF#H#j.3#j.3.3.Aaj.Aaj.6`SaXay#w#V#V.z.z`e`n`Q#2#aab.`.``V`V`V`Vak.j.p`N`N.d.w#Z#Z",
"#Z#Z#Z`5.e.u.Ca#ai#n.E#oapaz`uazaG.UaFax.3#H`K`SaF#ja0ax.P#w#w.1#1.N.N`e.N.D#N`s.f`l`h`h`h`h`h.I`e`n.D.`.`akak`Vakak.L##.jaw`M.w#Z#Z",
"#Z#Z#Z`5.ca0#za`#zaVat#P#laz`uaG.U`u.n.3.3`S`S.N.z`s#v.f`h`l#3#3#3#3#3aD#3#3.haDaDaD`g`j`j`j`j.t#Nab.IakaEanaNaE`c`c`c#`#3`l.pas#Z#Z",
"#Z#Z#Z`5#n#z.C.Rah`DaV#g#g`u`uaza6aj#D`k`k`e#N`h.t`g`#aDaDaDaD`#`#aMaMaM`#`#`#`#`#`j`g`#`g`j`q`g.I`f#h.jag`G#P#K.O`c`V`c#`#`.p.w#Z#Z",
"#Z#Z#Z`5.2a3#8a`a`aV.H`Baaaa`u`uaz`uax#w`e`U`h`q`q`j`gaD`#`#aM`#aM`#`#`#`#`#`#aM`#`#`g`g`#`g`gaD.t.h.h.j`y`1.K#lan#`#`#``c.L#tac#Z#Z",
"#Z#Z#Z`5`5`w#L`Xah#g.m.m#r#r`uaz#Q`m#W`S`f.I.t`q`q`j`g`#aMaMaMaMaMaM`#aMaMaMaM`#aM`#`#`gaM`g`g`g.h.h`0aE#P.K.b#zaw.L#``c`c.L.p.w#Z#Z",
"#Z#Z#Z`5#zaHaq#i`D#g`R`Raa#r`uaz#Q#T.d.k`f`h.t`q`j`gaMaM#EaMaMaMaMaMaMaMaMaMaMaMaMaMaMaMaMaMaDaD.h`0#haI#Iaa.m.K#KaE`c.L#`.L#t.w#Z#Z",
"#Z#Z#Z`5.C.0a`ah.b#r#r#r.m`u`uaG#Q#J.d.s`h`h.t`g`gaMaMaM#E#E#E#E#E#E#E#E#E#E#E#R#E#R#E#E#E#E#E`0#E`0`8.j.c#C#z.x.2.O`c.L`c#`#t.w#Z#Z",
"#Z#Z#Z`5#z`Ta``XaA.b.m#r#r#r`uaG.Y.o.d.k`l.h.t.h.haD#E#R#E#R#E#R#R#R#R#R#R#R#R#R#R#R#R#R#R#R#R.S#R`0#h.j#6aA#zahaV.X.L.L.L##.pas#Z#Z",
"#Z#Z#Z`5#Vaqa`aAahaAaA.b#r`uaz#Q.K#J.d`n#Y`h.h`8#E#R#R#R`b#R#R#R#R#R#R#R#R#R#R#R#R#R#R#R.S#R#R.S.S.S#haLah`T.CaV#z.O.L`c.Xa#aR.w#Z#Z",
"#Z#Z#Z`5#z.0.RaVahahaA.b#r`uaz#Q.K.o`G#w#Y`0`8`8`8.S`b`b#R`b#R#R`b#R`b`b#R`b`b`b#R`b`b`b`b`b`baP`baP#h`saoaqah.m#K##.O`caI.i#e.w#Z#Z",
"#Z#Z#Z`5.Paqa`#P.bahaAaF`uaz`R#Q#T`v`N`F.q`f`8#R#R.S`b`b`b`b`b`b`b`b`b`b`b`b`b`b`b`b`b`b`b.4aP.4.4aQaE#X.0#8#Pada1#8.V.Va2`w.F.w#Z#Z",
"#Z#Z#Z`5`7`Taq#l#r.b.b.H.maz`R#Q#T#J#Aa`#O.f#h`8.S.S`b`b`b`b`b`b`b`b`b`b`b`b`b.4`b.4.4.4.4.4.4aQaQaLan.Rah.c#l#l#PaV.C`2aH#LaBas#Z#Z",
"#Z#Z#Z`5.1`Taqap.c.2.HaF`uaG`Z#Q#T`va0`Ta5#Y#NaPaP.4.4.4.4.4.4.4.4.4.a.a.a.a.a.a.a`H`H`H.a.a`HaY`d#eaAah.A.K`Z.c#raV`X#4`T#far.w#Z#Z",
"#Z#Z#Z`5#zaoa`aUad.c.m.3`u#Q`Z`Z#T`v`I#f.laW#NaQaQaQ.4.a.a`H`H`H`H`H.a`H`H`H`.`.`.`.`.#d#d#d`d.7.k#A.C#j.2#P#raa.m#iaq`w#f.2a..w#Z#Z",
"#Z#Z#Z`5`y#f#iap`map#D.3`u#Q`Z#Q#0`v#i.R#V#u#cab`W`.`.`H`.#d#d`d`d`d#t`Q...7.7`a.k`Mat.sat.o.o`map#A`D.ua1#Paaaa`Daqaqa``y#Ja..w#Z#Z",
"#Z#Z#Z`5#A`Xa``3#I#P#j.3`u#Q.Y`Z#0`m#f.R#8#U#1#I.Y`m.k`a`Y.s`Y.k`N#2.Y#2aKaK#Q#UaKaK#T`m`m#J#0#0`N`3#B#4#4#4aH`Ta`a`aqaq.1#1`a.w#Z#Z",
"#Z#Z#Z`5#I#i.R`w#L.P`D`S.m#U#QaK#0#Uaoa``J`3.C.P.F`Z#0#0`m#0.YaK#Q`Z#Q#Q#QaKaK#QaK`Z.Y#0#0.K`m`Z`Z#6aH.0aoao.0ao`w#L`w#L`Jaw...w#Z#Z",
"#Z#Z#Z.War.y.#.y.y..`Nag.k.o.d.8.T.kaS.y.yaS.y.##p.d.d.d.8.d.8.d.d.d.d.d.d.d.d.d.8.d.8.8#y.8#y.8.8`a.#.#ai.#.#.#.y.#.yaS.yaS`M`2#Z#Z",
"#Z#Z#ZaC`2`2`2`2a2`2`2`w`2`2`2`2ao`2`w`2`2`w`2`w`2`2`2`2`w`2`w`2ao`2`2`2`w`2`2`2`w`2`w`2`2`2ao`2`2`2`2`2`2`2`2`2a2`2`2`w`2`w`2`O#Z#Z",
"#Z#Z#Z#Z#Z#Z#Z#Z#Z#Z#Z#Z#Z#Z#Z#Z#Z#Z#Z#Z#Z#Z#Z#Z#Z#Z#Z#Z#Z#Z#Z#Z#Z#Z#Z#Z#Z#Z#Z#Z#Z#Z#Z#Z#Z#Z#Z#Z#Z#Z#Z#Z#Z#Z#Z#Z#Z#Z#Z#Z#Z#Z#Z#Z#Z#Z",
"#Z#Z#Z#S`7.z`7.z.z`7.z#k#k.z#k.z#k`7#k`7`7#k`7.z.z#k.z.z#k.z#k#k.z#k.z#k.z#k#k#k#k#k#k.z`7#k`7.z`7#k`7`7#k#k#k`7`7`7.z#k`7.z#S#Z#Z#Z",
"#Z#Z#Z.ZaeaB.eaiadag#e.#.Zag#l..auaB.T`p.B`e#Kabawa7#t.B.B.Bae`naSaRa7.5ar#a#I.d`G.QaUai.Fa1`5ai`4`7#Kar#n#n`m`m#Jagae.yat#p`p#Z#Z#Z",
"#Z#Z#Z`pap#xaqao#A#z#B#F#l#P#A.2a``X.8.8#jaW#O#Xan.D`J.1`e#.#Oa5.g#S`eaR.N#.a4.C#o.c#V`y`y`wavaHaC`AaC#8ap.c#r.U#x.K#Ia1`Yag`p#Z#Z#Z",
"#Z#Z#Z`p#p.Q`4#4.iav#s#B.0`XaA.Ca`aq#lar`X#D`k.6.P.w#baX`PaWaW`w#.`P#u.N`n`K#u#B#L.C#B#i`3#BaH#L#s`xaH#l`1`1`1`v`1.r.E.#ar.7`p#Z#Z#Z",
"#Z#Z#Z`p#yag.V.v.iasa2`2a`a``Xah`Xa``X.R#a`i.6.g#O#f#.#V`F`w#q#q#O`J.l`n.F.k.A#4`w#LaC#s`xaC#m.R#m.v#8`E.r`1.r`G.r.r.d#e.y.y.Z#Z#Z#Z",
"#Z#Z#Z.Z#K#8#m#m.i.V#X`3`3#ia`a3`X.l.R.R.oaXaW#O`F`F`F`P`P`waW#O`F#.#i`PauaeaU#L`3`3.v`x#s#s`wa3as`2#5.r`E`1ap.x`v`1`Ea7a7#5.Z#Z#Z#Z",
"#Z#Z#Z`Mas#X#m#m.v#ma2.V#f.b#i#iaA#ja``e.F.l.B`N#UaX`I.l`I#V`Ia0.A`na0.gaXaB.k.1#8a3.waH#BaH`3`3#8aT#n`E`E`1`1`1`1.r.r.E`M.7`p#Z#Z#Z",
"#Z#Z#Z`a#4a2a2a2.v#ma2.1#ia0#j`3#8.A#f.Bae#a`v`iaVaA#iah.g.bay`S#r#WaKaya5ae.dau#6#i#6#6`3.V.C`y#X#Xa1`E`E`1`1`1`1.r`E.ea7#5.Z#Z#Z#Z",
"#Z#Z#Z`M#s.ia2a#a2`2as#K.C#i#i#f#i`P`F`nae`N`ia0a3a3a3.ga3aAaAaAa0.m.U#Wa4#I`m#2`I.P#z#A#Pa1a1#K#X.W#5`E`E.r.r`1`1.r`Eag.7aR`p#Z#Z#Z",
"#Z#Z#Z.sasaHa2asa#a2aT`4#P.2.c#P#P#V#6.B#2#J.2aA.ga3ahaAaA.laAaAa0aF.2aK#w`nap`N.6.6`4au`y.C.W.W#KaR#l`E`E.r.r.r`1`E`Eam.Zar.Z#Z#Z#Z",
"#Z#Z#Z`a.i#s#maTaTasaT`4.e.c.2.uau#b.P#o`Nat#Aa0aAaAa0.ba0.ba0a0#j`D.m#Uaj#aap`N.AaV`3#m.vasaTa1#5.Eam`1`E.r.r`E.r.r.r.Tag.Z`p#Z#Z#Z",
"#Z#Z#Z`a.v#s#maIaTaI#X#Kadag#5#e`4#6.l`n.F.o.2#wa0`DayaV`Day`DaVajaj#ra6`K#o`N.F#A#6ao#maT#K.Wa1ad`Yam.r`Ga1adag#x.e`E.Q.E`4am#Z#Z#Z",
"#Z#Z#Z.s.V.W#K#5#K#X#X#K#paf.5afaS`3#V#o#a#J#P#j`D`D.HajajaVaj`Dajaj`u#U`K#W#2#U#I`J.vava7ar.eagam.eaf#z.V#z`4#K#K`3#X`3#K.8`p#Z#Z#Z",
"#Z#Z#Z.Z`4.Va1#5am`4aHasas#m#X.W.W`3#1#o#V#0#W#ja0`DaVajajaj#gajaj#g#A.U#Aae.F#U#a`JaH.v`Yamamamaf#n`4aC#B#sav#s#sav#B#s#Ka.`p#Z#Z#Z",
"#Z#Z#Z`p`4avaa#x#yaS`OaCav.ia#.7`J`P#w`n.l#2.U.A#A#U#U.2.m.m.m#r.capapaKaX#a#Uae#I.1`2#X`M#yamamafai#5`Aa2asasasasasa2aZ#8`p`p#Z#Z#Z",
"#Z#Z#Z`p#5.0.u.x.c.C.vav`x`OaI`a#V.l.1#w`P`N.xa6#J`G`G`N.Uaz`u#U.Q.d`Gad#V`i`i#U`n#V.B`Y`p`p.T#y.e.eai#sasasacacacacaTa#.i.#.Z#Z#Z#Z",
"#Z#Z#Z`p`5.0.C`D#I`L`L`2a2av.w.7.z`P#w.P#i#Ja6az#0.d.Q#Ja6.m#raK`v`G.o`i.l.B`i#a#A#V.cag#y.T.8atagai.#`O`A`A`xaC`x`x`xaC#s#e`p#Z#Z#Z",
"#Z#Z#Z`a`L`F`IaA.l#G#M`A#q#s#Sar.l#i#V.l`F.k.Y.2#r.x.c#P.maF`D.2#P.c#P.A.l.B#o#AaXa0aBamamamatat.8at#e#saT#S#S#S#S#S#Sa#`O#s`Y#Z#Z#Z",
"#Z#Z#Z`a`P.l#u#ua5#c#G.G`x`A#Sar#S.g#V`F`Fag`G#raFaF.H.H#ja0aFajaF`D.m.P.g.B`iaXaX.la1am#y.Tam.8#pataU#z.w.waIa#.wacac#F#s`x`a#Z#Z#Z",
"#Z#Z#Z`M#w`o`r`r`Ca5#.#M#G#s`J.y#O`F#w#O`P`N.T#P#gaF.H.maFaA.b#raz.m.m.g`FaX.B#A.6#6#o.Z.8`E.T#yai.TagaravaC`x`x`x`A`O#s.i`x`a#Z#Z#Z",
"#Z#Z#Z.s`k#u`r`r`o`k#u`F`wav#X`5#L`Fa5#O.V.F`E#Cazaa.x#Q.baAaA`DaKa6.x.g`F#Vau.6#1`J#I.e#l.E#U`Nai.E.QaU`4`s#X#Xan#X`savav.i`a#Z#Z#Z",
"#Z#Z#Z.s#wal`r`r`r`raX#V`J#B.w`3`w#O#.#..g#o.T#J#Q.K.K`Razaa#r#Paz.Ka6#i`P.l.6.6#u`Jauag.r.8`G.o.Qagag.8`4a##F#F#Fa#aZ`x#saZ`a#Z#Z#Z",
"#Z#Z#Z`p#w`o`t`t`r`r`ka0#8aC`2`2ao#O#.#.#.#a.o#ya6#Q#T.K.x#C#C#Qad#T#W#i`I`P#V#V`P.C#Kai#J#a`i.Y.d.8.T#p.#av.i.i.iav#s#s#s.i`M#Z#Z#Z",
"#Z#Z#Z.say#w`r.q.q`r`kay.laoav#FaW#O.g`Pa5au#J`E`v#C#C#C#Caaaa#Ca6#x#2.l.6.l#V#V`P.l.B.F.k`6.n`S#y.T.T`p`a#S#X`s#Sac`x`x`xaZ`M#Z#Z#Z",
"#Z#Z#Z.s#I`N.F.D`e..ae#r.A#F.M#F`w#Oa5.Pa5.6.Y#y.r#0#C`R`R#C#Ca6.caK#y.P.B.P#V#w`P#6.B.F#2`6.n#2#ya.`p.daR#s`x#s#s#s`x#s`xaN.Z#Z#Z#Z",
"#Z#Z#Z.Z`i#o.TaOa..8#2.2.uaoav#qaWaW.l#D#D#w#U.r#y`G`Z`R`R#C#C`R.c.o.T.1.B#V.6#V`P`F.B#e.k.n#D`m.Ta..8am.w.i.i#s.iav`x`OaI#t.Z#Z#Z#Z",
"#Z#Z#Z`Y#oae`pa.a.am.caaaXav`L#F`waWax#w`K#w`K`G#y`G.o#QazazazaG#J#y#y`I#A.6`u.6`PaWaW#..g.gax.A#U.o.8#e.va#acaT.X#s`x`xaw.5`p#Z#Z#Z",
"#Z#Z#Z.s#o.kaOa.aO`paB#a#6`L.iaW#O#Oa5#D`K`K#D`v.r`G`G`v#T`B`Z#J`G.8.o.1ay`K#a.6#.aW`w`X.g.g.g`X`Xa3.AaH#s`x#sava#a2avan.5af`p#Z#Z#Z",
"#Z#Z#Z.saB#6asa#`2`2#1`Faq.i`L#qaW#.#.#D`u`i`S#2`v`G`v`v`v`v`v`v`G.r.B#o`n`i#o`S.gaWaW.l`D#j#ja0.ga3a3.R.0#s#saI#XaI.WanaI#S`p#Z#Z#Z",
"#Z#Z#Z.7.Z.s`Y`M`Y.s`M`a`M`a`M`M`a`M`M.s.sam`Y.Z`p`p.8.8.8am`p.d`p`p.s.Z.s.Z.s`Y`a`M`a`Y.s`Y#p.s`Y`M`Y`M`Y.E`a`a`a`a`Maf`a`a.7#Z#Z#Z",
"#Z#Z#Z#Z#Z#Z#Z#Z#Z#Z#Z#Z#Z#Z#Z#Z#Z#Z#Z#Z#Z#Z#Z#Z#Z#Z#Z#Z#Z#Z#Z#Z#Z#Z#Z#Z#Z#Z#Z#Z#Z#Z#Z#Z#Z#Z#Z#Z#Z#Z#Z#Z#Z#Z#Z#Z#Z#Z#Z#Z#Z#Z#Z#Z#Z#Z",
"#Z#Z#Z#Z#Z#Z#Z#Z#Z#Z#Z#Z#Z#Z#Z#Z#Z#Z#Z#Z#Z#Z#Z#Z#Z#Z#Z#Z#Z#Z#Z#Z#Z#Z#Z#Z#Z#Z#Z#Z#Z#Z#Z#Z#Z#Z#Z#Z#Z#Z#Z#Z#Z#Z#Z#Z#Z#Z#Z#Z#Z#Z#Z#Z#Z#Z",
"#Z#Z#Z#Z#Z#Z#Z#Z#Z#Z#Z#Z#Z#Z#Z#Z#Z#Z#Z#Z#Z#Z#Z#Z#Z#Z#Z#Z#Z#Z#Z#Z#Z#Z#Z#Z#Z#Z#Z#Z#Z#Z#Z#Z#Z#Z#Z#Z#Z#Z#Z#Z#Z#Z#Z#Z#Z#Z#Z#Z#Z#Z#Z#Z#Z#Z"
};
