/* XPM */
static char *_3_frame_1[] = {
/* width height num_colors chars_per_pixel */
"    66   100      256            2",
/* colors */
"`` c #0a0e1b",
"`. c #3eb770",
"`# c #4c4e36",
"`a c #7cb87c",
"`b c #437c43",
"`c c #7ccc97",
"`d c #8acbad",
"`e c #399c56",
"`f c #8cd2a9",
"`g c #52a462",
"`h c #91724e",
"`i c #272525",
"`j c #ddd787",
"`k c #e0e096",
"`l c #714835",
"`m c #9e8e3a",
"`n c #633425",
"`o c #bfb73e",
"`p c #97a167",
"`q c #90b286",
"`r c #77593e",
"`s c #e4ebf0",
"`t c #522e23",
"`u c #b3a440",
"`v c #c1ba4a",
"`w c #968479",
"`x c #875744",
"`y c #ae9e87",
"`z c #6ce4cb",
"`A c #403c21",
"`B c #a4bbac",
"`C c #a0847a",
"`D c #816f4b",
"`E c #270f11",
"`F c #9aca9e",
"`G c #f0f2f7",
"`H c #466632",
"`I c #c7b69c",
"`J c #52854d",
"`K c #9e6f55",
"`L c #68c086",
"`M c #bc9c87",
"`N c #412419",
"`O c #a08d77",
"`P c #c7c963",
"`Q c #bcb5b9",
"`R c #707783",
"`S c #53ce81",
"`T c #444952",
"`U c #876348",
"`V c #471823",
"`W c #373635",
"`X c #d2c8a5",
"`Y c #abaab6",
"`Z c #b78a78",
"`0 c #465556",
"`1 c #bca57e",
"`2 c #775d68",
"`3 c #9f7b56",
"`4 c #54392a",
"`5 c #b58c24",
"`6 c #93614b",
"`7 c #d3b2ab",
"`8 c #7bd799",
".` c #917068",
".. c #decac1",
".# c #d8d6a0",
".a c #251918",
".b c #bda69c",
".c c #978b74",
".d c #5c8f6a",
".e c #343233",
".f c #814e3d",
".g c #6cd394",
".h c #7da9a7",
".i c #aa8830",
".j c #796857",
".k c #545458",
".l c #7d8564",
".m c #c9beaa",
".n c #c3c8d2",
".o c #3fc27a",
".p c #af7d68",
".q c #a8943a",
".r c #412532",
".s c #9c7a6b",
".t c #708790",
".u c #a89394",
".v c #2e2623",
".w c #d4d6cb",
".x c #82be82",
".y c #989d82",
".z c #eae6a2",
".A c #6cacb3",
".B c #391a1a",
".C c #ad8c79",
".D c #e1d6c1",
".E c #7adcaf",
".F c #926765",
".G c #5cc57c",
".H c #b29d4c",
".I c #847b41",
".J c #704f50",
".K c #aba6a8",
".L c #bfbabf",
".M c #53484c",
".N c #917a68",
".O c #6f6f73",
".P c #85a6aa",
".Q c #c7a79c",
".R c #938a8c",
".S c #c6d2da",
".T c #52383a",
".U c #5f5e5f",
".V c #643f43",
".W c #d0c8bc",
".X c #755651",
".Y c #beb652",
".Z c #442d24",
".0 c #342e2f",
".1 c #ad9475",
".2 c #44686c",
".3 c #87d9b9",
".4 c #604932",
".5 c #300f16",
".6 c #56cf8a",
".7 c #663d22",
".8 c #aebacb",
"#` c #a47669",
"#. c #7989a7",
"## c #ac8473",
"#a c #8e7b83",
"#b c #e6e2be",
"#c c #aa8464",
"#d c #855e57",
"#e c #48c177",
"#f c #90684f",
"#g c #7a4d38",
"#h c #999e93",
"#i c #666636",
"#j c #6d5d55",
"#k c #76e1c7",
"#l c #ccc2a0",
"#m c #3f4057",
"#n c #ebe4e3",
"#o c #cecad1",
"#p c #81c8d1",
"#q c #ccbfbe",
"#r c #96b692",
"#s c #72be8e",
"#t c #744131",
"#u c #759f86",
"#v c #625051",
"#w c #68dec5",
"#x c #a98c5f",
"#y c #817064",
"#z c #9fabad",
"#A c #1d1e2e",
"#B c #beaea4",
"#C c #b0a88d",
"#D c #342830",
"#E c #3c9652",
"#F c #858687",
"#G c #4a3c3c",
"#H c #bdac65",
"#I c #c1ae8d",
"#J c #9496ad",
"#K c #bfb969",
"#L c #5c5c30",
"#M c #fefefe",
"#N c #ae9d9a",
"#O c #6ec28e",
"#P c #7a7e40",
"#Q c #1a0c10",
"#R c #704f3a",
"#S c #785e51",
"#T c #526446",
"#U c #2e1c1b",
"#V c #bfc1d0",
"#W c #96823e",
"#X c #b4a06a",
"#Y c #eaeaaa",
"#Z c #dad6d8",
"#0 c #7ab5b9",
"#1 c #959494",
"#2 c #372520",
"#3 c #544042",
"#4 c #d5c0b8",
"#5 c #7c9287",
"#6 c #60474c",
"#7 c #c7a68e",
"#8 c #8a5756",
"a` c #b4b6b7",
"a. c #a26a55",
"a# c #615858",
"aa c #b99485",
"ab c #a77c69",
"ac c #7f707a",
"ad c #39a962",
"ae c #6e3f2d",
"af c #cbbe9e",
"ag c #eeeeed",
"ah c #d8dfe8",
"ai c #b29363",
"aj c #57422b",
"ak c #84514f",
"al c #453239",
"am c #928491",
"an c #9da1ad",
"ao c #b9a7b1",
"ap c #998564",
"aq c #c1c1c2",
"ar c #c8b5b0",
"as c #9c7984",
"at c #3a101d",
"au c #e2d6d9",
"av c #827661",
"aw c #8db9bc",
"ax c #87675e",
"ay c #a19683",
"az c #726770",
"aA c #9f7063",
"aB c #bb9c97",
"aC c #917a79",
"aD c #93cab5",
"aE c #824246",
"aF c #7bbfc4",
"aG c #c1a272",
"aH c #e1e3e8",
"aI c #8ce9cf",
"aJ c #3e3c3a",
"aK c #532d39",
"aL c #18151b",
"aM c #5c656a",
"aN c #3f547c",
"aO c #7be8cf",
"aP c #5fd7a5",
"aQ c #92594a",
"aR c #625238",
"aS c #996951",
"aT c #937b54",
"aU c #b78577",
"aV c #c9b685",
"aW c #abcad1",
"aX c #d0d5de",
"aY c #80787b",
"aZ c #a06a65",
"a0 c #ac9483",
"a1 c #45362d",
"a2 c #4cc878",
"a3 c #bba68d",
"a4 c #a57c81",
"a5 c #cbaea4",
"a6 c #633e31",
"a7 c #6cb8b9",
"a8 c #000000",
/* pixels */
"#M#M#M#M#M#M#M#M#M#M#M#M#M#M#M#M#M#M#M#M#M#M#M#M#M#M#M#M#M#M#M#M#M#M#M#M#M#M#M#M#M#M#M#M#M#M#M#M#M#M#M#M#M#M#M#M#M#M#M#M#M#M#M#M#M#M",
"#M#M#M#M#M#M#M#M#M#M#M#M#M#M#M#M#M#M#M#M#M#M#M#M#M#M#M#M#M#M#M#M#M#M#M#M#M#M#M#M#M#M#M#M#M#M#M#M#M#M#M#M#M#M#M#M#M#M#M#M#M#M#M#M#M#M",
"#M#M#M#M#M#M#M#M#M#M#M#M#M#M#M#M#M#M#M#M#M#M#M#M#M#M#M#M#M#M#M#M#M#M#M#M#M#M#M#M#M#M#M#M#M#M#M#M#M#M#M#M#M#M#M#M#M#M#M#M#M#M#M#M#M#M",
"#M#M#M#o#F#F#F#F#F#F#F#F#F#F#F#F#F#F#F#F#F#F#F#F#F#F#F#F#F#F#F#F#F#F#F#F#F#F#F#F#F#F#F#F#F#F#F#F#F#F#F#F#F#F#F#F#F#F#F#F#F#F.R#n#M#M",
"#M#M#M#F.e#Q.B#6.s.J.V#6#G.Z.J`l#3#2.Z#6#S#j#v#2a#a##j#j.4.O.R`RaMaM.laT.I.I`#aM.O.O.j.J#R.4#G#G.J.X.jal.Za6.T`E#U#3.V#6.J`NaLa`#M#M",
"#M#M#M#FaJ#D.X`C.b.C.`a4.VaK#8#8aK#Gala6aA.`#3#3.T#G#j.b`y.L.8#5.tanaf`u`h`u.O#J#.#5#a`O.`#S#3.T#8#`aZaK.J.J#d#aaC#d.`#`#dae`N.L#M#M",
"#M#M#M#F.kaz.J#va#axax.`aBao#d.X#B#oal.V.Faxar.Q#3#2av..af.L#z#.#.`yay#Xa3#X`y`Y#FaMaM#X`Maxa6.V.F`waC#N#n#B#qag#n.u`2as.F#d.Za`#M#M",
"#M#M#M#F.0aJa1`N`t`N.Z.T#aau.L`Qah#n`Y.C.C.s.b#4#6#U.saGaV.y.y#h#C.cap`I`I#I`I.b`y.layaGai#4.K`2#4.u.CaraH#qau`saHaoaK`V.f.J#2.L#M#M",
"#M#M#M#F.v#m.0#3.X.V.r.r.Mau#oaXah#Z#qa5.QaBa5#4#Nac.Q`h.4`Day`I#Cap`y#l.m.m`y.ca0`D.4`4apauauao#n#o#oaHaH.L#oaH#ZaKat`Vatat#Q`Q#M#M",
"#M#M#M#F.jacal#6`2.V.ra#.L#oaX`Y.R.Lar`7`7.Qa5#7a5#4#i#R#H....afaf#C`y.L.D.D.D`I#Iay`DaRajar#q#B..`s`saH..ao.L.n`Yatat`V`V.V`Ea`#M#M",
"#M#M#M#F#a#BaJ.T`2`2.u#N.n.n.S.n#V`Y#Ba0a5.Q.Q`ya5#Iajap`I.l`Dapa0`ya0a3#C`y`O.1`Ma3ap.jaj.Raoao#Bahahah#q.Qao`QaYat.5`V`n.V.B.L#M#M",
"#M#M#M#F.`ar.M.0#N#qaX`Y#V.n.n.n#V.K#BaB##.baa#f.m`OaR`w#R`n#8ab`Z`M.1.C#c#c`3`U`x.1`y#S`4#S#CaoaB`Qau..ao.u#J`Yam.5.5.B`V`V`Ea`#M#M",
"#M#M#M#F#yara##A#J#oaH#Z#V#V#o.n#V#Jaa.Qaaar.Q`Car.NaR#S`4#faa.b.Q#7#7aa.C.1###f#g#f#X.``4.4`y`ya0`w`Ca4asas#JanaY.5.5atat`V`E`Q#M#M",
"#M#M#M#F.X#7#v#Aazao`Yau#V#V#V#V.L.Rac`C.`aa`O`y#B.NaR.4#R.1.b#7.Q.QaB`M`Maaaa`Z.F#gapaT#R`4ap.C`waCaxazaz#.#J#.`2.5.5atatat#Qa`#M#M",
"#M#M#M#F.Xa0#6#A#D#V#V#Z.S.8.8.8.8.R.J.F`2`2.J.N`yaT.4`t`Ua0`MaGaB`MaaaaaaaaaaaU.s.f`hap.4aj`D.s#a.Rar.Lan#Faza##matatat`V`V#Q.L#M#M",
"#M#M#M#Faza4.T#A#A`QaXaX.S`Y.8.8`Yac#6#6.`.u`C#N`M.laj.Z.X`Zaa`ZaU##aU##.C####.p#``r`U`h.4`l#y.C.LaXaX#V.8am#val#DatataK.r`E`Ea`#M#M",
"#M#M#M#Fa##y#U`W.kac#V#o.S`Yan.8`Y#J#3al#m#m#m#Nay`w`r`t#g.C.C.Cabab#cab##abababaAak`U`haj#R#S`O#V.nan.ka##valal.0#m#6#a#3.M.v.L#M#M",
"#M#M#M#F#v.M#U#A#Q#Qazaz#6#3#m`R`Y.R`T.OaNaN.U#C`O.N#ya6#g##########abababab##ab`K#dax`ha6#S#S`OahaH.k.ral.r#Da##3#o#n#o#o.S.Oa`#M#M",
"#M#M#M#F#v#U#Q#A.r.M`2ahamasat#D`G#M`G#MaH#J.Pao`CaTay#R#g#c##aA.`aAab#`#`aA.s.``U.XaxaT.4`r#S`O`Q#Va##A#D#U#ma##6aH#V`Y`Y`Y.Ua`#M#M",
"#M#M#M#F.M`i#D`W#D.0al#n#a#d.T#3#q.naq.nahaJaY`yap.ca3.X`r.F`r#6`t`l#faS`Kax`l.Z.Z.7`hav#R#R`Uap.Kac`W#U#U#A#m#6#Dag`s`s`s`s`Ra`#M#M",
"#M#M#M#FaL#A.aaL````#D#na4aA`2ar`s.waX.SahaJ.la3ap.1#I#R#g#8`n.B#2.Z#g`6aS#g`t.B`N.T`O.NaR#S`h`C#y.M#A#UaL.Bal.J#DaH#Va`#za`.Ua`#M#M",
"#M#M#M#FaL``````aL.aan#o.uaB.s#K`j#baH`sah.M#aa3apay`I#va6#f`U.V.Tae#d.sab#d`l`4a6`xa0apaRax`h`Oax.Z.r#U.r.e.r#G#G`sa`a`.8.8aM.L#M#M",
"#M#M#M#F``````aL``av`X#H.1#x#X#l`j.z.#aX.waJ.c#Bap#X`IaR`N.F.pab#`aA.p`Z`Z.s#`#`.`.sa3.NaR.NaTa0#y.Z#U#D#2#D#U#U.M#q`G`Gag`saYa`#M#M",
"#M#M#MaY````````aL#C`y#X`u#H#H#H#H`j.#.S.w`T#N#Iaya3afaR`E#d.paU####aUaa`Za4ab.pab.C`IapaR`CaT`y#yal.a`E.a#U.T.v.T.M#J`Y#z#z.ka`#M#M",
"#M#M#M#F````aL#Q.aa3`O.q`o`o`o`m#XaV#b#n#oa##B`I`y#I`I#S.a`la..pa.aQabaB`MaUakaQaSaa`I`O#japap#Nav#3a1.ral.Z.J#D.B#3aYa`.L#VaM.L#M#M",
"#M#M#M#..e#A#D#2aR`wap`m`o`o#H.H`m.u#N.w#o#Faq`Ia3#I#I`D.B`t.faQ.f.faZaUaU#`#d`l`laa#I`y#y`Oap`y`C#3.r`t.V`4aj.T#3`4.k`sah.w`Ra`#M#M",
"#M#M#M#F`i#A#6.F#`.s.s.H#H`v`o`v`maT.u.n.w#C.W`I#I#I#I#y.Z.B#g#t`naEaQ.fakakakae#t`Ma3`yap`O`O#C#a#j`N.Z`N`N.Z#2#2.B.M#z#z#z.ka`#M#M",
"#M#M#M#.#A#A#G.`.N.s`h.Y`o`P`v#H.q`M.C..ahaq.W.m#I`1#IaTaj`E`nak.f#takaZaAakae`l.Xa0ay.1`O.1ay#C#a#S.Z.i`5`h`4#U.a.v.e`Y.n.S.O.L#M#M",
"#M#M#M#F``aM.0#fa4aa.s#S#W`v`P.Y#i`h.Cao`s.n`X`I#I#X`1#x#R.B.5#t`x`xaQak#8akakak`t`w.c.cap.1`y#Cavaz.Z.H.H.i.5.aaL.v.0#o.S.Saza`#M#M",
"#M#M#M#FaLah.M#d.FaA.j#S`i`W`A.a#R#d.`#Iah#oaq`Ia3ai.cai`r`N.5`N#gakaQ.faE.f`x.4.5avavap`Oap`y#Iav#i.Z`5`5`r#U`E.a#2a#aq.n.n.Oa`#M#M",
"#M#M#M#F.k`s.O.J#d`xax#ja1aLaLaL.J.FaCarah`X#l#l#Xai`3#x`h`t.5.B`n.f`6aS`6`6`x`N`E.Nav.CaT`3`y`I#Nay#S#x.i`U#2.a.B#2`Q#ZahaX`Ra`#M#M",
"#M#M#M#F#5`saY#v`w#S.jaR.e````.a.Jax.`.##Z.W#l#4`yai`h`3#c.7.B`N`N`n#g#8aQ.f`t.B`EaC.N`O`UaT`yaf`Xafa5#7#7#7`M.s.MaYaX.Saq.8aM.L#M#M",
"#M#M#M.KaJaJ`W`WaJ`W.e.e.e.e.e.e`W`W`WaJaJaJaJaJ`WaJ`W`W`W.e.0.0.0.e`W`W`W`W`W.e.eaJ`WaJ`W`WaJaJaJa1aJ`WaJaJaJaJaJaJaJaJ#maJaJ.w#M#M",
"#M#M#M#M#M#M#M#M#M#M#M#M#M#M#M#M#M#M#M#M#M#M#M#M#M#M#M#M#M#M#M#M#M#M#M#M#M#M#M#M#M#M#M#M#M#M#M#M#M#M#M#M#M#M#M#M#M#M#M#M#M#M#M#M#M#M",
"#M#M#M#M#M#M#M#M#M#M#M#M#M#M#M#M#M#M#M#M#M#M#M#M#M#M#M#M#M#M#M#M#M#M#M#M#M#M#M#M#M#M#M#M#M#M#M#M#M#M#M#M#M#M#M#M#M#M#M#M#M#M#M#M#M#M",
"#M#M#M`G`G`G`G`Gagag`G`Gag`Gag`G`Gag`G`Gag`Gag`Gag`G`G`G`Gag`G`Gag`Gag`Gagag`G`Gag`Gagag`Gagagag`Gag`Gagagag`G`G`G`G`G`G`Gagag#M#M#M",
"#M#M#M.RaL.a.e.e.a`i.0.v#U`i`i.0.v.0`A`AaJ`A#G`A`i.v.a#Q.a#U.a#U#U#U.a#U.a#U#U.v#U#2#U.a#U.va1aJ`Aa1a1#2#2#U#U#U#U#2#2#2.Zal#Aaq#M#M",
"#M#M#M#F.j.C.m#Ba3.Q.Q`M#7.b#7ai`Zaa`7aVaV#l`X#X#W`h`l.7.f`x`6`6aSaSaS`6aS`6`K`K`Kab#f#g#R.j#I`7#l#I#7`3`6aQ.f.f`6aS`Kabaiaa.Xa`#M#M",
"#M#M#M#F#N..au...............Qab`K`3af#IaVaVaiap`3aT`r`x`U`6aSaSaAa.`Ka.a.aSaAaAaAab#``h#d`UaGaVaV`1.C#c#g#gae#t.f`6aS`K.p#c#Ra`#M#M",
"#M#M#M#F#G#j.u#q.m.Laq.m`Q.L`y`3`K`KaGa5aVaG`h`h`3`3`r#d`6aSaZaZ`KaA`Ka.`K#`aA#``3`3ab#``h`U#xafaG`1#x#f`l`t`naeaE.f`x`6aS`Kaja`#M#M",
"#M#M#M#F#U.Z.vaY`Y#z#z`B`B`Bay.saS#f#xaGaVai`h`h.i`3#d`K`KaAaAaAaA`KaAaAaA#`#`ababab#c#c#`#faT`1#7#X`3`r`n.B`t`t.7#t#g.f`x`6`4a`#M#M",
"#M#M#M#F.RaraB.O.naWaWaWaWaW`O`K#f#f#`aGaG.i`DaTai`3aS#`#`.p.p.pabab.p#c.pababab###c#####c`hai`M.1.i`K`l`t.B`V`N`t.7ae#g#g.fa1.L#M#M",
"#M#M#M#F`w.m.Q#a`Bawawaw.Paw`waS`6`K#caG`M#c`h`3aG`3`K.pab#c#c##.p####.pab#c.p#c.p######.pabaiaiai#c`h`l#2#U.a.B`N`t.7.7`l#g.Za`#M#M",
"#M#M#M#F#U.`.r`R.8.haw.P.Paw.l`6a.`K`KaGai`3#W#x#x`3#`.p.p.p.p##aU#############cabab.p#cabab`3`Z#x#W`6`l.0`#`0.e#2.Z`n.7`l`l`N.L#M#M",
"#M#M#M#F#6.C.Fanaw.PaN.R#Ja#ax`6`6`6aS.Haa`K`hai#x#c`3.p.p.p.p#c##aU#c##ab######.p`3ab#c#c#c`3.i`3`h#faj#T.A.A#u`0.Z`4.7`l`l`Na`#M#M",
"#M#M#M#F.XaAa4.R.h.2#D`V.5.a#d`6`6aQ`x`5ai`3`3`3.p.p.p.p.p.p.p.p.pab`C#c`C`3.p#`.p.p#c#c#c#c#c`3`U`xaS#L.P.Aa7a7aF.d`#`A.7`l.Z.L#M#M",
"#M#M#M#F.X.F#a#J.h`W.aal.VaK`6`6`6`xaQ.pai.i#c`3`3aU`Zai`ZaU#c#c#cab.sab#cap`3`3#c#x`O`O.y`p.l#i#i#R`h`R.A.A#0.A.Aa7#0#5#T#G#2a`#M#M",
"#M#M#M#F.J#da4#h#V#3#6#3.j#taSaS`6`x`6aiaa.iaiaS`3aU`Zai.1.1.1ay.c.c.I.l.l.l#5.P#r.x`F`d`F`c`f`c`a#P`D#u.A.Aa7a7a7a7aFaFaw#5aJa`#M#M",
"#M#M#M#F`2.C.C.uara4ac.B.`a6aSaS`x`x`3#c`5#c`3aT#W`p`q#r`d`d`d`f`d`f`d`f.3.3.E.E.E.E#kaOaOaIaIaI`c#5.d`a#0.P#uan#0aFa7aF#p`f.2.L#M#M",
"#M#M#M#F`2.`.u.u`7aBaUa4#``KaSa.`6.faU`3#c`m#P`q`f.3aO`z.E.E#k`z`z`z`z`z`z`zaO`zaOaOaOaOaOaOaIaI.3`a`a#s.taK`Vas#FaFaFa7aF#p.2a`#M#M",
"#M#M#M#F.`aBa5an#4.Qa4.paEa.aSa.`K`6aTai#x.c`a`caIaIaIaO#k`z#k`z`z`z`z`z`zaO#k`z`zaOaOaOaOaOaIaO.E.3`8#O#5aS`VaE#3aw#p#paFaF.2.L#M#M",
"#M#M#M#Famar#qar`7aaaZ#`a.a.aS`KaQ#g`l#S`m`q.xaIaIaIaOaO`z#w`z`z`z`z`z`z`z`z`z`z`z`z`z#kaO#k#kaO.E`8.g#O#z.JakaUas.t#paFaF#p.2a`#M#M",
"#M#M#M#F`2#4..araB###`akaQa.a.`K`x`l`4`N`#`a`caIaIaI#k`z#w#w`z#w`z#w#w#w`z`z`z`z#w`z`z`z`z`z#k#k.EaP.g#O.P.`aA.F.V#JaFaFaFaF.2.L#M#M",
"#M#M#M#FaC....`7.ba4aAa.a.`K`KaSaQae`t#2`#`F`8.EaOaO`z#w#waPaP#waP#waPaPaPaPaPaP.6.6.6.6aPaPaPaP.6.6.g#O.l`2.Fas#8#a#0aFaF#p.2a`#M#M",
"#M#M#M#F.N#4.W`7.QaaaUaAaZa.aSaS`x.7`t#2`H`f`8`8`8.EaP.6`S`S.6.6`S`S`Sa2`S`Sa2`S.6`S`S`S.Ga2`Sa2.G`S.G`L.laBaa.u.QamaW#paF#p#Ta`#M#M",
"#M#M#M#Fax#4#4ar#7aBaaaa`Z`KaS`6#g.7.Z`N.c`F`8.g.g.6.6`Sa2a2a2a2a2a2a2a2.oa2a2a2a2a2a2.oa2a2#ea2#e#e#e`L#5ar#4a4###1awaFaFaWaM`Q#M#M",
"#M#M#M#F#a..#4#N.C.Q.QaaaUaSa.`6#t.7.Z`t#H`B`c`S`S.G#e.o.o.oa2.oa2.oa2a2.oa2.o.o.o.oa2.o.o.o#e#e`.#e`.a7#z....aa.F#JawaFaw.8.Oa`#M#M",
"#M#M#M#F`O...WaBaAaa`Maa.pa.`6aQ#g`n`t.j#I#K.x.Ga2.G#e.o.o.o.o.o.o.o.o.o.o.o.o.o.o.o.o.o.o#e`.`.`.`.`g`q`Y#qa4ax.Tac#N.K#z.naz.L#M#M",
"#M#M#M#F`C.....b#6#`aaaa.paS`6.f#t`n`t`M#B#l.x.G#e#e#e`..o.o.o.o.o.o.o.o.o.o`..o`.`.`.ad`.`.ad`.`g`g#5#h#qaB#6a6a6.Fa4aa.W.w.Ua`#M#M",
"#M#M#M#F`w#o...b.V`2aA.p.iaS`x.f#t`n`ta5.m.Y#r`a`.`.`.`.`.`.ad`.adadadadadadadadad`e`e`ead`e`g`g`J#T#yaa#7.``n`l#daZaU#q.D..#j.L#M#M",
"#M#M#M#FaC#4.WaB.Va6.Xab.paS#t#g#t`n`n#7#Ba0#l#u`g`g`g`.adad`e`e`e`e`e`e`e#E#E`J#E`b`J`b`b`b`b`H`Taja4`Z.C.F.FaAaZas.Q#4#q`7#Ga`#M#M",
"#M#M#M#F.`arar.u.4#3.J`Z.i`6#g#t#t`n`nararap#X`P#i`b`J`J#E`b`b`b`H`H`H`0`0`#`#.M#3`Aa1.0#2#2.Z`taj#6`C`Cav`2ax.FaZaB.W#4ar#y`i.L#M#M",
"#M#M#M#Fax#7a5araB#Sax`Zab`6`l#gae.7#R`7ar`C`r`O#Sae.7`A`A.e.e`Aaj.4#R#g#g#g`l#g#g#g`l.7aj`4`n.7.7.4..auauau....#4#q`7#4#4`O.Ma`#M#M",
"#M#M#M#Fa#aa.b.m#q#B.1#c`3`K`r#R`l`n.N.W.L#N#Bay`O`l`lae.7.7.7`l#g#g#g#g#g#g#g#g#g`l#tae.7.7a6a6#t`l#q.....W#o#o.W#q#q.L.L.c`Wa`#M#M",
"#M#M#Mam.Ma#a#.U.U.U.Maj`4`t`N#2#2.a.M.U.Ua#.U.Ua#.v#2`N.B.B.B`N`N`N.B#2`N#2#2#2`N#2.B.B.B#U.B#U#U#2.M.k.k.ka#.ka#a#.U.U#T.U`W.L#M#M",
"#M#M#M`saq.naqaqaqaqaqaqaq.n#laqaqaq.Waqaq.naq.n.naq#laq.naqaqaqaqaq.n#laq.n#laqaqaq.naq.naqaq.n.naqaq.naqaqaq.naq.n.naqaqaq.n`G#M#M",
"#M#M#M#M#M#M#M#M#M#M#M#M#M#M#M#M#M#M#M#M#M#M#M#M#M#M#M#M#M#M#M#M#M#M#M#M#M#M#M#M#M#M#M#M#M#M#M#M#M#M#M#M#M#M#M#M#M#M#M#M#M#M#M#M#M#M",
"#M#M#M#C#1#1#1#1#1#1#1#1#1#1#1#1#1#1#1#1#1#1#1#1#1#1#1#1#1#1#1#1#1#1#1#1#1#1#1#1#1#1#1#1#1#1#1#1#1#1#1#1#1#1#1#1#1#1#1#1#1#1`Y#M#M#M",
"#M#M#M`i.T#3#2`4`l.V.Z#UalaR.JaRala1a#.k#ja#aj.O`RaM#TaM.I`D.I#L`#aMaMazaR#v.4#G`A#G`l.J#S#U`t.T`t#Q.Za1.T#6`4.B`Nal.Z#6al`4`i#M#M#M",
"#M#M#M.0#`.saK.V#d`x#D#G.T.V.saC.Z#3a1#G.Naya3aq.8#.#.#zaV.q#W`p`R#J#.#5.R`3#`#R.Ta6.F#`aA.a#j.J`2#a`2axasaZ#dae#t#d.`.`.X#d.v#M#M#M",
"#M#M#M.0.`as.u.u#8`2#q#h.T.J`U#y#4aB`N#2#N..`Ia`.P.t#5#Cay`1aa.H`y#z`RaMaz`1`M#6.V.Jax`wa4.QauaB#oagauac.`as#d#dak#g.`as#3#3.v#M#M#M",
"#M#M#M`i.Z.Vaoauao#VauaHam.Ca4.sa5#4#U#2ai#7#Kay#h#h#C.I`Oaf`I`I.ba3ay.l.1#X.1..amaxar`C.u#oau#o#n`s#namaKaK#8ak`naK#j`T.0#3`i#M#M#M",
"#M#M#M`i.r#Dac#Z#oahah#o#4`7aB.ba5#4aC#a`1#faR`h`y#Ia3.Na3#l.maf.y.1.c.j.4.4.Hau#oarag#q#o#n#oaraXaH`Q.rat`Vat.Batatalaz.U`T`i#M#M#M",
"#M#M#M`i.raz#V#oaX#Jan.Lara5`7.Q`7.Qar.m.4#S#I...W#l`I`y#B#l.D.D..#I#Iap.jaj`2..`Q`Qau`s`s`s#o#B#q#o#aatat`V`V`n`V`V.B.U.U#j.v#M#M#M",
"#M#M#M.eaoan#o#o.S#V.L`Ya5aaa5aB`7.1a5`yaj.H`I.N.N.1`y`yaya3a3`y`O.1`Ma3av.jajao.K.b#qahahaXar#Bao.L#6atat`V.V.VaKatat#3#m.k#D#M#M#M",
"#M#M#M`W#oan.n.n.S.n#V.Ka5a0.C.Q.C.safaYaR`waja6#daba0`Maa.C`O#c`3`U#faG`OaRa1`waB#Bao#qau#4ao.uan`Y`2.5.5`V`V`V`Vat.5#3aNa#.v#M#M#M",
"#M#M#MaJauaX#V#V#o#V.L.RaB.QaBa5.b.C#I#y#j`r.7.NaaaB#7#7`Maa`Z.C.s`U`l`h`Max`N#S`ya3.u`C`O`Casac`Y#Jaz.5`Eat`V`V`Vatat.T.kaM.v#M#M#M",
"#M#M#M.0#o#Z#V#V#V#V.8#aas`Ca4aaa0#Na3`DaR`4`Uaa.Q.Q#7.b#7`M`Maaaa##aQ`rai`DaR.4#x`Cam.``2`2ac#.#J`R#6.5.5atat`Vatat.5al`TaM.v#M#M#M",
"#M#M#M`W.n#Z.n.8.8#Va`ac.Xax`2.X.X`O`y.jaR.Z`h`M`1`M`Maa`Zaaaaaa`Z`ZaA`l#cax.4ajap.N#a.uar`Yan`Rac.kalatatat`Vat`Vatat.5`i#D`i#M#M#M",
"#M#M#M`WaXaX.n`Y.8.8anaz.T.J#a.u`w#C.1.j.4.Z.`.C`Zaa.CaU.C.C.C.C##abaA#gaT`U.4.4.s.u#VaXaX#V.8ac#6#D.ratataK.Bat.r.5.B#U.Z.M.v#M#M#M",
"#M#M#M`W#oaX.n`Y`Y.8an.Ral#m#m#m#v.K.1.j.X`t#f`Z.C##abab#cab##ababab`K#g`h#Sa6#R`D#N#V.S#F.k`2#6al#mal.r.Jac.T#m`2ac.r#6#va#`i#M#M#M",
"#M#M#M#D#aa##6#m`T#Janac.MaMaN`T`R#C`C#i`h`n#d.C##ab##.p.sababab##.s.``x`h#SaR`r#f#Nah#o#malal#D#D.k.k#Z#n.L#V.n.Lau`sag.u.a#A#M#M#M",
"#M#M#M.0`Rauas`2.5.U#M`G`G`G.S#J#z.b.C.ja0.4`x.C.CaAaA#`ab#``3aA#`axax`r.N#daR#R`D.uaq.L.0#U.r#D.Ma#azaHa``Qa`a`.8`Y.8.8aYaL`i#M#M#M",
"#M#M#M#AazauacakaK.Uaq.n#VaXa``W#1a0`O.Na3.4`xaS`r.V`4.XaSaSa.ax.V`t`t`l`3#S#S`r`Uay.Kaz#D.v#A#A#m#6a#`G`G`saHaHaH`sag`saqa1`i#M#M#M",
"#M#M#M`iaM#oas.F`2.D#nah#ZaH`B#m`O`y`O`Oa3aj`x`x.Z.B`N`4`x#f`6`l`N.B`N.4ay#S`r#S`h`O.j#G.a#U`E.r.T.J.kaHa`#z#z`Y#z#z#z#VaX.U.v#M#M#M",
"#M#M#M#D`I.m.uaa`h.#`j#baH`sa`.M#h#X.1`ya3.T`l.F`x`t.T.V`6abab.Xa6.Ta6ax`y`D#Sax.N.Ca#.r#D#U#D#Dal#3a#aHa`.8#V#V.8a`a`a`aH#1.v#M#M#M",
"#M#M#MaJaf#X.1.1`1`P`j#Y.n.w`Y#G#Ca3ap#Ca3`4`4aA.p#`aAaA.p`Z`Z#`#`aAaS##`y.j#SaTaTa0`2#2#U#U#D.r#U#2a#au`G`saH`s`s`s`G`G`s`saJ#M#M#M",
"#M#M#M`W`y`u`u#H#X#I#K`k.#.w`Y`#ao#I`O#I#C`4.B.F.paU####`Z`ZaU.s.p##.s`M#Iav.j.NaT`yaz.r#U.a#U.a#G.v#3a#.Ka`#zan#z#z#z.SaX`saJ#M#M#M",
"#M#M#M.e#x.H`o`o.Yai#X`X`sagan.O`I#I`yaV#C.4.a`xaA.pa.`6`Z#7aaa4.f`6aSa3#IapaxaTap`yaza1.Z.r.ZaK#v#2.r.M#h#V.n.n.n#V.naX.SahaJ#M#M#M",
"#M#M#M.0ap.q`o`o`u.q#x.1.K#b.K#h.W#I`1`I`1#j.5`laQaQaEak#``Z`ZaAak#t#g#7#Iay.Nap`O`y#y.TaK.Z`l`4#3#G.T.TaY.waX.S.Sah.nahah.SaJ#M#M#M",
"#M#M#M.v.1`u`o`v`o`o#W.s#N#Za``Q.W#B#I#I`1#S#U`t#g`n`nakaQak#8.Xak.7aka3`y`y.cap`y`y#a#3.B`N`N`N`N.Z#2#Daz#z.K#z#z#z.SahaX.n`W#M#M#M",
"#M#M#M.v.c#H`o`P`o`u.qaa#Nau.waq`X`I`1#I`1`D`t.5#t`xaE#t#8aZ.F.fae`l#SaB.c`y`O.c#CayaYaRaj.q.i`h#2.a.a#2#m.SaXaXaX.SaHaHahaX`W#M#M#M",
"#M#M#M.0`h#S`u`P`P`u`D.sa0#qah.W.W`I`1#X`1aT`4`E`V.f`x`xaQaQ#8ak`x#g`4a0.N`y#x`Oa3`y.OaR.4.H`5aS.B.aaL.v`#.n#Vaq.n.n`s`sahaW.e#M#M#M",
"#M#M#M.0`U#jaL`#`W.v#R.Fas#o.w.n.m`I`y.1#x#x#R.B.5`t.f`xakaEaE.f.Xa6`E`O`D`Oap`O`ya3.jaR.4`5`5.7.a#Q.v#2#a.n.n.S.n.S`s`sah.t`i#M#M#M",
"#M#M#M.v#S#S`iaL``#D.J.F.N.W.w.W#l#lai#xaT#x`U`N.B`V.7aQaS`6`6`6#R.B.a.u#y`CaT#x`y.may`w`rai.i.4#U`E#2al#ZahahaHaHah`s`s#JaN`i#M#M#M",
"#M#M#M.0.jaR#UaLaL.v`rax`w#b.w.Wafaf.1#x`h#x`h.Z.5`N`t`nak`6aQ#g`t.B.BayaTap#f`3`1#l#4afa5#7#7#7a0axal#h.S.n.8.8.8.Sah.SaNaN`i#M#M#M",
"#M#M#M`T#D`i#A`i#A`i.0.e.eaJaJ`WaJaJ.e.e.0.e.0.v`i`i`i.v`i#D.v.v`i`i`i.e.0.0.0.e`W`Wa1`W.e.e.e`W`W`W.0aJaJ`W`WaJ`WaJ#m`W`i`i`T#M#M#M",
"#M#M#M#M#M#M#M#M#M#M#M#M#M#M#M#M#M#M#M#M#M#M#M#M#M#M#M#M#M#M#M#M#M#M#M#M#M#M#M#M#M#M#M#M#M#M#M#M#M#M#M#M#M#M#M#M#M#M#M#M#M#M#M#M#M#M",
"#M#M#M#M#M#M#M#M#M#M#M#M#M#M#M#M#M#M#M#M#M#M#M#M#M#M#M#M#M#M#M#M#M#M#M#M#M#M#M#M#M#M#M#M#M#M#M#M#M#M#M#M#M#M#M#M#M#M#M#M#M#M#M#M#M#M",
"#M#M#M#M#M#M#M#M#M#M#M#M#M#M#M#M#M#M#M#M#M#M#M#M#M#M#M#M#M#M#M#M#M#M#M#M#M#M#M#M#M#M#M#M#M#M#M#M#M#M#M#M#M#M#M#M#M#M#M#M#M#M#M#M#M#M"
};
