/* XPM */
static char *_3_frame_3[] = {
/* width height num_colors chars_per_pixel */
"    66   100      256            2",
/* colors */
"`` c #131015",
"`. c #4a8349",
"`# c #6ee4cb",
"`a c #3f3c32",
"`b c #708658",
"`c c #72c17e",
"`d c #7ae6cd",
"`e c #4f5b30",
"`f c #7fae72",
"`g c #85e9d1",
"`h c #86c695",
"`i c #785841",
"`j c #9e8944",
"`k c #79644a",
"`l c #90e8d4",
"`m c #c5bd42",
"`n c #afa03c",
"`o c #242424",
"`p c #593f29",
"`q c #bbb241",
"`r c #93624e",
"`s c #39a059",
"`t c #93c59f",
"`u c #e4e294",
"`v c #c9baa3",
"`w c #58281e",
"`x c #8ab1b4",
"`y c #edeeee",
"`z c #99857d",
"`A c #e6dca6",
"`B c #937751",
"`C c #bbb157",
"`D c #3abb76",
"`E c #764133",
"`F c #a5887b",
"`G c #310f16",
"`H c #c6babb",
"`I c #3d261d",
"`J c #c0ae97",
"`K c #3e7238",
"`L c #a79e8b",
"`M c #cec8be",
"`N c #eaf2f5",
"`O c #a7907a",
"`P c #b0a08a",
"`Q c #92a66a",
"`R c #857b5a",
"`S c #9f784f",
"`T c #615341",
"`U c #6d3f2e",
"`V c #54ce81",
"`W c #be9a22",
"`X c #70debb",
"`Y c #cbaaa0",
"`Z c #808385",
"`0 c #5a5658",
"`1 c #4a1a26",
"`2 c #bb8e84",
"`3 c #dfccc4",
"`4 c #443120",
"`5 c #786766",
"`6 c #7f9e87",
"`7 c #b8aaab",
"`8 c #96eaca",
".` c #624e3a",
".. c #6fce93",
".# c #905b49",
".a c #2f1918",
".b c #b68e1e",
".c c #343334",
".d c #58464c",
".e c #c3a084",
".f c #a07261",
".g c #869893",
".h c #9ec1c8",
".i c #636162",
".j c #3c4668",
".k c #9c8d74",
".l c #78706a",
".m c #e6e29a",
".n c #96ba92",
".o c #86dcb1",
".p c #a698a2",
".q c #795454",
".r c #92766d",
".s c #77dab0",
".t c #54c67d",
".u c #9f7665",
".v c #aa854f",
".w c #d1d6df",
".x c #ba9232",
".y c #946b66",
".z c #6f482f",
".A c #4c3b21",
".B c #c6b1ae",
".C c #9a8d7e",
".D c #614a37",
".E c #aa7c67",
".F c #556f3a",
".G c #9dae8f",
".H c #79c0c6",
".I c #b4917f",
".J c #40191d",
".K c #c6c9d2",
".L c #d7ceae",
".M c #87c2c9",
".N c #b5a4a3",
".O c #45c679",
".P c #7cb282",
".Q c #e6e2a6",
".R c #332e2d",
".S c #8e9297",
".T c #241c1d",
".U c #4e3328",
".V c #966949",
".W c #9ac292",
".X c #b4b5b8",
".Y c #427a42",
".Z c #e2ddb7",
".0 c #495361",
".1 c #663d2d",
".2 c #62aa88",
".3 c #6b565a",
".4 c #835435",
".5 c #9e8354",
".6 c #d3ced4",
".7 c #54cf8a",
".8 c #4e281f",
"#` c #9c9e6e",
"#. c #312220",
"## c #ab8e66",
"#a c #aa9880",
"#b c #adceb8",
"#c c #9f6c58",
"#d c #887a67",
"#e c #7f7380",
"#f c #ae8274",
"#g c #6a352a",
"#h c #beb464",
"#i c #b6963a",
"#j c #e2e2b2",
"#k c #1f0610",
"#l c #d9e2e9",
"#m c #449556",
"#n c #a4a097",
"#o c #82899d",
"#p c #3e3335",
"#q c #5a3e3a",
"#r c #f1f2f1",
"#s c #c2b3ab",
"#t c #69687d",
"#u c #89d0aa",
"#v c #c2c252",
"#w c #b7bdaa",
"#x c #3a1a1d",
"#y c #7a4b37",
"#z c #b9a381",
"#A c #3d111f",
"#B c #4b4b45",
"#C c #d5bfbb",
"#D c #8eb6bf",
"#E c #466636",
"#F c #857163",
"#G c #593326",
"#H c #d9dce3",
"#I c #ab8469",
"#J c #855e46",
"#K c #9b8d8f",
"#L c #4a271e",
"#M c #76d6a2",
"#N c #9e7a7e",
"#O c #8a5a55",
"#P c #cacfd7",
"#Q c #928685",
"#R c #70635d",
"#S c #cec1a7",
"#T c #52aa65",
"#U c #819a66",
"#V c #dbd3df",
"#W c #6bb2b7",
"#X c #7db1af",
"#Y c #b7a16d",
"#Z c #70521e",
"#0 c #3d3d3f",
"#1 c #80723e",
"#2 c #4a3332",
"#3 c #d5d283",
"#4 c #b29867",
"#5 c #a6acb3",
"#6 c #826660",
"#7 c #3e282d",
"#8 c #6e7373",
"a` c #5a906a",
"a. c #4d3e3d",
"a# c #3cad66",
"aa c #e2e6eb",
"ab c #b5bcc6",
"ac c #937e6b",
"ad c #6e4b41",
"ae c #c1c1d2",
"af c #8e9ebc",
"ag c #81a4a2",
"ah c #966a58",
"ai c #e0d6cb",
"aj c #baa392",
"ak c #b49a80",
"al c #8a8661",
"am c #201315",
"an c #fefefe",
"ao c #5d4e51",
"ap c #2f2828",
"aq c #7f4c48",
"ar c #bbac85",
"as c #c5b69a",
"at c #4a6466",
"au c #bdb3b6",
"av c #cdb3a8",
"aw c #856749",
"ax c #593540",
"ay c #aa928f",
"az c #5e4639",
"aA c #f0e9ef",
"aB c #ac7c78",
"aC c #a18f6a",
"aD c #cdc080",
"aE c #6e5541",
"aF c #a7b3bc",
"aG c #b3856a",
"aH c #835644",
"aI c #c6ae87",
"aJ c #c5a396",
"aK c #6d5e44",
"aL c #a2a3ae",
"aM c #a99892",
"aN c #c3c1c1",
"aO c #7d5c57",
"aP c #6cd486",
"aQ c #b08878",
"aR c #9e8568",
"aS c #a07d66",
"aT c #b19264",
"aU c #63464a",
"aV c #94c4c9",
"aW c #e3dcde",
"aX c #bd9789",
"aY c #5fd7a6",
"aZ c #a06c66",
"a0 c #adc7ce",
"a1 c #6a7c98",
"a2 c #46281a",
"a3 c #2f1e1b",
"a4 c #45bb73",
"a5 c #878686",
"a6 c #817d81",
"a7 c #979597",
"a8 c #000000",
/* pixels */
"anananananananananananananananananananananananananananananananananananananananananananananananananananananananananananananananananan",
"anananananananananananananananananananananananananananananananananananananananananananananananananananananananananananananananananan",
"anananananananananananananananananananananananananananananananananananananananananananananananananananananananananananananananananan",
"ananan.6a5a5a5a5a5a5a5a5a5a5a5a5a5a5a5a5a5a5a5a5a5a5a5a5a5a5a5a5a5a5a5a5a5a5a5a5a5a5a5a5a5a5a5a5a5a5a5a5a5a5a5a5a5a5a5a5a5a5a5aaanan",
"ananan`Z`4.r#6#q.d.d.aadadaU`I#.#qaO`i.3.T`0.3`0#R.`aK#oa1.i#t#8`j#1al#B.i#8#8.l`T.q.D.Aa..d.qaO`T#.#q#q.aam#qa.#q.qa2`I#2ax.aabanan",
"ananana5.3akaX.yaB.q#2aH#OaUa.#p#qaO.r#R#q.Ua..d`7`O`Habaga1.gas`C`B`n`R#o#o#oa6`O.y.y.d#2aq.u.y.q#qad.q.rac#6.r#N#O.z`Eaqaw.d.Xanan",
"ananan`Za.`0#R.y.yay`7.yaq#QaWao#q`r#6ak.BaO#7.D#C.L#w.X.ga1#n#`#a#z#Y`P#5.S#t.i.k#YaQ#2`U#O`z.yayaW`HauaWaA.BaO#N.y`r.qaq.qazabanan",
"ananana5`G.U#L`Iax.3`3.Kau#HaW.6.r.I#Nay#C#d.aaEaI#h#Yaf#`aF#a#dar#S`Jasar.Nal.k#YaT`Yae`5`7aM#K.NaA`H#V`yaA.6ax`1`Eaq`Uax#q.R.Xanan",
"ananana5#.aOad#7#.#2ae.6.6#H#H.Kav`YaJaJav`7`5`YaS.z`k`j`7ar##.k`v`v#Sar.C#a`R`T.U#1#CaW.BaiaW`M#V#r`Hauaa.w`5#A`1#A.J`G#A#Aap.Xanan",
"ananana5#p.q.q#xaU.p.K#Pae#oab.Bav`Y`Yav`Yav#C.k.AaC.L`3#S#S`JaM#w.L.Z.L#Sar`P`RaK#G.N`M`7aNaAaaaaaa.N`7.6ae#7`G#A`1.1`1`1#Aamabanan",
"ananan`Zap.3.3#Qauau.K#P.Kaeau`7ajaJ`Y`YaXaj`vaK`k`v.k#F`B#a`P#a#z.N#z`OaCakaj`O.l.D#6au.N.N#V#l#H.6.N.Nab.p`1`G#A.8aUax`1#A#k#wanan",
"ananan`Z.T#o#Caeae#5.K.K.Kae.X.NaJ#NaJ`P.y`J.N.``RaO`pad.uaQakaXaQ#IaRaRah#J.v#z#Fa.az`Paj.N`H.6`3.BaX#Qaba7#7#k#A`1`1`1`1#A#k.Xanan",
"ananan`Zam#t#V#VaWaeae.K.Kae#5#K`YaX`Y.B`Far#a`T`k#G#JaQ.eaJaJaJ.e`2.I#f.y.qaHaTaRaz.U`Fakakay#N`z#N#N#o#5a7`1#k#A#A`1#A`1#k#kabanan",
"ananan#o``#pauaL#V.KaeaeaeabaL`5`z.ray`Fay`JaCaEaE`p#IajaJ`YaJaj.eaXaXak.I#c.4ahaC`i.U#F`O`z.r#6#6#t#ea7.Sa1`G`G#A#A#A#A#A`G#k.Xanan",
"ananan`Z```o`7au.6.wabaFabab.p.3#O#OaO.q#6`P.kazaz.DaQaj.eajaX.I.I.I.IaX`2.E#J`iaTaE`p`i`z.r#Q`7ae#5#o#t#tao#A`G#A#A.J#A#A#A#kabanan",
"ananan#oam.T#o.w#H#PabaFab.Xa6.3a.`5ay#KaM#zaC`p.Aaz#I##`2aQaQaQaQ`FaQ#f.E.E.#`iaR.D.``i`z`7#P.waeabaL.q#p.R`G#A`1ax`G#7#x#Aam.Xanan",
"ananana5`o.0aoau.w.KaFaLaFaFaL.3#7.j.c#0a5`P`O.D.D.1#IaQaQ#I.E.E#I#I#IaS.E.u`r.4.5`paE#Z.kau.K.X`0`0.3ax#p#p.jax#eao.d.da6.3amabanan",
"ananan`Zam````ao#eao.d#p.3#5.pao#t#t.j.0#naMaCaK`i`U.EaQ`F.EaB.EaS.EaS#f.E.r`r`iaR`p`i.qaR.K#l#o#p#7#p`o.d.d.paA#V.K#P.6`MaAa6.Xanan",
"ananan`Zam#.a.aoae`7#N#7am#P#ran#r`N#5af`7`F`Fac#F`Uac#faS.y.uaS.u.u.u#N.y#6aO#J`F`paE`iac`7ae`Z#x.a#..jaoaoab.K.X`7#5#5#5.X.i.Xanan",
"ananan#oap#p#7#..6#K.yax#2`7.Kaea0`y.0.iaM`F.k`P#Fad`r#Jad.U#q`r.V#c.V.q.U.8#G`kaR.`aEawac`Pac.j`o.T.T#7.d#2.Xaaaaaaaaaa#laaa6#wanan",
"ananan`Z``````am.6#K#N#O#K`yai.6#P`y`e#8`PaR.kaI#F`U#J`U#x#x.8`U.#ahaH#Ga3#L.8.r`Faz`k#FaS#Qao#7.T`G.T#paUa..X.KabaFaFaF#5aF.i.Xanan",
"ananana6``````a6#V.paX`F#Y`A.Qaaaa`N.i#taraC`Fas#F.U#J.yadaxazaH.u.E.y#y.1axad.k#a.`aw`BaR.r#2#7#.#.#p#7#2a..Xae.XababababaF`0abanan",
"ananan`Z````#0.Zar#a`OaCaD#3`u#j#P`y.0.l`JaC`O`v#d`G#J.E.E.u.f.uaQ`2.E.uaSaZah#z#a`p.rac`Oac.d.a#.#.#7#..aa.a7#r`yaAaaaa`y`N`Z.Xanan",
"ananana1````a6`7`n#Y`q#h#Yar#3`uaNaA#B#Qas#a#Y#S`R`Gad.faGaGaBaG`2aQ`F.uaB.EaSaI`L.DaR`B`O#Q.d.aam.a.a#7#p#2.da6#5#5#5aL#5aF`0#wanan",
"ananan`Z#k```z##`j`q`q`q#i#4ar`Aaa#r`0`L`v`P#z`vac#..UahaBaB`rah.e.eaQ`raHaZ#fav#aaE.k#d#a`zaoax#7#2#7ao#2.a#2#R.XababababaF#8.Xanan",
"ananan`Z.T.UacaR.5`q`m`q`n`j`Fay`M`y#t`H#Sarar`vac`4`1aq.4aqaq`raBaQaBah#y`EaS`J`P#d`Oac#nayao#7#2#qax#qa.#q.d#2#P#l#H#H#H#H#t.Xanan",
"ananan`Z.`.uaR#F#Y`q`m`m`m`n`RaR`H`ya7`v#S`JarasaR`p`G.z#y#g#g.#aqaHaq.q`E`U#Iar`O.k#a.5ar#K`5#7.Ja2`I`I#.#7a3`aa7#5aL.GaLaFa6#wanan",
"ananana5.`.u.fawaI`q`m#v`q`n#Y`F#S`yaN`M#SaI#zar##`T#x`1.4aqaq`EaZaZ.#`Ead#yaRaj#QaC#a.k`7#d#F`4.5#i`S#y.aam.a.ca6#P#P.K#P.wa6.Xanan",
"ananana5.D#N`2#Naw#1`C#v#h`RawaQ.paa#P`M`vas#4#YaT`k`I`G#g.4.#aq.##O#Oaq.qaUaKaM#d.k###a#za5.l#.`j`W.b.8a3ama3apaL#P#P#P#P#Ha1#wanan",
"ananan`Z.dahaZaw`k#p`o#B`o`paO.yaM#j#P`M`vav#4###4aw`w`G.J`U.#.#aq`EaqaH.4.J`TaC#daR.5#a`J.k`5a2.5.b.Va3amamap`a.X.Ka0.K.K#la6.Xanan",
"ananan`Za.aO#6#6aEao```````p#6.y`LaW.6#S#Sar#4`S.5.5.1`G.J.8#y.#`r`r`r#J.U`G`T.CacaS.raC`Jar#a`k.5.x`B`4.a.a#.#K#H#H#H.w#l#la6.Xanan",
"ananan`Za.`5#FaOaKa.````am#q#6#Fas.w.L#S#S#Yak`B`S###Z.J#x.8`w`E.#.#.4.1#x`GaKac`Faw`B#4`v`M#SasaJaJaJ.e`OaEao.w#Paeaba0ae#H#8#wanan",
"anananaL#p#0#p.c.c.c.c.c.R.R#p.c#0#0#0#0#0#0`a.c.c`a.c.c.R.c#p#p.c#p.c.c.c.R#p#0`a.c.c.c`a`a`a`a`a`a#0#p#0#0`a#0#0#0#0#0#0#0#0.6anan",
"anananananananananananananananananananananananananananananananananananananananananananananananananananananananananananananananananan",
"anananananananananananananananananananananananananananananananananananananananananananananananananananananananananananananananananan",
"anananan`y#r#r#r#r`y`N`y#r#r#r#r#r`N`y#r`y`y#r#r`y#r`y`y`y`y#r`y`y`y#r#r#r#r`y`y#r#r#r`y`y`y`y#r`y`y#r`y`y`y#r#r#r`y#r`y#r`y#rananan",
"ananana5`o`o.Tap.Ra3`oa3.Rapap#p`a`a`aa.`aap#..T#kama3a3a3a3a3a3a3.a.a.Ta3#.#.#..Tam#.#p`aa..c.Aapa3#.a3a3a3#.ap`I#7`4#p#p.TamaNanan",
"ananana5#Q.NaJ`JaXajaJ`J##.IaT`YaDas`v.Lar`j`B`i.1.4#J.#`r`rahah.V`r`r#c.fah.f#caH#ZaO#Y`v#SaIaIaG`r.#.4.4.4`r#c.EaG`2.eaIav#R.Xanan",
"ananan`ZaM.L`3`3`3`3`3#C#f.u.faIaIasaD#4##`B.5#J#ZaH`r`raZaZ#caZah#c#c#c.u.uaS.u.yaw`i##`vaIaI#4`F#J#y`E`E.4.#.V`S.E.E`2aX.eaKabanan",
"ananana5#Q`H`HaNaN#s`H`7.E.f#c.xaIav#Y.5aS#1.5#J#O.Vah#c#c#c#c#c#caZ.f.u.f.u`S.EaS.f.V`BaIaIaIaT.V.4`w`w#g#y#y.4.#.V#c.EaG.Iad.Xanan",
"ananana5#B`7#5#5.naFaF#n`Sah.V`SaJaI`W`B`B`S###J.VahaZaZ.u.f.f.f.u.f.f.u.E.E.E.E#IaSah`B#z.e#Y.5aw`U.J.8`w#g`E#y.4.4.#.V#c`Saz.Xanan",
"ananana5a.aba0a0#ba0#baL.u.V`r`B.eaJaTaw`BaT.vaw.f.E.E.EaB.E.E.EaB.E.E.E.E.E#IaG#f#I`S.5aX#4##.E#y`p#x.J#x.8#g#g.z#y.4.#.#.V#G#wanan",
"ananana5`0aF#D#D#D#D#D.g#c`r.V.E#4.e.x`B.V#Y.E.f.E.EaG.EaG.E#f#faG.E.E#f#I#f#I#I#f#IaSaTaT#4.v`S#Z.Ua3.a#.#x.8`p`U.z#Z.4.4.#.U.Xanan",
"ananan`Z#BaF#D`x#X.g`x.g.V`r`S.V#4.e`B.v.5aT.v.f.E.E.E#I.EaQ#faQ#f#f#IaQ#I.EaS.E#I.E.E.vaGaT.5.V#y#p#0`e`a`oa2#G.1`U.z#y.4.4.U#wanan",
"ananan`Z.l#D#Xata6.p#t#R.V.#`r`r#i.e`S`B.5#4#I.E.E.E.E.E.EaG#I#I`F#IaS#f#f.E.E.E#I.E.E.EaS`j`B`B#Z#B.2#W#X.F#p`4.1`U#y#y.4.4a2.Xanan",
"ananana5.i`xa``o#.`Gam.z`r`r.#.4.E#i`S.v`B.E.E.EaGaG.EaGaG.E.E#I#IaSaS.E.E.E.E#I#I#I.v.v.v.V#J.VaE#o#W#W#W.H.2`e`a`p.z#y#y.4a2abanan",
"ananan`Z#t`x.0.a#7aUaxaq.V`r.#.4`S`2.vaG`S`SaGaGaG`2aGaG#I#IaSaS.E.5aRaSaSaR##aRaC#`#`.S.F#Z#Zaw#8ag.2#W#W#W#W#X`6.Fa..z.z`E#Lauanan",
"ananan#Q#t.X#taUa.aOad`r.V`r.4.4aG#iaGaT`S`SaGaGaT#4#aaC`OaC#Q`Ra6al`bal`6.G.n`t#u`h#u`h#u`c#U#1#U#W#W#W#X#W#W.H.M.M`6a1`eaz#.abanan",
"ananana5`5.B`F#N#7aO.1.V#c.#.#.VaTaG.v`S.5`Ra7.G.n`t`h#u#u#u.o#u#u.o.o.s`X`X`X`d`d`g`g`g`g.o#U`b.P#W`xafaf`x.H#W.H.H#ua0aV#D.0#wanan",
"ananan`Z`5.B`YaQaB#N.f#c.V.V.4`S.v.v`jal#U#u.o`g`X`X.s`X`#`#`#`#`#`#`#`d`#`d`d`d`d`d`g`g`l.o#W`f`cag#2#L#Oa6#D.H#W.H.H.M.H#Wat.Xanan",
"ananan`Z`5`Hav#faBaq.##c#c#c`r.V#4##al`f`h`8`g`8`g`d`d`d`#`#`#`#`#`#`#`d`#`d`#`d`g`d`d`d`g`d.o#M..`6`z`1#gaUaf.M.M.H.H.H.H.H`K.Xanan",
"ananana5#QavaJaBaZaZ#c#c#c`r.4.1`k`B`Q.P.o`l`l`g`d`#`X`X`#`#`#`#`#`#`#`#`#`#`#`#`#`d`d`d`d.o.saP..#X.y#g`2`za1.H.H.H.H.M#u.Mat.Xanan",
"ananan`Z#QaJaQaB.#.#aZ#c.V.##y.1a2.A`f`c.o`8`g`d`#`#`X`#`X`#`#aY`#`#`#`#`#`#`#`#`#`#`X`#`#.saY..`c`t#6.y#Nax#e#D.H.H.M.H.H.Matabanan",
"ananana5`z`7aQaZaZ#c#c#c.V.##y.U`Iap`t#M.o`d`d`daYaYaYaYaYaYaYaYaYaYaYaYaY.7.7.7.7aYaYaYaY..aY...t`6aOaqaQ#O#e#X#u.H.H.M.H.Mat.Xanan",
"ananana5#Q`YaX`2aZ#c#c#c#c.4`E#G`I`a#u.o#M.s`X`XaY.7.7.7.7.7.7.7.O.7.O.7.O.7.7`V`V.O`V`V.O.O`V.7#W#U`PaXay`Y#f.h.M.H.M.Ma0a0#tabanan",
"ananan`Z#QaJaJaXaXaX#c.V.V.4`U.8`I#R#vaPaPaP`V.7.O.O.O.O.O.7.O.O.O.O`V.O.O.O.O.O.O.Oa4.O`Va4.O.ta4.g.N`3ayaB#Q#D.M.HaVabae#w#R.Xanan",
"ananan`Zac#NaJaJaX`2#c#c`r.4`U.8a2.k#w`haP`V.t.t.O.O.O.O.O.O.O.O.O.O.O.O.O.O.O.O.O.O`Da4.Oa4a4a4#W#X#C`3aJaZa6aV.H.H.h#P#Caj.3abanan",
"ananana5`z#6aXaXaXaG#c`r.##y`U`w`p`J#v`c`c.t.ta4.O`D.O`D.O.O.O.O.O`D.O.O`D.O`D.O`D`D.Oa4a4a#a4#T.PaL`HaJ#6ax.q.p.NaLae#CayaX`T.Xanan",
"ananan`Z#KaU.y`2aX.E.f`r.4#y#g#G#F`v`J.W`c.O.Oa4a4`D`D`D`D`D`D`D`D`D`D`D`D`D`D`Da#`Da#a#a#a##Ta`a7`H`YaO#q#q#6#N`2ae#VavakaQaEabanan",
"ananana5.CaU.q.yaB.b#c.#.4#y#g`waQ`3#Y#b`f#Ta4a4`D`D`Da#`Da#a#a#a#a#a#a#`s`s`s`s`s`s`s`s#Ta`#E#RaMaJ#NaU`UaH.yaB`Yai`3`H.q.y.`.Xanan",
"ananan`Z`zadax.q.y`2#c.4`E`E`U`waRav#aaD#U#T#T#Ta#a#a#`s`s`s`s`s`s`s#m`s#m#m`.`.`.`.`..Y#E#B`p#F`2.I.y`raZaZaZaX#C`vav.r#x.qazabanan",
"ananana5#F.`#q.D.E.v.V#y`E#y#g#G`Pavay`OaD`b.F`b`.#m`..Y`K`K#E#E`e#B`0#B`pa.a..U.R`Iap`4`4.AaU.y`F#N`5#6`raZ`F`M`3#C`O.U#7.`#2.Xanan",
"ananana5`z`Y#FaOaQaG.V#Z`E.z.1#Gav.BajaE`z#F`p`p.A.A.c.c`4a.az.`ad.z#Z#yaE#y#Z.z`U.1#G`p.1.1azajai#VaW`3`3#C#C.B#C#CaMa5al.Cao#wanan",
"ananana5#Q`H#s`P#I.E`S.4#Z`U.1ad`MaN`L`JaMaM.q.z`U.1.1.1.z#y#y#y#y#y#y#y#y#y#y`E`U.1.1.1.1`E.zak`3.6#C.K.6`MaN`HaN#s.G#8#`#s#R.Xanan",
"ananana5#B.i.i`Ta..U.A`4`I`I.a#2.i`0.i.i`0`0`4`I`I`I#x#x`I`I`I`I`I`I`I`I`Ia3`Ia3#xa3#x.aa3#.#.#0`0`0`0`0`0`0`0.i.i.i.i`0`0`0.caNanan",
"anananaaaNaNaNaNaN.KaNaNaNaNaNaNaN`MaNaN.KaNaNaNaNaNaNaNaNaNaNaNaNaNaNaNaN`MaN`MaNaNaNaN.KaNaNaNaN.KaeaeaNaN.KaNaN#w.KaNaN`MaN#ranan",
"anananananananananananananananananananananananananananananananananananananananananananananananananananananananananananananananananan",
"ananan#5.S.Sa7a7a7a7a7a7a7a7a7a7.S.Sa7.Sa7a7a7a7a7a7a7.C.Sa7a7a7a7a7a7a7.S.S.S.Sa7a7a7.Sa7a7a7a7.Sa7a7a7a7a7a7a7a7a7a7a7.Sa7#5ananan",
"ananan`oa3a3#B#Qa5.S.S.S#Q#d#6#6#dac`4#p#d#Z#BaK#R`R.l`T.lal`Ral#F.laK#B.Aaz`ka7`Z#Fa7#da6a7.Ca6.Sa7a5a3`G#k`G`G#k#k`I#B#0.R`oananan",
"ananan`o.a#p.p.6.wabae#C`H`Y.BaJav`v`7.B#1`i`B`Pas`vaI.karaN.L`M#ha7#a#1#Z.UaRaWaNasaA#Haaaa.K.B`M.w.p#A#A`1`G.J#A.J#7.i.i`0apananan",
"anananap#e.p.K.K.waLaL.X.BaJavaJ`YaX`v#s.U`RaDas`Jar`J`P`P#S#S#S.Bar#z#a`RaKaz`H`7`7.6aaaa#HaN`Yabae.3`G`G`1aU#O.8#A#x.d.0.iapananan",
"ananan.c`HaL.K.K#P.Kae.N.B.IaJaJ.e`O`vaR`Tak#dazaEac`O#a.I`O#a##aS.y#4ar#daK.AaM`P`Jau#VaW#V`7ajaLab.3`G`G.J`1`1`1#A`G.d.c#Bapananan",
"ananan#0#Vaeae.K#P.Kaea7aj.I`F`YaM.r`v#FaK`k.U.4.E`2aJaJaX.IaSaSah#J#y#IakaE`I#F`Paj`P.N`HaJaX`zaLaL`5#k`G.J`1`1`1#A`G.d.0.iapananan",
"ananan#paW#Paeaeaeaeabac.paJ.e.BaJaj.N#1`T.z.q`OaJ`JaJaJaJaXaXak.I.f.qaw#4.y.Aaday`Oay#F#6#6#6#eaL#o.3`G`G#A#A`1#A#A`G#2.0#tapananan",
"ananan.c`H.w.Kabaeae.X#e#6.yaO#6#6`O`P#F.`.UahakaJaJaJ.eaXakaXaX.IaG.V.q###F.``paRac#F#6#Q#K#o#oa6#t.d#A`G#A#A#A#A#A#A#x.R.japananan",
"ananan.c.w.w.KaFaFaFaF`5aUaO.y#N#F#a#a`kaza2`B.IakakaXaQ.I.I.I.IaQ#f.f#y.5#JazazaR#N`7.K.6ab#5#t.3#0#.#A`G#A#x#A#A#A.a`G#p`I`oananan",
"ananan#0#P.w#PaFaFabaf#eax#2.i#t#e`P#a`k`Ta2ahaQ.I#I#IaB#I#I.EaQ.E.E#c#y`B`k`p#Z.r`P.K#Pab#oa7`5ax#p#7#A#7.qa.#paoaU`G#pa.`5apananan",
"ananan.R`7a7#o#t#o#5aL#o#p.j.j.j.i`7aC`kaw#GawaQaQ#I.E.E.EaS#I.E.EaS.y.4`B#J.`aEaw.N.K.w.0.d.daxap.d#0#Q.p#K#t#e#e.N#K`7#e`I`oananan",
"anananap#t.paO.q#.#e.6`7#5aeafa1.S`7.k#RaR.1#JaQ.I#IaSaB.E.uaSaSaS#N.yaO`B`iadaEaw`L#H.6.R#x#7ap.j.3#t`yaA#VaWaa#Haaaaaaa6am.Tananan",
"anananap#e#V#ead`G.i`yaA#H#Hab`0#n`P`F#F`PadaHaS.f.qaH.y.f.faZ.y#J.Dad#yac`k`iaE#6ay`HaL#p`o.T#7#0ao#Raaae.XaFaFaF.Xabaea7.T`oananan",
"ananan`o#t#C.r#O.q#K#P#V#H`Nab#0.C`P##aR#zazaHaH#G#7`Iaz.#.Vah.q.U#x`I#q`F#RaO`i#1.C.l#2.T.T.T.a.daU.0aWabababab.X.XaFae.w`0apananan",
"ananan`oa6.6ayaQ#6#j.LaN.K.w.X#B.C`PaC#a`P`p.q`r.1`I.8#GaHaZ.V.z.8`I#G`i#4`5`i`k.r`FaO#p#..a.a#7axaU`0`N`yaAaaaaaa`N`y`y#H#Rapananan",
"ananan#0aiarayaXay#3`u#j.w#H#5#BaMaj.k`Paj.U`U.y.yaO.q#J.uaG#f.y#J.qaHac`P#1aO`Bac`O#R#.#7#.#7.R#.#p#RaWaF#5#5#5#5#5#5ab`N.w.cananan",
"ananan`a#z#YaCaC#YaD#3`u`y`N#5#0arajaRarar.Aa2.yaGaGaBaBaQ`2aQaB#f#f.u.Iaj`k`kac`B.paO#7.T.Ta3.a#7#7aoa7`7ababababaFaF#P#laa#0ananan",
"ananan.caC#Y`q`m`C#Yar`A#3#HaL.ias`J`O`v.N.d.a`r.faGaB.faGaX`2.fah.f.faj`J#d#6ac.5#n#R#7#xam.a.aaoam#2.d.waaaa#l#l`y`N#H#P#l#0ananan",
"ananan.c`j#i`m`q`n`B#4#zaNai#n`ZaN`J#Yas#z`T`Gaq#caZ.#aq`2.eaXaB#yaq#JaJ`JaR`Rac`z.N`5.daxax.qazao#q`4.d.l#5aLafaLafaF.w.w.w#0ananan",
"ananan.RaC`n`m`m`q`q`j`F`Paa#5`7`Masar`J#zaK.a.1#y`E`E.#.#aZaZ.#`r`U#yajar#aacaRaC`P#e#2.a#xa2a2#7#2a.#7.l.K.w.w#P.K.K#l#l.K#0ananan",
"ananan`o`j`n`m`m`q`q`j`OakaaaNaN#SasaraIar`k`I#A#y`E#g`E.#aq.q.q#g.1#Jaj`O`P`Oal#z.pac`T.Uaw.4`p#7a3`G.R`0#P#b.K#P#P#l#l.w.w.cananan",
"ananan.RaR#4`q#v#v`q`j#Iak.6.w`M#Sas#z#z#z`B.A`G#G.4.4aqaHaZ`raqaq.qad`Pac`L`OaC#zaM.lao`p#i.b`S.a.T.Tap`aaL#5#5.GaF`N`N#l.w.cananan",
"ananan.Raw.DaK#`#U`eaK.y#N#S#H.K`Mas#z#4#Y.5`p`G#A`Uaq.#.#aqaHaqaH.za3`O`R#aaRaC#z`P.l`T.``n.b#Z.aamamap`5#laaaa#l#l#l#l#laf.Rananan",
"ananan.RaOaK.Tamama3aE.y#N`M#H`M#S#S#4##.5aT`i.J`G#L#y.4.#aq.#aH#Oa2`GaC`5.kaR.k`Par.laK.U#i.v#Gamam#.ap`7#P#P#P#P.waa`Na0at`oananan",
"ananan.R`5aK#.````#7.q.yacai.w`M`v#S#a##`B##.Va2.a`1`waq`r`r`r.#`p.a.a#a#d.5.y.5#z#S#Sav#Y.eaXacad`4#x#R#PababaFab#Haa#la1.j`oananan",
"anananapaO#pam````am.3`k#aaiai`Mas`v#4`jah.5aS.8.Ja2`w`w`U`E`E#g#L#x`I`O`z`Baw.5#z#S`vaI.e.e.eaI`Yaj#d.6aa#H#l#Hae.K#laf.j.j`oananan",
"ananan.R#R`P.XaFaeaN`z`J`M.L.L#SaDaIaI.5.V`i`S#Za2`1`w`w`w`w`w`wa2#x#6`k#d`iaKaSar#S#S`P#IaG.I.I.eaJ`Y.B`3#H#HabafaF#o#o#5aL`oananan",
"anananap.l#p#p#B#B#e`v`v#S.L.L#S`v#Sar`j#J`U`B`U.1`w`w#g#g#g#g#G.8.8`i.UaEad`kaSaI#S#S#a`S.E.EaB`2`2`2.eaJ`Maaaa`Naa#HaF`x.K.Rananan",
"anananap#6aU.d.Ra.`O#CaI`J.L#S#SaD.L#Y`B`i.z.z.4.z.1#g#g#g`U`U#g#g#g#g.z#G`p`k`BaI.L#S`P`S.f#c.f.E.EaGaG`2.eavau`Z.jam#k``ab#0ananan",
"ananan#Bap.Rapapap#p#p#p`a#p.c`a.c`a.c.R.Rapapapapapapap#.#.#.apapap`o.Rap`o.R.c.c`a#p#p.R#pap.R`I.R#p#p.R#p.c.R`o`o`o.T`o.R#Bananan",
"anananananananananananananananananananananananananananananananananananananananananananananananananananananananananananananananananan",
"anananananananananananananananananananananananananananananananananananananananananananananananananananananananananananananananananan",
"anananananananananananananananananananananananananananananananananananananananananananananananananananananananananananananananananan"
};
