/* XPM */
static char *_4_frame_2[] = {
/* width height num_colors chars_per_pixel */
"    66   100      256            2",
/* colors */
"`` c #110e10",
"`. c #3ec17b",
"`# c #379b52",
"`a c #2a5d41",
"`b c #5cbf85",
"`c c #5fca80",
"`d c #387b52",
"`e c #5b9065",
"`f c #8fc9b6",
"`g c #422419",
"`h c #85d6b1",
"`i c #998d51",
"`j c #6a4d39",
"`k c #86a67b",
"`l c #7a7570",
"`m c #8ed2ab",
"`n c #645c59",
"`o c #957752",
"`p c #8adab2",
"`q c #56281a",
"`r c #78c28e",
"`s c #b39c3d",
"`t c #835743",
"`u c #b99f76",
"`v c #26211c",
"`w c #bdab80",
"`x c #8aead0",
"`y c #8ec28d",
"`z c #85683b",
"`A c #ba921e",
"`B c #a0735d",
"`C c #242d23",
"`D c #643324",
"`E c #ccb293",
"`F c #dee6ec",
"`G c #fefefe",
"`H c #a3c0bc",
"`I c #aa8622",
"`J c #599f67",
"`K c #beba72",
"`L c #385034",
"`M c #9c9b7a",
"`N c #9ec7a2",
"`O c #35a35e",
"`P c #754b37",
"`Q c #1a422c",
"`R c #8f684e",
"`S c #c5af85",
"`T c #663a2c",
"`U c #4a6a42",
"`V c #8c5945",
"`W c #c6be3e",
"`X c #92ced6",
"`Y c #8faaaa",
"`Z c #473820",
"`0 c #a88e72",
"`1 c #72b3b8",
"`2 c #aeb2ae",
"`3 c #59392a",
"`4 c #363735",
"`5 c #c6c652",
"`6 c #626e3a",
"`7 c #703d2c",
"`8 c #a07a6c",
".` c #7e7e44",
".. c #52744e",
".# c #b58c6f",
".a c #cebf9e",
".b c #937264",
".c c #a67b67",
".d c #211516",
".e c #544d2e",
".f c #84513b",
".g c #828a72",
".h c #beb845",
".i c #986650",
".j c #c6a57a",
".k c #d5c8a1",
".l c #53b377",
".m c #a9836f",
".n c #76e3be",
".o c #e6de9a",
".p c #4ec07a",
".q c #b5a186",
".r c #8c5e43",
".s c #686664",
".t c #37aa64",
".u c #4d5832",
".v c #402e28",
".w c #968261",
".x c #8eb682",
".y c #d8c0b3",
".z c #d5d0a1",
".A c #e0c8c0",
".B c #73a872",
".C c #afaaa5",
".D c #c9c0ab",
".E c #28442f",
".F c #797a7a",
".G c #869ca0",
".H c #74593c",
".I c #7c523c",
".J c #669365",
".K c #8d8a85",
".L c #c7c6ba",
".M c #5c4425",
".N c #aac0bd",
".O c #425a3e",
".P c #a98a81",
".Q c #836251",
".R c #beac9c",
".S c #704431",
".T c #c19f8d",
".U c #6e7865",
".V c #cad2d4",
".W c #a16d6c",
".X c #93907b",
".Y c #d0b8b4",
".Z c #79d9b8",
".0 c #c5b297",
".1 c #a6a672",
".2 c #48c876",
".3 c #999c9a",
".4 c #ba9e6a",
".5 c #dac9be",
".6 c #bb948e",
".7 c #6ebec6",
".8 c #94614b",
"#` c #9a6b4f",
"#. c #a6afa8",
"## c #673e2e",
"#a c #beb5b0",
"#b c #784531",
"#c c #6c594f",
"#d c #301713",
"#e c #b8bab3",
"#f c #4ab472",
"#g c #7b4a36",
"#h c #1e3e2a",
"#i c #727e56",
"#j c #86aa86",
"#k c #34221d",
"#l c #836645",
"#m c #8f6d67",
"#n c #b19c93",
"#o c #8c7a6b",
"#p c #79aea2",
"#q c #d2c1b4",
"#r c #827e5a",
"#s c #87b3ba",
"#t c #6fda9c",
"#u c #769ea3",
"#v c #dbdede",
"#w c #ba9673",
"#x c #baab9d",
"#y c #558051",
"#z c #82c296",
"#A c #7a96a0",
"#B c #825e4a",
"#C c #8fc1c0",
"#D c #4a2e21",
"#E c #eae6a6",
"#F c #84ecce",
"#G c #bdbfb8",
"#H c #c3c1be",
"#I c #a67a5b",
"#J c #b4b2ac",
"#K c #b8c6c4",
"#L c #b0846e",
"#M c #ededed",
"#N c #756055",
"#O c #a3756a",
"#P c #a18359",
"#Q c #c7c7c7",
"#R c #b0aea9",
"#S c #cdba9c",
"#T c #a69b8a",
"#U c #c0bab2",
"#V c #a0826d",
"#W c #3cb56f",
"#X c #aa8c5e",
"#Y c #322c29",
"#Z c #a9a6a2",
"#0 c #70c98e",
"#1 c #67504e",
"#2 c #828662",
"#3 c #dbd3cd",
"#4 c #6ab57e",
"#5 c #489658",
"#6 c #564b46",
"#7 c #ac7d68",
"#8 c #696c6d",
"a` c #f1e1e1",
"a. c #8d8f91",
"a# c #98b8b5",
"aa c #573d3a",
"ab c #b2b6be",
"ac c #b4a49a",
"ad c #779d7c",
"ae c #786658",
"af c #967b6d",
"ag c #8f6a62",
"ah c #b6b6b3",
"ai c #48a561",
"aj c #cdb1a8",
"ak c #979493",
"al c #7c4e38",
"am c #595754",
"an c #d4c8b3",
"ao c #72bec2",
"ap c #83695f",
"aq c #b88f7c",
"ar c #93847b",
"as c #bdc2cc",
"at c #7a6e63",
"au c #674432",
"av c #5d6a55",
"aw c #5a3021",
"ax c #566251",
"ay c #9e8a7f",
"az c #a7755e",
"aA c #363e3d",
"aB c #a9aaa4",
"aC c #59443b",
"aD c #9c6c59",
"aE c #d2be92",
"aF c #473b37",
"aG c #855149",
"aH c #a6a09d",
"aI c #35322f",
"aJ c #7bb98e",
"aK c #a1857f",
"aL c #858585",
"aM c #5e7a86",
"aN c #a79288",
"aO c #c4b2a9",
"aP c #4c251d",
"aQ c #986259",
"aR c #8d5f4e",
"aS c #b69056",
"aT c #3c5e32",
"aU c #aa9676",
"aV c #77584e",
"aW c #51ca7e",
"aX c #7c9173",
"aY c #74524b",
"aZ c #7fc0c3",
"a0 c #b5a942",
"a1 c #c8a193",
"a2 c #b18480",
"a3 c #ab8256",
"a4 c #968e71",
"a5 c #6bc186",
"a6 c #b6aea8",
"a7 c #80594f",
"a8 c #000000",
/* pixels */
"`G`G`G`G`G`G`G`G`G`G`G`G`G`G`G`G`G`G`G`G`G`G`G`G`G`G`G`G`G`G`G`G`G`G`G`G`G`G`G`G`G`G`G`G`G`G`G`G`G`G`G`G`G`G`G`G`G`G`G`G`G`G`G`G`G`G",
"`G`G`G`G`G`G`G`G`G`G`G`G`G`G`G`G`G`G`G`G`G`G`G`G`G`G`G`G`G`G`G`G`G`G`G`G`G`G`G`G`G`G`G`G`G`G`G`G`G`G`G`G`G`G`G`G`G`G`G`G`G`G`G`G`G`G",
"`G`G`G`G`G`G`G`G`G`G`G`G`G`G`G`G`G`G`G`G`G`G`G`G`G`G`G`G`G`G`G`G`G`G`G`G`G`G`G`G`G`G`G`G`G`G`G`G`G`G`G`G`G`G`G`G`G`G`G`G`G`G`G`G`G`G",
"`G`G`G.VaLaLaLaLaLaLaLaLaLaLaLaLaLaLaLaLaLaLaLaLaLaLaLaLaLaLaLaLaLaLaLaLaLaLaLaLaLaLaLaLaLaLaLaLaLaLaLaLaLaLaLaLaLaLaLaLaLaL.K`F`G`G",
"`G`G`GaL``````.e#T#rat#oae`M.1#RaH#Z#8`4`l#oae`l#o#k`3aY`j`3`3aCaY.Q#B`jaa`Zaa.H`l#6#6.H#caeaF#d`v.d#k`v#d#kam.3#8#8#8#8#8#8`4#e`G`G",
"`G`G`G.F````.d.L.0.4`i#P`w`5.z#E.V#M.3.eac.q`i`w.q#Y`3.W#7#7#Oaza2aqa2.c#7.caDaU.q.H#l`o.waN#N#k#k#k#k#k#k.v#c#Q#v#v#v#v#v#v.Fah`G`G",
"`G`G`GaL`````C.DaUa0a0.ha0`S`K.o.z#vak.saOac`0#S.q#D#kaD#7a2a2#7a2.6a2`B#O.c#O.T.Rae.b#o.w#T#c#k.d.d#d#d#6.daa#1asas.Nab.Nas.s#e`G`G",
"`G`G`G.F````#caN#P`s.h.h`s#P.4.a#3`Fa.aL.D.R.1#S#TaC#d`V.WazaQ.f.6a1.6`8alaRaR`S#x#r#o`oa4#n.saa`3.vaCaa#1.v`g#6.K`2ab`2#.#.amah`G`G",
"`G`G`GaL.v`3apar#X`s.h.h.h`s#PaU#x#Mak#x.D.R`w`E.q.e#d.S.f#b#baGaD#L#7.i`V.Sal.Rac`0ay.waU#Tat.v`g`gaa#D.vaaaa.vak`F`F`F`F#M.s#e`G`G",
"`G`G`GaL`j.b`8#laU`s.h`W.h.h.waK#n#vah#H.L.0`w.0.q#N#kaP.f`7`DaG`V#g#gaG`7`TaR`waN.q`0.wacaN.b#1`g.M`3#D`g#Y#d.v.saBaBaBaB`Y#8ah`G`G",
"`G`G`GaLaC.b`8.maUa0.h`5.ha0`i.#.T#v#3#Han.0`w.j`uat#D#d`7.f.f#b`V.W.W#g#baYa7#x#r.qaUa4`wak`laCau`s`I`o#d.d.d#YaFababababas.F#e`G`G",
"`G`G`GaLaF#Oa2.m#m`j#2`K.h.`#N#OaK.5#v#Q.D.0`u`u`u`oaw#d`g#gaGaG`VaGaGaGa7`P`g.qae#nar`0ac#nat.e.H`s`A.I#d.d.d`v.F`F`F`F`F`F.Fah`G`G",
"`G`G`GaLaI.Qagag#N.H.d`C`v#k.H`Raf.V#v.L.D#SaU`0#X`iau#d#d`qaG`V`VaG#gaGa7#D#d#nae`0#P`0.qacat#6au`A`I#D#d.d#Y#k.3asas#Kas.V.F#e`G`G",
"`G`G`GaL`ZaY.Q#B#N#N`v````aIaYagar#3.V.z.D.aaU#X.baq.r#d#d`g`T`VaQaQaQ.8###d#d#T#o.w`o.w`w#Sac#T#V#w.#aY.v#d#d`n#Qasasas.V#v.Fah`G`G",
"`G`G`GaLaFae.K#B#Naa.d````#kaVagaN#v#3#q.D#S.4#P`o#I#IaP#daPaPaw#baGaG##aP#d.v`0ay.b#m.w`wan#S`Eac.ja1aj.RaK#1#Q`F`F.V.Vas.V.F#e`G`G",
"`G`G`GaL#6#3#Qae#NaL.FaLa.aH#maNan#3.z.L#S`w`w#P`R#l`8`7`gaPaP`qaw`q`q`q`g#k#N#o.w.H#l#P`w#q#S.qaUaqaq.6a1a1aj.y#3#v`F#Z.Gabamah`G`G",
"`G`G`GaL#6abak#6ap#6#8.F#8aLaO.y#S#3.k.a.D`K`w#P`z.S.b##`D`q`q`D`D`D`D`qaP`q#l#D.H.H#l#P.0.k.a`0`8.m.m#L.6.6a1a1aj#3#v`F`F.V#8#e`G`G",
"`G`G`GaLaCab.K.v#m.vaF#YaCaN.y`S.0#3.a.a.D.k.4`o`j.I`t`P`7`D`q`D`D`7`7`Dawaw`3`P#D`j#N.w.0.k.D#w`B`Bazaz#7#7a2aq.6a1#3#3ab.F#Y#e`G`G",
"`G`G`GaL#6aH#1#D#maVaa#6apaO.R.T#S.k.a.a.k.a`0`z`R`j.I`t`t.faG#g#b#b#b#gaGaG#baR##`3#B.w`w.z#S`S#Iaz`BaDaDazaz#L.#.6a1aKaI````ab`G`G",
"`G`G`GaL.sak`nap.6ag#NapaK.T.#a1#S.aaE.5.z`w#o`R.M`D.I.r`VaR.8`V`VaGaG`V.8.i`R#O`P`P#N#V#S.k.0aE.#`B#`.i.i.8.Waz#7.#.6a1.6aV#kah`G`G",
"`G`G`GaLay.Y.Y.Y.Yaj.Y.y#n.P.m.T#S.0aEaE#S`i.w`z.Sal`t`VaQaQ.i.WaD.iaQ.i#O.WaD#7.Q.I.H.b`E#S#S`w.T#``V.f.f.f.8#`az#7aq.6a1aj#N#e`G`G",
"`G`G`GaLak.5.y.A.A.y.A.yaq#I`BaS`EaE`E`w#P`o#P`o.Ia7aR.i.i.WaD.WaDaD.W.W.W#O`B.c`B#m`R#l`E`E`E#w#X`B#b`7`7#b.f.8.iazaz.#.6.T#cah`G`G",
"`G`G`GaL.F#U#aab#eab#eabayaz`R`o.jaE.jaS`o`z#P.b#B`R#`aD.W.WaD.WaDaz`Baz`B`8#I.c#7#I.b#B.4`S`w#w`o.Qaw`qaw#b#b.f`V.8.iaz#I#Lau#e`G`G",
"`G`G`GaL#kakabab`H`Hab.N`8`B`R#`.4.j.j#P`z`oaS`R.8aD.Waz#Oazaz`Baz`Baz#I`8.c`8a3.m#P#I#l#w`u`u.4`R`PaP`g`qaw`7#b#g.f`V.8.iaDaCah`G`G",
"`G`G`GaLataLa#.N.N.N`Ha#`BaD.i`R#X.j.4`o`z#X.4`z`B#I#I#7#7.c#I#7#7#7.c#7#7.m.m#L#L#L#P.b.4#w#Xa3`t.S#d#d#daP`q`T##`P.I`t.r.8`3ah`G`G",
"`G`G`GaL`la.a##saZ#s#s`Y`o.i.i#I#X.jaS#P`z.4#w#`az#7#7#7#L#L#L#L#L.m#7.m#L#7.m#L#L#L.c#Xa3.4#X#P.r.M#k#d#d#k`gaw####.S.I`t`t#D#e`G`G",
"`G`G`GaL#k.3#s#s#s#A#u`Y#m.8#`.ia3.j#P`o`o.4.#.baz#7#7#7#7#L#La2.m.m.m#L#L#7#I`8a3#7#7.c.c#w#P`o`VaaaA..ax`C`g#D`T.S.S#gal.f#D#e`G`G",
"`G`G`GaLap#.#saM#6aN.F#6`R.8.8.r`o#waS#P`z.4a3a3#7#7#7#7#7#7.ma2.m.m.c.m#L#7.c#7.m.ma3a3#P#P`o`o#BaF#A`1`1#u.O.v`Z###b#bal.I#Dah`G`G",
"`G`G`GaL`n.G`1`C#k#d.d`gaQ.8.8.f`RaSa3a3`z#X#7#7#L#L#L#7#L#7a3.m.c.m`8.c.c#I#7#7#L.m.m#X#X#``t.r`z.U#p`1.7.7ao.J`LaF.M`Palal#Dah`G`G",
"`G`G`GaL.s.G#A.d#k#1aY##.i.8`V.f#`.#aSa3a3`B#L#L.#.#.#.##L#L#V#V`8#P.w#P.war#Xa4.X`M`Mad#i`6.H#Bat#u`J#p`1`1`1`1.x.Gav.M.M.S`gah`G`G",
"`G`G`GaLapaH#RaaaaaaaYaYaD#``V.fa3aS.4a3#L#`a3#L#waUaU`M`M`M.X.g#2aXaXaX`k.x`f`m`p`p`p`p#t`h.B.`#2#4`1`1`1`1ao`1aZaZ#p.G#iax#Y#e`G`G",
"`G`G`GaLat#na1a2aYaaag.f#`.8`talaS#I#L`I`o.`.Xa#`y`m`h`m`h`h.Z`p.Z`h.Z.Z.n.n.n.n.n#F#F#F#F`xaJ#iadao#u#AaL.3aZaoao.7`X`X`XaZaxah`G`G",
"`G`G`G#Z`4`4aA`4aAaFaIaF`4`Z`4`4aF`4`4`4`4aAaAaAaA`4aAaA`4aAaAaAaAaAaAaA`4aA`4aAaAaAaAaAaAaAaAaA`4aA`4`4`4aAaA`4aA`4aAaAaFaA`4.V`G`G",
"`G`G`G`G`G`G`G`G`G`G`G`G`G`G`G`G`G`G`G`G`G`G`G`G`G`G`G`G`G`G`G`G`G`G`G`G`G`G`G`G`G`G`G`G`G`G`G`G`G`G`G`G`G`G`G`G`G`G`G`G`G`G`G`G`G`G",
"`G`G`G`G`G`G`G`G`G`G`G`G`G`G`G`G`G`G`G`G`G`G`G`G`G`G`G`G`G`G`G`G`G`G`G`G`G`G`G`G`G`G`G`G`G`G`G`G`G`G`G`G`G`G`G`G`G`G`G`G`G`G`G`G`G`G",
"`G`G`G`G#M#M#M#M#M#M#M#M#M#M#M#M#M#M#M#M#M#M#M#M#M#M#M#M#M#M#M#M#M#M#M#M#M#M#M#M#M#M#M#M#M#M#M#M#M#M#M#M#M#M#M#M#M#M#M#M#M#M#M`G`G`G",
"`G`G`G.K#YaF.v#Y#k#k#k#k#k#k#d.d`````C.E.E.E.E.E.E`Q`Q`Q`Q`Q`Q`Q`Q`Q`Q`Q`Q`Q`Q`Q`Q`Q`Q.E`Q`Q`Q.E#h#h#Y.v.vaF.v#YaA#haA#haAaA`vas`G`G",
"`G`G`GaLayaOa1.6.m`B`B#`#`.ral`D#D#k`k`m.n#t#t.n#taWaWaWaWaWaWaWaWaWaWaWaWaW.2aWaWaW.2aWaW.2aWaW`b#4aya1aK.6.6.3`XaZaZ#C#C.Navah`G`G",
"`G`G`GaLaraca1a1.6.6#7#`#``V#baw#D#D.N`y#t#t`caWaW.2aW.2aWaWaW.2.2.2.2aW.2.2aW.2.2.2`..2.p.p.paW.p#4ak.A.Y`8af#.aZaZ#C#K#Q#U.sah`G`G",
"`G`G`GaL.KaK.6a1a1.6#I.i.8`V.Saw`g#B`K`ya5`caW.2.2.2.2`..2.2.2.2.2`..2`..2.2`..2.2`.`.`.`..p#W#f.laJab.A.Yaf`n#.#saZ#s#Q.5.T#c#e`G`G",
"`G`G`GaLayafaK.6a1aqaz#`.8.f#baw`q`w#x`Na5`c.2.p`.`.`.`..2`.`.`.`.`.`.`.`.`.`.`.`.`.#W#W#W#W#W.l#p`Y.Y.YaY.S#1af#n#Zabas#xa2#cah`G`G",
"`G`G`GaLak.baY#Vaq#L#I.8`Val#baw##.y.q`5#4.p.p.p#f#W`.#W`.#W`.`.#W#W`.#W#W#W#W#W.t.t#W#f.t#fai#y.gacaj.b#DaaaG.Wa2.R#3.5a1#m#1#e`G`G",
"`G`G`GaLakafau.Q.ba2#7.8#g#b`7aw`P.Aac.D.x.B#f#W`.#W#W#W.t.t.t.t.t`O.t`O`O`O`O`#`#`#`#`O#5#5...uaN.TaqaQ.SaRag#Oa1.A#3.yaK`TaC#e`G`G",
"`G`G`GaL.K.bawaua7aS#I`V#b#g`7awaY.Y.T.1.h.B`J`Jai.t`O`#`#`#`#`#`#`##5#5#y`d..`d`U`U`U`U.u`LaF#1aq.PafapaQ.W.W.P#q#q.Y.P#d`3aFah`G`G",
"`G`G`GaL#oaraCaC.Qaqaz`t.S#g`7`D#l#q.R#o#x.1aT`6..#y#y`d`UaT.O.O.e.e.e.e.e.M.M`3`Z.v.v.v#D`3##aVaqar`lagag.W.b.Y.5#qac#c#YaC.v#e`G`G",
"`G`G`GaLaK.Y#n.Q`8.##I`V.S#b`7`3.P#aaO.Qae.w.H.M`3`Z`Z`g#D##`P`P`P`P`P#gal.Ialal.S##`3`3`T##au#ma`a`a`a`a`a`#3#a.Y.Y#x.Kak#Tamah`G`G",
"`G`G`GaLar#U#H#U.Pa3az`z.H`P##awaj.Da6aO#Uac#o`P.S####au`7#b#g#gal#gal#g#g`P`P#b.S`7####`T`7au#N.5#H#H#a#U#U.Yas#H.Yas.K`M.C`n#e`G`G",
"`G`G`GaL.K#G.LaO#P#Iaz.r.I`j`T#1.D#H#G#H#q#Gac`jal#g#b#b.S#b`P#g`Palal#g`P#b.S.S`7##`T`T##au.SaYaHaba6abab#U#H#H#H#Has#H#H.D.sah`G`G",
"`G`G`GaLa.#Q.Lac.c`o`B#lalau`3aK#G#G#H#H#H#H#U.H`P#g#b#b#b#b#b#b#g#g#g#g#b#b.S.S`7`T`T`Tau.S`PaYar#J#Uas#H#Q#Q#U#q#H#H#H#G#H.s#e`G`G",
"`G`G`GaLa.#G#HaU#I#`#`#B.Iau`3#a.D#H#G#G#H#H.Dap`P`P#b#b#b#b#b#g#g#g#g#b#b`7`7`7##`7`T##`T.S#bal.Q#a#G#H#H#H#H#H#Q#q.D#H#Q#H.sah`G`G",
"`G`G`GaL.K.D.D#Vaz#`#``t`P.M#N#H#G#H#G#Q#Q#K#QaK.I`P#b#b#b#g#b#galal#g#b#b`7`7`7`7.S#b`7`T.S`PaGaV#a#Q#H#H#Q#Q#H#Q#Q.L#H.L#H.s#e`G`G",
"`G`G`GaL.K#H#U`o`B`B.i`t`P`T#V.D#H#G#H#H.L#G#Ga4.Hal#g#balal.f#g#g#g#b#b#b#b`P#b.S#b#b.S.Sau`PaY.HaB#K#H#H#H#H.L#Gas#H.L#Q#Q.sah`G`G",
"`G`G`GaL.K#U.R`B`B#``R.I.S###x#U#U#eas#G#G#G#UaKa7alal#g.f.I.I.Ialal#g#b#g#g#g#g#b`P#g.S.Sau`P`Pae`k`N#K#Has#H.L#K#H#H#H#H#Q.s#e`G`G",
"`G`G`GaLaL#Gac`o`B#`.r.I.S#N#a#Gas#H.D#G#G#G#H.w.H.I#g#g.I.f.falalal`P`t#b#gal#g`P#b.S.S.S#b`P#1aX`e`NaB.L#G#Has.D#K#H.L.L#H#8ah`G`G",
"`G`G`GaLaL.D#n`B`B#``ValauaN#U#G#G#G#H#G#K#G#Har.Q.Ial#gal.f.fal#g#g.S##`7#b`P#g`P#b#b`P`j#b#gaxaJ.J.x#o#a#G#H#G#G#G#G#G#H#G.sah`G`G",
"`G`G`GaL.K#aaU`B`B.i`V`P`P#J#G#H#G#G#G#G#G#G#G.w#B`V#g#galalal#g#g`P##.Saw.S#g#g#b`P.S`P#g`P`jad.l#zatapaU#G#G#H.D.L#G#G#G#U.s#e`G`G",
"`G`G`GaL.g#UaU#I`B.8.f.Sap#q#G#G#G#e#G#G#G#G#G`M#B`t.f#g#g#g#g#b#b.S`P`tal`P`P#b#b#g#b`Pal`j#yaJa5.UaV`t.b#U#G#G#H#U#H#H#H#H.s#e`G`G",
"`G`G`GaLaL#a#X#Iaz.i`tau#n#a#G#G#G#eah#e#Uah.1`N`6.H.falal#g#b.S.S#b#g.Ial#g#g.S.S#b.SalaYav#0#0..`j`P`P#N#n#U#U#U#U#G#H#H#G.sah`G`G",
"`G`G`GaLaL#a.Pa3`B.8.I.H#a#a#U#U#a#e#e#G#U#a#2`N`kax.I.falal#b#b#b.S#galal#gal#b.S#g#b`jax`r#0adaaau`jalaVaf#a#U#e#U#U#G#U#U.sah`G`G",
"`G`G`GaL.K#UaO`S.T`oapaN#G#U#U#a#e#e#e#e#e#aap#2`y.B`6`jalal#g#b#b#b`P`P#b#b#g#b#b#b`j..`r`b#4.e.S.S.SaYa7apac#G#G#e#e#U#e#U.s#e`G`G",
"`G`G`GaLaL.0.P.c`B`t#laO#e#e#Gah#e#e#e#e#e#eaR`t.``ya5#y.e`j.S#b#b#b#b#b#b.S`P.Sau.u.J`r`b`c#yaCau`P`j`Pa7#BaNah#e#G#e#e#e#e`n#e`G`G",
"`G`G`GaLaL#x.P#7#``taf#U#U#U#U#eah#e#G#aah`2#B.f`j`6.x`r#4#y.u.e.M.S#b#bau.S.M.e..a5`c.p.p#4.e`7`P.S`P#gaG#BaK#a#a#e#Uah#G#U.sah`G`G",
"`G`G`GaL#o.Ta2az.iaV#x#a#e#e#G#e#eah#e.0#a.Ca7`t`Pau.e`k#4a5`r.B`e`UaT.uaT...J#4`c`b.laW`c`e.M`7.S.SaY#gaG#B#o#a#a#eah#a#eah.sab`G`G",
"`G`G`GaL.K#w.6#7aR.b#a#U#e#a#a#a#a#Jahah#a.q.H`t.I#g`P.MaX`b.p.p`b#0a5#0#0#0`b`b.p`b`b.p`b.u`D.S#g`PalaY.Ia7#m#J#U#J#e#U#H#U`nah`G`G",
"`G`G`G.KaFaCauaa.vaCamamamamamamamamamamam#6.v`g`g#k#k#k`C`L`a`a`a`a`a`a`a`a`a`a`a`a`a`a`L`v#k#k#k#k`g`g`g.v.vam`namamamamamaI#G`G`G",
"`G`G`G#M#Q#K.L#Q#K#H#Q#H#K.L.L.L#H#H#H#K.L#K#H.L#K.L.L.L#G.L.L#G#G#H#G#H#H#H#H#H#H#H#H.L#K#Q#H#H#H#Has#Q#Kas#Qasasas#Qas#Q#H#Q#M`G`G",
"`G`G`G`G`G`G`G`G`G`G`G`G`G`G`G`G`G`G`G`G`G`G`G`G`G`G`G`G`G`G`G`G`G`G`G`G`G`G`G`G`G`G`G`G`G`G`G`G`G`G`G`G`G`G`G`G`G`G`G`G`G`G`G`G`G`G",
"`G`G`G#Zakakakakakakakakaka.akakakakakakakakakakakakakaka.akakakakakakakakakakakakakakakakakakakakakakakakakakakakakakakakak#R`G`G`G",
"`G`G`G#Yat#N#N.H#cat`l`l.F`l.U.F.U.U`l#8.F.saa`3`3`3#D#D#D`g#k`v`L`d`d`d`d`d`d`d`d`d`d`v#k`g#D#D#Daw#D`3`3`3aa.s`l.U`l.F#8.F#Y`G`G`G",
"`G`G`G`4#naq#Laq.#aNa6#.#R`2#R#R#R#Rab#J#R`0.Q#B#Ba7.Ial#b`7awaPaI`eai#f#f#f.p.p.p.t`e#k`3.S.S#gal.IaG.I`t#B.QaN#R#R`2`2#Jah`4`G`G`G",
"`G`G`GaIaNaf#L#L.#af#x#J#J`2`2`2`2#R#J`2ah`0#l.r.8.8aGaY.I`P`T#D`g.E`J#fai#f.l.p#fai`L`q.M.S.S#g.f`t`t`ta7#B.QaN#R`2`2#J#J#J`4`G`G`G",
"`G`G`GaIaK#Laq#L#Laf.C`2#R#J#J#R#J`2`2`2#JaNag#`#`#`.Q`t.Ial.S`3aw#k`U.Baiaiai.lai#y`C`3.Sal#g.f`t`VaR`V`V`V.QaN#R#J#Jah#JahaI`G`G`G",
"`G`G`G`4aU.Taq#L#Laf#x`2#R`2`2#R#J#.#J`2#JaN#maDaD#``R`V`t`talauaw#D`C`eaiaiaiai#5`U.v.S#b#galaG.raRaRaRaRaRapaNah#J#J`2#Jah`4`G`G`G",
"`G`G`G.v.T.6#Lazaz#7.RaOah#J#J`2#R#R`2`2#JaN`B#O#I`B.i`R.r.r`t`P.M###D.E`e`e#5#5..`Z.Malal.f`t`VaRaRaR`VaRaRaR#T#R#J#J#Jah#R`4`G`G`G",
"`G`G`GaIa1aqaD`VaQ.W`8aN#J#J`2`2#R#Jahah#aay.baz#I.caD.i.8.r`V.fauau`3.vaT#y#y#y.E.M.S.falaG`VaRaQ.8aRaR.QaR#B#n#J#J#J#R#Jah`4`G`G`G",
"`G`G`G#Daqa2aQ#gaQ`V`8ac.R#R`2ah`2#Jahah#J`0`Baz#7#Iaz#`.i.8.r`tal.S.Saa`C`U..`L`Zau`PaG`t`VaR.8.i#`.iaRaRaR#B#n#J#Ra6ahaha6`4`G`G`G",
"`G`G`G#Yaz#7`VaGaQ`8a6aB.C.CaB#R`2#Jahah#Jay#O#7#7#7azaD#``R.r`t.I`P.S`T.v.3#.aC`3`P.I.f`t.r.8`R.i.iaQaRaR`V#Bac#J#R#J#J#Ja6`4`G`G`G",
"`G`G`G`4aq#7.W.Wa7af#x#.#.#..C#R#J#J#J`2a6aK`B.c#L#7#I`BaD#``z.r`t`P#bau#Dak`M.v###g.I`V`V.8`R.iaD#`.iaR`V#Ba7ac#R#Ra6a6#Ja6aI`G`G`G",
"`G`G`G`4.6.c.WaG.YaK#n#x#x.C.C#R#J.C.C`2#J#V`B#7#L#7`8`BaD#`aR.r`tal`P`P`3#oat`g`D`P.I`t`V.8aDaDaDaDaQaQaRa7#BacaB#R#Ja6#R#R`4`G`G`G",
"`G`G`G`4ac#O.W`Va1#OaK#xac#R#J#R#R#R#R#R#J#V#O#7#7#7#I#I`B`B.i.r`tal#g.S.Mat#c`g###bal`t.r.8aDaDaD#`.8aRaQ#B.Q.C#R#R.C#R#R.CaI`G`G`G",
"`G`G`G`4a6aca2.W.W.P#x.CaB`2a6a6#Ra6#R#R#xaf`B.ca3#7.c#I`B`B`R`V`t.I.I#gauaV#6`q###bal.f`V.8.i#`aD#`.8aRaRa7#m.C#R.C#R.C#R#R`4`G`G`G",
"`G`G`G`4aba6a6.CaHaca6.C#Ra6#J#J#J#J#J#R#Raf`B#7#7#L#I#OazaD`R.8`t`tal#bauaVaC#D`D#b#g.faR.iaD.iaD`R.iaRaRa7afa6aBaB.C#R#R#RaI`G`G`G",
"`G`G`G`4.C.Ca6ab.Caba6a6.C#R#Ja6.C#R#J#Ra6.b`o#7#L#7.c#I#I`B`R.r`talal#gauaVaa`g`D`7#g.f`VaQaD.i.i#`aQ.8aRaVay.CaBaB.C.C.CaB`4`G`G`G",
"`G`G`G`4#R#R#R#Z#Z.CaB#.#R.C.C#R.C.C#R#R#Jaf`B#L#L#7#7#I#O`B#`.8.f`t.I#bau#NaaaP`D`7#b.f`V.8aQaD.i`R`RaRaRa7aN.C#.aB#RaBaB#ZaI`G`G`G",
"`G`G`G`4#R#R#R.C#R#R.C.C#..C.C#R#R#R#R#Ra6.b#O#7.#.m#7#7#Iaz#`aR`t.f`t#g`7`laC`g`D`7`7#g`VaQ.8aD.i.i`R.8.ra7#Ta6aB.C.C#Z.C#Z`4`G`G`G",
"`G`G`G`4aB#R#R#R#R.C#R.C.C#J.CaB.C.C#R#R#Jaf`B#L#L#L.m.c.c#I`B`R`V.Ial#g`T.b#1`g`q`7`7.f`V.8aQ.iaQaQ.8.8`Va7ac#.#RaB.C#R#R#RaI`G`G`G",
"`G`G`G`4aBaB#R#R#RaBaBa6.C#J.C.C#R.C#RaB.Caf`B#7#L#L#L#7.c#OaD.8a7.I.I.f`3aK`n`g`q`D`7#baG.8aQ.i.i.i.iaR`V.QacaBaBaB.C.CaB#R`4`G`G`G",
"`G`G`G`4#Z#R#.aB#R#R#R#RaB.C#Z#R.C#R.C#R#Raf#O#L.#.##L.m#7`8`Bag.8.Ial#b`3aN`l#d`q`D`7#b`V.8.8.i.i.i.i.ra7#m.CaH#Z#Z#Z#Z#Z#ZaI`G`G`G",
"`G`G`GaIaB.C#.aB#R#R#Z.C#R#Rak#R#RaB#R#R#Rafaz#7#L#L#L#L#7az`B#`aR.I#g`7##aH.K`gaP`D`7#g`V.8aQ.i.i.8aQ`V`taf.C#Z#Z#Z#Z#Z#Z#Z`4`G`G`G",
"`G`G`G`4.C.C#R#RaBaBaBaB.C#Z.CaB.C#Z.C#..Caf`B#7aq.##L#7.c.c`B#`aQ`t#g`7`jaHay`gaP`D`7#g.f.8aQ.i.8.8.r`V.IaraH.C#ZaH#ZaHaHaHaI`G`G`G",
"`G`G`G`4aB#RaB#.#ZaB#ZaH#ZaB.C#ZaB#Z#Z#ZaHaf`B#7#Laq.#a2#7.c`BaDaR#Bal`7.QaH.3.vaP`q`7.f.f.8.8.8.8`VaG`V.Iay#ZaH#ZaH#Z#Z#ZaB`4`G`G`G",
"`G`G`GaI#.#RaBaHaB#ZaH#Z#Z#Z#Z#Z#Z.C#ZaB#Z.w`B#7.##La2a2#7#O#OaD.i.Q#b`D#oaHaHawaP`D`7.f`V.8.8.8`V`V`VaGaVaNac#ZaH#Z#Z#Z#Z#ZaI`G`G`G",
"`G`G`GaI.C#Z#ZaB#Z#ZaB#R#Z#ZaH#Z#ZaH#Z#Z#ZafaDaz#L.##L#L#L#O`BaDaR.Q#g`Tak#ZaBaCaP`q#b.f`V`V.8.8`V.8`V.fa7aN#ZaH#ZaHaBaH#ZaB`4`G`G`G",
"`G`G`G`4#Z.CaHaH#Z#ZaB#Z#ZaBaBaB#.#Z#ZaB.C`8aDaz#7a2#L#L#7`8`B#`.ia7#g`T#T#ZaH#1aP`D#b.f`V`V.8.8`V`V.f.fa7aH#Z#ZaB#Z#ZaBaH#ZaI`G`G`G",
"`G`G`GaIaH.CaB#ZaB#.#.#.#ZaB#Z#ZaBaB#Z#Z#ZafaDaz#7#7#7#7#7az`B#``RaRaG###R#R.C#1aP`D#b`V`V`V.8`V`V`V.f.f.QacaB#Z#Z#ZaBaB.CaB`4`G`G`G",
"`G`G`G`4.C.C.CaB#Z.CaBaB#.#.#Z#..C#Z#ZaBaB`8azazaz#7#7#7#I.c`BaD.i.QaG#1aB#Zac#1aP`D#b`V`V`V`V`V.f`V.falapacaBaBaB#R#Z.C#Z.CaI`G`G`G",
"`G`G`G#6`4aI`4`4`4aI`4`4aI`4aI`4`4aIaI`4`4#Y#Y.v.v.v.vaIaI#Y#Y#Y#Y#Y#Y#YaI`4`4#Y#k#k#k`g.v`g`g`g#Y#Y`g#Y#Y`4`4aI`4aIaI`4aI`4#6`G`G`G",
"`G`G`G`G`G`G`G`G`G`G`G`G`G`G`G`G`G`G`G`G`G`G`G`G`G`G`G`G`G`G`G`G`G`G`G`G`G`G`G`G`G`G`G`G`G`G`G`G`G`G`G`G`G`G`G`G`G`G`G`G`G`G`G`G`G`G",
"`G`G`G`G`G`G`G`G`G`G`G`G`G`G`G`G`G`G`G`G`G`G`G`G`G`G`G`G`G`G`G`G`G`G`G`G`G`G`G`G`G`G`G`G`G`G`G`G`G`G`G`G`G`G`G`G`G`G`G`G`G`G`G`G`G`G",
"`G`G`G`G`G`G`G`G`G`G`G`G`G`G`G`G`G`G`G`G`G`G`G`G`G`G`G`G`G`G`G`G`G`G`G`G`G`G`G`G`G`G`G`G`G`G`G`G`G`G`G`G`G`G`G`G`G`G`G`G`G`G`G`G`G`G"
};
