/* XPM */
static char *_4_frame_1[] = {
/* width height num_colors chars_per_pixel */
"    66   100      256            2",
/* colors */
"`` c #0f0d12",
"`. c #39bf7b",
"`# c #286244",
"`a c #72c189",
"`b c #379750",
"`c c #73c88f",
"`d c #43231a",
"`e c #568657",
"`f c #89c7b2",
"`g c #5c9666",
"`h c #86ddb7",
"`i c #5e2b20",
"`j c #76663e",
"`k c #a39367",
"`l c #8ecec0",
"`m c #85a687",
"`n c #5f4a30",
"`o c #8c6449",
"`p c #2b2523",
"`q c #92714a",
"`r c #8ee4c8",
"`s c #b6a154",
"`t c #83bf91",
"`u c #9a8840",
"`v c #784632",
"`w c #445931",
"`x c #bca27b",
"`y c #795b33",
"`z c #364a3c",
"`A c #e4eaf0",
"`B c #9e705a",
"`C c #c1ad89",
"`D c #9abe8f",
"`E c #4c4c2f",
"`F c #b8942c",
"`G c #9e7956",
"`H c #a0a078",
"`I c #163e25",
"`J c #a7895e",
"`K c #3e3e31",
"`L c #cbb28a",
"`M c #37a560",
"`N c #c6c248",
"`O c #7b5646",
"`P c #eeeeee",
"`Q c #fefefe",
"`R c #92c696",
"`S c #91af8a",
"`T c #757d59",
"`U c #70b3ba",
"`V c #5f3425",
"`W c #1a3f27",
"`X c #b7b7b3",
"`Y c #c6c256",
"`Z c #5a5a54",
"`0 c #496c41",
"`1 c #201112",
"`2 c #92d0a4",
"`3 c #5fc485",
"`4 c #a87964",
"`5 c #aa923e",
"`6 c #e2da9a",
"`7 c #683526",
"`8 c #6ad27e",
".` c #d9c1b8",
".. c #7e523d",
".# c #5c8a5e",
".a c #b28a1e",
".b c #d0c6af",
".c c #845c2e",
".d c #6fb982",
".e c #a6aa66",
".f c #2e2f15",
".g c #bdbfb9",
".h c #422a1e",
".i c #8e6e65",
".j c #767671",
".k c #568053",
".l c #94624e",
".m c #b2ceb6",
".n c #b7aaa2",
".o c #25422d",
".p c #b7976a",
".q c #a1896e",
".r c #684837",
".s c #363736",
".t c #658777",
".u c #d2c1ad",
".v c #41ad67",
".w c #947f61",
".x c #6c6967",
".y c #a98057",
".z c #7babad",
".A c #54c281",
".B c #c6afa2",
".C c #56643c",
".D c #93967e",
".E c #794e3a",
".F c #6e5648",
".G c #d7c7a7",
".H c #b4a292",
".I c #502e21",
".J c #97a193",
".K c #98b8b4",
".L c #ae9a42",
".M c #76c0c5",
".N c #301511",
".O c #c6b8a2",
".P c #673a2b",
".Q c #a07e7d",
".R c #788854",
".S c #988965",
".T c #a97f69",
".U c #cdbfa6",
".V c #c2aea1",
".W c #79987a",
".X c #a69689",
".Y c #7ece9a",
".Z c #855642",
".0 c #8d5b3f",
".1 c #b39785",
".2 c #869eb2",
".3 c #72402f",
".4 c #ad9263",
".5 c #74665f",
".6 c #6f5246",
".7 c #b48870",
".8 c #976751",
"#` c #545853",
"#. c #758b5e",
"## c #a99e95",
"#a c #ac8971",
"#b c #ccac9e",
"#c c #5d4233",
"#d c #c7a193",
"#e c #bfb9b2",
"#f c #7c7267",
"#g c #a0948c",
"#h c #363e3c",
"#i c #9d8267",
"#j c #50b074",
"#k c #b3aea9",
"#l c #acb2ab",
"#m c #76d28e",
"#n c #f2e3e1",
"#o c #8b5243",
"#p c #46c078",
"#q c #af806b",
"#r c #ad9577",
"#s c #543e28",
"#t c #bcb445",
"#u c #a3aaa1",
"#v c #5e4c49",
"#w c #7ec8d2",
"#x c #5a7a56",
"#y c #c3c1bb",
"#z c #8a8a87",
"#A c #beb0a3",
"#B c #8e755a",
"#C c #6a4d49",
"#D c #d7cfae",
"#E c #65a46f",
"#F c #dbe0e2",
"#G c #c7c7c0",
"#H c #90b6b2",
"#I c #523629",
"#J c #95c0b7",
"#K c #a5a5a1",
"#L c #896862",
"#M c #77debc",
"#N c #a8715d",
"#O c #499354",
"#P c #868685",
"#Q c #9a6962",
"#R c #d7d2cb",
"#S c #9f7964",
"#T c #3eb771",
"#U c #83bfc7",
"#V c #7f4e39",
"#W c #5f3c2c",
"#X c #4aa463",
"#Y c #ab8d89",
"#Z c #5c7650",
"#0 c #7d7f81",
"#1 c #7c6e65",
"#2 c #504b49",
"#3 c #adaea8",
"#4 c #35774f",
"#5 c #b0c1bf",
"#6 c #46c779",
"#7 c #2d5c3e",
"#8 c #9f6950",
"a` c #7a4a35",
"a. c #975e4a",
"a# c #6e4e39",
"aa c #352723",
"ab c #6b5b3d",
"ac c #cbbf9b",
"ad c #63665f",
"ae c #959695",
"af c #a1706a",
"ag c #44666a",
"ah c #968980",
"ai c #4f3f3d",
"aj c #b78b7f",
"ak c #b7a5a1",
"al c #331c18",
"am c #8e5d4a",
"an c #4f2519",
"ao c #b5c7be",
"ap c #5c8086",
"aq c #d9c8c1",
"ar c #b4b2ad",
"as c #7f655a",
"at c #6eaaa2",
"au c #aba5a1",
"av c #908076",
"aw c #86523e",
"ax c #cec0b7",
"ay c #423129",
"az c #ab958b",
"aA c #8f766b",
"aB c #8f5644",
"aC c #86b68a",
"aD c #cdb899",
"aE c #76e7ce",
"aF c #7d723e",
"aG c #704733",
"aH c #7b5c4d",
"aI c #60564f",
"aJ c #87e7cf",
"aK c #be9686",
"aL c #acb7b1",
"aM c #4e7a4a",
"aN c #acaaa5",
"aO c #a67f7f",
"aP c #bea18f",
"aQ c #76b6a6",
"aR c #87b6bd",
"aS c #231914",
"aT c #69402f",
"aU c #34302e",
"aV c #8a6556",
"aW c #c2c2c2",
"aX c #b68e6d",
"aY c #967e42",
"aZ c #7aae96",
"a0 c #9f8a7e",
"a1 c #c7c9d3",
"a2 c #855b48",
"a3 c #d1b8b0",
"a4 c #a98b82",
"a5 c #b2817e",
"a6 c #e8e2e1",
"a7 c #6c5c53",
"a8 c #000000",
/* pixels */
"`Q`Q`Q`Q`Q`Q`Q`Q`Q`Q`Q`Q`Q`Q`Q`Q`Q`Q`Q`Q`Q`Q`Q`Q`Q`Q`Q`Q`Q`Q`Q`Q`Q`Q`Q`Q`Q`Q`Q`Q`Q`Q`Q`Q`Q`Q`Q`Q`Q`Q`Q`Q`Q`Q`Q`Q`Q`Q`Q`Q`Q`Q`Q`Q`Q`Q",
"`Q`Q`Q`Q`Q`Q`Q`Q`Q`Q`Q`Q`Q`Q`Q`Q`Q`Q`Q`Q`Q`Q`Q`Q`Q`Q`Q`Q`Q`Q`Q`Q`Q`Q`Q`Q`Q`Q`Q`Q`Q`Q`Q`Q`Q`Q`Q`Q`Q`Q`Q`Q`Q`Q`Q`Q`Q`Q`Q`Q`Q`Q`Q`Q`Q`Q",
"`Q`Q`Q`Q`Q`Q`Q`Q`Q`Q`Q`Q`Q`Q`Q`Q`Q`Q`Q`Q`Q`Q`Q`Q`Q`Q`Q`Q`Q`Q`Q`Q`Q`Q`Q`Q`Q`Q`Q`Q`Q`Q`Q`Q`Q`Q`Q`Q`Q`Q`Q`Q`Q`Q`Q`Q`Q`Q`Q`Q`Q`Q`Q`Q`Q`Q",
"`Q`Q`Q#R#P#P#P#P#P#P#P#P#P#P#P#P#P#P#P#P#P#P#P#P#P#P#P#P#P#P#P#P#P#P#P#P#P#P#P#P#P#P#P#P#P#P#P#P#P#P#P#P#P#P#P#P#P#P#P#P#P#P#za6`Q`Q",
"`Q`Q`Q#0````````#z#BaFaFaFaF.S.S.earar#PaU#faA.5#BavaU.N#Ca2aVaHaHaVasasaHasaH`O#1aAaIaiabab#1#val`1`1aS`1alaS.sa7#0#0#P#P#P`z#e`Q`Q",
"`Q`Q`Q#0```````p#A`k`s.e#t#t`x.e`6#D#Rar#`#A.O`k#A`C`n.N`o`4a5`4`4a5aKajaf#Q`4af.p#A.wa7.w.w.H.5aUal`1aSal#vaS#Iaia1#F#R#F#R.j`X`Q`Q",
"`Q`Q`Q#0``````#s.X`J`5#t#t#taY.p`C#D#R#l.j#e#A.H`LaN.F`1a`#8#Na.#V.7#daKa5#Vaw`oaP#A`k#L.w.S###f#cai#I#C#W#C#Iaa#v#1#u#K.2#K#``X`Q`Q",
"`Q`Q`Q#0``#vaT#B#i.S`F#t#t#t#t`ua0##`Aarauac.O`C`C`C`j.N`V#V.3.3aBa.af#SaVam.3a`aK`C.HaA.S`k##aA#I.N`d.Iayayayaiaa.x#R#F#F#F.j`X`Q`Q",
"`Q`Q`Q#0``.FaAaf#L#i`s#t`N#t#t`ua4az#FaW#yax.O`C`C`C#1.h.N#V#V`7.3aB`v#V`O.P`7aHaP.X.H.S.S##.Hav.F.h.FaG#W.haa.NaU#`#5#5#5`Xad`X`Q`Q",
"`Q`Q`Q#0``#I.iaO.1.S`s#t`N`N#t`5aOaKax#F#G.b#A`C`x`xaA#I.N`i#V#o#o#oafaf#V.E..a##r.S.X.q.q.H###1aI#I`F.a.yal.NaSal.s#KaN#l#l`Z`X`Q`Q",
"`Q`Q`Q#P.jay.i`4a5#LaI`j`H.eaFab`qaO#e#Fa1.b.O`x#r`s.q.r.N.N.P#V#oaB#o#o#V`O.E`dahav.X.S`k.H.H#1`Z#c`s.a.cal`1aSaaaIa6`A#F`A.j`X`Q`Q",
"`Q`Q`Q#0#K#2aH.lamasaHaSaS``aS#C.iaA#G#R#D#yac`x.4#iaXa#`d.N`da`am#o#o#V#oa2.I.NahaF.q#i#i##.V#1`jay`F.a#c`1`1al`paea1aoa1a1.x`X`Q`Q",
"`Q`Q`Q#P#3aI#C#LaHasa7aa```1`p.6#QaA#R#F#Gac.U#r.4#B`J`qan.Nal`iaw.l#Qa..laT.N.Na0aA.q#B`G`xac.O`C#raK.paA#caaal#va1aW#5#l#5.j`X`Q`Q",
"`Q`Q`Q#P#k.xaAauaH.5aiaS`````1#Casa0#R#R.b.Oac.p.4`q#i.T`V.N`danan.Pa`a`.Panalaa#g.w.w`o.w`x.u.U.BaPaP#d#b#bak.iaW#F#F#F#Fa1ad`X`Q`Q",
"`Q`Q`Q#P#K#0a1a1#1a7#g#K#K#laWav.H.G#R#R.b.O.O`C`u.8.c#S`Oananan`i`i`i`i.Ianal.6#B.i`j`y.w`x.uac.H#aaXaj.1aK#d#ba3aq#F#FaL.2#``X`Q`Q",
"`Q`Q`Q#Paeavararai#L`K#2#`#`#f.Oa3.U#D#D.bacac`C`J`jaT#BaG`Van`i`i`i`i`7`iananaH.IaH.r`j#i`C.b.G.1#B`4.Ta5ajajaK#dak.`a6#F`A#0`X`Q`Q",
"`Q`Q`Q#P#Pah#k#K.Nas#caiaUaiavaq#b`C#D.uacac.G`x#ia#.EaGaHaG.P`7`7.P.P.3`7`7`V`VaT#W#W`y#B`C.G.b`x#S`4#N`4`4`4a5ajaK#da3axae.s`X`Q`Q",
"`Q`Q`Q#P#v##ae.xay#L#L#I#v#Lak#baP`L.Gacac.G.G`k`q`q.Ea2.Za2aw.Z#V#V`v`v#V.ZaB..aV.r`V`j#B`C#D`L.u`4`4`B#8`B`B`4`4.7aj#daz#v```X`Q`Q",
"`Q`Q`Q#Pai.n#ga7.iaK.i#LaAa0aKajaPa3ac.G.u#D`LaF.iaT`V.E.0a2am.lamamaBaBam.l#Q.8`4`Oa#aH#B`Lac.UaDaK`B`B.la.a.#8#N#q.7aK#d#d#2`X`Q`Q",
"`Q`Q`Q#Pa0aqaqaqaq.`.`.`aq#b.q.T.7ac`LaDac`L.S`J`q.ra`.Zam.l#Q#Q#Q#Q#Q#Q#Qafaf`B.T.8.Z.6as`LaDac`C`x`G.Z#V#Va`.0#8#N#N.7aK#da7`X`Q`Q",
"`Q`Q`Q#Pahaqaq.`.`.`.`.`.`.1.T`B.y`L`L`L`LaY#B#iaY..a2am.l#Q#Qafaf#Q#8`Baf`Bafaf`4`G`B`q.c`xaD`L.p#a`Ga``7`7`v#VaB#8#8#N#qaja#`X`Q`Q",
"`Q`Q`Q#Pal#1ar`X#kaLaLar#l#g`G#8`q`x`L`L.L`q`o`J#S`yaV#Qaf#Qafaf`B`B`B#N#S#S#S#S.Q`4.T`qas.4`L`x`x#i.c`7an`i.P`v#V...0.l#8`4#c`X`Q`Q",
"`Q`Q`Q#Paiai#0aW#5#5aoao#5a0`B.8`o`J`x#d`J`j`G.4`B.8`B`B`4`4#Naf#N`4af`4`4`4.T`4.T.T#a`4`o`J`x`xaX`o`O.h`danan`7.3a`...Z.c.l#I#e`Q`Q",
"`Q`Q`Q#Pah.B#0.K.K.K.K#H.K.w#8`o#8.a#d`s`q`q#i.p`q`B`4#q`4#q#q.T.T#q#q`4.T.T.T#a#a.7#q.T`G.p.p.4`J`oaG`d.Nal`dan`VaTaG.E.Z.c#I`X`Q`Q",
"`Q`Q`Q#PasaO#P.K#U#UaRaR#Hav.l#8`4`J`x.p.a`q.4.p`q`4`4#q#q#q#q#qa5#a.T.T.Ta5.T.T.T#a#q.T#a`JaX.paY.l.raaaSaS`p`d.I`VaTaG.E...h`X`Q`Q",
"`Q`Q`Q#P#vayah.KaR.2ae.2.2#Ba.#8`o`G#d.4`q`G.paX`G`4#q`4`4.T.7#a#a#aaO#q#q#a#q`4`4.T.T.y`4.y.4.y`G`o#c`K.t.t`z.f.I#W.P.3aG#V.h`X`Q`Q",
"`Q`Q`Q#P`O#Y##`Uap.s.ia7ai#La..l.0.8.p`F`G`q`u#a.y`4#q#q#q`4#q#qa5#a#i.T.T.T#q.T.T.y.T.y.y`4`J`q`q.c#c.Wat`U.zap.s#I#s`va`...h#e`Q`Q",
"`Q`Q`Q#0#CaAae.z.s`p.Nal.N`o.la.aw.0aX.7`J`B.y`4#q.7#q#q#q#q#q.T.T.T.T#i.Q.y`4.T#q#a#a`J.4`J`q`y..`B#Zat`U`U`UaQat`0`E#saTa`.h`X`Q`Q",
"`Q`Q`Q#P#C.Q.2.2`paa#vas.P#Q.la...`o`JaX.a`J`B.y.7aXaXaX.7.7`J.q.w#i.T#i.w.w.S.S.D.D.J`m`m#..kaF`j`j.Wat`U`U`U`UaQ#U#H.t#2#caa`X`Q`Q",
"`Q`Q`Q#P#C#Y###ea7#Cay.6aT`B#8.0.c#NaX.p.yaX.8.y.7.4.X`H`H`H.J.D.D.W.W`m`maC`t`2`2`h`h`h`h`r#M`t.R.Rat`UaQ#U`U`U`U#U#UaR#H.2`z`X`Q`Q",
"`Q`Q`Q#Pas#Y#Y#baO.i#v.Q#o`q.8aB...a.y.y`JaF.R`m`D`2`h#m`h#M#M#M#M#M#M#M#M#MaEaEaEaEaEaJaEaJ`r`f.#.WaQ.W.j.xaNaR.M.M`U#w`l`fag`X`Q`Q",
"`Q`Q`Q#0a7akaua3#da5a5af`B#8#8.l.0.7`J`J`5.W`R`r`haEaE#M#M#MaEaEaEaEaEaEaEaEaEaEaEaEaJaEaJaJaJ`h`t`c`a#zananaG.j.M#w.M.M.M#Uag`X`Q`Q",
"`Q`Q`QaN.s.s.s#h.s.say.say.say.s.s.s.s.s`K#h`K#h#h#h`K#h#h#h#h#h#h.o.s#h.o#h.o#h`K`z`K`z`K`K`K#h`K#h#h.s.saUaU.s#h#h.s#h#h#h.s#R`Q`Q",
"`Q`Q`Q`Q`Q`Q`Q`Q`Q`Q`Q`Q`Q`Q`Q`Q`Q`Q`Q`Q`Q`Q`Q`Q`Q`Q`Q`Q`Q`Q`Q`Q`Q`Q`Q`Q`Q`Q`Q`Q`Q`Q`Q`Q`Q`Q`Q`Q`Q`Q`Q`Q`Q`Q`Q`Q`Q`Q`Q`Q`Q`Q`Q`Q`Q`Q",
"`Q`Q`Q`Q`Q`Q`Q`Q`Q`Q`Q`Q`Q`Q`Q`Q`Q`Q`Q`Q`Q`Q`Q`Q`Q`Q`Q`Q`Q`Q`Q`Q`Q`Q`Q`Q`Q`Q`Q`Q`Q`Q`Q`Q`Q`Q`Q`Q`Q`Q`Q`Q`Q`Q`Q`Q`Q`Q`Q`Q`Q`Q`Q`Q`Q`Q",
"`Q`Q`Q`Q`P`P`P`P`P`P`P`P`P`P`P`P`P`P`P`P`P`P`P`P`P`P`P`P`P`P`P`P`P`P`P`P`P`P`P`P`P`P`P`P`P`P`P`P`P`P`P`P`P`P`P`P`P`P`P`P`P`P`P`Q`Q`Q",
"`Q`Q`Q#zaaai.sayayayaU.h`paaalaSaS`1``.f.o.o.o.o.o`W`W`W`W`W`W`W`W`W`I`W`W`W`W`W`W`W`W`I`W`W`W`W`W`W`W`payayaaaUaU.o#h.o#h#h`paW`Q`Q",
"`Q`Q`Q#Paea3.H#d#daKaK.7#8#8.0`v`V`d.h#3`R#m`8`8`8#6#6#6#6#6#6#6#6#6#6#6#6#6#6#6#6#6#6#6#p#6#p#p#p.A.d.J#R.`a4aA.J#U.M#U#5#G.x`X`Q`Q",
"`Q`Q`Q#P#gaxa0a4#b#daj`4.8#8.0`v`Van.F.O`D`c.A#6.A#p#6#p#6#6#6#6#6#6`.#6#6#6#6#6#6`.#6`.#p#p#T#T#T#jaQaNaqa3aO.6ae#uaR#Haoaq#v#e`Q`Q",
"`Q`Q`Q#P#g.`a4.i#YaKaK.y#8a.awa``7.I#r`x#5.d`3#6#6#p`.`.`.#p#p#p`.`.`.`.`.`.`.`.`.`.#T`.#T#T#T#T#j#E#u#ea3.r#CaT.i#gakara1.n#v`X`Q`Q",
"`Q`Q`Q#P##aq#Y.raAa5#a`4#8.ca`.3`i`V.uak#D.d.d#p.A#T#T#T`.`.`.`.`.#T#T`.#T#T#T#T`M#T.v#T.v.v.v#E`e#.##a3.i.I#I.Eafa5aka6#R.Bai`X`Q`Q",
"`Q`Q`Q#PaeaqazaT`O.i.T.y#8a`a``v`V`V.`.B#t`D#E.v#j#T#T#T.v`M`M`M`M`M`M`M`b`M`b`b`b`b`b`b`b#O`e`0#2.QaKaK#Q#Vaf#L#Q#d.`aqa3.Q`1`X`Q`Q",
"`Q`Q`Q#P#gax.Q#Wai`O.7`4.l`v`v.3`i#Wa3.Va4ac`S#E`g#X#X`M`b`b`b#O#O`b#O#O#4aM`0ag#7`w`w#7`w`z`z#s.ra4#Y.Q#L#L#Qafa5aqa3a3az`d`1#e`Q`Q",
"`Q`Q`Q#PaA.Vaz#CaTas.7`G.c.3a`.3`V.6.`.B#B`k#t`w`w.C`0`0`0`w`z`w`E`E#s`na#a#a#aG.r#c.I.I.I#I`V#W.6aK#Yav.Q.QaO.Q.Baxaq#ba7aU`p`X`Q`Q",
"`Q`Q`Q#PaAa3ax#AaAaAaX`4`oaG.E.3`V#Ba3.OaA.5aAas.3aT#s.Iay#I.PaGa`a`a`.Ea#.E.E.Ea`aGaT#W`V#WaTaTa7#n#n#n#n#n#n#R.`a3#e.B#g.D#``X`Q`Q",
"`Q`Q`Q#Pav.na3aWax#r#q`G`o.ca#aG`V.H#G#e#A.`#A`ka#aG.3.3.3.3a`#Va`a`a`a`a`.Ea`a`aG.3aTaTaTaT.3aG.6#A`X#e`X`X#e#e#eaW#y#y#K.JaI`X`Q`Q",
"`Q`Q`Q#0aha1aWaW#e#i.y`4`o...r#W.ra3.g#yaW#y#y.OaHa#a`aGaG`vaG`va`a`.E#Va`a`aG.3aG.3aT.P.P.PaTaG.6#g#karar#eaWaWaWaxaW.g#y#y.x`X`Q`Q",
"`Q`Q`Q#z#z#yaW#G#A#S`G`B`o.EaG#saA#y.gaW#y#y.g.g#L.Ea``v.3.3.3`v`va`a`a`a``v`v.3.3aT.P`7`VaT.r`v#C#L`X`XaWaWaWax#y#yaxax#yaWad`X`Q`Q",
"`Q`Q`Q#P#zaW#y#y.1`G`B`B`o.EaT#I.n.g#y.g.g#GaWao.q.Ea``v`v`v`va`a`a`a`a``v.3.3.3.3.P.3aT.P.P.3a`..`Oak#yaWaWaWaWaW#G#GaW#y#G.x`X`Q`Q",
"`Q`Q`Q#z#z#y.gaxa4`B#8`B.ca#aT.rax.gaW.gaWaW#G#G.X`y#V`v`v`v`v`va`a`#Va`.3`v.3.3.3.3.3`v.3aT.3aG.E`OauaWaW#yaWaW#GaW#y#G#GaW.x`X`Q`Q",
"`Q`Q`Q#P#z.g.g.U#i`B#N#8.ca#aTaA#eaW.gaxaW#y.g#5#r`y..a`a`#Vaw#V#V.E#Va`.3`v`v`va`aG.3a``vaTaT#C...F.JaoaWaWaWaWaWaW#y#y#GaW.x`X`Q`Q",
"`Q`Q`Q#P#z.g.g#e`G`G`q.8.Z`v#W.H#e.g`X#y.g.g.g#e##`y..a`a`#V..#V#V#Va`#V`va`a`a`a``va`aGaG.3.ra`a#ab.J`t#5#G#y#y#Gao#y#GaW#G.x`X`Q`Q",
"`Q`Q`Q#P#z#e#e.n`G`B#8.l..aG.6.O#e.gaW#y#y.g#5#y#gaH..a`#V#V.c..#V#V#V#V.Z`va`a`#Va`a`.3aGaG`va`#C#.`g`D.D#y#yaW#y#y#yaWaWaW.x`X`Q`Q",
"`Q`Q`Q#P#z.g#y.n`B`B`q.0#VaGav.g#yaW.g.g#y.g#y#y#gaH.c#V`v#V#V#V#V#Va`aG.P`7`va`a``v`v`va`aGa`a`ab`t`g`S#faN.g.g#y#y.g.g.gaWad`X`Q`Q",
"`Q`Q`Q#P#P#e`X.H`G#N#8.c`v.r.n#y.g.g.g.g.g.g.g#e.XaH#o#Va`#V#Va`a`a`a`aTaT`V.3a`a`aGa`aGa`aGa#.r.W#j`t`TaV.w#eaW.g.g#y.g#y.gad#e`Q`Q",
"`Q`Q`Q#0#P`X.O.1`4`B#8.ZaGaH.U.g#y.g.g`X#e.g#e.g#3`j.caw#Va`a`a`aGaG.3aG.Z#V.Ea`a``v`v`va`#V#C.k`a`a#Z`O..aV#A.g.g#e.g.gaW#yad`X`Q`Q",
"`Q`Q`Q#P#zaL#e#r.T`4#8.ZaG#Y#e#e.g#e`X`X.g#e`X`S#5`Tab.Z#V.E#V`v.3`v`va`...Ea`a`.3aG`vaG.E.6.C.Y`cap.raGaGaH.Qax.g#e#e.g#y#yad`X`Q`Q",
"`Q`Q`Q#P#P.g#e#gaX.y`q...F#A#e.g`X`X.gaL.g#e.O.SaCaC#Za#..#Va`a`a`.3aGaG...E#V.EaG`v`v`v#C.C.d`c#E#caTa#.6`O.i.n#e#e.g#e#e#ead`X`Q`Q",
"`Q`Q`Q#P#P.g.O.n#d.1`G#Bah#e#e#e#e`X.gar.gaL#e#BaF`DaC`eab.Ea`a``v`v`v`va``v`va`.3`v.3#v#Z`t.A`a`E.raGaGaG`Oas###e`X`X#e.g#ead`X`Q`Q",
"`Q`Q`Q#P#P#e.O#Y#aafa2`O.V#e#e#e#eaLaraL.g#e#5#LawabaC`a#E.C`naG`v`v`v`v`v.3`vaGaGaT`w#E`c.A`3.#`naTaG#C.E..a2ah#e`X.g.g`X`Xad`X`Q`Q",
"`Q`Q`Q#P#Par#A#a`4#8a2aA#e#e.g`X.g#e.g#e`X#A.gaVawa#aI.W`a`a#E`0`E`n`naGaGaTaT`n`E`e`a`3.A.A.d`w.3.3`vaG.E...ZaA`X`X#e`X`X#ead`X`Q`Q",
"`Q`Q`Q#P#P#eaPaja5.8..ak#A`X#e.g`X#e`X`X.O`XaraH.c..`v`n`T.d.d`c`c#E`e`0`0aM`e#E`c`3.A#j.A.A`g#c.PaG`va#.E#Va2#L#A`X`X#e`X#ead`X`Q`Q",
"`Q`Q`Q#0#P`XaPaja5.8as#e#e`X#e`X#e`X`Xar#A`X#k`y.Z..`vaG#W#Z.d#T.A.A`3`3`3`a`3.d.A.A.A`3.A`3.C#W`v`v`v.E.E#Va2asak.g`X`X#e#ead`X`Q`Q",
"`Q`Q`Q#P#P#AaXaX.7aV.q#e`X`X`Xar`Xar`Xar`Xar.na2...E.E`vaG`n`e.d.A#p.A.A.A.A.A`3`3`3.A.A.A#E`E#WaG.3`v#C.E...Zasak`X`X`X`X#ea7`X`Q`Q",
"`Q`Q`Q#z`K`Z#2#W#sayai#`aI#`aI#``Z#`#`#`#`#`#2.h.h`daa`d`dal`p`z#7`##7`#`#`##7`##7#7#7#7#7.oalal`d`palaaaaaa.hay#2aI#`#`#``ZaU.g`Q`Q",
"`Q`Q`Q`A#G#yaW#GaWaW#GaWaW#y#y#y#y#y#y#y#y#y#G#Gao#G#yao#y#G#y#GaWaWaWaWaWaWaWaWaWaWaWaW#GaWaW#GaWaWaWaWaWaWaWaWaWaWaWaWaWaW#G`P`Q`Q",
"`Q`Q`Q`Q`Q`Q`Q`Q`Q`Q`Q`Q`Q`Q`Q`Q`Q`Q`Q`Q`Q`Q`Q`Q`Q`Q`Q`Q`Q`Q`Q`Q`Q`Q`Q`Q`Q`Q`Q`Q`Q`Q`Q`Q`Q`Q`Q`Q`Q`Q`Q`Q`Q`Q`Q`Q`Q`Q`Q`Q`Q`Q`Q`Q`Q`Q",
"`Q`Q`Qauaeaeaeaeaeaeaeaeaeaeaeaeaeaeaeaeaeaeae.Daeae.Daeae.Daeaeaeaeaeaeaeaeaeaeaeaeaeaeaeaeaeaeaeaeaeaeaeaeaeaeaeaeaeaeaeae#3`Q`Q`Q",
"`Q`Q`QaU#f.xas.6aHaHa7#1.j.j.j.j.j.j.j.j.j.j.5#W#W#W#W#I.I.I.h`d.NaS#h`##4#4#4#4#4#4#4#7`1`d.h.I.I.I#I`V#I#s#W#s.F.j.j.j.j.jaU`Q`Q`Q",
"`Q`Q`Q.sar#g#S#q#a.7.Qau#lar#3#l#3#3#3#l#3ar##aV`oaV.laB`O.6a`.3.I.h.f`g#j#X.v#j.A#T#X`w.h#saG`va`#Vawa2.Za2a2aVah#k#3#lararaU`Q`Q`Q",
"`Q`Q`QaU.na0#aaK#q#q.w##ar#3ararar`X#k#larar.H#L#8#Q#Q`o.Z..`Oa#.P.I`d`z#E#X#X#X#j#X#O.f#IaGa``v#Va2.0ama2ama2aV.Qararar`X`X.s`Q`Q`Q",
"`Q`Q`Q.s.n.1aKaX.7#q#S.H#kar#k#l#l#3#3ar#l#l##`q`B`B`B.l`o.Z.0..aG`V.I.f`0`g#X#X#X#O`0ayaGa`a`#Vawamamamama2am`oa0ar`Xar#lar.s`Q`Q`Q",
"`Q`Q`Q.sakaP#d#q`B`4`4#d#e`Xar#k#l#3#3arar`X.1#Baf`4#S#Q.8am.0.c.EaT.P#I.f.##O#O#O`0`z`n`v#Vaw.Za2am.lamamamamaVa0#karararar.s`Q`Q`Q",
"`Q`Q`QaU.1#daj#N#V#8a..ia0.nar#lar#l`Xar`Xar##`B`4`4`4`B.8.8am.0.ca#aT#W#I.o.k`e.k`K#saG#Vaw.Za2am.l.l#Qamamama2a0ar#lararar.s`Q`Q`Q",
"`Q`Q`Q.s#YaXa5#8.3a.a..Qak#kar#kar#3aLar`Xaraz`B#S`4.T`4#8.8`o.0.Z.EaG.3.Paa`w`0.CayaTa`..awaBam.l.8.8.8amaVama2#Yar#k#karar.s`Q`Q`Q",
"`Q`Q`Q.saka5`4#QaBamaA.naNauaN#u#3arar`Xar#k##`B`4#q`4#S`B`B.8`oa2`O.EaGaTay.DaLaI#WaG...Zawam.8.8#Q.8.laVama2aVazar#karar#A.s`Q`Q`Q",
"`Q`Q`Q.s.naz`4af#Nam.i.V#3#l#laN#3ararar#l#k#g`B`4#q#q`4`B`B#8`oam.Z.E`v.3#saA##`d#W`v...Za2am.8#Q#Q#Q.8amama2aH#g#k#3#k#k#k.s`Q`Q`Q",
"`Q`Q`Q.sarakaOaf`va3#Yazak.n.n#3.nar#3aN#kara4af`4#q#q`4`G`B`B.8`o.Z.EaGaG#W.5#P`d`V`v.E.ZaB`o.8#8`B`B.lamamama2##aN#karararaU`Q`Q`Q",
"`Q`Q`Q.s#k.naOafa.aja5aO.nau.n#l#k#k#k#kar#ka4#S#q.T.T`4#S`B`B.8`o.caw..aGaT.F#1aa`Va`#V`O.0am#8.8#Q#Q#Q.lama2aH.H#3#3aNaNar.s`Q`Q`Q",
"`Q`Q`Q.sar.n.Vazaf#LaO.nau#3#3#k#k#k#k#k#3#3.q`B`4#q#q`4`4`G`B.8am.Z`O...EaT#vaH`d.P`v#V..aB.l#8`B.8#8.8am.la2as.naNaN#kaNaNaU`Q`Q`Q",
"`Q`Q`Q.sar#k#k`Xar.n#k#k#k.nararar#karar#3arah`B`4.T#q`4`4`G`B.8`oa2...Ea`.3`na7`d`V.3a`...0.l#Q#8.8.8.8amama2.i#k#3aNaN#k#3.s`Q`Q`Q",
"`Q`Q`Q.s#k#k#kar#k#kar#k#k#3.n#kar#3#k#k#kaN#i`q.T#q.T`4#S`4`B`qam.Zaw#V.E.r#C.F`d`i.3`v#VaB.l.8.8#Q.8.8aV.laHaA.naNauaNaN.naU`Q`Q`Q",
"`Q`Q`Q.s#3#3aN#3auau#kau#3aNaNauaNaN#k#3#kar.Q`B#q.7#q#q`4`4`B#8.l.Z.Z..a`.3#C.F`d`i.P`v#VaB.l.8.8.8.8.l`oamaHa0aN#3#3#3aNaN.s`Q`Q`Q",
"`Q`Q`Q.s#3#k#k#3#3#k#3#3aNaN#3#k#kaN#3#kar#kah`G#q.7.T#q.T`4#S`B`o.Z....#VaTaH.5`d`i`7.3a`aBa..l#8#Q.8.l.lam.Z#g#l#3aN#kaNaNaU`Q`Q`Q",
"`Q`Q`Q.saNaN#k#3#laNaN#k#3#k#kaNaNaNaNaN#3#k#i`B#q.7#q#q.T#q`G`B.8.0`O.Ea`.3as.5al`i`7.3a`aB.l.l.8.l.8.l.l.0...HaN#u#KaNaN#3.s`Q`Q`Q",
"`Q`Q`Q.s#kaNaN#3ar#3#3aN#kaNar#k#k#3.n#kaNauah`B#q.7#a#q#q`4`4af.8a2..#V#VaT#faval`i`i.3`vawa..l.l.8.8.8.l.ZaHauaNaNaNaNaNaNaU`Q`Q`Q",
"`Q`Q`Q.s#K#KaN#3aN#3#l#3aNaNaN#Kau#3aNaN#k#kah`B#qaj#a#q#a`4`4`B#Q.l`O.E`v.Pav#galan`i.3`v#Va..8#8.l.8.8am.ZaV.HauauauauauaN.s`Q`Q`Q",
"`Q`Q`QaU#KaNaNaNaNaNaNaNaNaNaN###kaNaNaN#3aN.q`B#q.7.7.7#q.T`4#S.8`o.Z.E.3#I#gaeaaan`i.3`v.Za.a..l#8.l.lam.Z#LaN#KaNau#Kau#KaU`Q`Q`Q",
"`Q`Q`QaU#KaN#3#3#3aNaNauaNaNaNauaN#3aNaNaNauah`B`4.7.7.7a5.T`4#S#8.la2.E`vaT####ayan`i.3`v#oa..l.l.la.a.aBaHaAauauauau#Kau#KaU`Q`Q`Q",
"`Q`Q`Q.s#3aN#3#3aNauaNaNauau#K#3auauauauaN#K.S`B`4.7aj.7.7#q`4#S`B.8a2a`.3.6auaeai`d`i.Pa`#oa.a..la..0aB#o.ZaAauau#K#Kau#K#K.s`Q`Q`Q",
"`Q`Q`QaUaNaNaNaN#uaN#K#KauaNau#K#KaNaN#Kauauah`B`4#q.7.7.7a5`4af`B.8`oa``7#Lauau#v`d`i.P#V#oa..la.am.0aB#o`Oa0au#K###Kau#K#KaU`Q`Q`Q",
"`Q`Q`Q#haNaNaN#K#K#K#K#KaN#K#u#K#Kau#Kau#KaN.q`B#N#q.7a5a5.T`4#S#Q.8a2...Pav#Kau.5`d`i.3aw.0a.a.ama..0.Z#o`Oa0au#K#K#Kauau#K.s`Q`Q`Q",
"`Q`Q`QaU#k#Kauau#K#K#K#3aN#K#u#K#3aN#KaNau#Kah#8#N#q#q#q#q#q#S`B#Q.8a2#V.P#g#Kau.5an`i.3#V#oama..0.0aB#o#o...Xau#Kau#Kauau#K.s`Q`Q`Q",
"`Q`Q`Q.s##auaNau#KaN#3#3aNaN#3#u#KaNaN#K#Kau.q`B`4`4#q#q#q`4`4`4.i.8aV#o#W#K#3au.5.I`i.3awa.a.amaBaB.0aB#V`O.HaN#KaNaNaNaNauaU`Q`Q`Q",
"`Q`Q`Q.saNau#kauau#KaN#3#3aN#3aN#3aNau#u#3#Kah#8#N`4#q`4`4`4`4`4#Q.8aVaBaG#Kauak.5.h`V`vawaBaBa..Z#o#o#o..aH.H#3#KaNaNauaN#K.s`Q`Q`Q",
"`Q`Q`QaUau#3aNaNau#3aN#u#uaNau#3aNauaNau#Kau.q`B#N`4`4#q#q`4`4`B`B.8aVa2a`###KauaI`i`i.3#oaBa..0aB.Z#o#V#VasaNauaNauaNau#KauaU`Q`Q`Q",
"`Q`Q`Q#2.s.s.s.saU.s.saUaU.saU.s.s.s.s.saUaUaUaUaUayaUaUaUaUaUaUaUaaaUaU`p.s.s.saa`p`p`paaaaaaaUaaaaaaaaaaaU.saU.s.s.saU.s.s#2`Q`Q`Q",
"`Q`Q`Q`Q`Q`Q`Q`Q`Q`Q`Q`Q`Q`Q`Q`Q`Q`Q`Q`Q`Q`Q`Q`Q`Q`Q`Q`Q`Q`Q`Q`Q`Q`Q`Q`Q`Q`Q`Q`Q`Q`Q`Q`Q`Q`Q`Q`Q`Q`Q`Q`Q`Q`Q`Q`Q`Q`Q`Q`Q`Q`Q`Q`Q`Q`Q",
"`Q`Q`Q`Q`Q`Q`Q`Q`Q`Q`Q`Q`Q`Q`Q`Q`Q`Q`Q`Q`Q`Q`Q`Q`Q`Q`Q`Q`Q`Q`Q`Q`Q`Q`Q`Q`Q`Q`Q`Q`Q`Q`Q`Q`Q`Q`Q`Q`Q`Q`Q`Q`Q`Q`Q`Q`Q`Q`Q`Q`Q`Q`Q`Q`Q`Q",
"`Q`Q`Q`Q`Q`Q`Q`Q`Q`Q`Q`Q`Q`Q`Q`Q`Q`Q`Q`Q`Q`Q`Q`Q`Q`Q`Q`Q`Q`Q`Q`Q`Q`Q`Q`Q`Q`Q`Q`Q`Q`Q`Q`Q`Q`Q`Q`Q`Q`Q`Q`Q`Q`Q`Q`Q`Q`Q`Q`Q`Q`Q`Q`Q`Q`Q"
};
