/* XPM */
static char *_4_frame_5[] = {
/* width height num_colors chars_per_pixel */
"    66   100      256            2",
/* colors */
"`` c #181014",
"`. c #40b46e",
"`# c #3d8b4c",
"`a c #79b881",
"`b c #7ec7ce",
"`c c #2c4a46",
"`d c #86c68e",
"`e c #588d5c",
"`f c #388057",
"`g c #86d89e",
"`h c #643427",
"`i c #684f43",
"`j c #96864a",
"`k c #959595",
"`l c #c6d2d3",
"`m c #6b5d54",
"`n c #8eba8a",
"`o c #6c7a4d",
"`p c #e6e696",
"`q c #24292c",
"`r c #869a66",
"`s c #57281b",
"`t c #907753",
"`u c #805c45",
"`v c #6ce3cb",
"`w c #c0ba3e",
"`x c #edeeef",
"`y c #b28a26",
"`z c #8f9ba5",
"`A c #c5b48b",
"`B c #c19c8a",
"`C c #263b35",
"`D c #5dd391",
"`E c #9c745b",
"`F c #92caba",
"`G c #905a45",
"`H c #ccb492",
"`I c #c6ba4a",
"`J c #e6f2f4",
"`K c #ba9222",
"`L c #55b77c",
"`M c #98aa82",
"`N c #7b4a36",
"`O c #405335",
"`P c #31150f",
"`Q c #946752",
"`R c #40271f",
"`S c #369e59",
"`T c #4e3b2c",
"`U c #9a824e",
"`V c #cbc86e",
"`W c #a28a75",
"`X c #94bbb7",
"`Y c #b6a37d",
"`Z c #593e2e",
"`0 c #6d3d2c",
"`1 c #79d296",
"`2 c #59a26a",
"`3 c #47392d",
"`4 c #d3c8a5",
"`5 c #b09574",
"`6 c #7d4f37",
"`7 c #4e6641",
"`8 c #7db994",
".` c #54cd82",
".. c #a37357",
".# c #c1bc96",
".a c #866a3f",
".b c #9e8a3e",
".c c #aba5a1",
".d c #524f30",
".e c #3bbc76",
".f c #7adca4",
".g c #ab8975",
".h c #e4ccc3",
".i c #aa9252",
".j c #d1b5b2",
".k c #4d1f1b",
".l c #b8a88c",
".m c #9cb496",
".n c #6c4432",
".o c #bebab4",
".p c #c2a87e",
".q c #a87b5f",
".r c #8d756a",
".s c #dede9a",
".t c #8c5543",
".u c #3a3a1f",
".v c #be9632",
".w c #b7b3ad",
".x c #9b6852",
".y c #a18255",
".z c #adaaa5",
".A c #38a864",
".B c #719068",
".C c #6f696e",
".D c #4d4c4b",
".E c #653a2a",
".F c #c7c7c1",
".G c #b59c75",
".H c #855f53",
".I c #c5a696",
".J c #7dbfc5",
".K c #e6daaa",
".L c #9a8a7b",
".M c #6cbcc4",
".N c #705646",
".O c #eae6a2",
".P c #7d5642",
".Q c #a6937e",
".R c #402017",
".S c #bdbfba",
".T c #787470",
".U c #724431",
".V c #78deb0",
".W c #50c576",
".X c #7ba579",
".Y c #40c47c",
".Z c #4c2b20",
".0 c #9c7b77",
".1 c #b09e34",
".2 c #5c5841",
".3 c #8a827d",
".4 c #33322f",
".5 c #241f24",
".6 c #929e62",
".7 c #344630",
".8 c #c6b4a2",
"#` c #ba9471",
"#. c #b1b3ad",
"## c #b08b8d",
"#a c #63d7a5",
"#b c #a69b94",
"#c c #cfbe9f",
"#d c #5b2e1d",
"#e c #564349",
"#f c #a6c696",
"#g c #2c1e1c",
"#h c #878686",
"#i c #dce2e8",
"#j c #9e6c61",
"#k c #383736",
"#l c #a38275",
"#m c #6f675e",
"#n c #dacebc",
"#o c #eaf2f5",
"#p c #c3c0b9",
"#q c #9a7e5c",
"#r c #4e7b4d",
"#s c #3c4e70",
"#t c #b48972",
"#u c #31271b",
"#v c #49a965",
"#w c #925f56",
"#x c #744c38",
"#y c #7a8c8c",
"#z c #40302b",
"#A c #473e48",
"#B c #968873",
"#C c #856640",
"#D c #8cdbb6",
"#E c #d6cabe",
"#F c #69c686",
"#G c #b29c90",
"#H c #936a66",
"#I c #d7d5c7",
"#J c #b2aea9",
"#K c #75e0c5",
"#L c #88aeba",
"#M c #b1a54a",
"#N c #9e6e55",
"#O c #8abbc5",
"#P c #5a6070",
"#Q c #86513b",
"#R c #654131",
"#S c #6acd8d",
"#T c #82acb2",
"#U c #7d7d7c",
"#V c #af826e",
"#W c #34403a",
"#X c #361f1b",
"#Y c #a29381",
"#Z c #846659",
"#0 c #fefefe",
"#1 c #e8e6df",
"#2 c #b6a59d",
"#3 c #366248",
"#4 c #bc9488",
"#5 c #b57e72",
"#6 c #6aba7e",
"#7 c #c2aaa5",
"#8 c #4e434e",
"a` c #48bc76",
"a. c #8e5f4a",
"a# c #59463f",
"aa c #aebfb5",
"ab c #474629",
"ac c #b7b6b4",
"ad c #b49f69",
"ae c #735e3a",
"af c #9e8a78",
"ag c #c7cdd5",
"ah c #9ea6a8",
"ai c #bac9c4",
"aj c #322b2b",
"ak c #866c5e",
"al c #73523f",
"am c #8ce9d3",
"an c #885c46",
"ao c #29463d",
"ap c #7f5140",
"aq c #916e4f",
"ar c #c3c2c0",
"as c #b0b8c1",
"at c #82e8ca",
"au c #4d525f",
"av c #5e4b46",
"aw c #774532",
"ax c #adaea9",
"ay c #a97d69",
"az c #a47562",
"aA c #5c3640",
"aB c #55c288",
"aC c #89c8cf",
"aD c #ab8a5f",
"aE c #261619",
"aF c #4c8958",
"aG c #8f7e73",
"aH c #63454a",
"aI c #d3d7dc",
"aJ c #469a59",
"aK c #d0bfb9",
"aL c #69a676",
"aM c #65ddb8",
"aN c #775e50",
"aO c #9b766a",
"aP c #79e7d1",
"aQ c #cdb4a7",
"aR c #94614b",
"aS c #543f40",
"aT c #978271",
"aU c #573526",
"aV c #aa9480",
"aW c #928a89",
"aX c #a0babb",
"aY c #3a426a",
"aZ c #c5ae92",
"a0 c #b58e82",
"a1 c #b8aca5",
"a2 c #5b5f5f",
"a3 c #e4d8d4",
"a4 c #845641",
"a5 c #48c678",
"a6 c #5d5858",
"a7 c #b09492",
"a8 c #000000",
/* pixels */
"#0#0#0#0#0#0#0#0#0#0#0#0#0#0#0#0#0#0#0#0#0#0#0#0#0#0#0#0#0#0#0#0#0#0#0#0#0#0#0#0#0#0#0#0#0#0#0#0#0#0#0#0#0#0#0#0#0#0#0#0#0#0#0#0#0#0",
"#0#0#0#0#0#0#0#0#0#0#0#0#0#0#0#0#0#0#0#0#0#0#0#0#0#0#0#0#0#0#0#0#0#0#0#0#0#0#0#0#0#0#0#0#0#0#0#0#0#0#0#0#0#0#0#0#0#0#0#0#0#0#0#0#0#0",
"#0#0#0#0#0#0#0#0#0#0#0#0#0#0#0#0#0#0#0#0#0#0#0#0#0#0#0#0#0#0#0#0#0#0#0#0#0#0#0#0#0#0#0#0#0#0#0#0#0#0#0#0#0#0#0#0#0#0#0#0#0#0#0#0#0#0",
"#0#0#0ag#h#h#h#h#h#h#h#h#h#h#h#h#h#h#h#h#h#h#h#h#h#h#h#h#h#h#h#h#h#h#h#h#h#h#h#h#h#h#h#h#h#h#h#h#h#h#h#h#h#h#h#h#h#h#h#h#h#haW#1#0#0",
"#0#0#0#h.C`zah`k#h#U#h.Ta6#gaj.5`q.D.T#Z`3aS.R.N#ZaN.HaN`uaNaNaN`uaNal#xaU.N`3#z`Tae#U`k`kau#A#8#z#gaj#u``aS#Aajajav#8``#z#8ajas#0#0",
"#0#0#0.3#k`k`ma6aY.Tah#b.C#A#s#saY#h`Y.Q.2akaU`E.g.g#layay.qayayayay.0`Q.N.y#x.N#x`t#JaIas#k#AaSaj#k#8a6#EaK#2.c.z#b#EaIa3`m``ac#0#0",
"#0#0#0.3#zaW.j#HaH```k#iag#i#iaX`zah#G.g#m#q#R`Q#t#tay.0.qayazaz.0.q.r#H.PaTavaeal`t.carah#g#g.R#z.Da6aW#i.o.S.Sarar.o.Sai#8``ac#0#0",
"#0#0#0#haj#bas#HaH#X`ka3aIar#i#h.D#Y`5`5aT.L#xa..r.H#R.n#H.x`EaqaRaHaU#Ral#B#xaNae.r#G.o#h#g.5.5#X#8#e.3`J#iaIaIaIaI#i#i#1#h``ac#0#0",
"#0#0#0#h```k#2#H.t.Hag#1#1`x#o#ha6`k#Y`5`5af`Za4#x.R#X`RaHan.x#w.n.R#X.Ral.Q`iaN.H`t#BaN#z.5#gaE#XaHaH#UaIaxaxahahahaxaX.S.S#k.o#0#0",
"#0#0#0#U.5aKac#G##aT.K#c.Fag#1#ya6.caV#Y.l.Q.Zan`QaH.Z.Z.n#w.q#H.naU.Z.Eaq#b.Nakaq.r`Wavaj#X.5aj.4aA#8.3#i`l`l#iaI`lagagaIag.Dac#0#0",
"#0#0#0#h#b#p`Y##a7.l`V`p.O.S#i#Ua6.l.Gaf.laV`R#xazaz#H`Q#jaya0#V#j#H.Hak.g.G.2.r`t#q.g`i#g#X#X`RajaE#z.3#1aIagagagag`laI#i`J#U.o#0#0",
"#0#0#0#haW.Gad#M#M.p.#`V`paI`x#U`m.w#G.i.##b#XaA`E#5#t#5#Va0a0.gay#t#V`E`Y`Y`iaG`t.L##a6#X.5aE#XaE`3#z#e#h#JaXaxaxaxaxaxaIaI#Uac#0#0",
"#0#0#0#h#m.i#M`w`w#M.GaZ.K#1#o.T.3.#.l.G#c#Y`3.R`Qaz#5az`Qa0#4a0#H`G#j#jaZ.laNaTak#b#Y`i#z#X`P#XaA#AaE.Za6aI#i#i#i#i#i#iaI`l#Uas#0#0",
"#0#0#0#h#m#q.v`w`w.1.b`5#Gac#1.T#J#p.l`Y#c#YaS`P.t#w`G`N.ta0#4a0aO`N`N.HaQ`YaG.L#qaV#b.CaAaAaSavaHaHaSaAaS#hasasahaXasaaaI`l.Cac#0#0",
"#0#0#0.3`iad.1`w`w`w#M`j`W#2#1#b#paK`A.l`A`5av`P#R`N`h`0#w`G#w`Gan.t`0.H`HaV#Y.iaG`Y#Yak#z`P.R.R.R#X`3`Raj.3asasasasaxaI#iaI.Cas#0#0",
"#0#0#0#h`3.p#M`w`w`w#M.i.g.8#o.SaK.F`A`Y`A`5#C#X`P.t#Q`0aw#w#w#w.U.Eawaq`AaG#b`5#B.z#Y.T#e`i.y#CaN#XaEaE#z.C`x#i#i#i#i#i#iaI.T.o#0#0",
"#0#0#0.3#Z#q`j`I`V`V.6`t#Va7aIaI#E#c.8.G`Y.Gak.Z`P#d#Q.t#Q.t`G`Gap.PalaHaZ.T`5#Y`W.l#Yak#Aae`K`K`u`PaE.5#u#P.zahahahai`J`J#i.Tas#0#0",
"#0#0#0#y`i#Z#8.u`o.d`3aN#H.0#i`l.F#c.#.G`5.G`taA`P`P`0#Q.t.t`Napapa4aU`R#2ae.Q`W#Y.laV.T`T.a.v`y.ZaE``.5#X`kagaI`lagaI#i#iaI#sac#0#0",
"#0#0#0.3a#.NaNaE`````3.P#HaTa3aI`4#p#c`5.y#qaD#x`P`P.k`N#w#w.t.t#w`i`P#X#2ak.y`t`WaZ#2aGaeae`y.y.ZaEaE#u#ea3#i`J#i#i#i`J`J#y`qas#0#0",
"#0#0#0#havaN`m``````#z.Hak.Q#i#I.F#c`A`5`U`taD.H.k`P`R`s`N#w#w#w`6`s`P#z#YaT#qaq`jaZ`4#caQ.I.p.I`WakaA`R.cagasaxaxaa#i#i`l#s`qac#0#0",
"#0#0#0.3av`m#k.5.5aj#8aN.r.o#n#n#c.#`A`Y.yaq`t#q`s.k.k.k`s`h`h`h`s.R`P`m#Bafaeaq`W`A`4.8.l#4#``B.I#7aZ#ba3#i#i#iasahaiai#PaY`qas#0#0",
"#0#0#0#ha#aNa1aiaiara1aVaK`4#I#n`4#c.p`Y`Ua..P`E#R.Z.Z`s#d`s#d`s#d`R`R#q`Zakae.a.y`AaK.#.Q.g.g#ta0`B`B#7.jaKaI#iaraias#yag#i.Tac#0#0",
"#0#0#0#U#eaN#g#gaj#8.LaK`HaQ#I#c#c#c`4ad#q#x#x#C.E.E#d#d`h`h`h`h#d`s`h.n.naU.N.aaf.##c#caD`Eaz.qay#5a0#4`B.IaK`x`x`J#iah#P#y.Tas#0#0",
"#0#0#0#h#XakaH#e#8`i.8aQaZ`H#n.##c`4#c`5.a#C.nap#xap`0aw`0`0awaw`0`0#R`h`u.Z.nae`W`H`4#c`5azaz#N..azaz#5#5a0`B.I.3#A``````.5a6ac#0#0",
"#0#0#0#haS#l.NaH.C`WaZ#4.I#c`4#c#n#n`A`t.aal.n`uan.t`G.t.t`N`N#Q#Q`G#w.H#H#x#RaNaD`A#n`H`H.qaz#N.x.x#Nazay#t#4#4`B`i#XaE`P#z.5.o#0#0",
"#0#0#0#h.r#4#l##a7##`5a0.I#c`H#c`4#c.Q`t#CaU.U.tan#w#w.x#w#w`G#waR#j#j.x.qap#x#C`W#c#c`A.j#`.xaR`G.t.t.x..#5#5#4.I#7`B#7#2#7a2ac#0#0",
"#0#0#0#h`k.ha3.h.ha7.q`E`B#c`A`H`I.G#q.yaq.Ua4an#w.x#j#j#j#j.x#j#j..aO`Eayaq`uaeaq#c`H#c.G#``Q#Qawaw`N`GaR...q#5#4`B.I.jaK.h.Tac#0#0",
"#0#0#0.3aWaKaQaK#p#lazaq`yaZ#c`HaD#q.a.yaq`u.HaR#H#j#j#jaz#j#j#j`E`Eazaz.qazaO`Q#CaZ.paZ#`#q.a`0#d`0aw#Q.taR.x..#5#ta0`B.IaQaNac#0#0",
"#0#0#0.3#UaX.maxax#q..`Q`E.p`H.p`Uaq`taD#Ca.#N#j#j#jaz#j#j..azazazaz.0.qay#Vay`E#C.G.p.p#`aq`6.k.k#d`0aw`N#Q.ta..x#N#5#5#t#4alas#0#0",
"#0#0#0#U`zaiaiaiaa.0.x#C.xaD.padaq.aaDaDa.`Eazazayayazaz.qayazazay.qayay.gay.g#q`Q.p.G.iaDan#R.R.R.R`s`h`0.n`6a4`GaR.x...q#VaHac#0#0",
"#0#0#0#h`e#L#L#Lah`t.x`Q..#``B.vaq.a.G#``Qazay#5#5#V#Vay#5#V#5ayay#V#V#V.g#V#t.y#VaD.G.i.qa4`Z#X`P`P.R.Z.E#R.n#x#Qan`GaR.x..`Z.o#0#0",
"#0#0#0#U#UaC#L#O#L.aaR....aD.paD.baq`Y#`aq.q.q.qay#5#t#V.g.g#l#V#V.gayayayayay#V.qaD#`.b#N`u`T#u`C.4#g`RaU.E#R`N#x#Q.t`GaR.xaUac#0#0",
"#0#0#0.z#k`C#k#k#k#k`3#k.u`3.u`3#k#k.u#k#k#k`3#k#k#k#k#k#k#k#k#k#k#k#k#k.u#k#k.u#k#k`3#k#k.uaj.4#k`Caj.4.4.4.4.u.4.u#z#z.u#k#k`l#0#0",
"#0#0#0#0#0#0#0#0#0#0#0#0#0#0#0#0#0#0#0#0#0#0#0#0#0#0#0#0#0#0#0#0#0#0#0#0#0#0#0#0#0#0#0#0#0#0#0#0#0#0#0#0#0#0#0#0#0#0#0#0#0#0#0#0#0#0",
"#0#0#0#0#0#0#0#0#0#0#0#0#0#0#0#0#0#0#0#0#0#0#0#0#0#0#0#0#0#0#0#0#0#0#0#0#0#0#0#0#0#0#0#0#0#0#0#0#0#0#0#0#0#0#0#0#0#0#0#0#0#0#0#0#0#0",
"#0#0#0#0`x`x#o#o`x`x`x`x`x`x`x`x`x`x#o`x`x`x#o#o#o#o`x`x`x`x#o`x#o#o#o#o`x#o`x#o#o`x#o`x#o#o`x`x`x#o`x`x`x`x`x`x`x`x#o`x`x`x`x#0#0#0",
"#0#0#0aW.5``aE#g#g#g#g#gaE#z#u`R#u#u#u`q.4`C#W#W.7.7.7`c`cao`c.7ao`Caoaoao`c`c`c`cao`c.4`q.4`C.4.4.u`C`C`C`C`C#W#W#W`C.4.4.5``ar#0#0",
"#0#0#0#h.H`E#H...x#N.x.tan#``UaD`j`o`n`F#D#D.V.V.f#K#K#K#K`v#KaM`vaP`vaPataPatatamam#D`a.B#6`a#P`3`u#b#L.J.M.M`baCaC.M.JaC`Xauac#0#0",
"#0#0#0#haN#5#waR.x.x.x.x#C#`.b`U.6`a#Damatat#K#K`vaPaP`v`v`vaP`vaP`vaPaPaPaPaPaPatamatat`g#S`8aT.k.kaA#y.J`b`b.M.J.M.J`baC#T`qac#0#0",
"#0#0#0#h.Haz#jaR#N.x#N.t.U`t`E.6.X`damamamataP`v`v`v`v`v`v`v`vaP`v`v`v`v`vaPaPaPaPat#K.f`1#S`8#b`h#w##.C.J`b.J.JaC.J`b.J.J#y#Aas#0#0",
"#0#0#0#h.P#w.t#j.x#N.x#Q`0`TaU`r`a`gamamataP`vaM`v`v`v`v`v`v`v`v`v`v`v`v`v`v#K#K`v#K#K.f#a#S`8.3#w#5aA.H#T.J.M.J`b.J`b.J`X`k`3.o#0#0",
"#0#0#0#halaz.x#N.x.xaR`6.E`R#u`r`1.fatamaP`vaMaMaMaMaMaMaMaM#aaMaMaM#a#a`D#a#aaMaMaM#a#S#a#S#Ta6ap###w#Z`z.J`b.JaC.J#O`F`k.0avac#0#0",
"#0#0#0.3.H#j.x#j#N#NaR`NaU`R#u.X`g.f.f.V.VaM`D`D.``D.`.`.`.`.`.`.`.`.`.`a5.`.`.`.`.`.`aB.`#SaLaf#4#2####`zaC`b.J#O#OaXaX.TazaH.o#0#0",
"#0#0#0#h#Ha0#4.q.x.x`Gaw`h`R.u#f`d.f.f`D`D.`a5a5a5a5.`.`a5.Y.`.Y.`.Y.`a5.`a5a5a5.Wa5aB.WaBaB#TaW.j#####l.m.J.JaCaXai.F.FaQa7avac#0#0",
"#0#0#0#h.r`B#4az.x.xa4.U#d.R.N.#`d#S.`.`.Wa5a5.Ya5.Ya5.Ya5.Y.Ya5.Y.Y.Y.Y.Y.Y.Y.Ya`.Y.Ya`a``L`aa1.h.j.0akaX.J.JaCar#n#7#7aQ##a#.o#0#0",
"#0#0#0#h#j`B#`#N.xaR#Q`0#d.Z.Q.#`n#F.W.`.W.Y.Y.Ya5.Ya5.Ya5.Y.Ya5.Y.Y.Y.Y.Y.Y.Ya`.ea``..e`.aL#Lac.j##.HaHah.zahasag#2a0.I.Ia0#eac#0#0",
"#0#0#0#h#Z#4#t...x`G#Q.U#d`Z#caZ#f#6.W.Wa`a`.e.e.Y.Y.Y.Y.Y.e.e.e.Y.e.e.e.e`..e.e`.`.#v`.`2.X#2aK##aAaAal#Ha7.c#E.o#7#V`B.Ia0`Zas#0#0",
"#0#0#0#h.N#V#t..aR`6`N`0#d.P.h`Y`V`a`La`a``..e.e.e.e`.`..e.e.A.e.A.A`..A.A`S.A.A.A.A`2`e`7#Y#7a7`i#daH#Haza0.ha3#E##`u`B`B#4`iac#0#0",
"#0#0#0#h#e#H#t.q`Gawaw`0#d.H#c#G.#`MaL#v#v`.`..A`S`S`S`S`S`S`S`S`S`S`S`#`#`#`#`#`##r`7ab`ia0a7ay#H#waz#j#5.jaKaK.IaU`0#V`B#4`i.o#0#0",
"#0#0#0.3#zanaD..#Q.U`N`0#dak.j.l`W`V`r`e`2`eaJ`S`#`#`#`f`f#3#r`7`7.d`O.dab.u.u.u.u.u.uaH.Ha0afak#Z#H#j#HaK#E.j#7.N#g#eaO####avac#0#0",
"#0#0#0#haSay#t..`6.Uaw.U#d##.8.8.N.L.L.d`Zab.d`O.7.u.uab`i#x`i#x#xap`6#x#x.n.E`TaU`h#R`Z.raK.j#7#7`B#7#7#7#EaK#G.Ta6#m.0#7.I`mac#0#0",
"#0#0#0.3#m.yaD..an#x`N.E.Ea1aK#2`W#BaT.P.n`0`Z#d`h.U`Naw`N#x`N`N#x#x#x#x.U`0#R.E.E.E`0.naO#1a3a3a3a3.h#E.jaKaKa1.Cah.8.jaK.j#mas#0#0",
"#0#0#0#h.3#l.q.q#Cal.n.E`iaKar.SaKaK#p#B#x`N.U.U`0.U`N`N`N#x`6`6`N`N`N`N.U.U`0.E`0#R.n.naN#J#.axas#.as.S.S.S#par.S.wacaKaKaQ.N.o#0#0",
"#0#0#0.3ak.y..#N`u`6#x`T.0#p.S#p#p.F#p.l`i`N`6awawawawaw`N`N`N`6`N.U.U.U.n`0.E.E.E#R.n#x.N#b#Jas.oarararaK#p#p.F.S.F#paKaK#p#Pac#0#0",
"#0#0#0#h`m#q....`u#x.E`TaZar#p#p.Sarar.oae`N`Nawawawawaw`N`N`N`N`N.U.U`0`0`0.E.E.E`0.n`NapaG.w.oar#parararararar#par#parar.F.Cas#0#0",
"#0#0#0#h.N..#N`Q`u#x#RaN.o#p.S.Sar.Faiaraqalawawawaw`Nawaw`N`N`Nawaw`0`0.U`0`0.U`0.E.U#xap.H.oarararar.FaraK#p.Far.Farararar#mac#0#0",
"#0#0#0#h.N....`Q`u#x.EaTarar#parararai#p`t.P`Nawaw`N`6`6`6`6`Naw`0awaw`0aw.U.Uaw.U`0`0alapaN.Saiararar.F.F.Far#par.Fararar.S.Cas#0#0",
"#0#0#0.3al..#NaR`6.n`Z#7.o.o.S.S#p#p.o.SaT.P`6`N`N`6#Q`6`6`N#Q`Nawaw`N`Nawawawaw.U`0aH#xalaN`Mai.F#p#parar.Sar.F.Far.Fararar#mac#0#0",
"#0#0#0#h`i..#N#C#Q.U.N.##p.o.S.S.S.S.S.o`t`u`6`N`6`6#Q`6`6`N`N`6aw`N`N`6`N#x`Naw#x.n.n#x`i#h.B`Xaaai.S.Far.Sararar.Farar.Sar.Cas#0#0",
"#0#0#0#hal#N`Q`G#x.naW.8.S.S.S.F.S.S.S.F.rae`6`N`N`6`6#Q`6`6#Qaw#Qaw`N`N`Nawaw.U.U#xaw#x.2`8`e`n#Y#par.S#p.S.Sararar#p.S.S.S#mac#0#0",
"#0#0#0#hae#N.x.t.U.n.w.S.F.S.S.S#p.S.S.S.r#C#Q`6`6`6`6`6`N`N#xaUaw`haw`N`Nawaw.U#x#x`N#x.BaL`8#y.ra1.S.S#p#p#p.o.S.S#p.S.S#p#mas#0#0",
"#0#0#0.3.P#N.x#Q#x#C#p.S.S.S.o.S.S.S.S.#.3an#Q`6`N`N`N`N`Nawaw.U.n.naw#x`Naw#x#x`N`6al`7`8#6.BaN`uaf#p.Sar#p.S.S#p#p#p#p#par#mac#0#0",
"#0#0#0.3ae#NaR`6.naV.o#p.S.Sacacaa.o.S#.`Maea4#Q`6`6`N.U.U.U.U`6ap`6`N#x.U.Uawaw`N#x.2#6#SaL`i`6ap#Z.8.S.o#par#p#p#p#p#p.o#p#mas#0#0",
"#0#0#0.3`u#N`Q`6alaQac.o.o.oac.S.o.8.o`r#f`oae#Q`6`6`Nawawawaw`Nap`6`6`Naw.Uaw#x#x.2aL`1.Xav#x#x#xaN.Q.o.Sac.o#p#p#p.o.o.o.o#mac#0#0",
"#0#0#0#h#z`3#z#u`3a6a6a6.2.2.2a6a2.2a6#W`7`O.4#u`R`R`R#X.R#X#X`R#u.R`R`R#X.R.R#Xaj#W#3#3`C`P#gaj`R`R#Aa6a2a6a6a6a6a6a6a6a6a6.4.S#0#0",
"#0#0#0`x#p#pararar.F.F.Faraiaraiar.Farararai#p.F#pai#pai.Fai.Fararaiarar.Farai.Fararararar.F.Farar.Fararararaiarar.F.Farai.F.F#o#0#0",
"#0#0#0#0#0#0#0#0#0#0#0#0#0#0#0#0#0#0#0#0#0#0#0#0#0#0#0#0#0#0#0#0#0#0#0#0#0#0#0#0#0#0#0#0#0#0#0#0#0#0#0#0#0#0#0#0#0#0#0#0#0#0#0#0#0#0",
"#0#0#0.z`k`k`k`k`k`k`k`k`k`k`k`k`k`k`k`k`k`k`k`k`k`k`k`k`k`k`k`k`k`k`k`k`k`k`k`k`k`k`k`k`k`k`k`k`k`k`k`k`k`k`k`k`k`k`k`k`k`kax#0#0#0",
"#0#0#0aj#x`Z`i#U#U#U#U#U#U#U.T#U.T#U`m`Z`TaU.Z#z.u#r`f`f`faFaFaFaFaFaFaF`f`f`f`f`f`f.u`R.Z.ZaU#zaUaU`T`i.T#U#U.T#U#U#U#U.T#Uaj#0#0#0",
"#0#0#0.4ay.Haf.8.wacac.w.w.wac.wacacaV.P#Q`6`Naw`Z`o#6aB`L`LaB`L#6`L`L`LaBaBaBaB.WaLab`0.naw#x`6`6ap`u.r.8acac.oacac.w.wacac#k#0#0#0",
"#0#0#0.4.q#C#2acacac#.acacacac#J#.#.`W`uap`6`Naw.U`Z`o`LaBaBaBaB.`aBaB#FaBaBaBaBaB`oab`0.U`0.U#x`6ap`uakacacac.oacac.w.oacac#k#0#0#0",
"#0#0#0ajaz#Z.lac#..w.w#.ac.w#.ac#.ac`W`uap#x`N`N`6.nab.BaBa`aB.YaBaBaBaB`L#6aBa``Lab#R.naw`0#x#x#x.P.P#Z#7#.#.#.ac.wac.wacac#k#0#0#0",
"#0#0#0aj..aq#7ac#.#J.w#.#.#.acacacac`W.Ha4`Naw.U#x.U`0abaL`L`.aBaBaBaB.`aBaBaB`.#r`T.E`0`0.n`6ap`N.P`u.Ha1#.#.#.acacacac.w.w#k#0#0#0",
"#0#0#0.4ay.0#7.w#..o#.#.#.ac#.#.#.acafana4`6`6.U.U`0`0#z#saL`..eaB.YaBaB`L`L.`#v`OaU.E.nawawawapapa4`u#Z#2#.#.ax#..w.w#..wac#k#0#0#0",
"#0#0#0.4#t#t#G.wax#.#.#.#.#.ax#.#J.w.L`uana4.P#xawaw`0#d.Z`7aL`.`La``.aBaB`.a``e#z.E`0.U`N`6`6apap.P`u`u.c#J#.#.#.ax.w#J.w.w#k#0#0#0",
"#0#0#0#z#ta0`Wa1#.#Jaxaxaxaxaxax#.#J.L.Ha.a.a.`6alaw.U`h`R#u#r`2`L#v`.`LaB#v#v`O.Z`Z.U#x`N`Napap#Qa4.H.H#Gaxaxax#.ac#.acac.w#k#0#0#0",
"#0#0#0.4#V#t`t#J#..w.w#.#..w#.ax#..waf#C`Q`Q.x.tae#x`6#R.Z.Z.4`e`L`2#v`L`L#vaJ`q#d.n#xawap#Qan.Hanan.H.H#b#Jac#.#..w#..w.oac#k#0#0#0",
"#0#0#0#z#V#V#qa1#.ax#.#.#.#.#.#.#..w`Waq.x#j`Qa.a4a4ap.U.E.Z`R#s`2`SaJ#v#vaJ`7#z#R#x`N`N#Qan`G#w`Gana.#Z#G#.#..w.w#..w#..w.w#k#0#0#0",
"#0#0#0.4ayay.0a1.w#.#Jaxax.zaxax#..w`W`E#jaz`E`Qa.anan.P.naUaU#u#r`2aJ`2`2aF.7a#aw`N`6ap.ta.#wa.an.HaR#Z#G#.#J#J#Jac.w#..w.w#k#0#0#0",
"#0#0#0aj.x..#V`Ba1.8#.#.#.#.axac#..w`W`Eaz.qaz.xaRa.ananal.n.E`TajaFaJ`##r`O`T.U`6`6#Qana.#wa.#w`G#wa..H.c#.acac.w#.#..w#..w#k#0#0#0",
"#0#0#0#u.taR.t#H#ba1#.ax#.#.#.#.ac.w#laOazay.q`E.xaRa.`G.P#x`0#R#z.u#r#r`O.u.n`N#Qa4.ta.a.`Q`Qa..H.Ha..H#2#J#J#J.w.wacac.w.w#k#0#0#0",
"#0#0#0#Xaw#waO#2a1a1.z#.axaxacac#..w#lazazayay..#N`QaRana4#x.U.U.E#u#y.BabaU#xapapapanaR`Q.x`Q`Qa.#wan.H#2#.#J.wa1.w#J.wac#..4#0#0#0",
"#0#0#0#z#j.taf.c.z.z.zaxax#.acac#..w.0aO#5#5ayaz`E.x`Qa.an.P#x.n.E.Zac.c.Z.E#x`6an.ta.`Q`Q#j.xaRa.#wan.Ha1axax.wa1.w#J#J#J#.#k#0#0#0",
"#0#0#0aj#waO##a1ax#.ax.z#J.w#..z#.a1.0...q#Vayaz`E..aq`Qan#Q#x`N.n`3#b.C.Z.E`6a4a4anaR.x.x#j.x`Qa.`Gan.Ha1ax#J#.#.#J#J#J#J#J.4#0#0#0",
"#0#0#0aja4.h.0a7#2#2.z.w.z#J#J#J#..w.0azay#Vayaz..`E`Q`Qana4`6#x.naU#B.d.Z`0`N`6ananaR#N.x.x.xaRa.an.H.H.z#J#J#J.w.z.z#J.z#J#k#0#0#0",
"#0#0#0.4`G###l#G.zax#J#J#J#J#J#Jaxa1.0azayay#V.qaz`E..a.a.a4`6#x#x#R.r`T.Z`0aw#Qa4`G`Q.x#N#N.x#waRa.`u.ra1ax.z.z.c#J#J#J.c`k.4#0#0#0",
"#0#0#0#z##.0a7a1.zax#J.w.w.z#J#J#..z`taz#Vayay.qazaz..`Qan`u#Q`6.U#Rak#z.Z`0aw`N#Q`G`Q.x.xaq#H`Q#wa.`uaT.z.z.z#.#J#J#J.z.z.c#k#0#0#0",
"#0#0#0.4ac#J#.#Ja1.z.w.w#J#J.w#..za1.r..ay#V#V.qaz`E`E`Qa.a4ap`N#x#R#Z#z.Z`h.U`6ap`GaR#j.x.x`QaRa..H.P.Q.zax.c.z.z.z.zax.c#..4#0#0#0",
"#0#0#0.4.z.z#J.zax.z.z#J#J.z.z#.axa1aq`E#V#Vayayaz..`E`Q`Ga4ap`6aw#Rak`R.Z`h`0`N#Q`GaR.x#j.x`QaRaRa..Na7.zax.zax.z.z.zax.z#.#k#0#0#0",
"#0#0#0#k.c.zax.z.zax.z.z#J.z#J#J#.#J.raz#5#t#Vayay.q...xana4a4ap`N.E.r#z`s`h`0aw#Q#waR`Q.x`Q`Q`Qa.`GaN`Yaxaxax.c.z.z.c.c.c.z.4#0#0#0",
"#0#0#0#kax.zax.z.c#J#Jax#J.z.z.z#Ja1.r.qay#t#V#V.q.q#q#Na.a4.Pap`N`0aT`3.k#d`0`0#Q`GaRaR.x.xaRaRaR.t.H.caxaxax.z.z.z.z.z.c.z#k#0#0#0",
"#0#0#0#k#J#J.z#J#..z.w.c.z#J.z#J.z#Jaqaz#V#t#Vayay.q..#NaRanapap`NaA#Y#e.Z`s`0`0`N.taRaR.x`Q`Q`Qa.`u#Z#2.z.c.z.z.z#Jax.c.c.c.4#0#0#0",
"#0#0#0#kaxaxax.z.z.z.w.z#J.z#J#J.z.z`t..#V#t#t#V#Vayaz`Ea.anap`6`NaU#Ga6.R`s`haw`N.taRaRaR.x.x.x`Ga4.r.c.z.z.c.c.c.c.z.z.c.z#k#0#0#0",
"#0#0#0#k.zax#J.z#J.z.z`k.z#J.caxaxa1.raz#V#t#t#tay.q.q#N`Qanap`6.UaA.z.C.R`s`h`0`N`GaRaR.xaR`QaRa..PaG.z.c.c.z.z.c.zah.c.z.c.4#0#0#0",
"#0#0#0.4ax.z.z.c.z.z.z.z#J.z.z.z#.a1`taz#5#taD#V#Vay.0..#Ha.ap#x`0#x.c.r#X.k`h`0#Q.taR.x.x#waR#w.t.P`W.c.c.cah.zah.c.cah.z.z#k#0#0#0",
"#0#0#0#kaxax.z.z.c.c.z.c.zax.c.z.c.caq..ay#t#t#t#V.qazaz.x`Q.P`N`h#Z#b`k.R`s#daw`N.taRaRaRaR`G.t.tal#Y.c.c#b.c.c.cah.c.cah.c.4#0#0#0",
"#0#0#0.D.4#k#k#k#k.4#k#k.4#k#k.4#k#kajaj#z#zaj.4#z.4ajajajajajaj#uaj.4.4.5#g#u#X#u`Raj#zajajajajajaj.4.4#k.4.4.4.4.4#k.4#k#k.D#0#0#0",
"#0#0#0#0#0#0#0#0#0#0#0#0#0#0#0#0#0#0#0#0#0#0#0#0#0#0#0#0#0#0#0#0#0#0#0#0#0#0#0#0#0#0#0#0#0#0#0#0#0#0#0#0#0#0#0#0#0#0#0#0#0#0#0#0#0#0",
"#0#0#0#0#0#0#0#0#0#0#0#0#0#0#0#0#0#0#0#0#0#0#0#0#0#0#0#0#0#0#0#0#0#0#0#0#0#0#0#0#0#0#0#0#0#0#0#0#0#0#0#0#0#0#0#0#0#0#0#0#0#0#0#0#0#0",
"#0#0#0#0#0#0#0#0#0#0#0#0#0#0#0#0#0#0#0#0#0#0#0#0#0#0#0#0#0#0#0#0#0#0#0#0#0#0#0#0#0#0#0#0#0#0#0#0#0#0#0#0#0#0#0#0#0#0#0#0#0#0#0#0#0#0"
};
