/* XPM */
static char *_4_frame_4[] = {
/* width height num_colors chars_per_pixel */
"    66   100      256            2",
/* colors */
"`` c #170e13",
"`. c #3bbc76",
"`# c #408b4f",
"`a c #75c188",
"`b c #274c42",
"`c c #96c08c",
"`d c #8ec7b9",
"`e c #5e8b5f",
"`f c #3c8159",
"`g c #609b66",
"`h c #693829",
"`i c #b2ceb6",
"`j c #6f4c36",
"`k c #9e9a66",
"`l c #685e40",
"`m c #8eead3",
"`n c #5f7d73",
"`o c #7aa25e",
"`p c #5b2c20",
"`q c #2e2825",
"`r c #868686",
"`s c #835c47",
"`t c #e4e296",
"`u c #8a795f",
"`v c #7da986",
"`w c #9a8636",
"`x c #b9a381",
"`y c #eeeaba",
"`z c #876a3c",
"`A c #97794c",
"`B c #6bd18f",
"`C c #afaaa4",
"`D c #28433d",
"`E c #b5962e",
"`F c #c3ba3d",
"`G c #50281c",
"`H c #e6f2f2",
"`I c #beba46",
"`J c #39513d",
"`K c #946751",
"`L c #439b5b",
"`M c #ccb18f",
"`N c #89543f",
"`O c #a37660",
"`P c #342e27",
"`Q c #57d28e",
"`R c #2f1512",
"`S c #b68a22",
"`T c #8eaa7a",
"`U c #babab4",
"`V c #4c6d44",
"`W c #d4bfb0",
"`X c #b6b6b2",
"`Y c #563c2c",
"`Z c #c8c652",
"`0 c #74daa4",
"`1 c #92ead2",
"`2 c #794a35",
"`3 c #cdc97d",
"`4 c #af9469",
"`5 c #4b4d3a",
"`6 c #52bc81",
"`7 c #4c4127",
"`8 c #8d5b43",
".` c #7e5642",
".. c #c4ae8c",
".# c #907050",
".a c #6b402e",
".b c #4a342a",
".c c #3fa45e",
".d c #70c292",
".e c #a07e60",
".f c #959fa3",
".g c #cabd9e",
".h c #be9a3e",
".i c #a48b79",
".j c #76706b",
".k c #47281c",
".l c #b2c69e",
".m c #a2b68a",
".n c #dbc8af",
".o c #dbd1ae",
".p c #432117",
".q c #733e2d",
".r c #ae9e42",
".s c #6facac",
".t c #d4dcdf",
".u c #4b5832",
".v c #c7a393",
".w c #e2da9e",
".x c #423131",
".y c #b0aea9",
".z c #a87c5a",
".A c #4ec877",
".B c #b18773",
".C c #59a86e",
".D c #6ae0b3",
".E c #987660",
".F c #9d6f52",
".G c #af9476",
".H c #7eb672",
".I c #765242",
".J c #726a63",
".K c #856850",
".L c #92ac82",
".M c #7f897c",
".N c #b3a18c",
".O c #b4bfc1",
".P c #253a36",
".Q c #86cad6",
".R c #281e1e",
".S c #b1a450",
".T c #97614d",
".U c #42584a",
".V c #bcb0a2",
".W c #3faa65",
".X c #6c615e",
".Y c #cdbea4",
".Z c #6d5451",
".0 c #ad8269",
".1 c #1e2024",
".2 c #d1c6a6",
".3 c #b28c8d",
".4 c #9a8652",
".5 c #5a4444",
".6 c #e3dec6",
".7 c #bc9771",
".8 c #74be96",
"#` c #9b6852",
"#. c #90624d",
"## c #d5cfbc",
"#a c #9d705f",
"#b c #6eaf81",
"#c c #c2a296",
"#d c #2e1c1a",
"#e c #5c4f38",
"#f c #3e4129",
"#g c #eacfca",
"#h c #a59489",
"#i c #53c589",
"#j c #7ecad2",
"#k c #343230",
"#l c #7f4d38",
"#m c #4cb06d",
"#n c #847a73",
"#o c #668252",
"#p c #3a2722",
"#q c #513327",
"#r c #beaa95",
"#s c #43c47a",
"#t c #a07f7a",
"#u c #577b56",
"#v c #8ad29a",
"#w c #c5b6a5",
"#x c #b6b2ad",
"#y c #5c3424",
"#z c #bfbeb8",
"#A c #bdb35a",
"#B c #856860",
"#C c #92be96",
"#D c #cdbc92",
"#E c #494246",
"#F c #6c4634",
"#G c #724430",
"#H c #826059",
"#I c #a5a08b",
"#J c #977f76",
"#K c #786158",
"#L c #918a7f",
"#M c #373735",
"#N c #bb8d79",
"#O c #ccb2a7",
"#P c #595a3c",
"#Q c #58b67c",
"#R c #614631",
"#S c #b6978c",
"#T c #a8abab",
"#U c #55ce8a",
"#V c #dfddde",
"#W c #a8a5a1",
"#X c #8a9e86",
"#Y c #a97c67",
"#Z c #bf9789",
"#0 c #b2b2ad",
"#1 c #6a785c",
"#2 c #859595",
"#3 c #80c0c8",
"#4 c #936966",
"#5 c #bea299",
"#6 c #90716a",
"#7 c #6e5146",
"#8 c #baa171",
"a` c #8e5d4d",
"a. c #56d296",
"a# c #c9c7c0",
"aa c #1f191b",
"ab c #c2c2c2",
"ac c #c9bab4",
"ad c #c0c6bb",
"ae c #969594",
"af c #af7e69",
"ag c #9f6961",
"ah c #ab8b60",
"ai c #5d4e4c",
"aj c #85e9ca",
"ak c #6de2ca",
"al c #3a3f35",
"am c #5b5a56",
"an c #b18e79",
"ao c #fefefe",
"ap c #603e2e",
"aq c #b4a39b",
"ar c #6a9a9a",
"as c #c3ada4",
"at c #ae8276",
"au c #7ce4c8",
"av c #81ce93",
"aw c #b9b13c",
"ax c #777a7b",
"ay c #82aab0",
"az c #628888",
"aA c #83624c",
"aB c #967e66",
"aC c #8d5551",
"aD c #3db36d",
"aE c #a5b2b1",
"aF c #c8c1ba",
"aG c #365f43",
"aH c #baaaa1",
"aI c #d5d2d3",
"aJ c #8b6266",
"aK c #97bebd",
"aL c #774531",
"aM c #e0e4e9",
"aN c #794e39",
"aO c #a37262",
"aP c #c5cfd2",
"aQ c #856f65",
"aR c #775d48",
"aS c #506a68",
"aT c #9b8978",
"aU c #433a29",
"aV c #7f523d",
"aW c #848282",
"aX c #46bd79",
"aY c #bfc7cc",
"aZ c #c1c2bb",
"a0 c #ecedee",
"a1 c #4d794b",
"a2 c #ad978a",
"a3 c #aaaaa2",
"a4 c #8cb0b4",
"a5 c #a57675",
"a6 c #60dbaf",
"a7 c #36211b",
"a8 c #000000",
/* pixels */
"aoaoaoaoaoaoaoaoaoaoaoaoaoaoaoaoaoaoaoaoaoaoaoaoaoaoaoaoaoaoaoaoaoaoaoaoaoaoaoaoaoaoaoaoaoaoaoaoaoaoaoaoaoaoaoaoaoaoaoaoaoaoaoaoaoao",
"aoaoaoaoaoaoaoaoaoaoaoaoaoaoaoaoaoaoaoaoaoaoaoaoaoaoaoaoaoaoaoaoaoaoaoaoaoaoaoaoaoaoaoaoaoaoaoaoaoaoaoaoaoaoaoaoaoaoaoaoaoaoaoaoaoao",
"aoaoaoaoaoaoaoaoaoaoaoaoaoaoaoaoaoaoaoaoaoaoaoaoaoaoaoaoaoaoaoaoaoaoaoaoaoaoaoaoaoaoaoaoaoaoaoaoaoaoaoaoaoaoaoaoaoaoaoaoaoaoaoaoaoao",
"aoaoaoaP`r`r`r`r`r`r`r`r`r`r`r`r`r`r`r`r`r`r`r`r`r`r`r`r`r`r`r`r`r`r`r`r`r`r`r`r`r`r`r`r`r`r`r`r`r`r`r`r`r`r`r`r`r`r`r`r`r`r#LaMaoao",
"aoaoaoaWaa.xam#I.Xap``ai#0#0#0#T.faxax#n#K.5.J.k#RaA#BaR.IaRaR.I.I.IaR.Z#7`Y.Z.5`YaU#e.j`raWaa``#d.1#M#Eai#TaW`r`r.M`r`r`r`r`5`Uaoao",
"aoaoaoaW`q#E.jaI#4`j#d.JaMaIaP.t.yal`ka2`4`u.N`j`s.E#B#F#FaJ.F#a#a#4#7`Yap`jaBaRaR.I`za2aFae#ka7#d.R#E.5.J`HaMaI.taPaIaI.taMax`Xaoao",
"aoaoaoaW````.jac#6aJ.`#xaMaMa0`HaE#Eaea2#h.i.NapaCaN.ka7.pap`8`K`K`2.p#d.p#R#h`laRaR.#aT#K#M.R.1aa#d.5.5am#VaEaE#T#Ta4aE#T.Oax`Uaoao",
"aoaoaoaW``aa#WaF#S.3#6.w.2aFaYaM.y`5#h#I`4a2.N.baV#4`j.k#qap`s`O#a`2#y`GapaAa2.KaR.K.E.i.Z#pa7#da7.x.b.5.Xa0aI.t.t.t.t.taP.tax`Xaoao",
"aoaoaoaW``#L##aq#ha2`x`3`t`yaZaI#W`5.N.NaT#8.N.b.a#aa5aJaJ#`a5.3.B#6#4#HaJ.e.N#K#K`uaB.G#K#da7a7#p#p.R#p.JaMaPaYaYabaYaYaP.tax`Uaoao",
"aoaoaoaWaa##.N.S.r.r.S#D`Z`taMaM.f`5aH`xaT#waH.x.kagaf.Bafaf.3#N.Ba5.Bat`O#S`x.J#B`AaBa2.X#p.Raa.R#d.x#p.5#n#x#0.yaEaE#0#TaPax`Xaoao",
"aoaoaoaW#M`xah.Sawaw#A#8`x.w.6a0ae.Jac#r`4#D#I`7`R#.aOafa5#`.B#Z#Zag`8#a#6..#r`uaQ`uaT.N.X.x#d`R#d#pai`R.x#EaPaMa0aMaMa0aM.t.j`Xaoao",
"aoaoaoaW`l#LaB`E`Faw.r`w`4#S`U#Vaeae.g#0`x#D`xai`R#l.T.T`N#l.B#Z#NataNaL`N.v#raTaBaBaTa2#B.5`Y#y.`.5.5.5#q.5.jaEaE.f#TaEaE.t.j`Uaoao",
"aoaoaoaW#K#J`4.r`I`F`Faw.4aT.N#V.y`XaF#w`x..`x`l`R#y#l`h.qaCa`.TaJaC`8.a.`#r.N#I.4.4#I#I#6.b`R#d.p.k#p.x.x#p.j#0.O.O`XaEaPaMax`Xaoao",
"aoaoaoaW#7#H`4.S`I`Zaw.Sahanaqa0a#aF.2#w#r`M`x.K.x`R#l#l.q.qaCa`a`aN#y.aaA.vaT.N#h.4aq#haWaiap.e`z.`#p`R`R#pamaMaMaMaMaMaM.t.j`Uaoao",
"aoaoaoaW#B#SaB.4#A`Z`Zaw`u.z#Sa#.ta#.2#w#8#8`x.##q`R`G#laCaCaCa`aJ#laC.I#Ra2`ua2.i.iaqa2.Jai#R`E`E.#`Raa.R`q#E#T.f#T.f.OaM`Hax.Oaoao",
"aoaoao`r.`#a.K.5aU`u`V#faR#Ba5##.taP.g#w`x.G.G.4.a`R`R`h#laCaCaC#l#l.`.a#da2.j#h.4`4aqaq.j#e#7.h`S.a`R``.R`q.jaP.t.taP.taMaMax`Xaoao",
"aoaoaoaW`jaJaR#K.1````#p.I#4#Ja#aI##.g.g`4ah`A.G.`.p`R.p#G`8a`aCaCa`.I.p`R#haQ.4aBaT`x..#n.jap`S`w`Y`Raaa7.xaI#VaMaMaM.t`Ha0ax`Xaoao",
"aoaoao`raiaR#K.Z.Raa``#paR#B#J.6aIa#.g.2a2ah`A.0.#.p`R.p`paLa`.T.T`8`p`R#d#haB.e.#.4`x`W.2#O#r.v#c.3#B#qa7aWaP.OaEaEaE.taMaMal`Xaoao",
"aoaoao`raW#K#KaU.R.1.1.b.X#6aH.6.o.2#w#D#8.4.#.F.e#q.p.p`G`G`p`h`h`p.k#d`Y#h.4.K.K.4#r`W.g..#8#N#8.vas#O#S#g#V.t#VaY#T.OaP`n.1`Xaoao",
"aoaoao`raW.X#K#WabaYaP`U.i#w.n####.2.g.....4.#.I`O#G`G`G`G`p`p`p`p`p.p.p`u`jaQ`l`s.4...2.Ya2.i.B.B#S#Z#Z#5#OaF#V.taP.O`X#2.O.j`Uaoao",
"aoaoaoaW.X.baQ#da7`qaU#n.n#O#w.o.2.2#w`3`x.4.``j`z.a`h`p`p`p`h`p`h#y`G`G`j#y#R`jaA.4...2.Y`4.E`Oa5af#N#N#N#Z#c`WaMa0a0aMaEax#k.Oaoao",
"aoaoao`rala7aJ.Zai#M.5aq#O#r`M.o#D.g.Y.2#8.#`s#F`j`saN.q.q.q.q#G.q.q.q.a#yaN#y`YaR`u...n.2`x`O`OaO.FaOa5af.B#N#Zasaeaiaa```````Xaoao",
"aoaoao`r#k.5#J#Hap#K#Jas#c#S`W.Y.2.n.o#DaB.#.`#GaV`N`saC`8`N#l`2#l#la`a`a`#4`j.aaRaB...n#w#Daf`OaOag#`.FaOaf.B#N#Z#c#K.R#d`R``#0aoao",
"aoaoaoaW.X#h#Za5#t.ian#S.B.v#w#D#D.2.2#8`u`zap.a.`a`a`.T.T#..T.Ta`.Tag#a#4#Y.`.IaA.4`M.2#D`M.7#`.T.TaC`8.Tagaf.B#N.vas#S#Saqai`Uaoao",
"aoaoaoaWa2#g#g#g#g#g#5.0.z.G#D`M#D`M.S.4.e`A`jaV`sa`#`agagagag#`agag#aaO`O#Y`K`s.`.K`M`M#D#c.7.FaVaLaL#l`8.Tag.z.B#N#Z.v#O`W.J`Uaoao",
"aoaoao`r#LacaFaFacac.i`O.#.z`M`M`M#8`A`zah.#aVa`#.ag#`#a#a#a#aag#a#a#a`O`O#Y`O.e.#`s..`M..#8.4.#aL`p`h.q`N`N.T.TaOaf.B#Z#Z.v.X`Xaoao",
"aoaoaoaWaW#TaEaEaEaEaTaO#`.#.v...vah.#`z`4.#`s`K.F#a#a#a#a#aaOaO`O`O`Oa5.e#Y#Y#Y`A`s`4..#8#8.F.``G`G`p`haL#l#l`N.T#`aO#Yat#N#7`Xaoao",
"aoaoao`r#2aY`i`i`i.O#t.F`z`Kah#8#8`A`z.e`4`z.#`O`Oa5#Ya5aO`O`O#Y#Y#Y#Y#Y#Y.B.B.B.0`z`4.7.7ahaAaN.p.p.p`G`h`h`2#laV`8.T#`aO`O.5`Uaoao",
"aoaoaoaW`na4a4a4a4a4aB#`.T.Fah#8#8.#`zah.7#``O#Yafaf.0.0afat#Y#Y#Y#Y.0.0.0.0.0.B.0.e.7`4`4.0`s.aa7`R`Ra7`G#yap#G`2aV`N`8.T#`#y`Uaoao",
"aoaoao`razaK#3a4aK.L`u.TaO`O`S.v`E.e.##8.7.F`Oaf#Yafaf.Bat.B.Bat#Y.i.B.e#Y#t.0#Y.0.e.0.hah`A`sap`q#k`P.R#p`p#y.a#G`2aV`N`8.T#q`Xaoao",
"aoaoao`razay`n.f#2ax#4.T.T`8.z.7`4`A.#.7ah`O.zafafaf.z.0at.B.B.i#Yat.B.0#Y.e.0#Y.z.0`Aah`A`A#.aU`VararaS#k#q#y.a`j`2#laV`N`8.b`Xaoao",
"aoaoaoaWaz`J#E#y.x`P`K.T.T`8`K.7`S.z`zahahafafafafafafaf.0.0#t.0#t.e#Y#Y#Y.z.0.0.0.z.zah`z`K`s#eay.s.s.8ar`JaU`Y.a`2#l`NaV`N.k`Uaoao",
"aoaoao#W#k#k#k#k#k#k#k#M#M#MaU#M#M#M#M#M#MaU#MaU#MaUaU#M#M#M#M#M#M#M#MaU#M#M#M#MaU#M#M#M#M#MaU#Malalal#M#M#M#M#M`P#M`P`P#M#M#M##aoao",
"aoaoaoaoaoaoaoaoaoaoaoaoaoaoaoaoaoaoaoaoaoaoaoaoaoaoaoaoaoaoaoaoaoaoaoaoaoaoaoaoaoaoaoaoaoaoaoaoaoaoaoaoaoaoaoaoaoaoaoaoaoaoaoaoaoao",
"aoaoaoaoaoaoaoaoaoaoaoaoaoaoaoaoaoaoaoaoaoaoaoaoaoaoaoaoaoaoaoaoaoaoaoaoaoaoaoaoaoaoaoaoaoaoaoaoaoaoaoaoaoaoaoaoaoaoaoaoaoaoaoaoaoao",
"aoaoaoaoa0a0a0a0a0a0a0a0`Ha0a0a0a0a0a0a0a0a0a0a0a0a0a0a0a0a0a0a0a0a0a0a0a0a0a0a0a0a0a0a0a0a0`Ha0a0a0`Ha0a0a0a0a0a0a0a0a0a0a0`Haoaoao",
"aoaoao#L`q.x#p#d`Ra7a7a7a7#d.x#k`q`P.P#f`b`b`b`D`b`b`b`b`b`b`b`b`D`b`b`b`b`b`b`b`b`b`b`b`b`D`D.P.R````a7.1.P`D`D.P`D.P.P`D.P.1abaoao",
"aoaoao`r#t.3aOaOaC#`#`.F#.#G`z`A`k`oav`1`1`1ajajakakakakakakakakakakauakakakauauajauajau`0`0`B`a#W#GaCat.ja4#j#3#3`d#3#j#3#3aS`Xaoao",
"aoaoao`raQat.TaCagag#`#``8#G`Y.k`o.Hav`1`majakak.Dakakakakakakakakakakakakakakakakakauau`0`0`B.8#LaJa5#F.Z.f#3.8#3#3#3#3#3a4aS`Xaoao",
"aoaoao`r#Ba5aOag#`.F.F`K`Nap`Ga7#1av`0ajajajaka6a6a6a6a6a6a6a6a6a6a6a6a6a.a6a6a6`0a6a6a6`B`B#U.8.X.I#t#4aJ#2#3#3#3.Q#3#3`d.fai`Xaoao",
"aoaoao`raQ.3#a#`ag#`.F#.aV`h.k`q#o#v#v`0`0au.Da6a.a.a.a.a.a.a.#U#Ua.#Ua..A#U#U#U#U#U#U#U#i#U.d.8#L.3#Z#S.3ae.Q#j#3#3aKaKaKaW`Y`Xaoao",
"aoaoao`r.E#Z#N#N.0#`#``8`2#y.k#p.m#v`0`0`B`Ba..A.A#s#U#U.A.A.A.A.A.A.A.A.A.A#s.A#s#i.A#i.A#i#i#baW#O#S#t.B.f#3#3.QaK.OaYa##wai`Uaoao",
"aoaoaoaW.E.v#Z#Zaf#`#``8aL#y.k`Y`U`c`B`B`Q.A.A#s.A#s#s.A#s#s#s#s#s#s#s#s#s.A#s#s#s`.#saXaXaX`6#b`C#g#O#t#6aEa4#3#3aY###Oas#Oai`Uaoao",
"aoaoao`raQ.v#Z#Z`O#`.T`NaL#y.kaB#A.m`B.A.AaXaX#saX#s#s#s#s#s#s#s#s#s#s#s#s#s#s#s`.aXaDaXaDaX.CaK.y`W#S#4.5aea4aEaEaP#O.i.v.v.Z`Xaoao",
"aoaoaoaW.Z.3#Z#N`O#``8#laL`p`p#w`C.l.H`6.A.AaX`.`.`.#s#s#s#s`.`.`.#s`.`.`.`.aD`.`.`.aDaD.W.Car#IaFaH#qap#F#4.3a2abaFaHat#c.v.Z`Uaoao",
"aoaoao`r#q#6at.0.z#``N#l.q#y.a.n`x`3.H#QaX`6aD`.`.`.`.aD`.aD`.`.aDaDaDaDaD.c.c.c.W.W.W`L`g`V#LaH#Z#H`pap#4a5.3`W#V#g.vaN#S#c.Z`Xaoao",
"aoaoao`r.k.Z#B.B.z`8`2aL.q#y`j`WaH.V.m`o.c#m#maD.W.c.c.c`L`L.c`L.c`L`L`#`L`#`#`#`#`#`#`V`5#R.3#S.B#4aCa5#4a5#O`W`W#Oai#ya5#Z.Z`Xaoao",
"aoaoaoaW#papaV#N.z`8aL`2.q`paN#O#raT`I.L`e`g`L`L.c`#`f`#`f`f`V`faGaGaGaG`J`J#f#f#f#faU#f#R#7.3.i#6#B#4agagaH.naF#O#B#d`Y#B.3ai`Uaoao",
"aoaoaoaW.5#7#6.B.z.`#G`2#G#y#6ac#O#BaT`k#e`7`5.u`J`b`D#f#f`J#e#RaNaN#laN`j`jap#y.b#q#y#yapaRacasaH#5#S#5#Zas`W`WaHaQai.X#6#c.Z`Uaoao",
"aoaoao`r`raT.e.B`A#.aN`2.a#ya2`W.VaT#JaBaA#G.q#y#y#yap#G#l#laLaNaNaNaNaN`2aL#G.a`h`h`h.a#F#4#V#V#V#V#V#VaIacacaF.Vaxae#wacac.J`Xaoao",
"aoaoao`r#L.2.i.z`O`z.``jap#yacaZ#zaFaFac#h`jaN`2aL#G#GaL`2`2`2`2aN`2`2`2#G#G.a.aap.aap.a.a.ZaH#x.y#xas`UabacabababaZ`X#xac`W.X`Xaoao",
"aoaoaoaWae.V.0`O.F#.aN#Fap#HaF#z#zaFabaZ#w#7aN`2aLaLaLaLaL`2`2#l`2`2aL#G#G#G.a.a`h`hap#F`2.Z#h#x`X`U`UabaFabaFaFaZ#zaZabaFab.X`Xaoao",
"aoaoaoaW#L.N`A`O.FaAaN.a#qa2aFaZ#zabadaZaZ.K`2`2aLaLaLaLaL#l`2#laN`2aLaL.q#G`h.a`h`h.a.aaLaN#B#x`XabababababaFaFabaFaFaFabaY.J`Uaoao",
"aoaoao.M#L.i.z.F.F`s.I#R#Rac#z#z#zababadadaB.IaLaLaLaLaL`2aL`2`2`2#GaL.q.q`h#G.a.a.a`h#G`2aN#Hasa#a#ababaFaFaba#a#adadabab#z.J`Xaoao",
"aoaoao`r#L.eaO.F#``s`2ap.Kababab#za#adabad.i.IaNaLaL#l`2`2`2#l`2aLaL#G#GaL.a.q#GaL#G.a#G#FaNaR#WaYabaFaba#ababaZaFa#aFa#ab#z.X.Oaoao",
"aoaoao`r#L.#.F.F`K.``jap#hac#z`Uad#z#z.O`U#h.`#l`2`2#l`NaV#l#l#l`2aLaLaL`2`2aLaL`2#G.a.a#7.I.Z.L`iababababadadaZadababa#abaY.J`Xaoao",
"aoaoaoaW#n`O.F.F.TaV#G#R.V`UaZ`U#z#z#z.O#zaT`s#l`2#l#laVaV#l`2#l`2aL`2#l`2aN`2aL`j#G#F#F`2#7.j#X#C.OadaZababaZaFa#adababaF`U.X`Uaoao",
"aoaoao`raQ`A.F.F#.#l`jaQaFaZ#zabadaZaZaZaZaTaR.``2`2aVaVaVaV#l#l`2.`aL`2`2`2aLaL#GaL`jaL`2#e`v`e#C#L#z#zabaZaZaZaZabaFab#zaZ.J`Xaoao",
"aoaoao`r.J`O.F#``8`2#Fa2#zaZaZ#z#z#zaZaZaZ.4aA`N`2#l`2#l#l#l#l`2`h#G`p#G`2`2`2aL#GaL`2`2`2#1#b#b#XaQ#W#z#zaZ#z#z`U#z#z#z#z`U.X`Uaoao",
"aoaoao`r#K.z.F#``N#F.I#z#z#z#z#z#zaZ#z`U`Uae`s`N#l`2#l#l#l`2aL`j#F#G.aaL`2`2aL`2aLaNaN`j#P.H#Q#b#K`saBacaZ#z#zabaZab#zab#zab.J`Xaoao",
"aoaoao`r`laf.F#``N#FaB#z#z#z`U`X`X`U#z#z`X.m`l`8`N#l#l`2aL#G#G#G`2.`#l`2`2#GaL`2#G`2.Iai#b.8#b#PaV.I#Baq#z#zac#z#zaFaFab#z#z.X`Uaoao",
"aoaoao`raR.0`O.TaV`j#5#w#z`U#z`U`U`U#w`X#X`i#o`laVaV#l#l`2#GaLaLaN#l#l#laNaL#GaL`2`j`j`eav.8#P.a`j`j.`aTac`U#z`U#zab#z#z#z`U.X`Xaoao",
"aoaoao`raQ`x.7`A.IaQ`U`Xac`X`U`U.O.l#w.V`u`T`c#o#PaV#laN`2aLaL#GaN.I`2`2aN`2#GaL`2#P`e.d#i#1ap.a`j.I.`aQaq`U#z#z`U`U`U`U`U`U.X`Uaoao",
"aoaoaoaWaQan.e#.#6aq`U`U`U`U`X`U`X`U.O`U.K`z`T`c`g.u`jaNaLaLaLaLaL`2aLaLaL#G#G#F.u`v.d.d.C`5.a`j#G`j.`#Baq`U`X`U`U`U`U`U`U`U.X`Xaoao",
"aoaoao`r.x`7.b#p.xamamamam#P#P#Pam#P#Pam.x#p`P.uaG`J`q`qa7.pa7#pa7a7a7a7a7a7a7`q`JaGaGaG.Pa7a7#pa7a7#p.x#Eamamamamamamamamam#k.Oaoao",
"aoaoaoa0aYabada#abababa#ababababababaZadaZaZadadaZadadaZaZaZaFaZaFaFaFa#aFaZaZadaYadadaZaZabaYabaYa#ababa#aYababa#aba#ababaYa#a0aoao",
"aoaoaoaoaoaoaoaoaoaoaoaoaoaoaoaoaoaoaoaoaoaoaoaoaoaoaoaoaoaoaoaoaoaoaoaoaoaoaoaoaoaoaoaoaoaoaoaoaoaoaoaoaoaoaoaoaoaoaoaoaoaoaoaoaoao",
"aoaoaoa3aeaeaeaeaeaeaeaeaeaeaeaeaeaeaeaeaeaeaeaeaeaeaeaeaeaeaeaeaeaeaeaeaeaeaeaeaeaeaeaeae#Laeaeaeaeaeaeaeaeaeaeaeaeaeaeaeae.yaoaoao",
"aoaoao`qaR.I.5.Jaxaxaxaxaxaxaxaxaxax.j.J`Y#y#q#q`G`p#p#fa1`f`f`f`f`f`f`f`f`f`f`f`f`f`J`P.x`G`G.k.b#q#q`Y`Y.jaxaxaxaxaxaxaxax`Paoaoao",
"aoaoao#k.B`Oa``x#x#0.y#x`X`X`X.y#0#0`Xa2`s.``2#GaNaV`2`Y`e`6#s`6#s#s#i#i#i`6`6#i#s`6.uap.a#G.a#G`j`2.`.`.Kaq#0#0#0#0#x#x#x`X#Maoaoao",
"aoaoao`P.0`O#.aH#x`X.y#0`X#0`X`X`X`X`X#IaA`s#l#G#G`j#G.aaU`g#maX#i#i#s#i#i`6`6#iaD`g#f`h.a.a#G`2aNaN.I.`aA.N`X`X`X#0`X`X`X#0#Maoaoao",
"aoaoao#k.B.z#a#r.V`X`X#0#0#0`X`X`X#0`Xa2`s.`aVaN`j.a#G.q`Y#far#maD`6aX`6#i#i#Q.A#m`V#q`h.q#G#G`2#l#l.``s#H#h#0#0#0`X`X#x#x#x#Maoaoao",
"aoaoao#k#Nan.B#S.y#0#0.y#0#0aE.yaE.y.y#h`s`s`N`NaNaL.q`h#y.x.u.C#m`6`6aD`6`6#QaX.C`P`Y.a#G`2`2aV#laV.``s#H#h.y.yaE#0#0#0#0#x#Maoaoao",
"aoaoao`P.0#Nan.i#r.y.y#0aE#0.y.y#0#0#0a2aAa`#.a`aVaNaN#G`h.k#paS`L#m.C#m`6`6#m.W`V.k`Y.aaL`2#laV.``NaC`s#H.i.y#0.y#0#0#0#0#x#Maoaoao",
"aoaoao`P.B.0.BaB#W#0.y#x#0a3#0#0#0.y`X#h`z#.`K`K`8.I.I`2.a#q.k`q`e#Q.c#m#m`6#m`L.P`G#R`jaL#l#laC`s`s`8#HaA#h`C`X#0#0#x`X`X`X#Maoaoao",
"aoaoao#M.7.B.0.E`C#0.y#0#0`X#0.y.y#0#0a2#4.F#`#4#.`saV.`aN`h#q.xalar`L.c.C.C`L#u`PapaL`2`2aV`8a`a``8`8`8`K.i#0#0#0`X`X#x#0`X#Maoaoao",
"aoaoao#k.B.0.0#Yaq`X.y#0#0aEa3a3#0aE#xa2.##aaO.F`K#.`8`s.`#G#y#y`P`V`g`L.c.C`#.u`7`2`2#l#l`Na`a`a`a`#Ha`#B#h#0#0.y.y`X#0#x#x#Maoaoao",
"aoaoao`P#Y.TaO`O#c#r`X`X.y#0#0#0`X#0`X#h#a`O#Y`O.F`K`8`8`saV#FapaU`q#u`e`#`#.u`7#F`2#l`N`8a`#.`KaJ`8a`a``s#h#0#x`X#0#0#x#x#x#Maoaoao",
"aoaoao`P#a#l.TaCaJ#haH#0#0#0#0#0`X`X`X#h#a`O#Y`OaO#`#``8`8.``j.a.a`Y.Pa1a1`V`Pap`j`N#l.``8a`.T`K#.a`aJa`#H#h`X.y.y#x`X`X`X#x#Maoaoao",
"aoaoao#paC.q.T#a#SaH.V.ya3#0aE#0`X#0#x.i`O`Oafaf`O.F`K`K`8`s#l`j.a`h`q#1.M.u#q`j#laVaC`8#.`K`K#``Ka`a`a``s#S.y.y#x#x.y#x#x#x#Maoaoao",
"aoaoao`PaOagaC#J`C#Wa3.ya3.y`X`X`X`X#0.i#a#Yafaf`O.F#``K#.`saV`2`j.a.k#Ia3aU`h`2aV.``Na`.T#`ag`K`Ka`a`a`aAaq#x.y#x#x#x.V.y.y#Maoaoao",
"aoaoao.xag.TaO#taH.yaEa3.y.y#0.y.y.y.VaTaO#Y.0#Y.zaO.F.F`K`8`NaN#G.a`Y#L#L.pap`2aV`Na`#.#4.F#`ag.T#.a``8aR.N`C.y.y#x.y`C.y.y#kaoaoao",
"aoaoao`PagaV.n#t.3aHaH`C.y`C.y`C.y.y#x#taO#Y.0af.z`O.F`K`K#..`aVaN#F`Y.K.j.p`h#GaV.``s#.`K.F.F#``Ka`a``8aR`C`C.y.y.y.y`C.y.y#Maoaoao",
"aoaoao`Pa5aga5#ta2aqa3.y.y.y#x.y.y#0aHaT`O#Y.0#Y#Y`O`A.F`K`8`saV.IaLap#K.Z#p`h`2#l`N`8.T#``K`K.F#.#.aJ`saJaq.y.y`C`C.y.y.y#W`Paoaoao",
"aoaoao#kaq.3#t.3.y`C.y#0.V.y.y#0.yaE.y#t#a#Y.0#Y#Y`O.z#a`K`8`saVaV`2.a`lai.k`h`2`2`N`8#`ag#`#`#``Ka`a``s`uaH#T`C.y.y.y.y.y.y#Maoaoao",
"aoaoao#M.y#0.y#x.V.yaH.y`X#x.y#x.y.yaHaB#a#Yaf.0#Y`O`O.F`K#.`NaV`2`2.a#7#R.k#y.q`2#l`8.Tag.F#4`K.T#.#..`#J`C.y#W`C.y`C`C`C#W#kaoaoao",
"aoaoao#M.y#T#T`C.y`C.y`C.y.y`C.y.y#0`CaB#a.0.0af#Y`O.z`O`K`8`NaV#laN.a.Z.5.k#y.qaL#l`8.T.T#`#``K#.#.#..IaT#W.ya3`C`C.y`C.y#T#Maoaoao",
"aoaoao#M.y#W#W.y#T.y#T`C`C.y`C.y.y.y#xaB`Oaf.B.0af.z`O.F.#`K`N.`.`aL.a#Hai.p`p.qaL#laC#.#`ag`K`K`K#.a``sa2.y#T`C`C`C#W#W`C#W#kaoaoao",
"aoaoao#M#0.y.y`C.y#W.y.y`C.y`C.y.y.y.y#J#a.0.B.0at#Y#Y`O.F`K`NaV.`#l.a#Bai.p`p`haL#l`8.T.T#`#`.T#.#.`8.Iaq#0#T`C#T.y.y#W`C#W#Maoaoao",
"aoaoao#k`C#0.y`C.y#0`C#x`C`C`C`C#T.yaHaB`Oaf.B.B.0#Y#Y.z.F`K`saV#l`2.a`u#K.p`p`h.q#l`Na``K#`#``K.T.T`saRaqa3a3a3.y`C`C.y#W`C#kaoaoao",
"aoaoao#M#T#T.y#T`C`C`C#0.y.y`C.y`C.y#W#J#aaf.B.B.B.0#Y`O#a`Ka`.`aV`2apaT.j.p`G`p.qaL`N.T.T.T#`#``K.TaC.Kaqa3a3#W#W#W`Ca3#W#W#Maoaoao",
"aoaoao#M#0`C.y.y.y.y`C`Cae`C.y`C.y.y#xaB`O.0.B.Bat.0#Y#Y#a`Ka`aV`2aL#y#h#n.p.p`h.q`2`N.T.T#`#``K.T`8`saQ`C#W#W#W#Wa3#W#Wa3a3#kaoaoao",
"aoaoao#MaE.y#T#W#W#T`C`C#W.y#T#W#T.y.yaB#aaf#N.B.0at#Ya5`O.F#..``2#Gap#I#L.p`G`p.qaL`N.T.T.T.T.T.T`N.`#J#W#Waqa3#W#W#W#W#W#W#Maoaoao",
"aoaoao#M.y#T#T.y#T#W#W`C#T#W`C`C`Ca3aqaBaO.z.B#N.Bat#Y#Y#a#4#.`s`2.q.Za2.f#p`G`p.q#l#l.T.T#`.T`8aCaC.`#J#W`C#W#W#W#W#W#W#W#W#kaoaoao",
"aoaoao#k#W#W#W`C#W#W#W#W`C#W#W#W#W#W#W#JaO.z.B#N.Bataf#Y`O.F#.aA`2`haQ#W#W.b.p`p.q#l`N`8.T.T.T`8`N`N.`aT#W#W#I#W#W#W#W#Wa3#W#kaoaoao",
"aoaoao#Ma3a3#T#W#W`C#Wa3#W#W#Ta3#Wa3#WaB.F.zat.B.B.Bat#YaO#a`K#H`2`h#J#I#W.5.p`p.q`N`N.T.T.T`8`8aC`N.`#h#W#W#I#W#W#W#W`C#W#W#Maoaoao",
"aoaoao`5#k#k#k#k#k#M#M#M#M#k#M#k#k#M#M`P`P`P.x`P.x`P`P`P`P#p`q`P`q`q#k#k#M`qa7a7`q`q#p`q`q#p`P`P`q`q`q#k#k#k#k#k#k#k#k#k#k#k`5aoaoao",
"aoaoaoaoaoaoaoaoaoaoaoaoaoaoaoaoaoaoaoaoaoaoaoaoaoaoaoaoaoaoaoaoaoaoaoaoaoaoaoaoaoaoaoaoaoaoaoaoaoaoaoaoaoaoaoaoaoaoaoaoaoaoaoaoaoao",
"aoaoaoaoaoaoaoaoaoaoaoaoaoaoaoaoaoaoaoaoaoaoaoaoaoaoaoaoaoaoaoaoaoaoaoaoaoaoaoaoaoaoaoaoaoaoaoaoaoaoaoaoaoaoaoaoaoaoaoaoaoaoaoaoaoao",
"aoaoaoaoaoaoaoaoaoaoaoaoaoaoaoaoaoaoaoaoaoaoaoaoaoaoaoaoaoaoaoaoaoaoaoaoaoaoaoaoaoaoaoaoaoaoaoaoaoaoaoaoaoaoaoaoaoaoaoaoaoaoaoaoaoao"
};
