/* XPM */
static char *_4_frame_3[] = {
/* width height num_colors chars_per_pixel */
"    66   100      256            2",
/* colors */
"`` c #120f11",
"`. c #3fc27a",
"`# c #408c51",
"`a c #60c87f",
"`b c #23473e",
"`c c #94be96",
"`d c #95c6a5",
"`e c #608c64",
"`f c #704833",
"`g c #7d7749",
"`h c #5a9b64",
"`i c #c3d0d2",
"`j c #869670",
"`k c #643423",
"`l c #705a4e",
"`m c #7da697",
"`n c #dede8a",
"`o c #18261a",
"`p c #b19e54",
"`q c #878785",
"`r c #338059",
"`s c #b19f79",
"`t c #92754c",
"`u c #5a2b1f",
"`v c #9d8750",
"`w c #dce4e9",
"`x c #384b2c",
"`y c #895642",
"`z c #bcab84",
"`A c #8e6447",
"`B c #9c735c",
"`C c #1f2e1b",
"`D c #ba921a",
"`E c #fefefe",
"`F c #386448",
"`G c #ccb48b",
"`H c #3d9d59",
"`I c #8ca078",
"`J c #4b4d2f",
"`K c #503326",
"`L c #b1b2ac",
"`M c #a6be92",
"`N c #6cd590",
"`O c #9d7d51",
"`P c #211111",
"`Q c #776b4e",
"`R c #ba8e1e",
"`S c #3d261f",
"`T c #aa9e4a",
"`U c #84513e",
"`V c #6eb2b8",
"`W c #3c2f2d",
"`X c #495b3f",
"`Y c #a99474",
"`Z c #98654f",
"`0 c #82c4cd",
"`1 c #38a863",
"`2 c #cac646",
"`3 c #59b77c",
"`4 c #d4c0a0",
"`5 c #b89670",
"`6 c #6e5249",
"`7 c #9ac6ce",
"`8 c #c6ac98",
".` c #a87d58",
".. c #c6b7a4",
".# c #bdbfb7",
".a c #594b30",
".b c #5b3629",
".c c #4c714a",
".d c #ac876f",
".e c #50663c",
".f c #92b7be",
".g c #82c1c6",
".h c #8f746a",
".i c #c6c65e",
".j c #796656",
".k c #47c079",
".l c #c2ad90",
".m c #703a2b",
".n c #784632",
".o c #31100a",
".p c #b6a383",
".q c #c2b595",
".r c #996b55",
".s c #d3c6a1",
".t c #d9d19a",
".u c #5f5553",
".v c #463a1d",
".w c #ccbf9d",
".x c #8a6b66",
".y c #84dfad",
".z c #86c59a",
".A c #c7a393",
".B c #6fa5a4",
".C c #764e3a",
".D c #babab4",
".E c #54cf8b",
".F c #7c6254",
".G c #96a195",
".H c #33302e",
".I c #afaaa5",
".J c #e2de92",
".K c #9e8865",
".L c #3bb069",
".M c #af8b8a",
".N c #653a2b",
".O c #bdb540",
".P c #596548",
".Q c #8eb292",
".R c #cac0ac",
".S c #96a88f",
".T c #a87a65",
".U c #975e4a",
".V c #beab98",
".W c #697375",
".X c #674833",
".Y c #5b4236",
".Z c #50281b",
".0 c #c9c7c0",
".1 c #78756f",
".2 c #795841",
".3 c #5c5b54",
".4 c #b89786",
".5 c #57a971",
".6 c #8f6e4e",
".7 c #cdb59b",
".8 c #b48671",
"#` c #a97f69",
"#. c #9d7f76",
"## c #dbcfae",
"#a c #885b47",
"#b c #eeeeb6",
"#c c #907c68",
"#d c #96887c",
"#e c #363735",
"#f c #a0968e",
"#g c #4db474",
"#h c #7c5b52",
"#i c #60d498",
"#j c #d8dcdf",
"#k c #2a603e",
"#l c #b0b6bd",
"#m c #a4745e",
"#n c #79b5be",
"#o c #4a271c",
"#p c #a8a6a3",
"#q c #866557",
"#r c #8f5c43",
"#s c #c2a194",
"#t c #8e7f7c",
"#u c #dcc7b7",
"#v c #71c58c",
"#w c #baaca0",
"#x c #bbb4ad",
"#y c #c3c1be",
"#z c #312316",
"#A c #685341",
"#B c #4bc877",
"#C c #b1935d",
"#D c #3c3837",
"#E c #7b7d7b",
"#F c #b2a397",
"#G c #9e897a",
"#H c #e6eabe",
"#I c #ead0ca",
"#J c #e9ddd9",
"#K c #af806b",
"#L c #593e30",
"#M c #51423d",
"#N c #375a3d",
"#O c #bfc7c1",
"#P c #7a9a92",
"#Q c #a06d66",
"#R c #b6b6b6",
"#S c #78dca7",
"#T c #a8aea6",
"#U c #d8d1cb",
"#V c #aa8b81",
"#W c #6c9570",
"#X c #7a8a62",
"#Y c #5a4744",
"#Z c #c39888",
"#0 c #253d37",
"#1 c #341b17",
"#2 c #656664",
"#3 c #6a5c51",
"#4 c #7a4a35",
"#5 c #507c4f",
"#6 c #3e3f36",
"#7 c #401d14",
"#8 c #271918",
"a` c #986562",
"a. c #928981",
"a# c #71412f",
"aa c #312727",
"ab c #a5746e",
"ac c #b0aea9",
"ad c #654246",
"ae c #b8c2ca",
"af c #4a4d4e",
"ag c #704e3e",
"ah c #7cb58c",
"ai c #6eba82",
"aj c #ab978c",
"ak c #9e7d63",
"al c #d6c8b8",
"am c #ceb7af",
"an c #d5c1b9",
"ao c #c2b7b0",
"ap c #99c0be",
"aq c #ab8957",
"ar c #8bb388",
"as c #67402e",
"at c #7abec2",
"au c #3db973",
"av c #a9aaa5",
"aw c #815743",
"ax c #a4b3ae",
"ay c #b68b74",
"az c #875d56",
"aA c #674c46",
"aB c #cebeb6",
"aC c #bea278",
"aD c #7b523c",
"aE c #9f6d57",
"aF c #c2bf80",
"aG c #8c947a",
"aH c #906352",
"aI c #bbb15e",
"aJ c #65ddb4",
"aK c #b6b4ae",
"aL c #ededee",
"aM c #4aa965",
"aN c #7d4e38",
"aO c #a6a19d",
"aP c #473029",
"aQ c #6ba66d",
"aR c #7a4230",
"aS c #4f393f",
"aT c #4ba062",
"aU c #8ab5ba",
"aV c #7d6c64",
"aW c #b8c0c6",
"aX c #959596",
"aY c #9c756d",
"aZ c #8f6a55",
"a0 c #506e74",
"a1 c #5c5046",
"a2 c #905e4d",
"a3 c #bba29b",
"a4 c #ac8e6b",
"a5 c #52c082",
"a6 c #b89795",
"a7 c #46271d",
"a8 c #000000",
/* pixels */
"`E`E`E`E`E`E`E`E`E`E`E`E`E`E`E`E`E`E`E`E`E`E`E`E`E`E`E`E`E`E`E`E`E`E`E`E`E`E`E`E`E`E`E`E`E`E`E`E`E`E`E`E`E`E`E`E`E`E`E`E`E`E`E`E`E`E",
"`E`E`E`E`E`E`E`E`E`E`E`E`E`E`E`E`E`E`E`E`E`E`E`E`E`E`E`E`E`E`E`E`E`E`E`E`E`E`E`E`E`E`E`E`E`E`E`E`E`E`E`E`E`E`E`E`E`E`E`E`E`E`E`E`E`E",
"`E`E`E`E`E`E`E`E`E`E`E`E`E`E`E`E`E`E`E`E`E`E`E`E`E`E`E`E`E`E`E`E`E`E`E`E`E`E`E`E`E`E`E`E`E`E`E`E`E`E`E`E`E`E`E`E`E`E`E`E`E`E`E`E`E`E",
"`E`E`E.0`q`q`q`q`q`q`q`q`q`q`q`q`q`q`q`q`q`q`q`q`q`q`q`q`q`q`q`q`q`q`q`q`q`q`q`q`q`q`q`q`q`q`q`q`q`q`q`q`q`q`q`q`q`q`q`q`q`qa.`w`E`E",
"`E`E`E`q``````.H#faAad.Y#taKaK#laxaXaa#2.1.F.j#caP#L.N#1`P#8`S#L.X.X.b#1`P#8`S.Fa1aS#L#A#3a1.H```P```P`SaSaa#p.W#2#2#2#2#2#2#6.D`E`E",
"`E`E`E#E``````#E#Uaja6#q.t.t.##y#j`i#6#d.p.K`Y.V#M#4aZ`f#oaP`K`U#Qab.C.b#o`u.2aj.h#A.F#ca4.FaP#z#8#1`WaP#Y#MaL#j`w`w`w#j`w#j.W#R`E`E",
"`E`E`E`q````#2.J.V`Y`Y`s.i.J#b.0`i.0#6aX.V.K`s.l#Y.b#Qaba`aza`.T.day#QaH.Faz#c.p`g`6`t#c`Y.F`Saaaaaa`W#1aaa1`w.0aeaeaeaWaWae.W#R`E`E",
"`E`E`E#E``#8#x`s`s`p`T`p`GaF.J#H`w#y#MaO.V#G.p.q#Y#1aZ#K.8#K#`.8ay.8#`.8#K.Ta4.V#c#A#..hajaV`W#1#8#1#8aPaa#MaV.I#lax#l#T#l`L.3#R`E`E",
"`E`E`E#E``#8aca4`paI.OaF`paC.t#J`w.Da1`L.qaj.q`z#A`P#h#Q.8ab#Q#K#Za6aYa2#Q#Q.4.q#G`l`O#t`saV`W#1#8#1#1.u`Pa7#MaWaLaL`waLaLaL#E#R`E`E",
"`E`E`E`q``.a#G`v`v.O.O`T`v#C`s#x#U#R`q...q`s.q#w.F.oa#.Ua``y#4#K#Z#Z#Kaw.naw#Z.laj`Q`v.KaO#tad#L.b`ladaA#YaPad.3av#p.G.G.S#p.W.D`E`E",
"`E`E`E`q#L`t#.a4`T.O`2.O.O`v.Kaj#U.#.I.0..`z`z`z`Q#1.ZaN.m.m`ya2a2a`azazaR`faC#w.p#c.K`YaO#c#M#1#1`S`S`WaPaS#1.3#laeae#l#lae.1.D`E`E",
"`E`E`E`q`6`B#q`O`p.O`2.O.O#C.4#VaLal#y.s..`z.l`8.6.v.o#4`Ua#.m`y`yaz.C`kas#h`s#f`s#G#d`saj#t#3aP`t`AaD.Z#8`P`Waf#j#j#j`w`w`w#E#R`E`E",
"`E`E`E`q`6.d#Zak`vaI.O.i.O`v`ta6.D`w.0al..`z.paC#c#L.o#o#4`y`U`y.Ua``U`UaNad#V#daj.K#G.paOaV#3.v`T`R`v#1#8#8#8#eaOav#p.Sav`w#E.D`E`E",
"`E`E`E`qaAaYak.x#A.v`g`g`J#A.x#.ao#j.0.R..aC`5#C`YaA#1.o`k`U`y`y`U`U`UaDag#1#d`g`Y.K#G.pa3aV#3#L`D`RaD#1``#8aa.u`i#j#j#j#j`w#E#R`E`E",
"`E`E`E`q#Lazaz.j`laa````#8aga`.han#j#U.R.w`sa4`Oa4#h#o.o#7.m`y.U`y`Uaz`y#o`P#d.1#G.K.K`s..#caV.v#C.`.X#8`Paaaa#x#j#j`w#j#j`w#E.D`E`E",
"`E`E`E`qaS.h#h#q#3#e````#z`6.x.h#U#U.0.R`4`Y#C`t`v.TaP.o#7`uaRa2a`a`a2.N#1.o.K.h.K.6#c`s.R`4.7.A.AaC`Y.xad#1`l`iaW.fav#l#j`w#E#R`E`E",
"`E`E`E`q.1.#.j#h#L`o#8`oaa`6aVaj#j#U.s.w.w`sa4.6`B.T.X#7#7#o.Z`u.m.m`u#o#1`S`Y#.`t#a`O.p.R.w.qaC`5#Z.A.A.7ajan#J#j#j`i#l#l`i#2#R`E`E",
"`E`E`E`qa.#laV.F#f#y#O`i#y#V.qal###U.s...q.laq`t.2`B.2#o.Z.Z`u`u`u`u`u#o`S#h.j`Q.F`l`O`z.s.saC#..8ay.Ma6#Z.A#xan#J#j`i#l#laXaf.D`E`E",
"`E`E`E`q`qaWaaaV`W#1aa#D#2aB.7...tal.s.q.s.l`v.2asaZ.C.N`u`u`u`k`k`k`k.Z.Z.C.Z`6.X`l`O`z`4.R.p`t.T.T#Kayayay#Z#sam#JaLaL`w`iaf.D`E`E",
"`E`E`E#E#taO#8#h#h#Y#D#M#Gan`8.l##.w.w.w.t.p`O.2.C.Xaz`fa#.m.m.m.ma#.ma#.N`k.Xas`K.F.6`zal`4.l#m#m#m#mabab#K.8ay#Z`8#p#2aa````#R`E`E",
"`E`E`E`qaV.uad.x.xadaA#t.A.Aa6.7.w`4al.s.s.K`t.F.naD`yaz#aaz`U`U#4aN`U`ya``y.r.C#L.2.6.q.s.w`4.d#maEaE.raE#m.T.8ay#Z.AaV#1#1``#x`E`E",
"`E`E`E`q.1.h#Ga3aY#.#G#V.4#V#s.7.w`4.s.t`z`t.6.X.N`U#a#r.Ua`a`a2.U.U.Ua`.r.r.T#aaD`l.6`G`4.w`G.AaE.r#r.U`y`ZaE.T#K#Z#Z`8a6.M.u#R`E`E",
"`E`E`E`q#f#I#Ian#I#I#I`8.dak.d`4.l`G`4`z`v.K`t.CaD#aa2a`a`#Q#Q.ra`a`.r#Qab`B.T.6`A.2#h.l`G.7aC`5.`aw.naRaR`y`ZaE.T.8ay#s`8.7.F.D`E`E",
"`E`E`E`qa.aBaBanaBam#y.4.T.r`O`8`G`GaC`t`t`O`OaD#aaH`Za`#Q.r#QaE#Q#m#m#m`BaY#`ab`B.6.FaC.7.laCaq`t#4`k`k.naR`y.U`ZaE.T.8ay#Z#A#R`E`E",
"`E`E`E`q#Eacavaxax#Tax#G.T.raZ`5`z`G#C`t.6aq`O.2`A.r#m#Q#m`BaE#QaE#Q#m#m.T#m#`#`#``B`A`v.laCaCakaw`k#o`uasaR#4aN`y.U`Z#m#m.8aA#R`E`E",
"`E`E`E`q.3`iae`i`7`i#O#GaE`A.r.`aCaC.`.j`Oa4`t.r#m#mab.Tab#mab.T.T.T.T.T.T#`#`.8#K#`.6a4aC`5#C`AaD#o#7#7#o`k.m`faN`U#r`A`ZaEaS.D`E`E",
"`E`E`E`q.u.faUaU.faUaU#taE`A.raqaCaC`O.6`OaC.6#m.T#K#K#K#K#`#K#`#`#`#`#K#`.d.d.d.d#``B`5`5#Caq`A.X#7#1#1#1#o`k#L.X#4aD#r#r`Z`K.D`E`E",
"`E`E`E`q.3.f.f.f.faUaU#c.U`Z.`.`aC`D.``ta4`5`B#m#K.T#K#K.8#K.d.d#K#`#K.d#`#`.`#K#K#`aq#`#Ca4`O`A.Xaa.H`C#z`S.Z`k.N`f#4aN`U#a`K#R`E`E",
"`E`E`E`q.1.f#n#EaX#P#E#c.U`Z`A#maC`5`t`t`5aq.`.`.T.`#K.`#K.8.8.d#`.d#K#V#`#`ak#`#`.T#`.`aq`O`t`A.Y`J#P.Ba0.HaP`kasa##4aDaN`yaP.D`E`E",
"`E`E`E`q.W`Va0#eadaS.H`A`Z.U`y`A`5#C`O`t`Oaq.`.T#K#K#K#K#K#`#K#`#G#.ak#K.T.T.`#Kaq.`#`.`aq`t`A`Aa1#P.B`V`V.B#N.v.bas#4#4`UaN#o#R`E`E",
"`E`E`E`q.W.B#0#8#1aP#1a2`Z.U`U#raq`R#K.`#K.`#K.8.8#K#K#K#K#`#.#`#`#`#`.T.`#K.d.da4`Y`Y`v.F.2aN`t.W`V`V`V`V`V`V`e`X#M.X`f#4#4#o.D`E`E",
"`E`E`E`q.Wax`WaPaA.x.n.r`Z#r`y.U.8#Caqaq.6#K.8ay`5`5#Ca4#V#G.K#c#.#c#X#ca.aG.S.Sarah`caQaQ#X`Q`QaQ.B`V#nat`Vat`0`d#P.P.a.Y.X`S#R`E`E",
"`E`E`E#p#e#D#e#e.H#e.H#D#D#e#e#e.v#D.v#D#D#D#D#D#D#D#D#e#D#e#e#e#e#D#D#e#6#e#6#6#6#6#6#6#6#6#e#e#e#e#0#e#6#e#e#D#6#6#e#D`W.H#e#U`E`E",
"`E`E`E`E`E`E`E`E`E`E`E`E`E`E`E`E`E`E`E`E`E`E`E`E`E`E`E`E`E`E`E`E`E`E`E`E`E`E`E`E`E`E`E`E`E`E`E`E`E`E`E`E`E`E`E`E`E`E`E`E`E`E`E`E`E`E",
"`E`E`E`E`E`E`E`E`E`E`E`E`E`E`E`E`E`E`E`E`E`E`E`E`E`E`E`E`E`E`E`E`E`E`E`E`E`E`E`E`E`E`E`E`E`E`E`E`E`E`E`E`E`E`E`E`E`E`E`E`E`E`E`E`E`E",
"`E`E`E`EaLaLaLaLaLaLaLaLaLaLaLaLaLaLaLaLaLaLaLaLaLaLaLaLaLaLaLaLaLaLaLaLaLaLaLaLaLaLaLaLaLaLaLaLaLaLaLaLaLaLaLaLaLaLaLaLaLaLaL`E`E`E",
"`E`E`E`qaa`Waaaa#8#1#z#z#z#1#8`P```o#e#0`x`b`b`b`b`b`b`b`b`b`b`b`b`b`b`b`b`b`b`b`b`b`b`b`b`b`b#0#0#e#Daa#8``.H#0#0#0#0#0#0#0`o#y`E`E",
"`E`E`E`q#ta3#`#maH`Z.raE.r#r.m`K#1.e.z.y.y.y.y.yaJaJaJaJaJaJaJaJaJaJaJaJaJ#iaJ#iaJaJaJaJ#S#i`N`a#v.WawabaYaza.at.g`0`0.g.g`0.P#R`E`E",
"`E`E`E`q#t#say#Qa`aEaEaE`Aaw.NaP#z.c.z.y.y.yaJaJaJ#i.E#i#i.E.E.E.E.E.E.E.E.E#B.E.E.E.E.E.E#B#i`aaiaG.da6a6.M#d`7`0`0`0.fapap.3#l`E`E",
"`E`E`E`q#t.A#Za6ay#KaE`Z`A#4.N#oa7`j`d#S`NaJaJ#i#B#B#B.E#B.E.E#B#B#B#B#B#B#B#B#B#B#B#B#B.k.k`aa5`3`q.Aa6#..MaX`0`0at`7`7ae#O#2.D`E`E",
"`E`E`E`qaV#Z.A#Z#Z.8.r`Z.U#4.Na7`K`z.z`N`N`a.E#B#B#B`.#B#B#B`.#B#B`.#B#B#B`.#B#B`.`..k#B.k.k.k`3ai.S#Ian.MaY.GaUataUae#Uam`8#3.D`E`E",
"`E`E`E`q#3#.#s#s#Z.T`Z`Z#r.n`k#o`l.q`M#v`a#B.k.k`.`.`.`.`.#B`.`.`.`.`.`.`.`.`.`.`.`.`.auauauau.5atavan#saYada.av.f.f#OaB.M#saA#R`E`E",
"`E`E`E`q#3az.Ma6ay#KaE#r`U.n`k.Z`s`zaFai`a#B.k.kau`.`.`.`.`.`.`.`.`.`.`.`.`.`.auauauauauaM#gaMaQaXaB`8adadad.x.Ma6.Dal.I.M#s.u.D`E`E",
"`E`E`E`q.Fad.x#`ay.``Z`yaNaR`k`uan.V.iar`3`3.kauauauauauauauau.Lauau.L.L`1.L`1`1`1.L`1aMaM`h.c#Ea3`8.x`K.b#h#Q.M`8#J#I`8.2ay`6#R`E`E",
"`E`E`E`q#3adag#q#`#K`Z#4.naR`k.bam.7#F`MaQaMaM#g.L.L`1`1`1`H`1`H`1`H`1`H`#`H`#`#`#`#`#`##5`X.a#.a6.M#Qazaba`#Q.Aananam.x.ZaYaA.D`E`E",
"`E`E`E`q.u.b#LaAay.`#r.n#4a#`k`kan`8.KaF.O`e`h`h`H`H`H`#`r`#`r`r`r.c`F`F#N`X`x`x`x#6`x.v.v#M.X.M.d#t#qa`a`#Qa6#UaBam#.#1aS.F#Y#R`E`E",
"`E`E`E`q.h.xaA#q`5.`#r.X.na#`k`6anam.h#caOa1`J`J`X`X`x`x#6`x`J.X.X.XaDaNaN.C`fas.b.v`K`K.basag`8#wa3#Fa6a6a6#waBanaoaVa1.uaV#Y.D`E`E",
"`E`E`E`qa.#y#V#.#`.`.6#4.Cas`k#cam#x#d#c#c.6a#as`k`K`K.N.n.n.n#4#4aN#4.C.C`f#4aRas.N.N.Nasad`6#J#J#J#J#J#j#UanamaBao`qaG`Lam.F#R`E`E",
"`E`E`E`q`q#y.0`Y.`#maZ.2.C.X`ka3.R#yao.0.##Fag.C.n`f.ma#.naN#4#4.CaN#4#4#4.n`fa#a#.N.N.Na#`faA#F`Lac#lacaoaW.D#y#y#y.DaKaKao#2.D`E`E",
"`E`E`E`qa.#O..ak.`#m`A.2.X.N.X#y.#aB#y.R.R.R.2aN#4.n.n`faRaR.n#4#4aN#4.n`fa#a#a#.N.N.Nasas`fag#t#R#R#R.D#y#y#yaB#y#y#y.##yan#2#R`E`E",
"`E`E`E`qa..0#xak#m#m`A.2.X.b#t#y#y#y.##y#O.##c.C#4.naR.n.n#4#4#4#4aN#4.n.na#a#a#.N.N.Nasas.naD.F#w.D.0#y#y#y#y#yan#y.0#y#y#y#2.D`E`E",
"`E`E`E`qaG#y`5`B`B.r#raDas#L`8.##y.##y#Oae#O`Y.C#4.naRaR.n.n.n#4#4#4.naRa#.ma#.ma#a#a#.ma##4#4awaO#y#y#y#y.0#y#y#y.0#y#y.0#y#2#R`E`E",
"`E`E`E`q`qaB#V`BaEaE#a.Cas`6aB#y#y.##y#y#O#OaO.2aN#4.n#4#4#4#4aN#4#4aRaRa#a#a#a#a#a#`fasa#`f.C#h#f#O#y#y#y.0.0#O#y#O.0#y#y#y#2.D`E`E",
"`E`E`E`qa..#`OaE#m.raw`fas#c.#ae.D#y#y#y.#.D`s.2aD.n#4aN`UaNaNaNaN.n.n.n.n.n#4.n`f#4aRa#asaA.C.2.G`7#O#y#y#y#y#O.##y#y.0.0#y#2#R`E`E",
"`E`E`E`qa..D`O`B.r`A#r`fas`sao#y.#.#.#.#.#.#aj.2.2#4#4aN`yaDaN#4aN#4.n#4#4#4#4.n.n`fa#`fa#`fag#3.Sar`M#O#y#y#y#O#O#O#y.0.0#y#2.D`E`E",
"`E`E`E`q`q.l`t`BaE`AaN`f`lao.#.##y#y#y.#.##y#f.FaD#4#4aNaN`yaNaN`UaDaD.n#4#4#4#4.naR`f`f#4#4ag#W`h`ca..Dae#y.##y.R#y#y#y.##y#2#R`E`E",
"`E`E`E`qa.#w#m#maE#r#4`f#d#y.##y.#.#.#.#.##y#f#q#a#4aNaNaNaNaN#4#4a#.N`ka##4#4.n`f.n`f`f.C#4#3ah.5.QaVaj.##y.#.D.#.#.#.##y.##2#R`E`E",
"`E`E`E`q`q`s`OaE`Z#r.n.X.l.#.#.#.#.D.#.#.#.#`T.F`y`U#4aN#4aN#4.n`f`fa#as.n.n`f#4.n.n#4aN.C.a`m`3ah`Qaz.h...##y#y#y#y.##y.#aB#2.D`E`E",
"`E`E`E`qa..4.`#m`Z#r`f#qam#y.#.#.D.D.#.#.D.#ax.j.2`UaNaN#4#4a#aRa#`fawaNaN#4.n`f.n.n#4.C#A`e#vai.PaD.C.F#F.##yao.#.#aB#y#y#y#2#R`E`E",
"`E`E`E`q`q`Y.`.``Z`U.Xajao.D.#.D.D.D.D#R.q.S`M#X.P`yaNaNaN.n`faR`f#4aNaNaNaN`faR`f`f#4aA.W`N#v.P.X`f.C.2#cam.D.#.D#y.##yaoao#2#R`E`E",
"`E`E`E`qa.`sa3`5`Oaw`lao.Dao.D.D.D.D.#.#aoa.`I`d`e.2aDaNaN#4.naR`f#4ag.C#4#4#4.naR#4a1#5ai#v#W#L.X`f.CaD#qaO.D.D.D.D.D.#.Dao#2#R`E`E",
"`E`E`E`q`qa3.4.daZ.6aj.D.D.DaoaK.D`M.D.D.D`t.F`T.z`h`X.CaD#4.naRaR.n#4a#aR.naRa#`f`J#W#v`aai`Jas`f`fagaD#q#f.D.D.D.D.D#R.#.D#3#R`E`E",
"`E`E`E`q#t#V#K#Qaz#h`8ao.#.D.DaKaK.D.DaK`M.h`U#A#W.zai#5`J.X`f`f#4.n.naR`f`f`f.Y.cah`a`3`a#5.Xa#`f`f.C`U#h#.ao#R.#.#.D#R.#.D#2.D`E`E",
"`E`E`E`q#c.M.TaEaw#cao.D.D.D.D.D.#.##x#x.D#q`UaD.a`g`c#vai#W.e`J.a.aas.a.a#M.eaQ#va5a5a5ai`J.m`f`f`f#4aNaw.x#xao#Rao#R.#.D.D#2#R`E`E",
"`E`E`E`q#D.Y#L`K`Sa1.u.3.3.3.3.3.u.3.3.u.3`W`W`S#z#8#0#N#N#k`F#N#0`C`o`o#0#N`F#k#k#N#k#k`x#z#1`S#7aa`S`S`W`W.u.3.u.3.u.3.u.u.H.#`E`E",
"`E`E`EaL#y#y#O#y#y#y#O#y#y#y#y#y#y#y#y#y#y#O#y#y.0#O.R.#.R.0#O.0#y.##O#O#y#y#y#y#y#yae#y#O#y#y#y#O#y#y#y#y#y#y#y#O#y#y#y#O#O.0aL`E`E",
"`E`E`E`E`E`E`E`E`E`E`E`E`E`E`E`E`E`E`E`E`E`E`E`E`E`E`E`E`E`E`E`E`E`E`E`E`E`E`E`E`E`E`E`E`E`E`E`E`E`E`E`E`E`E`E`E`E`E`E`E`E`E`E`E`E`E",
"`E`E`EavaXaXaXaXaXaXaXaXaXaXaXaXaXaXaXaXaX#faGaXaXaGaXaXaGaXaXaGaXaXaXaXaGaXaXaXaXaXaXaXaXaXaXaXaXaXaXaXaXaXaXaXaXaXaXaXaXaXac`E`E`E",
"`E`E`E.H#A.2ag#Y.F#E#E.1.1.1.1#E#E.1#E.1aV#Y.b.b`K.ZaPaP.Z#z#N.c`r`r`r`r`r`r`r`r`r`r`F`C`Sa7a7#o`K`K`K`K#L#M#3#E.1#E.1#E.1#E.H`E`E`E",
"`E`E`E.Ha4.d.``Ba6#w`L#RaK#l#l`L#RaKaxaK#F.FawaD#4.Ca#aRa#`k#6`haM.La5.ka5`aa5`3#B#g#5`K`ka#`f`f#4aNaNawawaz#G`L`L`L`LaK#R`L.H`E`E`E",
"`E`E`E.H.M`5ayayaj#w`L`Lac`L`L`Laxac`L`L#F.F#a#aawaD`faR.m`k#o`xaQaM`3au#ga5a5#gau.5`x`K.Na#.n#4aN`UaNaw.2az#.`L#T`L`Lac`L`L#e`E`E`E",
"`E`E`E`W`Y#Kayay#V.Iac`Lac#T`Lacac`L`Lac.p#q#r#a#a`UaN`f`f.maP`S`X.5#g.5#ga5a5`3`1`e#z.b`faR#4#4`UaD`y`y#a#q#dacacac`L`LaK`L#e`E`E`E",
"`E`E`E.Hak.d#K.8akaOac`LaK`L`L`L`L`LaxaK`s.x`A`Za`#r.2`6#4a#`K#o#z#5.5aMaM.L`3#gaT`xaP#L`f.n#4aN`y#a#a#a#aaz#.ac`L`L#R`L#RaK#e`E`E`E",
"`E`E`E.Hay.4ay#Kak`s`Lac`L`L`L`L`Lacacac#F.6.raE.r`A#a`UawaNas`KaP#e`haTaTaM#g`H`e`C.b`faN#4`U#aaza2#aazaz`A#.aK#R`L`LaKaKac#e`E`E`E",
"`E`E`E#e#Zay#K#KaY#F#xac`L`Lac#T#T`L`LacaO`BaEaYaEaH`A#a#aaw.n.b`KaP#N`haTaT.5`#.e.v`f.naNaN`U#ra2a2#ra2aH#q#GacaKacaKaK`LaK#e`E`E`E",
"`E`E`E`W#Z#K`Z#m#Q#s#w#x`Lac`LacacaK`L.Da6.h#m#m.TaE`Z#r#a#aaD`f.N.baa.c`e`#`#.e#6.X#4aN`U`ya2a2aHaHazaza2az#.aKaK#xacacaKaK#e`E`E`E",
"`E`E`E#e#Z#Q.n`Z.Uaz#V#w`L`L`L`LaK#l`L.Daj`tab.T#``BaE`Z#r#raw.Casas#L`C.c#5.c#6#L`f`UaN`y#aaH`ZaH`Za2az#a#q.KaKacaKaK#xaK#x#e`E`E`E",
"`E`E`E`S#Ka`.m.UaH.M#w.Iacac`L`L`LaKaK`Laj`B#m#K#`#maE.r`A`AawaD#4a#.NaP.e#X.eaP.X.Caw`U#aa2aH`Z`Z`Z#aaHa2az#VaKacacacaK#wac#e`E`E`E",
"`E`E`E`W.Ta`ab.U.x.Iav#p#Tavac`LaK.D#R`LajaY#m#K#K.TaEaE.r`A#aaw.C`fas`K`q`L.a`kaRaNaw`y#raH`ZaE`Z`Za2azazaz#VaKac#xacaKaK.I#e`E`E`E",
"`E`E`E.H#K#Qa`#Q#.a3.I`Lacac.I`L`LacacaKaj`B.T#K#K.T`B`B.r`A`A`yaN`fa#.NaVaO`S.b`faD`y#a`AaHaE.raE`Z`Aa2#a#h#f.I.IacaKacacac.H`E`E`E",
"`E`E`E.H.TabaRama6#V.I#F.I`L.Iac.Iacav#x#VaY.T#K.`.`#m`BaE`A`A#aaN.C`fas#3#d#1`k.naN`U`ya2`Z.raE.r`Za2a2#a#hajacacacacacacac#e`E`E`E",
"`E`E`E#e.M#Qa`ab#..Ma3.I.IacacaKacac`Lav`Y`B.T#`#K.`#m#m`B`A#r`yaDaN`fasaA`g`S.N.naDaw#raH.r.r.r.r`ZaHaHa2#h#F#Tac.I.I.I.IaK.H`E`E`E",
"`E`E`E#e#xa3.Mab#Gac.Iacac#xac.Iacacacac#V`B#`#K#K#`#m#m#m.r`A#aawaD#4a#.X#h`S`kaR#4`U`y`Z`Z.r.r`Z`Za2a2az#q#wac.I.IaKacacac#e`E`E`E",
"`E`E`E#eacac#l#l#wacaK#wacac#xac#x#xac.I#G.r.T#`#`.T.T#m`BaZ#r`yaDaN#4.X.Y#3#7`ka##4aN#r.UaE`Z.r.raH`A`A#aaV#wavav.I.I.I.I.I.H`E`E`E",
"`E`E`E#eacac.I.I.I.I.IacacacaK.I.Iac`Lac#daE#`#K#K#`.T#m#m.6`A`y`UaN#4`faA#3`S`u.m.n#4`y.U`Z`Z.r`ZaHa2aH.2#c.I#Tav.I.Iac.Iac#e`E`E`E",
"`E`E`E.Havac#p.Iac.Iacav.I#p.I.IacacacaK#.`B#Kay#`#`.`.T#m.raH`yawaw#4a#aA.F#7`u.maR`U`y`Z`Z`Z`Z.r`ZaHa2aw#G.Iavavac.I#p#p.I.H`E`E`E",
"`E`E`E#D#lac#Tacacac.Iacacacac.Iacacac`L#d`B.Tay#K#K#`.`.T`B`A`yaDaDaNaR`laV#7`u.m.m#4`y.U`Z.raH`Z`ZaHa2aDajac#Tavav.I.Iavav#e`E`E`E",
"`E`E`E.H.Iacacacavacac#paK.Iavac.I.I.Iac#G`B#K.8.d#K#`#`.TaE.raz`yaD#4ad.F#c#1.Z`ka##4`U`Z`Z`Z`Z`ZaH`Z#aawaj.I#pavacacac.I#p.H`E`E`E",
"`E`E`E#e.Iac#Tac.I.Iac.Iacac.I.Iacac.I#p#GaE#K.8ay#K#`#`.TaEaHa2`UaN#4a#aVa.#1.Z`k.m.n`U.U`Z`Z`Z`Z`Za2#a#h#F.I.I#p#p#p.I.Iav#e`E`E`E",
"`E`E`E.Havac.Iav`Lac.I.Iac#f#pac.I.I`L#w#G`B#Kay.d.8#K.T.TaYaEaHawaD.n.b#daX#7#7`u.maR`U#r`Z`Z`Z`Z`Z.Uaw#q#F#p#p#p#p#p#p#p#p.H`E`E`E",
"`E`E`E#eac#Tacav#pavav.Iav#pacavav#pacac#GaE.T.8ay.8.8#`.T`B.raHaw#4aR.b#faO`W.Z`ua#aR`U.U`Z`Z`Z.UaH#raw.x#p#p#p#p#p#p#p#p#p#e`E`E`E",
"`E`E`E.Havac#Tavac#p#p#p.Iavav.I.I.IavaO.K`B.Tayay.8#K.T.T#maEaH#aaNa#adaO#faS.Z`u.m.n`U#r.U`Z`Z#r.U`Uaw.h#F#p#FaO#paOaO#p#p.H`E`E`E",
"`E`E`E#eac#p#p#pav#paO#p#p#p#p#pav#pav#p#G`B#m.8a4ay.8#K#`ab`BaH#qaN.maD#paO#Y#7`u.maN`U.U.U.Ua2#r`y`y`U#c#p#paOaO#p#paO#pav#e`E`E`E",
"`E`E`E#eacav#pav#p#p.I.Iav#p#p#p#p#p#p#p#GaE#m.8.8.8.8#K.TaYaE`Zaz.C.N.xaO#p#3#o`u.m`U`y#r.U`Z#r.U`y`yaw#G#paOaO#p#paO#p#p#p.H`E`E`E",
"`E`E`E.H.I#p#paOaO#pav#pav#p#pav#p#pav#T#V.raE.8.8.8#K#K.T`BaE.r#a`U.N#t#p#paV#o`ua#`U`y.U#r.U#r`y`y`UaD#G#p#paOaO.I#p#p#p#p#e`E`E`E",
"`E`E`E#e.IaO#pavavacav#p#p#pav.I#paO#p#p#GaE#m.T#K#K#K#K.T#m.raHaH`U.b#f#paOaV#o`ua#`U`y.U.U#r`y.U`U`UaNaO.I#p.I.I#p.I#p.I#p.H`E`E`E",
"`E`E`Eaf#e#e#e#e#e#e#e#e#e.H#e#e#e.H.H#e.H.H`W`W.H.H.H.H.H.H.Haaaaaaaa.H#e.H.H#z#zaaaaaaaaaaaaaaaa`Saaaa.H#e#e#e#e#e.H#e#e#eaf`E`E`E",
"`E`E`E`E`E`E`E`E`E`E`E`E`E`E`E`E`E`E`E`E`E`E`E`E`E`E`E`E`E`E`E`E`E`E`E`E`E`E`E`E`E`E`E`E`E`E`E`E`E`E`E`E`E`E`E`E`E`E`E`E`E`E`E`E`E`E",
"`E`E`E`E`E`E`E`E`E`E`E`E`E`E`E`E`E`E`E`E`E`E`E`E`E`E`E`E`E`E`E`E`E`E`E`E`E`E`E`E`E`E`E`E`E`E`E`E`E`E`E`E`E`E`E`E`E`E`E`E`E`E`E`E`E`E",
"`E`E`E`E`E`E`E`E`E`E`E`E`E`E`E`E`E`E`E`E`E`E`E`E`E`E`E`E`E`E`E`E`E`E`E`E`E`E`E`E`E`E`E`E`E`E`E`E`E`E`E`E`E`E`E`E`E`E`E`E`E`E`E`E`E`E"
};
