/* XPM */
static char * _5_frame_4[] = {
"66 100 256 2",
"  	c None",
". 	c #180804",
"+ 	c #3FBC75",
"@ 	c #488047",
"# 	c #68C284",
"$ 	c #571C06",
"% 	c #63CE7A",
"& 	c #698760",
"* 	c #5D3F2C",
"= 	c #76CC95",
"- 	c #6AAA82",
"; 	c #9B4D1F",
"> 	c #6EDAA2",
", 	c #A87846",
"' 	c #3B3C39",
") 	c #6D6A4E",
"! 	c #86BE82",
"~ 	c #70E1AD",
"{ 	c #A8A062",
"] 	c #2A1F23",
"^ 	c #88451F",
"/ 	c #E3BA98",
"( 	c #7EDE9E",
"_ 	c #B6AB6F",
": 	c #9E818A",
"< 	c #A36133",
"[ 	c #7EE6BA",
"} 	c #625B42",
"| 	c #BC945A",
"1 	c #81CBA3",
"2 	c #C8AA75",
"3 	c #2A1107",
"4 	c #C7BD7F",
"5 	c #B77848",
"6 	c #6B3E2E",
"7 	c #F8F2E9",
"8 	c #3B9B55",
"9 	c #4E200B",
"0 	c #D9CE8C",
"a 	c #72D68A",
"b 	c #9E6D61",
"c 	c #CA9C66",
"d 	c #B58B5D",
"e 	c #68A070",
"f 	c #4C6B43",
"g 	c #6F4C3A",
"h 	c #915126",
"i 	c #D0C588",
"j 	c #5A3629",
"k 	c #C4B2AB",
"l 	c #7A6B58",
"m 	c #82D698",
"n 	c #383435",
"o 	c #96CC9E",
"p 	c #F2E8D8",
"q 	c #CC9285",
"r 	c #B3826F",
"s 	c #9F6E51",
"t 	c #BCCCB5",
"u 	c #E2DE96",
"v 	c #E2D896",
"w 	c #98C0B7",
"x 	c #421103",
"y 	c #DEBFA3",
"z 	c #BA9F9A",
"A 	c #6E2208",
"B 	c #3CA460",
"C 	c #DDD7D0",
"D 	c #4B6037",
"E 	c #8D5444",
"F 	c #D5A880",
"G 	c #391E12",
"H 	c #5C3021",
"I 	c #DABFA4",
"J 	c #D8CCBE",
"K 	c #B3804A",
"L 	c #4D2B15",
"M 	c #8F7678",
"N 	c #7F3E17",
"O 	c #BD928A",
"P 	c #82DEA6",
"Q 	c #6D5F4E",
"R 	c #764B36",
"S 	c #EFE0CD",
"T 	c #54CF88",
"U 	c #7FC2CB",
"V 	c #D2B172",
"W 	c #BA9E8D",
"X 	c #877A78",
"Y 	c #876C63",
"Z 	c #AD6D3D",
"` 	c #A58C8D",
" .	c #A28B7A",
"..	c #4EA490",
"+.	c #C5BDB7",
"@.	c #A06553",
"#.	c #9EC2AC",
"$.	c #CE9F7A",
"%.	c #F9F6EF",
"&.	c #729B73",
"*.	c #6A260B",
"=.	c #4A562E",
"-.	c #7E3617",
";.	c #8EAE96",
">.	c #D6BFB3",
",.	c #B58C78",
"'.	c #A47762",
").	c #5DA87B",
"!.	c #9F5426",
"~.	c #BD7165",
"{.	c #382624",
"].	c #52C57B",
"^.	c #5D523F",
"/.	c #D9CECC",
"(.	c #8F5E43",
"_.	c #56220A",
":.	c #8D707B",
"<.	c #D0B295",
"[.	c #B2927E",
"}.	c #523D38",
"|.	c #B2AAA7",
"1.	c #785150",
"2.	c #BF804F",
"3.	c #529661",
"4.	c #521A06",
"5.	c #C4AA99",
"6.	c #C3C3BF",
"7.	c #A99C91",
"8.	c #764532",
"9.	c #769A72",
"0.	c #A1624E",
"a.	c #181013",
"b.	c #AD6E56",
"c.	c #A594AA",
"d.	c #968581",
"e.	c #C8856E",
"f.	c #EFD8BE",
"g.	c #A28679",
"h.	c #4A2D2A",
"i.	c #A8BCBA",
"j.	c #B67765",
"k.	c #FCFAF0",
"l.	c #7CC0C6",
"m.	c #45C679",
"n.	c #C38C5A",
"o.	c #9F594A",
"p.	c #422C26",
"q.	c #5D4D3A",
"r.	c #763614",
"s.	c #E4C097",
"t.	c #5D8F94",
"u.	c #96B686",
"v.	c #50A878",
"w.	c #C08166",
"x.	c #7E523C",
"y.	c #B4938A",
"z.	c #B2C6C3",
"A.	c #424E36",
"B.	c #D4B3A8",
"C.	c #E8CCAC",
"D.	c #B06F5C",
"E.	c #5C868C",
"F.	c #7D594B",
"G.	c #878785",
"H.	c #DCB08E",
"I.	c #6B4637",
"J.	c #AB6434",
"K.	c #4E3D34",
"L.	c #956851",
"M.	c #7FC099",
"N.	c #4E1905",
"O.	c #342D2C",
"P.	c #E6C6B7",
"Q.	c #D8A082",
"R.	c #905F54",
"S.	c #B6785E",
"T.	c #A25A2B",
"U.	c #BCC2BA",
"V.	c #5C230C",
"W.	c #D4A995",
"X.	c #3CB16B",
"Y.	c #60CD8F",
"Z.	c #F0D8BA",
"`.	c #C58C70",
" +	c #F0EDEA",
".+	c #B77141",
"++	c #B6ADBF",
"@+	c #2D1A17",
"#+	c #C28276",
"$+	c #A3806F",
"%+	c #CFC4BE",
"&+	c #696767",
"*+	c #81B08A",
"=+	c #7C5E5F",
"-+	c #8A4A3E",
";+	c #732D0E",
">+	c #684142",
",+	c #AB6C51",
"'+	c #8BBFBC",
")+	c #5C845B",
"!+	c #C9947A",
"~+	c #C89461",
"{+	c #EACFCA",
"]+	c #6E4E4C",
"^+	c #A99EAA",
"/+	c #D2BDB2",
"(+	c #5C3E3E",
"_+	c #CC9F9A",
":+	c #C28655",
"<+	c #A7968F",
"[+	c #7D4D44",
"}+	c #451706",
"|+	c #92827B",
"1+	c #9E6349",
"2+	c #2D2A21",
"3+	c #656262",
"4+	c #A87060",
"5+	c #81452D",
"6+	c #3C2C27",
"7+	c #796977",
"8+	c #7C4C36",
"9+	c #B3B6AC",
"0+	c #231A1E",
"a+	c #DEB694",
"b+	c #936C63",
"c+	c #D08E7E",
"d+	c #B6775A",
"e+	c #C1B4C2",
"f+	c #FEFEFE",
"g+	c #4C3431",
"h+	c #E6CFBA",
"i+	c #7C6251",
"j+	c #92471C",
"k+	c #423328",
"l+	c #6D3617",
"m+	c #64250B",
"n+	c #BBBBB7",
"o+	c #966028",
"p+	c #2C2626",
"q+	c #D7BF7D",
"r+	c #E5D08E",
"s+	c #959695",
"t+	c #454A31",
"u+	c #EBD9CB",
"v+	c #361005",
"w+	c #CB8D5B",
"x+	c #E6C4A3",
"y+	c #CA9472",
"z+	c #C99D8C",
"A+	c #A37977",
"B+	c #B57F5F",
"C+	c #221517",
"D+	c #CAC4BE",
"E+	c #60D8A8",
"F+	c #601E07",
"G+	c #C1B679",
"f+f+f+f+f+f+f+f+f+f+f+f+f+f+f+f+f+f+f+f+f+f+f+f+f+f+f+f+f+f+f+f+f+f+f+f+f+f+f+f+f+f+f+f+f+f+f+f+f+f+f+f+f+f+f+f+f+f+f+f+f+f+f+f+f+f+",
"f+f+f+f+f+f+f+f+f+f+f+f+f+f+f+f+f+f+f+f+f+f+f+f+f+f+f+f+f+f+f+f+f+f+f+f+f+f+f+f+f+f+f+f+f+f+f+f+f+f+f+f+f+f+f+f+f+f+f+f+f+f+f+f+f+f+",
"f+f+f+f+f+f+f+f+f+f+f+f+f+f+f+f+f+f+f+f+f+f+f+f+f+f+f+f+f+f+f+f+f+f+f+f+f+f+f+f+f+f+f+f+f+f+f+f+f+f+f+f+f+f+f+f+f+f+f+f+f+f+f+f+f+f+",
"f+f+f+/.G.G.G.G.G.G.G.G.G.G.G.G.G.G.G.G.G.G.G.G.G.G.G.G.G.G.G.G.G.G.G.G.G.G.G.G.G.G.G.G.G.G.G.G.G.G.G.G.G.G.G.G.G.G.G.G.G.G.G. +f+f+",
"f+f+f+G.3+M i+F.>+j 8.]+g >+j p.@+0+)+3.e - ).).............................................3.3.3.& q.1.=+g+q.E.E.t.t.t.E.t.A.9+f+f+",
"f+f+f+G.d.5.[.b b b 4+s s o+5+H {.2+o m P [ [ [ ~ E+E+E+E+E+E+E+E+E+E+E+E+T T E+T E+E+E+E+Y.Y.E+# &.=+F.` R.:.;.U U l.l.l.'+f n+f+f+",
"f+f+f+G.d.5.W ,.4+b b L.L.(.8.H {.' o m ( ~ > ~ E+T T T T T T T m.T T m.T T m.T ].].].T ].T ].Y.# &.z q : W.` w U U U w i.z.&+n+f+f+",
"f+f+f+G.|+z _+z+z+O s s L.x.6 H {.Q z.= a % Y.].T m.m.m.m.T m.m.m.m.m.T m.m.T m.m.m.m.m.m.m.].+ # 9.|.{+z A+d.w U U w i.6.n+&+9+f+f+",
"f+f+f+G.|+M _+z z O b 1+o+x.6 L L  .z.= % % ].m.m.m.m.m.m.m.m.m.m.m.m.m.m.m.m.m.m.m.+ m.+ + + + - ;.D+P._+:.X '+'+l.i./.%+z Q e+f+f+",
"f+f+f+G.d.i+y.z O r s 1+o+8+N L * k G+! # ].].+ + m.+ m.m.m.m.m.+ m.+ m.m.+ m.m.+ m.+ + + + + v.*++++.z =+j F.c.^+++6.6.y.O ^.n+f+f+",
"f+f+f+G.` q.b+,.y.r s o+x.8+l+H b+/+5.o # ].].+ + m.+ + + + + + + + + + + + X.X.X.X.X.X.v.v.v.t.s+9+5.=+j (+R.A+c.+./.+.y.` ]+n+f+f+",
"f+f+f+G.` ]+[+:.$+,.'.(.^ 8+l+H  .J { i - ).+ + + X.X.X.X.X.X.X.X.X.B B B B B B 8 B B B B 3.D 3+z 5.A+I.I.F.b+r W.C {+B.1.L.^.9+f+f+",
"f+f+f+G.|+q.j 1.b+r s x.8.R l+H g.k 7.i *+e ).B v.X.B 8 8 8 8 8 8 8 8 8 8 @ @ @ @ @ @ f D A.* Y ,.,.:.R.b @.b z %+/+e+:.@+F.(+n+f+f+",
"f+f+f+G.X ]+(+I.$+g.s R I.8.l+H W /+ . .q+& f )+)+8 @ @ f D D D =.=.A.q.t+t+K.K.6+{.2+k+k+j q.b+` X =+:.R.b ` >./.B.` K.6+q.K.n+f+f+",
"f+f+f+G.|+k :.i+,.r s 8+g R j j k k z } |+Y I.* K.k+n n n A.q.^.R 8+R 8+8+x.R 8.6 l+j l+* 6 I.5.u+S u+u+{+{+>.e+>./+7.d.G.` q.n+f+f+",
"f+f+k.G.d.+.n+W g.$+, F.g R 6 1.J 6.7.<.7.{ } R 6 * * 6 8.5+8+8+R 8+8+R 8+R R 8.6 6 * 6 6 6 I.c./.%+%+D+D+D++.+.+.+.^+& s+k &+9+f+f+",
"f+f+f+G. .U.6.W $+, s F.x.I.j $++.6.+./+D++.b+x.8+8+8.N I.5+8.8+8+8+8+8+8.8.8.I.6 6 6 6 6 I.R Y 9+++9+e+e+U.+.D+6.D+6.6.6.+.&+n+f+f+",
"f+f+f+G.G.t D+ .$+, s F.g * * |.+.U.6.D+6.n+<+R R 8.8.8.8.8.5+8+R 8+8+8.8.8.8.6 6 l+j l+>+I.g =+|.9+n+U.6.D+D+6.+.6.6.6.6.D+&+9+f+f+",
"f+f+f+G.G.t %+'.'.s L.F.g * Q %+6.U.U.+.6.U.9+x.g 5+8.8.8+8+8.8+8+8+8+R 8.6 8.6 6 6 6 >+6 8.R 1.d.n+6.6.6.6.6.D+%+%+D+6.6.+.&+n+f+f+",
"f+f+f+G.G.+.|.'.s s L.x.8.j ` n++.+.+.D+t 6.+.Q x.R 8.8.8.8.5+8.8+8+R N 6 8.l+8.I.6 6 6 6 8.[+F.:.D+6.6.6.6.D+6.6.D+6.6.D+6.&+e+f+f+",
"f+f+f+G.G.%+_ M s s o+x.I.* 5.6.U.6.6.D+6.U.D+i+x.R 8+8+8+x.x.8+8+8+8.8.8.8.8.8.8.R 8.6 >+I.g F.l t z.6.+.6.6.6.U.D+6.6.t 6.&+n+f+f+",
"f+f+f+G.G.+.<+s , s (.x.I.i++.n+n+n+U.n+U.n++.i+F.8.8+R h x.x.8+8+8+8+8.5+8+8+8.8.8.R R 6 I.R 1.G.*+t 6.6.6.6.t 6.U.D+D+D+D+&+9+f+f+",
"f+f+f+G.G.+. .s '.L.F.8+6 d.+.6.6.U.6.n+U.n++.i+F.8+8+x.x.x.x.8+8+8+8+x.8+8+8+8+8+8.8.R I.R g ^.;.& u.U.U.U.6.6.6.6.6.6.6.6.&+n+f+f+",
"f+f+f+G.G.+. .'.s o+(.g g G+n+n+U.+.D+6.U.U.n+l F.x.8+8+x.x.h x.8+8+8.6 8.8.8+R 8.8.I.8.8+8.x.& - *+s+<+6.6.6.6.U.U.U.6.6.U.&+9+f+f+",
"f+f+f+G.G.G+$+'.s o+8+g i+6.6.6.U.n+n+n+6.+.G+l (.8+8+8+5+x.8+8+8+8.H 6 6 R 8+8+8.8.R R R R } *+v.*+l Y k n+U.+.6.6.n++.+.n+&+n+f+f+",
"f+f+f+G.G.|.$+'.s (.8+6 7.+.U.U.U.U.U.U.n+6.U.l F.E 8+8+8+8+8+R 8.R R [+8+8.R 8.R 8+R R 8+^.&.# ! ) F.i+<+6.n++.+.+.6.6.+.D+&+9+f+f+",
"f+f+f+G.G.k $+, s o+x.1.k +.+.n+9+k 9+n+n+n+u.s+Q F.h R 8+8+8.6 8.R x.x.[+8+R 8.8.8.8+x.} )+= # D g 8+x.:.+.+.n+n+n+6.6.6.+.3+n+f+f+",
"f+f+f+G.G.|.$+$+s (.g |++.9+n++.n+n+n++.k G+9.o )+Q x.x.8+8+8.8.8.8.x.[+8+8+8.8.8.8.R ]+f = = ) >+g g x.i+7.+.n+n+n+n++.n++.&+9+f+f+",
"f+f+f+G.|+k /+5.[.b+1.|.+.k n+n+n+n+U.U.9+7.i+u.u.)+} x.8+8+8+N 8.8.g 8+8+8+8.8.N 8.^.)+M.# e t+6 g g x.=+M n+n+U.n+n+n+n+n+3+n+f+f+",
"f+f+f+G.G.|.g.'.L.F. .+.n+n+n+9+9+i.9+n+n+7.(.F.*+= e } q.g 8.8.R 8.8+8.8.8.R I.I.D e = ].# D >+8.g R [+F.Y k n+n+n+n+n+n+n+3+9+f+f+",
"f+f+f+G.|+W r 4+L.x.7.e+n++.n+n+n+4 n+9+9+<+E x.^.9.! # 3.} q.q.g 8.8.8.6 I.I.A.)+= ].# ].3.q.6 I.8.g x.E i+|.k n+n+n+9++.n+3+n+f+f+",
"f+f+f+G.G.,.r '.(.Y k n+n+n+n+n+n+n+n+k 9+ .F.x.R * & *+# = - )+f A.t+A.=.f & # Y.v.].].# D l+8.R 8.R x.E i+7.9+n+n+9+n+n+n+&+9+f+f+",
"f+f+f+|.' ' n n n ' ' ' ' ' ' ' ' ' ' ' ' ' n ' k+n n n ' ' ' ' ' ' n ' ' ' ' ' ' ' ' ' ' n n n n n n n n n ' ' ' ' ' ' ' ' ' /.f+f+",
"f+f+f+f+f+f+f+f+f+f+f+f+f+f+f+f+f+f+f+f+f+f+f+f+k.f+k.k.f+k.f+k.k.k.k.k.k.f+f+f+f+f+f+f+f+f+f+f+f+f+f+f+f+f+f+f+f+f+f+f+f+f+f+f+f+f+",
"f+f+f+f+f+f+f+f+f+f+f+f+f+f+f+f+f+f+f+f+f+f+f+f+f+f+f+f+f+f+f+f+f+f+f+f+f+f+f+f+f+f+f+f+f+f+f+f+f+f+f+f+f+f+f+f+f+f+f+f+f+f+f+f+f+f+",
"f+f+f+k. +7  +7 7  +7  +7 7  +7  +7 7  + +7  +7  +7  +7  +7  +7  + +7  +7  +7  +7  + + +7  + + + + + + +7  + + +7  + +7  + +7 f+f+f+",
"f+f+f+G.C+a.. . . . . . . . . a.a.3 C+G G {.{.2+6+6+6+6+6+k+n ] ] 2+k+' O.C+C+. 3 G G G 6+6+6+6+k+k+k+6+k+k+k+k+k+n 6+6+6+G C+U.f+f+",
"f+f+f+G.L }+v+3 v+3 }+}+}+9 x $ ;+r.j+o+Z .+5 2.2.n.n.:+n.~+V '., ~+2 a+$.N h ;+-.; < Z 5 5 2.:+n.c c c ~+c $.~+n.:+:+:+, J.K.e+f+f+",
"f+f+f+G.{.}+v+v+v+x }+}+4.V.x _.;+r.j+o+Z Z .+5 5 Z Z 1+Z 2.$.F $.$.$.V a+h j+^ -.; < J..+.+5 2.:+~+y+c ~+c c :+5 5 5 .+.+o+g+n+f+f+",
"f+f+f+G.}+x v+v+x v+x N.4.V.v+9 ;+r.j+!.< J..+.+S.(.s (.s , n.$.a+V c $.H.4+-.< j+j+!.J.J.Z 5 5 2.n.~+~+~+~+n.2.5 Z T.h d | k+9+f+f+",
"f+f+f+G.}+}+v+v+v+}+x N.4.V.x N.m+l+^ !.< < b.,+8+6 s L.5 5 K `.$./ | w+Q.K j+h , h T.J.J..+5 2.2.:+w+~+~+c ~+K < h !.h K V } n+f+f+",
"f+f+f+G.G 9 x v+v+v+x N.4.9 x }+m+l+h !.< Z , o+F.L.s d+w.S.5 :+~+W.F | $.n.h ^ , K T.J.Z .+5 2.:+w+w+w+~+F F Z o+Z < J.| i ) 9+f+f+",
"f+f+f+G.}+}+x v+v+}+x N.$ $ }+}+F+;+^ h < .+2.B+d 2.d :+:+2.5 .+`.$.s.H.c w+T.h h F K Z .+5 5 :+w+w+w+w+n.~+F 2.Z Z Z Z c 0 ) n+f+f+",
"f+f+k.G.G _.x v+v+}+x N.4.m+N.x m+*.r.j+< Z 5 2.2.2.2.w+e.S.5 5 2.n.V 2 :+.+!.T.N K 2 2..+5 :+:+w+w+~+w+~+c c d Z , Z , G+0 ) e+f+f+",
"f+f+f+G.G _.x v+v+x x N.$ F+4.x A ;+l+N h < Z 5 5 2.2.:+2..+5 B+5 w.F a+2 < T.T.^ T.2 V K 5 2.w+w+w+~+~+c c $.n.5 5 .+K q+0 ) n+f+f+",
"f+f+k.G.G $ x x v+x x 4.$ A F+$ A -.-.j+h T.J.Z .+5 2.2.2.:+:+2.n.y+w.H.H.T.!.!.j+o+K q+c 2.2.w+~+~+~+~+c $.c n.K K K | r+i l n+f+f+",
"f+f+f+G.}+9 }+x x x v+4.F+F+F+$ A -.h 8.h o+!.< J..+5 2.2.e.:+w..+~.~.F H.o+; !.; !.Z | q+| :+w+~+~+~+w+c 2 c ~+:+5 K V 0 0 ) n+f+f+",
"f+f+f+G.G $ x x x x x 4.F+F+F+N.4.V.x v+H h < J.J.Z .+5 n.2.,+J..+~.e.$.F < j+; ; T.J.Z V q+| w+~+~+c c c F c | :+2.K 0 0 0 ) 9+f+f+",
"f+f+f+G.9 _.N.}+}+x x N.F+F+m+4.4.9 v+3 v+r.E < J.,+5 5 w+w+c+#+d+d+y+V $.T.j+; ; !.J.J.K q+q+~+c ~+c $.$.2 c n.K K | v 0 0 ) n+f+f+",
"f+f+f+G.G _.9 N.}+x x $ $ $ V.V.}+N.v+. v+x l+E 1+Z .+2.2.w+w+w+w+w+y+F c !.; ; ; T.T.J..+n.r+V c c c c F $.~+:+2.K 2 0 v v l n+f+f+",
"f+f+f+G.v+9 4.N.N.x x 4.F+$ *.m+9 9 v+v+v+v+x 6 ^ h (.Z Z 5 2.:+`.n.n.w+b.j+; ; !.!.T.J.J.5 c r+V ~+c c c c n.2.K d 0 0 0 0 ) n+f+f+",
"f+f+k.G.}+$ N.9 N.x x 4.F+4.V.V.$ F+x v+v+v+}+H x.m+r.^ E < J.Z 5 e.5 J.< j+!.!.!.T.T.T.Z .+K V r+V ~+c ~+w+:+2.K q+0 0 0 v l n+f+f+",
"f+f+f+G.v+$ N.9 }+x x F+F+F+F+m+$ m+N.}+x x 9 *.o+l+;+r.N j+; !.T.< T.J.!.j+!.!.!.!.!.T.J.5 2.n.V r+c c n.:+2.K | r+v 0 0 0 ) n+f+f+",
"f+f+k.G.G _._.$ x }+N.F+F+$ F+m+m+m+_._.4.m+*.l+8+(.r.-.-.N ^ j+; T.T..+!.; ; !.!.!.!.!.J..+2.w+c q+0 | :+:+:+c 0 v v 0 i 0 ) n+f+f+",
"f+f+f+G.x N.$ 9 x N.}+m+F+F+F+m+m+m+V.*.l+N j+j+^ K h N j+; ; ; j+h T.T.!.; ; !.!.T.!.!.< .+5 :+w+| q+V 2 2 V r+v v 0 0 _ 0 ) n+f+f+",
"f+f+f+G.v+N.V.$ x N.N.m+A F+F+m+*.*.m+l+-.h o+< o+, | ^ j+; !.< < < J.j+!.!.!.!.!.; j+; J.Z 2.:+:+w+| _ r+r+u v u 0 0 v 4 i ) n+f+f+",
"f+f+f+G.@+9 $ V.}+4.}+*.m+F+A m+*.*.m+l+N !.< < < J.F s ; !.!.!.!.Z J.; !.T.T.!.T.; j+j+T.Z 5 :+:+:+:+| v u u v u 0 i v i 4 ) n+f+f+",
"f+f+f+G.x V.$ $ N.$ 4.m+;+m+F+F+*.*.m+*.r.!.< 1+J.o+| F T.!.!.!.T.Z ; ; !.T.T.T.; ; j+j+< J..+2.w+:+:+n.0 u u u u 4 i v G+4 ) 9+f+f+",
"f+f+f+G.G H 4.$ 9 _.4.m+*.m+A F+*.*.V.V.m+h < < < T.K V K T.T.J.Z J.!.; T.T.T.T.!.; j+j+T.Z .+5 :+:+w+n.V v u v v G+v 0 G+i ) n+f+f+",
"f+f+f+G.L V.m+F+4.V.N.m+;+*.F+A A ;+m+;+r.-.-+T.< o+J.d V o+J.J..+J.!.!.!.!.!.J.!.T.j+N T.J..+2.2.:+:+| _ v u u v i v u _ i ) 9+f+f+",
"f+f+f+G.h._.H V.V.V.4.V.*.*.F+A A ;+;+l+N h T.T.< < < , q+d T.5 Z J.T.T.T.T.!.!.!.; ; N !.J.Z .+2.:+:+w+V 0 u u u u u 0 _ i Q n+f+f+",
"f+f+f+G.6+I.m+V.V.$ 4.F+m+*.A A A ;+;+-.^ h !.!.T.J.< K | q+, .+J.J..+J.J.J.T.!.; j+j+N !.< J..+2.2.:+w+_ v u u u v u G+_ 0 ) 9+f+f+",
"f+f+f+G.{.b+H m+m+V.4.F+m+A A A A ;+;+r.N h !.T.!.o+T.5 , 2 K < J..+.+J..+J.J.J.!.; j+j+j+T.J.Z 5 2.:+:+2 r+v u u v v { 0 0 Q n+f+f+",
"f+f+f+G.g+R H H H _.4.F+F+F+A A A *.*.*.N ^ !.!.h ; o+J.5 :+V o+J..+.+.+.+.+J.J.!.; ; j+j+T.< Z .+2.2.:+V v v v u u v { 0 i * 9+f+f+",
"f+f+f+G.@+G @+3 v+3 3 3 v+3 v+v+v+v+@+v+G 9 {.L 9 9 {.L j j g L L H H H l+H l+H *.m+V._.9 L L j j j * * } ) ) ) ) ) D } Q } @+n+f+f+",
"f+f+f+ +6.6.6.6.6.n++.6.6.6.6.U.6.6.6.6.6.6.6.6.U.6.D+6.6.6.6.D+6.D+D+6.6.+.6.6.6.6.6.U.U.6.U.U.U.6.U.U.U.U.U.U.U.D+D+6.6.6.6.%.f+f+",
"f+f+f+f+f+f+f+f+f+f+f+f+f+f+f+f+f+f+f+f+f+f+f+f+f+f+f+f+k.f+f+f+f+f+f+f+f+f+f+f+f+f+f+f+f+f+f+f+f+k.k.k.k.f+f+f+f+f+f+f+f+f+f+f+f+f+",
"f+f+f+|.s+s+s+s+s+s+s+s+s+s+s+s+s+s+s+s+s+s+s+s+s+s+s+s+s+s+s+s+s+s+s+s+s+s+s+s+s+s+s+s+s+s+s+s+s+s+s+s+s+s+s+s+s+s+s+s+s+s+|.f+f+f+",
"f+f+f+] 0+C+a.a.a.a.. . . . . . . a.a.a.a.C+a.a.a.C+C+0+] l ^+|.7.|.7.7.s+ .G.d.|+L.b+M $+ . . . .M i+(.F.i+ . .:.F.x.x.F.R 2+f+f+f+",
"f+f+f+p+p+] C+0+@+] ] ] 0+] ] ] ] 0+] ] ] p+] ] ] ] ] p+) p k.k.k.%.%.7 S S u+f./ W./ H.I f.v Z.s.O `.z+F W <.C.H.w+w.d+D.d+O.f+f+f+",
"f+f+f+p+O.6+C+2+{.O.6+O.{.{.p+p+p+@+0+] 0+0+0+0+0+p+O.p.z 7 %.k.k.k.7 7 S u+h+B.q q / / y h+h+C.!+b b+y./ h+<.x+F w.S.~.0.b.O.f+f+f+",
"f+f+f+] {.6+C+{.6+p.p.6+6+O.{.] C+C+C+C+a.0+0+] O.6+O.K./.k.k.%.k.k. +S S S {+_+q c+Q.a+C.f.C.y `.S.R.$+/+h+u+H.c+w.d+0.1+1+O.f+f+f+",
"f+f+f+] ] 6+C+p+p+g+g+g+{.p+] ] 0+] ] C+0+] 2+O.g+g+' 3+p %.k.k.%.7 u+{+ +7 {+e.c+c+z+H.x+P.x+x+_+r R.]+5.h+f.F `.w..+0.E .+O.f+f+f+",
"f+f+f+p+{.p.C+C+0+g+g+p.{.p+{.6+6+O.0+0+O.n g+K.K.(+(+X  +k.f+k.k.7 u+{+ +p W.#+c+Q.W.s.<.a+s.y y H.z+$+,.P.h+H.$.w.o.o.@.1+O.f+f+f+",
"f+f+f+p+p.h.@+{.{.(+n {.p.n h.g+g+{.0+{.g+(+(+(+>+>+]+:. +7 f+k.k.%.f.P.P.W.#+~.c+H.P./ H.a+x+x+C.C.P.I 5.x+C.y F ,+h 0.o.b.O.f+f+f+",
"f+f+f+p+{.g+] g+(+(+p.p.h.g+}.(+g+] p.(+]+]+]+1.1.1.1.:.u+%.%.k.%. +P.q c+#+0.~.q x+{+P.s.x+P.u+Z.S Z.f.C.h+C./ #+o.o.h 0.@.O.f+f+f+",
"f+f+f+p+{.g+{.h.(+h.h.(+(+>+>+>+{.{.[+1.E R.R.R.R.R.R.b+B.7 7 k.%.u+B.e.#+~.~.#+Q.C.C.C.P.P.C.Z.S p S S Z.f.x+Q.,+!.E -+E ,+6+f+f+f+",
"f+f+f+O.h.h.{.(+(+g+>+]+1.1.1.>+h.]+=+@.R.b+R.b+b+b b @.A+{+7 %.%.{+_+q #+c+e.c+H.x+C.C.C.x+x+x+Z.Z.Z.Z.h+C./ ~.o.-+5+-+0.e.n f+f+f+",
"f+f+f+O.(+h.h.]+g+(+]+]+1.1.]+h.j R.R.:.b 4+b b 4+4+b b b : P.7 7 f.W._+q _+_+a+/ x+P.x+x+s.x+s.x+C.r+C.C./ F ~.-+-.>+E D.,+O.f+f+f+",
"f+f+f+O.>+g+h.>+j j [+>+H h.h.h.>+>+1.E A+b 4+A+O : :.b+b+i+Y B.>.>.q q H./ / a+/ x+s.x+s./ / / s.s.s.s.s.H.e.o.-+8.5+-+E @.O.f+f+f+",
"f+f+f+O.]+g+h.>+>+(+>+E =+1.]+=+:.A+c.c.: O ` r ` : $+` ` z W.B.L.b A+q H./ / / / s.s.x+x+x+s./ / / / H.H.c+D.-+6 j 8.-+D.S.6+f+f+f+",
"f+f+f+O.:.:.: c.z e+e+>.P.e+^+{+p 7 7  +/././.{+z B.P./ I B./ W._+r 4+#+q W.H./ / x+x+x+x+x+x+s./ / H.F c+#+0.E >+l+[+'.B+w.O.f+f+f+",
"f+f+f+' p p p S S S /.>././. +7 %.k.f+k.%.%. +C /+<.B.a+I /+a+<.<./ `.b j.q W.a+s.C.C.C.C.x+C.x+s./ Q.c c+d+,+0.o.o.@.j.#+@.2+f+f+f+",
"f+f+f+K. +p p p S u+{+/+p 7 /.S k.f+f+f+f+k.k.%.p v x+y I I I I W.B.r R.E ,+e.Q./ s.x+x+x+C.x+s./ Q.Q.Q.Q.e.~.0.,+,+D.4+R.R ] f+f+f+",
"f+f+f+n _+z+_+_+<.<.<.C.{+z+/+ +%.k.k.k.k.f+f+f+%. +u+i I I s.q+a+,.b E o.R.@.j.y+F / / / / / H.F y+y+Q.Q.c+e.,+D.j.,+8.I.>+p+f+f+f+",
"f+f+f+n c $.$.V V / C.x+ .[.P.h+ +p %.k.f+k.k.f+f+%.p u+J <.a+B.a+M F.@.b j.4+s D.e.y+Q.F F Q.$.y+`.J.c+Q.#+J.o.R.j.D.8.j I.p+f+f+f+",
"f+f+f+n $.$.z+$.F a+a+r '.5.5.J /+C 7  +%.f+k.f+f+f+%.p u %+<.2 z+[+[+b r !+!+B+d+B+e.c+Q.Q.$.c+y+q ,+,+D.J.D.o.5+E D.[+j >+2+f+f+f+",
"f+f+f+n | !+y+!+c F d b+g.O $.W <.u+J  +%. +%.%.%.k.k.k. +S P.B.$+8.[+4+q F W.$.`.n.~+F F F Q.Q.e.~.R.o.-+8.j h.(+-+(.6 p.(+p+f+f+f+",
"f+f+f+6+`.r d :+,.| s L.d ,.O ,.2 z J S /.7  + +%.k.k.%.p C J >.:.[+R.B+!+H.a+H.W.Q.F H.a+H.c 2.1+x.[+6 H H g+h.j b r (+{.G ] f+f+f+",
"f+f+f+n B+B+S.S.,.'.R.4+B+B+r y.,.z+/+5.S C C %. +S 9+G.7+Y d.z L.-+b e.$.F H.H.H.H.H./ F y+d+R.6 h._.(+]+j p.{.h.R.'.j @+@+p+f+f+f+",
"f+f+f+n d+'., d+r L.L.'.'.'.'.`.$+z+[.B./+/+p C D+M &+=+:.d.7.W R.x.b `.z+Q.Q.F a+/ H.H.c d+R.I.(+(+}.>+F.=+p.p.h.8.8.I.I.>+2+f+f+f+",
"f+f+f+O.4+,+b , 4+R.R.b '.s B+'.r r ,.2 [.<.|.J M :.=+|+^+J W : j.-+R.j.`.w+Q.F H./ H.c 4+R.b+: c.++++^+: 7+=+1.} ]+g+h.F.F.p+f+f+f+",
"f+f+f+O.s 1+@.'.L.(.@.R.b b+'.b B+'.O $+z+[.5.` M :.` {+/.+.Y ,.r -+E ,+w.w+Q.F H.F !+A+:.A+A+` z c.c.c.c.++|.++++e+e+^+M b+O.f+f+f+",
"f+f+f+O.1+R.1+b R.(.L.L.L.b @.b b 4+$+r r ` z :.: ` B.e+J ++Y q A+[+[+,+#+!+!+z+z c.:.:.: M : ` c.c.c.^+^+^+^+e+/.e+|.^+|.++n f+f+f+",
"f+f+f+2+E [+R.1+(.R.R.R.R.b L.'.b+S.b A+b z X d.c./+/.P.+.|.` O A+=+b+: ,.` g.e+^+7+:.:.:.:.: c.c.^+^+^+^+^+/.6.++++++e+++9+n f+f+f+",
"f+f+f+p+j j R.R.R.R.(.R.R.L.1+s b+A+4+b g.` ` 5.e+>.e+|.: M : ` ` : : : c.++^+c.7+:.: :.:.: : c.^+^+++^+^+/.6.++e+++e+n+n+e+n f+f+f+",
"f+f+f+t+p+p+O.2+O.O.O.O.O.O.O.O.O.O.O.O.n n n n n ' n n O.n n O.n n n O.n n n O.p+O.O.O.n O.n n n n n n ' ' ' ' ' ' n ' n ' t+f+f+f+",
"f+f+f+f+f+f+f+f+f+f+f+f+f+f+f+f+f+f+f+f+f+f+f+f+f+f+f+f+f+f+f+f+f+f+f+f+f+f+f+f+f+f+f+f+f+f+f+f+f+f+f+f+f+f+f+f+f+f+f+f+f+f+f+f+f+f+",
"f+f+f+f+f+f+f+f+f+f+f+f+f+f+f+f+f+f+f+f+f+f+f+f+f+f+f+f+f+f+f+f+f+f+f+f+f+f+f+f+f+f+f+f+f+f+f+f+f+f+f+f+f+f+f+f+f+f+f+f+f+f+f+f+f+f+",
"f+f+f+f+f+f+f+f+f+f+f+f+f+f+f+f+f+f+f+f+f+f+f+f+f+f+f+f+f+f+f+f+f+f+f+f+f+f+f+f+f+f+f+f+f+f+f+f+f+f+f+f+f+f+f+f+f+f+f+f+f+f+f+f+f+f+"};
