/* XPM */
static char * _5_frame_5[] = {
"66 100 256 2",
"  	c None",
". 	c #180907",
"+ 	c #3EC17B",
"@ 	c #547C4C",
"# 	c #58C07C",
"$ 	c #373435",
"% 	c #5FCD80",
"& 	c #5F8967",
"* 	c #763512",
"= 	c #69B57B",
"- 	c #726B4D",
"; 	c #A27C64",
"> 	c #62DA9A",
", 	c #A19187",
"' 	c #7AC191",
") 	c #9E4E21",
"! 	c #561A06",
"~ 	c #E1DE95",
"{ 	c #856A63",
"] 	c #6B5E55",
"^ 	c #D0C07E",
"/ 	c #74CD91",
"( 	c #C8B577",
"_ 	c #4B6F41",
": 	c #A796A8",
"< 	c #F5EAE1",
"[ 	c #95471C",
"} 	c #342C2B",
"| 	c #8ACDAA",
"1 	c #BFAD73",
"2 	c #E7C2A0",
"3 	c #9C6849",
"4 	c #E1B795",
"5 	c #465F34",
"6 	c #684633",
"7 	c #BC915D",
"8 	c #340F05",
"9 	c #5A3722",
"0 	c #B07E45",
"a 	c #3B9E54",
"b 	c #619F72",
"c 	c #6EDA9E",
"d 	c #E1C193",
"e 	c #B8958B",
"f 	c #814624",
"g 	c #EFEEEC",
"h 	c #D9CE8C",
"i 	c #F7F2E7",
"j 	c #7EDA9A",
"k 	c #D7B777",
"l 	c #9D6658",
"m 	c #B08679",
"n 	c #669666",
"o 	c #C2A364",
"p 	c #A2CAA4",
"q 	c #342624",
"r 	c #9ABE9E",
"s 	c #7C5C51",
"t 	c #DAC198",
"u 	c #9CB8BA",
"v 	c #6D260B",
"w 	c #595137",
"x 	c #AFA6A1",
"y 	c #669296",
"z 	c #D59886",
"A 	c #BC7C4C",
"B 	c #76DE9A",
"C 	c #3FB871",
"D 	c #3F1103",
"E 	c #7B4936",
"F 	c #BC735E",
"G 	c #D0CCC3",
"H 	c #D2B393",
"I 	c #E4DE9A",
"J 	c #4E513B",
"K 	c #E8D9CC",
"L 	c #A35C2E",
"M 	c #705346",
"N 	c #B88A5C",
"O 	c #8D758B",
"P 	c #975C2F",
"Q 	c #221617",
"R 	c #D0C686",
"S 	c #4C2C21",
"T 	c #7E4F39",
"U 	c #CAA99D",
"V 	c #B9917C",
"W 	c #E2D897",
"X 	c #5E2C18",
"Y 	c #9F7660",
"Z 	c #9E889F",
"` 	c #A9713F",
" .	c #937D7A",
"..	c #4C3530",
"+.	c #E7CBA4",
"@.	c #FAF6EE",
"#.	c #863C17",
"$.	c #C9B596",
"%.	c #5D4735",
"&.	c #46200F",
"*.	c #642309",
"=.	c #875D4A",
"-.	c #42B06C",
";.	c #BF8369",
">.	c #B4A393",
",.	c #714B4D",
"'.	c #322222",
").	c #B07059",
"!.	c #4BC07A",
"~.	c #393F3A",
"{.	c #E2D0CC",
"].	c #F3DFC2",
"^.	c #4E1905",
"/.	c #CA9A65",
"(.	c #528251",
"_.	c #B88454",
":.	c #6B3D2E",
"<.	c #734532",
"[.	c #BDA19F",
"}.	c #985226",
"|.	c #776878",
"1.	c #826B76",
"2.	c #553231",
"3.	c #8F8C87",
"4.	c #C9867B",
"5.	c #D0AB6D",
"6.	c #AF7D64",
"7.	c #87C1CB",
"8.	c #57A475",
"9.	c #D2C68A",
"0.	c #A4C298",
"a.	c #432D2A",
"b.	c #7F5352",
"c.	c #A35F4E",
"d.	c #ECD9BE",
"e.	c #C88E5C",
"f.	c #292525",
"g.	c #8CA886",
"h.	c #744E3B",
"i.	c #958099",
"j.	c #B9B6AA",
"k.	c #C5B6B1",
"l.	c #43332B",
"m.	c #5B260E",
"n.	c #925F41",
"o.	c #9E7D7C",
"p.	c #A2725F",
"q.	c #FCFAF7",
"r.	c #BDBFB7",
"s.	c #8E7667",
"t.	c #8EB2A0",
"u.	c #C99889",
"v.	c #4A1805",
"w.	c #D9B696",
"x.	c #CDAC8B",
"y.	c #4DCA7B",
"z.	c #C79372",
"A.	c #ABA0B4",
"B.	c #616050",
"C.	c #8A5443",
"D.	c #C8C1BB",
"E.	c #60423D",
"F.	c #936758",
"G.	c #CC9579",
"H.	c #E0C3AD",
"I.	c #B4B6B6",
"J.	c #5A8C92",
"K.	c #A89F91",
"L.	c #CE9F6B",
"M.	c #AB6838",
"N.	c #6B6865",
"O.	c #311E17",
"P.	c #C18476",
"Q.	c #ECD8BA",
"R.	c #97564B",
"S.	c #DCCDBF",
"T.	c #56200A",
"U.	c #8B5329",
"V.	c #D29A9A",
"W.	c #421707",
"X.	c #42955E",
"Y.	c #C9A48B",
"Z.	c #37AA64",
"`.	c #B06E3E",
" +	c #7E3B1B",
".+	c #805642",
"++	c #925F53",
"@+	c #3E2C27",
"#+	c #45261B",
"$+	c #C2C2C3",
"%+	c #734A38",
"&+	c #A56235",
"*+	c #BD9E8E",
"=+	c #419E6D",
"-+	c #969696",
";+	c #AA6B54",
">+	c #C99462",
",+	c #727E56",
"'+	c #281E1E",
")+	c #8C4920",
"!+	c #BB7C61",
"~+	c #84C0C6",
"{+	c #9F867E",
"]+	c #D9AC88",
"^+	c #907065",
"/+	c #AA7661",
"(+	c #86B6C2",
"_+	c #C1C6BD",
":+	c #E8CDB4",
"<+	c #D8C2B4",
"[+	c #67C388",
"}+	c #5F422A",
"|+	c #A06D68",
"1+	c #B0A9B8",
"2+	c #EFE3D8",
"3+	c #C28453",
"4+	c #D0B8AF",
"5+	c #C2BACB",
"6+	c #5D6D56",
"7+	c #3B3A3A",
"8+	c #868685",
"9+	c #9E5546",
"0+	c #C7C6C0",
"a+	c #301A18",
"b+	c #92C28C",
"c+	c #712E0E",
"d+	c #5A3A3A",
"e+	c #815148",
"f+	c #D6A286",
"g+	c #9F6C59",
"h+	c #BCACA9",
"i+	c #D0A178",
"j+	c #4C463A",
"k+	c #76A477",
"l+	c #E5CF8D",
"m+	c #E0B9AA",
"n+	c #AC9287",
"o+	c #C2C1BB",
"p+	c #D7B6B3",
"q+	c #80B68A",
"r+	c #558A5A",
"s+	c #5E2008",
"t+	c #965446",
"u+	c #8E8682",
"v+	c #684644",
"w+	c #C58A5A",
"x+	c #A15526",
"y+	c #BBB9B8",
"z+	c #FEFEFE",
"A+	c #B57443",
"B+	c #EBC5B2",
"C+	c #52666A",
"D+	c #917377",
"E+	c #D2C0BA",
"F+	c #280C05",
"G+	c #88605D",
"z+z+z+z+z+z+z+z+z+z+z+z+z+z+z+z+z+z+z+z+z+z+z+z+z+z+z+z+z+z+z+z+z+z+z+z+z+z+z+z+z+z+z+z+z+z+z+z+z+z+z+z+z+z+z+z+z+z+z+z+z+z+z+z+z+z+",
"z+z+z+z+z+z+z+z+z+z+z+z+z+z+z+z+z+z+z+z+z+z+z+z+z+z+z+z+z+z+z+z+z+z+z+z+z+z+z+z+z+z+z+z+z+z+z+z+z+z+z+z+z+z+z+z+z+z+z+z+z+z+z+z+z+z+",
"z+z+z+z+z+z+z+z+z+z+z+z+z+z+z+z+z+z+z+z+z+z+z+z+z+z+z+z+z+z+z+z+z+z+z+z+z+z+z+z+z+z+z+z+z+z+z+z+z+z+z+z+z+z+z+z+z+z+z+z+z+z+z+z+z+z+",
"z+z+z+G 8+8+8+8+8+8+8+8+8+8+8+8+8+8+8+8+8+8+8+8+8+8+8+8+8+8+8+8+8+8+8+8+8+8+8+8+8+8+8+8+8+8+8+8+8+8+8+8+8+8+8+8+8+8+8+8+8+8+8+g z+z+",
"z+z+z+8+] : , u+{ s ,.h.M h.M 6 9 #+a+'+_ n b 8.8.8.8.=+=+=+=+=+=+=+=+=+=+=+X.X.X.X.X.X.X.=+=+X.X.X.X.(.] ,.1.] s N.y y J.J.~.y+z+z+",
"z+z+z+8+{+<+E+$.Y.e m /+p.g+3 n.E 9 #+q g.j B B c > > % y.y.% y.y.y.y.y.y.y.y.y.y.y.y.y.y.y.y.y.y.# [+= 3.[.m e V g.| ~+7.7.C+y+z+z+",
"z+z+z+8+{+<+4+*+[.V.*+u.6.g+3 n.f 9 #+d+r.| / c % % y.y.y.y.y.y.y.y.y.y.y.y.y.y.y.y.y.y.!.!.!.!.y.!.# = : :+p+o.O u 7.~+7.r.6+y+z+z+",
"z+z+z+8+Z S.D.o.*+[.*+e Y l 3 U.<.9 #+{ j.b+% # % y.+ + + + + y.!.!.+ + + + y.+ + + + + + + + !.C # -.(+I.<+p+D+M u (+(+7.G |.I.z+z+",
"z+z+z+8+, S.<+s.{+u.*+V p.3 n.T  +9 #+1 h+r [+# y.# + !.+ !.+ + + + + + + + + + + + + + + C C -.C 8.= x r.k.,.<.,.O : 1+y+_+] y+z+z+",
"z+z+z+8+, {.<+1.b.o.V m ; n.U.T <.X 6 H.>.h = # !.!.C + + + + + + + + C C + C + C -.-.Z.-.-.Z.-.8.r+3.>.p+{ 2.d+=./+m h+K S.B.y+z+z+",
"z+z+z+8+u+S.S.D+v+G+D+m 6.3 E f :.X .+S.>._+q+= -.C C C -.Z.Z.Z.Z.Z.Z.Z.Z.Z.a a Z.a a a a a X.r+_ J n+*+m ++<.G+F./+U S.S.p+M I.z+z+",
"z+z+z+8+i.<+E+1.2.,.s N ; =.<.T  +2..+4+o K.( k+b 8.8.Z.Z.a a X.X.X.X.X.X.(.X._ _ _ 5 _ 5 _ 5 j+j+M e m o.1.++/+|+n+E+E+4+{+Q y+z+z+",
"z+z+z+8+ .$.U  .E.v+{ m p.U.6 %+<.9 { 4+h+s.1 g.5 5 @ @ @ _ _ 5 5 5 j+J j+w %.%.j+j+..l.} @+l.9 }+s n+{+D+^+^+|+D+p+G E+A.M Q y+z+z+",
"z+z+z+8+^+U 4+4+K.G+o.N ; U.<.<.:.9 n+4+$.s - Y .+}+9 l.l.} @+}+6 h.%+T T %+M T h.f <.9 :.9 :.:.}+D+< 2+< < 2+2+{.k.p+4+h+3.J y+z+z+",
"z+z+z+8+1.>.h+E+D.k.{+6.; G+.+%+:.2.4+_+j.$.E+x s.h.%+<.}+:.:.E f T %+E T E T h.%+<.<.:.:.:.}+:.<.s G r.5+5+5+5+5+$+$+r.r.3.J y+z+z+",
"z+z+z+8+3.E+D.r._+$.{+0 Y n.M h.9 M E+r.r.D.D.r.>.6 h.f f f <.<.%+f E T T %+f <.<.<.:.<.9 :.:.<.v+M x I.h+I.j.r.D.D.D.D.o+_+N.y+z+z+",
"z+z+z+8+3._+_+_+_+>.; p.^+n.h.6 9 , k.o+$+D.D.o+D.M h.%+<.<.<.f <.E %+E T %+f <.<.<.:.:.9 :.:.6 %+M u+j.I.o+D.$+0+D.D.D.D.$+N.I.z+z+",
"z+z+z+8+3._+o+o+D., Y ` ` =.h.}+%.k.0+o+r.r._+_+D.{ h.f <.f f E f E E T E E <. +:.:.:.:.:.:.:.<.E T G+j.o+0+$+0+D.$+D.0+_+o+N.y+z+z+",
"z+z+z+8+3.o+r.D.E+; Y 3 ^+=.h.:.- D.r.r.$+$+_+_+0+ .M E <.<.<.%+E E E T <.<.<.<.:. +<.:.<.<.:.<.E e+s j._+o+r.0+0+0+$+D.0+_+N.y+z+z+",
"z+z+z+8+3.o+r.r.$.s.p.` 3 .+%+:.{+D.o+D.o+D.D.r.r.{+.+T E f T U.T T T E E f <.f <.<.<.<.<.<.:.E.h.T ] I._+D.D.r.$+$+_+_+_+$+N.y+z+z+",
"z+z+z+8+3.r.r.o+j.g+Y 3 F.T <.}+k.y+y+y+o+r.r.r.r.{+s h.E T T .+T T T T E <.E E E E E E <.<.<.6 h.h.- g.p _+_+o+_+_+_+o+0+_+N.y+z+z+",
"z+z+z+8+3.r.k.r.K.s.` ^+n.T <.- k.r.o+o+_+r.r.r.o+ .s .+T E T T U.T T T %+C.E T T E E %+<.%+<.<.%+M n r+b+x _+$+D.r.o+_+o+$+N.y+z+z+",
"z+z+z+8+3.o+y+D.e Y ` 3 =.h.6 n+y+o+o+r._+_+r._+_+ .s .+T h.T T T T f T <.:.:.<.E %+E E <.%+%+E E B.q+b t.s.y+o+o+$+r.r.r.r.N.y+z+z+",
"z+z+z+8+u+j.r.j., Y ` 3 U.<.h.j.o+o+_+r.y+r.r.r.j.u+=.U.T f T T T E %+%+d+<.2.<.T E <.<.<.T h.h.h.k+= ' - { n+r.o+r.5+D.$+$+B.y+z+z+",
"z+z+z+8+8+y+r.$.n+; p.F.U.6 ^+D.o+r.r.r.y+r.r.o+j.-+s U.T T E E E <.f <.E .+T E T E f %+<.E h.M r+= ' 6+s .+^+y+r.D.o+r.r.0+N.y+z+z+",
"z+z+z+8+3.j.j.j.{+; ` n..+%+>.j.r.y+r.y+j.r.y+$.g.p 6+s .+T T T <.<.<.<.T e+T E %+<.<.f %+h.M 6+/ / 6+6 %+M G+e D.y+r.y+o+r.N.y+z+z+",
"z+z+z+8+8+r.r.k., m Y F.h.s k.k.r.j.y+r.j.r.y+r.8+p g.B..+T T T <.f <.<.h.T T E T <.<.f %+h._ ' / n E.%+h.M s  .y+y+r.y+y+y+N.y+z+z+",
"z+z+z+8+8+r.r.k.x.1 *+Y { K.r.y+y+r.j.y+0.r.r.1 - 3.b+k+6+w T T E <.f <.E h.<.f <.<.<.<.w @ ' # = J <.6 <.T s ^+x r.y+y+r.r.B.I.z+z+",
"z+z+z+8+3.j.r.j.m o.^+.+{ k.r.y+y+y+j.j.j.y+j.j.n..+,+' ' (.w M <.f <.<.f %+<.%+E <.}+w b ' # [+@ }+6 %+6 h.e+G+K.j.y+y+y+y+N.y+z+z+",
"z+z+z+8+8+j.j.>.m 6.3 T {+k.y+y+y+y+j.r.r.j.I.x =.U.w - q+' = @ 5 j+6 %+<.<.<.6 }+J (./ [+# # = j+:.<.<.h.T T =.{+j.y+y+r.I.B.I.z+z+",
"z+z+z+8+8+j.k.*+N 6.F.s U y+y+r.r.y+y+j.r.j.y+x s .+T <.w k+= [+' = r+_ 5 5 5 @ n ' [+!.# # [+(.6  +%+<.%+e+.+=. .k.y+I.y+y+B.y+z+z+",
"z+z+z+8+u+I.y+e V 6.n.s.k.y+r.j.j.y+y+j.j.j.j.K..+.+h.f %+}+k+= !.# [+[+[+[+/ [+# !.!.# # !.[+5 d+<.%+E h.e+T =.^+j.y+j.y+r.N.y+z+z+",
"z+z+z+x 7+7+~.7+$ 7+7+7+7+7+~.7+~.7+7+7+7+~.~.~.7+$ $ $ $ l.7+7+7+~.~.7+~.7+~.7+7+7+7+7+~.7+7+$ $ $ $ $ $ $ $ $ $ 7+~.7+7+7+7+G z+z+",
"z+z+z+z+z+z+z+z+z+z+z+z+z+z+z+z+z+z+z+z+z+z+z+z+z+z+z+z+z+q.z+z+z+z+z+z+z+z+z+z+z+z+z+z+z+z+z+z+z+z+z+z+z+z+z+z+z+z+z+z+z+z+z+z+z+z+",
"z+z+z+z+z+z+z+z+z+z+z+z+z+z+z+z+z+z+z+z+z+z+z+z+z+z+z+z+z+z+z+z+z+z+z+z+z+z+z+z+z+z+z+z+z+z+z+z+z+z+z+z+z+z+z+z+z+z+z+z+z+z+z+z+z+z+",
"z+z+z+q.i g g i g g i g i g i g g g i g i g g g g i g g g g g g g g g g g g g i g g g g g g i g i g g i g i g g i g g i g g i z+z+z+",
"z+z+z+3.Q . . . . . . . . . . . F+F+Q a+O.q #+q @+@+@+l.l.$ l.} } } $ l.Q Q . F+a+O.'.q @+@+@+@+l.l.l.$ l.l.l.l.l.l.l.l.l.@+'+$+z+z+",
"z+z+z+8+d+X D F+8 8 D D v.v.^.T.c+c+ +P M.A+A+A 3+e.7 >+L.L.L._.F.; i+k <.#.v c+#.x+M.A+3+3+w+e.>+L.L.L././.5.i+i+i+L.L.>+>+6 I.z+z+",
"z+z+z+8+w m.8 8 D 8 v.W.! ! v.m.c+* #.&+M.A+A+A 3+e.>+e.>+i+5.3 T Y f+4 /+f c+v #.x+M.`.A 3+3+e.>+/./././.L.i+i+/.>+/.>+3+A+}+y+z+z+",
"z+z+z+8+S T.8 8 D D W.v.v.T.D T.c+ +)+&+M.A+A A 3+w+w+3+w+>+]+; 6.G.o H i+#.) v #.) L `.A+A A 3+w+z L./././.L.>+w+w+3+3+A+M.9 I.z+z+",
"z+z+z+8+&.W.8 8 8 D W.v.^.s+D T.c+* )+L M.`.A+A+A+M.M.3 `._.L.]+Y.i+i+x.4 x+)+[ * ) L M.`.A+A A w+>+>+>+>+/./.3+A A A A+` n...y+z+z+",
"z+z+q.8+&.v.8 D 8 D D v.! m.D &.v * f P L M.`.A+6.n.; n.;+` 3+L.k ]+L.i+]+` #.L [ [ x+L M.`.A+A 3+w+>+>+>+>+>+_.` M.x+U.0 /...y+z+z+",
"z+z+z+8+W.W.D D 8 W.D v.! T.D T.X * [ }.L L `.;+f :.F.3 0 A A e.Y.w.>+z.L.A )+}.0 U.L M.M.`.A+A A w+e.>+>+/.>+_.&+U.}.P 0 ( B.j.z+z+",
"z+z+z+8+W.T.D 8 8 D D ! ^.T.D W.*.c+)+}.&+`.` n..+3 p.6.!+A !+_.>+]+5.e.f+7 ) )+` 3+L M.M.`.A A w+w+w+e.>+i+5.` L M.M.M.7 ^ - y+z+z+",
"z+z+z+8+a+&.D 8 8 W.D v.T.s+D ^.*.c+f }.&+A+A _._._._.w+3+A A+A+w+L.2 ]+>+3+x+}.f 5.A M.A+A A 3+e.e.e.w+e.>+i+_.M.`.M.`.o h - I.z+z+",
"z+z+z+8+W.T.D D 8 D D ! ! s+v.v.s+v  +)+L `.0 _._.3+3+4.w+!+A+A+;.e.x.5.N A+L L #.0 5.3+A+A 3+w+e.>+e.>+>+L.L.N ` A+` ` ( 9.- y+z+z+",
"z+z+z+8+O.s+D D 8 D D ! ! *.! v.*.c+c+f }.&+`.A+A+A 3+3+A A 0 !+0 _.f+w.]+L L L [ L o 5.A A 3+w+e.>+>+>+>+L.i+N 0 A A+0 9.h - y+z+z+",
"z+z+q.8+&.T.D D D D D ! ! s+s+! v * #.)+)+x+&+`.A+F A A 3+3+3+3+w+G.3+]+]+P ) x+[ L 0 ^ /.A A e.>+>+>+>+L.L.L.N A 0 0 /.l+R - y+z+z+",
"z+z+z+8+O.T.v.D D D D ! ! *.! ! v * )+f U.x+L L M.A+A A A w+3+F ).F F f+H &+)+x+) x+`.7 l+/.A w+e.>+>+>+/.L.L./.3+A 0 ( h h - y+z+z+",
"z+z+q.8+&.s+D v.D D D ! s+*.s+! ! *.D 8 X U.L &+M.M.A+A w+!+`.;+F F w+f+5.L [ }.) x+M.` 5.d >+e.>+/.>+/.L.5.o 7 3+A _.l+h h - y+z+z+",
"z+z+z+8+W.T.! v.v.D D ! ! s+s+! ^.&.8 F+8 :.}.L M.M.A+A w+e.4.4.F F G.x.i+P [ ) ) x+L M.0 k ^ >+>+/./.L.i+i+/.w+0 0 /.h h h - y+z+z+",
"z+z+z+8+W.T.v.v.v.D D ! s+! *.m.v.&.8 F+8 D c+U.&+;+A+A 3+e.e.w+e.e./.f+/.x+[ )+) x+L M.`.w+l+k L./././.5.L.>+w+0 0 1 h W h - y+z+z+",
"z+z+z+8+a+T.^.^.^.D D ! ! ! *.*.T.! 8 8 8 F+W.:.f )+L M.`.A+3+3+w+e.e.>+`.) ) ) ) L x+M.M.0 /.l+k >+L./.L./.e.3+3+N h h W h - y+z+z+",
"z+z+z+8+W.T.^.T.! D D ! s+! *.m.! *.D 8 8 8 W.X U.X * f }.&+&+`.F A A &+L [ ) }.x+x+L L M.A+0 5.l+( >+/.>+e.3+A 0 ^ h h h W - y+z+z+",
"z+z+z+8+8 T.^.T.W.D v.! *.! s+*.T.*.! v.D D T.X P :.c+*  +)+}.x+L L x+M.}.)+x+) x+x+x+L M.A+3+w+k l+o >+w+3+3+0 o l+W h h h - r.z+z+",
"z+z+z+8+W.T.T.T.D v.v.s+s+! s+*.*.m.T.m.s+*.c+c+T P * *  +#.#.)+}.L L A+) ) ) x+x+x+) x+&+A+A e.e.^ l+/.N 3+_./.h W W h R h - I.z+z+",
"z+z+z+8+W.v.T.! D ! v.s+*.s+*.*.v X s+X *  +)+)+f 0 P #.[ ) ) [ [ )+L L x+) ) ) x+x+) ) &+A+A w+w+7 k 5.o 5.^ l+W W h h 1 R - y+z+z+",
"z+z+z+8+W.^.T.T.D v.^.v *.s+s+*.v v *.c+ +U.&+L P ` e.f )+) L L L &+M.[ x+x+x+x+x+x+[ ) &+`.A 3+e.w+7 ( l+W W ~ W ~ R ~ ^ R - y+z+z+",
"z+z+z+8+8 T.! T.^.! v.v *.*.s+*.v v *.c+f x+&+&+M.3 5.` [ ) x+x+L M.&+) ) L x+x+x+) [ [ L M.A+3+w+3+3+7 ~ ~ ~ ~ ~ h ^ W R ^ 6+y+z+z+",
"z+z+z+8+W.T.T.! ^.T.! X v *.*.s+*.v *.X * U.&+&+&+L 7 5.P x+L x+L A+}.) x+L L x+x+) [ [ L `.A+3+3+w+e.7 R ~ ~ W W ( R W 1 ^ - y+z+z+",
"z+z+z+8+&.X ! T.^.T.! v v v *.v *.v s+*.v }.P L &+P 0 5._.P L L M.&+) x+x+L L x+x+) [ [ x+`.`.A 3+3+w+e.( W ~ ~ W ( ~ h j.R 6+j.z+z+",
"z+z+z+8+S T.m.s+! T.^.X v v s+s+v c+v X *  +)+&+&+L M.N k &+L M.A+&+x+x+x+x+x+L x+x+[ #.L &+`.A 3+3+w+7 5.W W W W h h ~ 1 ^ - y+z+z+",
"z+z+z+8+l.m.m.T.s+s+! m.v v *.*.v c+v * f )+L P L L M.` k N &+A M.M.L L L x+x+x+x+) [ #.x+&+`.A+3+3+3+e.o ~ ~ ~ ~ ~ ~ h 1 R B.y+z+z+",
"z+z+z+8+@+<.X m.m.T.! s+*.*.v *.v c+c+ +f }.}.x+L &+&+0 7 ^ A+M.M.M.M.M.M.L x+x+) [ [ #.}.&+M.`.A A w+7 5.h ~ ~ ~ ~ ~ ( 1 9.- y+z+z+",
"z+z+z+8+Q l.a+8 8 F+F+8 8 8 D D 8 D 8 W.&.#+S S S S S 9 9 w }+S X X 9 c+9 X X X m.&.&.&.#+S 9 9 9 }+}+}+w - - 6+- 6+6+J B.B.l.r.z+z+",
"z+z+z+< $+$+$+_+_+0+D.$+o+D.o+D.$+D._+_+_+_+o+o+_+0+_+_+_+0+_+0+_+0+o+_+D.0+_+_+_+D.D._+D._+o+o+_+D.D._+R r.o+o+o+D.D.o+0+_+_+i z+z+",
"z+z+z+z+z+z+z+z+z+z+z+z+z+z+z+z+z+z+z+z+z+z+z+z+z+z+z+z+z+z+z+z+z+z+z+z+z+z+z+z+z+z+z+z+z+z+z+z+z+z+z+z+z+z+z+z+z+z+z+z+z+z+z+z+z+z+",
"z+z+z+1+-+-+-+-+-+-+-+-+-+-+-+-+-+-+-+-+-+-+-+-+-+-+-+-+-+-+-+-+-+-+-+-+-+-+-+-+-+-+-+-+-+-+-+-+-+-+-+-+-+-+-+-+-+-+-+-+-+-+1+z+z+z+",
"z+z+z+f.Q '+Q '+Q . Q '+'+Q '+Q Q Q Q Q . Q . . . . . Q Q '+} 3.K.x x x x K.-+, 3.u+^+=.++Y  .{+3.{+ .M }+6 {  ., s.; { T T } z+z+z+",
"z+z+z+f.@+} O.@+'.'+} @+@+a.@+l.@+f.'+Q Q Q Q Q '+'+f.} $ @+] 2+q.@.q.q.@.< 2+2+2+H.u.z.G.5.w.l+Q.l+4 _.;..+K.t d.H.4 3+;.).} z+z+z+",
"z+z+z+f.S l.q q '.Q '.} ..a.a.} f.'+'+'+'+'+Q Q f.f.$ l.l.l.u+i q.q.q.@.i {.{.< < m+P.z G.f+m+2 +.H.m+z.6.e+{ $.Q.{.L.;.3+;+q z+z+z+",
"z+z+z+f.d+d+..a.q Q Q '+d+..@+'.q } } } f.Q f.} l...7+d+d+%.>.i q.q.q.i i d.].< 2+V.F z f+]+m+w.4 d H.4 Y.e ^+Y.B++.]+u.F R.} z+z+z+",
"z+z+z+} v+v+d+@+a.a+'.a.d+} q @+a.a...l.'.'+} d+E.d+v+%.v+v+A.i q.q.z+@.i :+:+B+V.!+F z m+B+4 ]+m+2 +.:+:+2 H x.H.+.4 /.c.t+} z+z+z+",
"z+z+z+f.E ,.E.'.a.'.d+E.d+@+a.2.2.d+d+a.a+a.E.v+,.M ,.,.,.b.{+< @.q.@.@.2+m+V.4.F ;+!+z :+:+2 2 2 :+Q.Q.].].{.:+{.H.4 F t+9+q z+z+z+",
"z+z+z+} b.C.,.#+l.a+2...a...d+E.E.v+E.'.a.,.b.b.++G+F.++G+++D+{.i q.@.i :+f+P.4.F F 4.4 B+:+B+B+B+:+].].].].].d.Q.2 G.c.9+t+} z+z+z+",
"z+z+z+q ++b.b.@+..q E.2.d+,.,.,.b.,.d+a.b.G+l |+F.l l |+|+l |+V 2+i q.i E+V.4.4.4.4.z 4 +.:+:+B+2 B+:+Q.d.].Q.Q.+.f+F 9+)+f f.z+z+z+",
"z+z+z+} ++++b.a.a.d+v+2.d+,.M b.b.,.a.v+G+l F.|+|+|+|+|+|+|+|+|+*+d.i i B+U V.V.V.V.4 m+B+B++.B+2 2 2 B++.+.+.2 4 z ;+f :.E q z+z+z+",
"z+z+z+} ++c.++d+2.2.E.2.E.b.2.2.2.#+2.:.,.b.++D+|+|+o.V o.|+F.{ s {+m+H.p+u.V.]+m+4 4 d 2 2 2 2 4 4 4 2 2 2 d 2 ]+F 9+<.<.E f.z+z+z+",
"z+z+z+} G+++G+d+d+2.v+2.E.b.b.b.,.,.|.1.O e Z m e m m Z o.{+{+, e U U G+/+/+f+4 m+m+4 4 d d 2 2 2 2 4 4 4 4 4 ]+e.c.f :.* ,.q z+z+z+",
"z+z+z+} F.|+D+1.1.i.e A.h+k.p+E+A.h+{.2+i i 2+E+G <+S.e H.H.<+m+m+t Y.u.Y /+;.f+]+4 4 d 2 2 2 +.2 2 d d 4 ]+f+z F c.E :.:.C.} z+z+z+",
"z+z+z+7+{.2+2+< 2+2+K 2+K S.E+S.{.i @.@.z+z+q.@.@.2+K $.H w.H w.w.t x.w.4 !+l ;.z ]+4 B++.l++.+.+.2 2 2 4 z >+4.).;+c.R.R.).} z+z+z+",
"z+z+z+7+K < i < < < < 2+K E+{.i 2+S.i q.z+z+z+z+q.q.i K :+t H.t t t m+Y.U 6.C.R.).G.]+d 2 2 2 +.B+2 2 4 L.f+f+G.P.).c.;+;+).} z+z+z+",
"z+z+z+7+<+w.x.Y.V.Y.Y.x.$.H Q.B+e {.g q.z+q.q.q.z+z+z+i 2+{.t E+m+t 4 H m F.=.++++;+6.i+]+4 4 2 4 4 ]+f+/.z f+z 4.P.;+;+F c.f.z+z+z+",
"z+z+z+$ N z.e L.i+Y.]+k d :+w.{+U <+].i 2+@.q.z+q.q.z+z+i 2+W t H w.w.H G+=.l ).).|+;+/+e.f+f+]+]+f+z e.!+A+z f+F c.c.;+!+++} z+z+z+",
"z+z+z+$ V /.u.i+i+i+f+]+4 w.; ; x.$.H.D.2+@.g q.z+q.q.z+q.g 2+K 4+x.x.m <.b.p.P.G.V /+/+!+e.G.L.i+L.G.G.4.c.A+).M.;+e+ +l ;+} z+z+z+",
"z+z+z+l.V e.z.z.z.z././.5.; g+V e U *+t K G i g g q.q.@.z+q.q.< K <+U F.<.C.6.u.]+]+u.P.w+z f+]+]+f+z ;.F ++c.e+ +d+2.<.C.C.f.z+z+z+",
"z+z+z+@+7 ;.N N ;._.N z.V 3 p.N V V e $.[.Q.2+{.@.g g q.q.q.g 2+K S.4+=.e+l P.i+]+4 4 f+i+]+]+]+]+>+A+R.e+f :.2.2.2.a.:.6.g+f.z+z+z+",
"z+z+z+} m ;.P.!+6.6.6.N g+F.; 6.m ; /.m x.4+$.2+G 2+@.g K x 3.1.s., [.b.e+).V f+]+4 ]+]+k 4 4 ]+G.).C.:.#+S :.v+2.'.a.d+^+p.} z+z+z+",
"z+z+z+} 6.6.6.6./+/+6.6.++l /+6./+m m m Y.n+S.$.S.2+K h+s.] ] s.u+e n+R.C.).e.z L.f+]+4 4 4 f+>+).=.v+d+d+d+E.F.,.'.S 2.<.<.f.z+z+z+",
"z+z+z+$ 6.).` ;+g+;+6.g+n.F.g+p.g+6.p.m m /.*+*+4+j.D.O |.1.Z 1+G , 6.|+e+l P.e.G.i+]+4 4 ]+z.|+G+^+i.: h+1+: O s ] M ,.v+S f.z+z+z+",
"z+z+z+} /+;+g+g+3 l g+F.n.g+F.g+g+/+p.6.Y u.6.*+n+H  .i.{ e {.{.x ^+V F E R.F P.e.z ]+]+f+V p.^+o.o.: A.: : : : 1+1+A.1+5+1+$ z+z+z+",
"z+z+z+} g+g+g+c.n.3 g+++=.++l F.p.F./+|+6.; m 6.e , O o.: E+4+{., D+u.|+<.C./+4.G.L.*+[., 1.O O o.i.Z : : : A.1+A.A.0+0+I.x $ z+z+z+",
"z+z+z+} l n.++C.e+l ++n.++++++++g+F.p.F.6.p.; o.*+D+i.*+4+{.E+5+>.m m D+s D+m m Z n+k.Z |.O D+|+O Z : : A.A.A.: 1+{.5+1+1+h+7+z+z+z+",
"z+z+z+} %+6 d+2.<.++++++++=.++G+l l |+Y |+/+l n+i.: h+5+E+k.[. .i.Z : Z Z Z Z A.1+A.Z |.O O O O i.Z : A.A.A.: 1+{.5+I.5+I.5+$ z+z+z+",
"z+z+z+f.E.2.S S b.++++++++=.=.++++g+F.Y l g+|+*+h+k.p+E+p+A.i.1.i.i.i.i.i.: 1+1+: O |.O O D+O i.Z Z A.: A.A.A.G 5+1+5+5+5+5+7+z+z+z+",
"z+z+z+} <.<.<.E G+F.++++=.C.C.=.++F.l p.|+++n+{.{.H.5+[.n+Z O i.O O i.A.1+1+A.Z O |.O O O O i.Z Z : A.A.1+A.5+5+I.5+5+5+0+$+7+z+z+z+",
"z+z+z+J } } } } } } } } } } } } } } } @+} } $ 7+~.7+$ } $ 7+} } } $ $ $ 7+$ $ $ f.$ } $ $ @+$ $ $ $ $ $ $ $ $ $ $ $ $ $ 7+$ J z+z+z+",
"z+z+z+z+z+z+z+z+z+z+z+z+z+z+z+z+z+z+z+z+z+z+z+z+z+z+z+z+z+z+z+z+z+z+z+z+z+q.q.z+z+z+q.q.z+q.z+z+z+z+z+z+z+z+z+z+z+z+z+z+z+z+z+z+z+z+",
"z+z+z+z+z+z+z+z+z+z+z+z+z+z+z+z+z+z+z+z+z+z+z+z+z+z+z+z+z+z+z+z+z+z+z+z+z+z+z+z+z+z+z+z+z+z+z+z+z+z+z+z+z+z+z+z+z+z+z+z+z+z+z+z+z+z+",
"z+z+z+z+z+z+z+z+z+z+z+z+z+z+z+z+z+z+z+z+z+z+z+z+z+z+z+z+z+z+z+z+z+z+z+z+z+z+z+z+z+z+z+z+z+z+z+z+z+z+z+z+z+z+z+z+z+z+z+z+z+z+z+z+z+z+"};
