/* XPM */
static char * _5_frame_2[] = {
"66 100 256 2",
"  	c None",
". 	c #140602",
"+ 	c #3DBA73",
"@ 	c #437E42",
"# 	c #7CBB81",
"$ 	c #79D290",
"% 	c #551B07",
"& 	c #543323",
"* 	c #9A7154",
"= 	c #84D0A7",
"- 	c #82DAA0",
"; 	c #833C18",
"> 	c #A0A165",
", 	c #8EBE98",
"' 	c #8ADAA6",
") 	c #8DE9D0",
"! 	c #3F3421",
"~ 	c #928650",
"{ 	c #C4B97C",
"] 	c #845438",
"^ 	c #5C5A46",
"/ 	c #4C7440",
"( 	c #A88763",
"_ 	c #E2DE95",
": 	c #92EAD1",
"< 	c #300F07",
"[ 	c #905438",
"} 	c #594238",
"| 	c #4DAB5F",
"1 	c #E2B594",
"2 	c #64DFB0",
"3 	c #9ECBC1",
"4 	c #C89D65",
"5 	c #AC703E",
"6 	c #371C13",
"7 	c #D5B496",
"8 	c #905C5A",
"9 	c #B3834D",
"0 	c #F1E7DD",
"a 	c #EFEEEC",
"b 	c #756E51",
"c 	c #98BB99",
"d 	c #986748",
"e 	c #B79187",
"f 	c #674131",
"g 	c #587F74",
"h 	c #F8F2E9",
"i 	c #B4A19A",
"j 	c #6AB781",
"k 	c #DEB89C",
"l 	c #D9CE8D",
"m 	c #A57066",
"n 	c #C8CCC5",
"o 	c #42C47A",
"p 	c #685345",
"q 	c #994C20",
"r 	c #4C1B08",
"s 	c #282424",
"t 	c #4A5D3C",
"u 	c #B78E5E",
"v 	c #DAB395",
"w 	c #E4D7CE",
"x 	c #692108",
"y 	c #985E4C",
"z 	c #737D51",
"A 	c #753214",
"B 	c #BEB67A",
"C 	c #724131",
"D 	c #985C2D",
"E 	c #D1C38A",
"F 	c #428E4D",
"G 	c #92DAB6",
"H 	c #7BBC90",
"I 	c #D9AC96",
"J 	c #C0AD6D",
"K 	c #804D3B",
"L 	c #382416",
"M 	c #B07E45",
"N 	c #86685E",
"O 	c #5ECC76",
"P 	c #494936",
"Q 	c #D7CCAB",
"R 	c #E4DE9A",
"S 	c #6D996B",
"T 	c #1F171D",
"U 	c #C17C66",
"V 	c #A4725C",
"W 	c #B48F77",
"X 	c #FBF6EF",
"Y 	c #704737",
"Z 	c #D6BFB1",
"` 	c #4E362C",
" .	c #9C8583",
"..	c #A76956",
"+.	c #442922",
"@.	c #399D57",
"#.	c #817263",
"$.	c #8FA693",
"%.	c #55240D",
"&.	c #E0D895",
"*.	c #6C3722",
"=.	c #B7A080",
"-.	c #E4BD9B",
";.	c #8A746E",
">.	c #B68571",
",.	c #77DEA5",
"'.	c #EAD8C1",
").	c #56A272",
"!.	c #804927",
"~.	c #CBBAAF",
"{.	c #85BE9B",
"].	c #A35A2B",
"^.	c #DDD0C8",
"/.	c #C79E7A",
"(.	c #BE8E58",
"_.	c #918270",
":.	c #846257",
"<.	c #C2AEA7",
"[.	c #4C2E24",
"}.	c #995429",
"|.	c #4FCA7B",
"1.	c #3E1104",
"2.	c #A06849",
"3.	c #C58581",
"4.	c #75604E",
"5.	c #4A4225",
"6.	c #A9968F",
"7.	c #92867B",
"8.	c #4D9D5E",
"9.	c #B67A48",
"0.	c #B87B65",
"a.	c #362E2B",
"b.	c #764E50",
"c.	c #3F3E39",
"d.	c #9EB2A6",
"e.	c #C3C1BE",
"f.	c #78A8AF",
"g.	c #6AD192",
"h.	c #9EC292",
"i.	c #583736",
"j.	c #A69E8E",
"k.	c #B1755C",
"l.	c #C39A95",
"m.	c #E7DFD2",
"n.	c #8FC1C5",
"o.	c #90675B",
"p.	c #FEFEFE",
"q.	c #84544B",
"r.	c #C89661",
"s.	c #4A3434",
"t.	c #AE7155",
"u.	c #CEAB6C",
"v.	c #BF846A",
"w.	c #270E06",
"x.	c #674C45",
"y.	c #7CB4B5",
"z.	c #7C8065",
"A.	c #55523E",
"B.	c #77DDB7",
"C.	c #BD8C78",
"D.	c #56BA79",
"E.	c #D3C484",
"F.	c #774E3A",
"G.	c #E6CCA0",
"H.	c #C98E72",
"I.	c #716967",
"J.	c #621E07",
"K.	c #D19D7E",
"L.	c #8E461D",
"M.	c #E6C4A2",
"N.	c #986E68",
"O.	c #794836",
"P.	c #CFC2BA",
"Q.	c #7ABDC5",
"R.	c #A99288",
"S.	c #C4A092",
"T.	c #481504",
"U.	c #AB7A6B",
"V.	c #5C4E49",
"W.	c #5E301D",
"X.	c #6CBEC4",
"Y.	c #A56032",
"Z.	c #322728",
"`.	c #4B2A21",
" +	c #959595",
".+	c #DEC5AF",
"++	c #EED8BA",
"@+	c #4C8373",
"#+	c #61D6A5",
"$+	c #C08454",
"%+	c #79A97C",
"&+	c #BEB67E",
"*+	c #7C6E6E",
"=+	c #D7AB84",
"-+	c #D4B87B",
";+	c #6A280E",
">+	c #B47344",
",+	c #463431",
"'+	c #A2BEC2",
")+	c #AB683A",
"!+	c #868685",
"~+	c #9A5446",
"{+	c #C5C6BF",
"]+	c #C78D6E",
"^+	c #5F240C",
"/+	c #DABFA8",
"(+	c #589862",
"_+	c #845C4D",
":+	c #84E6C8",
"<+	c #BBC3BB",
"[+	c #98BDBE",
"}+	c #6CE3CA",
"|+	c #4CBB75",
"1+	c #997771",
"2+	c #D3A480",
"3+	c #281C22",
"4+	c #ACA5A8",
"5+	c #ECCEC4",
"6+	c #AA8980",
"7+	c #5E1D08",
"8+	c #C99386",
"9+	c #CBB5AC",
"0+	c #54D08D",
"a+	c #3E2928",
"b+	c #A15526",
"c+	c #CC8475",
"d+	c #78E6CE",
"e+	c #9B675A",
"f+	c #7D9996",
"g+	c #613927",
"h+	c #3BA962",
"i+	c #664243",
"j+	c #A45D4C",
"k+	c #6F6A47",
"l+	c #E6D08E",
"m+	c #100D10",
"n+	c #BAB9B7",
"o+	c #CB9378",
"p+	c #C88D5B",
"q+	c #393634",
"r+	c #E9CDB1",
"s+	c #BDBEB8",
"t+	c #C08466",
"u+	c #441C09",
"v+	c #BC775C",
"w+	c #83CAD3",
"x+	c #965F41",
"y+	c #BD7E4D",
"z+	c #765447",
"A+	c #C7A89B",
"B+	c #F3E0CB",
"C+	c #866E62",
"D+	c #1B1014",
"E+	c #64675C",
"F+	c #914E25",
"G+	c #7FC4C9",
"p.p.p.p.p.p.p.p.p.p.p.p.p.p.p.p.p.p.p.p.p.p.p.p.p.p.p.p.p.p.p.p.p.p.p.p.p.p.p.p.p.p.p.p.p.p.p.p.p.p.p.p.p.p.p.p.p.p.p.p.p.p.p.p.p.p.",
"p.p.p.p.p.p.p.p.p.p.p.p.p.p.p.p.p.p.p.p.p.p.p.p.p.p.p.p.p.p.p.p.p.p.p.p.p.p.p.p.p.p.p.p.p.p.p.p.p.p.p.p.p.p.p.p.p.p.p.p.p.p.p.p.p.p.",
"p.p.p.p.p.p.p.p.p.p.p.p.p.p.p.p.p.p.p.p.p.p.p.p.p.p.p.p.p.p.p.p.p.p.p.p.p.p.p.p.p.p.p.p.p.p.p.p.p.p.p.p.p.p.p.p.p.p.p.p.p.p.p.p.p.p.",
"p.p.p.n !+!+!+!+!+!+!+!+!+!+!+!+!+!+!+!+!+!+!+!+!+!+!+!+!+!+!+!+!+!+!+!+!+!+!+!+!+!+!+!+!+!+!+!+!+!+!+!+!+!+!+!+!+!+!+!+!+!+!+a p.p.",
"p.p.p.!+T a+a+s.Y Y f g+z+C+_+:.z+z+:.:.N :.:.:.4.:.4.4._+4.4.4.z+4.4.:.k+I.b k+P 5.` f A.g g g @+@+@+g g c.a.,+` W.W.g+g+f 6 n+p.p.",
"p.p.p.!+a+I.q._+* x+_+] ( (.u u * * >.u u R.R.R.R.( _._.z._._.z.7.$.$., , , = H H %+~ z g f.f.f.y.y.y.Q.n.n.f+E+V.} f Y O.!.+.n+p.p.",
"p.p.p.!+T x.W.8 * x+] ] r.( u ~ ( #.~  +d.c c , h., , , {.= = $ - - B.:+d+:+:+:+:+,.%+z # y.X.Q.y.y.y.X.Q.G+w+3 [+f.g E+V.} L n+p.p.",
"p.p.p.!+b.1+V V * d ] * u ~ ( ~ z , G :+,.,.,.,.}+}+d+2 }+2 }+}+d+d+d+d+d+:+d+) : :+%+S j f.} `.N  .Q.Q.X.X.G+w+G+Q.G+n.'+E+D+n+p.p.",
"p.p.p.!+8 8 y e+2.2.d d u u ~ > # : :+) :+d+d+}+d+}+}+}+d+d+d+d+}+d+d+d+d+d+d+) :+) :+= g.%+ .T.;+s.f+w+w+X.Q.Q.Q.G+w+n.f+A.s n+p.p.",
"p.p.p.!+q.m j+2.5 * ] f #.~ > j ' : : ) d+d+}+}+}+}+}+}+}+}+}+}+d+}+d+d+d+d+d+d+:+B.,.- g.y. .i.U.e I.Q.G+Q.n.w+G+G+G+G+z.I.c.n+p.p.",
"p.p.p.!+i+q...e+2.d ] g+[.5.%+# ' : : d+}+}+2 }+}+}+}+}+}+}+}+}+}+}+}+}+}+d+}+}+d+B.#+$ g.[+;.8 U.i+*+y.Q.Q.Q.G+G+G+Q.d.!+U.V.n+p.p.",
"p.p.p.!+z+e+m * * x+!.g+L 3+, $ ,.:+:+:+}+2 2 2 2 }+2 #+2 2 2 2 2 #+#+#+#+#+#+2 2 #+g.g.O f.b.b.6+8 N.$.G+G+G+w+Q.n.n. +1+C.x.n+p.p.",
"p.p.p.!+b.e+* 2.* _+!.& +.Z.h.- ,.,.,.,.2 0+0+0+0+0+0+0+|.|.0+|.|.0+|.0+0+0+|.O |.|.|.X.D.%+R.l.l.l. .[+w+G+G+[+[+'+'+C+U.3.V.n+p.p.",
"p.p.p.!+N 8+V d d ] C W.L A.3 $ $ #+#+#+|.|.|.o |.|.|.o |.|.o |.|.|.|.|.|.o |.o |.o |.|.D.f+6.~.6+ .1+d.n.Q.n.'+s+{+P.<.R.0.} n+p.p.",
"p.p.p.!+C+e m 2.d ] C & u+;.{ $ O O O |.o o o o o |.|.o o o o |.o o o o o o |+o |+|+|+o D.y.~.5+A+1+!+[+Q.Q.[+n ^.i <.I R.U.s.n+p.p.",
"p.p.p.!+N C.* d D ] f W.s.J { c O O |.|+o |+o o o o o o o o o o o o o o o o o |++ + + | f.d.e.9+1+b.b.4+d.4+s+n 6.l.l.S.6+U.` n+p.p.",
"p.p.p.!+C+>.V d F+!.*.W.z+P.<.h.j |+|.|+|++ o o + + o o + o + + + + + + + + + + + | | (+f+<.9+1+s.i+b.1+R.<.^.n+S.6+S.A+6+N.,+n+p.p.",
"p.p.p.!+4.9 V _+] !.C %.1+r+> l j D.|+|++ + + + + + + + + h++ h++ h+h+@.@.h+h+@.| 8.@+E+6.A+6+i+i.i+1+U.l.w ^.Z 1+o.l.l.8+e V.n+p.p.",
"p.p.p.!+z+6+V ] Y !.*.W._.~.6.e.S ).| | | + h+@.@.@.@.@.@.@.@.@.@.F @.F F F F F @ t 5.4.e e 1+o.N.m N.6+Z P.Z R.u+b.6+l.l.l.x.n+p.p.",
"p.p.p.!+4.>.* ] C O.*.`.6+9+W =.E.S g (+(+@.F F @ @ @ / / t t t P P 5.c.! a.a.! ! 5.i+N.e  .N o.e+e+U.P.P.9+i i+Z.x.1+>.6+6+V.n+p.p.",
"p.p.p.!+N ( * F.Y !.f W.A+9+i z+R.~ 5.5.5.P c.c.q+c.P P x.p F.z+z+z+Y Y f g+` W.g+f } 6+P.~.~.9+<.<.9+<.P..+6.;.E+;.R.9+A+Z 4.n+p.p.",
"p.p.p.!+:.9 * ] F.Y g+f ~.e.=.6.7.6+F.C f g+5.g+f O.!.K F.O.F.O.F.O.F.Y C f g+f *.C i+6.m.^.w w w ^.P.~.P.n+4+I.$.9+9+9+Z Z I.n+p.p.",
"p.p.p.!+4.M 1+_+z+Y g+N e.{+s+P.P.s+;.F.O.O.C !.Y O.!.O.F.K F.!.O.O.O.C C C g+f f Y Y N n+4+4+n+<.e.e.e.e.e.{+s+n+9+P.~.<.l.P n+p.p.",
"p.p.p.!+4.V * _+F.f i.6.~.<+e.{+e.e.6.F.F.O.!.C C O.O.!.K F.K O.O.C C C f g+*.g+i+Y Y 4.4+n+n+n+e.e.e.P.e.e.e.<+e.e.P.{+e.e.I.n+p.p.",
"p.p.p.!+z+V * _+p f } P.e.<+s+e.{+<+<.p O.O.O.C ; O.O.O.!.O.F.!.O.C C C *.f *.g+f Y b.z+ .n+e.e.e.e.e.e.P.{+P.{+{+e.e.e.e.e.I.n+p.p.",
"p.p.p.!+F.* d ] Y } ;.s+s+e.e.{+<+<+e.:.F.O.O.O.O.!.O.!.F.F.!.C C C f C C C C C *.C K q.*+{+{+{+e.{+{+e.{+P.e.e.{+e.e.e.e.{+E+n+p.p.",
"p.p.p.!+F.* d ] Y g+=.e.e.e.{+{+{+{+{+C+] O.O.O.F.F.F.!.F.!.O.C C C C C C Y Y Y C i+F.q.I.<+{+e.e.e.{+{+{+{+{+{+{+{+{+e.e.e.E+n+p.p.",
"p.p.p.!+F.* x+F.Y x.9+s+s+s+e.s+<+s+n+b _+F.O.!.] ] K ] K F.O.!.!.!.O.O.O.O.O.C f Y Y z+#.d.3 {+e.e.{+{+<+<+{+e.P.{+e.{+e.n E+n+p.p.",
"p.p.p.!+p * D F.Y b ~.s+s+s+e.s+<+s+~.N ] F.F.O.] ] K K K K O.O.K K F.O.O.O.O.Y Y Y O.p f+S '+<+{+s+e.e.e.e.{+{+e.e.e.s+s+<+E+n+p.p.",
"p.p.p.!+F.d _+F.f =.n+s+e.s+{+e.s+<+s+*+4.] !.K F.] ] K F.] Y O.O.O.O.O.O.O.Y Y Y O.F.k+# S $.j.e.e.{+e.e.e.e.e.{+e.e.e.e.e.I.n+p.p.",
"p.p.p.z.F.d ] Y p P.s+{+<+s+s+s+e.s+~.N _+] O.K F.F.F.!.O.O.& C g+O.F.O.O.O.O.F.F.O.x.%+)., z ;.n+n+<+s+e.<+n+e.e.n+e.e.e.e.E+n+p.p.",
"p.p.p.!+F.x+!.Y _.s+e.s+e.s+s+<+s+<+s+#._+] ] O.!.!.O.O.Y Y Y Y O.O.O.O.O.O.O.O.F.p g j H z _+_+6.e.e.e.e.e.e.e.e.e.e.e.e.s+I.n+p.p.",
"p.p.p.4+q+q+q+! c.q+c.c.c.c.c.q+c.q+c.! q+a.q+q+q+q+q+q+q+q+q+q+q+q+q+a.q+q+q+q+! q+c.c.c.q+q+q+c.q+c.c.q+c.c.c.c.c.c.c.c.c.q+n p.p.",
"p.p.p.p.p.p.p.p.p.p.p.p.p.p.p.p.p.p.p.p.p.p.p.p.p.p.p.p.p.p.p.p.p.p.p.p.p.p.p.p.p.p.p.p.p.p.p.p.p.p.p.p.p.p.p.p.p.p.p.p.p.p.p.p.p.p.",
"p.p.p.p.p.p.p.p.p.p.p.p.p.p.p.p.p.p.p.p.p.p.p.p.p.p.p.p.p.p.p.p.p.p.p.p.p.p.p.p.p.p.p.p.p.p.p.p.p.p.p.p.p.p.p.p.p.p.p.p.p.p.p.p.p.p.",
"p.p.p.X a h a a h a a a a a h a a a a a a h a a h a a h a a a a a a a a a a a a a a a a a a a a h a a h a a a a a a a a a a h p.p.p.",
"p.p.p.!+m+. m+. . . . . . w.. . D+w.6 3+6 Z.Z.L Z.Z.L a+a+a+a+Z.a.! c.! ! a.6 3+L a.L s L L L a+a.a.+.a.+.! ,+L L L L L ! c.s <+p.p.",
"p.p.p.!+1.r 1.< < 1.1.% % 7+T.r ^+;+L.}.Y.>+$+9 9 $+9 p+$+y+>+>+p+4 -.v r.p+].}.!.u.9 5 >+>+$+$+p+r.p+p+p+4 2+9 )+5 )+5 4 l k+n+p.p.",
"p.p.p.!+6 %.T.1.< T.1.r % 7+T.T.J.;+A F+].)+9.$+$+$+$+p+$+y+>+y+y+o+u.u.(.5 b+}.; 9.u.M 9.y+y+$+p+p+p+p+r.4 K.(.5 >+5 5 { l k+n+p.p.",
"p.p.p.!+u+% 1.1.< T.1.% % x % T.x ;+A ; F+Y.5 >+9.y+$+t+$+>+>+y+9.$+2+v 2+Y.].].L.Y.4 -+9.y+$+p+p+r.4 r.r.4 /.$+>+M >+9 E.l b n+p.p.",
"p.p.p.!+6 %.T.1.< T.1.T.7+J.J.7+;+; ; F+F+b+)+)+>+>+U $+y+$+p+$+H.o+U 1 =+D }.b+q D M E.4 y+$+p+p+p+r.r.K.2+4 (.9 y+M r.E.l k+n+p.p.",
"p.p.p.!+u+% T.1.1.1.1.% 7+J.J.% x A !.!.] }.b+Y.)+>+9.y+$+c+$+v+)+v+v+2+v ].q b+q ].)+(.l+r.y+p+r.r.r.r.4 4 2+r.$+y+M -+l l b n+p.p.",
"p.p.p.!+u+% T.T.T.1.1.T.J.^+J.T.7+J.< < W.}.].Y.Y.)+>+9.p+y+)+t.>+>+c+K.=+D L.q q b+)+)+u.E.p+p+p+r.r.4 2+2+4 (.y+y+9 l l E.k+n+p.p.",
"p.p.p.!+u+%.r T.T.1.1.% 7+J.^+7+r % < w.< *.}.].)+)+>+y+$+H.H.c+v+v+o+=+2+].L.q q b+].)+9.E.E.r.r.4 4 4 u.4 4 (.9 M 4 l+l l b n+p.p.",
"p.p.p.!+6 % r r T.1.1.% % 7+^+^+T.% < w.< 1.W.[ Y.)+>+y+$+c+p+p+p+]+4 2+r.b+q q q ].Y.)+5 (.l+-+4 r.r.K.2+2+r.$+y+M J &.&.l k+n+p.p.",
"p.p.p.!+1.%.% r % 1.1.% 7+% ^+^+%.r 1.< < < T.C !.K ].)+5 9.U $+t+p+p+r.5 q q b+b+b+b+Y.)+>+r.l+1 r.r.r.4 r.p+$+9 u E.l l &.b n+p.p.",
"p.p.p.!+1.% r r r T.1.7+7+% ^+^+% ^+1.1.< < 1.W.F+^+A L.q Y.)+5 >+U >+Y.].q q b+b+b+b+].)+>+$+u.l+u.4 r.r.p+$+y+M E.l l l l b n+p.p.",
"p.p.p.!+1.%.% % T.1.T.% J.% J.^+7+;+T.T.1.T.% ^+D g+A A ; L.q b+].Y.].)+q q b+q b+b+b+].)+>+y+p+-+l+u.r.p+$+$+9 4 l+&.l &.l b n+p.p.",
"p.p.p.!+1.%.r %.T.T.T.^+J.7+J.;+^+;+^+^+7+;+A A ] D *.A ; ; L.L.q }.Y.>+q q b+q b+b+b+b+)+>+y+p+p+-+l+r.(.$+$+u.E.&.&.l E l k+n+p.p.",
"p.p.p.!+6 r % % T.T.T.^+J.7+J.^+;+^+^+;+A C L.L.!.M D ; L.q q q q F+].b+b+q q b+b+b+q q Y.>+y+$+p+r.-+u.u.u.-+l+&.&.&.l J E.b n+p.p.",
"p.p.p.!+1.r % % T.% T.;+x J.J.^+;+;+^+A ; }.D Y.D 5 4 L.L.}.].].Y.Y.5 L.b+b+b+b+b+b+q q Y.5 y+$+(.p+(.J &.&._ _ &.l E.&.{ E.k+n+p.p.",
"p.p.p.!+1.% %.%.T.r % W.^+x x J.x ;+;+W.; D 2.Y.)+2.u.5 q q b+b+b+)+Y.b+b+b+b+b+b+q L.q ].5 >+$+$+$+$+(.l+_ _ &._ l E &.l { k+n+p.p.",
"p.p.p.!+6 ^+% 7+T.% % ;+;+^+x x x ;+;+;+A }.Y.Y.Y.D (.u.].}.b+b+Y.5 q q b+].Y.b+b+q L.q ].)+9.y+$+p+(.(.l _ _ _ &.E.E.&.B { k+n+p.p.",
"p.p.p.z.+.^+% 7+% %.T.;+;+x J.^+;+;+7+^+;+F+D Y.Y.}.M u.9 ].].Y.)+Y.b+b+].].].b+b+b+L.L.].)+>+y+$+y+p+(.u.&.&._ &.B &.&.B E k+n+p.p.",
"p.p.p.!++.%.^+%.% ^+% ^+;+;+x J.x ;+;+W.A ; F+Y.Y.].5 9 -+Y.Y.)+v+Y.b+b+b+b+].].b+b+q ; ].)+>+9.$+$+p+(.J &.&._ &.E.&.&.B E E+n+p.p.",
"p.p.p.!+[.`.^+%.^+%.% ^+;+;+x x x A ;+A ; F+D D D )+Y.M -+(.Y.>+)+)+].].].b+b+b+b+q L.; b+Y.5 >+y+y+$+(.u.&._ &.&._ &.l > l k+n+p.p.",
"p.p.p.!++.Y W.^+^+% % ^+x x x x x A ;+; !.q b+].Y.Y.Y.9 (.E.9.)+)+)+)+)+)+].].b+q q L.; b+Y.)+>+y+$+p+p+u.&._ _ _ _ _ { B E.4.n+p.p.",
"p.p.p.!+a+e+W.^+^+^+% 7+x x x ;+x ;+A A L.F+}.b+}.D D >+5 u.(.].)+>+>+)+>+)+Y.].b+q L.L.q ].)+5 9.y+y+(.u.&.&._ _ _ l > l l 4.n+p.p.",
"p.p.p.!+` Y g+%.;+%.r 7+J.x x x x x ;+;+; L.}.b+}.}.D 5 5 9 u.].)+)+>+>+>+)+)+Y.].b+q q L.b+Y.)+9.y+y+y+u._ &.&._ _ &.> l E 5.n+p.p.",
"p.p.p.!+,+*.W.%.;+%.r % x x x x x x ;+^+A L.q q L.; L.Y.>+5 4 y+].)+)+>+>+>+>+>+].b+q q L.q Y.)+5 >+M (.{ &.&._ &.&.{ E.l u.[.n+p.p.",
"p.p.p.!+V._+g+%.^+7+r % 7+x x x x 7+A x A A L.; ; ; !.M 9 * 5 4 Y.Y.)+>+>+>+>+>+)+].].q L.q b+Y.5 5 >+M E.&.&.&.&.&.>  +u d `.n+p.p.",
"p.p.p.!+*+4.W.W.^+% % % J.J.J.x x % 7+; A A L.q F+F+o.9+Q Q J =.M b+].Y.)+)+>+v+>+)+].b+L.L.q ].Y.)+>+9 l+&.l &.&.{ B { * F+%.n+p.p.",
"p.p.p.!+[.g+%.^+^+% % T.7+J.J.x J.%.T.;+; L.q D D D * i <.n w &.=.F+b+Y.)+>+>+>+>+>+)+)+b+q L.q ].Y.5 4 l &.&.&.l > -+* D F+`.n+p.p.",
"p.p.p.!++.*.A ^+%.% T.% % x 7+J.J.7+% ;+!.q b+Y.Y.D U.j.i n+n m.w $+b+].Y.Y.>+>+v+v+>+)+Y.b+q L.L.D * { E.E E.Q =.u d }.}.}.`.n+p.p.",
"p.p.p.!+Z.` L w.w.w.w.w.< < < < < w.< 1.L %.`.& W.[.` V.P V.^ E+I.4.+.^+W.W.W.*.g+g+f g+g+W.%.`.L +.p E+^ ^ ^ 5.a.a++.+.+.+.T s+p.p.",
"p.p.p.a <+{+<+{+{+e.e.e.e.e.e.e.e.e.e.{+e.{+e.e.<+e.{+e.e.{+{+{+<+{+e.e.e.e.e.e.e.e.e.e.e.e.{+e.e.{+s+e.<+{+<+e.e.{+{+e.e.{+{+h p.p.",
"p.p.p.p.p.p.p.p.p.p.p.p.p.p.p.p.p.p.p.p.p.p.p.p.p.p.p.p.p.p.p.p.p.p.p.p.p.p.p.p.p.p.p.p.p.p.p.p.p.p.p.p.p.p.p.p.p.p.p.p.p.p.p.p.p.p.",
"p.p.p.4+ + + + + + + + + + + + + + + + + + + + + + + + + + + + + + + + + + + + + + + + + + + + + + + + + + + + + + + + + + +4+p.p.p.",
"p.p.p.s m+m+m+T 3+s s 3+T D+m+m+m+m+m+m+m+m+m+m+m+T q+E+#.#.*+V.5.[.x.Y & } +.` ` Y :.o.N * ;.1+* N _+] q.F.Y i.`.a+6 w.Z.} s p.p.p.",
"p.p.p.s 3+Z.a.a.Z.3+T T D+T T T T m+D+D+D+D+T 3+a.7.^.w ^.Z Z 9+e * U.v.t...o.g+z+>.K.o+K.2+-+M.-.2+]+]+U U v+..[ O.i.a+s.P a.p.p.p.",
"p.p.p.s Z.Z.s T T D+D+D+D+T D+D+T T T T T D+3+A.n+0 h 0 B+w 5+.+9+8+U.0.0.U.6+R.<.-.v o+p+v.1 G.M.7 ]+t+v+U U k...y i+s.} 3+s p.p.p.",
"p.p.p.s T D+D+D+D+D+D+3+T T s 3+T T T 3+3+s V.^.h p.h h h m.w ^..+k 8+K.2+I M.r+r+++1 /.]+U.>.r+r+-.r.U U U 0.k.k.y C C N.N s p.p.p.",
"p.p.p.s 3+3+3+3+3+3+3+3+3+3+Z.s s 3+3+3+s ` P.h h p.X X h 0 m.w '.5+I I 1 k 5+++5+5+2+e l.2+S.A+r+-.o+t+U >+k.k.v.y q.q.q.o.a.p.p.p.",
"p.p.p.s a+Z.Z.Z.Z.Z.3+3+3+3+3+T T T 3+Z.a+I.0 h p.X p.X h 0 B+w .+2+8+I -./+r+'.5+I t.e+6+I M.Z k -.]+U k...t.t.]+2.2._+_+q.a.p.p.p.",
"p.p.p.s a+a+s.Z.3+3+T T T D+T T 3+Z.a.a.a.R.h X p.X p.h 0 m.m.m.I 8+3.o+1 M.5+++G.2+U.U.N A+Q B+7 I U U )+j+y 0.t+t.0.O.q.y Z.p.p.p.",
"p.p.p.s s.,+Z.s 3+3+3+3+T T s s a.q+,+s.c.P.X X p.X X 0 5+B+h 0 8+8+o+o+I -.G.M.M.I >.m C R..+++k o+c+v+j+y Y.0.t+t+2.Y K K Z.p.p.p.",
"p.p.p.s s.Z.6 Z.a+a.Z.3+3+s a+,+s.c.i.} V.^.X p.p.X h 0 5+0 a 5+c+c+K.2+1 k 7 /+M.k I l.( N./+r+/+2+]+t.~+2.j+t.c+)+y C O.K Z.p.p.p.",
"p.p.p.s a+a+a+a.s.s.,+3+3+q+i.} i+i+i+i+p w X X X p.X B+5+5+-.8+v+c+I -.M.1 v -.M.r+5+M.k A+k G.M.v v.[ j+j+y y+0.t.j+C C e+Z.p.p.p.",
"p.p.p.s a+,+s.i.i.i.a+6 s.i+i+b.i+b.b.b.q.~.X p.X p.h ++I 8+c+v+..c+I 5+M.-.-.M.r+++B+B+'.r+r+r+M.K...~+y ~+..t.U 0.8 *.e+m Z.p.p.p.",
"p.p.p.s s.i.i+i+i+i.3+i.b.z+8 8 8 o.:.8 :.l.0 h X X 0 Z 8+U U v+U c+-.5+5+5+M.r+5+B+B+B+++++'.r+1 U ~+~+~+] y U p+t...8 U.t.a.p.p.p.",
"p.p.p.Z.x.b.b.b.b.`.i.8 8 o.o.o.o.e+e+e+e+N.Z h X X 0 I 8+3.3.3.3.K.M.5+M.M.M.M.r+++++B+B+++r+M.o+)+q K ; q.v+v.>+v+5 t.k.$+a.p.p.p.",
"p.p.p.Z.b.b.q.b.i.a+b.o.N.e+N.N.e+m m m ..N.U.Z 0 h B+Z K.8+8+8+I 1 -.M.r+r+M.M.-.M.G.G.r+G.M.1 c+j+C *.[ ..k.t.t.t.t.t.t.0.a.p.p.p.",
"p.p.p.Z.i+i.i.i.a+i.i+b.q.N.m m 1+3.6+1+N.o.N N S.5+5+S.8+I 1 -.1 1 M.M.-.-.-.-.-.-.-.M.M.M.-.o+t.L.O.C K K j+k.v+k.t...V k.a.p.p.p.",
"p.p.p.a.q.b.b.i+b.8 o.1+6+ .6+3. .e 1+1+1+ . .e 9+6+e+0.3.I 1 1 -.-.-.-.M.M.-.-.-.-.-.k v 1 2+U ~+C *.C O.y k.0.k.0.y e+2.8 Z.p.p.p.",
"p.p.p.q+A+9+9+6.n+w 0 0 h ^.9+P.P.9+l.^..+.+Z k v S.>.N.0.8+I I 1 -.-.M.M.G.M.M.-.-.-.1 =+K.c+t.~+O.*.C y U 3.k.2.0.V [ K Y Z.p.p.p.",
"p.p.p.c.P.^.P.w h h p.p.p.X p.h w .+A+v I v 7 k k A+k K.U.t.H.I I -.M.G.r+M.G.G.M.-.-.=+K.o+c+....8 ~+j+k.>.k.8 D k.t.b.f g+s p.p.p.",
"p.p.p.c.9+a h m.w X p.X p.p.p.X X a w Q -..+/+Z M.I 7 l.e+q.j+3.K.-.-.M.G.M.M.G.M.-.1 K.K.K.H.v+..e+....t.e+q.*._+m y C i.`.Z.p.p.p.",
"p.p.p.q+k ++/+i 0 h X p.p.X p.p.p.X h '.Q /+/+/+k k S.U.8 8 ~+e+t.H.2+1 1 -.-.-.1 =+K.o+K.K.8+c+v+..k.k.F+Y Y Y C e+_+& i.f s p.p.p.",
"p.p.p.q+r+A+U./+Q a a a X p.p.p.p.p.p.0 m.Q -+7 k /+e :.8 e+t.m ..V U K.2+=+=+=+K.o+o+>+]+K.o+v+j+j+v+k.K i+} f f O.[.i+U._+Z.p.p.p.",
"p.p.p.c.2+1+e A+/+r+Q h X h X X p.X p.X a m.Q 9+J I o.O.8 0.C.H.>.k.0.c+H.o+K.K.K.o+o+v+j+c+....j+K O.v+8 g+g+b.K K C O.q.K Z.p.p.p.",
"p.p.p.a.V 1+/.l.<.=.5+w w X h X p.X p.X X h 0 r+~.S.z+O.e+>.K.=+2+C.9 ]+K.=+=+=+K.H.c+t.~+y !.O.*.i.O.~+b.& i.b.K U.e+K C e+Z.p.p.p.",
"p.p.p.a.d U.9 e C.S.&+<.0 w m.h a X X p.X a m.w /+l.O.q.m H.2+v 1 I 2+2+=+1 =+2+o+t.[ [ O.*.W.[.s.[.q.>.b.[.6 & q.m U.K C _+s p.p.p.",
"p.p.p.a.o.>.>.>.u 8+W ~.~.Q a n a X h ^.4+7.#._.i 6+K 8 >.o+2+I 1 =+=+1 1 1 2+c+)+O.i.u+i.i+i.s.6 [.b.U._+6 T [.C [ y C *.b.Z.p.p.p.",
"p.p.p.a.* V U.V C.( e S.=.G.<.m.0 w 6.*+4.:.;.R.6.U.q.8 0.K.2+2+=+=+1 1 1 2+$+e+q.i+i.s.i.b.N.s.a+[.f Y Y i+i.i+q.q.K [ 8 d Z.p.p.p.",
"p.p.p.a.V * V m U.V C.( S.l.<.~.~.4+;.I.*+R.<.e.6+U.8 [ t.c+p+o+=+=+1 1 2+$+.._+;.1+i <.4+1+N p V.} b.i.`.i+o.b.K ~+e+y e+o.Z.p.p.p.",
"p.p.p.a.e+m o.U.m U.U.>.e u 8+6.9+;.1+N.<.^.^._.1+]+y q.2.U c+o+2+v =+2+6+N.1+U. .4+6. +6.6.4+<.4+4+4+<.j.;.:.N...e+[ 2.d 2.a.p.p.p.",
"p.p.p.P a.a.a.a.a.a.a.a.a.q+a.q+a.a.a.q+q+c.q+a.a.q+Z.Z.Z.! ! ,+! ! q+q+a.a.a.a.a.a.q+q+a.q+a.a.q+q+c.q+c.q+a.a.a.Z.a.Z.a.a.P p.p.p.",
"p.p.p.p.p.p.p.p.p.p.p.p.p.p.p.p.p.p.p.p.p.p.p.p.p.p.p.p.p.p.p.p.p.p.p.p.p.p.p.p.p.p.p.p.p.p.p.p.p.p.p.p.p.p.p.p.p.p.p.p.p.p.p.p.p.p.",
"p.p.p.p.p.p.p.p.p.p.p.p.p.p.p.p.p.p.p.p.p.p.p.p.p.p.p.p.p.p.p.p.p.p.p.p.p.p.p.p.p.p.p.p.p.p.p.p.p.p.p.p.p.p.p.p.p.p.p.p.p.p.p.p.p.p.",
"p.p.p.p.p.p.p.p.p.p.p.p.p.p.p.p.p.p.p.p.p.p.p.p.p.p.p.p.p.p.p.p.p.p.p.p.p.p.p.p.p.p.p.p.p.p.p.p.p.p.p.p.p.p.p.p.p.p.p.p.p.p.p.p.p.p."};
