/* XPM */
static char * _5_frame_3[] = {
"66 100 256 2",
"  	c None",
". 	c #150805",
"+ 	c #41AC68",
"@ 	c #476C3C",
"# 	c #79AF7B",
"$ 	c #6ED28F",
"% 	c #561905",
"& 	c #7ED297",
"* 	c #9E6D50",
"= 	c #532E22",
"- 	c #7EDA9E",
"; 	c #969593",
"> 	c #98491C",
", 	c #82D79A",
"' 	c #8AB682",
") 	c #5D4B3B",
"! 	c #3A3735",
"~ 	c #87E9D0",
"{ 	c #CBAE74",
"] 	c #AB907D",
"^ 	c #AE6C3C",
"/ 	c #E2DE95",
"( 	c #616E54",
"_ 	c #352A29",
": 	c #8EEAD2",
"< 	c #6F6645",
"[ 	c #B08146",
"} 	c #86481F",
"| 	c #320F05",
"1 	c #518651",
"2 	c #C8AFA3",
"3 	c #8ACEB4",
"4 	c #42C47A",
"5 	c #A4979A",
"6 	c #92EEDC",
"7 	c #FAF4EC",
"8 	c #793413",
"9 	c #9C5A2F",
"0 	c #7D6157",
"a 	c #D0AF9D",
"b 	c #60835B",
"c 	c #B7AB75",
"d 	c #948A81",
"e 	c #BA8F53",
"f 	c #98BC99",
"g 	c #DACE8C",
"h 	c #446441",
"i 	c #B1877B",
"j 	c #563620",
"k 	c #AA7666",
"l 	c #E1D897",
"m 	c #C2A36E",
"n 	c #A2CCAA",
"o 	c #3A1D0E",
"p 	c #C9918B",
"q 	c #9B857F",
"r 	c #525E32",
"s 	c #7C4C46",
"t 	c #D2BDB1",
"u 	c #66E0BF",
"v 	c #996457",
"w 	c #23181C",
"x 	c #4A7642",
"y 	c #66948A",
"z 	c #78C092",
"A 	c #BDB474",
"B 	c #B8937F",
"C 	c #D0CDC3",
"D 	c #F4E8D8",
"E 	c #E7D9D0",
"F 	c #924920",
"G 	c #415A30",
"H 	c #683218",
"I 	c #92E2BE",
"J 	c #D3C686",
"K 	c #BD7E4F",
"L 	c #4E1C07",
"M 	c #8F787B",
"N 	c #69230A",
"O 	c #66483A",
"P 	c #C2B48A",
"Q 	c #4C2F26",
"R 	c #A9C2AD",
"S 	c #60CE76",
"T 	c #AB7542",
"U 	c #62AE66",
"V 	c #726E4A",
"W 	c #D3C280",
"X 	c #70D89A",
"Y 	c #C7B6AE",
"Z 	c #E1BC9D",
"` 	c #71574E",
" .	c #8E6654",
"..	c #FCFAF6",
"+.	c #E7CBA7",
"@.	c #E3DE9A",
"#.	c #491E0C",
"$.	c #B69390",
"%.	c #BE846B",
"&.	c #76A592",
"*.	c #885738",
"=.	c #9E604C",
"-.	c #BB965E",
";.	c #9B7B6A",
">.	c #435039",
",.	c #4FC97A",
"'.	c #63392E",
").	c #9B4E21",
"!.	c #704E4D",
"~.	c #8E4B22",
"{.	c #99603A",
"].	c #B09E9B",
"^.	c #401304",
"/.	c #588F8A",
"(.	c #CB867E",
"_.	c #EBD9C1",
":.	c #BC8553",
"<.	c #C09782",
"[.	c #8E7066",
"}.	c #E0C3BC",
"|.	c #D0BE80",
"1.	c #76C496",
"2.	c #62220A",
"3.	c #462E28",
"4.	c #3DBA73",
"5.	c #BD7865",
"6.	c #AC6D58",
"7.	c #3F9350",
"8.	c #815238",
"9.	c #704131",
"0.	c #4C3A36",
"a.	c #E8DEAE",
"b.	c #B1765A",
"c.	c #292627",
"d.	c #5FA27D",
"e.	c #D2AD6E",
"f.	c #5AD49C",
"g.	c #9E6C62",
"h.	c #715240",
"i.	c #8D604B",
"j.	c #90564C",
"k.	c #E5C4A2",
"l.	c #DCCDBF",
"m.	c #A56032",
"n.	c #77412E",
"o.	c #5D2B14",
"p.	c #769A6A",
"q.	c #9DADA9",
"r.	c #332322",
"s.	c #56200A",
"t.	c #C79076",
"u.	c #C7BDB7",
"v.	c #4EA25E",
"w.	c #B8AB91",
"x.	c #282024",
"y.	c #7C4634",
"z.	c #AE8164",
"A.	c #93A493",
"B.	c #6EDA9E",
"C.	c #9C564C",
"D.	c #806E66",
"E.	c #734734",
"F.	c #B37247",
"G.	c #864019",
"H.	c #BDB5A7",
"I.	c #BDBFB4",
"J.	c #84665F",
"K.	c #422F2D",
"L.	c #2A0D04",
"M.	c #CDA468",
"N.	c #D8BA7C",
"O.	c #C28566",
"P.	c #EACFBA",
"Q.	c #DDB398",
"R.	c #7E7E5A",
"S.	c #EDD8BA",
"T.	c #52AA9B",
"U.	c #7D554C",
"V.	c #B0A2B2",
"W.	c #3AA15A",
"X.	c #C08778",
"Y.	c #7C4C36",
"Z.	c #CD937E",
"`.	c #C89172",
" +	c #9B5546",
".+	c #CEA291",
"++	c #624243",
"@+	c #3E4622",
"#+	c #4C1604",
"$+	c #C1C2BE",
"%+	c #563837",
"&+	c #A65628",
"*+	c #D09C7E",
"=+	c #EFEDEB",
"-+	c #B67761",
";+	c #7AE4C8",
">+	c #734E3B",
",+	c #7EC1C7",
"'+	c #4EB872",
")+	c #92AC9E",
"!+	c #F0E1D3",
"~+	c #C48756",
"{+	c #58D194",
"]+	c #9D7465",
"^+	c #6CDCAC",
"/+	c #402124",
"(+	c #8E6161",
"_+	c #75BE86",
":+	c #CA9A67",
"<+	c #3D3E3A",
"[+	c #A96637",
"}+	c #3E2D27",
"|+	c #9E5425",
"1+	c #61D6A1",
"2+	c #609096",
"3+	c #5B5745",
"4+	c #BEA195",
"5+	c #DAAE88",
"6+	c #AC6B51",
"7+	c #6D6155",
"8+	c #9D7A7F",
"9+	c #868685",
"0+	c #6C6660",
"a+	c #98C2C8",
"b+	c #BE7E64",
"c+	c #C7C4BE",
"d+	c #B8ACA9",
"e+	c #DAB684",
"f+	c #BBB9B7",
"g+	c #B77848",
"h+	c #5BAD94",
"i+	c #663F32",
"j+	c #AEA46A",
"k+	c #D4A47D",
"l+	c #5E2108",
"m+	c #509E58",
"n+	c #729670",
"o+	c #92532A",
"p+	c #A2A690",
"q+	c #CE886E",
"r+	c #86574A",
"s+	c #8CBEC5",
"t+	c #191014",
"u+	c #E7D08D",
"v+	c #56423F",
"w+	c #6B2B0F",
"x+	c #714943",
"y+	c #8A4D3E",
"z+	c #C78F5C",
"A+	c #84CCD2",
"B+	c #FEFEFE",
"C+	c #6EE3CB",
"D+	c #57A58D",
"E+	c #A65A2B",
"F+	c #362F2E",
"G+	c #A76552",
"B+B+B+B+B+B+B+B+B+B+B+B+B+B+B+B+B+B+B+B+B+B+B+B+B+B+B+B+B+B+B+B+B+B+B+B+B+B+B+B+B+B+B+B+B+B+B+B+B+B+B+B+B+B+B+B+B+B+B+B+B+B+B+B+B+B+",
"B+B+B+B+B+B+B+B+B+B+B+B+B+B+B+B+B+B+B+B+B+B+B+B+B+B+B+B+B+B+B+B+B+B+B+B+B+B+B+B+B+B+B+B+B+B+B+B+B+B+B+B+B+B+B+B+B+B+B+B+B+B+B+B+B+B+",
"B+B+B+B+B+B+B+B+B+B+B+B+B+B+B+B+B+B+B+B+B+B+B+B+B+B+B+B+B+B+B+B+B+B+B+B+B+B+B+B+B+B+B+B+B+B+B+B+B+B+B+B+B+B+B+B+B+B+B+B+B+B+B+B+B+B+",
"B+B+B+C 9+9+9+9+9+9+9+9+9+9+9+9+9+9+9+9+9+9+9+9+9+9+9+9+9+9+9+9+9+9+9+9+9+9+9+9+9+9+9+9+9+9+9+9+9+9+9+9+9+9+9+9+9+9+9+9+9+9+9+=+B+B+",
"B+B+B+9+0+[.J.U.U.h.>+>+O O D.0 < V b n+d.D+h+h+D+D+T.T.T.T.T.T.T.T.T.T.T.h+h+h+D+h+D+&.D+y y /.0+o #+/+3+2+2+/././././.2+y >.f+B+B+",
"B+B+B+9+q $.k G+y.G+* * [+E.[ e q p.z : 6 6 ~ ;+;+C+C+C+C+C+C+C+C+;+;+;+C+;+;+;+~ ~ ~ ;+;+- $ 1.9+s 2.8+0+s+A+,+,+,+,+,+,+,+h f+B+B+",
"B+B+B+9+M i v g.k 6.v * *.E.) O j+# & I : : ;+C+C+C+C+C+C+C+C+C+C+C+C+C+C+C+C+C+C+C+~ ;+X X $ z d %+i r+D.&.,+,+,+,+A+A+,+s+h f+B+B+",
"B+B+B+9+(+8+]+j.j.* * {.*.9.}+o b z - ~ ~ ~ C+u u u u C+C+u u u u u u u u u u u u C+u ^+B.X S 1.M 8+8+(+!.; ,+,+,+,+,+,+A+q.3+f+B+B+",
"B+B+B+9+J.i v g.g.* ]+i.*.H }+o b & , ;+;+;+C+1+1+f.1+f.f.f.f.f.f.{+{+{+{+{+{+{+{+f.f.{+{+S 1._+D.[.i 8+8+9+,+,+,+,+,+s+s+9+v+f+B+B+",
"B+B+B+9+M p $.k k * * i.} '.3.r.A.& - X B.B.f.{+,.{+,.{+{+,.,.,.,.,.,.,.,.,.,.,.,.,.,.,.4 ,.,.h+9+2 i $.$.V.A+,+,+a+a+$+$+5 v+f+B+B+",
"B+B+B+9+M 4+<.<.i v * {.E.H }+Q I.& & S S S ,.4 4 4 4 4 ,.,.4 4 ,.4 ,.4 4 ,.4 4 4 4 4 '+4 ,.'+,+5 l.t 8+8+q.,+,+s+R c+u.Y }.3+f+B+B+",
"B+B+B+9+[..+4+<.k v {.*.n.j #.0 A f S S ,.,.4 4 4 4 ,.4 4 4 4 4 ,.4 4 4 4 4 ,.4 '+4.4 '+'+'+h+,+d+}.a 8+!.q.)+s+q.C l.$.4+4+!.f+B+B+",
"B+B+B+9+0 $.<.$.k * {.8.} H Q m w.R _+S ,.,.'+4 4 4 4 4 4 4 4 4 4 4 4 4 4 4.4.4 4 4.4.+ 4.+ &.)+u.Y ++x+++M 5 V.f+$+d+i .+4+` f+B+B+",
"B+B+B+9+v+8+B i ;.{.*.>+9.H i+}.j+g # U 4 '+4.4.4.4.4.4 4.4.4.4.4.4.4.4.4.4.+ + + + + + v.1 9+V.2 [.Q %+(+g.i d+E E .+[.]..+!.f+B+B+",
"B+B+B+9+3.U.[.i z.{.Y.y.n.o.O }.w.f+' U '+'+4.4.+ 4.W.W.+ W.W.W.W.W.W.7.W.7.7.W.W.W.m+1 @ 3+i <.$.g.x+v (+8+.+}.C Y M %+i 4+) f+B+B+",
"B+B+B+9+/+O U.] z.*.E.E.9.H >+t 4+5 |.# m+m+v.+ W.W.W.7.7.7.W.7.7.7.x @ h h h G G G >.@+@+!.$.] 8+(+v g.g.$.}.t t i o %+[.$.!.f+B+B+",
"B+B+B+9+K.O  .i T *.E.E.9.j 0 }.2 [.j+j+3+r @ x x @ h G G >.@+v+v+) ) 3+) v+0.0.3.3.= '.i+` $.] 9+M 8+8+8+2 c+}.V.` F+) (+] ) f+B+B+",
"B+B+B+9+M J.;.] ;.i.E.E.9.'.q Y H.D.0 M ` 9.'.j }+F+Q v+O s Y.Y.>+x+8.Y.>+E.n.'.j i+'.i+i+D.D !+!+=+!+!+E Y u.t d+; ; p+2 }.0+f+B+B+",
"B+B+B+9+d u.] [ ;. .8.>+i+j 2 c+H.Y c+H.q >+E.E.i+9.n.Y.Y.Y.Y.Y.Y.Y.>+Y.Y.E.E.9.'.i+i+9.9.` u.$+Y H.f+f+u.u.u.u.I.A.5 d+Y t 7+f+B+B+",
"B+B+B+9+; H.z.;.T  .` E.'.>+u.$+u.c+c+u.w.h.>+E.n.E.E.n.E.Y.>+Y.8.Y.y.n.E.E.9.i+9.'.i+O x+h.].d+d+f+f+f+$+c+c+$+c+$+$+$+u.u.0+f+B+B+",
"B+B+B+9+d w.;.T *  .h.O j q u.$+$+c+$+$+u.0 Y.Y.y.n.E.y.y.y.Y.E.Y.Y.E.n.9.9.'.'.'.'.9.9.x+h.M f+f+$+$+c+c+f+c+u.c+c+$+c+c+c+0+f+B+B+",
"B+B+B+9+; ] ;.* * *.8.i+v+H.$+$+I.u.$+$+c+[.h.Y.E.y.G.y.y.Y.Y.Y.Y.E.y.9.9.9.n.'.n.'.'.9.x+s 0 d+$+$+u.c+c+c+c+c+c+$+c+c+$+$+( f+B+B+",
"B+B+B+9+d q T * * 0 >+i+U.c+I.u.$+$+c+$+c+d 8.Y.E.E.E.E.y.Y.Y.Y.y.n.n.n.n.9.9.9.y.E.9.9.E.U.U.d+c+$+$+c+c+c+c+c+c+c+$+c+$+u.0+f+B+B+",
"B+B+B+9+9+;.* * * *.E.i+q c+I.$+$+$+c+$+I.] ` Y.Y.} Y.8.8.Y.Y.Y.} E.y.n.y.E.y.E.E.E.i+9.>+h.` q.n c+$+$+c+c+$+$+c+c+c+c+$+c+0+f+B+B+",
"B+B+B+9+R.]+;.* i.*.E.i+w.f+I.f+$+I.$+R I.] 0 Y.E.Y.8.8.8.8.Y.Y.Y.E.Y.Y.y.Y.y.Y.y.E.E.i+E.h.0 A.a+$+$+$+$+$+$+$+c+c+c+c+c+$+0+f+B+B+",
"B+B+B+9+D.;.* *  .8.O 0 Y u.I.$+$+$+I.I.$+q ` 8.Y.Y.8.8.8.8.Y.8.E.*.y.Y.Y.Y.E.E.9.E.E.E.Y.) p./.f A.$+$+$+$+$+c+$+$+$+$+$+I.0+f+B+B+",
"B+B+B+9+V T * * *.Y.O d I.$+$+I.$+$+I.$+$+d 0 *.Y.Y.Y.Y.8.8.Y.Y.E.'.'.E.E.Y.y.Y.E.E.>+Y.Y.7+_+d.)+R.H.$+$+$+$+$+I.I.$+$+I.$+0+f+B+B+",
"B+B+B+9+0 ;.* * *.E.E.H.$+I.$+I.I.I.I.I.I.d i.*.Y.Y.8.Y.Y.Y.E.E.i+E.H E.Y.Y.E.E.E.Y.>+8.) &.U z V (+q I.$+$+I.$+$+$+u.f+I.I.0+f+B+B+",
"B+B+B+9+0 z.* [+*.O [.u.I.$+$+f+I.I.I.I.f+p+< *.8.Y.Y.Y.E.y.E.E.E.U.Y.Y.E.Y.y.E.E.Y.>+h.b _+_+V U.r+J.Y I.u.u.I.$+$+c+u.$+$+0+f+B+B+",
"B+B+B+9+7+[ ;.{.8.O $.u.I.f+f+f+f+I.H.H.p+R V 7+*.Y.8.Y.y.E.E.E.Y.*.Y.Y.Y.n.9.y.Y.E.>+( & 1.( ) >+>+0 5 f+I.I.f+$+u.$+$+f+f+0+f+B+B+",
"B+B+B+9+7+i z.* h.0 H.H.I.f+f+f+f+I.I.f+9+f ' r U.8.Y.8.E.y.n.E.E.8.>+Y.Y.E.E.y.Y.3+r _+S y O O E.>+U.M d+f+f+f+I.f+$+f+f+f+0+f+B+B+",
"B+B+B+9+M w.B ]+[.] f+f+f+f+f+R f+I.f+P D.R.f ' x 3+Y.Y.Y.n.} E.E.Y.E.Y.E.} n.9.) b 1.'+_+>.i+E.x+>+U. .V.I.I.I.f+I.f+I.f+H.0+f+B+B+",
"B+B+B+q.F+! ! ! ! <+<+<+<+! ! <+<+<+<+<+! ! ! @+! ! ! ! ! F+F+! ! F+F+! ! F+! F+! <+<+<+<+F+! ! ! ! ! ! ! <+! <+<+<+<+! ! ! ! C B+B+",
"B+B+B+B+B+B+B+B+B+B+B+B+B+B+B+B+B+B+B+B+B+B+B+B+B+B+B+B+B+B+B+B+B+B+B+B+B+B+B+B+B+B+B+B+B+B+B+B+B+B+B+B+B+B+B+B+..B+B+B+B+B+B+B+B+B+",
"B+B+B+B+B+B+B+B+B+B+B+B+B+B+B+B+B+B+B+B+B+B+B+B+B+B+B+B+B+B+B+B+B+B+B+B+B+B+B+B+B+B+B+B+B+B+B+B+B+B+B+B+B+B+B+B+B+B+B+B+B+B+B+B+B+B+",
"B+B+B+..=+=+=+=+=+=+7 =+=+7 =+=+=+=+=+=+7 =+=+=+=+=+=+=+=+7 =+=+7 =+=+=+=+=+7 =+=+=+=+=+=+=+=+=+=+=+=+=+7 =+=+7 =+=+7 =+=+=+7 B+B+B+",
"B+B+B+d t+. . . . . . . . t+. . t+w w o o r.r.r.}+x._ r.r.r.}+}+! 0.! K.0.r.w r.w o o r.r.r._ }+_ }+}+}+}+}+}+_ r.r.x.w _ }+t+$+B+B+",
"B+B+B+9+o o | ^.| | ^.L % s.^.L w+8 } o+{.m.F.T {.i+]+v T g+K -.e.e+:+:+k+T G.o+* } E+m.[+^ F.g+K ~+z+z+:+:+z+:.^ o+).o+:.c 3+f+B+B+",
"B+B+B+9+^.L ^.| ^.^.^.L #+s.^.#+2.8 ~.|+[+[+T o+E.*.* T :.g+g+~+:+5+:+:.k+~+).} [ T E+[+^ ^ g+K ~+~+z+z+:+M.*+T 9 m.m.m.e |.< f+B+B+",
"B+B+B+9+o #.^.| L.^.^.#+% l+^.#+2.w+} o+m.F.K b.[ [ K :.O.K K g+~+*+k.e.:+z+|+o+*.:+T ^ F.g+K ~+z+z+~+~+z+:+k+[ [+^ ^ [+m J < f+B+B+",
"B+B+B+9+o L ^.^.| ^.^.#+% l+#+#+2.w+G.o+m.^ [ :.:.:.O.~+q+K b.g+:.:+e+M.e g+E+|+G.e M.F.g+K K ~+z+z+z+z+z+:+:+z+* T T T e.g < f+B+B+",
"B+B+B+M o s.^.^.| ^.^.% % 2.#+#+N w+w+G.o+[+F.g+g+K ~+~+:.F.g+K b.:.k+Q.M.[+|+9 } m.e.M.g+g+~+~+z+:+:+z+:+:+M.:.g+g+F.T W J V f+B+B+",
"B+B+B+9+o s.^.^.| #+^.#+% N % % N 8 8 } ~.9 [+^ F.g+K K :.g+~+K :.Z.`.5+5+{.|+&+> 9 e N.e K K z+z+z+:+:+:+:+M.e g+[ g+e g g V f+B+B+",
"B+B+B+9+o % #+^.^.^.^.% % l+N % N 8 ~.~.o+|+m.[+^ F.K K :.q+~+O.b+b+F.5+5+9 > |+).9 [+e.W ~+~+z+z+:+z+z+*+M.:+z+~+g+[ { g J V f+B+B+",
"B+B+B+9+#.L #+^.^.^.^.% % N l+% % w+s.#.E.o+E+m.[+^ F.K ~+K ^ m.6+5.(.*+5+m.F |+> E+[+T N.N.:.~+z+:+:+:+:+M.M.z+~+g+[ J g J V f+B+B+",
"B+B+B+9+#.s.#+#+^.^.^.% l+l+2.% s.% | L.^.y.9 E+[+[+F.g+~+q+q+b+F.F.q+e.e.9 > > ).|+[+^ [ u+e.:+z+:+:+*+k+e.:+e K :.-.g g g V f+B+B+",
"B+B+B+9+o L % #+#+^.^.% % % N l+#.L L.L.| #+n.|+[+^ g+K ~+q+z+q+q+q+<.k+*+|+> > ).|+E+^ ^ -.u+e.:+:+:+:+M.M.:+~+K [ { l l g V f+B+B+",
"B+B+B+9+^.s.L L #+^.^.% l+% 2.o.L % L.L.| L.L E.o+9 [+F.F.:.~+z+~+z+z+:+K ).).).|+&+E+[+^ [ e.u+M.:+:+:+*+:+e ~+[ [ |.g g g V f+B+B+",
"B+B+B+9+^.L L L #+^.^.% l+% 2.l+s.l+^.| | L.^.H Y.o.G.~.9 m.^ g+b+~+~+^ m.F |+).|+&+&+E+[+g+:.N.u+M.:+:+:+z+~+K g+e.g g g g V f+B+B+",
"B+B+B+9+^.s.L % #+^.#+% 2.% l+2.s.N #+^.^.^.L o.9 H w+8 } o+o+E+m.[+E+[+|+F |+|+|+|+&+E+^ g+K z+W J :+:+z+~+~+:.e g l g l g V f+B+B+",
"B+B+B+9+| L L s.#+^.^.l+2.% 2.N l+2.s.s.#+s.N w+*.8.8 8 8 G.G.).|+m.9 ^ ).> |+|+|+&+|+&+m.g+K z+:+u+W z+~+K K e W l l g g g V f+B+B+",
"B+B+B+9+#.L s.% ^.#+#+2.2.l+l+2.w+N l+o.w+8 G.G.} T } G.G.> > F F ~.E+[+&+> > ).&+&+).|+m.^ K ~+z+-.u+N.-.-.M.g l l l g A J V f+B+B+",
"B+B+B+9+^.L L s.#+L #+N 2.l+l+2.w+N N w+8 o+9 9 *.[ K G.G.|+&+&+&+9 m.> |+&+&+|+|+|+> ).m.F.g+~+z+~+-.m u+g u+u+l g g g A J V f+B+B+",
"B+B+B+9+^.L s.s.^.L #+N N N 2.N N w+N H G.o+{.m.m.[+e.{.).).|+&+9 [+^ ).|+&+&+&+&+> > > m.^ g+K ~+~+:.m l / / / / g J l J |.< f+B+B+",
"B+B+B+9+^.L s.s.#+s.L w+N 2.% N N w+w+H G.9 m.[+[+{.:+:+o+|+&+&+9 ^ |+).|+&+E+&+&+).> F E+^ g+K ~+~+~+e u+/ / / l J J l I.A V f+B+B+",
"B+B+B+9+/+o.% % % s.L 2.w+N N 2.N N s.2.N ~.{.m.m.o+[ N.T 9 E+E+[+^ |+).&+E+E+&+|+).G.F E+^ g+K ~+~+z+:.|./ l / / A g l A J < f+B+B+",
"B+B+B+9+/+o.l+s.% l+% 2.w+N N 2.N N N o.w+G.~.m.m.9 ^ e M.{.E+[+F.E+|+).&+&+E+E+&+&+> G.E+[+^ g+~+~+~+e { l / l l |.l l A J < f+B+B+",
"B+B+B+9+Q s.o.l+s.s.s.2.w+N N N N w+w+8 G.~.9 9 m.m.[+[ N.[ m.F.^ [+E+E+E+&+|+&+&+).> G.|+[+F.g+K K ~+e c l l / l / l l j+J < f+B+B+",
"B+B+B+9+3.'.o.s.2.s.% l+N N N N N 8 N n.G.~.9 9 m.[+m.[ m e.^ g+[+[+[+m.m.E+|+&+).> > G.).m.^ F.K ~+~+z+M.l / / / / l I.c J < f+B+B+",
"B+B+B+9+r.i.H o.o.s.#+l+N N N N N w+w+8 } o+|+E+9 9 9 g+T N.[ E+[+^ ^ ^ ^ [+m.E+&+> G.G.).E+[+F.g+K ~+~+{ g l / l / l j+J g 7+f+B+B+",
"B+B+B+9+Q r+o.2.w+s.% s.2.N N N N w+w+N G.F |+|+|+9 9 T T -.e.9 [+F.^ ^ ^ ^ [+E+&+).> > > 9 m.^ g+K K ~+{ l l / / l l A.g J ) f+B+B+",
"B+B+B+9+0.i+i+s.2.o.#+l+% N N N N N w+w+w+~.F |+F G.o+9 g+T M.^ [+^ F.F.F.F.^ ^ E+&+).> > ).m.^ F.g+K [ |.l l / l / J |.J A 0.f+B+B+",
"B+B+B+9+0.x+j s.o.s.% % 2.N N N N % 8 N 8 G.G.F G.8 } {.T * [ :+9 [+^ ^ F.F.F.^ ^ E+&+> G.> 9 m.^ T g+[ W l g / l l j+A A [ o.f+B+B+",
"B+B+B+9+D. .'.o.N % % % % N % N N % N 8 w+8 G.G.F ~.i.e+t c [ e T &+m.^ ^ F.F.F.^ [+E+|+> F ).m.[+^ T [ g l l l g g c c ;.o+/+f+B+B+",
"B+B+B+9+F+r.w | | L.L.| | | ^.| | | L.o o ^.#./+= 3.Q 3+3+0+0+r @+= o.o.j j '.H j H = = #.#.#.= = j j ) < < ( r ( G 3+3+3.#.w I.B+B+",
"B+B+B+=+$+$+c+$+c+$+u.u.u.u.u.u.c+$+$+c+$+c+c+c+$+$+c+$+c+c+$+c+$+$+I.c+c+$+$+c+$+c+$+c+$+c+c+I.c+$+I.I.I.c+c+c+u.c+c+c+c+c+c+7 B+B+",
"B+B+B+B+B+B+B+B+B+B+B+B+B+B+B+B+B+B+B+B+B+B+B+B+B+B+B+B+B+B+B+B+B+B+B+B+B+B+B+B+B+B+B+B+B+B+B+B+B+B+B+B+B+B+B+B+B+B+B+B+B+B+B+B+B+B+",
"B+B+B+q.; ; ; ; ; ; ; ; ; ; ; ; ; ; ; ; ; ; ; ; ; ; ; ; ; ; ; ; ; ; ; ; ; ; ; ; ; ; ; ; ; ; ; ; ; ; ; ; ; ; ; ; ; ; ; ; ; ; d+B+B+B+",
"B+B+B+x.t+t+t+w x.x.x.w t+. . . . . t+t+t+. . t+t+. t+t+<+9+5 ; d d q R.[.>+h.r+h.x+) }+v+J.[. .i.[.;.q ;.[.i.*.8.U.8.x+i+%+x.B+B+B+",
"B+B+B+x.w w F+F+c.x.w w t+t+t+t+w w t+t+t+w t+t+t+w c.D.P.=+7 =+D E P.}.t <.z.b+b+i <.4+Z k.5+:+:.z.N.+.+.a `.O.5.b+b+F.G+i.c.B+B+B+",
"B+B+B+x.t+w x.w t+t+t+w t+w w w w x.x.x.x.x.x.x.x.c.D.=+7 7 7 7 D D E l.}.Z *+.+k+Q.+.S.P.P.Q.<.`.i i +.P.e+z+b+b+5.-+b.b.=.c.B+B+B+",
"B+B+B+c.x.w r.w r.x.x.x.x.w x.x.x.x.c.x.x.w w x.c.v+E 7 7 ....7 =+D !+E E }..+Z Q.Z P.P.P.+.Z.i *+k+.+m P.Z q+O.5.F.F.b.b+{._ B+B+B+",
"B+B+B+x.c.r.}+_ _ _ /+r._ x.w w w w w w w w x._ ! M =+....7 ....=+!+E E Z .+p 5+Z }.P.S.P.a 6.v i Y +.}.Z Q.O.b+F.=.6.b.X.G+_ B+B+B+",
"B+B+B+c.r.K.K./+K.K.! _ x.w w w w t+w w x.F+K.F+F+d+7 7 ..B+7 7 !+!+!+E .+p (.Z.Q.k.S.P.k.*+k k 0 2 P.!+Q.k+O.5.G+=.{.%.%.g+F+B+B+B+",
"B+B+B+x.x.r.K.K.K.K.x.x.x.x.x.x.w w x.c.F+! K.0.v+l.........7 !+P.!+7 !+p Z.Z.*+5+Z k.k.k.Q.X.k x+] }._.Q.t.O.5.=.C.6+-+%.K F+B+B+B+",
"B+B+B+x.w w K.v+3._ r._ _ }+_ x.w c.! 0.0.%+v+v+3+D ....B+7 ..!+P.D D Z (.(.*+k+Q.Q.Q.Z k.Z Q.4+i ;.Z l.Z k+q+=.C.6+j.K O.6+_ B+B+B+",
"B+B+B+x./+_ %+K./+K.K.3.Q K.K.x.r.%+%+++++++++x+!.E 7 ..B+..7 !+}.}.5+(.6.(.5+P.k.Q.Q.Z +.+.P.P.}.a Z +.k.5+b+y+=.C.6+b.-+6.F+B+B+B+",
"B+B+B+c.K.%+++K.K.K.%+%+++%+x./+++++!.!.!.s !.U.` }.7 ....7 7 P..+(.(.6.6+(.Z P.k.Z Z +.P.S.!+S.S.P.P.+.k.Z.=.C. +C.=.-+b+g+_ B+B+B+",
"B+B+B+x./+%+%+K.%+++++++x+Q /+++s U.j.(+(+(+(+(+(+].!+7 ..7 D Q.p (.5.5.5.p k.P.P.P.k.P.P.!+!+!+!+a.S.+.5+F.&+j.j.y+=.O.O.6.F+B+B+B+",
"B+B+B+c.%+++Q ++!.s s s !./+%+(+v (+g.v g.v g.g.g.g.t D 7 ..!+a p (.(.(.Z.k+k.+.+.P.k.k.+.u+S.S.S.S.P.k.(.G+> y.y.j.O.b+F.5._ B+B+B+",
"B+B+B+c.++%+= x+!.!.U.!.%+%+U.(+g.g.g.g.g.k g.6.6.g.8+Y D 7 !+Q..+p p .+Q.Q.k.k.k.k.k.k.Z k.+.u++.k.Z 5+b+C.8 n.j.G+6.6+b.F.F+B+B+B+",
"B+B+B+c.++'.%+x+++%+Q Q /+++++x+U.g.g.8+g.p i g.[. .0 0 4+Q.}.p p Q.Z Z Z Q.k.k.Z k.Z Z Z Z Z Z k.Z Z q+G+y+x+n.y.j.=.b.-+-+_ B+B+B+",
"B+B+B+c.++++%+x+U.(+(+!.0 M 8+$.V.$.$.$.i 5 8+] ] $.].a t z. .k (.k+Q.Z Z Z Z k.k.k.k.k.Z Z Z Q.e+5+k+5.y+n.'.n.y.6+-+b+b.z._ B+B+B+",
"B+B+B+F+$.V.Y t }.}.Y V.}.!+=+7 =+E C l.l.Y ].}.t Q.Q.Q.a .+$.k 5.Z.k+5+Q.Z k.k.k.k.k.k.k.Z Z Z k+Z.(.6+j.y.'.n.g.b+%.F.=.-+F+B+B+B+",
"B+B+B+<+!+!+E E u.l.E =+=+....B+B+..7 7 !+l.a Z Q.t t Q.t k+Q..+6.6.(.k+Q.Z k.+.+.+.k.k.k.k.Z k+*+q+O.G+G+=.C.G+-+%.g.Y.{.b.F+B+B+B+",
"B+B+B+<+!+!+E E Y D D l.E 7 B+B+B+..B+..7 =+a.}.k.Z t k.Z Q.a $.v y+G+5.*+Q.Z k.k.k.u+k.k.Z k+k+k+*+q+5.G+G+6.6+6.(+8.9.*.k F+B+B+B+",
"B+B+B+! .+.+2 a k.P.2 d+D =+B+......B+B+B+..7 !+l.W Z t N.Z 4+]+(+C.=.G+6.q+k+Q.Q.Z Z Z 5+k+*+Z.k+k+Z.q+-+6.-+k y.9.i+x+9.i.F+B+B+B+",
"B+B+B+K.e.e+N.k.k.B i Z l.=+!+=+......B+..B+7 =+a.l.t e+Q.e+i r+(+g.b.k 6.F.b+q+k+k+k+k+k+Z.q+[+(.k+q+6+C.j.6.-+y+++i+i+E.9.x.B+B+B+",
"B+B+B+F+.+e.e+Z -.[.m 4+k.t l.7 =+7 ....B+B+B+..=+a.l.Y 2 a r+E.v b+p Z.i -+5.q+q+*+k+*+*+*+q+5.=.F.G+F.=.y.y+-+j.%+'.U.E.r+_ B+B+B+",
"B+B+B+! `.`.*+<.* k B *+4+w.P.l.E 7 =+..7 7 ......7 D l.Q.<.x+s v X.k+Q.k+<.~+Z.k+5+5+k+*+q+-+G+C.j.n.'.= %+E.j.E.Q %+x+r+z.F+B+B+B+",
"B+B+B+F+e X.<.]+* z.i <.i { 4+Y D C =+=+=+7 ....7 D E C t i s j.k t.k+Q.Q.Q.k+k+5+5+5+k+q+[+j.y.n.H = %+3.= r+i x+}+o %+j.v F+B+B+B+",
"B+B+B+F+b.:.z. .g.z.z.b.B B ] Z w.l.E C 7 =+!+f+d 0+J.;.].8+s v %.Z.5+5+5+5+5+Q.Z 5+*+5.v 9.3./+%+!.'.K./+Q U.k 8.w L.Q 9.j._ B+B+B+",
"B+B+B+F+k z.* i.k k z.]+%.z.<.<..+}.P !+E C d 0+0 D.9+5 4+]+8.(+%.Z.*+k+k+e+Q.Z 5+*+~+{.!.++++v+++!.[.Q /+3.i+++9.h.x+U.U.y+_ B+B+B+",
"B+B+B+F+k k {.i.* g.g.k k k i q { B 2 H.t 5 [.0 M ].t H.q -+j.j.F.q+z+Z.k+5+e+Q.*+-+j.[.8+$.V.Y V.q D.J.0+` ` ++3.++r+E.y+v _ B+B+B+",
"B+B+B+_ T g.j. .g.* v k g.k k X.i B ] ].4+M [.8+t E l.D.z.p j.8.G+5.q+Z.k+5+5+*+z.M 8+8+q V.5 5 5 5 V.d+V.d+f+Y d+q [.]+g.v _ B+B+B+",
"B+B+B+F+g.i.i.v i.g.v ]+g.k * i k %.z.d+D.q 8+2 t u.C D.i X.s x+v %.Z.*+*+4+].M J.8+8+8+8+$.5 5 V.V.V.5 f+C f+d+V.d+d+4+i 0 _ B+B+B+",
"B+B+B+) F+_ _ _ _ F+_ F+F+F+F+F+F+F+F+! F+! ! ! ! ! <+F+F+! c._ _ F+F+F+F+F+F+_ F+_ F+! F+F+F+! F+! ! ! ! ! ! F+! ! ! ! F+_ >.B+B+B+",
"B+B+B+B+B+B+B+B+B+B+B+B+B+B+B+B+B+B+B+B+....B+B+B+B+B+B+B+B+B+B+B+B+B+B+B+B+B+B+B+B+B+B+B+B+B+B+B+B+B+B+B+B+B+B+B+B+B+B+B+B+B+B+B+B+",
"B+B+B+B+B+B+B+B+B+B+B+B+B+B+B+B+B+B+B+B+B+B+B+B+B+B+B+B+B+B+B+B+B+B+B+B+B+B+B+B+B+B+B+B+B+B+B+B+B+B+B+B+B+B+B+B+B+B+B+B+B+B+B+B+B+B+",
"B+B+B+B+B+B+B+B+B+B+B+B+B+B+B+B+B+B+B+B+B+B+B+B+B+B+B+B+B+B+B+B+B+B+B+B+B+B+B+B+B+B+B+B+B+B+B+B+B+B+B+B+B+B+B+B+B+B+B+B+B+B+B+B+B+B+"};
