/* XPM */
static char * _5_frame_1[] = {
"66 100 256 2",
"  	c None",
". 	c #150907",
"+ 	c #3EBC76",
"@ 	c #468246",
"# 	c #7ABE84",
"$ 	c #531905",
"% 	c #7AD08F",
"& 	c #563622",
"* 	c #907F5A",
"= 	c #86CA8E",
"- 	c #833F1B",
"; 	c #89B28B",
"> 	c #85D79D",
", 	c #A37C4A",
"' 	c #8DBA96",
") 	c #8ED6AE",
"! 	c #895D42",
"~ 	c #E2DE95",
"{ 	c #A49C60",
"] 	c #3B3733",
"^ 	c #506648",
"/ 	c #CDC083",
"( 	c #8EEAD3",
"_ 	c #261C20",
": 	c #9A5B2A",
"< 	c #565445",
"[ 	c #B7AE72",
"} 	c #AA895B",
"| 	c #8BCDC2",
"1 	c #E7BD9D",
"2 	c #6DE4CD",
"3 	c #92EEDE",
"4 	c #683318",
"5 	c #459453",
"6 	c #97635B",
"7 	c #97491D",
"8 	c #F9F2EA",
"9 	c #451404",
"0 	c #C9AD6E",
"a 	c #B48B5C",
"b 	c #CEC290",
"c 	c #481A08",
"d 	c #E2BE9E",
"e 	c #966A4B",
"f 	c #769E6A",
"g 	c #BB9E67",
"h 	c #DACF8E",
"i 	c #7EA25E",
"j 	c #6EBAA0",
"k 	c #611E08",
"l 	c #B77849",
"m 	c #674132",
"n 	c #93BF97",
"o 	c #B88D84",
"p 	c #969695",
"q 	c #312E2D",
"r 	c #DEBFA5",
"s 	c #3B1104",
"t 	c #7F453A",
"u 	c #9ECAC0",
"v 	c #BB9E93",
"w 	c #92D6AE",
"x 	c #D6AF7D",
"y 	c #E6D8CF",
"z 	c #B57F6F",
"A 	c #496355",
"B 	c #A56736",
"C 	c #C7CBC0",
"D 	c #3AA05B",
"E 	c #B6705C",
"F 	c #DABFA9",
"G 	c #8EE2C2",
"H 	c #724131",
"I 	c #605249",
"J 	c #975F50",
"K 	c #59D598",
"L 	c #E1D896",
"M 	c #3C251B",
"N 	c #C6A191",
"O 	c #6AA666",
"P 	c #9AC0C6",
"Q 	c #886F4F",
"R 	c #B68A75",
"S 	c #512E20",
"T 	c #77C195",
"U 	c #53C079",
"V 	c #45542D",
"W 	c #2E0F07",
"X 	c #B47C64",
"Y 	c #EFE7D9",
"Z 	c #E4E09A",
"` 	c #DACFB5",
" .	c #442114",
"..	c #C0B578",
"+.	c #FBF6EF",
"@.	c #D0B29E",
"#.	c #AC705A",
"$.	c #7ECAD2",
"%.	c #D6C1B5",
"&.	c #702E12",
"*.	c #2A2527",
"=.	c #A35A2C",
"-.	c #AD683B",
";.	c #68D18C",
">.	c #907770",
",.	c #A98970",
"'.	c #668048",
").	c #53483D",
"!.	c #ECD8C1",
"~.	c #725E4F",
"{.	c #71A097",
"].	c #C59661",
"^.	c #995125",
"/.	c #6F6A46",
"(.	c #C28658",
"_.	c #76513B",
":.	c #63240B",
"<.	c #84534E",
"[.	c #572812",
"}.	c #986E63",
"|.	c #C3BDB6",
"1.	c #82BE9E",
"2.	c #793616",
"3.	c #825E54",
"4.	c #636868",
"5.	c #A67664",
"6.	c #171218",
"7.	c #704834",
"8.	c #78DBA5",
"9.	c #B0814B",
"0.	c #89563F",
"a.	c #D09483",
"b.	c #8F4D24",
"c.	c #DFCFC7",
"d.	c #464530",
"e.	c #42A862",
"f.	c #B4B076",
"g.	c #DCAD90",
"h.	c #D29C82",
"i.	c #D2C0B8",
"j.	c #B17042",
"k.	c #6ABEC2",
"l.	c #908167",
"m.	c #C3C3BF",
"n.	c #C89176",
"o.	c #7ADDB6",
"p.	c #5EB18B",
"q.	c #C2AE8C",
"r.	c #A1C2B6",
"s.	c #FCFAF0",
"t.	c #EDD7BA",
"u.	c #45C57A",
"v.	c #6F260B",
"w.	c #74514B",
"x.	c #8A6A60",
"y.	c #C89D63",
"z.	c #C78B6D",
"A.	c #E2DE9E",
"B.	c #472B22",
"C.	c #C27F64",
"D.	c #564237",
"E.	c #925136",
"F.	c #985548",
"G.	c #63926D",
"H.	c #552009",
"I.	c #C67F74",
"J.	c #A7967F",
"K.	c #64382E",
"L.	c #9AA397",
"M.	c #C7925C",
"N.	c #A15425",
"O.	c #342725",
"P.	c #A2694D",
"Q.	c #543531",
"R.	c #B7785D",
"S.	c #814E35",
"T.	c #6BD39B",
"U.	c #A77F67",
"V.	c #90451B",
"W.	c #86E6C9",
"X.	c #331E1A",
"Y.	c #975E42",
"Z.	c #734846",
"`.	c #644446",
" +	c #9A8985",
".+	c #A05D4A",
"++	c #9EAFA6",
"@+	c #86876E",
"#+	c #73B3B2",
"$+	c #C89082",
"%+	c #8AA276",
"&+	c #A56032",
"*+	c #8E5E55",
"=+	c #3E3E3B",
"-+	c #6F6662",
";+	c #201419",
">+	c #DEB497",
",+	c #EFEEEB",
"'+	c #BD804F",
")+	c #8BC0BF",
"!+	c #B9BBB9",
"~+	c #B3AFA6",
"{+	c #A16E60",
"]+	c #F4E1C9",
"^+	c #6AB2AB",
"/+	c #652A10",
"(+	c #CE9F74",
"_+	c #D5A488",
":+	c #DCC180",
"<+	c #8AADB0",
"[+	c #8E513C",
"}+	c #B99688",
"|+	c #78E6CE",
"1+	c #A46250",
"2+	c #E7CAA1",
"3+	c #794834",
"4+	c #A4807B",
"5+	c #6D7E73",
"6+	c #8C9282",
"7+	c #FEFEFE",
"8+	c #CBC4BD",
"9+	c #765A4E",
"0+	c #87665E",
"a+	c #AA9E72",
"b+	c #84CBC6",
"c+	c #E7C4A3",
"d+	c #53CB7F",
"e+	c #835044",
"f+	c #3DB26B",
"g+	c #95C0C6",
"h+	c #866F6B",
"i+	c #563C39",
"j+	c #715A39",
"k+	c #39302F",
"l+	c #ECD8B6",
"m+	c #E8CF8F",
"n+	c #C58C59",
"o+	c #726F5F",
"p+	c #473734",
"q+	c #46322A",
"r+	c #6A240A",
"s+	c #A88C84",
"t+	c #E9CDB2",
"u+	c #856745",
"v+	c #8AA19B",
"w+	c #96553C",
"x+	c #CEBDB2",
"y+	c #7CC1C7",
"z+	c #C3AEA4",
"A+	c #E6DFD4",
"B+	c #BAA6A8",
"C+	c #AE9F94",
"D+	c #66DEB7",
"E+	c #FAECE3",
"F+	c #878685",
"G+	c #86C1C8",
"7+7+7+7+7+7+7+7+7+7+7+7+7+7+7+7+7+7+7+7+7+7+7+7+7+7+7+7+7+7+7+7+7+7+7+7+7+7+7+7+7+7+7+7+7+7+7+7+7+7+7+7+7+7+7+7+7+7+7+7+7+7+7+7+7+7+",
"7+7+7+7+7+7+7+7+7+7+7+7+7+7+7+7+7+7+7+7+7+7+7+7+7+7+7+7+7+7+7+7+7+7+7+7+7+7+7+7+7+7+7+7+7+7+7+7+7+7+7+7+7+7+7+7+7+7+7+7+7+7+7+7+7+7+",
"7+7+7+7+7+7+7+7+7+7+7+7+7+7+7+7+7+7+7+7+7+7+7+7+7+7+7+7+7+7+7+7+7+7+7+7+7+7+7+7+7+7+7+7+7+7+7+7+7+7+7+7+7+7+7+7+7+7+7+7+7+7+7+7+7+7+",
"7+7+7+C F+F+F+F+F+F+F+F+F+F+F+F+F+F+F+F+F+F+F+F+F+F+F+F+F+F+F+F+F+F+F+F+F+F+F+F+F+F+F+F+F+F+F+F+F+F+F+F+F+F+F+F+F+F+F+F+F+F+F+,+7+7+",
"7+7+7+F+A 5+I 7.w.j+9+>.u+j+j+Q u+w.j+9+3.9+3.3.3.3.3.3.3.3.3.~.9+9+3.~.3.~.~.Q u+j+m q+_ *.*.6._ M  .B.S & & m m m 7.7._._.B.!+7+7+",
"7+7+7+F+4.5+Q Y.J Y., g a , Q a+} U.X R.U.9.5.} ,.,.,.,.U.,.,.z U.U.U.X U.9.U.} , >.u+i+A {.^+4.k+B.K.m 3+_.S.S.0.! ! ! *+e S !+7+7+",
"7+7+7+F+*.k+0+P.J 0.*+g a , e } } U.X U.z z z z z 4+4+,.5.U.U.X X U.} } U.U.9.} u+e ! < v+p.^+k.{.A ] & m 3+_.S.S.0.0.! : ! S !+7+7+",
"7+7+7+F+X. .e J ! 0.! a a } , U., X o ,.R R 9.U.U.U.U.U.4+U.U., U.z ,.} J.J.* u+j+S.Q 5+^+#+#+^+^+^+G.^ D.D.3+3+S.b.S.S.[+! q+!+7+7+",
"7+7+7+F+`.Z.}.e Y.0.e a M.} a e } (.R }+a s+s+,.s+l.* l.* l.@+@+%+L.; ' n # ; O G.Q o+{.{.^+#+k.#+y+)+g+v+4.< D.m 7.3+3+S.b.B.!+7+7+",
"7+7+7+F+i+m e e ! S.U.} }+, } }.*  +{ L.; ' n n ' ; ; 1.1.T b+) G o.W.o.|+o.W.G # @+f #+#+G+)+<+#+^+y+y+b+g+P v+5+4.I `.H 3+ .!+7+7+",
"7+7+7+F+9+6 P.e ! S.a , , J.o+%+= w G o.> > 8.D+|+o.2 2 2 2 2 2 |+|+|+|+( |+( ( = G.O 1.5+=+`.B+<+y+k.k.y+b+b+y+y+)+' 6+p+q+X.!+7+7+",
"7+7+7+F+H {+P.B B ! J.} } 6+; w G |+( |+|+2 |+|+2 2 2 2 |+|+2 |+|+|+( |+|+W.W.W.G w % k. +K.$ /+4.)+$.$.k.y+y+k.$.$.g+A d.p+X.!+7+7+",
"7+7+7+F+m P.P.{+e 3+u+, { i # G 3 3 ( 2 |+2 2 2 2 2 |+2 2 |+2 2 2 2 |+|+|+|+|+|+o.8.T.T L.<.Z.4+h+v+$.y+y+G+G+G+y+y+<+-+~.l.I !+7+7+",
"7+7+7+F+w.P.e e 0.7.& S '.# % ( 3 W.|+2 2 D+2 2 2 2 2 2 D+2 2 2 2 2 2 2 2 |+|+|+8.T.T.k.p 6 {+w.Z.v+y+y+y+y+G+$.G+)+L.>.s+J.I !+7+7+",
"7+7+7+F+Z.{+{+e 0.m S X./.= % W.W.|+2 D+D+D+D+D+D+D+D+D+D+D+D+K D+K D+D+D+D+D+T.T.T.;.T 4.w.4+h+*+p #+y+y+$.G+y+G+v+4+o o }+).!+7+7+",
"7+7+7+F+_.P.e B S.m B.*.'.> > |+8.|+D+K K d+K K d+d+d+d+d+K d+K d+d+d+d+d+d+d+d+d+d+;.^+p o v }+o p g+$.y+G+)+P P F+>.z z.R `.!+7+7+",
"7+7+7+F+3.}.B ! S.4 B.M %+> % ;.;.;.K d+d+u.u.K d+d+u.d+u.d+u.d+u.d+d+u.d+d+u.u.d+U U p.F+z+}+4+s+p g+y+G+P !+m.m.x+}+R 5.5.i+!+7+7+",
"7+7+7+F+9+e e : 3+& B.& ..= % ;.;.d+u.u.u.u.u.u.d+u.u.u.u.u.u.u.u.u.u.u.u.+ u.U + u.U k.B+c.i.4+}.<+G+y+G+u c.x+z+z+}+R {+5.Q.!+7+7+",
"7+7+7+F+_.P.e 0.3+4  .Q z+n % U d+U u.u.+ u.u.u.u.u.u.u.u.u.u.u.u.u.u.+ u.+ + + f+f+p.; ~+i.}+>.`. +L.++++8+|.s+N N }+4+}.3.M !+7+7+",
"7+7+7+F+9+e : S.3+4 & N [ / # U U u.+ u.+ + + u.+ u.+ + + u.+ + + + + + + + f+f+f+O {.L.x+z+i+K.Z.h+o C+i.8+B+4+N N v {+*+Z.M !+7+7+",
"7+7+7+F+9+e 0.3+- /+& %.~+C # p.U U f++ + + + + + + + f+f+f+f+f+f+D D D e.f+e.e.G.^ @+v N *+Q.i+*+}.o x+y c.z+<.o N v o o o I !+7+7+",
"7+7+s.@+9+Y.3+3+H 4 m F N [ ..O e.e.f+f+f+f+D D D D D D D D D D 5 D 5 5 5 5 @ @ V ).s+}+o }.*+5.6 {+z+%.%.@.9+S 4+}+$+v }+}+D.!+7+7+",
"7+7+7+F+9+! 7._.H /+`.x+z+l./ ; '.G.O 5 D 5 @ @ @ @ @ @ A A V V V =+=+] ] =+] p+D.w.s+s+h+0+6 {+{+v c.i.x+>.X.p+0+o o o s+B+~.!+7+7+",
"7+7+7+F+_.! H 3+m K.u+i.@.Q * [ < d.d.V V V =+=+d.d.).).7.I _._.7.7.m & & & & K.K.9+@.z+B+B+B+v v z+i.i.z+h+< ~.x.B+N B+%.x+-+!+7+7+",
"7+7+7+F+j+u+S._.m & ,.|.z+s+l.l.x.7.m & q+q+d.7.7.S.S._.S._.7._._._.H m K.K.m m m 3.A+A+A+y y y c.i.x+|.z+F+6+~+x+>+i.F F B+o+!+7+7+",
"7+7+7+F+_.e _.7.m K.z+8+m.|.i.|.a+_.3+3+3+H H 7.S.3+7.S.3+3+S.3+7.7.7.H m m m H `.w.B+~+~+~+~+!+!+!+m.|.m.!+!+z+|.i.@.B+s+C+>.!+7+7+",
"7+7+7+F+_.u+j+7.K.j+|.|.m.m.8+|.|.~._.3+3+3+3+- 7.3+3+S._.3+3+H H H m 4 K.K.m m 7.w. +~+!+!+|.m.m.i.m.m.m.|.m.m.m.8+8+!+i.c.5+!+7+7+",
"7+7+7+F+j+J _.7.i+ +|.m.m.|.m.m.|.Q _.3+3+H H 3+3+3+3+_.3+3+3+3+H H H K.m K.K.7.Z.Z.h+~+!+m.!+m.m.m.8+8+8+m.m.8+m.m.m.m.m.|.4.!+7+7+",
"7+7+7+F+_.! _.m i+|.!+m.m.m.m.m.m.s+_.3+3+3+3+3+3+3+3+S.S.H H - m 2.7.2.H H K.H 7.w.<.B+m.m.8+m.8+m.8+m.m.m.m.m.8+m.m.m.m.|.4.!+7+7+",
"7+7+7+F+7.! 7.m ~.8+m.m.!+m.m.C m.J.j+_.3+3+- 3+S.S.S.S.3+3+H H H 7.H 7.7.7.H H Z.e+9+L.C m.m.m.m.m.m.m.m.8+m.8+m.m.!+m.m.|.4.!+7+7+",
"7+7+7+F+7.! 7.m ,.|.!+|.m.m.|.!+m.J.9+S.3+S.S.0._.S.S.3+3+3+3+3+3+3+3+3+3+7.m 7.7.w.9+L.u m.m.m.m.m.m.m.m.8+m.m.m.8+m.m.m.m.4.!+7+7+",
"7+7+7+F+7.0.7.m B+!+m.!+m.m.!+m.!+J.j+0._.3+_.S.S._.3+S.S.3+t S.3+_.3+3+3+H 7.7.7._.~.v+' !+m.m.m.m.m.m.m.m.m.8+m.!+m.m.m.m.-+!+7+7+",
"7+7+7+++q ] ] ] ] ] =+] ] =+=+=+] ] ] k+] ] ] ] ] ] ] q ] ] k+] k+k+] q ] q k+] ] ] ] ] =+] =+=+=+=+=+=+=+=+=+=+=+=+=+=+=+] ] C 7+7+",
"7+7+7+7+7+7+7+7+7+7+7+7+7+7+7+7+7+7+7+7+s.s.s.s.s.s.s.7+7+7+7+7+7+7+7+7+7+7+7+7+7+7+7+7+7+7+7+7+7+7+7+7+7+7+7+7+7+7+7+7+7+7+7+7+7+7+",
"7+7+7+7+7+7+7+7+7+7+7+7+7+7+7+7+7+7+7+7+7+7+7+7+7+7+7+7+7+7+7+7+7+7+7+7+7+7+7+7+7+7+7+7+7+7+7+7+7+7+7+7+7+7+7+7+7+7+7+7+7+7+7+7+7+7+",
"7+7+7+s.,+,+,+,+,+,+,+,+,+,+,+,+8 ,+,+,+,+8 ,+8 ,+8 ,+,+,+,+,+8 ,+,+8 ,+,+,+,+,+,+,+,+,+,+,+,+,+,+,+,+,+,+,+,+,+,+,+,+,+,+,+8 7+7+7+",
"7+7+7+6+. 6.. . . . . . . 6.. . . W ;+;+X.X.X.O.M O.M B.k+M X.k+O.M ] p+p+X.X.X.;+X.] ] M O.O.k+k+q+q+k+q+k+q+k+O.O.M O.=+=+*.m.7+7+",
"7+7+7+F+c H.s s W 9 s $ k k k $ :.v.2.- b.&+B l l '+'+(.'+l '+l 9.n+_+x x : N.N.7 : g :+9.'+(.n+n+M.M.].y.(+y.(.l '+j.a :+h /.!+7+7+",
"7+7+7+F+X.H.$ s s 9 s $ k H.k k v.2.V.b.b.: : -.-.l l '+'+(.n+(.z.z.E >+x Y.^.N.^.: j./ x 9.'+n+M.M.M.].y.(+(+M.(.9.9.0 :+h /.!+7+7+",
"7+7+7+F+c $ 9 9 s 9 s $ k k k $ k &.4 4 S.N.&+&+-.-.l '+(.(.E -.-.E I.h.x : b.N.7 N.B 9.:+x '+n+M.M.M.M.y._+g ].(.l 9.:+h h /.!+7+7+",
"7+7+7+F+ .H.9 9 9 s s $ k k :.$ H.H.W W c b.: &+-.-.j.l (.(.l R.E E (.g.x =.V.^.^.N.&+j.].m+y.M.M.h.y.(+(+0 y.n+'+'+a h h h /.!+7+7+",
"7+7+7+F+c H.$ $ 9 s 9 $ $ H.:.H.9 $ s . W [.b.: &+j.l '+(.a.n.z.(.C.].x (+w+7 7 7 N.&+B j.0 m+y.y.M.y.y._+(+y.(.'+9.y.h h h o+!+7+7+",
"7+7+7+F+s  .$ c $ s 9 $ k $ :./+c H.W W W s H.S.: B j.l l (.(.z.M.z.n.(+n+^.^.^.^.N.=.-.-.9.:+m+y.M.h.y.(+y.].(.'+9./ h h h /.!+7+7+",
"7+7+7+@+X.H.$ c $ s 9 $ k $ :.H.H.$ s s W W s 4 3+2.b.N.-.-.l '+C.n+n+'+&+7 7 N.N.N.N.&+-.j.n+:+m+y.M.y.y.M.n+'+l g h h h h o+!+7+7+",
"7+7+7+F+s H.$ H.9 9 9 $ k $ r+:.$ :.9 s s s 9 /+0./+&.- b.N.=.&+-.j.-.&+=.7 N.^.N.=.N.&+-.l '+].m+:+y.M.M.(.'+'+9.:+L h h h /.!+7+7+",
"7+7+7+F+s H.H.H.c 9 9 k k $ k :.:.:.$ $ 9 $ :./+: 7.2.v.- - 7 N.=.&+=.j.7 ^.N.N.N.N.N.N.B j.'+n+0 m+x M.n+(.'+n+0 L L h h h o+!+7+7+",
"7+7+7+F+ .c H.$ 9 9 $ :.k k k :.:./+H.:.:.&.2.2.3+e - 2.- - V.V.V.^.=.j.N.7 7 N.N.N.N.N.B j.'+n+n+0 m+0 n+n+M...m+L L h ..h /.!+7+7+",
"7+7+7+F+s $ $ H.s $ 9 :.:.k k :./+r+:./+2.S.^.N.b., j.V.V.^.N.N.N.^.&+7 N.N.N.N.N.N.7 N.&+j.l (.n+n+0 g / :+m+L ~ L h L f./ o+!+7+7+",
"7+7+7+F+s  .H.H.9 $ 9 /+:.:.k r+/+r+/+&.- ^.B &+&+, y.b.7 ^.N.N.&+&+j.7 N.N.N.N.N.N.V.7 &+j.l (.n+(.n+0 L ~ ~ L L h / L / / /.!+7+7+",
"7+7+7+F+s H.$ H.$ H.$ /+r+:.k :.r+v.:.4 - : &+B &+B y.a ^.N.N.N.N.j.N.^.N.=.N.=.N.7 V.7 =.-.l '+(.(.'+n+L ~ ~ ~ ~ h / ~ / / /.!+7+7+",
"7+7+7+F+X./+$ $ $ H.c /+&.:.k r+r+r+:./+/+E.: B &+: a x B : =.=.&+j.^.^.N.&+=.N.N.N.V.7 =.-.l '+(.n+n+n+/ L L ~ L ..h L ../ /.!+7+7+",
"7+7+7+F+ ./+H.H.$ H.$ :.r+v.k k r+v.H.:./+b.w+: &+N.j.0 ].=.=.&+j.&+N.N.N.=.N.=.N.N.V.V.=.-.j.l '+'+n+M.0 L ~ L L / h L f./ /.!+7+7+",
"7+7+7+F+B.H./+H.H.H.$ :./+v.k k v.v.v.&.2.- ^.&+&+&+B , :+B &+j.j.&+N.N.N.=.N.=.N.N.7 - =.B j.l '+(.(.M.0 L ~ L L L L L [ b ~.!+7+7+",
"7+7+7+F+B.S /+H.:.H.$ :.r+r+r+v.v.&./+- - E.N.: &+&+B l 0 y.-.l -.-.-.&+&+N.N.N.N.7 V.- N.&+j.l '+'+n+n+0 h ~ ~ ~ ~ L h a+h /.!+7+7+",
"7+7+7+F+M <.4 [.:.H.$ :.:.r+r+r+v.&.v.2.S.^.^.N.&+&+: '+9.:+9.&+&+-.-.-.-.-.=.N.N.7 V.- ^.&+-.j.l '+n+n+0 L ~ L ~ ~ L [ / h j+!+7+7+",
"7+7+7+F+B.x.4 :./+H.$ k k r+k v.r+v.&.&.- b.N.: ^.: : j.j.y.].=.-.j.l -.j.-.-.-.N.7 7 V.V.=.&+j.l '+(.'+0 h L ~ L ~ h { h h j+!+7+7+",
"7+7+7+F+i+K.K.[./+H.$ H.k k v.r+r+r+v./+2.b.^.^.7 b.^.B l 9.x : -.j.j.j.j.j.-.-.N.N.N.7 V.N.&+j.j.l '+9.:+h ~ ~ ~ ~ h f.b / q+!+7+7+",
"7+7+7+F+B.m S H./+[.$ k k k k k r+k &.:.2.- 7 7 V.2.b.: , B M.M.=.-.-.j.j.j.-.j.-.N.N.7 V.7 : &+j.j.l 9./ L L L L L f.b h ].S !+7+7+",
"7+7+7+F+-+0+m [.:.$ $ $ k r+k r+r+$ &./+&.- - - - - S.y.g } e ].B =.-.-.j.l l j.-.&+=.N.7 V.N.=.-.j.l l h L L L h L a+{ * 0.[.!+7+7+",
"7+7+7+F+j+w./+:.:.H.$ $ k k k k k k $ 2.2.&.V.^.N.0.{+~+8+y ` [ } N.N.-.-.j.j.l j.-.&+N.^.V.7 =.&+B j.a h h h h L f...0 e b.[.!+7+7+",
"7+7+7+F+M & [.[.:.H.$ $ k k k k r+k 9 v.- 7 N.: &+: 5.C+~+8+y A+..! N.=.-.-.E l l j.-.-.N.^.V.7 : &+B 0 h h L h / a+g : ^.b.B.!+7+7+",
"7+7+7+F+S S.2.H.H.$ $ 9 k k k k k k k &.- ^.=.&+&+: , v J.~+C A+A+_+N.N.&+-.-.l l C.l j.-.=.N.V.- : } / / b b ..l.5.: w+w+E.[.!+7+7+",
"7+7+7+F+~.j+4 :.H.c $ $ $ k k k $ 9 k 2.b.^.: &+&+: 5.C+J.J.B+C A+A+e ^.=.-.-.j.l l '+l l j.-.: H 7.j+/.{ m.` 8+q.J.,.U.U.,.I !+7+7+",
"7+7+7+F+I }.K.[.c H.$ $ $ $ $ k k $ :.2.V.^.=.&+&+&+,.C+J. +C+!+A+A+/ ! ^.&+-.-.l l l '+'+l j.j.g 0 ..J.a+A+,+A+A+y ` y ` 8+o+!+7+7+",
"7+7+7+F+D.k+;+W 6.W ;+W W W W W W W W s  .B.S S S B.D.I < ).).< 4.4.o+i+ .[.S 4 & 4 4 K.m m & i+j+/.).< d.4.5+4.4.4.4.4.4.4.] !+7+7+",
"7+7+7+,+m.8+m.m.m.8+m.m.m.m.m.m.m.m.m.m.m.m.m.8+m.m.m.m.m.m.m.C m.8+m.m.m.m.m.m.m.m.m.m.m.m.m.m.m.m.8+m.m.m.m.C m.m.m.m.m.m.m.+.7+7+",
"7+7+7+7+7+7+7+7+7+7+7+7+7+7+7+7+7+7+7+7+7+7+7+7+7+7+7+7+7+7+7+7+7+7+7+7+7+7+7+7+7+7+7+7+7+7+s.7+7+7+7+7+7+7+7+7+7+7+7+7+7+7+7+7+7+7+",
"7+7+7+++p 6+p p p p p p p p p p p p p p p p p p 6+p p p p p p p p 6+p p p p 6+p p p p 6+6+p p 6+p p p p p p 6+p p p p p 6+p ~+7+7+7+",
"7+7+7+_ . . . . . 6._ *.*.*._ 6.. . . . . . . 6.6.6.6.6.6.6._ p+i+i+q+k+).w.i+9+x.Q }.}.Q x.u+e+_.7.K.i+ .M _ ;+_ *.6.. . . _ 7+7+7+",
"7+7+7+_ 6.6._ *.k+k+k+O.*._ 6.6.6.6.6.6.6.6._ ;+_ q+).p+O.=+i+w.0+e+w.w.3.e *+z.h._+_+_+_+_+n.(.C.R.P.P.t K.Q.B. .q+).. 6.. *.7+7+7+",
"7+7+7+*.*.q k+k+*._ ;+;+6.;+6.6.6.6.6.6._ _ *.o+B+i.x+z+}+>.j+}.5..+*+3.i+<.*+n.a.(+_+x >+>+_+z.(.I.R.R.6 S.H Q.M B.~.=+;+6._ 7+7+7+",
"7+7+7+*.q _ ;+6.;+6.;+6._ 6.6.;+6.6.6.;+_ ).~+Y Y y c.c+%.@.R X z C.5.#.9+u+}+_+h.n.a.1 c+c+@.a.z.C.C.I.E .+*+m B.q+M ~.q+6.*.7+7+7+",
"7+7+7+*.6.6.6.6.;+;+_ ;+_ ;+;+6.;+_ 6.*.4.y 8 8 8 Y A+y c.%.@.R I.C.o h.@.c+t+1 h.z.5.].c+t+d h.C.R.R.I.R.1+#.H Q.w.D.M 0+_ _ 7+7+7+",
"7+7+7+*.;+;+;+;+_ _ _ _ *.*.*._ *.*.q ~.A+8 s.+.+.8 Y Y c.t+c+@._+g.>+c+!.!.t.1 N ].$+U.@.t.c+h.C.C.C.R.E R.#.t Z.3.4+0+}.i+*.7+7+7+",
"7+7+7+*.X._ X._ _ _ *._ _ _ _ _ _ _ k+|.8 +.s.s.s.8 ,+A+y y c+_+g.1 >+c.t.t+t+h.5.}+_+>+N F c+h.C.R.E #.#.C.#.J *+! Z.5.4+D.*.7+7+7+",
"7+7+7+*.O.k+O._ _ _ 6._ _ ;+_ X.k+k+I A++.s.s.s.+.8 E+y y %.N $+a.1 @.t+t.t+>+X {+}.B+%.!.@.1 z.C.R.-.P.{+n.#.P.J w.*+5.}.Q._ 7+7+7+",
"7+7+7+*.q _ _ ;+;+;+6.6._ _ q k+k+q+>.E++.+.s.s.8 ]+!.Y E+>+a.$+$+g.>+t+t.c+>+z z H }+%.]+2+g.C.C.#..+.+R.(.X R.e+t 0.P.*+D.*.7+7+7+",
"7+7+7+*.*._ X.O.*._ ;+*.q k+p+p+i+p+B++.s.7+s.+.E+t+y E+E+g.I.a.a._+1 d r c+d h.R x.x.>+c.c+y.z.R..+.+1+#.(.C.P.t Z.S.[+*+9+*.7+7+7+",
"7+7+7+*.k+k+B.k+X._ *.q+p+i+i+i+`.).z++.s.s.s.+.E+y ]+]+t+I.I.h.g.>+>+@.>+r c+d g.N 4+N t+c+>+h.#.E.1+.+#.C.#.P.3+H [+F.P.<.*.7+7+7+",
"7+7+7+*.B.Q.Q.p+X.X.i+i+`.`.`.`.`.w.B+8 +.s.s.+.E+c+>+_+I.E I.h.c+t+1 >+r t+t+t.t.c.c+d %.c+>+(.F.F..+.+#.'+E 1+H H {+0.P.9+*.7+7+7+",
"7+7+7+*.i+`.i+O.X.i+Z.Z.w.<.<.<.<.3.s+E++.s.+.8 !.g.o I.I.1+I.g.t+t+c+1 c+t+!.]+]+]+!.t.l+c+h.-.F.F.[+.+#.C.C.P.H {+5.P.*+<.O.7+7+7+",
"7+7+7+O.`.Z.i+X.`.<.*+6 6 6 x.6 x.6 }.%.E++.s.E+%.a.I.I.I.I.$+>+t+t+t+t+c+t+t.]+t.]+]+t.t+>+I..+E.[+S.Y.z (.E E J R.R.X H w.q 7+7+7+",
"7+7+7+q <.Z.Q.i+<.6 6 6 6 6 }.{+{+{+{+s+y 8 s.E+%.h.$+$+I.$+_+1 c+t+t+c+c+c+c+t.t.l+t+t+c+h.-.E.t t [+R.C.#.R.R.#.#.X z H e+q 7+7+7+",
"7+7+7+*.Z.i+B.Z.0+6 6 >.}.{+5.z {+{+{+{+4+%.E+E+c+N a.a.g.g.>+1 c+c+c+c+1 1 c+c+c+2+2+c+g.z..+H 2.e+.+P.P.R.#.#.#.#.X #.<.*+k+7+7+7+",
"7+7+7+*.Q.B.`.`.Z.<.}.4+{+5.4+o >.x.0+3.-+4+N v $+$+g.1 1 1 1 1 c+1 1 1 1 1 1 d d d d >+a.E V.Z.H t t 1+R.R.R.#.P.P.{+J *+_.q 7+7+7+",
"7+7+7+q 0+h+4+v B+i.B+o v o }+s+N z+@.@.F r g.0+x.5.a.g.>+>+>+d 1 c+c+c+c+1 1 1 >+>+g._+I.F.t K.K.Z.1+X C.#.X P.1+*+0.e+J  ._ 7+7+7+",
"7+7+7+] z+c.E+8 7+s.+.A+,+y c.}+x+@.@.@.@.>+N _+$+z z h.g.>+d r c+2+2+c+c+c+1 :+>+g.].z.E 1+[+H t 6 z I.5.&+5.X [+H H H *+`.*.7+7+7+",
"7+7+7+=+,+8 +.7+7+7+s.7+s.,+y %.F >+>+F d x+@.F g.5.*+#.a._+>+c+2+t+c+m+2+c+c+1 _+a.h.z.E 1+6 1+1+E X {+t 0.P.E <.m Q.K.J {+q 7+7+7+",
"7+7+7+=+%.C 8 s.7+7+s.s.7+7++.Y y c+%.F r r 1 N v {+<.F.{+I._+>+d c+c+c+c+c+>+x _+_+_+a.I.R.1+E E P.J <.H 3+}.P.K.Q.S K.6 z k+7+7+7+",
"7+7+7+k+}+!.Y s.s.s.s.7+s.7+7+s.Y A+F F F >+>+@.5.6 *+J 6 P.5.n._+g.>+>+>+g._+h.(.n._+a.z.E P.R.z w+m m m m <.w.K.Z.3.3+5.R k+7+7+7+",
"7+7+7+] @.x+A+A+Y +.+.7+s.s.s.7+8 ,+A.%.@.@.d }+<.3.{+X z 5.#.#.(.n._+_+(+(+a.M.C.-.h.a.-.1+F.F.R.1+m i+`.Z.3+B.m {+*+S.5.R q 7+7+7+",
"7+7+7+] N @.@.x+,+Y ,+s.s.7+s.7+s.8 Y A+%.x z+}.H <.X $+h.a.z z (.M.h.(+_+(+a.a.I..+1+.+E 6 t H J J m S _.3+*+*+Z.H *+<.5.5.k+7+7+7+",
"7+7+7+k+n.N }+F x+c.8 Y ,+s.+.+.s.7++.,+A+2+@.3.t *+z h.>+x _+M.n.h.g.x g.(+n+E &+.+S.K.S B.S H 6 e+Q.S m e+5.X J H *+t <.3.q 7+7+7+",
"7+7+7+q o ,.g N q.y 8+A+,+A+,+s.s.Y ` x+z+@.B+e+<.#.z._+g.>+>+_+x x >+g._+(.P.e+H H K.K.Q.q+q+m z }.B.;+O.H .+P.3./+<.K.m ! q 7+7+7+",
"7+7+7+] X z }+,.@.N %.y 8++.,+A+~+l.-+-+h+ +s+<.0.z n._+x g.x g.>+>+>+h.(.1+Z.B.X. .`.e+q+X.B.i+6 0+S X. .K.e+F.e+Z.! Z.K.}.k+7+7+7+",
"7+7+7+q {+R 5.R }+}+r v y ` c. +-+-+x. +B+z+4+J <.#.n+a.h.h.x >+1 >+(+C.*+3.9+9+h+h+3.0+w.M q+K.& Q.Z.0+<.3.S.<.w+6 6 0.6 5.q 7+7+7+",
"7+7+7+).q k+q k+k+] ] q ] ] ] q q q q k+] ] k+k+q q k+k+] q+p+q+q+q+] k+O.O.k+k+k+] k+q *.*.*.*.*.*.*.q q O.O.q O.q O.q q k+).7+7+7+",
"7+7+7+7+7+7+7+7+7+7+7+7+7+7+7+7+7+7+7+7+7+7+7+7+7+7+7+7+7+7+7+7+7+7+7+7+7+7+7+7+7+7+7+7+7+7+7+7+7+7+7+7+7+7+7+7+7+7+7+7+7+7+7+7+7+7+",
"7+7+7+7+7+7+7+7+7+7+7+7+7+7+7+7+7+7+7+7+7+7+7+7+7+7+7+7+7+7+7+7+7+7+7+7+7+7+7+7+7+7+7+7+7+7+7+7+7+7+7+7+7+7+7+7+7+7+7+7+7+7+7+7+7+7+",
"7+7+7+7+7+7+7+7+7+7+7+7+7+7+7+7+7+7+7+7+7+7+7+7+7+7+7+7+7+7+7+7+7+7+7+7+7+7+7+7+7+7+7+7+7+7+7+7+7+7+7+7+7+7+7+7+7+7+7+7+7+7+7+7+7+7+"};
