/* XPM */
static char *_6_frame_3[] = {
/* width height num_colors chars_per_pixel */
"    66   100      256            2",
/* colors */
"`` c #120f11",
"`. c #43c47a",
"`# c #3f8f4c",
"`a c #23463b",
"`b c #6ec58b",
"`c c #76412b",
"`d c #62cd76",
"`e c #609367",
"`f c #787446",
"`g c #78cea3",
"`h c #6cb97f",
"`i c #78dea6",
"`j c #9d8a41",
"`k c #5b1d06",
"`l c #9f5122",
"`m c #e1da94",
"`n c #88b68c",
"`o c #e1da9a",
"`p c #7c6440",
"`q c #273a3b",
"`r c #ab8850",
"`s c #9e7245",
"`t c #546e4d",
"`u c #3c4134",
"`v c #86e6be",
"`w c #86c48e",
"`x c #b2a85e",
"`y c #beb63c",
"`z c #360f04",
"`A c #bdb180",
"`B c #97491d",
"`C c #316243",
"`D c #785d4b",
"`E c #cac646",
"`F c #b17040",
"`G c #ab8984",
"`H c #603829",
"`I c #534435",
"`J c #86ca8e",
"`K c #eeeeb6",
"`L c #372a26",
"`M c #d1b185",
"`N c #ba8e1e",
"`O c #96c68e",
"`P c #3d9f5b",
"`Q c #fefefe",
"`R c #7f5336",
"`S c #4b5731",
"`T c #9f6945",
"`U c #86cad2",
"`V c #ad806c",
"`W c #d7c587",
"`X c #924a1f",
"`Y c #162c14",
"`Z c #6da77b",
"`0 c #ba921a",
"`1 c #99887c",
"`2 c #421103",
"`3 c #603220",
"`4 c #ac794c",
"`5 c #b0a38f",
"`6 c #5c4338",
"`7 c #8ece9e",
"`8 c #a2b5b0",
".` c #85633e",
".. c #8e451b",
".# c #c3cac8",
".a c #9e8048",
".b c #3cab64",
".c c #cfc3a1",
".d c #c0b090",
".e c #8ad69e",
".f c #70290c",
".g c #c9b1a2",
".h c #9da7a6",
".i c #698f62",
".j c #767578",
".k c #5d5047",
".l c #754e3a",
".m c #a56031",
".n c #3e6249",
".o c #c08050",
".p c #7a9f8f",
".q c #7e3916",
".r c #ae9e5c",
".s c #4d342b",
".t c #d4a87d",
".u c #58260f",
".v c #dfc4b0",
".w c #4d2a1d",
".x c #b5bbb2",
".y c #aacaae",
".z c #9f705a",
".A c #dae2e7",
".B c #88441d",
".C c #b88b87",
".D c #ac7e66",
".E c #43190b",
".F c #9b9f9c",
".G c #1b1013",
".H c #76be8e",
".I c #e0dab6",
".J c #cfccbb",
".K c #361912",
".L c #835c48",
".M c #d6c4b1",
".N c #915325",
".O c #936546",
".P c #887067",
".Q c #bc8a74",
".R c #3bba73",
".S c #50614b",
".T c #985b33",
".U c #693e2c",
".V c #8d7b6b",
".W c #c79261",
".X c #b6ced3",
".Y c #642409",
".Z c #50c97a",
".0 c #ad986a",
".1 c #8bb7bd",
".2 c #3e593d",
".3 c #b8b169",
".4 c #754832",
".5 c #819a9d",
".6 c #a6a9af",
".7 c #9d9373",
".8 c #ccbcb8",
"#` c #65d18f",
"#. c #b9b19f",
"## c #636d71",
"#a c #c2c2b9",
"#b c #75371c",
"#c c #9a7a61",
"#d c #8b675e",
"#e c #34322f",
"#f c #72926a",
"#g c #ad8a62",
"#h c #4f1905",
"#i c #9f6a5f",
"#j c #aa9489",
"#k c #a07f64",
"#l c #ac7d60",
"#m c #6b4a37",
"#n c #ba958b",
"#o c #291c1c",
"#p c #c48857",
"#q c #c0a471",
"#r c #a35a2b",
"#s c #e1d0c9",
"#t c #b4c2c1",
"#u c #2a603e",
"#v c #d4cc8c",
"#w c #d2c3ba",
"#x c #c5995b",
"#y c #8e5b3a",
"#z c #6c584a",
"#A c #5e6341",
"#B c #ccba9d",
"#C c #858183",
"#D c #4e5034",
"#E c #52bd7d",
"#F c #755547",
"#G c #b8976d",
"#H c #ad926d",
"#I c #7f4930",
"#J c #c2b5a8",
"#K c #dacdb0",
"#L c #452a22",
"#M c #56d091",
"#N c #869682",
"#O c #995124",
"#P c #6d735c",
"#Q c #6aaab6",
"#R c #ac6837",
"#S c #64dcb2",
"#T c #9e746e",
"#U c #b2824d",
"#V c #652e13",
"#W c #c2b642",
"#X c #bebca6",
"#Y c #cbced3",
"#Z c #671e06",
"#0 c #763211",
"#1 c #854e43",
"#2 c #443530",
"#3 c #7ac2c6",
"#4 c #dadbdd",
"#5 c #dee6eb",
"#6 c #bda57e",
"#7 c #c69c8a",
"#8 c #ebdedd",
"a` c #8c5542",
"a. c #537d4c",
"a# c #6c3a25",
"aa c #768e5a",
"ab c #85c3ca",
"ac c #b77a49",
"ad c #6a4432",
"ae c #c99a6a",
"af c #d1bc82",
"ag c #846658",
"ah c #cec5b3",
"ai c #eceded",
"aj c #9e8077",
"ak c #676360",
"al c #5c5853",
"am c #966757",
"an c #7f5443",
"ao c #9e8965",
"ap c #662a11",
"aq c #979491",
"ar c #511f09",
"as c #cbc47a",
"at c #b8a7a3",
"au c #8e5d4c",
"av c #a1765e",
"aw c #b57057",
"ax c #c78e5c",
"ay c #2a2623",
"az c #6a5043",
"aA c #b6b5b4",
"aB c #cdbbb2",
"aC c #51ab6a",
"aD c #8c714d",
"aE c #ae8872",
"aF c #569a5c",
"aG c #42503c",
"aH c #48bb71",
"aI c #ba9c8d",
"aJ c #7a4934",
"aK c #8eaa86",
"aL c #7d4e37",
"aM c #29110d",
"aN c #b88954",
"aO c #d8cca8",
"aP c #cda46d",
"aQ c #a15627",
"aR c #6a828a",
"aS c #c3c3c0",
"aT c #cdb26b",
"aU c #96c4c0",
"aV c #dcd08f",
"aW c #ac9c8d",
"aX c #36201c",
"aY c #878785",
"aZ c #c8a796",
"a0 c #dac381",
"a1 c #a57a63",
"a2 c #393935",
"a3 c #9a5e5e",
"a4 c #bca790",
"a5 c #bebcb7",
"a6 c #71b5b6",
"a7 c #786557",
"a8 c #000000",
/* pixels */
"`Q`Q`Q`Q`Q`Q`Q`Q`Q`Q`Q`Q`Q`Q`Q`Q`Q`Q`Q`Q`Q`Q`Q`Q`Q`Q`Q`Q`Q`Q`Q`Q`Q`Q`Q`Q`Q`Q`Q`Q`Q`Q`Q`Q`Q`Q`Q`Q`Q`Q`Q`Q`Q`Q`Q`Q`Q`Q`Q`Q`Q`Q`Q`Q`Q`Q",
"`Q`Q`Q`Q`Q`Q`Q`Q`Q`Q`Q`Q`Q`Q`Q`Q`Q`Q`Q`Q`Q`Q`Q`Q`Q`Q`Q`Q`Q`Q`Q`Q`Q`Q`Q`Q`Q`Q`Q`Q`Q`Q`Q`Q`Q`Q`Q`Q`Q`Q`Q`Q`Q`Q`Q`Q`Q`Q`Q`Q`Q`Q`Q`Q`Q`Q",
"`Q`Q`Q`Q`Q`Q`Q`Q`Q`Q`Q`Q`Q`Q`Q`Q`Q`Q`Q`Q`Q`Q`Q`Q`Q`Q`Q`Q`Q`Q`Q`Q`Q`Q`Q`Q`Q`Q`Q`Q`Q`Q`Q`Q`Q`Q`Q`Q`Q`Q`Q`Q`Q`Q`Q`Q`Q`Q`Q`Q`Q`Q`Q`Q`Q`Q",
"`Q`Q`Q.#aYaYaYaYaYaYaYaYaYaYaYaYaYaYaYaYaYaYaYaYaYaYaYaYaYaYaYaYaYaYaYaYaYaYaYaYaYaYaYaYaYaYaYaYaYaYaYaYaYaYaYaYaYaYaYaYaYaYaY#5`Q`Q",
"`Q`Q`Q#C``````#eaqaz`6`6#C#.aAaA`8aqayak.Paka7.V#2`H`H.K.GaM`L`Had#m.s.K.G.KaXa7.k.s`Iazak.k#e.G.G``.G`L.s`L.6######akak####a2a5`Q`Q",
"`Q`Q`Q#C````.G.j#4#j#n#daVaVa5aS#4#Y`uaYa4ao.0a4`6.l#d.l.w.s`3anav.zan`H.w.w`D#j.Vaz`p#c`G`D#2aX#oaX#L#2`I`Iai#4#4.A.A.A#4#4.jaA`Q`Q",
"`Q`Q`Q#C````ak`oa4#H#jaW#v`m`K.##Y.#`u.7a4`1aW.d`6`Ham#T#d.L#d#TaE.C.z#dagau#caWaD#zaD.V#Ha7`LaXaX`L#eaX`L.k#5#waS#t#t.x#t#t##a5`Q`Q",
"`Q`Q`QaR``#o#X`5.r.r.r.r`Aas`m`K#5aS`uaW.daoa4#J`I.Kam`V.Q`V`V.Q.C`Ga1`V`V#T#H.d.Vaz#k.VaWag#L#o#o#o.K#eaX`I.P.6aA`8aA`8aAaAalaA`Q`Q",
"`Q`Q`Q#C``#oat#H.r`y`y#W.r#6aV.I#8a5al#..g.0`A.dalaM.L.z.oa1#i`V#7.Ca1au#T.zaI.gao#z#k.V`5a7#2aXaM#o.Kaz.G#L`Ia5aiaiai#5aiai.j.x`Q`Q",
"`Q`Q`Q#C```I.7.a`j`y`y`x`j#HaWa5#Ya5#C#B#J`5#Ja4a7aM.Ua3a3a`aJ.D#7#n`VanaJ#1aI.daW`fao`1`5.V`I`H`H#F`6.k`6#2`6al.6.h.F.h.h.h.jaA`Q`Q",
"`Q`Q`Q#C`6.zajao.r`y`y`y`y`j#kaW#sa5.6ah#J#6`Aa4agaX.wana##ba`a3a3amauau`c.4aIa4aW.Vao.7`5.V`I#o.K#L#L`L#2.saXalaA#t#t.x.x#t.j.x`Q`Q",
"`Q`Q`QaYaz.z#d#c`x`y`E`y`y`j#j#jai#Y.8ah#B.d.d.daD#2`z#m#1`ca#a`auau.l`H.UanaI#j`5aoaoaWaW#C#z#L#c.`.l.w#oaM`L`I#4#4.A.A#5#5.jaA`Q`Q",
"`Q`Q`QaY#z`GaI#c`j.3#W`E.3`j#c#naA#5.#ah#J#qaI#6#k`I`zar.la`#1#1a3a3#1anan`6.7`1#j.7.7aW`5.Pak.s`0`0.a.K#o#oay#e.F.h.h.h.6#5#C.x`Q`Q",
"`Q`Q`Q#Caz#T#T#daza2#C`f#Daz#d#c.8#4.##w#B#6.0#H#H#m.KaM`3.la`a3#1#1ananaz.Kaj.V.7ajao`5`5.Pal`I#x`0an#o``#o`Lal#Y#4#4#Y#4#5.jaA`Q`Q",
"`Q`Q`Q#C`6.O.Lag`Day.G``#oazam#TaS#4.J#X.c.r#H.a#H`D#L`z.Eada`aua`a`a`.L#LaMaj.Pao#k#kaW#J#C.P#2`r#Uad.K.G#oaXaA#4.A.A.A.A#5aY.x`Q`Q",
"`Q`Q`QaY.s.P`Dag#z#e````#o#Fag.V#s.I.JaB.c#G#HaD#k#T.s.KaX.wadaua3a3au`H.KaM`1.VaoaD#k#6.caB#Ba4aZ#6`G.P`6aXak#YaS`8.6`8#4#5.jaA`Q`Q",
"`Q`Q`QaY.ja5a7`D`Iay.G`Y`Laz#d#j#4#s.J#B#BaW#HaD#ca1ad.Earar.w`3.Ua#`3.waX`L.7aj.V.L#c#q.c#B.daI#GaIaZaZ.g#n#w.A#4.A#YaA.x#Y##aA`Q`Q",
"`Q`Q`Q#CaYa5a7a7#jaS#Y#Y.8aq#J.M.J#K.c#X#B`A`r`s.l#T#F.w#L.wap.wapap.war.E`D`pag`D`D#c#6.c.c`5`VaEaE.C#n#7aZaZ#w#4#4#Y`8`8.5aGaA`Q`Q",
"`Q`Q`QaY#CaS`L.j`L#oay#eak#w.g#B#K.J.c#J`W`Aao`pad#d.la#.wap`3`3`3a#`3.w.w.l.w#F`6`p.V#6.M.c`5ava1a1.DaE.C.C#7#7.8#8aiai#5#YalaA`Q`Q",
"`Q`Q`Q#C#C.FaM`D#F`6#2`I`G.M.g.d#Kaf#B.caO#6`s`D.lad.L.4ad.U.U`c`ca#`ca#a#`H#m.U.s`DaD`AaO.c.davav#T.zawa1`V`V.C#7aZatak`L````.x`Q`Q",
"`Q`Q`Q#C.j#z`6#T.P`6az.VataZ#n#B.c.M.MaO.caoaD.L.l`Ra`aua`a`an#1.l#1#1a`a3.Lam.l.U`DaDa4`W#BafaE`4.z.zam#i.z#l`V.Q#naZagaXaM``aA`Q`Q",
"`Q`Q`Q#C.j.P`1aI#Tajaj`G#naE#7#B#Baf.M#va4#caDad`Han.Laua3#da3aua3auauam#iama1#y.l`DaD#BaB.c`MaZ.zamau.T#yam.z#l.o.C#7aZ#n.C#zaA`Q`Q",
"`Q`Q`QaY#j#s#s.v#s#s#s.g`V#k`Vaf.dafaf`A.aao`s.laLa`auam#i.z.z#iam#i#i#T.z.z.DaDau.l.L.d`M#B#6#Ha1a`#I`c#I.N.O.za1`V.C#7aZ.gaka5`Q`Q",
"`Q`Q`Q#Caq.8#w#w.8.8.8#na1.z#k`M`M`M#qaDaD.a.a.l.L#damam#i#i.z#i.z.z#T.zav#ca1avavaD.`aI#B`MaI#gaDaJ#V`H`c#I.Nau`T.z.D.C.C#7azaA`Q`Q",
"`Q`Q`Q#C#C.6.6`8.6`8`8aqavam#d#G.d`M.0aDaD#g#c.Lam#i.z.z.z.z.z.z.z.z#Tavavav.D`V.Dav.`aoaZ#q#q#k.L.sar.wa#`c#I#1.L#y.O.za1`V#m.x`Q`Q",
"`Q`Q`Q#Cak.#.#.X.X.X#tao`s.Oam#k#q#q`r`p.a#HaDam.zava1a1#T#T#Tava1a1#la1`V.D`VaE`V#kaD`raI.r#g.`aL.w#L.E#L`3.UadaJ`R#y.Oam.z`6aA`Q`Q",
"`Q`Q`Q#Cal.1.1.1.1.1.1#c#i.O`s`r#q#7.a.O.a#q`sava1#l`V`V`V`V`V`V`V`V`V`V`VaE`VaEaE`V#c#G#G.0`ramadaX.K.KaX.w`3.Uad.l`Ra`#y.O.s.x`Q`Q",
"`Q`Q`QaYal`8.1.1`8.1.1#C.O`Tav#kae#G.a#c#H#G.za1aw#l`V`VaE`V`G`V`V`V`V`V`V#k`V`V.D#U`V#k#G#g#c.`#may#eayayaX.w`H.Uad.4`R`Ra`.saA`Q`Q",
"`Q`Q`QaY.j.1.1aR.5aqaR.Pa3.O.Oav.r#xaDaD.0#ga1#l.D`V`V#l`V`V.Q`Vaj`V`GaE`V.D#k.D.D.D#k`4#g.aav.O`6aG.p.p`t#e#L`H.U.4.4aL.N`R.w.x`Q`Q",
"`Q`Q`Q#C.j#Q###2`6.s`L.O.Oa3a`au#GaN.a`s.a`r.D#l.D.D.D.o`V`V`V`GaEaja1.Da1.D.D`VaE#k#U#l`raDagau.k.p#Qa6a6.p.n#e`H.U.4aL`R`R.waA`Q`Q",
"`Q`Q`Q#C###Q`q.GaX#LaXa3.O.O`R#y#g#g#Ua1#k#l.D.QaE`V`V`V`V`V#ka1#k#k#ka1a1.DaE#k#Hao.0ao`p`R`RaD#P#Q#Qa6a6a6a6`e.S`I`6.4#I#I.waA`Q`Q",
"`Q`Q`QaY.j.6#e#2#m.P.4#i.O#ya`.O#g.W`r#gaD#l.QaE#n#n#HaE#Haoaj.Vao.V.a#CaY.7aKaK`n`w`n`Z`Zaa`f#P.p#Q#Qa6a6a6a6abaU.5##`I`IadaXa5`Q`Q",
"`Q`Q`Q.6a2a2#e#e#e#e#ea2a2a2#ea2a2a2a2#2a2#2a2#2a2#2a2a2a2a2a2a2a2a2a2a2`ua2`ua2a2`u`u`ua2a2a2#ea2`q`u`q`ua2a2a2`u#e`ua2a2a2#e#Y`Q`Q",
"`Q`Q`Q`Q`Q`Q`Q`Q`Q`Q`Q`Q`Q`Q`Q`Q`Q`Q`Q`Q`Q`Q`Q`Q`Q`Q`Q`Q`Q`Q`Q`Q`Q`Q`Q`Q`Q`Q`Q`Q`Q`Q`Q`Q`Q`Q`Q`Q`Q`Q`Q`Q`Q`Q`Q`Q`Q`Q`Q`Q`Q`Q`Q`Q`Q`Q",
"`Q`Q`Q`Q`Q`Q`Q`Q`Q`Q`Q`Q`Q`Q`Q`Q`Q`Q`Q`Q`Q`Q`Q`Q`Q`Q`Q`Q`Q`Q`Q`Q`Q`Q`Q`Q`Q`Q`Q`Q`Q`Q`Q`Q`Q`Q`Q`Q`Q`Q`Q`Q`Q`Q`Q`Q`Q`Q`Q`Q`Q`Q`Q`Q`Q`Q",
"`Q`Q`Q`Qaiaiaiaiaiaiaiaiaiaiaiaiaiaiaiaiaiaiaiaiaiaiaiaiaiaiaiaiaiaiaiaiaiaiaiaiaiaiaiaiaiaiaiaiaiaiaiaiaiaiaiaiaiaiaiaiaiaiai`Q`Q`Q",
"`Q`Q`QaY`L#e`L`LaM#oaXaXayaXaM.G``ay`q`a`aaG`a`a`a`a`a`a`a`a`a`a`a`a`a`a`a`a`a`a`a`a`a`a`a`a`a`a`q#e`uaX#o.G#e`q`q`q`q`q`q`qay#t`Q`Q",
"`Q`Q`QaYajaIa1#Tama3`T.z`T.Nad.saX.S`J.e`v`v`v`v#S#S#S#S#S#S#S#S#S#S#S#S#S#S#S#S#S#S#S#S`i#`#`#``b.jan#T.PauaY.1#3#3`U#3abab.SaA`Q`Q",
"`Q`Q`QaY#CaZ.C.z#i.z.z`T#d`Ra#.waX`t.e.e`i`i`i#S#S#M#S#M#S#M#M#M#M#M#M#M#M.Z.Z#M#M#M#M#M#M.Z`d`b`haa.C#n#n.Caq`U`Uabab.1aUaUal.x`Q`Q",
"`Q`Q`Q#C.VaZ#7.C.C`V#i`T.OaLa##L`L#N`7#`#S#S#`#S.Z.Z`.#M`.#M.Z.Z.Z`..Z.Z.Z.Z.Z.Z.Z.Z.Z`..Z`.#E.Z`haYaZ#naj.Caqab#3#3aU#t.#aS##aA`Q`Q",
"`Q`Q`QaYa7#naZ#7#7`V#i`T#y#I`3.w.w`x`O`g`d`d.Z`.`..Z`.`..Z`.`.`.`.`.`.`.`.`.`.`.`.`.`.`.`.aH#E#E`h.h#s.v`G#T.F.1#3.1#t#YaBat#za5`Q`Q",
"`Q`Q`QaYak`G#7#7#n.Dam.m#y.4`3.w`D`A.x`b`d`d#E`.`.`.`.`.`..Z`.`.`.`.`.`.`.`.`.`.`.`.aHaHaH.R.RaC.1.6#YaI#TadaY.h.6.1.#.8`GaZazaA`Q`Q",
"`Q`Q`Q#C#za7`G#n#na1`Tau`R#I#V.w`5at#X`h#E.Z`.aH.R.R`.`.`.`.`..R`..R`..R`..R.R.R.R.R.R.b.R.baC`Z.F.8#J`6`6`6#d#j#j.8.#at`G#7alaA`Q`Q",
"`Q`Q`QaYa7.U#daj`G.D`T.N#I`c`H.u.v`Aas`w`haHaHaH.R.R.R.R.R.R.R.R.R.R.R.R.b.R.b`P.b.b.b.baCaF`t#CaWaZ#d`3`Han#T.C.g#8#s.gan#naza5`Q`Q",
"`Q`Q`Q#Cakad.lagaj`VamaL.4`c`3`3aB.g`5.3`ZaC.baH.b.b.b`P`P`P`P`P`P`P`P`P`#`#`P`#`#`#`#`#a..2`Iaj#n.C#dau#T#i#i#7#w#w.g#d#L#T.k.x`Q`Q",
"`Q`Q`QaY.k`H`H.laE#l.`.4.4`c`3`HaB.daoaf`n.iaFaF`P`P`#`#`#`#`#a.a.`C.n.n.2aGaG`u`u`u`ua2a2`I#m`G`G#Cag#i#i#i#n#s.8aBajaX.sag`6aA`Q`Q",
"`Q`Q`Q#C.V.P.k#d.Ca1#yad.4`c`H#FaB.g.V.V`x.k`I#D`S.2aG`a`a`u`u#D`Iaz.l.l.l#m#mad.s.s`3`3`H.UazaZaZatat#j#n#nat.8#w.g.P.k.kag.kaA`Q`Q",
"`Q`Q`QaY#C.8`Gaj#g#l.OaL.lad`3#T.8#J`1#c.VaDad.U`H.s`3`H`c.4#I#IaLaL.l.l`R.l.4`cad`H.Ua#.Uad#F#8#8#8#8#8#4#s#w.8.8#JaYaYaA.8`Da5`Q`Q",
"`Q`Q`QaYaY.#aS`G#ka1#d`R.lad`HataS.8a5#wa5ataz.l.4ad`c`c.4aL.4.4aL.laL.4.4.4.4`cada#.U`Hadad#maWaA.6aAaAaAa5.8aSa5.#a5aA#.#JakaA`Q`Q",
"`Q`Q`Q#Caq#a#Bao#l`s.O`D#m`6#maBa5#a.8#a.8#X`p.l.4#I`c.4`c`c#I.laLaLaJ.4.4`c.Uada#`H`H.Uad.4az`1aAaAaAa5aSaSaS.8aS#a#t#aaSahak.x`Q`Q",
"`Q`Q`QaYaYaS#.#cav`s.O.lad.sajaSa5#aa5aS#aa5.VaL.4.4`c.4.4#I#I.4#I#I.4.4.4`c.U.U.Ua#`H`Had.4.l`Data5aSa5aSaSaS.8aS#waSaSaSaSaka5`Q`Q",
"`Q`Q`QaYaY#a#nav`s.z.L`Rad.s#.a5aS#aaSaS#tah#j.laJ#I`c`c#I.4.4.4aL#I.4`c`c.U`c.Ua#.U`c.U.U.4.l.LaWaSaS.#aSaSaSaSaS#a#aaSaS.8##aA`Q`Q",
"`Q`Q`QaYaq.8ao.z.z`s.L.lad#F.8#aa5#aaSahaS#t`5#zaLaJ#I.4#I#I#I#IaL#I`c`c`c`c`c`c`c.4`c.U`c.4.l.Laq.Xa5.8aS.#ahaSaSaSaSaSaSaSaka5`Q`Q",
"`Q`Q`Q#CaY.8#k`s.z.O#y.l.U.Va5#aa5aS#t#a#t#XaW`D`R.4aJaLaL`R`RaLaL#I.4aJ#I.4aJ.4.4.4.4ad.Uad.l#F.F.yaSaSa5aS#aaS#aaSahaSahaSakaA`Q`Q",
"`Q`Q`QaYaY#X#c.z.z.O`R.4`6`5#JaS.xa5a5a5#ta5aW`D`R.4#I`R`RaL`R#IaJ#I`c.4#IaJaJ.4aJ`c.4#mad.l#makaK`n`8.##aaSaS#aaS#aaSaSaSaSak.x`Q`Q",
"`Q`Q`QaYaY#.avav`T.Oa`ad#F.8a5a5aS#a#aaSa5aS#j`D`RaLaJ#I`R`RaLaL`RaLan.4aJaL.l.4.4.4`c.4aJaJaz#f`e`w`1.xa5aS#t#a#aaSaSaSaS.8##aA`Q`Q",
"`Q`Q`QaY`1at#c`s#i#yaLadaj#a#t#a#aa5#a#a#t#a#jaganaLaL#IaLaLaLaJ.4ada#`3.UaJaJ.4.4.4.4#maJaJak.H`ZaK.PaWa5#aaSa5#aa5a5a5#aa5aka5`Q`Q",
"`Q`Q`QaY#C`5a1.z.O#y.4#m#.#aa5a5a5a5#Xa5a5#X.F`Da`aLaJaL#IaLaJ.4.4`cad.U.4aJaJ`c.4.4aJaJ.l.k`ZaC`n##.L.Pa5#aa5aSa5#a#aaSa5aSakaA`Q`Q",
"`Q`Q`QaYaY#n#k`4.ma`#magaB#a#a#t.x.x.xa5a5#X.x`p.LanaLaLaJaJ`c.4.4.4an#1aJaJaJ`c`c.4.l.laz.i`b.H#A#FaL.LaWa5a5a5#aaSa5aS.8#aak.x`Q`Q",
"`Q`Q`QaYaY#j`Vavamanad#j#Ja5a5a5a5.xa5a5#JaK`O#f#A`R`RaLaL.4.4`c`caJan.l#1.l.4.4.4.4aJaz`t`g`b`tad#maJ`D.V.8a5a5.xa5#aaSa5a5akaA`Q`Q",
"`Q`Q`Q#CaYaW#6#n#k.L#z#JaAa5#JaA.x.x#X.x#J`1#N`O.i#z`RaLaL.4.4.4`c.4#F.laJaJ.4.4`caJ.ka..H`b.i`6ad#m.lan#daWa5a5a5a5a5a5a5a5aka5`Q`Q",
"`Q`Q`QaY`1at#naoam.PaWa5a5#J.x#XaA.xa5.x.x.V.`#N`OaF.S.l.laL`c`c.4.4aJ`caJ.4`c`c.4#D#f`w#E`haG.U.4.4#mana7#ja5.x.xaAa5.xa5a5alaA`Q`Q",
"`Q`Q`Q#C#CaE`V.z#y#F.ga5a5a5aA.xaA.x#XaA#X.Pa`#zaa`w`ha.`S#m.4.4.4`c#I`c`c.4ad`I`t`h`b#E`ba.#madad#maJ#1.L.VaAaAa5a5aAaAa5a5ak.x`Q`Q",
"`Q`Q`QaY.V.C#l.zanaj#JaA#t#Ja5#X.xa5aA#J.xaga`.l.k#P`n`b`h`e.S#D`6`6`6`6`I#D.S`Z`g#E#E#E`h#Da#`caJ.4.lan.L.P.ga5a5aAa5a5a5a5akaA`Q`Q",
"`Q`Q`QaYa2`6`6#2`L.k.kalalalalalalalalalal`L#L`LaXaXa2.2.2`C.n`C`a`Y`Y`Y`q.2.n#u#u#u#u#u`aayaXaXaXaX`LaX#L#2.kalalalalalalal#ea5`Q`Q",
"`Q`Q`QaiaSaSa5aSaSa5.#aS.#aSaSaSaSaSaSaSaSaSaS#aaS#a#a#taSaSaS#a#aaSaSaSaS#a#aaS#taS#aaSaSaSaSaS.#aSaS.#aSa5.#aSaSaSaSaSaSaSaSai`Q`Q",
"`Q`Q`Q`Q`Q`Q`Q`Q`Q`Q`Q`Q`Q`Q`Q`Q`Q`Q`Q`Q`Q`Q`Q`Q`Q`Q`Q`Q`Q`Q`Q`Q`Q`Q`Q`Q`Q`Q`Q`Q`Q`Q`Q`Q`Q`Q`Q`Q`Q`Q`Q`Q`Q`Q`Q`Q`Q`Q`Q`Q`Q`Q`Q`Q`Q`Q",
"`Q`Q`Q.6aqaqaqaqaqaqaqaqaqaqaqaqaqaqaqaqaqaqaqaqaqaqaqaqaqaqaqaqaqaqaqaqaqaqaqaqaqaqaqaqaqaqaqaqaqaqaqaqaqaqaqaqaqaqaqaqaqaq.6`Q`Q`Q",
"`Q`Q`Qay.KaM.GaM.GaMaM`z`zaMaM`z.E.w`3.Uadad.l`Raz.s#z.U.l.l.LaD.VaDagaD#d`3.wad.w`H.U`c`c.4aL`R`R.L.L.``p.L`D#F#m.U`3`H`p`pay`Q`Q`Q",
"`Q`Q`Qay#h`2`z`z`z`2`2#har#h`2ar.f.q`X#r.T#R`F#y.UaLam.z#Uac.o.W.t`Max.W.t.T.B#R`s#O.m#R#R`Facac#pax.WaxaeaPax`F.N.N.N.m#q`Aa2`Q`Q`Q",
"`Q`Q`Qayar.E`2`z`z`z`2#h`k#h.E#hap.q`X#r#R`s`Fa`.O`s`4ac.oacac#pae`MaP.W.t.m#O#I`0`F.m#R`F`F.o.o#p#paxax#x.t.W`T#R#R#R`TaT`Wa2`Q`Q`Q",
"`Q`Q`Qayar`2`z`z`z`2`2#h`k`k`2`k.Y#b`X.T#Rac#U#U.o.D#p#p.o.oawacax.ta0aeaP#R.m.B`s#x`F`F`Fac.o#pax.W#p#p.Wae#xac`T`F#R`4af`Wa2`Q`Q`Q",
"`Q`Q`Qay.u#h`2`z`z`2`2#h`k`k`2#h.Y#0.q#O.m`F.o.o.o.o#p#p.o`4aw.o.o#7`MaeaxaQ.m`X`X#xaPacacac#p#p.W#x.Waxaeaeaeac`F`4`F#U#v#va2`Q`Q`Q",
"`Q`Q`Qay.u#h`2`z`2`2`2#h#Z`k#h`k.Y.f#b.B.N#R`Facac.o.o.o.oawacacacax`M`Mae`B#r#O`X`saf#xac.o#paxax.W.WaeaeaPae#Uac`F`F#qa0#va2`Q`Q`Q",
"`Q`Q`Qayar#h`2`z`2`2`2`k`k.Y`k#Z.f.q.B`X.N.m`T#Rawac.o.o.o#p#p#p.Wax#p.vax..aQaQ`B#R`0a0`Nac.oaxax.W.WaeaeaeaeaN.oac`4af`W#va2`Q`Q`Q",
"`Q`Q`Qayarar`2`2.E`2`2`k`k#Z`k#h.f.B`c#I.NaQ#r#R#Racac.o#p.o.oawawaw.o`Mae..`l#O#O.m`F.ta0#p#pax.W.W.W#xaeaPae`N.oac`Na0aV#va2`Q`Q`Q",
"`Q`Q`Qay.u#h`2`2`2`2`2`k`k#Z`k#h`k#h`z`2`c.N.m.m#Raw`F.oaxawawawawawax`Mae..`l`B#O.m#R`4a0aT`Nax.W.WaeaPaP.t#xaN.oacaPaVaVasa2`Q`Q`Q",
"`Q`Q`Qay.uar#h`2#h`z`2`k#h.Y.Y#har`2aMaM.E#I.T.m.m#Rac.o#pax#p.o.o.o#7`M#p.B`l`B`BaQ.m`F#paV.t#xaeaeaeaeaPae#xaNac`rafaVaV#va2`Q`Q`Q",
"`Q`Q`Qayararar.E#h`2`2`k#h#Z.u.u#h`2`z`z`z`2`c.T#R`Faw.o.oax#p#p.Q.W#7.tac..`l`l`l#r.m#R`FaPaV.t#x.WaPaPaPaeax#pac`rasaV`maVa2`Q`Q`Q",
"`Q`Q`Qayarar#h#h`2`2`2`k`k`k.Y.u#h`zaM`z`z`zaraJ`c.Na3#Rawaw.o#p#paxax.o#r..`l#O`laQ#r.m`F.oaTaV.taeaeaeae#x#pac#UaPaVaVaVaVa2`Q`Q`Q",
"`Q`Q`Qay#har#har`2`2`2`k`k`k#Z.Y`k#h`z`z`z`z.E`c`c#V.q`X.T.m#Rawaw.oaw#R`B`B`l`l`laQ#r.m`Fac`Na0a0aP#xaeax#p.o.o`NaVaV#v#vaVa2`Q`Q`Q",
"`Q`Q`Qay#har#har#h`2#h`k#Z#h.u.Y.Y.u#h`2`2#h`ka#.T#V.f.q.B`B`laQ.m#raQ.m#O`l`laQaQaQaQ#r#Rac.o.Wa0a0#x.W#p.o.oaNaT`maVaVaVaVa2`Q`Q`Q",
"`Q`Q`Qayararar#h`2`2#h#Z`k`k#Z.Y.Y.Y.u`k`kap#0#0.O#I#0.q.q.q..`B`laQ#R.m`B`B`l`l`l`l`l#r#R.o.o.WaeaVaTax#paN`NaTaV`maV#vasaVa2`Q`Q`Q",
"`Q`Q`QaXar`k#h#h.E#h#h#Z#Z`k#Z.Y.Y.Y.Y#V#b.B`X.B.T#l.B.q`B`B`l`B`B#O#R`l`l`l`l`laQ`l`l`l#R`F.o#pax#xa0aPaP`Ma0`m`m`maV`W.3#va2`Q`Q`Q",
"`Q`Q`Qay#har`k#h.E#har.Y#Z`k#Z.Y.Y.Y.Y#0.B.T.m.m.N#x`F..`B`l#r#r.m.m.m`B`l`laQaQ`l`l`B`l#R`F.o#p#p#p#xas`m`m`m`m`m#vaVaV.3#va2`Q`Q`Q",
"`Q`Q`Qayarar`k#h#h#h#hap.Y#Z.Y.Y.f.Yap#b`X.T.m#R.T#U`M#O`l`laQaQ.T`F#O`laQaQ#r`l`l`B..`l#R`Fac#p#p#p.oaT`m`m`m`m`masaV`m.3`Wa2`Q`Q`Q",
"`Q`Q`Qayarar`k#harararap.Y#Z#Z.Y.Y.Y.Y#V.B.T.m.m.m`T.taNaQaQaQ`l#R#R#O`l#r#r#r`l`l`B..`B.m`Fac.o#p`N#p#x`m`m`m`maV.3`m`o`xasa2`Q`Q`Q",
"`Q`Q`Qay#V.uar#h`k`k`kapap.Y#Z#Z.f.Y`k.Y#b.N.T.m.m.TaN`M`T#r#r.m`FaQ`l`l#r#r#r#r`l`B..`l.m#Rac.o.o#pax.WaV`m`m`m#vaf`oaV`Aasa2`Q`Q`Q",
"`Q`Q`Qay#V.u.Y#harar`k.Yap.Y#Z#Z.f.Y.Y#V.q.B.N.m.m.T`saP#x.T.maw#R#r`l`l`laQ#r#raQ`l..`B.m#R`F.o.o#p#p`0`W`m`m`maVaV`o#v`Aasa2`Q`Q`Q",
"`Q`Q`Q#e`3.u.u.Y.u`k#hap.f.Y#Z#Z.f#0#0.q.B.N#r.m.m#r`4#Ua0`F#Rac#R.m.m#r#r`l`laQ`l`B.q`B#r#R`Fac.o.o#p.Wa0`m`m`m`m`oaV`Aaf`Wa2`Q`Q`Q",
"`Q`Q`Qay.s.4.u.u.u`k#h#Z.Y#Z#Z.f#Z.f#0.q`X.N#O#r.m#r`F`4aT#x`F#R#R#R#R#R#R#r#r`l`l`B....aQ#R#R`F.o#p#pax`W`m`m`m`m`K`m.0as`Wa2`Q`Q`Q",
"`Q`Q`Q`L.lanap.Y.Y#h#h.Y#Z#Z.f.f#Z#0ap#b.B#OaQ.T#r.T#rac.aaT#R.m#R`F`F`F#R#R.m`l`B`B....`l#r#Racac.o#paNa0`m`m`m`m`m#v.raVaf#e`Q`Q`Q",
"`Q`Q`Qay.l`H`3.u.Y`k#h#Z#Z#Z#Z.f#Z.f.f#V.B`X`laQ`X.N#r`F`FaP`NaQ#R`F`F`F`F#R#R.m#r`B`B`B`B#r.m`Facac.oaNaV`m`m`m`m`m.3asaV#6`L`Q`Q`Q",
"`Q`Q`Qay`H.Uar.uapar#h`k#Z#Z#Z#Z#Z.f.Y#0#0..#O`B...B.N`F`F`4aP#R#R#R`F`F`F`F`F#R#r`l`l.....T.m#R`Fac#UaN`maV`m`m`m.I.3aV#v#Uay`Q`Q`Q",
"`Q`Q`Q#e.P.l.u.u.Y#har`k#Z.Y#Z#Z#Z`k#0.Y.q.q.q.q.q.q#y#gav.O#U`N#r.m#R`F`F`Faw`F#R#r`l`B..`X#r.m#R`Fac#H`m`m`m`maV#vao.7`r.N`L`Q`Q`Q",
"`Q`Q`Qa2aj#m`3.Y`k#h#h`k`k#Z#Z#Z#Z#h#V#0#0#0`X#O#O.N#HaB#K.MaI.0.m#r#r#R`F`F`Faw#R#R#r`l`B..aQ.m#R`F`saP`maVaVaV`o.3as#6#y#Oay`Q`Q`Q",
"`Q`Q`QaG`LayayayayaXay#oaXayayayay#oaXay`L`L`Lay#e`L#ea2a2`ua2a2`L`L#L#L#L#L#L#L#L#L`L`L`Lay`L`L`L`L`L#e`ua2`u`qa2#ea2#eay`L#D`Q`Q`Q",
"`Q`Q`Q`Q`Q`Q`Q`Q`Q`Q`Q`Q`Q`Q`Q`Q`Q`Q`Q`Q`Q`Q`Q`Q`Q`Q`Q`Q`Q`Q`Q`Q`Q`Q`Q`Q`Q`Q`Q`Q`Q`Q`Q`Q`Q`Q`Q`Q`Q`Q`Q`Q`Q`Q`Q`Q`Q`Q`Q`Q`Q`Q`Q`Q`Q`Q",
"`Q`Q`Q`Q`Q`Q`Q`Q`Q`Q`Q`Q`Q`Q`Q`Q`Q`Q`Q`Q`Q`Q`Q`Q`Q`Q`Q`Q`Q`Q`Q`Q`Q`Q`Q`Q`Q`Q`Q`Q`Q`Q`Q`Q`Q`Q`Q`Q`Q`Q`Q`Q`Q`Q`Q`Q`Q`Q`Q`Q`Q`Q`Q`Q`Q`Q",
"`Q`Q`Q`Q`Q`Q`Q`Q`Q`Q`Q`Q`Q`Q`Q`Q`Q`Q`Q`Q`Q`Q`Q`Q`Q`Q`Q`Q`Q`Q`Q`Q`Q`Q`Q`Q`Q`Q`Q`Q`Q`Q`Q`Q`Q`Q`Q`Q`Q`Q`Q`Q`Q`Q`Q`Q`Q`Q`Q`Q`Q`Q`Q`Q`Q`Q"
};
