/* XPM */
static char *_6_frame_1[] = {
/* width height num_colors chars_per_pixel */
"    66   100      256            2",
/* colors */
"`` c #0d0b12",
"`. c #45c679",
"`# c #34964c",
"`a c #1b3f2a",
"`b c #76c491",
"`c c #683c2c",
"`d c #658777",
"`e c #75ca9e",
"`f c #667a51",
"`g c #6aa471",
"`h c #8ecdc5",
"`i c #86d6b0",
"`j c #9f5122",
"`k c #b6af3d",
"`l c #431304",
"`m c #696865",
"`n c #a28a59",
"`o c #88e3c3",
"`p c #8ba38a",
"`q c #91441a",
"`r c #e2de96",
"`s c #937447",
"`t c #9c9e7e",
"`u c #6b5c48",
"`v c #4f6c43",
"`w c #551c07",
"`x c #8ac49d",
"`y c #3a3c3a",
"`z c #8ee6d2",
"`A c #9aba8a",
"`B c #c58858",
"`C c #b27444",
"`D c #6d5348",
"`E c #27201d",
"`F c #9e6c50",
"`G c #3d9d56",
"`H c #3e332e",
"`I c #d0b189",
"`J c #573427",
"`K c #cac242",
"`L c #3e5c33",
"`M c #9c8975",
"`N c #7d3c18",
"`O c #fefefe",
"`P c #5a3f30",
"`Q c #7c693c",
"`R c #d1c486",
"`S c #975629",
"`T c #a7aca8",
"`U c #92d0a4",
"`V c #a8755d",
"`W c #c6cacf",
"`X c #6b2207",
"`Y c #3ca762",
"`Z c #a86639",
"`0 c #799a77",
"`1 c #9abbc2",
"`2 c #8adaae",
"`3 c #dfc686",
"`4 c #b58871",
"`5 c #d6d8d9",
"`6 c #3f2820",
"`7 c #71bb87",
"`8 c #928a5a",
".` c #6ac68b",
".. c #774631",
".# c #286244",
".a c #572c1a",
".b c #8ee2be",
".c c #b1a08b",
".d c #2a5e42",
".e c #c0b83f",
".f c #8b6948",
".g c #1a1111",
".h c #d9cf8e",
".i c #353431",
".j c #a2582a",
".k c #d4ccc2",
".l c #acc5bd",
".m c #47562f",
".n c #825d38",
".o c #c5ba9b",
".p c #a7988b",
".q c #694e3f",
".r c #5c492e",
".s c #c4805a",
".t c #524237",
".u c #79543d",
".v c #66230a",
".w c #5abc81",
".x c #ccac9e",
".y c #bca069",
".z c #869eb2",
".A c #925f4d",
".B c #98756c",
".C c #6e7870",
".D c #d9d8ce",
".E c #d1c3a2",
".F c #e1e8ef",
".G c #c99a68",
".H c #af8244",
".I c #3fae67",
".J c #874a28",
".K c #a16d63",
".L c #b3b0ab",
".M c #5ec683",
".N c #773415",
".O c #7ad094",
".P c #d3ccbd",
".Q c #2e2723",
".R c #ba921a",
".S c #e0d896",
".T c #e0e0dc",
".U c #bfa285",
".V c #55240e",
".W c #45523b",
".X c #c4b26e",
".Y c #a5908b",
".Z c #6a4531",
".0 c #b79175",
".1 c #aa7d64",
".2 c #8e6c67",
".3 c #897767",
".4 c #8cbc91",
".5 c #3c1f17",
".6 c #a46032",
".7 c #9b825b",
".8 c #784b35",
"#` c #788854",
"#. c #2c0a02",
"## c #be8055",
"#a c #775e4f",
"#b c #4e423b",
"#c c #8d8981",
"#d c #6ee5c5",
"#e c #c89260",
"#f c #aa8871",
"#g c #97694f",
"#h c #dbd7ca",
"#i c #73acae",
"#j c #537d4f",
"#k c #ae6c3d",
"#l c #6fbd7b",
"#m c #88401a",
"#n c #bdb6b0",
"#o c #50ba7c",
"#p c #6c8c5e",
"#q c #959492",
"#r c #b28a1e",
"#s c #601d07",
"#t c #825338",
"#u c #c9c4bd",
"#v c #d1ceb2",
"#w c #ba7e4a",
"#x c #c0afa2",
"#y c #9c7649",
"#z c #d6c28a",
"#A c #c1af89",
"#B c #964c21",
"#C c #56c582",
"#D c #bebcb6",
"#E c #b8978e",
"#F c #ac8172",
"#G c #835d4b",
"#H c #7bddba",
"#I c #b5b7b5",
"#J c #cdb772",
"#K c #837e80",
"#L c #6aba8e",
"#M c #4d3127",
"#N c #cfbb9b",
"#O c #c9ae61",
"#P c #bbc2a6",
"#Q c #95603a",
"#R c #a89078",
"#S c #3cba74",
"#T c #b89850",
"#U c #5a4a46",
"#V c #3e4b3f",
"#W c #7e4d38",
"#X c #c29582",
"#Y c #3a924e",
"#Z c #82744b",
"#0 c #9ebe92",
"#1 c #4b1c0a",
"#2 c #858685",
"#3 c #d0bbb1",
"#4 c #599d5f",
"#5 c #64341f",
"#6 c #75412d",
"#7 c #77c2c7",
"#8 c #9f7e5e",
"a` c #b08c59",
"a. c #bb794b",
"a# c #d2c478",
"aa c #8f9a90",
"ab c #afa4a0",
"ac c #7e6a5b",
"ad c #b58063",
"ae c #b0a566",
"af c #c2a398",
"ag c #241412",
"ah c #caa26c",
"ai c #545c4d",
"aj c #51c37e",
"ak c #5f230c",
"al c #bc8b54",
"am c #b79a72",
"an c #6e290e",
"ao c #321e1b",
"ap c #2e422e",
"aq c #d7cdc9",
"ar c #8db7bc",
"as c #d1bc85",
"at c #c6bcb5",
"au c #835445",
"av c #be824c",
"aw c #75b9bb",
"ax c #79e7ce",
"ay c #4c2718",
"az c #e4ce8d",
"aA c #666163",
"aB c #c1c2be",
"aC c #9a7e74",
"aD c #31120c",
"aE c #508d55",
"aF c #585450",
"aG c #774e40",
"aH c #a26e5a",
"aI c #47ba74",
"aJ c #89685c",
"aK c #c29a90",
"aL c #5c8086",
"aM c #7c9682",
"aN c #42443a",
"aO c #94775b",
"aP c #83c3cb",
"aQ c #d9c5b7",
"aR c #844d42",
"aS c #44666a",
"aT c #81615d",
"aU c #bcbb81",
"aV c #8f593d",
"aW c #89b085",
"aX c #785656",
"aY c #342e29",
"aZ c #674741",
"a0 c #6edeba",
"a1 c #622c16",
"a2 c #eeeded",
"a3 c #d7cea9",
"a4 c #70b47c",
"a5 c #ab8266",
"a6 c #9ea3a1",
"a7 c #9f755d",
"a8 c #000000",
/* pixels */
"`O`O`O`O`O`O`O`O`O`O`O`O`O`O`O`O`O`O`O`O`O`O`O`O`O`O`O`O`O`O`O`O`O`O`O`O`O`O`O`O`O`O`O`O`O`O`O`O`O`O`O`O`O`O`O`O`O`O`O`O`O`O`O`O`O`O",
"`O`O`O`O`O`O`O`O`O`O`O`O`O`O`O`O`O`O`O`O`O`O`O`O`O`O`O`O`O`O`O`O`O`O`O`O`O`O`O`O`O`O`O`O`O`O`O`O`O`O`O`O`O`O`O`O`O`O`O`O`O`O`O`O`O`O",
"`O`O`O`O`O`O`O`O`O`O`O`O`O`O`O`O`O`O`O`O`O`O`O`O`O`O`O`O`O`O`O`O`O`O`O`O`O`O`O`O`O`O`O`O`O`O`O`O`O`O`O`O`O`O`O`O`O`O`O`O`O`O`O`O`O`O",
"`O`O`O.k#2#2#2#2#2#2#2#2#2#2#2#2#2#2#2#2#2#2#2#2#2#2#2#2#2#2#2#2#2#2#2#2#2#2#2#2#2#2#2#2#2#2#2#2#2#2#2#2#2#2#2#2#2#2#2#2#2#2#c.F`O`O",
"`O`O`O#K````````#c.3#Z`Q`Q#Z`8`8ae.L.L#2.i.3.3#a#K#KaYaD.q#GaT#G#GaTaJaT#a#GaTaXac.3aF`P`u`uac#Uao.g.gagagao`E`HaA#K#K#2#2#2aN#D`O`O",
"`O`O`O#K````.g`EaU#R.y`k`k#O#Aae.S#v`5#I#U.L.o#R.X#A#UaD.A`Vad#F`V`4.0.0a7#g`Va7am#x.7`uaCaC.c`m`Haoagagao#Uag#M#b`W.T`5`5`5.C#I`O`O",
"`O`O`O#K```````P.p`n`n.e`k`k.7.y#A#v`5.L.C.o#nam.o#A`uag.8.K.K.AaR`4aKaK#FauaR.Aaf#x#Rac.7`8.c.3`P`P`JaZ`P.q#b.5#U`m`Ta6.za6aF#I`O`O",
"`O`O`O#2``#UaZ.2.7`n#T.e.e`k`k.7`M.p.T#Iab.E#x#A#A#A#aaD`JaR#6#6au.A`V`VaJ#G#6.8am#A.c.3`8`M.c.3#Mao.5#M`6#M`H`P`6`m`5.T.T`5.C#D`O`O",
"`O`O`O#K``aX`s.BaJ.7ae.e`K.e`k`na`.p.TaB#D#u.o.U#A#Aac`6aD#W#W#5`NauaRaRaR`c#5aX.c.p.c`n`M.c.c#KaX`6#a.8`P`6aoag`HaF#I.l#D.laA#I`O`O",
"`O`O`O#2``#b.2aC#E.7ae.e`K`K`k#R`MaK#u.T#uaQ#n#A.c.UaO`PaD`JaRauaRaR.K.KaRaGau.u.p`M.p#R`M.c.p.3aF#M.R#r.1.5aoag.Q.i`T`T`T`Tai#D`O`O",
"`O`O`O#K.C#M.2.1#FaJ.r`maeae`f.u.2#F#D.T`W.E.o.Uamam.7aZaDaD#6aR.AauauaRaRaX.8.5`M.7.Y.7#R.cabacaA.r#T.R.naDagag.QaF.F.F.F.F.C#I`O`O",
"`O`O`O#2a6#baT.AaJ#a#a`E.g.gag.q.2.B#u`5#v#u.oam#R`n#R`D#1aD.5..aV.AaRaRau#G#MaD`Mac`M`M`8.c#x#Z`u#Ma`#r`Pag.g.Q.5.Y`W`W`W`W`m#n`O`O",
"`O`O`O#2.LaF`DaJ#Gac`u.Q.g.g.Q`DaJ.Baq`5#u.E.Eam`n#ya``sayaD.5.aaR.A.K.A.A`caDag.Y#Z`M`s.7.c#N.o#x#R.yamaO.t`6.Q#U`W#I#I#I#I.C#I`O`O",
"`O`O`O#2.L`m.3ab#a#a#b`E``.g.g.qaJ`M.Taq.P.oas.ca``s#8aC`P`l`6.V.a`caGaR`cay.5.Q.Y`M#8#GaO.U.E#N#x.U.Uaf.x.xaK.2at.F.F.T`5`W`m#I`O`O",
"`O`O`O#2a6#K`W`Wac#a.Ya6a6`TaBaC.c.E#h.P#v.o#n#A.7.f#G.B.uayay`w.aa1.Vak.aay.5`DaOac`Q#a.7.U.E.E.c#f`4`4#EaKaf.x#naq.T.T#I.zaF#I`O`O",
"`O`O`O#2#qaC.L#I#bac#b#VaFaF.C#n#3#N.Pa3.E.oas#A`n.f`c.BaZ`J.aaya1a1a1#5`J.Vay#aay#G.Z#a.7#A.E.E.p.B.1.1#F.0.0#Xafaf#u.F.T.F.C#I`O`O",
"`O`O`O#2#2#c`Ta6agaTaZ#b`H#baCaQ#x#Aa3.E#N.oa3.U.7.u.8.8au.Z`c#5`c`c`c#6#5#5#5`c.Z`P`P.n#Z#Aa3.E.Ua7`Va7`V`V.1ad`4#XaK#3#u.p`y#I`O`O",
"`O`O`O#KaFa6.paA#M.2aT`J#UaJ#x.xaK`IaQ#3`R#va3#R.f.f.uauau.AauauaRaR....aRauauaG.A.Z`J#a`s#Aa3.o#Na5`V.K#g.K.K`V.1`4#XaK#E#U``#n`O`O",
"`O`O`O#2`J.L.YaX.3#E.2.2.2`M#E#RaK#3as.E.Ea3#A#Z`s`P`J.uaVau.A.A.A.AaVaVaV.A.K.2.1au.q#G.3.x#N.E#N.UaHaH.A.A.A#g`V.1`4#XaKaf#U#I`O`O",
"`O`O`O#2`Maqaqaqaq#3aQaQaq.x#f#F.0as#Aas#N#J`n`n.f.8.8au.A.K.A.K.K.2.K.A#ga7a7`F.1.f.naG.f.o#N#N.U.Ua7.naRaR.JaV`ZaH`V`4#XaK`u#D`O`O",
"`O`O`O#2.YaQaQaQ#3aQaQ#3aQ#E.1#g#f#N`I#J#A#8`s`naO.u#G.A.A.2.K.K.K.K.K.K.K.Ka7a7.1.Ba7.f.n.U`I`I.y`na7aG#5`c#6aRaV#g`F`Vad.0aZ#I`O`O",
"`O`O`O#2aoac.L.L.L#I#I.L.L.Ya7.2#g.U.x#O#R`s.f`n#8au.A#g.K.K.K.K.K.K.K`V`V.B`Va7.1.1#8a7.n#R#A.U.U#8#G#5ay.a`c..#W#taV#g`F`V.t#D`O`O",
"`O`O`O#2#b#b#K#D#I.l.l.l.l`M`V#g.fa`.U#O`n`QaOa`aO.fa7.Ka7`Va7.Ba7a7`Va7.1.1.1aC#F#F#F.7.f#R.y.yam.f.uayayayay#5#6..#W#t.n#g`J#I`O`O",
"`O`O`O#K#c#x#K`1`1`1`1`1araC#g#g.fa5.U.y#y.f#8.y#ga7`V#F#F#F.1.1.1#F#F#F.1.1#F#F#Fad#fa5a7amama``n.A.8.5`laD.5.a`J.Z.Z.u#taV#M#I`O`O",
"`O`O`O#2aT.Y#K`1ararararar.3#Q#g.1a5.Gam`n`sa`am`Fa7.1.1.1ad#F#F#F#F#F.1#F#F#F#Fa5#Fad#8#fa5ama`#8.naZ.Q`E`E`E.5.a#5`c.Z.u#t#M#I`O`O",
"`O`O`O#2aZ`6#q`1aw.z#q.z.z.3.6#g#Q#8aha``s#yama`#8.1`Vad.1#Fad`4`4#F#F#F#F#f.1.1.1.1.1.1#y.1a`.7#y#Q.taN`d`d#V.Q#M#5.Z....#W`6#I`O`O",
"`O`O`O#2aX#F.zaraL`yacaA#baT.A#Q#G#gam.0#y.f`na`.1.1ad.1ad#F#F#F#f#f#F#FaCad.1.1.7#fad#f.1.1a``s`s.A.t#p#iaw#iaLap#M`P.Z.8.J#M#I`O`O",
"`O`O`O#KaX.B#q#i`yaoaDaoaD#g#Q#Q#t.n.0al`n#ya5.1ad`4#Fadadad#F.1#FaC#F#8#F#8.1.1ada5#fa`#R`n.f.n#t`s.C#i#i#iawaw`g`vaN`P.r.8`6#I`O`O",
"`O`O`O#2`D#Ka6.z`E`6#UaTaZ#g.A.A#t#Q.Hala5a`#g.1ad`4.0`4#f#f#fa5aC#8#8.7.7aC.7`Maa#q`p`p`p#p`f`f.u`QaM#i#iaw#iawawaPar.CaF.t`6#I`O`O",
"`O`O`O#2aZ.Y.p#DaX#U#MaX`c`F`FaV#t#y.0am.Ha`.2#8.0.p.p`t`t`taa`taMaM`0`0#iaW`x`U`i`2`2`o`o`o#H`x#``d#i#i#7awawawawar#7araraMaN#n`O`O",
"`O`O`O#2aT.Y.Y#x.Y.2`PaCau.K#gaV#ta`.1`n.H#Z`8`0.4`U`2`2#H`2#H#H#H#H#H#Ha0a0#d#daxaxaxaxax`z`z`b#p`g`7aMaLaA`T.z#7#7aw#7`h`haS#I`O`O",
"`O`O`O#2aXab#E#3af#Fad.K.K#g`F#QaVa`.7a``8`0`x.b`oax#d#H#H#d#daxax#d#dax#d#d#daxaxaxax`zax`z`z.b`x`b#7#2.V`waG.C#7#7#7#7aP#7aS#D`O`O",
"`O`O`O`T`y`y`y`y`H`y`H`y`H.i.i`y.i`y`y`y`y`yaN`y`y`yap`y`yap`yap`yap`y`yaNapaN`yapaNapaNapap`y`y`y`yap.i`H.i.i.i`y`y`y`y`y`y`y`W`O`O",
"`O`O`O`O`O`O`O`O`O`O`O`O`O`O`O`O`O`O`O`O`O`O`O`O`O`O`O`O`O`O`O`O`O`O`O`O`O`O`O`O`O`O`O`O`O`O`O`O`O`O`O`O`O`O`O`O`O`O`O`O`O`O`O`O`O`O",
"`O`O`O`O`O`O`O`O`O`O`O`O`O`O`O`O`O`O`O`O`O`O`O`O`O`O`O`O`O`O`O`O`O`O`O`O`O`O`O`O`O`O`O`O`O`O`O`O`O`O`O`O`O`O`O`O`O`O`O`O`O`O`O`O`O`O",
"`O`O`O`Oa2a2a2a2a2a2a2a2a2a2a2a2a2a2a2a2a2a2a2a2a2a2a2a2a2a2a2a2a2a2a2a2a2a2a2a2a2a2a2a2a2a2a2a2a2a2a2a2a2a2a2a2a2a2a2a2a2a2a2`O`O`O",
"`O`O`O#2aY`y`H`H`H`H`H`6.Qao`Eao.g.g``.iapap`aap`a`a`a`a`a`a`a`a`a`a`a`a`a`a`a`a`a`a`a`a`a`a`a`a`a`a`a.Q`H`y.QaY.iap`aapap`y`EaB`O`O",
"`O`O`O#2.Y#3afaKaKaKaK`4#g`Z#Q.8#5`6#M`T`U.O.Ma0.M#C`.`.`.`.`.`.`.`.`.`.`.`.`.`.`.`.`.`.`.`.`.aIaj.w#L`taqaQ#FaC.zar#7ar.l`W`m#I`O`O",
"`O`O`O#2#qaQ.Y.0afaK#E.1#g.AaV.8#5ay.q#A`A.O#C`.#C`.`.`.`.`.`.`.`.`.`.`.`.`.`.`.`.`.`.#S`.#SaI#SaI.Iaw`Taq#3.1aXaaarararaBaq.q#I`O`O",
"`O`O`O#2.paQ`M.2.0aK.0.1`Z#Q#t..#5ay.cae#P#l.M#C`.aI`.#S`.`.`.`.`.`.#S`.#S`.#S`.#S#S#S#S#SaI.IaI.I`g`T#n#3aZaZ`c.2.Y.p#naB#x#U#I`O`O",
"`O`O`O#2.Yaq.YaZ.2`4#f.1#gaV.J#6#5.aaQab.h#l.waj`.aI#S#S#S#S#S#S#S#S#S#S#S#S#S#S#S`Y.I.I.I.I`Y#4`d#`.p#3.Kay`JaX.B`4af.T#h.x#b#I`O`O",
"`O`O`O#2.Yaq.YaZaX.2#F.1#g.J.8#6a1#5aQ#A.L.e`g`Y.IaI.I#S.I`Y`Y`Y`Y`Y`#`Y`Y`#`#`#`#`#`#`#`#`GaE`v#UaC#E#E.2aX.K.A.KaKaQaQ#3aC.g#n`O`O",
"`O`O`O#2.Y#3aC`P`PaX#f.1.A.Z.8#6#5`c#3#x#R#PaW#4#4#4`Y`G`G`#`##Y`#`G#Y#Y#j#j.#`v.#`L`L`L.m#Vap.t.r`4`4aCaT.A.K.K.YaQ#3#3#E.5ag#n`O`O",
"`O`O`O#2aC#n.Y`DaZaT`4#8.n#6.8#6#5.q#3#xaO#R.X.m.m`v`v`v`v.d.W.W#V.t.t.t.r.q.uaZ.Z`c#M`H#M`J`P.Z`DaK.Y`MaCaC#FaCafaQaqaf`u`H`E#I`O`O",
"`O`O`O#2.3.x#3.x.3.B`4.1.A.Z.q`c#5aCat#n.3#aaC#a.Z`c`J`H`6`J`P.8.8.8#WaG.8aG.u.u.8..`c`c#5`c`c`caX.T.Ta2a2.T.T.T#3#3#3#x#q#qai#D`O`O",
"`O`O`O#2aC#xataB#u#R.1`V.f.n.8.Z`J.c#u.o#x.P.L#R.u.Z.Z#6.Z#6.8.8#W.8.8#W.8.8.....Z#6`c`c`c`c`caZaX.x#n#n#x#3#n#nataBat#ua6a6aF#I`O`O",
"`O`O`O#2#c#uaBaBat`M.1a7.f.u.8`caZat#DaBatat#u#n#a.8.8..#6#6#6...8.8#W#W.8........#6`c`c`c`c.Z.Z`D.Y.L#n#I#nataBaBaBaBataB#u`m#I`O`O",
"`O`O`O#2#caBaB#u#x#8a7#y.A.u.Z`J.3at#DaBaB#u#Datac.8.8.............8.8.8...8..`c.Z`c`c`c#5`c.Z.8aGac#n#IaBaBaB#uaB#3at#uaB#D`m#D`O`O",
"`O`O`O#2#c`W#D#u#Ea7aH`F.n.u.Z`J#xataB#DaBaB#P#u`MaG.8#6#6.....J...8.J.8..#6#6#6`c`c`c`c`c`c`c..aRaXabataBaBaB#u`W`W#u#uaBaB`m#I`O`O",
"`O`O`O#2#c#D#D#u#f#y`F`F#QaG`P.qataBaBaBaBaB`W`W.p.u#W.J.....8.....8#W.8#6..#6#6#6#6#6..aZ#6`c.8auaXab`W#uaBaB#uaBaBaB#u#u#u`m#n`O`O",
"`O`O`O#2#caB#DataCa7a7#g.naG`caO#D#DaBaBaBaB#P#P.p#a.8.8..#W#t#t#W#W.8.J#6.......8#6.......Z`caZ.uaXaa.l`WataBaBaB`W#DaBaBaB`m#I`O`O",
"`O`O`O#2#c#D#D.oaOa7`F#gau..`P.c#DaB#IaBaB#P#D#D.p.n#t.8.8#t.J#t#W#W#W.8......#W.8.8......#6.Z.8.q`ua6.4.laBaBaBaBaBaBaB#u#u`m#D`O`O",
"`O`O`O#2#c#D#D#xaOa7#g#Q#t.8`D#x#D#DaBaB#DaB#D#P.Y#a.u.8.8#t.u#t#t#W#W#Wau.8#W.8.8.8.8#6aZ.q#6#W.q#p`0.4aaaB#D#uaBaBaB`WaBaB`m#I`O`O",
"`O`O`O#2#c#Databa7aH#g.AaG.Z#K#uaBaBaB#D#P#DaB#u#qaT#t.8.8.8.J#W#W.8aG.8`c#5#6...8.........8.8#WaF`7#4aW.3abaBaBaB#PaB#D#DaB`m#n`O`O",
"`O`O`O#2#2#D#D.c#8`V#gaV...Z#x#D#PaBaB#DaB#D#D#D.p.naVaR.8#W#W#W.8.....Z`c`c#6.8.8...8...8.8aGaZ`0`g`x.CaJaC#DaB#D#DaBaB#D#DaA#I`O`O",
"`O`O`O#2#2#I#D#E#8`F`ZaV.ZaTataB#D#D#I#D#I#P#D#P`T#aau#t#W#W.8.8........auaGaG.8.8.......8.8.q#j`b.``f.u#taT#x#DaBat#DaBaBaB`m#I`O`O",
"`O`O`O#2#2#I#n#Ra5`V#g#t.Z#R#x#D#D#D#I#I#I#D#I`T`U`f#a#t#t#W.8..#6#6...8auaR#W.8#6#6..#6.8aG`v`e`b`f#U..aG#aaCat#D#D#D#D#u#D`m#D`O`O",
"`O`O`O#2#c#Iat#R.0.7`F.uaX#n#D#D#D#I#D#D#D#D#n`MaW.4`f`D.u#W#W.8.....Z.8aG.8#W.8.8.8...8.q`va4.``g`P.ZaZaGaX.2.L#D#D#D#D#D#DaA#I`O`O",
"`O`O`O#2#c#Datafaf#EaO.2`M#D#D#D#D#I#P#I#P#I#D`sac`A.4#jaF.8#W.8#6..#6.8.8#6#6..#6#6#6.q`v`x.w`7.m`c.q.ZaG.uaT.p#D#I#I#I#D#IaA#I`O`O",
"`O`O`O#2#2#Iat.Y#fa7#G#a#x#D#n#D#I#I#I#I#D#I#P.2#t`uaW`b`g`v.q.Z.8...8#6.....8...ZaZ.m`g`e.w.`aE.r.Z...8.8au#G`M#n#I#DaB#I#DaA#D`O`O",
"`O`O`O#2#2.L#x#f`V`Fau.B#n#D#I#n#D#I#P#I#n.L#IaJ#t.u.m`0.4#l`g`v.W.r.r...Z.Z`P.q.WaE`b#C#oaj#L.m#6.Z..aZaGauau.3#n#D#I#D#I#DaA#I`O`O",
"`O`O`O#2#2#naf`4ad#g.uaf#n#D#D#D#n#n#I.o#n#n#I#a#t#W...r`fa4.w`b`b`gaE`v`v#jaE`g`7.M#o.w#C#C#4.t.N.....8aGaR#GaJ#x.L#D#I#D#I`m#I`O`O",
"`O`O`O#2#2#n.c#Xad.2aJ#n#n#I#D#I#D#I.L#I.L#n#A#G.n#t.8.8`P`f#laI#o.w.M.M.w#l#l.w.waj.w.w.w.``v`c.Z...8aG.u#W#GaJ.L#n#I#I#D#DaA#I`O`O",
"`O`O`O#2#2#n.0`4ad.faC#n.L#n#I.L.L.L#D.L#I.L`T#G#t#W.8...8`P`f#L#C#o#o.waj#C#C.M.w.Maj#Caj`gaN`P#6#6aZ.8.8auau#G.c#D#I#n#n#IaA#D`O`O",
"`O`O`O#c`yaF#U`P`P`H.taiaFaFaiaiaiaFaFaFaFaF#UaY`6`6.5`6`6ao`E`L.d.#.d.d.d.d.d.#.d.d.d.d.dap`Eao.5.5ao.Q.5`6aY`H#UaFaFaFaFaFaY#I`O`O",
"`O`O`Oa2aB`WaB#uaBaB#uaBaBaB#uaBaB#uaBaBaBaB#uaB#uaB#u#PaBaBaBaBaBaBaBaBaBaB`WaB#uaBaBaBaBaB#uaB`W#D`WaBaB`WaBaBaBaBaBaB`WaBaB`O`O`O",
"`O`O`O`O`O`O`O`O`O`O`O`O`O`O`O`O`O`O`O`O`O`O`O`O`O`O`O`O`O`O`O`O`O`O`O`O`O`O`O`O`O`O`O`O`O`O`O`O`O`O`O`O`O`O`O`O`O`O`O`O`O`O`O`O`O`O",
"`O`O`O`T#q#q#q#q#q#q#q#q#q#q#q#q#q#q#q#q#q#q#q#q#q#q#q#q#q#q#q#q#q#q#q#q#q#q#q#q#q#q#q#q#q#q#q#q#q#q#q#q#q#q#q#q#q#q#q#q#q#q`T`O`O`O",
"`O`O`O`EaDaD#.#.#.#.#.aD`l`l#.aD`l#1.V`J`c.Z.8.u.u#t.n.n.u.8.u.u`D.n.3aOaJa1`c#5#5.q.7.n.u.u.n.n.n.A.faT.f.f.f.u.u.8.8`Q`8`8aY`O`O`O",
"`O`O`O.Q.a#1`l#.`l`l`l`w#s#s#s#san.N`N`q`S.6#k#k`Ca..s###wavava.#e.G#e`I.G#B.j`j#B`Zah#J.H#w.s#e#e#e#e.G.G.G.G.Ha..H`C#J`3`R`y`O`O`O",
"`O`O`O`E`w#1`l`l`l#.`l`w#s#s#s#san`q.J.J`S`S.6.6#k`C#wavav`B`B.sa.a..s`I.G`q`S`j#B`Z#y#z#Oav.s#e#e#e#e.Gahahahalav#w.H`3.h`R`y`O`O`O",
"`O`O`O.Q.V`w`l`l`l`l`l#s#sak#s`l#sak`lay.J.j.6`Z`Z#k`C.s`B`C`Z`Z`Z.s`B`I#e`q`j#B#B.6#kav`3ahav#e#e.G#e#Xahah.Gal#w#w#T.h.ha#`y`O`O`O",
"`O`O`O.Q.V.V`l`l`l#.`l`w`wakak`w.V`laD#..V.J.j.6`Z#k`C.s`B`B`B.s#k.s#X`I#e`q`j#B#B.j`Z#kahaz.G#e#e.G.Gahahah.Gav#w.H`I.h.S`R`y`O`O`O",
"`O`O`O.Q.V`w#1`l`w`l`l#s`wakak#1#1`l#.#.aD.V.J.j#k#ka..s`B#e.s#X.s#e.G`I##`q`j#B`j.j.6#k`C#Jazah.G.G.Gahahahal`B#w.Ha#.S.h.h`y`O`O`O",
"`O`O`O`E.V`w#1#1`l`l`l#s`w#sak.V#1`l#.#.aD#..a.JaV.6#k`Ca..s.s`B`B#X#e#e`Z`q`j`j`j.j.j#k#k#r`3`3.G.G.Gahah.G`Bav.H#T.h.h.h.h`y`O`O`O",
"`O`O`O.Q`w`w`l#1`l`l`l`w#s#s.vakak`w#.`l#.aD#1...N#5`NaV.6`Z`C.s.s.s.s`Z#B#B`j`j`j.j.j.6#ka.#raz`3.G#e.G#e`Bav#w.H`3.h.h.h.h`H`O`O`O",
"`O`O`O.Q#1.V`w`w`l`l`l#s#s`w#sakakak`l`l#.`l`w`c#tan.N.N`q#B`j.j`Z.6.j`Z#B#B`j.j`j.j.j.j#ka.`B.Gaz#J#e#e`B`B.sav#O.S.h.h.h.h`y`O`O`O",
"`O`O`O`E`w`w`w`w`l`l`w#s#s#sakakakakak`w#sakan.N#Q`N.N.N`N#m`q#B.j.j`Z.6#B#B`j`j.j`j`j.j#ka.av#e#O.S#O#ealav.Hah`3.S.h.h.h.h`y`O`O`O",
"`O`O`O.Q.V#1`w`l`l`l`w#s#s#s#s.vakakaka1an`N#m#m#Q`F`N#m`q#B#B`q#B#B`Z.j`j`j`j`j.j`j`j.j`Z`C.s`B#eahazah#e.G#J.S.S.S.ha#`ka3`y`O`O`O",
"`O`O`O`E`l`w`w`w`l#1`w.vak#s.v.van.va1.N#maV`S#Q`S#e.A`q`q`j.j.j.j.6.j#B`j`j`j`j`j`j`q`j#k`Ca.`B`B`Bah#Oaz.S.S.S.S.h.ha3`k.h.i`O`O`O",
"`O`O`O.Q`w.V#s`l`w`w#1an#s#sak.v.v.v.v.N.J.6.6.6`Sal.G#B#B`j.j`j.j`C.j#B`j.j.j.j`j`j`q`j.6`Ca.`B`Bav#ras`r`r.S.S`ra#.S.S.X.h.i`O`O`O",
"`O`O`O`E.V`w#s`w`l#1aka1.v.v#s.van.va1.N.J`S.6`Z.6`C#O`V`j`j`j.j.6`Z`j`j.j.j.j`j`j`q#m`j.6#ka.`B`B#e`B.G`r.S`r`r.S.X.h.Saea#`y`O`O`O",
"`O`O`O`E.a.V`w`w`w`w`wa1.v`Xak.van.v#sak.N`S.6.6.6#Q#e#O.6.j.j.6#k.j#B`j.j.j.j.j.j`j#m`j.6#k`C#wav`Bal.R.S.S.S.S.haU.Sa3.X`R`y`O`O`O",
"`O`O`O.Q#5akak#1ak`w`wanan.v`X#san.vakak.N.J`S.6.6#Q`C`Ia`.j.6#k#k.j`j`j.j.j.j.j`j`j#m#B.6#ka.avavav#eal`3.S`r`ra#.h.S.h.Xa#.i`O`O`O",
"`O`O`O.Q`J.Vak`wak`w`wa1.v.v`X#sananan`N#m#BaV.j.6.j`Ca`#J.6`Za.#k.6.j.j.j.j`j.j`j`j#m`q.j#k#ka.av.s`B#Ta#.S.S.S.S.S.S.oaU`R.i`O`O`O",
"`O`O`O.Q`J`c.Vakak`w`wak.v`X`X`Xanan.N`N.J`S.j.6.6.6`Ca.as.R`C#k`Z`Z#k`Z.6.j`j`j`j`q#m`q.j.6#ka.a.`B`B#ea#.S`r`r`r`r.Sae`Ra#`y`O`O`O",
"`O`O`O.Q.Z#Gak.Vak`w`w`X`X`X`X`Xananan`N`q`S`j.j.j`S.6a.a`#O#k.6`Z#k#k#k`Z#k.j.j`j`q`q`q.j.6#k`Ca.av`Bav`3.S`r`r`r.S.h`t.h#z.i`O`O`O",
"`O`O`O.Q.u`c#5aka1`w`w#s#s`X`X`X`Xananan..#B`j`S`S`S#Q.Ha.#Oav.j#k`C#k#k#k#k`Z.j`j`j`q`q#B.j`Z`Ca.avavalaz.S.S.S.S`raU.X.h#OaY`O`O`O",
"`O`O`O.Q.Z`ca1ak.V`w`l#s#s`X#s`X`Xananan`N.J`j#B`q`q`S#k#kavah.j`Z#k#ka.#k`C#k`Z.j`j`j`q`q`j`Z#k`Ca.ava`az.S`r`r.S`r.X#v`Ra`.Q`O`O`O",
"`O`O`OaY`D.Zayak.v`w`w#s#s`X`X#s.vakanan.N#m`q#m`N`N#B.1`F#Q#eav.j`Z#k`C#k`Ca.#k`Z.j`j`q`q`j.j`Z#k`Ca.al.S.S.S.S.S.h`8#A#O.6.Q`O`O`O",
"`O`O`O.i`MaX.aa1ak`w#1`w#s`X#s#s`X`w.Nan.N.N#m`q#m#t.1#N#N.U.H#T.j.j`Z`Z#ka.#k#k#k`Z.j`j`q#B`S.6`Z#k`C.y.h.h.S.S.SaUaUae.n#B.Q`O`O`O",
"`O`O`OaY.q#5a1.V`w`w`l#s#s#s`X#s#s`w`w`N`N#m#B`S.jaV#f.L#u.D#haU#k.j.j.6#k#ka.a.#k#k.6.j#B`q`q.j.6#k#y#J.S.h.S.ha#`t`I#gaV#B.Q`O`O`O",
"`O`O`O.Q#5aka1ak#s`w`l`w#s#s#s#s#s`l#s.N`q`j.6.6.6#Q.0.c.L#u.T.T.U`S`j.j`Z#k#ka.a.#k#k`Z.j`j`q`q`S.6.H#z.h.h.h#v.y#T`Z`S#B#BaY`O`O`O",
"`O`O`O.Q.f#ta1.V`w`l`w`l#s#s#s#s#s`w`X.N#B`j.j.6.6`S#f.p.p.L#u.T.T#e`j.j.6#k#ka.a..sa.`C#k.6`j.J`N#gam#AaU.oaU`M`s#GaVaVaVaV.Q`O`O`O",
"`O`O`O.iaT.Za1.a#1`w`w`w#s`w#s#s`w`wan`N.J.j.j.6.6`Z#R.p.Y.p.L#h.T#haV`j.j.6`Z#ka.a.a.a.a.`C#k`S.u`Q`Q`m.o#h.TaqaQ#3.x.xafat`y`O`O`O",
"`O`O`OaY#Rau.a#1#1.V#1`w`w`w#s#s`w#san.N#B`S.6.6.j#gaKab#R.Yaf#P.T.T#AaV.j.6#k#k#ka.a.a.a.a.#k.0`R`3#A`8.oa2a2.T`5`5aq`5`W.P.i`O`O`O",
"`O`O`O.W`H.Q`E`E`E.Q`E`E`E`E.Q`E`E`E.Q.QaYaYaYaYaY.Q.i.i.i.i.i`y`y`y`y.QaYaYaYaY`6`H`HaYaY`HaY.i`y.i.i.i`y`yap`y`y`y`y`y`y`y#U`O`O`O",
"`O`O`O`O`O`O`O`O`O`O`O`O`O`O`O`O`O`O`O`O`O`O`O`O`O`O`O`O`O`O`O`O`O`O`O`O`O`O`O`O`O`O`O`O`O`O`O`O`O`O`O`O`O`O`O`O`O`O`O`O`O`O`O`O`O`O",
"`O`O`O`O`O`O`O`O`O`O`O`O`O`O`O`O`O`O`O`O`O`O`O`O`O`O`O`O`O`O`O`O`O`O`O`O`O`O`O`O`O`O`O`O`O`O`O`O`O`O`O`O`O`O`O`O`O`O`O`O`O`O`O`O`O`O",
"`O`O`O`O`O`O`O`O`O`O`O`O`O`O`O`O`O`O`O`O`O`O`O`O`O`O`O`O`O`O`O`O`O`O`O`O`O`O`O`O`O`O`O`O`O`O`O`O`O`O`O`O`O`O`O`O`O`O`O`O`O`O`O`O`O`O"
};
