/* XPM */
static char *_6_frame_4[] = {
/* width height num_colors chars_per_pixel */
"    66   100      256            2",
/* colors */
"`` c #140e14",
"`. c #43c47a",
"`# c #428c4b",
"`a c #253a36",
"`b c #6ec689",
"`c c #6e3d2b",
"`d c #cac646",
"`e c #609068",
"`f c #8ace9a",
"`g c #6e7256",
"`h c #73b885",
"`i c #8ad69a",
"`j c #9a8636",
"`k c #9f5123",
"`l c #591a05",
"`m c #73665c",
"`n c #aca242",
"`o c #8ae9cd",
"`p c #a9845e",
"`q c #9db892",
"`r c #8e7040",
"`s c #362f2b",
"`t c #92e6c6",
"`u c #964b1e",
"`v c #403d29",
"`w c #715c4e",
"`x c #360f04",
"`y c #51693b",
"`z c #bfb645",
"`A c #c2b67a",
"`B c #af9d5c",
"`C c #b47142",
"`D c #92eede",
"`E c #6f4d39",
"`F c #b98457",
"`G c #b4a84d",
"`H c #439a5a",
"`I c #8ac28a",
"`J c #382822",
"`K c #4d5731",
"`L c #d6dbe2",
"`M c #b4b6b5",
"`N c #86cad6",
"`O c #583425",
"`P c #a35a2b",
"`Q c #fefefe",
"`R c #98c2aa",
"`S c #b9928a",
"`T c #d3b899",
"`U c #77ac95",
"`V c #846441",
"`W c #74d192",
"`X c #431304",
"`Y c #927252",
"`Z c #baa58a",
"`0 c #271818",
"`1 c #9a8479",
"`2 c #4e4231",
"`3 c #b68b3f",
"`4 c #8b512d",
"`5 c #3fa760",
"`6 c #af9c85",
"`7 c #64deb9",
"`8 c #a07057",
".` c #dedcda",
".. c #6fa571",
".# c #8b421a",
".a c #d3c486",
".b c #365a44",
".c c #71290b",
".d c #5d5044",
".e c #c8b898",
".f c #accdd1",
".g c #9f785c",
".h c #61ca7d",
".i c #9e6a4b",
".j c #7cdaa0",
".k c #aea468",
".l c #975528",
".m c #d5aa87",
".n c #aacaa2",
".o c #351611",
".p c #dbd8d6",
".q c #8c6648",
".r c #5a2916",
".s c #794b36",
".t c #66826c",
".u c #ae963a",
".v c #bd9053",
".w c #caced3",
".x c #7c5c4c",
".y c #9e8c73",
".z c #513229",
".A c #3cb069",
".B c #d5cdbe",
".C c #412015",
".D c #583d2f",
".E c #c69d74",
".F c #b77647",
".G c #7d5642",
".H c #ededee",
".I c #281e1f",
".J c #e1da96",
".K c #2a3f3b",
".L c #ac8571",
".M c #c1b28e",
".N c #7e3e17",
".O c #783515",
".P c #7bbdc5",
".Q c #935d57",
".R c #7b9e88",
".S c #b0c4bc",
".T c #926860",
".U c #b58576",
".V c #4d281c",
".W c #e2e292",
".X c #b9a9a2",
".Y c #76777b",
".Z c #d8dad2",
".0 c #91ab7f",
".1 c #988c81",
".2 c #57ce8a",
".3 c #caa570",
".4 c #a35e2f",
".5 c #6ac692",
".6 c #bb9b5d",
".7 c #d8ce8d",
".8 c #521a05",
"#` c #eacfca",
"#. c #c38c65",
"## c #e6e29a",
"#a c #a97a56",
"#b c #d2c4a6",
"#c c #6fddaa",
"#d c #5c4648",
"#e c #4a3227",
"#f c #682107",
"#g c #6a8a7a",
"#h c #aa9278",
"#i c #6d4433",
"#j c #d0cfb4",
"#k c #895448",
"#l c #b58d52",
"#m c #d2bcb7",
"#n c #7d523d",
"#o c #ded9cd",
"#p c #c8bbb3",
"#q c #895c44",
"#r c #c8a88f",
"#s c #b37e6b",
"#t c #9f6a5e",
"#u c #703415",
"#v c #8eb9bd",
"#w c #50b66f",
"#x c #bdb4aa",
"#y c #945d4d",
"#z c #92776b",
"#A c #9ba6a6",
"#B c #c8c292",
"#C c #66280d",
"#D c #5f6763",
"#E c #aa713c",
"#F c #cbb271",
"#G c #789a8c",
"#H c #604734",
"#I c #c19c90",
"#J c #270c08",
"#K c #c2c2b9",
"#L c #b8856c",
"#M c #6d534f",
"#N c #4e1a06",
"#O c #bebcb7",
"#P c #867670",
"#Q c #dfe4e8",
"#R c #42584a",
"#S c #969593",
"#T c #976337",
"#U c #2c4a44",
"#V c #a4b2ae",
"#W c #443235",
"#X c #547c4c",
"#Y c #a37e41",
"#Z c #62d7a4",
"#0 c #3dbb75",
"#1 c #7b4530",
"#2 c #9e7b70",
"#3 c #46281d",
"#4 c #7a8c60",
"#5 c #7fe2cf",
"#6 c #d5ccac",
"#7 c #aa9683",
"#8 c #af6434",
"a` c #4dc97a",
"a. c #ba7c4c",
"a# c #7ea3a7",
"aa c #c79464",
"ab c #a87965",
"ac c #a89258",
"ad c #ca9b67",
"ae c #6fe3ca",
"af c #c88e57",
"ag c #2b2623",
"ah c #868686",
"ai c #d4c4bc",
"aj c #622107",
"ak c #754530",
"al c #36211b",
"am c #c6aaa2",
"an c #84705e",
"ao c #633e2d",
"ap c #ae898b",
"aq c #826657",
"ar c #a7aaaa",
"as c #d3b97b",
"at c #393633",
"au c #471a08",
"av c #6eb6b6",
"aw c #42502a",
"ax c #dba775",
"ay c #a17165",
"az c #501f09",
"aA c #a66436",
"aB c #7f4d37",
"aC c #ac8e62",
"aD c #885d57",
"aE c #b49070",
"aF c #ac8e7a",
"aG c #d6c47e",
"aH c #7ec3c5",
"aI c #4c464b",
"aJ c #ab6a3c",
"aK c #b4bec0",
"aL c #957e61",
"aM c #254640",
"aN c #8ac4be",
"aO c #c1ae91",
"aP c #d8d0cd",
"aQ c #b8a774",
"aR c #96654c",
"aS c #c3c3c1",
"aT c #5c5954",
"aU c #5a886a",
"aV c #975e39",
"aW c #86929f",
"aX c #c28453",
"aY c #e4d08e",
"aZ c #633421",
"a0 c #433f42",
"a1 c #592008",
"a2 c #ae9d9a",
"a3 c #c6965a",
"a4 c #9d8560",
"a5 c #a25626",
"a6 c #393b35",
"a7 c #aa7e67",
"a8 c #000000",
/* pixels */
"`Q`Q`Q`Q`Q`Q`Q`Q`Q`Q`Q`Q`Q`Q`Q`Q`Q`Q`Q`Q`Q`Q`Q`Q`Q`Q`Q`Q`Q`Q`Q`Q`Q`Q`Q`Q`Q`Q`Q`Q`Q`Q`Q`Q`Q`Q`Q`Q`Q`Q`Q`Q`Q`Q`Q`Q`Q`Q`Q`Q`Q`Q`Q`Q`Q`Q",
"`Q`Q`Q`Q`Q`Q`Q`Q`Q`Q`Q`Q`Q`Q`Q`Q`Q`Q`Q`Q`Q`Q`Q`Q`Q`Q`Q`Q`Q`Q`Q`Q`Q`Q`Q`Q`Q`Q`Q`Q`Q`Q`Q`Q`Q`Q`Q`Q`Q`Q`Q`Q`Q`Q`Q`Q`Q`Q`Q`Q`Q`Q`Q`Q`Q`Q",
"`Q`Q`Q`Q`Q`Q`Q`Q`Q`Q`Q`Q`Q`Q`Q`Q`Q`Q`Q`Q`Q`Q`Q`Q`Q`Q`Q`Q`Q`Q`Q`Q`Q`Q`Q`Q`Q`Q`Q`Q`Q`Q`Q`Q`Q`Q`Q`Q`Q`Q`Q`Q`Q`Q`Q`Q`Q`Q`Q`Q`Q`Q`Q`Q`Q`Q",
"`Q`Q`Q.wahahahahahahahahahahahahahahahahahahahahahahahahahahahahahahahahahahahahahahahahahahahahahahahahahahahahahahahahahah.1#Q`Q`Q",
"`Q`Q`Qah`0#WaTa2`w#d``.d`Mar`Mar#A.Y.Y#P`m#d`m#eaoaqaq.x.G`w.x.G.G#M.x#M`E.D#M`2.D`v`E`gahah`0```0.Iata0.darahahahahahahahahaw`M`Q`Q",
"`Q`Q`Qahaga0.YaPaq#ial`m.``L.w`Lara0#S`6aC#P`6`E.xay.T#d#iaD`8`Y`8.T`E.Dao`Ea4.x`w#Maq#h#p#S`sagagaga0#d#D.H`L`L.w.w.w`L`L#Q.Y#O`Q`Q",
"`Q`Q`Qah````.Y#p#zaDaD#x.`#Q.H.H#VaI#S`6#h.y`6ao.xaB.Val#3ao#kaR.T`E.Cal.C#d#h`w.x.x`r.y`m#W`0`0`0.I#d#daT#Qar#V#V#V#A#VaraK.Y`M`Q`Q",
"`Q`Q`Qah```0#Aai`Sapan.J.7#K.w#Q#Vaw#7`6ac`6`Z.z#n.T`E#3.z.D#q.gay.s`O.V`O`V`6`m`Vaq#z.y#M`sal.Ial#3#W#d`m.H`L`L`L`L`L`L.w`L.Y#O`Q`Q",
"`Q`Q`Qah``.1#6.X#h#7`Z.a.W##aS`La2aIa2`Z.y.k`Z#e#i`Yay.TaD.Tab.U.Lay.TaqaD`1`6`maq#zaL#h`walal`J`s`J.I`J`m#Q.w.waSaS.S.w.w`L.YaK`Q`Q",
"`Q`Q`Q.Y`0#6`6`B`B`B`B#B#B.W#Q#Q#Aaw.X`Z.y.M.X#W.C#t#s.U.U#s.U`Sap#2.U.U.g`SaQaqaqaLaL#7`w`J.I`0.I.o#W`JaI#P`M#V#V#V#V#V#V.w.Y`M`Q`Q",
"`Q`Q`Qaha6`Z.y`G`z`z`z`BaQ.J#o.H#S`m#OaO#7.e.k`2`0.Tay#sab#t.U#I#.ayaDay`8#r.X#Pan#za4a2`m`Jal.o.I.C.d`0#3#d.w#Q.H#Q#Q#Q.H`L#D#O`Q`Q",
"`Q`Q`QahaT.y`j.u`z`z`n`jac`6#p.p#A#S#paO`Z.ea2#M#JaB#y.Q#k.s.U#I`Sab.s#1.G#raO.yaLaL#Sa2aq#d`O`O#M#d#d#d#W.D.Y#Var#Aar#V#V`L.Y`M`Q`Q",
"`Q`Q`Qah`w#2#h`n`z`z`z`z`j`1a2.`.X`M#b.M.X.M`Z`w.o`OaB#u`c#k.Q.Q.QaDaD`c#n`Z.k#7.yaL`6a2#P#Wal.C.C.V`J#W#Walan`MaKaK`M#V.w#Q.YaK`Q`Q",
"`Q`Q`Qah`E.xac`G`z`d`z`naCaEa2.H.w#pai.eaQ#F`Z`m#3.oaBaB`c`c#k.QaD.saZ`caq#r.1.k.y.1`Z#S#z.d.z#Y.q.G.C`0`0`saT#Q#Q#Q#Q#Q#Q`L.Y`M`Q`Q",
"`Q`Q`Qah.T`SaL`j`z`d`d`zaLa7#7ai`L.w#K.e`Z#IaQ#z`O#J.zaB.Q#k#k.Q.Q#n#k`Eaoa2#P`6.y.yaQa2`m.d#d.u.u.i.o`0`0agaIar#A#A#A`M#Q.H.Y#O`Q`Q",
"`Q`Q`Qah.x#z.T#da6#P`y`v#M.T#z.B.Z#j#m.e`6`B#ha4#H.o`xaoaB#k#k#kaBaB.G#H.o#7an#7.y.y`Za2an.d`E.6`3#H`0``.Ial.Y.w`L.w`L`L#Q#Q.Y`M`Q`Q",
"`Q`Q`Qah#daD`w.x.I`````J#M.T#2.w.Z#j#O`T`BaCaLaC.Gau.o.Cak.Q.Q#k.Q.Q#nal`0#7ana4aL.yaQ.Xahaq#H`3#Y`O`0`0al#Wai.`#Q#Q#Q`L.H.H.YaK`Q`Q",
"`Q`Q`Qah#MaqaqaTag`````J.x.T`1.p#jai#B#baE`p`YaCan#3.o.C.rak.Q.QaR#k.z.o`0#h#za4`ra4`Z#b#b.eaQ.3.3aF.Ta0alah.w.S#V#AaK#Q#Q`La0`M`Q`Q",
"`Q`Q`Qah.Y`m.x`v.I.Iagat`wan.X#o.p#b.e.e.k`p`r`8a7`O.C.Caz.raZ#uaZ`O.C.C`2.y`1aq`VaLaQ#b#BaO#I`S#I`Z#ram`S.p.``L#QaS#A.S.w.t.I`M`Q`Q",
"`Q`Q`Qahah`w`w.XaSaS.w`M#h#p#b.B#6#K#BaO#ra4.q.G#z#i.V.V.V.r.r.r.r.r.C.C`Y#Man`w`Va4aO#b#m#7a4aCap`S#I#Iamamai.``L.waKaKaWaK.Y`M`Q`Q",
"`Q`Q`Qah`m#Wan.Iagaga0#Pai`T.eaP#6#b.e#6aQ`j.G#i`r#iao.r.raZaZaZ`caZaz.z`E`Oao`E`VaL.M#b#b#h`8ab#aab#L#.`S#I#I#m#Q.H.H`LaK.Y`a`M`Q`Q",
"`Q`Q`Qaha0alaq#M#dat#da2`Tam#FaP`T#B#B#b`6`r.x#i`E#n.s#i#i`c`cak`c`c`c`caZaB.D.D.xaLaO#6#B`Z.gab`8ayabab#s.U`S#Iam#SaT`0```````M`Q`Q",
"`Q`Q`Qah`s#d#2aD#d`w`1am#Ia2`T#b#m#6#6#maL`r.xak.G#q.Q#k.QaB#k#1aB#k.Q.QaD#t`Eao.xa4aO#6`T`Ta7ay`8.iaR#t`8ab#L#.#I#I`w.I`0#J```M`Q`Q",
"`Q`Q`Qah`wap#I#2`1apaF`Sap#r`T.eaG#b.7.kaL.qaoao#k#k.Q.Q.Q.T.QaR.Q.Q.T`8aRab.G`E`VaL#F#m.e`T.E`8#T#y#y#q.i`8#a#L`S#Iama2`Sam.d#O`Q`Q",
"`Q`Q`Qaha2aP#`#`#`#``Z`p.gaE`T#F`Tas`ZaLa4`Y.s.G#q.Q#tay#t#t#t.T#t#tay.g.ga7`Y#q.G.q.e`T.e.6`S#z#n#1#1#1.l.i.iab#L`S#Iam`T#m`m#O`Q`Q",
"`Q`Q`Qahah#maS#p#m#Oapab`Ya7`T#FaO.6`Y`VaC`Y#n#q.q.T.T#t#tay#t#tayayayayayab.g.g`Y`V.3.M.m`Ba4.i#i.r#uakaB`4#T.i#E#s.U#.#I#r`w`M`Q`Q",
"`Q`Q`Qah.Yar#V#V#V#V`1`8.i.q`Z.m#raC`r`raC`Y#q.T`8#t`8ay`8ay`8`8.g.g.g#2aba7a7ab.g`VaFaO`Z.E#z.G.r.V.zaoak#1aB#k#qaRayab.U`S`EaK`Q`Q",
"`Q`Q`QahaW.w.f.f.f.S`1`8aR`r`p.3aQ`j`Va4aE.q.iabababababayababababababa7a7.L.L.La7.q#7.6acaC#q`E.Cau.CazaZ`c`E.s#k#q#y.i#tay#d`M`Q`Q",
"`Q`Q`Qah.t#v#v#V#v#A#z.iaR`YaC.3.6`r.qac.6.q.gaba7a7.L.Lab.L#sa7a7a7.La7.L.L.L.L`p#Y`S.6#h`p#q#Hal.o`0al.VaZao`E.s.G`4#q#TaA`O#O`Q`Q",
"`Q`Q`Qah.t#v#v#v#v.0#PaV.iaba7`Z#l`p`Y`S.6`8ab#a#sa7#s.U.L.L.L.La7.L.L.Laba7a7.La7a4`p.6`3.g#q.Dag`s`s.I`J.VaoaZ`E`E`4#k#q.q`O`M`Q`Q",
"`Q`Q`Qah.ta##D#AaW.Y#PaVaR.q#a.6#l`Y`r`BaC.g#a#s#sa7#a.U.L.L.L.La7.L.L.Lababa7a7aba7.gaCaL`Y`V.D`y`U#G`y`s#eaZ`cak.s#n`4`4#q#e`M`Q`Q",
"`Q`Q`QahaU#Ra0#W#W#WaR#yaV#k.qaaac#Y.qaC`pa7#sa7a7#s#sa7#s.L.L`1#2abababa7`p`p.L`pa7`p#Y.q`r.x.da#avavav#Gaw`v.D#i.s.s#n#n`4.V`M`Q`Q",
"`Q`Q`Qar`a`sat`s`s`satatatata6a6a6a6atatatatat#Wata6ata6atatata6a6a6atatatatatata6ata6a6`satatat`aa6`aa6.Katat`s`sat`satatatataP`Q`Q",
"`Q`Q`Q`Q`Q`Q`Q`Q`Q`Q`Q`Q`Q`Q`Q`Q`Q`Q`Q`Q`Q`Q`Q`Q`Q`Q`Q`Q`Q`Q`Q`Q`Q`Q`Q`Q`Q`Q`Q`Q`Q`Q`Q`Q`Q`Q`Q`Q`Q`Q`Q`Q`Q`Q`Q`Q`Q`Q`Q`Q`Q`Q`Q`Q`Q`Q",
"`Q`Q`Q`Q`Q`Q`Q`Q`Q`Q`Q`Q`Q`Q`Q`Q`Q`Q`Q`Q`Q`Q`Q`Q`Q`Q`Q`Q`Q`Q`Q`Q`Q`Q`Q`Q`Q`Q`Q`Q`Q`Q`Q`Q`Q`Q`Q`Q`Q`Q`Q`Q`Q`Q`Q`Q`Q`Q`Q`Q`Q`Q`Q`Q`Q`Q",
"`Q`Q`Q`Q.H.H.H.H.H.H.H.H.H.H.H.H.H.H.H.H.H.H.H.H.H.H.H.H.H.H.H.H.H.H.H.H.H.H.H.H.H.H.H.H.H.H.H.H.H.H.H.H.H.H.H.H.H.H.H.H.H.H.H`Q`Q`Q",
"`Q`Q`Qah`s`s`J.I`0al`Jal`J`0#W`sag`s.K#U#U#U#UaM#U#U#UaMaMaM#U#U#U#U#U#U#U#U#U#U#U#U#U#U#UaMaM`a.I`0``.I.I.KaM.K.K.K.K.K.K.K.I#K`Q`Q",
"`Q`Q`Qah`1`Sayay#k.i.i.iaV`E.qaL.u..`f`t`D`D`oaeaeaeaeaeaeaeaeaeaeaeaeaeaeaeaeae`oae`o#5.j.j`W`b#A#iaBapan`UaHaH.PaN.PaHaHaH#D`M`Q`Q",
"`Q`Q`Qahaq#s.T.Q#t#t.iaR`4#i.D#e#4`h`f`o`D`oaeae`7aeaeaeae`7ae`7aeaeae`7aeaeaeaeaeaeaeae#c#Z`W`h.1aDab#i#Ma#aH.P.PaHaHaHaH.P#D`M`Q`Q",
"`Q`Q`Qahaqabay.Q#t.i.i.q`4`c#3al#X`f.j#5`o`oae`7`7`7`7`7`7`7`7`7`7`7`7#Z#Z`7#Z#Z`7#Z#c#Z#Z`W.h.P`m#Map.T.TaW.PaHaH`N.P.P`Ra##d`M`Q`Q",
"`Q`Q`Qahanapay#t#t`8`8#T#naZ#3`J#g`f.j.j#c#c`7#Z.2.2.2.2.2.2.2a`.2a`.2.2a`a`.2.2.2.2.2.2a`.2.5`hahap#I`Sap#S`NaHaHaH#v#vaKaha0`M`Q`Q",
"`Q`Q`Qah#z#I`Sap.UaR.i#T.saZ#3al`q`f.j`W#Z#Z.2a`a`a`a`a`.2`.a`a`a`a`a`a`a`a`a``.`.a`a``.`.a`#w`haham`S#2ap#A#vaH`N`R.S.waS#x#M`M`Q`Q",
"`Q`Q`Qah#z#I#I`S#saRaR#qak`O#3.D`A`f.h.h.ha`a``.`.`.`.a``.`.a``.`.a``.a``.`.a``.`.#0`.#w`.a`#wavar#`#ma7#P#V.P.P#vaKaP#xamam#M`M`Q`Q",
"`Q`Q`Qah.T#r#I`Sab.i#T.lakaZ#3#z`A`q.h.ha`a`#0`.`.`.`.`.`.`.`.`.`.`.`.`.`.`.`.`.#0`.#w#0.A#w#w#v`Mai`S.T#d#S#A#V#VaP#xap#r#r#M#O`Q`Q",
"`Q`Q`Qah#Map#IapabaRaV#nakaZ`O.M.X.n`h.h`.a`#0#0`.`.`.`.`.#0#0`.#0`.#0#0#0#0#0#0#0.A#0.A`5..#G#A#m.X.zao#i.TaparaSaSam#2#Iam#M`M`Q`Q",
"`Q`Q`Qah.z.T.L.L#a#T`4.sak#Cao#`aQaG`h#w#w#w#0#0#0#0#0#0#0#0.A#0.A.A.A.A.A.A`5`5`5`5`5`5`H`yah#I#IaD.zao.Tayap#m#`#`am#n`S#I#M`M`Q`Q",
"`Q`Q`Qah#W#M.Q.L`p#q#1#1.N.r`E#m`ZaO`q..`5`5#w.A.A`5`5`H`5`5`H`5`5`5`H`#`H`#`#`#`#`#`#`yaw#HaF`Sap.TaDay#t#2am#`#mam`E`Oa7`S#MaK`Q`Q",
"`Q`Q`Qah#3.D.GaE#a#q#i.s#iaZ`E#m.Xa4aG.0`e`e`H`H`#`#`#`#`#`#.b#X.b.b.b.baw#U`v.K.K`v#e`vao#Mapap#P.T.T#t#tam.B#p#paq.I.D.Tap.d`M`Q`Q",
"`Q`Q`Qah#d#M.TaFab#q#i.s`caZ`Y#m#xaqa4`6`K`2aw`K#U#U`a`aa6aw.d.d.d.G.s.s`E`E#i.D`O`O`Oao#iaq`Tam.X.Xa2#I#Iam#mai.Xan.d#D#z#I`w`M`Q`Q",
"`Q`Q`Qahah.1`1#L.g#q.s.s#i`O#h#paO.1aL#z`Vak`c.D`O`Oaoak.s.s.s.s.s.s`E#n.sakak`caoaoao`caoaq#Q.`.`.`.`.paP#m#p#p.X.Y#S#x#m#m`w#O`Q`Q",
"`Q`Q`Qah.1#m.y#a.g.q.G`Eao.D#m#O#O#pai#O#7#M.sakak.N#iak.s.s.s.s.saBak.sakak#i`cao`cao#i#i#M.X#x.X#x#x`MaSaSaSaSaS#K`M#x#p#m`w`M`Q`Q",
"`Q`Q`QahaW.Ma4#a.g`V#n#i.D.x#p#KaSaSaS#K#p`E.s.s.sakak#1#1#1.s.saB.s.sak#i`c`c`caZaoao#iak#M.1`M`M`M#OaS#OaSaS#paS#K#OaSaSaS#D`M`Q`Q",
"`Q`Q`Qah.1a2.g`8`8#q#nao.D#7aS#O#OaS#K#O#Kaq.sak#1.Nak#1.s.s.s.s.sakak.N#i#i`cao`caZao#iak#n.T#x`MaSaSaSaS#paSaSaSaSaS#paSaS`m#O`Q`Q",
"`Q`Q`Qah.1aF.g`8.i`V`E#i#d#p#OaS#KaSaSaSaSaL#n.sakakak.s#1#1.saB.s#1akak`c`c`c`c`c`c`c`c#1#M.x.XaSaSaSaSaSaSaSai#KaSaSaSaSaS#D`M`Q`Q",
"`Q`Q`Qah.1#2`8`8.i#q`EaoaqaSaS#O#KaS.w.SaS#h#M#n.sak#1.s.s.s.s.s.s.Nakak`c#iak#iak#i`c#i.s#n.x.XaSaS#paSaSaSaSaSaSaSaSaSaSaS`maK`Q`Q",
"`Q`Q`Qahah`Y.g.iaR.Gakao#7#O#O#O#K#O#O#KaK.y.x.s#1.s#n`4`4aBaBaB#1ak#1#1.s#1ak#1.sak#i`c`E#M#M.0.faSaS#paSaSaS#KaSaiaS.waSaS#D`M`Q`Q",
"`Q`Q`Qah#P#z.g.i#T.Gak#HaO#O#K`MaS#K#OaK#K.y.x#n.s.s#n#n#n`4.s.s.sak.saBaB.s.sakakak`E#iak#M`g.R`IaK.SaSaSaS#KaSaSaS#KaS#p#O`maK`Q`Q",
"`Q`Q`Qahan`8`8.i.qaB#ian#p#O#OaS#K#K#K#K#K`1.x.G.s.saB#n#n#naB#n.s#nak.s.s.sak#1akak#iakaB`Ea#aU`R.1#K#KaS#K#K#KaS#KaS#KaS#O`m`M`Q`Q",
"`Q`Q`Qah`g.g`8aR#q.s#ia2#K#K#K#K#O#O#K#O#K`1`V#naB.saBaBaBaB.s.sao#iaZ`c#1.s.sakak.s.s`E.s`g`h...Ran`Z#O#K#K#O#K#O#O#O#O#K#O#D`M`Q`Q",
"`Q`Q`Qah`m.g`8.i#kak#M#O#O.S#K#O#O.S#O#OaK.y.x`4aBaB.s.s.s.sakak#i#i`c.s`E.sakak`E.s.s.saT`h#w`U`maDaL#O#O#K#K#O#K#KaSaS#OaS`m#O`Q`Q",
"`Q`Q`Qah`w#a`8#T.Gak#2#O#O#O#O`M`M#O#O#O`M`q`m#q#naBaB.sakakakak.s.GaB.s.sakak#1ak`E#naT..`b`UaTaB#naq.X#O#O#O#O#O#paSaS#p#O#D`M`Q`Q",
"`Q`Q`Qah`w.L#a#T#n`E.X#x#O#O#O#O`M#O#O.e.R.n.t`w.G`4aB.s.sakakak.saBaBaB.sakakak.s`E`EaU.j`h`K#i`E`E.x`1#p#O#O#O#KaS#p#O#O#x`m`M`Q`Q",
"`Q`Q`Qahan`Z`S.g.Gan#O#O#O#O`M#OaK#O#O#x#z.0`I#X`w#naB.s.sakakak.s#M.s.s.s.sak#1.s.d`e`b`b#X`c#i`E`E.xan.XaK#O#O`M#O#O#O#O`M`m`M`Q`Q",
"`Q`Q`Qahaqapa4.qan`Z#O#x#x`M`A#O`q#OaK`M.q`V.0`I`e`K`E#nak#1#1#1.s#1ak#1akak#1#H`K..`b#w..aI`c`Eak`E#naqa2#xaK`M#OaK#O#O#O#x#D`M`Q`Q",
"`Q`Q`QaW#W.D#e`J`JaTaTaTaTaTaTaTaTaTaT`K#W#3`s.b.bawagagalalalalal.Calalalalalag.b.b.b.b.Kagal`Jalal#3`saIaTaTaTaTaTaTaTaTaT`s#O`Q`Q",
"`Q`Q`Q.HaSaSaSaSaSaSaSaSaSaS#KaS#K#K.waS#K#O#jaSaS#K#KaS#K#KaSaSaSaSaSaSaSaS#KaSaS.waS#KaS#K#KaSaSaSaSaSaSaSaSaSaSaSaSaSaSaS.w.H`Q`Q",
"`Q`Q`Q`Q`Q`Q`Q`Q`Q`Q`Q`Q`Q`Q`Q`Q`Q`Q`Q`Q`Q`Q`Q`Q`Q`Q`Q`Q`Q`Q`Q`Q`Q`Q`Q`Q`Q`Q`Q`Q`Q`Q`Q`Q`Q`Q`Q`Q`Q`Q`Q`Q`Q`Q`Q`Q`Q`Q`Q`Q`Q`Q`Q`Q`Q`Q",
"`Q`Q`Qar#S#S#S#S#S#S#S#S#SaW#S#S#S#S#S#S#S#S#S#S#S#S#S#S#S#S#S#S#S#S#S#SaW#S#S#S#S#S#S#S#S#S#S#S#S#S#S#S#S#S#S#S#SaW#S#S#S#Sar`Q`Q`Q",
"`Q`Q`Qag#3#J#J#J#J#J#J`x`x`x`x.oaz.VaZ#iak.s#n.G.G`V#q#q`V.qaq.z`E`Van.gao.r.C#N#C`c#i.s#n#n#q#q`V.q`V`V`V.q`r`V`V#q#q.GaB.sag`Q`Q`Q",
"`Q`Q`Qag.r`X`x`x`x`x`X#N#Naz`X#C.c.N.laA#E.F.Fa.aXa.`Fa.`F.E.m.U#..E.m`T`F#1`u.c.#a5#8`C.F.Fa.aXafadadadadadadaf`FaX`Fa.aAaV`s`Q`Q`Q",
"`Q`Q`Qag.V`x`x`x`x`X`X#Na1az`X.r.c.N`u.4aJ`C`C`C`CaAaVaV#E`F.3.m.m.3.3.max.N`u.#.N`k.4#8`C`Ca.a.afaaaaaaa3aaaf.F.F.F`CaJ`F#q`J`Q`Q`Q",
"`Q`Q`Qaga1`X`x`x`xau`X#Na1au`Xa1.c.N`u`P.4aA`Ca.aR.Ga7#y`Ca.aX.3`T.maa.3ax`4.N.i.#`u`P#8#8`C.Fa.aXafafaaa3aa.va.aJ.l.#.la3ac`s`Q`Q`Q",
"`Q`Q`Qagaz`X`x`x`x`x`X.8`lau`Xaz#C.N`u.laAaA#EaB`caB.i#aa.a.a.afax.m#.afaxaV`u#T#Y.l.4aJ#8`Ca.a.aXafafafadax#..i.l.4.4#T.3`Aat`Q`Q`Q",
"`Q`Q`Qagazaz`X`x`x`X`X.8a1.8`X`l#C.O`uaVaA`C#a.i`8#a#sa.#sa.a.`Faa`T.madaxaAa5.N`3a.#8aJ`C`Ca.aXaXafafafaa.3af#EaA#EaJ#Eas.7at`Q`Q`Q",
"`Q`Q`Qagaz`X`x`x`x`X`x`la1az`X`l#C.O.#.4aJ.F`F`F`F`F#.aXaXa.`C.F#.axaGaaadaA.4`u#T.3#E.F.Fa.aXafafafafaXafadad#a#EaJaJ#Yas.7a6`Q`Q`Q",
"`Q`Q`Qag.raz`x`x`x`X`X.8aj`l`X.8#f.c.N`4.4`Ca.a.a.aXaX#.a.`C.Fa.a.#.`T.3aa`k.4`4`uaf`z.F.Fa.aXafafafaaa3adadada.#E.F#E#laG.7at`Q`Q`Q",
"`Q`Q`Qaga1au`X`x`x`X`X`l`l#f`l`l#C.c.O.#.laA#E`C.Fa.aXaXa.a.a.a.#Laaax`Taa`ua5`k`u#Tasax.Fa.aXafafa3afadadadada.a..F#E.3.7.7a6`Q`Q`Q",
"`Q`Q`Qagaz`l`X`x`X`x`X`l`la1`l`l.c.#aB`u`4a5aAaJ`C.Fa.aXaXaX#.aX#.aXa.`Tad.#a5`k`u#8`3aG.6a.aXafadafaaaaad.3ad`3`Fa.#YasaG.7at`Q`Q`Q",
"`Q`Q`Qagaz.8`X`X`X`X`X`laj#f`l`l#f.O#u`c`4.l.4.4#8`C.FaXaXaX`C#8aJ.F#.axad.#.l`k`k.4#E.3aGafaXafadafadaaad.3.E.vaXa..vaY.7aGa6`Q`Q`Q",
"`Q`Q`Qag.ra1`X`X`X`x`X`l`laja1.8a1`X#J`x`c.l`P#8#8aJ.Fa.#.a.#s.F`C.F#.`Taa.#`k`u`u`P#8#EasaGafafafadadadax.3a3`3a.`F#F.7.7.aa6`Q`Q`Q",
"`Q`Q`Qaga1az#N`X#N`x`Xaj`lajaj.8az`X#J#J`X`c.laAaJaJ.FaX#.#.#.aXaX#.ax.m#..#`k`u`k`P#8aJa.aGasada3adadadaxadaaaXa.#Yas.J.J.7a6`Q`Q`Q",
"`Q`Q`Q.Iaz`l#N.8`X`X`X`l`laj.ra1#N`X#J`x`x`xaZ#kaAaJ`C.FaXaX#.#.#.#.adad`C.#`k`k`ka5`P#8.Fa3aYasadadadad.3ad.vaXa.`3aG.7.7.7at`Q`Q`Q",
"`Q`Q`Qagaz#Nau.8`X`X`X`l`l`l#Ca1a1au#J`x#J`x#N#1.O.#.l.4#8`C.FaX#.aX#..Fa5`u`u`ka5a5.4#8`Ca..3aYaxadadadaaafaX`F#Yas.7.J.7.7a6`Q`Q`Q",
"`Q`Q`Qag.8a1.8az`X`X`X`l`l`laja1a1`l`X`X`x`xauak.s#C.O.#a5`P`P#8`C.F#8#8`u`u`k`k`ka5a5.4aJ.F`FasaY.ma3a3afafa.a.a3.J.7.7.7aYa6`Q`Q`Q",
"`Q`Q`Qag#Naz.8az`X`X`laj`l`l#fajajaj#Nau`X`laj#u#T#u#u.O.O.#`k`k`P`P.4#8`u`u`ka5a5`k`k.4`C.FaX.vasaYadaaaXaXaX`3aG.J.7.7.7.7a6`Q`Q`Q",
"`Q`Q`Q.Ia1.8a1.8`Xau.8aj#f`laj#Caj.rajaj#C.c.O#uaR#k.O.N.#.#.#.#`u.l#8.4`k`u`k`k`ka5`ka5#8`CaXafa3aGaGa3`3`3a3aGaYaY.J.a#B.7at`Q`Q`Q",
"`Q`Q`Qagauaz.8#N`X#N.8ajaj`l#f#C#Caj#C.c.N`4`k.l`4aX`4.#`u`ka5`k`k.l.4`k`k`k`ka5`k`k`ua5aJ`Ca.afaf.v#F.3asas.J.J.W.7.JaG`G.7a6`Q`Q`Q",
"`Q`Q`Q.I#N`la1.8`X#N.8#C#f`laj#f.c#C#C#u#1`P#TaA.laa#s.#`u`k`P`P.4aJ`P`ua5`ka5`k`k`k.#`k#8`Ca.aXafaX.vaY.J.W.J.J.J.7.a.J`A.7at`Q`Q`Q",
"`Q`Q`Qagazaza1.8#Naza1#C#C#fajaj#C#C#C.O`u`P#TaA`Pa..m.4`u`k`ka5#y`C`u`ka5`P`Pa5`k`u.#`k.4.F.FaXaXaXaXad.W.J.J.J.J`A.7.J`A#Ba6`Q`Q`Q",
"`Q`Q`Qaga1a1`l.8az.8a1#C#Cajaj#f#f#faj#C.N`P.4aA#TaA.3aa`Pa5a5a5aJ.4`k`k`P`P`Pa5`k`u.#.l#8#Ea.aXaXaf.v.6aY.J.J.W.7`A.J.7`G.aat`Q`Q`Q",
"`Q`Q`QagaZaza1`lazaz`l#C#C#f#f#f.c#Ca1a1#u`4a5.4.4#T`p#F#E`P`P#8`C`P`k`ka5`P`Pa5`k`k.#`u.4aJ.Fa.aXaXaf.v.7.J.J.WaG.a.J.J.M#Ba6`Q`Q`Q",
"`Q`Q`Qag`Oa1#C.8a1`la1#C.c#f`l#f.c.c#C.O.N.#.laAaAa5#E.E#r`P#8`C#8`P`k`ka5a5a5a5a5`u.#`u`PaJ`Ca.aXaXaX.vaG.J.J.J.J.7.J#B`z.aat`Q`Q`Q",
"`Q`Q`Qag`O.r.ra1.r.8`laj#C.c#f#f#f.c.c.N#1`k.l`PaA`P.F#YaG#E`C.F#8#8#8.4`P`ka5a5`k`u.#.#`P#8#E.Fa.aXaf.vas.J.J.J.W.J.JaQ#B.aat`Q`Q`Q",
"`Q`Q`Q`J`O#n.rajaj`l`laj#f#f#f#f.c.O.c.N`u.la5a5.4.4aAa.`G.3#E.4aJ`C#8#8#8#8a5a5`u.#.#.#a5aAaJ`Ca.aXaX.vaG.J.J.W.J.J.J`B.7.aat`Q`Q`Q",
"`Q`Q`Qag.GaB.r.r.r#N`laj#f#f#f.c#f.c.c.O#1`ua5.l.l.4.4a.#Y#F#E.4aJ`C`C#8#8#8#8a5`k`u`u.#`k.4aJ`Ca.aXaX`3aG.J.J.W.J.J#B.k.7#B`s`Q`Q`Q",
"`Q`Q`Qag`EaoaZaj#Caz.8`l#f#f#f#f#f.c#C.c.N`4`k.l`u`u`P`C`Ca3a3.laJ#E`C`C`C`C#8#8a5`k`k.#`u.l#8#E.Fa.a.`3aY.J.J.J.J.J`A.a.7.6`J`Q`Q`Q",
"`Q`Q`QaIagagagagagagagag.Ialalalagagagagag`J`Jagagagag`s`s`sat`J`s`s`s`s`s`s#3#3`J.C`J`J`J`s`J`s`s`s`s`sa6atata6a6a6ata6a6`saI`Q`Q`Q",
"`Q`Q`Q`Q`Q`Q`Q`Q`Q`Q`Q`Q`Q`Q`Q`Q`Q`Q`Q`Q`Q`Q`Q`Q`Q`Q`Q`Q`Q`Q`Q`Q`Q`Q`Q`Q`Q`Q`Q`Q`Q`Q`Q`Q`Q`Q`Q`Q`Q`Q`Q`Q`Q`Q`Q`Q`Q`Q`Q`Q`Q`Q`Q`Q`Q`Q",
"`Q`Q`Q`Q`Q`Q`Q`Q`Q`Q`Q`Q`Q`Q`Q`Q`Q`Q`Q`Q`Q`Q`Q`Q`Q`Q`Q`Q`Q`Q`Q`Q`Q`Q`Q`Q`Q`Q`Q`Q`Q`Q`Q`Q`Q`Q`Q`Q`Q`Q`Q`Q`Q`Q`Q`Q`Q`Q`Q`Q`Q`Q`Q`Q`Q`Q",
"`Q`Q`Q`Q`Q`Q`Q`Q`Q`Q`Q`Q`Q`Q`Q`Q`Q`Q`Q`Q`Q`Q`Q`Q`Q`Q`Q`Q`Q`Q`Q`Q`Q`Q`Q`Q`Q`Q`Q`Q`Q`Q`Q`Q`Q`Q`Q`Q`Q`Q`Q`Q`Q`Q`Q`Q`Q`Q`Q`Q`Q`Q`Q`Q`Q`Q"
};
