/* XPM */
static char *_6_frame_2[] = {
/* width height num_colors chars_per_pixel */
"    66   100      256            2",
/* colors */
"`` c #110e10",
"`. c #40c47c",
"`# c #38964e",
"`a c #1d4130",
"`b c #69c489",
"`c c #6c3f2d",
"`d c #60d086",
"`e c #629078",
"`f c #6f7f53",
"`g c #6eba81",
"`h c #87cfab",
"`i c #e0d993",
"`j c #9e885b",
"`k c #9f5122",
"`l c #441203",
"`m c #77684f",
"`n c #87dcb6",
"`o c #baac3e",
"`p c #4d7143",
"`q c #86b888",
"`r c #7cc390",
"`s c #e1da9a",
"`t c #ab8956",
"`u c #3a3c37",
"`v c #785d38",
"`w c #977748",
"`x c #eae6a6",
"`y c #984c1f",
"`z c #c0b93f",
"`A c #b2993e",
"`B c #692309",
"`C c #2b1c1a",
"`D c #405e2f",
"`E c #ccc57d",
"`F c #6ab27a",
"`G c #c0b871",
"`H c #44342d",
"`I c #b87548",
"`J c #6f4c38",
"`K c #9e6c4d",
"`L c #aa9383",
"`M c #8eceb5",
"`N c #eeeeee",
"`O c #3c9f58",
"`P c #44403a",
"`Q c #78ac82",
"`R c #d7bb7b",
"`S c #97c499",
"`T c #97775d",
"`U c #a3ada7",
"`V c #442a1f",
"`W c #a8c3c2",
"`X c #a2caaa",
"`Y c #8e4d25",
"`Z c #904319",
"`0 c #92ccd2",
"`1 c #525330",
"`2 c #fefefe",
"`3 c #866843",
"`4 c #9c897a",
"`5 c #393532",
"`6 c #885d3b",
"`7 c #c88a5b",
"`8 c #7fa57b",
".` c #531905",
".. c #c4ad7f",
".# c #2a5e41",
".a c #3dab65",
".b c #95b9b1",
".c c #a27354",
".d c #b8b6b4",
".e c #241110",
".f c #c89484",
".g c #bc9828",
".h c #d9c38a",
".i c #a76234",
".j c #ae896e",
".k c #573d28",
".l c #a07e60",
".m c #86401c",
".n c #8ed6b2",
".o c #7a4b35",
".p c #9c9678",
".q c #663420",
".r c #af9d81",
".s c #2b2622",
".t c #4b2b1f",
".u c #7f5644",
".v c #7b9d72",
".w c #a06d60",
".x c #bdae8f",
".y c #5c4b34",
".z c #cbcccf",
".A c #c8b999",
".B c #5aba7a",
".C c #353d3c",
".D c #95694b",
".E c #d3ccbd",
".F c #a35e2f",
".G c #d3bbb3",
".H c #602008",
".I c #72787a",
".J c #485f4c",
".K c #ccc290",
".L c #c9ae95",
".M c #2e0e07",
".N c #3eb26b",
".O c #78dbb6",
".P c #35221f",
".Q c #e2de9e",
".R c #4f3428",
".S c #783a1c",
".T c #885e4c",
".U c #caa36b",
".V c #788c63",
".W c #72b9b9",
".X c #bc9a81",
".Y c #c2c3bc",
".Z c #a97d5d",
".0 c #979593",
".1 c #868686",
".2 c #78523c",
".3 c #bb7c4b",
".4 c #bc9456",
".5 c #636f75",
".6 c #bcbcb5",
".7 c #d9ce8f",
".8 c #aa6637",
"#` c #4bc277",
"#. c #c9925e",
"## c #bd8954",
"#a c #86756d",
"#b c #643a2a",
"#c c #af7441",
"#d c #305a40",
"#e c #967e77",
"#f c #702e11",
"#g c #578151",
"#h c #7e968a",
"#i c #8a5448",
"#j c #9da6ae",
"#k c #a25829",
"#l c #d3b071",
"#m c #cbc4b8",
"#n c #bc9484",
"#o c #946b63",
"#p c #95604d",
"#q c #dacdb2",
"#r c #ae8c82",
"#s c #462217",
"#t c #50bc7f",
"#u c #572914",
"#v c #ab7d6a",
"#w c #362823",
"#x c #b09768",
"#y c #774222",
"#z c #545e38",
"#A c #856a5c",
"#B c #995428",
"#C c #85807d",
"#D c #626f54",
"#E c #c7bbb2",
"#F c #bda296",
"#G c #551f09",
"#H c #7eb696",
"#I c #d4c4a0",
"#J c #72adb5",
"#K c #ae7f42",
"#L c #5d3423",
"#M c #b98b70",
"#N c #c99a65",
"#O c #265a42",
"#P c #6d5d53",
"#Q c #705551",
"#R c #5a9e66",
"#S c #b0b0a9",
"#T c #849281",
"#U c #d2ba95",
"#V c #80c2c8",
"#W c #6a2a0e",
"#X c #d1ccaa",
"#Y c #995d2d",
"#Z c #5d544f",
"#0 c #6d4633",
"#1 c #877756",
"#2 c #aabc92",
"#3 c #834c38",
"#4 c #b8ad66",
"#5 c #dccfc9",
"#6 c #ae9f95",
"#7 c #d3dadc",
"#8 c #99a2a7",
"a` c #584d4d",
"a. c #634231",
"a# c #978261",
"aa c #3a1c12",
"ab c #f4e5e2",
"ac c #96c2cb",
"ad c #74b2b6",
"ae c #c2c3c4",
"af c #afa35e",
"ag c #a07e75",
"ah c #795e50",
"ai c #c2bdb7",
"aj c #acbab9",
"ak c #6f5641",
"al c #c7a19c",
"am c #a36d49",
"an c #c18068",
"ao c #764531",
"ap c #58c67b",
"aq c #e0e5e9",
"ar c #81a4a6",
"as c #7a4d3f",
"at c #8e5632",
"au c #391106",
"av c #5f5e59",
"aw c #56403b",
"ax c #bcafa6",
"ay c #602914",
"az c #88b2ad",
"aA c #4cc97b",
"aB c #9e9a5e",
"aC c #d8c4b7",
"aD c #726967",
"aE c #3cbb74",
"aF c #32563a",
"aG c #4e8e56",
"aH c #81523c",
"aI c #73d192",
"aJ c #ac826d",
"aK c #bf8250",
"aL c #966858",
"aM c #272e2d",
"aN c #7e9c9e",
"aO c #753414",
"aP c #bba383",
"aQ c #372e2b",
"aR c #898e86",
"aS c #ccb1a9",
"aT c #a27461",
"aU c #d9c483",
"aV c #7ee9ce",
"aW c #85b9bc",
"aX c #bc996c",
"aY c #e4d08e",
"aZ c #caab6a",
"a0 c #636665",
"a1 c #caa382",
"a2 c #47bb74",
"a3 c #471807",
"a4 c #dfdad7",
"a5 c #a19e8e",
"a6 c #88eed0",
"a7 c #af6c3d",
"a8 c #000000",
/* pixels */
"`2`2`2`2`2`2`2`2`2`2`2`2`2`2`2`2`2`2`2`2`2`2`2`2`2`2`2`2`2`2`2`2`2`2`2`2`2`2`2`2`2`2`2`2`2`2`2`2`2`2`2`2`2`2`2`2`2`2`2`2`2`2`2`2`2`2",
"`2`2`2`2`2`2`2`2`2`2`2`2`2`2`2`2`2`2`2`2`2`2`2`2`2`2`2`2`2`2`2`2`2`2`2`2`2`2`2`2`2`2`2`2`2`2`2`2`2`2`2`2`2`2`2`2`2`2`2`2`2`2`2`2`2`2",
"`2`2`2`2`2`2`2`2`2`2`2`2`2`2`2`2`2`2`2`2`2`2`2`2`2`2`2`2`2`2`2`2`2`2`2`2`2`2`2`2`2`2`2`2`2`2`2`2`2`2`2`2`2`2`2`2`2`2`2`2`2`2`2`2`2`2",
"`2`2`2.z.1.1.1.1.1.1.1.1.1.1.1.1.1.1.1.1.1.1.1.1.1.1.1.1.1.1.1.1.1.1.1.1.1.1.1.1.1.1.1.1.1.1.1.1.1.1.1.1.1.1.1.1.1.1.1.1.1.1aRaq`2`2",
"`2`2`2#C```````1a5#1#A#a`maBaf#Sa5#8.5`5#a#a`m#1#a.P.R.2`J.R.Ra.#Q.Tah`Jaw.Rawak#a.y.y#Qak`m.k.e`C`C`C`C`C#w#Z.0.5.5.5aDa0aD.C.d`2`2",
"`2`2`2#C``````#X.x.raB`j#4`E`i`xa4`N.0a`#F.r`j.x#6`V.k.w#vaJ#vaTaJ#r.jaTag#v.w`L.r#P`m#1a##r#P.P`C`C#w.s`CaQ#Z.za4a4#7aqaq#7.I.6`2`2",
"`2`2`2#C````.s#m#xaf`o`o#4aP#4.Q#Xaq.0av.d.x`4.K#6`H.P.w#v#M#v#v#M.f#r.waT#vaTaP.x`m#a`T`4a5#P#w`C.e`C`Caw`Caw#Zaiaeajajajaea0.d`2`2",
"`2`2`2#C````#P.pa#`A`z`zaf`jaP.Ka4aqaR.1#E.x.r.A#6aw.M#i.waT#paH.fal.f#vas.T#p.L#F#1`T#1`4#6#Paw.R.ta.aw`JaQ#sa`aR#Saj#S#S`Uav.d`2`2",
"`2`2`2#C#w.R#o`4`t`A`z`z`o`A`j`Lax`Na5#S#E.x.x`GaP#Z`Cao#3#3ao#i.w#vagaL#i`caH.L.x`L`4a#.p.r#A`V.P.t#L.R`H.Raw`V.0`Naqaqaqaq.5.d`2`2",
"`2`2`2.1#ZaT`T.T#xaf`z`z`z`oa##e#6a4.d#E#I.AaP.L.r#Paa#s#i.S.q#3#iaoas.2ao#b.T.x`4.r`4`j#6.0#ea`.Pa..k.t`V#w`CaQav#j#j`U#j`U.5.d`2`2",
"`2`2`2#Caw`Tagag#x`o`z`E`z`o`A.j#6a4.z.z#m.AaP..aP#A`H.Ma.#i#3ao#p.w.wasaoas.uax#e.r`L`4.x`L#aa`#0`A#K`waa.e`C#w`P.6ajaj.d.6.I.6`2`2",
"`2`2`2.1`P`TaJ.j#A.y`j#2`z`f`vaT`4.E#7.z.G.AafaX.r`T.k.Ma3ao#i#i#i#i#ias.T`J`V#6`m.r`j.p#6`LaD.yak.g.g`J`C.e`C.s.Iaqaqaqaqaq#C.d`2`2",
"`2`2`2#C`V.TaL#oah#P`C.s`C.sakaL#e#5#7#Xai#U.r#x`t`j#0aa`C#u#i#i#i#3#3#i.u`V`C.r`m`La##r#4#FaD#Z.y.g#K.t.e.e.s.P.0aeaeaeae.z.I.6`2`2",
"`2`2`2.1`H#P.Tahahav`C````aQ#QaL#e#7#5#X#E.G#x.l#1#nahaaaaaa#b#iaL#p#p#pa.auau.r#1a#`Ta#aP#E.x`L#e.4#x#QaQ`C.P#Q.zaeae`W.zaq.I.d`2`2",
"`2`2`2.1`HaD.0ahahaw``````.Pah#A`La4#5#m.A.A.r`t`w.laT`Vaaaa#u#Las#ias`c`V.P#w#r`4#a.D`j.x#I#E.L#Fa1al.Lalag#Z.z#7aq#7.zae#7.Iaj`2`2",
"`2`2`2.1a`#5ae`m#PaR.1#CaR#6#A`L#X#q#7#m.K..aP.l`3#p#e`c#s#s#G#uay.H#L#u#saa`m#1#e`v`3.l.x#I.KaP`L#r#n.XalalaSaCa4#7aq#j#haj#Z.d`2`2",
"`2`2`2.1a`.d.0a`#Aa`aD.I.5.1aS.G#m#q#X.K.K.A#4`j`6`J#o`c#L.tayay#Lay#L#u#s.t#A.Rakak`3a#.L.K#E`L.l.ZaJ.j#n#n.falaS#5aqaqaq#7.5.6`2`2",
"`2`2`2.1`P.d.1`V#A`H`u#wa``4aC.L.L#5.K.G.A#XaP`w.2`J.u`J#0#L#L#b#b#b`c.qay#L#Lao.t`J`va#.A#IaU`L.caTaTaT#vaJ.j#n#nal#5#7.d.IaM.d`2`2",
"`2`2`2.1#Z#6#Z.R#o#Qawa`#AaSax#F#U#X#U#I#I#I`4`3`w#0aH.u#ias#iaoasaoao#3#iasas#p.k.kaha#.x#q.A.L.ZaT.c.w.waTaTaJ#M.f.Xag`H````.d`2`2",
"`2`2`2.1aD.0#Q#A#r#oah#o#eal.j#F.G#U#I#q#q.x`w#A#b#LaH.T#i#p#p#i#i#i#i#i#paLaLaTaH`J.Ta#.A#I#U#U#M.wam#p#p#p.w#caJ#M.fal#r#Q#w.d`2`2",
"`2`2`2#C`4#EaS.GaSaS.GaC#6#r.j.X#U`G#U.K..`j`j`3#0as#i.T#paL#o.waLaL#paL.waT#o#v.T.2`v`T.A.A#U..a1.D`6`Y#3#i#p`K.c#v#n.XalaSaD.d`2`2",
"`2`2`2.1.0aC#5#5aCaCaCaC#M.Z`K`L#U.L#U..`j`wa#`w`J.T.TaLaL.w.w.w.w.waT.waTaTaT.laT#o`3.T.L.LaS.raJ`T.o#y`cao#i#Y`K.w`I#M.f.X#Q.d`2`2",
"`2`2`2.1#C#Eax.d.6.d.daj`4aT.D`w..#U.U#x`w`3`t`T.u#p#o.w.w.w.w.w.w.waTaTaTaTaTag.Z.l`T`vaP..aZ.r`w.T#L#u#L`cao#3`6#paL.c.ZaJ.y.6`2`2",
"`2`2`2#C`C.0.dajaj`Wajajag.c.D.DaXaP.Ua#`3`w#r`3.DaT.waTaTaT.w.waTaTaTaTaTag.Z#vaJ#v.l`3#xaPaXaX`3`Jaa#s#u#L.Sao.oaH#i`6aL.w.k.d`2`2",
"`2`2`2.1aD.1acaj`W`W.b`U#e`K#p.D`taP#N#1`3`taX.T.caT#v#v#v#v#v#v#vaJ#v#v#v#v.jaJaJaJ.Z.c#xaX`t.j`6aoaaauau`V#u#ba.`JaHat`6#p.R.6`2`2",
"`2`2`2.1#aaR.baWaWazaWaz`T#p.D.l#MaP`A#K`3aX.X`KaT#v#v#v#v#MaJaJaJ#vaJaJ.jaJ#vaJ.jaJ.Z.j`t.r`t.l`6.k.s`C`C`C`V#u#b`c`J.oatat.R.d`2`2",
"`2`2`2.1.P#8aWaz#jaNaN#j#a#p`K.D`t.U`t`wa#aX#x.caT.3#v#v#vaJ#M#raJaJaJaJaJaJ#v#v#v#v.Z.l.Z#x.l`w`6aw.C.5`paM#w.R#b`c#0.o.2aH.t.6`2`2",
"`2`2`2#C#A#jad.5a`.0.Ia`aL#p#p`6.caX`t`w`3#x`t.Z#v#v#vaJ#v#v#vaJ`4aJagaJaJ#v.l.ZaJ.jaJ.Z.Z`t`w.c`6`uaNadadaN.JaQ#L#b.o.o.oaH`V.d`2`2",
"`2`2`2.1#P.0.WaM`Cau.eaaaL#p#paH#paX`t#K.D`t.ZaJ#MaJan#vanaJaJ#v#vaJag#v.ZaT#v#vaJ`t.j.j`t.D`v`6.D.I#J#J.W.W.W`eaF`Pa.`J.oaH`V.6`2`2",
"`2`2`2#Ca0#8aN.e.Pa`#Q#baL#p#YaH`K`t#M`t`j.c#van#M#M.j.j.j.jaJag.l.l.l`j.l`4`j`4.p#TaB.v`f#D`v`v#DaN#Rad#J.Wad.W.baN#zawa.#0#s.d`2`2",
"`2`2`2.1aD#8#Sawa`aw#Q#3.w.D`6aH.Z#M#N.Z`t`K.l.j`L.r.r.p.p.0#TaR.V.V#T#h`8.b`S`h.n`n`n`n.OaI`Q`f.V#J#J.Wadad.Wad#VaWaWar`favaM.d`2`2",
"`2`2`2.1#A`LalaJ#Qaw#oas`K#pat.o.4a#`t#K#1#C#T.b`S`h`h`h.n`n`n`h.O.O.O.O.O.O.OaVaVaVaVa6a6a6`q`f.v.W#J#h#T#8.W#V.W.W`0`0`0aW.J.d`2`2",
"`2`2`2`U`5.C`u`5`5`5`u`5.C`5`5`5`u`u`u`5`5`u`u`u`u`u.C.C.C.C.C.C.C.C.C.C.C.C.C.C.C`u`u`u`u`u.C`u.C`5`5aM`5.C.C.C.C.C.C.C.C.C`u#5`2`2",
"`2`2`2`2`2`2`2`2`2`2`2`2`2`2`2`2`2`2`2`2`2`2`2`2`2`2`2`2`2`2`2`2`2`2`2`2`2`2`2`2`2`2`2`2`2`2`2`2`2`2`2`2`2`2`2`2`2`2`2`2`2`2`2`2`2`2",
"`2`2`2`2`2`2`2`2`2`2`2`2`2`2`2`2`2`2`2`2`2`2`2`2`2`2`2`2`2`2`2`2`2`2`2`2`2`2`2`2`2`2`2`2`2`2`2`2`2`2`2`2`2`2`2`2`2`2`2`2`2`2`2`2`2`2",
"`2`2`2`2`N`N`N`N`N`N`N`N`N`N`N`N`N`N`N`N`N`N`N`N`N`N`N`N`N`N`N`N`N`N`N`N`N`N`N`N`N`N`N`N`N`N`N`N`N`N`N`N`N`N`N`N`N`N`N`N`N`N`N`2`2`2",
"`2`2`2aR#w`u`HaQ`C.P`C.P#w`C`C.e````aM`a`a`a`a`aaF`a`a`a`a`a`a`a`a`a`a`a`a`a`a`a`a`a`a`a`a`a`a`a`a`a#waQ`5`5`HaM.C`a.C`a.C.C.sae`2`2",
"`2`2`2#C`4aS#F.faJaTaT.D`K`6.o.q#s#w`8.n`n.O.O.O`daAaAaA`daAaAaAaAaAaAaAaAaAaAaAaAaAaAaAaAaAaAapap`F`4alaJ#r#n#8`0#V#Vacac`Wa0.d`2`2",
"`2`2`2.1.1#Falal.fal#vaLamat.o#L#s.R#2`haI`d`d`daAaAaAaAaAaAaAaAaAaAaAaAaAaAaAaAaA#`#`#`#`#`#`#`.B`g.0#5.Gag#e#j#V.W#V`Wae.6a0.d`2`2",
"`2`2`2.1`4#e#nal.X.faTaL#Y`6#y#L`V`v`G`S`d`dapaA`.`.`.`.`.aAaAaA`.`.`.aA`.`.`.`.`.`.`.`.`.a2a2#t.NaWax#5aSaT#Q`UazaW.b.zaCal#Z.d`2`2",
"`2`2`2#C`4#eag.X.X#naT`K#paH#yay.taP.x#2`bapap#`#``.aE`.`.`.`.`.`.`.`.`.`.`.`.`.`.aEaE.Na2.N.N.N`Q`U.d.G#Q#0`J#e#6#F.dae#F#r#P.d`2`2",
"`2`2`2.1.0#a#Qag#r.j.Z#pat.o#y.qa.aCaf`E`F#`#`a2a2aEaEaEaEaEaEaEaEaEaEaEaEaE.N.N.a.N.N.N.a.N#R#g#T#6aS#a.R#b#Q#o#r#Fa4#5ax#o`J.6`2`2",
"`2`2`2#C`L#e#0.TaTaJ#v#p#3.o.Say`J#5#F.Y`q`F.Na2.NaE.N.N.a.a.a.a.a`O.a`#`O`O`#`O`#`O`O`O`OaG`p`1#r.X#n#p#0.T#o.walaC#5.Gaga.aw.d`2`2",
"`2`2`2.1.1#a#La`.u#r.Z`6#0.o`c.q.2.GaP.r`z`8#R#R.a.a.a`O`#`#`#`#`#`#`#`#`#`p`p`p`p.#`p`D`D`1`P#Q#r#r#e.T#o.w.w#r.GaC.G#raa.k`H.6`2`2",
"`2`2`2#C#e#eaw#0#A#MaTaH#y.o`c#L.T.Gax`T.xaf`D`p`p#g#g`p.#.#`DaF`1`1.y.y.y.y.y`P.k`VaQ`V.R.k.kah#rag#a#o#o#oaT#E.z.G#F#Z#wa`aQ.d`2`2",
"`2`2`2.1`4aS#6ahag.j.c`6#0`J`c#L#r.daS`maha#.2`c.k`H`5`H.Ra.`Jasao.o.o`J.o.2`J.o`c`c.k#b#L#ba.#oabababababab#5aS.Gae#F`4aRa5#Z.6`2`2",
"`2`2`2#C.1.GaeaS#raJaT#p.2`J`c.t.A#maxax#E#j`T`J#y#0#b`c#y#y.o.o.o.o.o.o.o.o.o#0`c`c`c`c#b`c#0ah.zaiai.dai#E#Eaiae#EaiaR.0.xav.d`2`2",
"`2`2`2.1aRae.Y.d.l.l.c`3.2`J#b#Q.G.6ai#m#maiaP`J.o#y.o#yaoao.o.o.o.o.o.o`Jaoaoao`c`c#b#ba.#0#0#Q#6#S#S.d.d.6ae.Gaiaeae.Y.Yai#P.d`2`2",
"`2`2`2#CaRae.zaP.Z.c`K.T.2#0.R`4ai.Yaiaiae.Yai#P.o.o.o#yao#yaoao.o.o.o.oao#y`c#y#b#b#b#b`ca.ao#Q#e.d.daeaeaeaeaeaeai#mae.Yaea0.6`2`2",
"`2`2`2.1aR.Y.Y`L`T.c.c`6`Ja.awaxae.6aeaeae.Y.Y#A.2aoao#y#y.oao.o.o#3.oaoao#y`cao`c.q`c`c#baoasas#Aaxaiaeaiaeaeai#m#m.Y.Yae#ma0.d`2`2",
"`2`2`2#CaR#E#m.laT.D`K`6`J`cah.Yaeai.6ae.Y.Y.za#.2.oaoao#y.oaoao.o.o.o#y#y#y`c`caoao`c`c`c`caoasah.daeaeaiae.zae#mae#mae.Yaea0.d`2`2",
"`2`2`2.1.1ai#E`T.c.c.D`6`J#b#eaiai.Y.Y.Y.Y.Y.6`4`vas.o.oas`YaH.o#3#3aoaoaoaoaoaoaoaoaoao`ca.as.2#Q`U.z#mae.Yaeaeae.Yaeae#m#ma0.6`2`2",
"`2`2`2.1aRaiax`T.w`K#paH`Ja.ax.6.6.6.Y.6.Yaj.6`4.uas.oasaHaHaHaH.o.o.oaoao#3ao.oaoasaoao#0a.as.2ah`8`Sae.Yaiae.Y.Y.Y#maeae#ma0.d`2`2",
"`2`2`2.1.1.6#F`T`w`K#paH`cah#Eaiae.6.Y.Y.6.Y.Y#eah.u.o.oaHaHaH.2#3aH.o#ias.oasasaoaoao#0aoao`J.y#T`e`S`U.Y.Y.Y.Y.Y.Y.Yaeaeaea0.6`2`2",
"`2`2`2.1.1ai.raT.c.D`6as`c`4.6.6.Y.6.Y.Y.Yai.Ya#ahaH.o.o.oaH#3aH.o.o`J#b`caoao.o.oaoao`J.oaoasav`g#R`U#C.dai.Y.Yai.Y.6.Y.Y.Ya0.d`2`2",
"`2`2`2.1.1ai`LaTam.Dat`J`Jax.Y.Y.6.Y.6.6.6.6ai#C.Tat#3.o.o.o.o.oao`J.qao#Laoas.oaoaoao.o.o.2`J.v`F`q#D`3`Lai.6.6ai.Y.Yaiai#Ea0.d`2`2",
"`2`2`2.1.1.6`L.lam#pat`J#Aai.Y.Y.6.6.6.Y.Y.6.6a5`v#i#3#3.o.o.oaoaoao`J#3asasao.oaoaoaoas.o`J#g`g`b`f.u.u#a#E.6aeaiai.YaeaiaiaD.6`2`2",
"`2`2`2.1.1.d.j#v.c.DaHa.#6.6.6.6.6.daj.6.d.6`U#2#D`v.uaH.o.oaoao#yao.o.uas.oasao#0aoao.o#Z#D`raI#D`J`J.oah#6ai.6.6.6aiaiae.Ya0.d`2`2",
"`2`2`2.1.1.A`4aJ.c#p.2ahaS.d.6.6.6.6aj.6.d.A.V`X`8#z.2aHaH.o.oaoaoao.o.2asas.oao.oaoao`J#z`g`b.vawa.`Jasah#eax.6.6.6.6.6.6.6a0.d`2`2",
"`2`2`2.1.1#EaS.L#F`T#A`4ai.d.6.d.d.6#2.Y.6ax`3.V`S`8`pak.o.o.o#y#y#y.o.oaoaoaoaoaoao#Z`p`r`b.B`1`c`J#0`J.u#A#6.6.6.6.6.6.6.da0.6`2`2",
"`2`2`2.1.1ax#rag.c.u#A#E.6.d#E.d.d.d.d.6aj.d#p.u`f`S`g#g`1`Jaoaoaoaoaoao#y.oao#ya.`1`e`r.B`d#g.ya..o`Jas.u#A`L.d.d.6.6.d.6.6av.d`2`2",
"`2`2`2.1#Cax.jaTaLaHag.d.6.6.6.6.d.6.6axaj#S.T`Yak#z`q`r`F#g.J.y`J#0aoao#ya..y.y#g`b`b#t#t`Fa``c#0ao`Jasas.T`4.d.6.6.d.d.6aia0.d`2`2",
"`2`2`2.1#C#F#M.3aLak#F.d.6.d.6.6.d.6.6ax.6#SahaH.2ao`1`8`F`b`r`F#g`p`DaF#z`p`e`g`b#t#tapap#gawaO`Jao`JasaH.u#aax.d.6.d.d.6.da0.d`2`2",
"`2`2`2#C.1`L.f#v#p#a#E#E.d.6.d.d.d#S.d.dax#6.u.uas.o`J.k.v.Ba2#t`b`b`baI`b`b.B#t#tap.B#``b#z#b#0aoaoas.u#3.T#aax.d#S.6aiai.dav.6`2`2",
"`2`2`2aR`P.yaw.k`Vaw#Zav#Z#Z#z#Zav#Z#Zav#Za`#w`V#w#s.P.P.saF.##O#O#O#O.#.#.#.#.#.#.#.#.#aF.s`C.P.P.P#w#w`V#w`H#Zav#Z#Z#Zav#ZaM.6`2`2",
"`2`2`2abaeaeaeaeae.Yaeaeaeaeae.Y.Y.Yae.Yaeaeae.Y.Y.Y.Y.Y.Yaeaeaeaeae.Yaeae#mae#maeaeaeaeaeaeae#maeaeaiaeaeaeaeaeaeaeaeaeaeae#m`N`2`2",
"`2`2`2`2`2`2`2`2`2`2`2`2`2`2`2`2`2`2`2`2`2`2`2`2`2`2`2`2`2`2`2`2`2`2`2`2`2`2`2`2`2`2`2`2`2`2`2`2`2`2`2`2`2`2`2`2`2`2`2`2`2`2`2`2`2`2",
"`2`2`2#j.0.0.0.0.0aR.0.0.0.0.0.0.0aR.0.0.0.0.0.0.0.0.0.0.0.0.0.0.0.0.0.0.0.0.0.0.0.0.0.0.0.0.0.0.0.0.0.0.0.0.0.0.0.0.0.0.0.0#S`2`2`2",
"`2`2`2.s.M.M.M``.M.M.M.Mauau.M.Ma3#u#L#b#0.o.2`Jakak.u`vaH.2.2.u.T#1.l#A`w`c#b.t`v`v`cao.o.o.u`6`6`6`6`6.T#A.T`J#0`J`c`J#1a#aM`2`2`2",
"`2`2`2.s#Ga3auau.Mau`l.`#G.``l.``B#f`Z#Y.8.3aK##aKaKaK`7`7`I#c`I#.a1`R#M#N.8.F`Y#Y.U#K#c`I.3.3##`7#.`7###..U#N#K.8#ca7#K`E.7`u`2`2`2",
"`2`2`2.s#G.`auauau`l`l.`.H.``l.``B#W.S`Y#Ya7#c.3.3aK`7anaK#c.3.3.3#.`Ra1#.`k#k`y`Y##`R#K`I.3aK`7#.#.#.#.#..U#N.3#c#c#c##`E.7`u`2`2`2",
"`2`2`2.s#u`l`lauau`l`l.`.H.H.`.H`B#faO`Z#B.i#c`I`I.3an##.3`I.3.3##.fa1`R#N`Z#k`k`Y.8#laZ#KaK`7#.#.#.#.#N#N#N#N#K.3.3#caZ.7.7`5`2`2`2",
"`2`2`2.s#G#G`lau`l`l`l.`.H.H.``B#f`Z`Y`Y`Y#k.ia7a7`IaK.3##`7an`7`7anan`R.f`y#k`k`y.8#KaU#N#KaK`7#.#.#.#N.U.U#N##.3.3#K`R.7.7`5`2`2`2",
"`2`2`2.s#G.``l`l`lau`l.`.H`B.`.``BaOay.qat#Y.F.i.8`I`I.3an`I`I.i.ianan#l#N.m`k`y`y.F#c.gaY#.aK#.#.#N#.#N#Na1#N##aK#K##aY.7`E`u`2`2`2",
"`2`2`2.s#u.``l`l`l`l`l.`.H.H.H`l#Ga3.M.M.q#B#k.F.ia7.3aK#..3`Iana7`I.f#l.f`Z`k`y`y#k.8#c#laU.g#.#.#N#N.Ua1.U#N##.3#KaZ.7aY`E`u`2`2`2",
"`2`2`2.s#G#G.``l`lau.`.`.``B.H#G#G`l.M.MauaOat.Fa7a7`Ian`7`7`7ananana1#l##`Z`y`y`k#k.Fa7#KaU`R#.#N#N#N.U.U.U#.aK.3#K`E.7`i.7`5`2`2`2",
"`2`2`2.s#G#G#Ga3a3au`l.H.`.Hay#Ga3au.M.M.Mau.qat#pa7a7`Ian`7`7`7.f#..f#N`I`Z`k`k`k#k#k.8a7#NaY`R#N#.#N.U.U#N`7aKaK`taU.7`i.7`u`2`2`2",
"`2`2`2.s#Ga3a3.``l`l.`.`.`.H.H#u#G.`.M.M.M.Ma3#y.S.mat.i.i`I.3anan`7`7`I#k`y`k`y`k#k.F.ia7#K#NaY#l#N#N#N#.#.aK.3#KaU.7.7.7aY`5`2`2`2",
"`2`2`2.s#G#G.`#G`l`l`l.H.`.``B.H#G.H`l`lauaua3#y#yayaO.m`Y#B.F.8a7a7.i.F`y`y#k`k`k`k#k.ia7.3aK#laY#l#.#N#.`7aK.3.g`i.7.7.7`i`u`2`2`2",
"`2`2`2.sa3#Ga3#G`l`l.`.H.H.`.H.H.H.H.`a3.`.`ay#f.D.q#faO.m`Z`y`k#k#k.F.i`y`y`k`k#k#k`k#k.8.3aK#.`RaY.U`7aK.3aK.4aU`i.7.7.7.7`5`2`2`2",
"`2`2`2.s#G#G.`a3`la3.`.H`B.``B`Bay.H.H#u`BaO.SaO.iat.S.m.S`Z`Z`Z`y`ya7.F`k`y`y`k`k#k`k#k.8.3aK`7`7aUaU#N####.gaYaY`i.7`E`G.7`u`2`2`2",
"`2`2`2.sa3#G#G.``l.`.``B`B.`.H`B`Bayay#f.S`Y#B#Bat##`Y.m`y`k#k#k#B#k#k`k`k`y#k`k`k`k`y#k.8`I.3`7#.###laZ`RaU`i`i`i`i`i.7#4.7`5`2`2`2",
"`2`2`2.s#G#G#Ga3a3.`.``B`B.H`Bay`B`B#WaO`Y#Y.i.iat#.##`Z`y`k#k#k.Fa7#k`y`k`k#k#k`k`y`Z`k.i#c.3aK`7aK.g.7.Q`i`i`i`i`E.7`i`G`E`u`2`2`2",
"`2`2`2.sa3#G#G.`a3.`#G#W`B.H.H`B`B`B#WaO`Y.F#Y.8.F#K#l.i`k#B`k`k#Y#c`k`k#k#k#k`k`k`y`Z`y.i#c.3`7##`7###N.Q.Q`i`i`i`G.7`i#4`E`5`2`2`2",
"`2`2`2.s#u#G.`.`#G#G#Gay`B`B.H`B`B`B.HayaO#k.i.i.F#Y.U#N#Y#k#k#ka7.F`k`k#k#k#k`k`k`y`Z`y.Fa7`IaKaKaK#..4`i`i.Q.QaY`G`i.7#4`E`u`2`2`2",
"`2`2`2.s.q.H.H.`#G#G#G#W#W.H`B.H`Bay.H.HaOatat.i.F#Y#K#l#c#k#k.8a7#k`k`k#k#k#k#k#k`y`Z`y.i.8`I.3aK`7`7.4.7`i`i`i`E#I`i`s#4`E`5`2`2`2",
"`2`2`2.s#L#uay.`#G#G.`#W`B`B.H`B`B#W#faO.S`Z#B.i.i#B#caXaZ#Y.8`I.8#k#k#k#k#k#k#k`k`k`Z`Z.Fa7#c.3aKaKaK.4aU`i.Q.Q`i`i.7#X`G.K`5`2`2`2",
"`2`2`2#w.Ray.H#Gay.`.`ay`B`B`B`B`B#f#f.S`Y#B#Y#Y.i.F#c#K`R#Ka7`I.8.8.i.i#k#k`k`k`k`y.m`Z#k.8a7`I.3aK`7##aU`i`i`i`i`s`saf.KaU`u`2`2`2",
"`2`2`2.s.k.u#u.Hay.`.``B`B`B`B`B`B#f#f.m`Z#B`k#k.i.F.8#K.UaZ.8.8.8a7a7a7.i.i#k`k`k`Z`Z`Z#k.Fa7`I.3aK`7##aU`i.Q.Q.Q.Q`iaB.7.h`5`2`2`2",
"`2`2`2.s.uasay.Hay#G.``B.H`B`B`B`B#f`BaO.m`Y`k#B#B#Y#Y.3#c#l#K#ka7`Ia7a7a7.8.8.i`k`Z`y`Z#B.F.8#c.3aKaK##aU`i`i`i`i`i.K#4.7`G`5`2`2`2",
"`2`2`2aM#0`c#L.Hay#G.`.H.H`B`B`B`B`B#W#W.m`Y#B`y`Z`y#Ya7#c.4.g#k.8a7a7`Ia7`I.8.i#k`k`y`Z`y#k.i#c`I.3aK##aY`i`i`i`i`s#4.7.7#x#w`2`2`2",
"`2`2`2#waw#b#s.Hay.`.`.`.H`B`B`B`B`B#W#WaO`Z`Z`y.m.S`Y#ca7am#N#c.i.8a7`Ia7`Ia7a7.i#k`k`Z.m#B.F.8a7#caK`t`i`i`i.Q`s`iaf#X`Ram.s`2`2`2",
"`2`2`2`5ag.u#Lay.H.`.`.`.H`B.H.H.H.`.S`B.S.m.S.m.m.m`K#F.X.l.c.4#k.F.8a7a7`I`Ia7.8#k#k`y`Z`y#Y.8a7a7#K.4`i`i.7`i.7.KaBaB.D#B#w`2`2`2",
"`2`2`2`5#Aa.#uay.H.`.`.`.`.``B.H.H.``B.maOaO`y#B#B`6.j.A#Xa4#Iaf.8#k#k.8a7a7`I`Ia7a7.F#k`y`Z`y#k.ia7am#l.7.7`i.7`iaB.h`tat`Y.s`2`2`2",
"`2`2`2.s#uay#u.H.H.`.`.`.H`B.H`B.H`l.`aO`Z`y#k.i#k#Y#r#F.d.za4a4`tat#k#k.8`I`I`I`Ia7.8.F`k`y`Z`y#k.8#K.h.7.7`i#X#4..aJat`y`y#w`2`2`2",
"`2`2`2.sas.oay#G#G.`.`.`.``B.`.H.H.`.HaO`Y`k#k.i.i#p#r.r#6.6#5.Qa4#c`k.F.i.8a7`I.3.3`Ia7.8#k`y.mao`KaX.K`E.K.K.r.l#pat#Bat`Y.s`2`2`2",
"`2`2`2a`aQaQ.s.s.s`C`Caaaa.Paa.P`C.P.P#w.saQ#waQ#waMaQ`5aM`5.C`u`u`5#w#w`V#waQ`VaQ`HaQaQaQaQ#w#w.saQ`5`5`u`5`5aMaQ#w#w#waQaQa``2`2`2",
"`2`2`2`2`2`2`2`2`2`2`2`2`2`2`2`2`2`2`2`2`2`2`2`2`2`2`2`2`2`2`2`2`2`2`2`2`2`2`2`2`2`2`2`2`2`2`2`2`2`2`2`2`2`2`2`2`2`2`2`2`2`2`2`2`2`2",
"`2`2`2`2`2`2`2`2`2`2`2`2`2`2`2`2`2`2`2`2`2`2`2`2`2`2`2`2`2`2`2`2`2`2`2`2`2`2`2`2`2`2`2`2`2`2`2`2`2`2`2`2`2`2`2`2`2`2`2`2`2`2`2`2`2`2",
"`2`2`2`2`2`2`2`2`2`2`2`2`2`2`2`2`2`2`2`2`2`2`2`2`2`2`2`2`2`2`2`2`2`2`2`2`2`2`2`2`2`2`2`2`2`2`2`2`2`2`2`2`2`2`2`2`2`2`2`2`2`2`2`2`2`2"
};
