/* XPM */
static char *_6_frame_5[] = {
/* width height num_colors chars_per_pixel */
"    66   100      256            2",
/* colors */
"`` c #1b0b0e",
"`. c #43c47a",
"`# c #428747",
"`a c #80c4c7",
"`b c #29352f",
"`c c #c6c246",
"`d c #917a51",
"`e c #6f3412",
"`f c #92ceaa",
"`g c #7aba8c",
"`h c #686866",
"`i c #7bad79",
"`j c #e1d894",
"`k c #a47655",
"`l c #9b4d1f",
"`m c #561a07",
"`n c #a69a2e",
"`o c #90e7cd",
"`p c #5f5754",
"`q c #8ab986",
"`r c #e1de95",
"`s c #e6e696",
"`t c #8e6a51",
"`u c #b28a26",
"`v c #b3aa3f",
"`w c #2c2724",
"`x c #7e4f38",
"`y c #366248",
"`z c #429a59",
"`A c #c1ba44",
"`B c #883e16",
"`C c #6ce3cd",
"`D c #553628",
"`E c #c7b784",
"`F c #320d03",
"`G c #b28c8b",
"`H c #b77847",
"`I c #e6f2f4",
"`J c #af6838",
"`K c #aaa6aa",
"`L c #729872",
"`M c #8ec4ca",
"`N c #7cd497",
"`O c #abced3",
"`P c #674231",
"`Q c #b8a78a",
"`R c #b69e3e",
"`S c #d6ba7a",
"`T c #7e6252",
"`U c #d3d8db",
"`V c #3ea65f",
"`W c #595a52",
"`X c #757a7d",
"`Y c #6bce8b",
"`Z c #bb8e55",
"`0 c #a76837",
"`1 c #722a0b",
"`2 c #d4c486",
"`3 c #e3de9a",
"`4 c #3c1206",
"`5 c #475139",
"`6 c #7d4018",
"`7 c #b08472",
"`8 c #a15a2a",
".` c #945329",
".. c #413a21",
".# c #b5b7b7",
".a c #a28a7e",
".b c #9a6850",
".c c #4a2a1c",
".d c #6cb17d",
".e c #d0c496",
".f c #858686",
".g c #805e4e",
".h c #caba9e",
".i c #582d1a",
".j c #bb9176",
".k c #544e3f",
".l c #62dcb2",
".m c #d7ad88",
".n c #b07f45",
".o c #85cad4",
".p c #672409",
".q c #706055",
".r c #402218",
".s c #aacea2",
".t c #ccced3",
".u c #ba9a2a",
".v c #a57865",
".w c #3fb069",
".x c #32150c",
".y c #58cb7d",
".z c #cfc4a6",
".A c #b2ceba",
".B c #1e1416",
".C c #bc9f75",
".D c #352824",
".E c #7ddaa5",
".F c #3c4664",
".G c #7a3714",
".H c #bb938b",
".I c #968464",
".J c #dbe0e6",
".K c #9c6964",
".L c #d7c3b4",
".M c #685240",
".N c #7c5a49",
".O c #baaca2",
".P c #a3a19e",
".Q c #bc7e4d",
".R c #704733",
".S c #856841",
".T c #421304",
".U c #92c6ca",
".V c #7abdc2",
".W c #a48670",
".X c #7e6c5f",
".Y c #484739",
".Z c #bfbdb7",
".0 c #55412a",
".1 c #935d57",
".2 c #ccab71",
".3 c #eae6a2",
".4 c #d4bab2",
".5 c #6e7642",
".6 c #5c260e",
".7 c #8e5232",
".8 c #85afb3",
"#` c #273a38",
"#. c #78ddb1",
"## c #4a3933",
"#a c #58b77c",
"#b c #8c9c64",
"#c c #8f6246",
"#d c #e8cfc9",
"#e c #669763",
"#f c #8eb692",
"#g c #9c615c",
"#h c #622107",
"#i c #987053",
"#j c #68ddb3",
"#k c #817a78",
"#l c #929295",
"#m c #c3c3bf",
"#n c #b08d6e",
"#o c #9c7f6c",
"#p c #8d6f6b",
"#q c #6e5750",
"#r c #d9ce8e",
"#s c #c9bcb6",
"#t c #b19f92",
"#u c #c78c5b",
"#v c #a05425",
"#w c #c6a89d",
"#x c #d4ceb2",
"#y c #a39a94",
"#z c #e0e7ee",
"#A c #794833",
"#B c #a2c2ca",
"#C c #ab5f30",
"#D c #4b1e0c",
"#E c #cda06e",
"#F c #7a9e7c",
"#G c #281f20",
"#H c #3dbb74",
"#I c #4dc97b",
"#J c #eaf2f5",
"#K c #634846",
"#L c #8a553e",
"#M c #cb9671",
"#N c #b09876",
"#O c #c18463",
"#P c #60a86e",
"#Q c #8e8784",
"#R c #935d4e",
"#S c #8a4720",
"#T c #ededed",
"#U c #643727",
"#V c #bc975d",
"#W c #bacaba",
"#X c #805641",
"#Y c #949795",
"#Z c #9e8a3e",
"#0 c #3a3533",
"#1 c #78e5ce",
"#2 c #5ad296",
"#3 c #6cbcc4",
"#4 c #c09e91",
"#5 c #84e8cd",
"#6 c #c08452",
"#7 c #321e1b",
"#8 c #561f09",
"a` c #e4dad9",
"a. c #b6aa65",
"a# c #99aaa6",
"aa c #968274",
"ab c #b27041",
"ac c #d2c2c1",
"ad c #90bcbe",
"ae c #726e78",
"af c #544243",
"ag c #a2814f",
"ah c #b3a06d",
"ai c #402921",
"aj c #a5927f",
"ak c #8d5e4f",
"al c #4a1805",
"am c #af8164",
"an c #3b3a35",
"ao c #2a453d",
"ap c #ca9863",
"aq c #907b6a",
"ar c #c5ac87",
"as c #fefefe",
"at c #b3795d",
"au c #c7b1a2",
"av c #885a45",
"aw c #a26033",
"ax c #674a36",
"ay c #72412e",
"az c #8d7258",
"aA c #a19395",
"aB c #d8b994",
"aC c #96908d",
"aD c #516444",
"aE c #a6c696",
"aF c #d6c47e",
"aG c #73513c",
"aH c #a7806c",
"aI c #a9afb1",
"aJ c #bf9a79",
"aK c #cec3b6",
"aL c #c8925e",
"aM c #a8683f",
"aN c #bcc3bf",
"aO c #56606e",
"aP c #dbd1cb",
"aQ c #4e5161",
"aR c #3e5276",
"aS c #687f79",
"aT c #8c625d",
"aU c #632b14",
"aV c #ded8be",
"aW c #a27052",
"aX c #daccbf",
"aY c #725a38",
"aZ c #598d59",
"a0 c #54393e",
"a1 c #5e1f06",
"a2 c #805148",
"a3 c #94491d",
"a4 c #a58d69",
"a5 c #20283d",
"a6 c #362e2a",
"a7 c #9d7062",
"a8 c #000000",
/* pixels */
"asasasasasasasasasasasasasasasasasasasasasasasasasasasasasasasasasasasasasasasasasasasasasasasasasasasasasasasasasasasasasasasasasas",
"asasasasasasasasasasasasasasasasasasasasasasasasasasasasasasasasasasasasasasasasasasasasasasasasasasasasasasasasasasasasasasasasasas",
"asasasasasasasasasasasasasasasasasasasasasasasasasasasasasasasasasasasasasasasasasasasasasasasasasasasasasasasasasasasasasasasasasas",
"asasas.t.f.f.f.f.f.f.f.f.f.f.f.f.f.f.f.f.f.f.f.f.f.f.f.f.f.f.f.f.f.f.f.f.f.f.f.f.f.f.f.f.f.f.f.f.f.f.f.f.f.f.f.f.f.f.f.f.f.f#Q#zasas",
"asasas.fae#Y.P#l.f.f.fae`p#7.Da5a5af#k.X##.0.r#q.S`T.g.N.N.g.g.g.N.N#q.Ra0aY`D#0`D.q#k#l#YaQanaf#0#7.D.D``afa0a6a6.kaf``a6af.D.#asas",
"asasas.f#0aA`h#q.Faea#`K.q.FaR.F.F.f#ta4`p`t`D#i`G`7aHaHaH.vaHaHaHaH.v`ta2ag.MaGaGaq.O.J.##0afaf.D#0af`p.tac`K`K`K#y.taPa``h.B.#asas",
"asasas.fa6#Q.##p`P.B#l#zaPa`.J.##F`K#t#n.q#o`P`t#n`G#o.vaH.v.v.v.v.va7#p#X#oaxaYaG`d.P#m.P#G#7#7#0aQ`p#Q.J.Z.Z.Z#m#m.Z.Z#maf``.#asas",
"asasas.fa6aA#saT`P#7aC`U`U#W.J#Q.YaAajaj.I.aaxaka7.g`P.RaT#i#i.baTax###UaG.W.MaY.g.X#t.Z.f`w#G#G`wafaf.f#T#z`U`U`U`U.J#z`I.f.B.#asas",
"asasas.f``#Y`K#p.1.g.ta`#T#T`I#laQ#yaj#Naj.a`P#X#A.r#7ai`Pav.baT`P.r.r.r.Majax`T.Saz.W.qa6.B#G.B#7#K#K#k`UaIaIa#a#.Pa#aIaN.##0.#asas",
"asasas#ka5acau.H`G#oaV.z#m#W#z#Q`W#y#Naj`Qaj.cav#p`P.c`D`PaT.va7ay`D.c#Uaz#y#q.Xazaz.a#K.r.D#7.ra6a0af#ka``U.t`U`U`U.t#W`U.t.Y.#asas",
"asasas.f#yaK#taA.Har#r`s.3aN#z.f`W`Q#Na4`Qajaia2a7a7.KaT.KaH`GaHa7#paTaTa4#taxaz#o#o.a`p#7#7.D.D.D#G#0.f#zaP.t.t.t.t.t`U.J`I.f.#asas",
"asasas.faC#Nahah`na.`E`2.3`U#z#k`Wauahaj.h#y#7a0a7`7`7aH#O`G`G`7.v`7aH.v#4ah#qazaq.IaA#q#7#7.B#7.x##aiaf#QaIaIaIa#aIaIaI`U.J`X.#asas",
"asasas.f.X#Z`v`A`Aa.aha.`3.J#J`X#Q.Z`Q#N.haj.c.r.bat`7a7.b.j#4.H.Kaka7a7au`Q.q.Iazaj#y`pai#7#7#7a0a0.xa0aQ`U.J#z.J#z.J.J`U.t`X.#asas",
"asasas.f.q.I.u`A`v`n#Z#N#4.h#z#k`KaK`Q`Q.eajaf.xa2#g.1`xa2#u.H`G.v#A#A`T.h`Qaqa4aqaj#y.qa0a0a0#Kafafa0a0af#Q.#aIaIaI.##B`U`Uae.#asas",
"asasas.f.Mah`v`A`A`A`v`d.W`K#z#y#s.zau`Q`Eaj.M.x`Pay`eay.1#L.1avav#Xayakau#NaCaj.I#taj#p.c.x.r.raiai##.r.D.faI.##BaIaI`U#z`U`h.#asas",
"asasas.f##`Q`v`A`c`A`R`n`Gau#T#m#maK`E.C`Eah`T#7#7#L`xayay#g.1.1#A#Uay#par.I#N#N.I.OaA#kafaGag#c#q#7.x.B#0ae#T#z#z`I.J#z`U`U`X.#asas",
"asasas.f`T`d#Z`A`c`cahaz.Waja``U.t#s`E#t.C#N.X.c`FaUa2#La2a2#g.1a2a2aG#K.O.X#yaja4`Q.aaeafaY.u`u#X#7.B#G`waO`K`K.Pa#aN`I`I.J`X.#asas",
"asasas.faG`Taf..`X`5...ga7aaa`#x#W#s.h#N#naJ`da0.x`4ay#L#La2#A#Aa2#X`D.D`Q.qa4.aaj`Q#y.X##.S.u`u.c#G``#7.DaC.t.t`U.t`U#z.J`U.F.#asas",
"asasas.f#K#q.q.B.B.B#0#XaTaa.J`U#x.h.h#Nagaga4.R#7`4.r#A.1#g.1#L.1.R.x.r#t.Xa4`da4ar.O.I.qaY`Zag.c.B.B.rafa`#z#z#z.J.J`I`I.fa5.#asas",
"asasas.faf.g`p.B.B``##.N#paAaVaX.z.h`E#Nag`d#n.g#D#7.r.i#A.1.1#g#X.c.xai#yaa`d`t.I.OaK.zau#w.2#4`G#pa0a6`K.t.#aIa##B.J.J`UaRa5.#asas",
"asasas.f#K.q#0#Ga5a5af.gaq#saVaP#m.hauahag#iaz.v.c#D#D#8.iaU#U#U.iai.x#q.Wa4`T`ta4ar.e`E#4#N.H.C#4#wau#ta`.J.J.J.#.PaNaNaO.Fa5.#asas",
"asasas.f.k`T`KaNaNaN.OaA.4.zaP#x.z.ear`Qag`Tav#p`P.c.c.6.i.i.6aU.i.r.caq.0`taY.S.W.h.z.h#N.W`7`G.j#4.H#wauaca`.JaNaN#B#Y`O.J`X.#asas",
"asasas.faf`T#G#G.D.FaC.L.h`EaV.z.e.h.eah`d.RaG#c#U#U.i.i#U#UaU#UaU#8#U`Pax`DaY.S.I.h.z.ha4`k`k.vam#O`G.j#4#4ac#T#T`I`U.PaO.fae.#asas",
"asasas.f#7#p#K#Kaf.Mauau#w`EaX`E.z.z.h#N.S`T.Ra2aGa2ayayayayayayayay`P#U#X.c`PaYa4`E.L.eaj.vaWaWa7.vatat`7.j#4#waa.F.B````#GaO.#asas",
"asasas.f##aHa2#K.q.aau.H#4.4.z.L#x#rau`d`taG.R#Xav#X.1ava2a2#Aa2a2.1akak#i.R#K.ga4`EaX.h.maH`kaW.b.b#i.vat`7#u.H#4.M#7#7#7ai`w.#asas",
"asasas.f#p.H#o`Gajaj`G#n#w.h`E`S.L.e#N`d`T#U.Ravav.1.1#g#g#g.1.1.b.K.K.b.v#X.R`Ta4au.L`EaB.j.b#cav#L#L#gaWam#O.H#4#w#t#w#4.O`p.#asas",
"asasas.faA#d#d#d#d.HaH.v.C.h`EaB`E#N`dag#i.R`xakaT.Ka7.Ka7.K.b.K#i.va7a7#o`t#caY`d`Eau.h.C.j`t`x#S#A`x#Rawa7am#O.H#4#w.4ac#d.X.#asas",
"asasas.f#l#s#s#s#s.W`k#i`7araB`E#Zag.S.I`t#X#c.b.b.K.Ka7a7aWa7aWa7a7.v.v.v.va7`t.Sararar#N#oaT#UaU#U`6`xav#c.ba7at#O`G#M#w.m.q.#asas",
"asasas.f`XaIaIaIaI#o#i#i#i`Q.m`Qag`d`da4.Sak`ta7a7aWa7a7a7aWa7aW.v.v.vaHaHaH.v`k`T.Car.C#V`taY#D.c`D#Uay#A`x#L#c.ba7.v`7.j#4.M.#asas",
"asasas.f#F`O`O.A#B`kaW#c#i#n.2#V#i.S#n#n#c#iaW.vataH.vaW.v.vat.v.v.vaHaHam`7.W.vazaJ#V#Na4av`P.ral.r.6#Uay.R`x#Xak#g.b.K`kam#K.#asas",
"asasas.faSad.8.8a#az.b#c#i`Z`Q.C.S.S#V#V`t.vat.vamam`7am`7`7aHaHaH`7aH`7`7am`7.v.W#n#Va4ag#L`D#7.x#G#7.c#U`P.R.R#Xavaw#gaMaW.0.#asas",
"asasas.faSad.8ada#`t#R`k`ka4#E`u#Z`t.C#n#i.vataHatam`7`7`7`7aH`7`7amam#oamamam.Wama4#VagaW.N.0`w#`a6#G.r.i#U`P.R`x`x#Lav#R.b`D.#asas",
"asasas`Kanan#0#0an#0#0#0#0anan#0ananan#0anan#0an#0#0#0#0#0#0#0#0#0#0#0#0anan#0#0#0ananan#0#0`b#0#0an`b#0`ba6#0a6`b#0#0#0#0#0#0aPasas",
"asasasasasasasasasasasasasasasasasasasasasasasasasasasasasasasasasasasasasasasasasasasasasasasasasasasasasasasasasasasasasasasasasas",
"asasasasasasasasasasasasasasasasasasasasasasasasasasasasasasasasasasasasasasasasasasasasasasasasasasasasasasasasasasasasasasasasasas",
"asasasas#T#J#J#J#J#J#J#T#T#T#T#J#J#T#J#T#T#J#J#J#J#J#J#J#J#J#J#J#J#J#J#J#T#J#J#J#J#J#J#J#T#T#T#J#T#T#J#J#T#J#T#J#J#T#J#T#J#J#Jasasas",
"asasas#Q#G``.B#7.x#7#7.x#G#0.Dai.D.D`w`w`b#0aoaoanaoao.Yaoaoaoaoaoao#`aoaoaoaoaoaoaoao`ba6`b`b`ban`ba6#`#`#`#`anaoan#``ba6#G``aNasas",
"asasas.f.q.v`ta7#i#i.bavav`Z`k#Z#Z.5#f`f.E`o#..E#.#.`C#1#.`C`C#j`C`C#1#1#5#5#5#5#5`o`o`g#e.d`gaOa0.g#y.8.V#3#3`a.o`a.V`a`MadaQ.#asas",
"asasas.f`T`7#g#g.b.b`0#c.S.Ca4`d#b`i`o`o#5#5#1#1`C#1`C`C`C#1#1#1#1`C#1#1#1#5#1#5#5#5#5.E`f`Y`gaa`m`ma0.f`a.o`a#3`a.V#3.o`M.8a5.#asas",
"asasas.f.N.v.K#gaM.baWav.R#iaq`n`i`N`o`o#5#5#1`C`C`C#1`C`C`C`C`C`C`C`C`C`C#1#1#1#1#5#.#..E`Y.V#ya0#g`Gae.V.o`a.V`a`a`a#3`a.f.Y.#asas",
"asasas.f.N.1#L.K.K`0.b.7`P.i..#b`g`N`o`o#5#1`C#j`C`C`C`C`C`C`C`C`C`C`C`C`C`C`C`C`C#1#1#j`N`Y`g#Q.1`7a0#q.8#3.V.V`a`a`a`a#f#l##.#asas",
"asasas.fa2a7.K.KaW#i#c`x#U.c#7`L`N.E#5#5#1`C.l#j.l.l.l.l.l.l.l.l.l.l.l#2.l.l.l.l.l#j`Y#2#2`Y`g#Ka2`GaT#p#Y.V`a`a.o.Vad.U#Y#o#K.#asas",
"asasas.f.g.K.K.KaM#i#c#S`Dai.D`i`N.E#.#.#..l#2#2#2#2#2#2#2#2#2#I#2#I#2#I#I.y#I.y#2#I.y.y`Y.y`iaC.H#4`G`Ga#.o`a`aad`M#Bad#p#o#K.#asas",
"asasas.f#p.H.j.v.b.bav`6`D.r`DaE`N.E`N#2#2#2#I`.#I#I#I#I`.`.#I#I#I#I#I#I#I#I#I#I#I#I`.`.`.#a#F#Q.4`G`7#oa#`a.V`MadaN#m#m.h`G#K.#asas",
"asasas.f#p#4.H.v.b.bav`6`D.raY`E`g`Y.y.y.y`.`.#I`.`.#I`.#I`.`.`.#I`.`.#I`.`.`.#H`.#H#a`.#I#a.V.O#dau.v#k#B.V.VadaNaX#w#wau`G#K.#asas",
"asasas.faq.H.HaW.baw`xay.iaiaj`E`q`Y.y.y`.`.`.#H`.`.`.`.`.`.`.`.`.`.`.`.`.`.#H`.#H#H#H#H.w.da#.##s`Ga2#K#ya#aI.#.t.O.H#4#w`Gaf.#asas",
"asasas.f#p.H`GaW.bav`x`6aU.0.L.OaE`g#I#I#a#H`.#H`.`.`.#H`.#H#H`.#H#H#H#H#H#H#H#H#H.w.w`V#e#F`K.4aAa0a0a2a7`G`K.t.##w.a#4#w.jaf.#asas",
"asasas.f#qaH`7`k#c#S#Aay.i#XaXah#r`i.w#a`..w#H#H#H#H.w#H#H#H.w.w.w.w.w.w`V`z`V`V`V#P`VaZaDaA#w`Ga2.iaf.Ka7`G#d#daX`Gav#M#4.H#K.#asas",
"asasas.fafaT#n.vav#A`6ay.i`T.4#t`E`q#P`V.w.w.w.w`V`V`z`z`z`V`V`V`z`z`z`z`#`#`z`#`#`#aD`5.M.H.H#o.K.1.v.KaH.4acac#4`D#K`7#4#4aG.#asas",
"asasas.f`D`T#n`k#L.RaG`e#U`t.4#ta4`c#baZ#e`z`z`z`#`#`#`#`#`y`y`y`y`5`5ao.Yan`b#`..#0##af.N`G.a#paT.K.Ka7.4ac.4#w#q.xafa7`G`G#K.#asas",
"asasas.fa0aH#naW`xay.Ray.iaj.4au.N.aa4.0.0.Y`5aoao#`#`..`5.M.MaxaGaGaGaGax`P#U`D`D#U#U`P#k.4au.O.O#w#4#wauacac#t#k`p`h.v#w#w`p.#asas",
"asasas.f.qaHam`k.gaG#A`Pa0#w#s`K.a#QaaaY.Ray#U`D#U`P#A#A#A`x`x`x`x#AaG#A#Aay`P#U#U`Pay#K.v#za`a`a`a``Uac#s#s.Z.Oae.P.#.4.4.4`T.#asas",
"asasas.f#Q.WagaW#caY.R`P.RaK#m.ZaKaK#s.I.RaG`6.R`6.R#A#S.R#A#A`x.R#A#A.Rayay`P`P#U`Pay`P.NaI.OaIaI.#.Z.Z#m#s.ZaN.Z.#.O#s#s#s#q.#asas",
"asasas.f.XaH`kaW.gaG`P`Daq.Z.Z#m#s#m#m.O.M`x#A.R.R`6.R#A#A`xaG#A#A#A.Rayayay#U#U#U`P`P.R.N.P.#.#.#.Z.Z#s#m#m#s#maN#m#mac#m.Z`h.#asas",
"asasas.f.q.v`k#iavaG`P`Dau#m.ZaN#saNaN.#.NaG#A`6#A#A#A#A`6`x`x`x#A`6ayay`Pay#U`P#U`P.R#AaGaq.##sacaN#mac.Z#maK#m#s#m.Z#m#m#m`h.#asas",
"asasas.f.M`kaW.bav#A.0.N.Z.Z#m.Z#m#m#m#maz`x#A#Aay`6#A#A#A#A#A#Aay#Aay#Uay#Uayayay#Uay#Aa2.g#saN#m#m#m#m#m#m#maK#m#m#m#s#m#m`h.#asas",
"asasas.faG#iaW.baY#A`P#o#m#m#maN#m#maN#maqaG#A#A#A#A#A`x#A`x#A#Aayay#A`6#Aayay#A.Ray`P#Aa2#q.Z#W#m.Z#m#m#m#m#m#m#WaK#m#m#s#m`h.#asas",
"asasas.faYaWaW#c`xay.0.O.Z.#.Z#m.ZaN.Z.Zaq.NaG#A`x`x#X`x`x`x`x#A#A#A#A#A#A.R#A.Ray`P`PaGaG`Ta#.A#m#m#m#m#maN#maK#m#m.t#s#m#m`h.#asas",
"asasas.faG#iaW#c#XayaG.h.Z.Z.Z#m.ZaN.Z.ZaqavaG#A`x`x`x#X`x#A`x#A#A#A#A#A#A#A#A#Aay.R#K#A.M.f`LadaNaN#m#m#maN#m#m#m#m#m#m.##m`h.#asas",
"asasas.f#qaW.bak#A.R#Q.Z.Z.ZaN#maN.ZaN#maz.g`x#A#A`x#X#S`x`x`x#Aa2#A#A`x#A#A#Aay.R#A#A.R`W`qaZ#f#Y#m.Z#m#m.ZaN#m#m#m#m#m#m.Z`h.#asas",
"asasas.faYaW.b#X#A.R.O.ZaN#m.Z.ZaN.ZaN#maz`T#L`x`x`x`x`x`x#A#A.i#A#U.R#A#A.R#A#A.R#A`x.R`L#P`g#Qaz.O.ZaN#m#s.Z.Z.Z.Z.Z.Z.Z#s`h.#asas",
"asasas.f#X.b.b`x.R.S#saNaN.Z.Z.Z.ZaN.Z.Z.I.g.7`x#A#A`x#A#A#A.R.R`Pay#A`x#A#A.R#A#AaGaGaD`g.d`L.q.g.a#m.Z.Z.ZaN.Z.Z#m#s#m#m#m`h.#asas",
"asasas.f.NaW.b`x`PaA#s.Z.Z.Z.#.#.#.Z.ZaIa#aY#X`x`x#A`x#A.R#Aay`xa2a2#A#A#Aay#A#A#AaG`W`g`Y`L.M`xa2`T.##s.Z.Z.Z#m.Z#m#s.Z.Z#s`h.#asas",
"asasas.f.gaW#c`xaG.h.#.h.Z.#.Z.#.Z`E.##b.saSaY#L`x`x#A#Aayay#AaGa2#A`x#Aayay#A.R`x.k#F`Y.d.kax.RaG.gaj#s.Z.Z.Z.Z#m.Z#s.#.Z.Z`h.#asas",
"asasas#Qa6##ai.D#0`p`W`W`W`W`W`W`W`W`panaD`y`wa6ai.r.D.r.r#7.r.Dai#7.Dai.D.rai#7.Dao`y`y`b.x.D.Daiai##`W`W`W`W`WaO`W`W`W`p`p#0.Zasas",
"asasas#T#m#m#m#m#m#m#m#m#m#m#m#m#m#maN.Z.Z.z#m#m#m#m#maN#m#m#m#m#m#m#m.Z#m#m#m#maN#m#m#m#m#m#m#m#m#m#m#m#m#m#maK#m#m#m#m#m#m#m#Jasas",
"asasasasasasasasasasasasasasasasasasasasasasasasasasasasasasasasasasasasasasasasasasasasasasasasasasasasasasasasasasasasasasasasasas",
"asasas`KaC#Y#l#Y#l#Y#l#Y#l#l#Y#l#YaC#Y#Y#l#YaC#Y#YaC#Y#Y#Y#l#l#Y#Y#Y#Y#l#l#l#l#Y#l#l#l#Y#Y#l#l#l#Y#Y#l#l#Y#Y#l#l#Y#Y#l#Y#Y#YaIasasas",
"asasas`w.c`4```F```F`F`F.x`F`4`4#D#8.i`P.R`x`x#Xavav#c.S.S`t`T#X.g.Maqax.i#D.T#h`eay#A`xavak.gav`t`t`t.S#c`t`t`t`t`t`t`t#cak.Dasasas",
"asasas`baG#D`F.T`F`4`4alal`malaU`e`e#Sawabab`H`H#u`Z#u#M#E#E#Eak`t.vaBaJ.G`B.p`1a3`8`J`H#6#6#uaLap#E#Eap#E#E.2#E#E#E#EapaL#6a6asasas",
"asasasa6.Ral`F`4`F.T.Talal`mal.p`e.G.`awabab`H.Q#6aL#u#uap#Eap`x.baL.maB.``B`1`1a3#C`Jab.Q.Q#6#uapap#E#Map#E#E#MaL#u#u#u`Haba6asasas",
"asasas`w.i.T`F`4`F.T.T`mal#8.TaU`1`6`l`0`J`H.Q.Q#6.Q.Q`H#Oap.m#n#u#E#waB.j`6`l`1`B#v#Cab`H`H.Q#6#uapapapapap#E#u#6#6#6`Haw#R.Dasasas",
"asasas`w#8`4`F`4`F.T.Tal`mal.TaU`1`6`law`0`Jababab.baw#Rab#6#E.m.m#E#E.m.m`B`l`B`B`l#C#Cabab`H#6#uaLaLaLapaL#u`Hab`Hab`0.n#c`wasasas",
"asasas`w#8.T`F`4`Fal.Tal#8al.Ta1aU`6a3`8aw`Jabat#g`xaH#Ratat`Z#EaB#waL#E#E.7`B`0#S#v#C`J`Jab`H.Q#6#uaLaLaLap`Z.Q`0.`a3aw#V#Va6asasas",
"asasas`w#8al`F`4`F.T.T`m#8al.T#8`1`6a3`8awaMab`x`P`x.baW.Q`H.Q#u.m.m#uaL.m`8`l#R.n.`#C`J`Jab`H.Q#6#u#u#uap#E#uaW`8`8`8awa.`E#0asasas",
"asasas`w#Dal.T`F`F.T.T`m#8#8.Tal.p.G.7`8`0at`H.bab.v.n#O.Q.Qat#6aL.m.maL.m`0#v#S`u.n#C`Jab`H.Q#6#u#u#u#u#M.2aL`0`0`0`0aW`S`2anasasas",
"asasas`w#Dal`4`F`4`4.T`m`m`m.T`m.p`1#S#v`0`H#6#6#6#6#O#O#O`Hab`HaL.maBaLap`0`8#Saw.2`Habab.Q#6#6#uaL#u#u#u#E#E`H`0abab.naF`2anasasas",
"asasas`w.6al`4`4`F.T.Tal#ha1.Tal.p`1`6a3awaW`H.n#6.Q#u#u.Qabat.Qat#uaB.2#u`l#Ca3a3`u.2#6`H.Q#6#uaLaLapaLap#Eap.n.nabab`uaF#ranasasas",
"asasas`w.6al.T`F.T.T.T`ma1a1`ma1.p`1.G#S.``0ababab.Q.Q#O#6`H.Q`H#OaL#EaB#M#S`8#v`l`0`S#E`H.Q#u#uaLaLaLapap#Eap`H.n`H`k.2#r#r#0asasas",
"asasas`w#8`m.T`F.T.T.T`ma1#h`ma1`1`B#S.7`l#vaw`J`H`H.Q.Q#6#u#O#O#u#O#OaBap#S#v#va3`0`uaF.u.Q#6#uaLaLapap#E#E#E`Z.Q`H.n`S#raFanasasas",
"asasas`w#D`m.T.T.T`F.T`ma1#h`m`m.p`eaU`P.7`8`8#C#Cab`H.Q#O.Qab`J`Jab#u.m#M#S#v`l`l`8ab#EaFaL#6#uaLaLaLap#E#E#E`Z#6`H`Z#r#r`2anasasas",
"asasas`w.6#8.T.T.T.T.T`ma1#ha1`m#8al`F`F#U.`aw#C`J`J`H.Q#uat#Oatatab#M.m#M`B`l`la3#C`Jab`S`SapaLapapap#E#E#E#V#6.Q.n.2#r`j`2anasasas",
"asasas`w#8#8alal.T.T.Ta1`m#h#hal#8`4`F```4`e#Raw`Jab`H.Q#u#u#u#O#O#O#E.m#u#S`l`l`l`8#C`J`uaF`Sapapapap#E.2#EaL#6.Q`u`S#r`j#ranasasas",
"asasas`w#D#8`m.T`m`Fal`m`ma1.6.6al`4`F`F`F`F`e.7#g`Jab`H#O#O#O#u#u#u#M#Eab`B#v`l#v#v#C`JabaL#r`Sapapap#E#Eap`Z#6.n#ZaF`j#r#ranasasas",
"asasas`w#8al`mal.T.T.T`m`ma1#h#8#8al`F`F`F`F#D#A.G`6.`#C`Jabat#O#u#u#O`H#va3`l`l#v#v#C#Cab.n.u`j.mapapapapaL#6.Q.n`S#r#r#r#ranasasas",
"asasas#G`m#8ala1.T.T`m`m`ma1.6a1#h#8.T`4`F`Fal`6#AaU`1#S`l#v#C#CababaMaw#v`l#v#v#v#v#v#C`J`H#6`S#r.2apap#u#6#6#6#V`j#r#r`j#ranasasas",
"asasas`w#D#8al#8.T.T`ma1a1`m.p#ha1.6#8alal#8.6`e.b`e`1.G`B`B`l#v`8#Caw#Ca3`l#v#v#v#v#v#C`J`H#6#u`S#r#EaL#6#6.Q`ZaF`j`j`2#r#ranasasas",
"asasas#G#8#8a1al.T.T`m#h#h`ma1.p.6#ha1.paU`1.G.G#cak.G.G`B#S`B#Sa3`l`J#C#va3`l#v#v#v#v#v`J`H#6#uapaFaFap`u#u.uaF#r`j#r`2`E#ranasasas",
"asasas`wal#8`mal.T`m`m#h#ha1.p.p`1.6.p`1`6.7.`.`.``Z.7`Ba3#v#v#v.``law`l#v`l#v#v#v`l`l#v`Jab.Q#6#u#u`S.2`SaF`j`j`r`j`j#ra.#ranasasas",
"asasas#Gal#Da1`m.Tal`m.p#ha1a1.p.p.paU`e#S`8awaw.`aLama3a3`l`8`8awab`8a3#v#v#v#v`l`la3`l`Jab.Q#u#6#6`ZaF`j`r`j`j`j#r#r`j`A`2anasasas",
"asasas`w`m#Da1`m`mal#8`1.p#h#h.p.p.paU`ea3aw`0`0`8.n.maw`l#v#v#v`8ab#v`l#v#C#v#v#va3a3`l#Cab`H#u#6#u#6#E`3`r`r`j`j`A#x`j.#`canasasas",
"asasas#G.6#8`mal#8#8#8.p.p#h#h.p.p.p.p.6.G.`awawaw`0#EaJ`8#v`8#v`Jaw`l`l#C#v#C#v`l`l`B`l`0`J`H.Q#6#6`Z#V`j`j`r`r#ra.`j`ja..e#0asasas",
"asasas`w#U#8#hal#8#8#8aU.p.pa1#h`1.pa1.6.G.7#vaw`8aw`k`Sab`8#C`Jab#v#v#v#v#v#C#v#v`l`Ba3#Cab`H.Q#6#6#u`Z#r`j`r`3#r`2`j#ra..eanasasas",
"asasas`w.i.6.6#8#8#8`m.p`1.p#ha1`1.p`1`e`6`B`8awaw`8ab#V.2`8#Cab`J#C#v`l#C#v#v#C#v#v`Ba3`8`Jab`H#6#u#6aLaF`j`r`j#r`j`j#r`E`2#0asasas",
"asasasa6`DaU#h#8.6#8`m.p.p.p#h.p`1`1`1.G#S.`#vawawaw`H.n`S.nabab`0#C#C#C`8#v#v#v`l`l`Ba3`8`0ab`H.Q#6#u`ZaF`j`r`r`j`j`ja..e`2#0asasas",
"asasas`w`D#X.i.6.6`m`m#h.p.p.p.p.p.G`1`6#S.`#v#vaw`8`0.n`R.2aW#C`Jabab`J#C#C#C#v`la3`B`B`8#Cabab`H#6#u`ZaF`j`r`r`r`r`j#b`2`2anasasas",
"asasas.k`w.D#G`w.D#G#G#7#7#7.r#7#7.D`w`w.Da6a6`wa6`w.D#0a6#0a6.D.Da6a6aiaiaiaiai.r.D.D.Da6.Da6a6.ca6a6a6..anananananan#0an#0.Yasasas",
"asasasasasasasasasasasasasasasasasasasasasasasasasasasasasasasasasasasasasasasasasasasasasasasasasasasasasasasasasasasasasasasasasas",
"asasasasasasasasasasasasasasasasasasasasasasasasasasasasasasasasasasasasasasasasasasasasasasasasasasasasasasasasasasasasasasasasasas",
"asasasasasasasasasasasasasasasasasasasasasasasasasasasasasasasasasasasasasasasasasasasasasasasasasasasasasasasasasasasasasasasasasas"
};
